<?xml version="1.0" encoding="UTF-8"?>
<svg id="buildings-front" xmlns="http://www.w3.org/2000/svg" viewBox="0 0 2139 1080">
  <defs>
    <style>
      .cls-1 {
        fill: #197ebc;
      }
    </style>
  </defs>
  <g>
    <g>
      <path class="cls-1" d="m9.99,916.7v-183.05h35.05v95.89h13.44v-17.43h35.05v83.78h9.12v-92.5h38.89v72.16h13.44v-170.46h19.2v-28.57h19.69v28.09h4.8v143.34h4.8v-53.27h43.69v86.68h11.04v-10.65h47.05v-66.83h44.65v65.38h19.69v-9.2h22.57v8.72h12v41.65h9.12v-61.02h42.25v-76.51h24.49v-15.01h9.12v-10.65h12.96v24.21h5.28v97.82h13.44v-10.65h12.48v-119.62h38.41v4.84h2.88v147.22h36.01v-62.47l10.08-10.17h29.77l10.8,10.9v60.29h6.48v-106.54h21.61v-12.11h20.17v10.17h5.28v107.51h7.68v-76.03h41.29v56.66h11.04v-83.78h17.28v7.75h20.17v75.55h6.72v-106.54h24.49v-14.53h23.05v13.56h4.8v123.97h6.72v-56.18h42.73v17.43h5.76v-53.75h40.81v110.41h6.24v-88.14h47.05v58.6h7.68v-67.8h16.32v-13.08h21.13v11.14h5.76v65.86h4.32v46.97s-1065.88.48-1065.88,0Z"/>
      <path class="cls-1" d="m1067.36,916.83v-183.05h35.24v95.89h13.52v-17.43h35.24v83.78h9.17v-92.5h39.1v72.16h13.52v-170.46h19.31v-28.57h19.79v28.09h4.83v143.34h4.83v-53.27h43.93v86.68h11.1v-10.65h47.31v-66.83h44.89v65.38h19.79v-9.2h22.69v8.72h12.07v41.65h9.17v-61.02h42.48v-76.51h24.62v-15.01h9.17v-10.65h13.03v24.21h5.31v97.82h13.52v-10.65h12.55v-119.62h38.62v4.84h2.9v147.22h36.2v-62.47l10.14-10.17h29.93l10.86,10.9v60.29h6.52v-106.54h21.72v-12.11h20.27v10.17h5.31v107.51h7.72v-76.03h41.51v56.66h11.1v-83.78h17.38v7.75h20.27v75.55h6.76v-106.54h24.62v-14.53h23.17v13.56h4.83v123.97h6.76v-56.18h42.96v17.43h5.79v-53.75h41.03v110.41h6.28v-88.14h47.31v58.6h7.72v-67.8h16.41v-13.08h21.24v11.14h5.79v65.86h4.34v46.97s-1071.64.48-1071.64,0Z"/>
    </g>
    <rect class="cls-1" x="2" y="911.5" width="2137" height="220"/>
  </g>
  <rect class="cls-1" x="0" y="816.5" width="13" height="119"/>
</svg>