<?xml version="1.0" encoding="UTF-8"?>
<svg id="clouds_front" data-name="clouds front" xmlns="http://www.w3.org/2000/svg" viewBox="0 0 2139 1080">
  <defs>
    <style>
      .cls-1 {
        fill: #fff;
      }

      .cls-2 {
        opacity: .84;
      }
    </style>
  </defs>
  <g class="cls-2">
    <path class="cls-1" d="m414.98,408.65c0,8.77,278.02,2.93,278.02-6.88-11.05-13.19-38.56-20.77-47.95-18.03,0,0,7.62-27.09-19.34-36.25-24.91-8.46-35.26,19.27-33.39,25.89,0,0-3.57-10.27-12.59-5.61,0,0-9.55-14.13-22.41-1.85,0,0,.08-44.92-31.51-44.92s-33.17,35.66-28.96,43.63c0,0-21.45-3.62-13.49,20.17,0,0-13.25-2.4-9.16,11.23l-59.22,12.62Z"/>
    <path class="cls-1" d="m693,401.76c-1.31-1.56-2.85-3.04-4.56-4.44-14.44-6.13-33.62-6.67-56.05-2.18-25.61,5.12-63.81,2.99-75.34-.85-11.53-3.84-102.93,16.97-142.07,14.35,0,8.77,278.02,2.93,278.02-6.88Z"/>
    <g>
      <path class="cls-1" d="m557.05,394.29c11.1-1.49,6.19-12.7-2.56-10.78,0,0-4.91-12.34-25.26-11.2-20.35,1.14-15.94,14.94-15.94,14.94-8.11-3.41-29.34,10.71-27.4,15.32,33.29-4.86,64.71-10.42,71.16-8.27Z"/>
      <path class="cls-1" d="m507.32,348.97s5.41,13.52,25.76,5.69c14.49-5.57,20.75-2.34,23.15-.02-2.25-13.3-9.15-33.65-30.42-33.65-16.89,0-25.2,10.2-28.63,20.92,3.64,4.03,12.71,3.28,21.95-2.18,0,0-1.14,6.4-11.81,9.25Z"/>
      <path class="cls-1" d="m617.87,366.97c15.15-1.49,25.45,7.58,27.17,16.76,0,0,7.62-27.09-19.34-36.25-9.71-3.3-17.19-1.09-22.62,3.22-3.78,9.12,3.57,17.37,14.79,16.27Z"/>
      <path class="cls-1" d="m570.49,371.56c8.43,3.84,9.71,0,9.23-3.8,0,0-6.63-9.78-16.27-5.97-.38,3.15,1.69,7.34,7.04,9.77Z"/>
      <path class="cls-1" d="m592.31,373.37s-2.71-7.8-9.39-6.71c-1.37,4.7,10.13,10.73,9.39,6.71Z"/>
      <path class="cls-1" d="m613.75,393.08c14.96-.13,25.47-5.68,25.47-5.68-4.84-12.1-15.51-11.82-18.78-10.25,0,0-3.13-5.84-10.67-4.91-7.54.93-5.83,9.64-5.83,9.64-7.26-.6-12.09,5.37-10.1,7.79s11.78,3.49,19.92,3.41Z"/>
      <ellipse class="cls-1" cx="580.84" cy="393.96" rx="7.58" ry="3.43"/>
      <path class="cls-1" d="m496.85,364.62s-16.48-2.78-15.19,12.56c6.92,13.5,21.48-8.6,15.19-12.56Z"/>
      <path class="cls-1" d="m516.18,362.06c-2.97,0-5.37,2.28-5.37,5.09,0,.07.02.13.02.2-.53-.24-1.12-.39-1.76-.39-2.02,0-3.66,1.34-3.66,3s1.64,3,3.66,3c1.64,0,3.01-.88,3.48-2.1.96.84,2.23,1.36,3.64,1.36,2.97,0,5.37-2.28,5.37-5.09,0-2.81-2.4-5.09-5.37-5.09Z"/>
      <path class="cls-1" d="m540.76,368.68c6.47,1.57,15.47,10.88,15.47,10.88,6.01-1.28,11.21,4.48,11.21,4.48,4.34-2.42.23-12.78-7.11-10.17,0,0,2.16-4.04-5.34-7.68-10.24-4.98-14.23,2.49-14.23,2.49Z"/>
    </g>
    <g>
      <path class="cls-1" d="m503.65,354.11c-28.92,5.98-60.93,3.94-60.93,3.94,13.45-2.34,35.86-4.9,35.86-4.9.71-8.04,7.75-10.96,13.66-9.39,3.74.99,5.76,6.26,5.76,6.26,3.91-2.06,5.66,4.09,5.66,4.09Z"/>
      <path class="cls-1" d="m569.63,345.56c8.91,2.97,16.42.8,16.42.8.8-2.65-7.39-5-9.38-2.71,0,0-1.87-4.34-5.3-3.01-3.43,1.32-1.75,4.92-1.75,4.92Z"/>
    </g>
  </g>
  <g class="cls-2">
    <path class="cls-1" d="m1307.22,399.86c-.31-15.57-15.74-16.59-22.64-12.37,0,0-1.59-14.58-13.65-6.99,0,0,6.22-15.78-8.9-23.16-15.12-7.38-22.41,9.45-22.41,9.45,2.69-34.53-11.56-57.3-43.49-55.15-34.66,2.34-40.37,39.19-38.31,49.75-9.41-4.95-19.79,4.82-17.78,17.51-12.74,13.23-61.28,9.61-61.5,15.96,23.88,12.01,228.41,13.24,228.69,5Z"/>
    <path class="cls-1" d="m1307.22,399.86c-.07-3.64-.98-6.48-2.4-8.65-2.82,2.91-11.49,2.74-21.06,4.28-12.52,2.02-26.96-6.38-40.01-9.11-13.06-2.74-30.92,1.73-30.92,1.73,7.99-2.88,12.16-14.3,12.16-14.3-17.36,11.47-48.97,8.81-60.16-2.1,0,0,6.59,14.7,17.58,18.85,0,0-51.81,7.31-103.88,4.31,23.88,12.01,228.41,13.24,228.69,5Z"/>
    <g>
      <path class="cls-1" d="m1266.47,372.09s-1.4,6.13-11.29,6.97c0,0,13.77,5.26,16.95-7.46-.35-4.85-2.59-10.6-10.12-14.27-6.12-2.98-10.95-2.01-14.54.22-5.23,12.28,5.09,22.78,18.99,14.53Z"/>
      <path class="cls-1" d="m1284.58,387.49s-1.34-12.21-10.82-8.45c.43,6.37,9.73,13.7,10.82,8.45Z"/>
      <path class="cls-1" d="m1288.5,385.89c.15,3.53,9.96,9.64,16.32,5.31h0c-3.68-5.6-10.86-6.69-16.32-5.31Z"/>
      <path class="cls-1" d="m1243.75,386.38c5.72,1.2,11.7,3.48,17.67,5.5-.55-6.09-11.78-8.54-11.78-8.54-2-7.87-14.32-9.27-16.5-1.98,0,0-6.5-.65-9.01,4.76,5.98-.71,13.35-1.06,19.61.25Z"/>
      <path class="cls-1" d="m1169.59,345.91s5.14,8.6,26.33,9.34c21.19.74,25.8-10.67,25.8-10.67-9.1,4.42-18.98,1.09-18.98,1.09,5.99.65,25.9-5.29,29.79-17.72-7.04-11.33-19.13-17.47-36.4-16.31-17.41,1.17-27.51,11.06-33,21.94,4.78,10.08,25.56,12.82,25.56,12.82-4.61,1.42-19.1-.49-19.1-.49Z"/>
      <path class="cls-1" d="m1198.72,372.88c13.91,2.4,21.96-3.84,21.96-3.84,9.13,2.03,16.38-2.19,14.11-4.77-2.28-2.58-11.71-7.51-14.78-2.36,0,0-.63-5.68-11.06-3.25-8.35,1.94-8.2,8.89-8.2,8.89-5.56-2.82-4.89,4.83-2.03,5.32Z"/>
      <ellipse class="cls-1" cx="1230.76" cy="350.77" rx="3.86" ry="4.96" transform="translate(837.25 1568.53) rotate(-88)"/>
      <path class="cls-1" d="m1161.36,361.84c4.59,7.79,24.47,10.94,24.47,10.94,5.9-6.99-9.5-10.42-9.5-10.42-3.61-11.29-15.49-8.34-14.97-.52Z"/>
      <path class="cls-1" d="m1153.08,360.09c-7.8-.31-14.73,8.23-13.05,18.81,17.56,3.93,16.58-9.12,13.05-18.81Z"/>
    </g>
    <g>
      <path class="cls-1" d="m1126.91,352.84c-20.99,3.65-28.88,1.49-29.83-.41-.95-1.9,13.83-3.31,13.83-3.31,4.27-7.73,16.35-2.77,16,3.71Z"/>
      <path class="cls-1" d="m1288.68,341.72c-.1,2.87-3.94,3.48-8.65,3.32-4.71-.16-8.5-1.05-8.4-3.91.1-2.87,4-5.06,8.7-4.89,4.71.16,8.44,2.62,8.34,5.49Z"/>
    </g>
  </g>
  <g class="cls-2">
    <path class="cls-1" d="m1534.38,359.64c-1.12-14.94,10.94-25.9,22.26-20.46-6.41-9.39,5.09-25.09,16.82-20.74,2.38-15.93,20.16-23.49,30.34-21.68,13.28,2.36,21.77,15.02,24.3,28.12,8.49-10.87,26.35-9.23,30.37,6.87,0,0,14.92-16.21,23.44,15.96,7.38-11.22,28.99-7.16,28.99,10.59,0,6.92-26.38,7.37-30.25,3.35,0,0-22.87,21-74.3,5.36,0,0-37.54,13.82-65.28,2.86,0,0-23.14,4.23-49.13.56,15.42-10.72,42.44-10.79,42.44-10.79Z"/>
    <path class="cls-1" d="m1680.73,356.44c-12.73,12.06-49.13,15.48-69.45,5.43,0,0,5.29-2.9,8.04-12.36-12.21,15.56-57.32,26.57-78.46,13.92,0,0-23.88,8.33-40.03,2.33-3.17,1.27-6.2,2.81-8.88,4.67,25.99,3.67,49.13-.56,49.13-.56,27.74,10.96,65.28-2.86,65.28-2.86,51.43,15.64,74.3-5.36,74.3-5.36,3.87,4.02,30.25,3.57,30.25-3.35-15.75,7.37-30.17-1.86-30.17-1.86Z"/>
    <g>
      <path class="cls-1" d="m1624.73,314.48c-4.14-8.83-11.26-16-20.93-17.72-8.34-1.48-21.78,3.33-27.67,13.88,1.68,5.38,8.07,9.23,16.39,7.09,0,0-2.2,6.85-15.04,3.05,0,0,0,11.98,24.34,7.15,4.62,3.05,26.72,6.33,22.91-13.45Z"/>
      <path class="cls-1" d="m1554.82,332.85c2.32,4.86,8.22,7.33,12.61,6.35,8.04-1.79,10.61-16.52,6.03-20.77-9.33-3.46-18.5,5.77-18.64,14.41Z"/>
      <path class="cls-1" d="m1657.5,328.76c-4.52-11.17-16.66-13.47-25.11-7.85-1.13,8.21,11.03,19.33,25.11,7.85Z"/>
      <path class="cls-1" d="m1556.65,339.18c-9.12-4.38-18.7,1.88-21.51,12.28,15.74,20.53,30.07-7.68,21.51-12.28Z"/>
      <path class="cls-1" d="m1564.06,357.64c-2.37-4.04,2.85-9.55,6.53-8.58,1.36-4.01,12.58-14.37,21.81-5.34,2.46-2.46,10.3-.86,7.74,4.84,2.97,5.04-13.93,11.4-25.85,8,0,0-8.25,4.45-10.23,1.08Z"/>
      <path class="cls-1" d="m1681.91,347.71c2.48,13.27,31.4,6.83,25.1-.59-6.57-7.64-19.68-7.66-25.1.59Z"/>
      <path class="cls-1" d="m1663.03,328.57c.07,6.67,14.39,17.39,16.03,10.61-5.25-12.46-11.76-12.49-16.03-10.61Z"/>
      <path class="cls-1" d="m1630.64,353.69c5.85,8.57,32.62,2.25,33.66-1.09-1.56-9.89-8.27-4.15-8.27-4.15-3.02-7.95-15.59-4.65-17.23-1.2-5.86-6.04-11.2,1.97-8.16,6.43Z"/>
      <path class="cls-1" d="m1618.78,334.83c-7.12-3.67-11.54,5.93-3.04,7.72,0,0,16.62.85,12.34-7.12s-9.3-.6-9.3-.6Z"/>
      <ellipse class="cls-1" cx="1658.31" cy="339.54" rx="4.97" ry="3.04"/>
      <ellipse class="cls-1" cx="1599.13" cy="336.32" rx="3.04" ry="5.88" transform="translate(963.86 1841.9) rotate(-79)"/>
      <ellipse class="cls-1" cx="1638.2" cy="339.03" rx="2.76" ry="1.65"/>
    </g>
  </g>
  <g class="cls-2">
    <path class="cls-1" d="m1827.1,395.1c0,8.77,278.02,2.93,278.02-6.88-11.05-13.19-38.56-20.77-47.95-18.03,0,0,7.62-27.09-19.34-36.25-24.91-8.46-35.26,19.27-33.39,25.89,0,0-3.57-10.27-12.59-5.61,0,0-9.55-14.13-22.41-1.85,0,0,.08-44.92-31.51-44.92-31.58,0-33.17,35.66-28.96,43.63,0,0-21.45-3.62-13.49,20.17,0,0-13.25-2.4-9.16,11.23l-59.22,12.62Z"/>
    <path class="cls-1" d="m2105.12,388.22c-1.31-1.56-2.85-3.04-4.56-4.44-14.44-6.13-33.62-6.67-56.05-2.18-25.61,5.12-63.81,2.99-75.34-.85-11.53-3.84-102.93,16.97-142.07,14.35,0,8.77,278.02,2.93,278.02-6.88Z"/>
    <g>
      <path class="cls-1" d="m1969.16,380.75c11.1-1.49,6.19-12.7-2.56-10.78,0,0-4.91-12.34-25.26-11.2-20.35,1.14-15.94,14.94-15.94,14.94-8.11-3.41-29.34,10.71-27.4,15.32,33.29-4.86,64.71-10.42,71.16-8.27Z"/>
      <path class="cls-1" d="m1919.43,335.43s5.41,13.52,25.76,5.69c14.49-5.57,20.75-2.34,23.15-.02-2.25-13.3-9.15-33.65-30.42-33.65-16.89,0-25.2,10.2-28.63,20.92,3.64,4.03,12.71,3.28,21.95-2.18,0,0-1.14,6.4-11.81,9.25Z"/>
      <path class="cls-1" d="m2029.99,353.42c15.15-1.49,25.45,7.58,27.17,16.76,0,0,7.62-27.09-19.34-36.25-9.71-3.3-17.19-1.09-22.62,3.22-3.78,9.12,3.57,17.37,14.79,16.27Z"/>
      <path class="cls-1" d="m1982.61,358.02c8.43,3.84,9.71,0,9.23-3.8,0,0-6.63-9.78-16.27-5.97-.38,3.15,1.69,7.34,7.04,9.77Z"/>
      <path class="cls-1" d="m2004.43,359.83s-2.71-7.8-9.39-6.71c-1.37,4.7,10.13,10.73,9.39,6.71Z"/>
      <path class="cls-1" d="m2025.86,379.54c14.96-.13,25.47-5.68,25.47-5.68-4.84-12.1-15.51-11.82-18.78-10.25,0,0-3.13-5.84-10.67-4.91-7.54.93-5.83,9.64-5.83,9.64-7.26-.6-12.09,5.37-10.1,7.79,1.99,2.42,11.78,3.49,19.92,3.41Z"/>
      <ellipse class="cls-1" cx="1992.96" cy="380.41" rx="7.58" ry="3.43"/>
      <path class="cls-1" d="m1908.96,351.08s-16.48-2.78-15.19,12.56c6.92,13.5,21.48-8.6,15.19-12.56Z"/>
      <path class="cls-1" d="m1928.29,348.52c-2.97,0-5.37,2.28-5.37,5.09,0,.07.02.13.02.2-.53-.24-1.12-.39-1.76-.39-2.02,0-3.66,1.34-3.66,3s1.64,3,3.66,3c1.64,0,3.01-.88,3.48-2.1.96.84,2.23,1.36,3.64,1.36,2.97,0,5.37-2.28,5.37-5.09,0-2.81-2.4-5.09-5.37-5.09Z"/>
      <path class="cls-1" d="m1952.87,355.14c6.47,1.57,15.47,10.88,15.47,10.88,6.01-1.28,11.21,4.48,11.21,4.48,4.34-2.42.23-12.78-7.11-10.17,0,0,2.16-4.04-5.34-7.68-10.24-4.98-14.23,2.49-14.23,2.49Z"/>
    </g>
    <g>
      <path class="cls-1" d="m1915.77,340.57c-28.92,5.98-60.93,3.94-60.93,3.94,13.45-2.34,35.86-4.9,35.86-4.9.71-8.04,7.75-10.96,13.66-9.39,3.74.99,5.76,6.26,5.76,6.26,3.91-2.06,5.66,4.09,5.66,4.09Z"/>
      <path class="cls-1" d="m1981.75,332.02c8.91,2.97,16.42.8,16.42.8.8-2.65-7.39-5-9.38-2.71,0,0-1.87-4.34-5.3-3.01-3.43,1.32-1.75,4.92-1.75,4.92Z"/>
    </g>
  </g>
</svg>