<?xml version="1.0" encoding="UTF-8"?>
<svg xmlns="http://www.w3.org/2000/svg" viewBox="0 0 2139 1080">
  <defs>
    <style>
      .cls-1 {
        fill: #fff;
      }

      .cls-2 {
        opacity: .49;
      }
    </style>
  </defs>
  <g id="clouds_back" data-name="clouds back" class="cls-2">
    <g>
      <path class="cls-1" d="m1337.12,675.51c-6-8.2,5.85-24.06,20.09-12.91,0,0-21.48-40.05,24.55-44.55,41.25-4.03,24.75,46.68,24.75,46.68,3.7-5.25,19.11-6.27,20.48,7.15,0,0,3.16-21.94,19.05-21.94,21.9,0,20.98,29.15,20.98,29.15,0,0,12.16-14.37,19.62,3.26l37.34,4.89c-27.8,17.64-101.23,7.33-101.23,7.33-43.71,11.54-82.37-2.05-82.37-2.05-17.94,0-15.98-17.01-3.28-17.01Z"/>
      <path class="cls-1" d="m1524,687.24c-63.9,15.19-98.37,1.68-98.37,1.68,5.12-3.56,4.48-9.18,4.48-9.18-6.35,13.54-65.29,20.33-87.76,7.36,0,0-12.41,5.56-14.71-5.62-1.6,4.9,1.99,11.04,12.77,11.04,0,0,38.66,13.59,82.37,2.05,0,0,73.42,10.31,101.23-7.33Z"/>
      <g>
        <path class="cls-1" d="m1350.55,674.86c17.59-1.66,6.67-12.26,6.67-12.26-10.91-8.55-20.42-1.23-21.56,6.35,1.97,3.79,7.03,6.65,14.9,5.91Z"/>
        <path class="cls-1" d="m1449.17,674.98c7.1-.07,13.04-4.49,15.68-10.17-2.47-7.38-7.7-14.87-18.8-14.87-4.09,0-7.33,1.46-9.9,3.62h0c-8.35,8.59.68,21.53,13.02,21.41Z"/>
        <path class="cls-1" d="m1393.37,637.02c11.6,5.86,4.14,33.98,4.14,33.98,0,0,5.34-1.42,9.01-6.26,0,0,16.5-50.71-24.75-46.68-28.84,2.82-31.18,19.59-28.9,31.72,3.92,7.52,12.37,12.59,23.93,10.9,25.23-3.68,16.58-23.67,16.58-23.67Z"/>
        <path class="cls-1" d="m1337.12,675.51c-4.16,0-7.16,1.83-8.69,4.29.03,3.96,4.27,7.56,12.02,4.21,12.09-5.22-3.33-8.5-3.33-8.5Z"/>
        <path class="cls-1" d="m1391.59,672.72c3.68-9.21-14-9.33-19.4-3.19,0,0-5.77-4.17-7.86,3.19,0,0-10.56,5.16-5.53,9.09,6.08,4.74,16.45,0,16.45,0,12.53,5.02,23.7-1.38,16.33-9.09Z"/>
        <path class="cls-1" d="m1427,671.89c-1.19-11.7-13.07-12.43-18.54-8.94-.61,5.36-8.37,13.29-8.37,13.29,4.24,6.63,26.2,3.54,26.91-4.35Z"/>
        <path class="cls-1" d="m1476.71,685.09c7.46,2.12,9.96-2.73,9.96-2.73-5.17-12.21-12.59-9.06-16.67-5.98-.71,3.77,1.63,7.27,6.71,8.71Z"/>
        <path class="cls-1" d="m1438.67,684.32c4.91-7,18.69-3.19,18.69-3.19,2.36-4.24,9.49-1.04,9.48,2.67,0,0,.37,5.34-8.56,2.85-9.4,2.09-19.61-2.33-19.61-2.33Z"/>
      </g>
    </g>
    <g>
      <g>
        <path class="cls-1" d="m108.97,681.43c34.36,15.79,203.63,11.37,203.63,2.21,1.85-20.28-17.79-19.83-20.97-16.16,1.3-24.14-20.78-22.64-27.59-17.33-1.32-27.59-13.52-31.69-21.78-31.66-21.85.08-21.2,29.41-21.2,29.41-14.54-15-31.75-5.12-29.9,12.01-12.91-8.86-17.01,7.3-17.01,7.3-14.42-3.83-64.91,9.03-65.18,14.22Z"/>
        <path class="cls-1" d="m312.6,683.65c.32-3.56-.03-6.48-.82-8.85,1.99,16.54-85.15,12.7-85.15,12.7,0,0,6.71-1.92,11.65-8.92-19.68,11.65-81.49,7.72-129.31,2.86,34.36,15.79,203.63,11.37,203.63,2.21Z"/>
        <g>
          <path class="cls-1" d="m203.41,677.04c22.56,2.88,34.5-6.41,34.5-6.41,11.83,5.2,20.01-3.43,19.13-7.74-.92-4.47-13.05-10.73-19.57-2.65,0,0-7.69-9.62-20.57-4.29-10.05,4.16-7.74,13.03-7.74,13.03-10.17-.33-5.75,8.07-5.75,8.07Z"/>
          <path class="cls-1" d="m225.82,628.08c4.11,8.92,19.12,16.38,33.74,1.45-4.62-9.24-11.82-11.04-17.3-11.02-8.32.03-13.37,4.3-16.45,9.58Z"/>
          <path class="cls-1" d="m191.27,654.29c5.33,9.19,25.8,3.24,24.85-10.49-11.48-7.46-23.1-1.26-24.85,10.49Z"/>
          <path class="cls-1" d="m238.14,652.27c-12.05-3.1-13.27-5.42-9.29-8.85,3.98-3.43,10.95,3.32,10.95,3.32,7.3-5.86,16.14-4.09,16.14-.44s-17.8,5.97-17.8,5.97Z"/>
          <path class="cls-1" d="m267.78,648.19c-4.99,16.69,17.57,33.72,23.85,19.3,1.11-20.7-14.96-22.54-23.85-19.3Z"/>
          <path class="cls-1" d="m294.81,665.9c.62,6.79,11.02,13.86,16.24,7.09-3.47-7.07-11.53-8.21-16.24-7.09Z"/>
          <path class="cls-1" d="m174.15,667.21c-10.12-2.69-38,2.84-53.82,8.18,14.92,5.39,47.12,9.42,70.94,3.64,19.58-4.75-2.12-9.4-6.43-5.69-.66-5.36-10.68-6.13-10.68-6.13Z"/>
          <path class="cls-1" d="m187.64,668.49s5.82,4.28,11.21,1.77c5.38-2.51-.81-7.74-3.54-5.75,0,0-.96-1.84-4.14-4.59-9.03-6.19-13.75-.16-15.77,4.03,1.83,3.56,8.69,4.96,12.24,4.54Z"/>
          <path class="cls-1" d="m263.79,679.32c13.39,0,8.4-10.25.33-6.41-8.18-5.16-9.92,6.41-.33,6.41Z"/>
          <ellipse class="cls-1" cx="264.42" cy="666.13" rx="3.72" ry="2.29"/>
          <path class="cls-1" d="m261.67,652.38c-1.44-.75-3.14-.41-4.1.72-.26-.22-.55-.42-.89-.59-1.63-.85-3.39-.69-3.94.36-.54,1.04.34,2.58,1.98,3.42.92.47,1.87.62,2.62.48.32.52.78.97,1.38,1.28,1.66.86,3.66.29,4.47-1.28s.12-3.53-1.54-4.39Z"/>
        </g>
      </g>
      <g>
        <path class="cls-1" d="m84.52,683.14c-18.69,4.14-51.33,0-51.33,0,17.27-6.47,27.57-4.12,27.57-4.12,4.59-8.53,10.42-9.7,16-8.32,7.76,1.93,7.76,12.44,7.76,12.44Z"/>
        <path class="cls-1" d="m84.52,683.14c-1.19-4.33-51.33,0-51.33,0,0,0,32.64,4.14,51.33,0Z"/>
        <path class="cls-1" d="m76.75,670.7c-4.23-1.05-8.61-.62-12.48,3.37-.21,2.69,3.85,4.41,8.95,3.93,6.03-.56,8.87-.73,10.63.66-.84-3.11-2.75-6.88-7.1-7.96Z"/>
      </g>
    </g>
    <g>
      <path class="cls-1" d="m721.67,682.53c0,6.9,218.93,2.31,218.93-5.42-8.7-10.38-30.36-16.36-37.76-14.2,0,0,6-21.33-15.23-28.55-19.61-6.67-27.77,15.18-26.29,20.39,0,0-2.81-8.09-9.91-4.42,0,0-7.52-11.12-17.65-1.46,0,0,.06-35.37-24.81-35.37s-26.12,28.08-22.81,34.36c0,0-16.89-2.85-10.62,15.89,0,0-10.44-1.89-7.21,8.85l-46.63,9.93Z"/>
      <path class="cls-1" d="m940.6,677.11c-1.03-1.23-2.25-2.39-3.59-3.49-11.37-4.83-26.47-5.25-44.14-1.72-20.17,4.03-50.25,2.35-59.33-.67s-81.06,13.36-111.87,11.3c0,6.9,218.93,2.31,218.93-5.42Z"/>
      <g>
        <path class="cls-1" d="m833.54,671.22c8.74-1.18,4.87-10-2.02-8.49,0,0-3.87-9.72-19.89-8.82-16.02.9-12.55,11.76-12.55,11.76-6.39-2.69-23.1,8.44-21.58,12.06,26.22-3.83,50.96-8.21,56.03-6.51Z"/>
        <path class="cls-1" d="m794.38,635.54s4.26,10.64,20.28,4.48c11.41-4.39,16.34-1.85,18.23-.02-1.77-10.48-7.21-26.5-23.95-26.5-13.3,0-19.84,8.04-22.55,16.47,2.86,3.18,10.01,2.58,17.29-1.72,0,0-.9,5.04-9.3,7.28Z"/>
        <path class="cls-1" d="m881.44,649.7c11.93-1.17,20.04,5.97,21.4,13.2,0,0,6-21.33-15.23-28.55-7.64-2.6-13.54-.86-17.81,2.53-2.98,7.18,2.81,13.68,11.64,12.81Z"/>
        <path class="cls-1" d="m844.13,653.32c6.64,3.03,7.65,0,7.27-2.99,0,0-5.22-7.71-12.81-4.7-.3,2.48,1.33,5.78,5.54,7.7Z"/>
        <path class="cls-1" d="m861.31,654.75s-2.14-6.14-7.4-5.29c-1.08,3.7,7.98,8.45,7.4,5.29Z"/>
        <path class="cls-1" d="m878.19,670.27c11.78-.11,20.06-4.47,20.06-4.47-3.81-9.53-12.21-9.31-14.79-8.07,0,0-2.46-4.6-8.4-3.87s-4.59,7.59-4.59,7.59c-5.71-.47-9.52,4.23-7.96,6.14,1.57,1.9,9.28,2.75,15.69,2.69Z"/>
        <ellipse class="cls-1" cx="852.28" cy="670.96" rx="5.97" ry="2.7"/>
        <path class="cls-1" d="m786.13,647.86s-12.98-2.19-11.96,9.89c5.45,10.63,16.92-6.77,11.96-9.89Z"/>
        <path class="cls-1" d="m801.35,645.84c-2.34,0-4.23,1.79-4.23,4,0,.05.01.11.02.16-.41-.19-.88-.3-1.39-.3-1.59,0-2.89,1.06-2.89,2.36s1.29,2.36,2.89,2.36c1.29,0,2.37-.7,2.74-1.65.75.66,1.76,1.07,2.87,1.07,2.34,0,4.23-1.79,4.23-4s-1.89-4-4.23-4Z"/>
        <path class="cls-1" d="m820.71,651.05c5.1,1.23,12.18,8.57,12.18,8.57,4.74-1.01,8.83,3.53,8.83,3.53,3.42-1.9.18-10.06-5.6-8.01,0,0,1.7-3.18-4.2-6.05-8.06-3.92-11.2,1.96-11.2,1.96Z"/>
      </g>
    </g>
    <g>
      <path class="cls-1" d="m1687.84,685.15c-.51-19.49,21.34-14.61,21.34-14.61,0,0-1.26-14.28,14.53-11.32,0,0-3.67-19.68,13.96-21.41,18.94-1.86,18.4,19.95,18.4,19.95,10.17-8.45,27.85-.45,24.84,15.71,3.96-5.08,12.82-2.54,12.55,6.39,1.93-2.34,8.06.13,6.66,4.86,5.46-4.71,14.08,4.4,35.23,4.4,0,0-15.2,9.42-63.08,4.82,0,0-22.7,8.74-46.81.39,0,0-49.14,9.15-49.69-2.57-.27-5.81,12.05-6.61,12.05-6.61Z"/>
      <path class="cls-1" d="m1774.69,690.31c4.44-4.04,4.44-8.13,4.44-8.13-7.73,11.28-44.78,18.92-56.64,3.15,0,0,.13,2.67,2.18,5.31,0,0-54.35,10.52-46.14-3.03-1.64.97-2.82,2.3-2.73,4.14.54,11.73,49.69,2.57,49.69,2.57,24.12,8.35,46.81-.39,46.81-.39,47.88,4.59,63.08-4.82,63.08-4.82-26.57,8.26-60.69,1.2-60.69,1.2Z"/>
      <g>
        <path class="cls-1" d="m1793.21,676.96c-1.09-4.79-5.31-6.84-8.85-5.83-2.12,3.58,8.55,11.34,8.85,5.83Z"/>
        <path class="cls-1" d="m1800.14,684.72c1.1-3.72-2.46-6.04-4.97-5.73-1.39,3.1,3.55,9.82,4.97,5.73Z"/>
        <path class="cls-1" d="m1767.53,678.95c0,8.48-30.16,11.86-37.86,2.5-6.6-8.02,4.85-11.32,7.55-5.54,5.12-6.12,17.92-6.28,19.94,0,0,0,10.38-2.79,10.38,3.03Z"/>
        <path class="cls-1" d="m1767.53,670.88s13.51,5.19,12.78-6.52c-2.78-7.61-11.16-11.44-18.51-9.54-5.11,4.94-.8,14.96,12.45,12.34,0,0-.81,2.63-6.71,3.72Z"/>
        <path class="cls-1" d="m1719.87,658.82c-11.73-.11-10.69,11.71-10.69,11.71.6,9.99,22.92-7.52,10.69-11.71Z"/>
        <path class="cls-1" d="m1726.35,662.73c2.2-3.02,4.55-2.39,8.52-1.44,1.11-2.27,6.34-3.43,8.87-.95,1.39,1.36,8.24,1.35,4.6,4.36s-11.81,3.41-11.81,3.41c-5.55,2.54-13.07-1.39-10.18-5.37Z"/>
        <path class="cls-1" d="m1745.46,653.71c3.14.23,7.69-4.73,8.71-1.9s2.44,6.61-1.78,5.54-5.06.99-6.93.18-4.18-4.14,0-3.83Z"/>
        <path class="cls-1" d="m1752.07,643.64c-2.66-3.73-7.07-6.55-14.39-5.83-12.61,1.24-14.32,11.66-14.28,17.5,1.09,1.86,3.61,2.43,7.93,1.2,11.55-3.29,8.87-5.57,16.26-7.82,1.5-.46,3.45-2.8,4.48-5.04Z"/>
        <path class="cls-1" d="m1711.52,684.76c1.6-2.75-8.04-8.22-8.04-8.22,3.6-1.51,3.81-4.54,3.09-6.39-5.79-.58-19.12-.28-18.72,15,2.27,3.08,22.08,2.37,23.68-.39Z"/>
        <path class="cls-1" d="m1716.98,680.23c4.82,3.03,9.8.65,8.53-1.01-1.27-1.66-5.06-6.02-7.53-5s-2.8,4.88-1,6.01Z"/>
        <path class="cls-1" d="m1752.82,667.07c.78-2.61,4.1-.89,4.1-.89,1.92-2.25,7.81,2.84,3.61,3.87-4.94,1.22-8.18-1.38-7.71-2.98Z"/>
      </g>
    </g>
  </g>
</svg>