<?xml version="1.0" encoding="UTF-8"?>
<svg id="Layer_2" data-name="Layer 2" xmlns="http://www.w3.org/2000/svg" xmlns:xlink="http://www.w3.org/1999/xlink" viewBox="0 0 2141 151">
  <defs>
    <style>
      .cls-1 {
        fill: #fff;
      }

      .cls-2 {
        fill: url(#linear-gradient);
      }
    </style>
    <linearGradient id="linear-gradient" x1="1070.5" y1="0" x2="1070.5" y2="151" gradientUnits="userSpaceOnUse">
      <stop offset="0" stop-color="#515151"/>
      <stop offset="1" stop-color="#303030"/>
    </linearGradient>
  </defs>
  <g id="road">
    <g>
      <rect class="cls-2" width="2141" height="151"/>
      <g>
        <path class="cls-1" d="m178.34,64H56.66c-2.57,0-2.79-.88-.48-1.98l22.16-10.47c2.31-1.09,6.27-1.98,8.84-1.98h121.68c2.57,0,2.79.88.48,1.98l-22.16,10.47c-2.31,1.09-6.27,1.98-8.84,1.98Z"/>
        <path class="cls-1" d="m516.34,64h-121.68c-2.57,0-2.79-.88-.48-1.98l22.16-10.47c2.31-1.09,6.27-1.98,8.84-1.98h121.68c2.57,0,2.79.88.48,1.98l-22.16,10.47c-2.31,1.09-6.27,1.98-8.84,1.98Z"/>
        <path class="cls-1" d="m880.34,64h-121.68c-2.57,0-2.79-.88-.48-1.98l22.16-10.47c2.31-1.09,6.27-1.98,8.84-1.98h121.68c2.57,0,2.79.88.48,1.98l-22.16,10.47c-2.31,1.09-6.27,1.98-8.84,1.98Z"/>
        <path class="cls-1" d="m1225.34,64h-121.68c-2.57,0-2.79-.88-.48-1.98l22.16-10.47c2.31-1.09,6.27-1.98,8.84-1.98h121.68c2.57,0,2.79.88.48,1.98l-22.16,10.47c-2.31,1.09-6.27,1.98-8.84,1.98Z"/>
        <path class="cls-1" d="m1593.34,64h-121.68c-2.57,0-2.79-.88-.48-1.98l22.16-10.47c2.31-1.09,6.27-1.98,8.84-1.98h121.68c2.57,0,2.79.88.48,1.98l-22.16,10.47c-2.31,1.09-6.27,1.98-8.84,1.98Z"/>
        <path class="cls-1" d="m1945.34,64h-121.68c-2.57,0-2.79-.88-.48-1.98l22.16-10.47c2.31-1.09,6.27-1.98,8.84-1.98h121.68c2.57,0,2.79.88.48,1.98l-22.16,10.47c-2.31,1.09-6.27,1.98-8.84,1.98Z"/>
      </g>
    </g>
  </g>
</svg>