<?xml version="1.0" encoding="UTF-8"?>
<svg id="Layer_2" data-name="Layer 2" xmlns="http://www.w3.org/2000/svg" viewBox="0 0 4023 1080">
  <defs>
    <style>
      .cls-1 {
        fill: #688c9b;
      }

      .cls-2 {
        fill: #94c8dd;
      }

      .cls-3 {
        fill: #8ec2ce;
      }

      .cls-4 {
        fill: #d0f8fc;
      }

      .cls-5 {
        fill: #a88b78;
      }

      .cls-6 {
        fill: #a3d3d7;
      }

      .cls-7 {
        fill: #c7ccb4;
      }

      .cls-8 {
        fill: #5d7c8c;
      }

      .cls-9 {
        fill: #897063;
      }

      .cls-10 {
        fill: #739ba8;
      }

      .cls-11 {
        fill: #959987;
      }

      .cls-12 {
        fill: #48616b;
      }

      .cls-13 {
        fill: #adb29b;
      }

      .cls-14 {
        fill: #668b91;
      }

      .cls-15 {
        fill: #84b3c1;
      }

      .cls-16 {
        fill: #a9e5f7;
      }
    </style>
  </defs>
  <g>
    <path class="cls-13" d="m2776.48,1031.29c-5.91-21.97-11.98-44.32-24.1-63.58-12.12-19.26-31.41-35.32-54.02-37.9-3.76-.43-7.77-.55-10.91-2.68-3.34-2.26-4.93-6.29-6.33-10.07-4.84-13.06.84-41.48-14.51-39.17-10.14,1.4-21.19,26.18-27.11,41.85-8.87-34.41-17.74-68.81-26.61-103.21-7.47-28.98-22.8-64.38-52.73-63.99-5.48.07-10.94,1.48-16.38.9-15.24-1.61-29.5-15.73-31.13-30.96-5.61-52.3-25.84-95.09-50.24-103.02-10.79-4.76-13.2,4.86-20.93,7.71-19.2,1.05-20.65-37.46-39.83-32.72-6.41,2.88,2.09,30.3-21.43,29.86-22.75-4.28-19.93-23.24-29.39-44.37-16.26-36.36-37.49-70.24-58.65-103.98-5.46-8.71-11.52-17.94-21.06-21.8-8.86-3.58-18.94-1.75-28.06,1.12-32.81,10.32-61.27,33.81-77.61,64.08-5.7,10.56-16.31,24.09-26.43,17.65-2.99-1.9-4.85-5.27-7.96-6.96-8.82-4.82-17.6,6.48-21.06,15.92-13.3,36.21-20.92,74.5-22.5,113.04-.41,10.07-.49,20.49-4.64,29.68-4.15,9.19-13.71,16.84-23.65,15.19-3.57-.59-6.86-2.31-10.39-3.13-19.86-4.62-34.01,18.45-41.24,37.51-15.92,41.97-31.97,84.45-37.3,129.01-.57,4.79-1.14,9.91-4.2,13.65-7.73,9.48-24.1,2.1-29.49-8.88-5.39-10.98-5.04-24.08-10.37-35.09-5.33-11.01-21.56-18.57-29.45-9.23-2.8,3.31-3.64,7.8-5.37,11.78-7.33,16.86-28.44,21.8-43.04,32.98-18.35,14.06-25.89,37.84-31.34,60.31-10.41,42.89-17,145.62-19.64,189.68h1003.63c-8.17-30.39-16.35-60.78-24.52-91.17Z"/>
    <g>
      <path class="cls-11" d="m2142.04,568.02c.45,8.62,5.16,16.46,6.59,24.97,5.88,34.79-42.47,62.57-34.29,96.89,2.01,8.44,7.31,15.65,11.71,23.13,14.15,24.05,19.55,53.14,14.95,80.67,27.93-32.16,9.62-81.93,16.88-123.91,2.9-16.76,10.05-32.47,14.23-48.95,7.53-29.68,5.21-60.84,7.22-91.39.82-12.49,2.56-25.27,5.85-37.44-7.73,8.27-14.44,17.5-19.82,27.46-3.74,6.93-9.6,15.15-16.05,18.15-2.52,9.85-7.81,20.29-7.28,30.42Z"/>
      <path class="cls-11" d="m2416.84,602.12c3.78,48.01,12.73,95.62,26.66,141.73,3.09-34.66,1.97-69.69-3.34-104.08-.64-4.14-1.32-8.44-.97-12.57-10.82-1.18-15.64-15.68-22.34-25.09Z"/>
      <path class="cls-11" d="m2085.17,681.74c-.59,2.4-1.37,4.76-2.4,7.04-3.84,8.5-12.31,15.68-21.44,15.4.52,47.17,1.04,94.34,1.57,141.51,6.13,2.9,13.17-3.42,14.41-10.08,1.25-6.66-1.04-13.42-1.58-20.17-1.87-23.03,16.07-42.74,21.36-65.23,5.47-23.25-2.84-45.73-11.93-68.47Z"/>
      <path class="cls-11" d="m2517.19,762.76c.22-6.4.33-13.02,3.03-18.82.39-.83.82-1.61,1.29-2.36-4.86-5.39-8.21-12.08-8.96-19-5.61-52.3-25.84-95.09-50.24-103.02-1.04-.46-2.01-.78-2.91-.99.34.5.66,1,.97,1.5,12.49,20.05,20.12,43.1,22.07,66.64,1.09,13.16.43,26.43,1.79,39.56,1.39,13.4,4.87,26.53,6.15,39.95,4.16,43.61-14.94,85.54-29.38,126.91-14.44,41.36-23.93,89.21-2.35,127.33-12.93-44.72,13.78-89.89,31.53-132.93,16.31-39.55,25.5-82.02,27-124.77Z"/>
      <path class="cls-11" d="m2267.66,453.15c2.52,12.51-2,27.66-5.14,40.87-7.38,31.03-4.28,63.48-1.13,95.22,3.61,36.38,8.48,75.65,33.66,102.15,15.4,16.21,37.97,27.16,45.61,48.17,4.59,12.62,2.76,26.53,1.37,39.89-5.16,49.69-3.37,100.1,5.3,149.29,16.22-8.87,19.52-30.34,20.96-48.77,2.3-29.49,4.61-58.98,6.91-88.47,2.02-25.81,3.98-52.24-2.88-77.2-6-21.86-18.74-43.73-13.22-65.71,2.3-9.17,7.64-18.18,12.51-27-13.67-7.11-12.82-23.54-20.88-41.55-16.26-36.36-37.49-70.24-58.65-103.98-5.46-8.71-11.52-17.94-21.06-21.8-1.11-.45-2.23-.81-3.38-1.1Z"/>
      <path class="cls-11" d="m2666.86,877.96c2.8.27,5.43,1.34,7.49,3.41.31.3.58.62.85.95-1.65-3.11-4.22-4.88-8.35-4.36Z"/>
      <path class="cls-11" d="m2045.22,700.31c-2.07-.15-4.07,0-6,.41,1.99-.26,3.99-.4,6-.41Z"/>
      <path class="cls-11" d="m2776.4,1031.4c-5.91-21.97-11.98-44.32-24.1-63.58-12.12-19.26-31.41-35.32-54.02-37.9-3.76-.43-7.77-.55-10.91-2.67-3.34-2.26-4.93-6.29-6.33-10.07-.65-1.75-1.11-3.78-1.46-5.98-.8,41.01-12.1,85.33,13.83,115.8,5.3-5.12,10.6-10.24,15.89-15.36,15.66,35.08,25.55,72.71,29.26,110.94h62.35c-8.17-30.39-16.35-60.78-24.52-91.17Z"/>
      <path class="cls-11" d="m2643.68,910.24c.02-.37.05-.75.08-1.13-1.63,3.78-3.1,7.46-4.34,10.73-8.87-34.41-17.74-68.81-26.61-103.21-4.17-16.15-10.77-34.3-20.99-47.13-10.63,3.71-16.53,16.31-16.81,27.85-.3,12.32,3.96,24.25,5.59,36.46,3.71,27.75-6.18,55.27-10.52,82.94-8.34,53.17,3.92,107.18,16.11,159.6,8.98-6.49,6.8-20.09,4.79-30.98-2.01-10.89-.36-25.7,10.48-27.98,4.74,35.68,12.74,70.92,23.82,105.17h34.33c-4.98-70.91-20.51-141.41-15.92-212.33Z"/>
      <path class="cls-11" d="m1881.42,948.24c13.47-31.86,16.61-67.99,8.85-101.7-.26-1.13-.51-2.3-.74-3.5-4.28,7.09-11.22,11.89-18.79,16.21,4.89,3.44,8.82,8.72,10.53,14.43,3.62,12.13.4,25.09-2.1,37.5-2.5,12.41-4.09,26.09,2.25,37.05Z"/>
      <path class="cls-11" d="m1904.94,823.64c5.89,4.32,10.24,14.32,11.24,22.5,6.35,51.5,12.71,103.75,5.26,155.1-3.8,26.25-9.68,57.36,9.48,75.7-6.65-58.2,27.73-115.46,20.28-173.56-.84-6.57-2.22-13.12-2.29-19.72-5.18-2.25-9.94-6.51-12.4-11.53-5.39-10.98-5.04-24.08-10.37-35.09-3.82-7.9-13.26-14.02-21.2-13.4Z"/>
    </g>
    <path class="cls-7" d="m1852.65,879.23c-6.63,3.25-9.9,10.72-12.38,17.68-21.79,61.12-23.77,127.24-25.52,192.1-.22,8.01,2.93,19.2,10.83,17.84,6.51-23.45-4.34-49.57,4.05-72.42,5.38-14.66,18.17-26.2,21.16-41.52,1.94-9.9-.5-20.2.92-30.19,1.85-13.02,9.97-24.13,15.87-35.89,4.89-9.73,10.86-60.24-14.93-47.6Z"/>
    <path class="cls-7" d="m1861.29,999.84c-.54,2.43-.69,5.01-1.87,7.19-2.98,5.51-10.53,5.85-16.46,7.88-14.11,4.84-20.64,21.39-21.3,36.3-.65,14.9,2.74,29.93.48,44.68-.43,2.82-1.05,5.83.14,8.43,1.96,4.31,7.59,5.2,12.32,5.49,13.31.83,26.62,1.67,39.93,2.5,3.25.2,6.97.23,9.17-2.17,1.88-2.05,1.92-5.14,1.9-7.92-.3-33.48,5.13-67.01,15.97-98.69,3.75-10.94,21.09-56.67-6.23-53.5-11.36,1.32-11.22,14.04-15.84,22.17-5.45,9.6-15.7,16.42-18.21,27.64Z"/>
    <path class="cls-7" d="m2018.32,736.44c-8.27,25.07-16.54,50.13-24.81,75.19-3.42,10.36-6.85,20.77-8.55,31.55-8.16,51.7,24.02,101.12,28.51,153.27.4,4.62.67,9.55,3.41,13.3,2.73,3.75,8.99,5.28,11.93,1.7,1.45-1.77,1.69-4.21,1.85-6.5,1.32-19.63.75-39.39-1.69-58.91-1.89-15.09-4.68-31.44,2.74-44.72,4.74-8.48,13.19-14.61,17.05-23.52,2.75-6.35,2.9-13.49,3.01-20.41.56-37.46,1.12-74.92,1.68-112.39.17-11.12,5.12-32.47-10.44-34.47-14.12-1.81-21.28,15.59-24.69,25.91Z"/>
    <path class="cls-7" d="m2188.34,552.62c2.06,39.67,7.18,80.67-5.88,118.19-4.82,13.84-12.11,27.26-12.5,41.9-.41,15.3,6.78,29.69,9.58,44.74,2.33,12.55,1.58,25.45,1.05,38.2-1.89,45.38-.88,90.89,3.03,136.14.28,3.3.65,6.78,2.57,9.48,1.92,2.7,5.96,4.2,8.65,2.26,1.91-1.37,2.52-3.89,2.99-6.2,2.58-12.59,5.16-25.18,7.74-37.76,6.01-29.29,12.07-58.78,23.43-86.44,3.47-8.44,7.64-16.98,14.75-22.71,7.11-5.73,17.87-7.84,25.4-2.68,10.3,7.07,9.3,22.18,12.66,34.21,3.03,10.83,10.58,20.32,20.46,25.69,1.48.8,3.12,1.53,4.77,1.28,3.55-.55,4.83-4.93,5.34-8.49,2.96-20.51,5.93-41.02,8.89-61.53,1.44-9.95,2.86-20.24.12-29.91-3.96-14-15.91-24.21-28.17-32.03-12.27-7.82-25.68-14.33-35.67-24.9-20.14-21.31-21.85-53.93-18.81-83.09,3.33-32.02,24.26-97.78.64-125.67-12.77-15.07-31.37-.63-40.39,12.03-11.68,16.38-11.63,38.07-10.63,57.31Z"/>
    <path class="cls-7" d="m2377.17,1016.6c-3.86-20.83,1.11-43.7-8.72-62.47-3.42,10.64-19.03,12.71-28.06,6.13s-12.67-18.21-14.67-29.21c-1.67-9.22-3.85-20.28-12.58-23.66-4.11-1.59-8.71-.96-13.07-1.57-11.01-1.54-19.52-10.99-23.57-21.34-4.04-10.35-4.54-21.69-5.71-32.74-.58-5.45-2.45-12.13-7.84-13.09-7.87-1.4-10.65,10.03-10.09,18.01,2.92,41.73,1.75,83.62.58,125.43-.31,11.2-.82,23.05-6.98,32.4-5.46,8.3-14.81,13.66-19.44,22.45-4,7.58-3.9,16.58-3.71,25.16.44,19.45.75,38.97.75,58.43v1.25l195.86,2.44c1.15-39-35.63-69.25-42.74-107.62Z"/>
    <path class="cls-7" d="m2391.36,638.44c-2.96.19-6.12-.55-8.79.73-6.48,3.11-3.34,12.75-.31,19.27,10.36,22.27,7.6,48.12,10.99,72.44,3.04,21.77,11.14,43.7,6.41,65.17-1.4,6.35-3.09,14.71,2.58,17.89,5.13,2.87,11.33-1.89,14.15-7.04,7.94-14.52,3.97-32.31.84-48.56-7.18-37.37-8.73-75.82-4.57-113.64.66-5.95,2.49-21.85-6.48-20.43-5.56.88-5.56,13.57-14.83,14.18Z"/>
    <path class="cls-7" d="m2535.63,776.48c-4.76,5.71-5.63,13.6-6.51,20.97-3.49,29.29-10.14,58.2-19.79,86.07-7.67,22.18-17.28,43.83-21.83,66.85-4.56,23.02-3.54,48.25,8.91,68.14,7.63-6.05,10.18-16.51,10.56-26.24.38-9.72-.9-19.6,1.12-29.12,6.09-28.6,39.67-45.55,44.37-74.41.85-5.24.7-10.72,2.65-15.66,2.38-6.02,7.64-10.56,9.93-16.61,4.89-12.95-5.31-27.09-3.59-40.82.8-6.42,4.16-12.21,5.95-18.43,5.47-18.96-16.87-38.65-31.79-20.75Z"/>
    <path class="cls-7" d="m2092.51,857.9c3.94,15.07,12.76,29.05,13.15,44.62.32,12.72-5.04,24.78-9.24,36.79-14.73,42.08-15.74,88.84-2.85,131.52,1.82,6.04,5.31,13.09,11.61,13.31,8.84.31,11.26-12.02,10.47-20.83-3.14-35.2-7.3-73.88,12.89-102.88,5.44-7.81,12.43-14.48,17.54-22.51,12.49-19.6,11.8-46.74-1.66-65.68-3.13-4.4-6.92-8.47-8.84-13.52-2.79-7.33-1.23-15.47-1.11-23.31.2-13.78-7.11-43.89-27.32-37.16-19.41,6.45-18.62,44.41-14.63,59.66Z"/>
    <path class="cls-7" d="m2114.79,570.69c-.4,22.23-13.5,43.25-11.38,65.38.17,1.76.52,3.66,1.86,4.81,2.46,2.11,6.5.07,7.92-2.85,1.41-2.92,1.22-6.33,1.88-9.5,2.04-9.9,11.85-16.44,15.23-25.98,3.99-11.29-1.89-23.71-.77-35.64.64-6.86,7.32-24.85-6.17-24.46-12.03.34-8.41,20.53-8.55,28.24Z"/>
    <path class="cls-7" d="m2052.17,1013.45c-5.58-1.7-8.96,5.69-12.45,10.36-8.83,11.82-28.9,7.74-38.17-3.74-9.27-11.48-11.06-27.03-13.66-41.55-4.57-25.58-12.71-50.52-24.1-73.87-.53,45.7-2.26,91.38-5.19,136.99-.72,11.21-1.53,22.52-4.76,33.27-4.63,15.38-14.02,32.27-6.04,46.21l143.83.44c-19.34-33.36-32.77-70.14-39.46-108.11Z"/>
  </g>
  <g>
    <polygon class="cls-8" points="168.25 1148.58 537.12 606.1 715.19 680.64 1104.66 270.68 1145.86 299.66 1291.32 91.37 1575.92 564.69 1667.63 527.42 1907.81 850.42 2019.61 815.41 2254 1148.58 168.25 1148.58"/>
    <path class="cls-12" d="m1667.63,527.42l20.73,127.35h-35.57l35.57,119.25-8.37,48.12,159,326.44h62.76l-58.58-182.08,48.12,16.74s-58.58-173.65-52.3-167.37,68.81,34.56,68.81,34.56l-240.18-323Z"/>
    <polygon class="cls-12" points="2019.61 815.41 1993.15 899.55 1947.79 891.18 2002.18 1148.58 2254 1148.58 2019.61 815.41"/>
    <path class="cls-12" d="m1575.92,564.69l76.88,192.59h-52.3l161.1,391.29h-194.57s-92.05-194.63-85.78-190.45c6.28,4.18,52.3,23.86,52.3,23.86l-62.76-143.99,49.86,18.63-77.06-147.47,39.75,8.37-50.21-81.59-54.4-193.83s46.03,28.55,39.75,13.91c-6.28-14.65-20.92-96.24-20.92-96.24l81.02,43.02,97.35,161.9Z"/>
    <polygon class="cls-12" points="1203.08 650.58 1259.47 851.43 1290.82 943.49 1203.08 859.8 1263.65 1148.58 1500.07 1148.58 1303.4 487.4 1203.08 650.58"/>
    <path class="cls-2" d="m883.54,503.43l-44.6,65.56,66.95-32.78-22.35,191.78s128.62-133.9,126.74-127.62c-1.87,6.28,0,19.6,0,19.6l37.88-23.78,39.75,81.59,102.51-117.16,100.4,232.23s27.23-248.97,31.41-242.69c4.18,6.28,39.75,50.21,39.75,50.21l16.67-33.47,104.68,81.24-25.11-175.39,50.21,60.67,12.2-60.67-229.32-381.38-145.46,208.3-41.2-28.99-221.12,232.75Z"/>
    <polygon class="cls-12" points="537.12 606.1 640.19 754.18 590.14 761.47 709.23 972.78 686.22 1012.53 774.09 1148.58 931 1148.58 757.35 853.52 803.38 877.34 715.19 680.64 537.12 606.1"/>
    <path class="cls-15" d="m1429.16,606.1c-5.65-4.38-50.44-152.18-50.44-152.18l39.75,2.09-127.16-364.65,229.32,381.38-12.2,60.67-50.21-60.67,25.11,175.39-54.17-42.04Z"/>
    <polygon class="cls-16" points="838.94 568.99 905.89 536.21 910.08 527.42 1104.66 270.68 883.54 503.43 838.94 568.99"/>
    <path class="cls-16" d="m883.54,727.99c1.73-14.85,55.83-169.46,55.83-169.46,0,0,142.27-209.22,140.17-198.75-2.09,10.46-27.2,148.54-27.2,148.54l-42.06,92.05-126.74,127.62Z"/>
    <path class="cls-16" d="m1190.43,560.62l-29.29-190.87-15.28-70.09,145.46-208.3-54.86,179.31s41.84,24.24,39.75,30.52c-2.09,6.28-48.12,318.78-48.12,318.78l-37.66-59.35Z"/>
    <path class="cls-1" d="m537.12,606.1l-70.58,172.1s39.75-2.09,37.66,4.18c-2.09,6.28-154.82,366.19-154.82,366.19h-181.13l368.87-542.48Z"/>
  </g>
  <g>
    <path class="cls-3" d="m2532.01,1112.33s20.74-371.31,64.68-443.2c43.94-71.89,51.7-219.95,115.32-218.3,49.11,1.27,60.51,52.2,79.91,54.09,19.4,1.89,152.55,94.21,152.55,94.21,0,0,49.63,377.96,45.52,396.04-4.11,18.09-457.97,117.16-457.97,117.16Z"/>
    <path class="cls-4" d="m2620.62,614.72c6.38-2.82,13.19-3.78,19.21-.53,15.51,8.39,10.93,33.38,16.04,51.4,5.51,19.42,26.34,31.93,44.36,26.64,24.58-7.21,35.77-39.09,58.07-52.45,22.28-13.34,51.88-5.98,73.12-21.2,16.35-11.71,23.33-33.6,29.25-53.91,1.72-5.9,3.41-12.08,4.75-18.33-32.62-21.05-64.91-40.58-73.72-41.44-19.4-1.89-30.8-52.82-79.91-54.09-50-1.29-65.5,89.9-91.18,163.9Z"/>
    <path class="cls-3" d="m3226.21,685.86s-9.78-3.98,21.94-52.64c43.98-67.45,100.4-90.59,139.64-95.99,54-7.43,49.75,115.43,94.47,127.31l44.71,11.88s106.6,89.02,116.27,132.66c9.67,43.64,79.24,169.28,99.07,207.01,19.83,37.73,23.74,98.58,23.74,98.58l-452.28-11.82-87.57-417Z"/>
    <path class="cls-10" d="m2642.53,1124.53l55.45-445c24.42-71.11,35.35-75.94,78.14-102.92,42.8-26.97,94.72-237.16,114-239.32,19.28-2.16,45.68,60.45,72.11,61.79,26.43,1.33,132.93-289.13,162.88-270.51,29.95,18.62,46.59,99.35,79.88,135.85,33.28,36.51,59.91,52.62,76.55,148.57,16.64,95.95,26.62,184.48,56.58,199,29.95,14.52,83.95,150.18,113.53,240.62,29.58,90.44,49.55,271.93,49.55,271.93h-858.67Z"/>
    <path class="cls-4" d="m3332.65,561.65c9.03,10.21,23.44-1.7,34.2,2.02,11.22,3.88,14.09,19.25,16.49,31.79,7.19,37.59,26.31,70.98,45.09,103.48,6.14,10.62,13.51,22.21,24.83,24.59,15.58,3.29,29.39-12.52,45.22-13.78,22.26-1.77,37.63,24.33,58.75,32.17,12.37,4.59,26.29,2.66,38.38,8.08,4.43,1.98,9.39,4.81,14.1,6.28-34.52-39.63-82.69-79.86-82.69-79.86l-44.71-11.88c-44.71-11.88-40.46-134.74-94.47-127.31-16.95,2.33-37.1,7.98-58.06,19.06.54,1.95,1.46,3.77,2.86,5.35Z"/>
    <path class="cls-14" d="m3451.65,851.44c-29.58-90.44-83.58-226.1-113.53-240.62-29.95-14.52-39.94-103.05-56.58-199-11.27-64.99-27.13-93.35-46.53-116.24-6.48,4.18-12.06,12.13-16.01,25.11-5.4,17.7-1.88,37.13,3.5,54.83,5.39,17.7,12.65,34.94,14.87,53.43,3.78,31.48-7.38,62.49-12.84,93.68-5.79,33.09-5.18,67.06-4.55,100.73.17,8.79.46,18.08,4.73,25.54,4.28,7.47,14.03,11.96,20.71,7.02,3.62-2.68,5.71-7.56,9.71-9.5,8.89-4.33,16.42,8.3,19.34,18.41,16.92,58.64,33.85,117.28,50.77,175.92,8.46,29.33,17.03,60.05,12.15,90.33-6.59,40.94-36.54,72.8-68.62,95.33-12.76,8.96-27.02,17.19-42.19,16.45-17.6-.86-33.22-14.1-42.16-30.62-8.94-16.52-12.14-35.95-13.71-55.05-2.6-31.58-1.14-63.56,4.31-94.7,5.05-28.83,12.98-60.99-1.57-85.7-7.52-12.77-19.88-21.05-29.71-31.8-27.69-30.24-33.03-76.93-31.42-119.59,1.05-27.86,4.34-56.32-2.39-83.22-8.12-32.48-29.85-58.68-52.33-81.79-4.67-4.8-9.63-9.67-15.79-11.63-8.68-2.77-17.85.74-26.75,2.56-26.06,5.34-54.38-5.07-72.14-26.51-10.67,15.39-7.71,36.78-6.38,56,2.79,40.38-4.1,81.51-19.81,118.21-2.16,5.04-4.53,10.21-4.62,15.77-.32,18.54,21.32,25.54,36.46,34.02,19.92,11.16,33.76,34.23,35.13,58.57,2,35.35-19.65,73.86-2.57,104,2.53,4.47,5.8,8.4,8.45,12.78,10.73,17.76,10.25,40.56,10,61.81-.63,53.91,2.72,107.88,10.01,161.2,2.3,16.86,5.27,34.37,14.69,47.98,13.2,19.07,35.21,25.81,57.74,28.17h110.66c48.54-1.99,97.01-6.11,145.28-12.01,29.89-3.65,60.36-8.2,87.2-22.99,26.78-14.75,47.83-39.07,62.27-67.79-8.68-56.53-21.03-124.12-35.75-169.14Z"/>
    <path class="cls-6" d="m2825.16,491.51c2.13,4.54,4.62,8.54,7.5,11.58,25.21,26.64,23.47-24.3,44.09-28.8,1.65,21.74,3.3,43.49,4.96,65.23,1.16,15.25,2.42,30.93,8.64,44.65,6.22,13.73,18.64,25.25,32.7,25.01,19.84-.33,33.36-22.76,37.47-43.89,4.12-21.13,2.75-43.73,10.72-63.52,1.7-4.21,4.19-8.59,8.26-9.88,10.93-3.44,15.5,16.4,26.08,20.94,7.64,3.28,16.47-3.03,19.74-11.24,3.27-8.2,2.49-17.56,1.65-26.46,12.67,7.64,27.62-6.33,33.44-20.76,16.13-39.98,3.51-91.88,29.27-125.35,2.85-3.71,7.15-7.33,11.33-5.72,3.12,1.2,4.77,4.85,5.95,8.22,12.61,36.02,7.74,77.7,23.12,112.42,3.31,7.47,8.23,15.06,15.65,16.97,13.46,3.46,23.69-13.07,27.88-27.41,6.91-23.66,9.64-48.76,7.99-73.53-.39-5.87-.98-12.04,1.23-17.42,2.21-5.38,8.42-9.3,13.15-6.43,4.21,2.56,5.01,8.71,7.78,13.01,6.5,10.1,24.58,3.2,23.73-9.1,8.39,6.13,20.66,11.89,27.45,3.75,2.9-3.47,3.42-7.98,2.76-12.66-14.59-29.8-32.4-44.48-52.69-66.73-33.28-36.51-49.92-117.24-79.88-135.85-29.95-18.62-136.46,271.85-162.88,270.51-26.43-1.33-52.82-63.95-72.11-61.79-12.16,1.36-37.32,85.51-64.97,154.22Z"/>
    <path class="cls-5" d="m3827.65,1178.26c-17.23-59-16.96-144.99-50.44-193.59-26.76-38.84-69.87-56.69-111.62-67.3-41.75-10.61-85.19-16.1-123.62-37.88-26.42-14.97-49.7-37.28-77.25-49.13-46.29-19.92-99.83-7.07-141.26,24.18-20.05,15.12-37.85,34.31-58.99,47.25-44.07,26.99-99.1,24.8-140.2,57.55-16.2,12.91-29.04,30.49-38.84,50.38-5.27-3.65-9.87-5.65-13.57-5.54-33.95,1.01-113.46-43.97-177.47-65.6-64.01-21.63-116.38-59.76-224.36-59.76s-51.06,42.96-85.3,66.86c-34.24,23.91-52.73,21.31-52.73,21.31,0,0,10.74,3.15-32.57,32.56-43.31,29.42-33.69,180.74-33.69,180.74l1361.91-2.02Z"/>
    <path class="cls-9" d="m3179.97,1176.63c-8.03-12.1-18.95-21.49-29.78-30.64-14.87-12.56-29.99-25.14-41.81-41.08-11.83-15.94-20.21-35.86-19.26-56.32.41-8.81,2.52-17.57,1.69-26.34-.41-4.32-1.54-8.46-3.2-12.35-.06.12-.12.24-.18.36-5.27-3.65-9.87-5.65-13.57-5.54-33.95,1.01-113.46-43.97-177.47-65.61-27.69-9.36-53.2-21.8-81.97-32.91-18.2,5.56-74.34,7.92-73.33,36.47.31,8.54,6.9,15.52,14.19,18.67,7.3,3.16,15.33,3.38,23.14,4.29,33.74,3.89,65.98,21.62,88.89,48.86,3.77,4.49,7.46,9.64,7.87,15.71.74,11.1-9.19,18.96-16.98,26.17-7.79,7.22-14.41,20.65-7.22,28.57,1.82,2,4.3,3.25,5.89,5.48,5.17,7.28-2.35,16.84-8.12,23.57-12.04,14.05-18.25,33.81-16.64,52.95.38,4.52,1.21,9.05,2.6,13.34l347.2-.51c-.61-1.08-1.26-2.12-1.93-3.13Z"/>
    <path class="cls-9" d="m3777.21,984.67c-26.76-38.84-69.87-56.69-111.62-67.3-41.75-10.61-85.19-16.1-123.62-37.88-26.42-14.97-49.7-37.28-77.25-49.13-3.84-1.65-7.73-3.06-11.66-4.27,1.46,7.15,3.88,14.84,3.01,20.26-2.52,15.7-14.91,26.96-26.38,35.39-7.05,5.18-15.47,13.93-11.13,21.9,2.56,4.7,8.26,5.76,13.24,6.51,32.89,4.99,64.75,17.87,92.65,37.47,4.9,3.44,9.8,7.15,15.44,8.76,6.48,1.85,13.32.78,19.94-.3,20.11-3.29,40.22-6.59,60.33-9.88,1.07,14.02-15.47,20.07-27.93,23.8-18.1,5.41-34.94,15.71-48.6,29.72-10.51,10.78-19.42,23.91-32.17,31.29-11.88,6.87-25.73,7.95-39.06,9.91-20.1,2.95-39.91,8.2-59.01,15.62-11.16,4.33-22.54,9.79-29.96,19.84-10.08,13.65-10.74,32.76-9.4,50.21.46,5.95,1.16,12.11,4.04,17.19,7.55,13.29,25.49,13.07,37.09,22.27,4.29,3.41,7.49,7.91,10.31,12.81l402.19-.6c-17.23-59-16.96-144.99-50.44-193.59Z"/>
    <path class="cls-4" d="m2865.04,424.93c-3.72,7.1-8.57,13.46-12.07,20.69-2.35,4.86-3.58,11.96.65,14.96,3.63,2.57,8.68-.24,11.02-4.21,2.34-3.97,3.01-8.82,4.84-13.1,2.67-6.25,7.64-10.96,10.94-16.84,3.17-5.66,4.68-12.21,5.92-18.69.77-4,8.16-55.88-4.67-48.36-4.42,2.59-5.27,26.98-6.28,32.31-2.18,11.5-4.97,22.98-10.36,33.26Z"/>
    <path class="cls-4" d="m2903.99,586.51c-5.37-5.88-7.79-14.29-8.64-22.53-2.03-19.66,3.74-39.22,4.63-58.98,1.29-28.53-7.63-56.77-6.15-85.29,3.18-.37,5.16,3.6,6.09,6.93,9.54,34.04,5.36,72.01,19.01,104.34,5.3,12.54,13.22,24.06,15.48,37.64.8,4.79.83,9.91-1.01,14.36-5.18,12.56-21.42,12.31-29.42,3.54Z"/>
    <path class="cls-4" d="m3002.4,369.03c22.63-30.44,34-68.64,49.12-104.17,16.22-38.1,37.04-73.62,57.8-109.01,1.58-2.7,3.26-5.5,5.82-7.09,2.55-1.59,6.24-1.51,8.01,1.06,3.29,4.78-2.57,10.42-6.5,14.59-4.29,4.54-6.77,10.7-9.03,16.73-12.24,32.69-21.43,67.25-39.8,96.34-6.8,10.77-14.85,20.78-19.65,32.76-11.38,28.43-2.85,60.62-11.33,89.71-3.49,11.97-10.49,26.14-23.19,27.75-9.99,1.27-19.99-5.73-24.29-15.38-7.42-16.67,3.86-30.95,13.03-43.29Z"/>
    <path class="cls-4" d="m3225.99,310.94c2.16-1.79,4.05-4.31,4.21-7.26.18-3.32-1.83-6.27-3.82-8.79-4.63-5.87-9.74-11.29-15.26-16.18-5.65-5-12.7-9.65-19.78-7.82-2.76.72-5.23,2.37-7.64,4-13.43,9.08-33.88,19.53-10.73,26.52,15.62,4.72,37.26,22.55,53.02,9.52Z"/>
  </g>
</svg>