<?xml version="1.0" encoding="UTF-8"?>
<svg id="Layer_1" data-name="Layer 1" xmlns="http://www.w3.org/2000/svg" xmlns:xlink="http://www.w3.org/1999/xlink" viewBox="0 0 4023 1080">
  <defs>
    <style>
      .cls-1 {
        fill: #25a977;
      }

      .cls-2 {
        fill: #1b8d67;
      }

      .cls-3 {
        fill: #6c2950;
      }

      .cls-4 {
        fill: #258265;
      }

      .cls-5 {
        fill: #ffdd3a;
      }

      .cls-6 {
        fill: #f17a40;
      }

      .cls-7 {
        fill: #36cd88;
      }

      .cls-8 {
        fill: #f99d46;
      }

      .cls-9 {
        fill: #853866;
      }

      .cls-10 {
        fill: url(#linear-gradient);
      }

      .cls-11 {
        fill: #fabb50;
      }

      .cls-12 {
        fill: #582949;
      }
    </style>
    <linearGradient id="linear-gradient" x1="2011.71" y1="1023.04" x2="2011.71" y2="1153.04" gradientUnits="userSpaceOnUse">
      <stop offset="0" stop-color="#36cd88"/>
      <stop offset="1" stop-color="#1b8d67"/>
    </linearGradient>
  </defs>
  <rect class="cls-10" x="-4.58" y="1023.04" width="4032.58" height="130"/>
  <g>
    <path class="cls-11" d="m2944.96,1104.24h308.74s-14.79-54.01-46.02-36.16c-4.93-64.33-59.07-72.54-76.38-28.17-27.17-49.31-172.93-39.53-186.34,38.58"/>
    <g>
      <path class="cls-9" d="m2880.18,651.04l54.53,82.28v28.98l-66.65-103.33c-1.19-1.85-1.48-4.13-.78-6.21h0c1.91-5.72,9.57-6.74,12.9-1.71Z"/>
      <path class="cls-8" d="m3160.48,553.34v216.9c0,68.83-55.76,124.59-124.59,124.59s-124.59-55.76-124.59-124.59v-216.9c0-13.21,2.05-25.94,5.86-37.87,16.02-50.31,63.11-86.72,118.73-86.72,34.4,0,65.57,13.94,88.11,36.48,11.37,11.37,20.56,24.93,26.87,40.02,6.17,14.81,9.61,31.03,9.61,48.1Z"/>
      <path class="cls-9" d="m3018.63,550.74h39.84c4.46,0,8.07,3.62,8.07,8.07v545.42h-55.98v-545.42c0-4.46,3.62-8.07,8.07-8.07Z"/>
      <path class="cls-9" d="m2975.15,643.81l54.53,82.28v28.98l-66.65-103.33c-1.19-1.85-1.48-4.13-.78-6.21h0c1.91-5.72,9.57-6.74,12.9-1.71Z"/>
      <path class="cls-9" d="m2990.9,758.27l69.62,105.05-7.56,49.43-88.49-137.2c-2.6-4.02-3.22-9.01-1.71-13.55h0c4.16-12.48,20.87-14.7,28.14-3.73Z"/>
      <path class="cls-9" d="m3095.64,567.5l-54.53,82.28v28.98l66.65-103.33c1.19-1.85,1.48-4.13.78-6.21h0c-1.91-5.72-9.57-6.74-12.9-1.71Z"/>
      <path class="cls-9" d="m3115.05,845.19l-54.53,82.28v28.98l66.65-103.33c1.19-1.84,1.48-4.13.78-6.21h0c-1.91-5.72-9.57-6.74-12.9-1.71Z"/>
      <circle class="cls-11" cx="2884.35" cy="621.51" r="57.25"/>
      <circle class="cls-11" cx="3157.02" cy="799.42" r="72.65"/>
      <circle class="cls-5" cx="3133.89" cy="769.13" r="17.53"/>
      <circle class="cls-5" cx="3189.24" cy="788.85" r="25.85"/>
      <path class="cls-5" d="m2855.33,615.82c0,3.14-2.55,5.69-5.69,5.69s-5.69-2.55-5.69-5.69,2.55-5.69,5.69-5.69,5.69,2.55,5.69,5.69Z"/>
      <circle class="cls-5" cx="2867.92" cy="589.78" r="7.69"/>
      <circle class="cls-5" cx="2908.39" cy="608.09" r="18.32"/>
      <path class="cls-8" d="m3172.29,720.18s-7.1-24.42,20.42-27.14c4.91,27.14-20.42,27.14-20.42,27.14Z"/>
      <path class="cls-6" d="m2944.96,806.78s15.3-20.31,33.96.09c-18.79,20.19-33.96-.09-33.96-.09Z"/>
      <path class="cls-6" d="m2930.13,771.76s23.25-10.3,29.62,16.61c-26.24,8.49-29.62-16.61-29.62-16.61Z"/>
      <path class="cls-6" d="m3116.81,582.02s-4.46-25.04,23.19-24.81c1.99,27.5-23.19,24.81-23.19,24.81Z"/>
      <path class="cls-6" d="m3094.42,608.39s18.43-34.94,52.1-8.27c-23.81,35.61-52.1,8.27-52.1,8.27Z"/>
      <path class="cls-8" d="m3123.73,873.67s23.76,9.08,9.31,32.66c-24.6-12.46-9.31-32.66-9.31-32.66Z"/>
      <path class="cls-8" d="m3143.34,879.89s31.3-9.72,35.45,25.67c-34.85,6.96-35.45-25.67-35.45-25.67Z"/>
      <path class="cls-8" d="m2873.16,729.99s-16.13-19.66,8.1-32.98c15.18,23.02-8.1,32.98-8.1,32.98Z"/>
      <path class="cls-8" d="m2824.53,688.04s23.31-29.53,50.22,1.28c-28.46,29.22-50.22-1.28-50.22-1.28Z"/>
      <ellipse class="cls-3" cx="3029.47" cy="604.25" rx="6.43" ry="22.16"/>
      <path class="cls-3" d="m3052.03,924.98c0,41.86-3.61,75.79-8.07,75.79s-8.07-33.93-8.07-75.79,3.61-75.79,8.07-75.79,8.07,33.93,8.07,75.79Z"/>
      <ellipse class="cls-3" cx="3029.47" cy="788.85" rx="6.43" ry="22.16"/>
      <ellipse class="cls-3" cx="3045.6" cy="688.63" rx="9.71" ry="51.17"/>
      <path class="cls-11" d="m3150.87,505.25c-103.92-87.87-197.2-23.13-233.71,10.23,16.02-50.31,63.11-86.72,118.73-86.72,34.4,0,65.57,13.94,88.11,36.48,11.37,11.37,20.56,24.93,26.87,40.02Z"/>
      <path class="cls-6" d="m3108.92,1104.24h-259.27s2.29-66.27,67.51-49.34c17.58-59.99,80.52-24.13,62.1,23.27,43.1-32.53,117.79-7.59,129.65,26.08Z"/>
      <path class="cls-8" d="m2969.8,1104.24h-95.64c9.36-13.73,25.56-28.23,52.08-21.95,11.79-21.46,47.82-8.84,43.55,21.95Z"/>
    </g>
  </g>
  <g>
    <path class="cls-4" d="m532.13,835.89s37.3,76.18,115.37,57.35c18.16,50.5,52.4,29.96,52.4,29.96,0,0,24.82,38.66,58.2-3.78,11.98,58.56,76.18,1.21,91.59-14.19,30.81,47.93,101.86,34.24,94.15-9.42,53.07,25.68,85.6-11.98,88.16-39.37-67.62,5.14-225.06-43.84-225.06-43.84"/>
    <path class="cls-4" d="m673.24,515.17s11.03,26.37,40.61,31.76c-13.54,16.17,20.6,46.71,44.55,35.33,8.98,29.34,43.4,11.5,43.4,11.5,0,0,48.56,19.04,64.86-11.5,29.47,20.96,102.53-5.39,84.57-55.69-36.53,19.16-171.94-29.94-171.94-29.94l-106.05,18.54Z"/>
    <path class="cls-4" d="m708.69,357.11s7.48,27.55,38.17,13.77c1.35,41.92,50.65,40.68,53.85,17.64,18.17,21.88,31.98,2.12,31.98,2.12,0,0,53.85,8.98,52.66-33.53-1.2-42.52-165.28-26.95-176.66,0Z"/>
    <polygon class="cls-3" points="832.69 1069.08 770.9 1069.08 800.05 247.17 803.55 247.17 832.69 1069.08"/>
    <path class="cls-1" d="m801.8,217.77s-4.74,33.09-25.74,41.18c19.39-1.6,23.82-6.88,23.82-6.88,0,0,9.29,13.74,27.87,6.88-17.77-4.84-25.95-41.18-25.95-41.18Z"/>
    <path class="cls-1" d="m731.38,1072h150.3s10.33-66.13,0-73.65c-10.33-7.51-8.45,62-8.45,62,0,0-14.09-32.13-18.79-25.46-4.7,6.67-.94,25.46-.94,25.46,0,0-32.88-31.94-39.45-17.85-6.58,14.09-5.22,20.67-5.22,20.67,0,0-20.14-40.39-39.87-35.7-19.73,4.7-20.67,31-20.67,31,0,0-8.45-42.27-16.91-41.33-8.45.94,0,54.86,0,54.86Z"/>
    <path class="cls-4" d="m801.8,707.31s-12.17,61.73-79.81,76.76c57.52,42.38,79.81,8.45,79.81,8.45,0,0,37.4,43.21,84.48,2.82-38.41-7.52-71.3-35.39-84.48-88.04Z"/>
    <path class="cls-4" d="m801.8,420.52s-24.7,73.46-87.95,80.88c33.5,17.76,43.98,6.48,43.98,6.48,0,0,26.33,42.27,69.93,8.45,21.06,19.73,38.9.94,38.9.94,0,0-45.17-16.91-64.86-96.76Z"/>
    <path class="cls-4" d="m801.8,284.26s-17.54,46.71-54.93,42.42c17.49,24.93,39.79,10.93,39.79,10.93,0,0,19.68,14.87,27.99-.44,3.5,13.99,15.98,7.87,18.05-3.06,9.5,5.68,18.69,4.81,23.06-5.25-46.56-2.19-53.96-44.6-53.96-44.6Z"/>
    <polyline class="cls-3" points="812.29 610.41 826.66 593.77 830.26 593.77 817.06 628.31"/>
    <polyline class="cls-3" points="801.31 385.09 790.25 379.86 787.14 387.65 797.32 396.03"/>
    <polyline class="cls-3" points="788.34 849.35 770.9 831.98 766.78 843.96 782.95 872.1"/>
    <polyline class="cls-3" points="815.89 950.55 836.25 927.2 842.83 934.98 826.66 979.89"/>
    <path class="cls-12" d="m802.11,929.59c0,5.62-4.56,10.18-10.18,10.18s-10.18-4.56-10.18-10.18,4.56-10.18,10.18-10.18,10.18,4.56,10.18,10.18Z"/>
    <path class="cls-12" d="m819.53,1004.15c0,3.47-2.82,6.29-6.29,6.29s-6.29-2.82-6.29-6.29,2.82-6.29,6.29-6.29,6.29,2.82,6.29,6.29Z"/>
    <path class="cls-12" d="m815.89,968.79c0,2.47-2,4.47-4.47,4.47s-4.47-2-4.47-4.47,2-4.47,4.47-4.47,4.47,2,4.47,4.47Z"/>
    <circle class="cls-12" cx="808.39" cy="825.39" r="6.59"/>
    <path class="cls-12" d="m800.05,629.98c0,.92-.74,1.66-1.66,1.66s-1.66-.74-1.66-1.66.74-1.66,1.66-1.66,1.66.74,1.66,1.66Z"/>
    <path class="cls-12" d="m814.07,582.2c0,3.14-2.55,5.69-5.69,5.69s-5.69-2.55-5.69-5.69,2.55-5.69,5.69-5.69,5.69,2.55,5.69,5.69Z"/>
    <path class="cls-12" d="m804.51,558.01c0,2.15-1.74,3.89-3.89,3.89s-3.89-1.74-3.89-3.89,1.74-3.89,3.89-3.89,3.89,1.74,3.89,3.89Z"/>
    <path class="cls-12" d="m804.13,405.57c0,.97-.79,1.76-1.76,1.76s-1.76-.79-1.76-1.76.79-1.76,1.76-1.76,1.76.79,1.76,1.76Z"/>
    <path class="cls-1" d="m801.8,593.77s-67.34,235.05-297.54,231.42c111.47,81.18,161.14,43.62,161.14,43.62,0,0,4.85,38.77,33.92,43.62,29.08,4.85,44.83-25.44,44.83-25.44,0,0,53.31,56.94,106.62,0,38.77,42.41,71.48,21.81,77.54-9.69,79.97,32.71,126.01-32.71,126.01-32.71,0,0-215.47-14.54-252.52-250.8Z"/>
    <path class="cls-1" d="m802.1,382.71s-39.81,130.78-154.59,112.57c37.52,39.18,83.33,32.01,83.33,32.01,0,0-5.52,26.49,16,34.21,21.52,7.73,35.87-8.83,35.87-8.83,0,0,49.67,47.46,86.64-7.73,38.08,44.15,93.26,2.21,101.54-38.63-53.53,19.31-115.79-20.97-138.74-52.98-22.95-32.01-30.05-70.63-30.05-70.63Z"/>
    <path class="cls-1" d="m801.8,259.36s-65.64,81.8-144.63,65.13c51.45,73.19,92.03,28.98,92.03,28.98,0,0,21.87,43.48,52.6,7.25,30.73,39.13,53.19-1.45,53.19-1.45,0,0,52.17,39.13,92.03-23.91-75.36,10.87-145.22-76-145.22-76Z"/>
    <path class="cls-4" d="m797.88,596.61s-49.13,60.99-97.1,62.72c26.01,8.67,48.55-8.73,48.55-8.73,0,0-11.56,17.4,0,18.55s28.9-8.67,28.9-8.67c0,0,42.19,32.94,66.46-3.47,27.16,15.03,47.97-9.25,47.97-9.25,0,0-58.95,21.35-94.78-51.17Z"/>
  </g>
  <g>
    <path class="cls-1" d="m297,1037.08H113.59s-8.12-73.71,55.04-65.55c-1.8-60.42,72.18-46.05,61.35,0,46.92-45.08,69.57,12.72,69.57,12.72,0,0,37.6-71.46,96.8-13.65,45.66-52.27,92.58,18.32,50.17,66.48h-149.52Z"/>
    <g>
      <polyline class="cls-9" points="550.6 603.02 531.67 625.67 468.09 606.85 459.07 633.14 536.67 641.5 559.53 611.3"/>
      <path class="cls-9" d="m444.87,562.2c1.07-1.43,89.66-62.51,89.66-62.51l5.15,15.8-73.02,82.79"/>
      <polyline class="cls-9" points="66.83 486.11 74.94 550.29 137.31 603.02 154.73 571.29 88.5 542.3 80.3 486.11"/>
      <path class="cls-9" d="m331.12,856.43c1.43-2.71,80.98-98.53,80.98-98.53l-25.31-7.23-55.67,72.77"/>
      <polyline class="cls-9" points="278.32 845.4 206.01 754.1 192.45 760.91 278.32 870.29"/>
      <rect class="cls-9" x="259.85" y="765.22" width="74.31" height="271.86"/>
      <path class="cls-7" d="m442.9,427.22c0,58.26-34.57,108.43-84.31,131.11-18.2,8.33-38.44,12.95-59.79,12.95-79.55,0-144.07-64.48-144.07-144.07s64.51-144.1,144.07-144.1c54.55,0,102.04,30.34,126.49,75.06,11.23,20.47,17.61,44.01,17.61,69.04Z"/>
      <path class="cls-1" d="m442.9,427.22c0,58.26-34.57,108.43-84.31,131.11-37.24-16.41-63.25-53.64-63.25-96.97,0-58.49,47.43-105.92,105.92-105.92,8.27,0,16.31.94,24.02,2.73,11.23,20.47,17.61,44.01,17.61,69.04Z"/>
      <path class="cls-7" d="m491.04,611.29c0,22.23-3.78,43.58-10.71,63.44-13.05,37.3-37.27,69.36-68.65,92.15-4.75,3.48-9.7,6.74-14.78,9.73-28.71,17.12-62.27,26.92-98.11,26.92-21.91,0-42.97-3.68-62.59-10.42-17.54-6.05-33.95-14.55-48.79-25.13-48.92-34.83-80.85-92.05-80.85-156.7,0-4.46.16-8.89.46-13.25,6.8-99.96,90.1-178.99,191.79-178.99s192.24,86.1,192.24,192.24Z"/>
      <circle class="cls-7" cx="71.16" cy="456.21" r="46.22" transform="translate(-389.57 425.91) rotate(-77.37)"/>
      <circle class="cls-7" cx="552.68" cy="480.68" r="61.62" transform="translate(-178.02 531.59) rotate(-45)"/>
      <path class="cls-7" d="m203.17,1040h196.28s-9.94-17.21-32.54-8.61c.9-37.96-47.91-40.68-51.52-10.85-17.17-26.21-18.38,8.14-18.38,8.14,0,0-29.53-28.02-53.03-4.52-18.98-17.17-42.43-7.55-40.8,15.84Z"/>
      <path class="cls-3" d="m286,979.89c0,4.62-3.74,8.36-8.36,8.36s-8.36-3.74-8.36-8.36,3.74-8.36,8.36-8.36,8.36,3.74,8.36,8.36Z"/>
      <path class="cls-3" d="m328.41,921.04c0,10.98-8.9,19.89-19.89,19.89s-19.89-8.9-19.89-19.89,8.9-19.89,19.89-19.89,19.89,8.9,19.89,19.89Z"/>
      <circle class="cls-3" cx="283.14" cy="864.03" r="5.5"/>
      <path class="cls-3" d="m319.22,824.3c0,4.81-3.9,8.7-8.7,8.7s-8.7-3.9-8.7-8.7,3.9-8.7,8.7-8.7,8.7,3.9,8.7,8.7Z"/>
      <path class="cls-3" d="m319.22,962.32c0,2.4-1.95,4.35-4.35,4.35s-4.35-1.95-4.35-4.35,1.95-4.35,4.35-4.35,4.35,1.95,4.35,4.35Z"/>
      <path class="cls-3" d="m283.14,891.68c0,3.83-3.1,6.93-6.93,6.93s-6.93-3.1-6.93-6.93,3.1-6.93,6.93-6.93,6.93,3.1,6.93,6.93Z"/>
      <path class="cls-1" d="m63.17,510.76s-10.82-11.09-23,0c14.07,11.37,23,0,23,0Z"/>
      <path class="cls-1" d="m66.59,490.51s-2.63-15.28-18.95-13.04c5.15,17.34,18.95,13.04,18.95,13.04Z"/>
      <path class="cls-1" d="m71.69,490.98s13.7-7.26,6.49-22.07c-14.87,10.3-6.49,22.07-6.49,22.07Z"/>
      <path class="cls-1" d="m518.56,507.29s13.7-7.26,6.48-22.07c-14.87,10.3-6.48,22.07-6.48,22.07Z"/>
      <path class="cls-1" d="m532.52,608.66s5.35-14.55-9.91-20.76c-4.19,17.6,9.91,20.76,9.91,20.76Z"/>
      <path class="cls-1" d="m574.87,625.35s8.05,13.25,22.41,5.18c-11.15-14.24-22.41-5.18-22.41-5.18Z"/>
      <path class="cls-1" d="m338.5,671.56s4.17,14.93,20.18,11.04c-6.89-16.73-20.18-11.04-20.18-11.04Z"/>
      <path class="cls-1" d="m540.12,527.7s28.51,16.04,46.59-13.66c-35.25-14.66-46.59,13.66-46.59,13.66Z"/>
      <path class="cls-1" d="m301.6,396.31s30.96-10.57,20.86-43.84c-34.43,16.51-20.86,43.84-20.86,43.84Z"/>
      <path class="cls-1" d="m531.13,507.71s21.94,7.23,30.41-15.82c-26.42-5.35-30.41,15.82-30.41,15.82Z"/>
      <path class="cls-1" d="m490.86,520.97s3.47-22.84-20.66-27.36c-.88,26.94,20.66,27.36,20.66,27.36Z"/>
      <path class="cls-1" d="m289.02,409.99s3.47-22.84-20.66-27.36c-.88,26.94,20.66,27.36,20.66,27.36Z"/>
      <path class="cls-1" d="m576.04,655.18s3.47-22.84-20.66-27.36c-.88,26.94,20.66,27.36,20.66,27.36Z"/>
      <path class="cls-1" d="m62.79,475.25s23.53-12.62,10.98-38.07c-25.53,17.87-10.98,38.07-10.98,38.07Z"/>
      <path class="cls-1" d="m372.14,689.49s23.53-12.62,10.98-38.07c-25.53,17.87-10.98,38.07-10.98,38.07Z"/>
      <path class="cls-7" d="m586.08,598.28c0,12.51-10.14,22.65-22.65,22.65s-22.65-10.14-22.65-22.65,10.14-22.65,22.65-22.65,22.65,10.14,22.65,22.65Z"/>
      <path class="cls-1" d="m289.2,695.2c0,40.98-21.09,77.05-52.99,97.91-17.54-6.05-33.95-14.55-48.79-25.13-48.92-34.83-80.85-92.05-80.85-156.7,0-4.46.16-8.89.46-13.25,18.62-12.53,41.01-19.82,65.17-19.82,59.73,0,109.01,44.76,116.14,102.53.59,4.75.88,9.57.88,14.45Z"/>
      <path class="cls-1" d="m411.69,766.88c-4.75,3.48-9.7,6.74-14.78,9.73-28.71,17.12-62.27,26.92-98.11,26.92-21.91,0-42.97-3.68-62.59-10.42-17.54-6.05-33.95-14.55-48.79-25.13,11.59-46.84,51.72-82.42,100.91-87.23,3.74-.36,7.55-.55,11.39-.55,31.05,0,59.24,12.24,80.01,32.16,15.27,14.65,26.53,33.4,31.96,54.52Z"/>
      <path class="cls-1" d="m480.33,674.73c-13.05,37.3-37.27,69.36-68.65,92.15-4.75,3.48-9.7,6.74-14.78,9.73-12.04-11.98-19.5-28.58-19.5-46.9,0-5.99.81-11.82,2.31-17.35,7.62-28.12,33.3-48.79,63.83-48.79,13.61,0,26.27,4.13,36.78,11.16Z"/>
    </g>
    <circle class="cls-2" cx="184.61" cy="663.39" r="42.46" transform="translate(-239.82 121.15) rotate(-22.5)"/>
    <path class="cls-2" d="m244.04,743.04c0,9.9-8.02,17.92-17.92,17.92s-17.92-8.02-17.92-17.92,8.02-17.92,17.92-17.92,17.92,8.02,17.92,17.92Z"/>
  </g>
  <g>
    <path class="cls-1" d="m1251.92,1035.25h-149.99s-6.64-60.28,45.01-53.61c-1.48-49.41,59.03-37.66,50.17,0,38.37-36.86,56.89,10.41,56.89,10.41,0,0,30.75-58.43,79.16-11.16,37.34-42.75,75.71,14.98,41.03,54.37h-122.27Z"/>
    <g>
      <polyline class="cls-9" points="1459.31 680.28 1443.82 698.81 1391.82 683.42 1384.45 704.91 1447.91 711.76 1466.61 687.06"/>
      <path class="cls-9" d="m1372.84,646.9c.88-1.17,73.32-51.12,73.32-51.12l4.21,12.92-59.72,67.7"/>
      <polyline class="cls-9" points="1063.69 584.68 1070.31 637.17 1121.32 680.28 1135.57 654.33 1081.4 630.63 1074.7 584.68"/>
      <path class="cls-9" d="m1279.82,887.52c1.17-2.22,66.22-80.57,66.22-80.57l-20.7-5.91-45.53,59.51"/>
      <polyline class="cls-9" points="1236.64 878.5 1177.5 803.83 1166.41 809.4 1236.64 898.85"/>
      <rect class="cls-9" x="1221.53" y="812.93" width="60.77" height="222.32"/>
      <path class="cls-7" d="m1371.23,536.52c0,47.65-28.27,88.67-68.94,107.22-14.88,6.81-31.44,10.59-48.9,10.59-65.06,0-117.82-52.73-117.82-117.82s52.76-117.84,117.82-117.84c44.61,0,83.45,24.81,103.44,61.38,9.18,16.74,14.4,35.99,14.4,56.46Z"/>
      <path class="cls-1" d="m1371.23,536.52c0,47.65-28.27,88.67-68.94,107.22-30.45-13.42-51.72-43.87-51.72-79.3,0-47.83,38.78-86.62,86.62-86.62,6.76,0,13.34.77,19.64,2.24,9.18,16.74,14.4,35.99,14.4,56.46Z"/>
      <path class="cls-7" d="m1410.6,687.05c0,18.18-3.09,35.64-8.76,51.88-10.67,30.51-30.48,56.73-56.14,75.36-3.89,2.85-7.93,5.51-12.08,7.96-23.48,14-50.92,22.01-80.23,22.01-17.91,0-35.14-3.01-51.19-8.52-14.35-4.95-27.76-11.9-39.9-20.55-40.01-28.48-66.12-75.28-66.12-128.14,0-3.65.13-7.27.37-10.83,5.56-81.75,73.68-146.38,156.84-146.38s157.21,70.41,157.21,157.21Z"/>
      <circle class="cls-7" cx="1067.23" cy="560.23" r="37.79" transform="translate(287.21 1479.15) rotate(-77.37)"/>
      <circle class="cls-7" cx="1461" cy="580.24" r="50.39" transform="translate(17.63 1203.03) rotate(-45)"/>
      <path class="cls-7" d="m1175.18,1039h160.52s-8.13-14.08-26.61-7.04c.74-31.05-39.18-33.26-42.14-8.87-14.05-21.44-15.03,6.65-15.03,6.65,0,0-24.15-22.92-43.37-3.7-15.52-14.05-34.69-6.18-33.37,12.95Z"/>
      <path class="cls-3" d="m1242.92,988.48c0,3.78-3.06,6.84-6.84,6.84s-6.84-3.06-6.84-6.84,3.06-6.84,6.84-6.84,6.84,3.06,6.84,6.84Z"/>
      <path class="cls-3" d="m1277.6,940.35c0,8.98-7.28,16.26-16.26,16.26s-16.26-7.28-16.26-16.26,7.28-16.26,16.26-16.26,16.26,7.28,16.26,16.26Z"/>
      <circle class="cls-3" cx="1240.58" cy="893.74" r="4.5"/>
      <path class="cls-3" d="m1270.09,861.24c0,3.93-3.19,7.11-7.11,7.11s-7.12-3.19-7.12-7.11,3.19-7.12,7.12-7.12,7.11,3.19,7.11,7.12Z"/>
      <path class="cls-3" d="m1270.09,974.11c0,1.96-1.59,3.56-3.56,3.56s-3.56-1.59-3.56-3.56,1.59-3.56,3.56-3.56,3.56,1.59,3.56,3.56Z"/>
      <path class="cls-3" d="m1240.58,916.34c0,3.13-2.54,5.67-5.67,5.67s-5.67-2.54-5.67-5.67,2.54-5.67,5.67-5.67,5.67,2.54,5.67,5.67Z"/>
      <path class="cls-1" d="m1060.69,604.84s-8.85-9.07-18.81,0c11.51,9.29,18.81,0,18.81,0Z"/>
      <path class="cls-1" d="m1063.49,588.27s-2.15-12.49-15.49-10.66c4.21,14.18,15.49,10.66,15.49,10.66Z"/>
      <path class="cls-1" d="m1067.66,588.66s11.2-5.93,5.3-18.05c-12.16,8.42-5.3,18.05-5.3,18.05Z"/>
      <path class="cls-1" d="m1433.1,602s11.2-5.93,5.3-18.05c-12.16,8.42-5.3,18.05-5.3,18.05Z"/>
      <path class="cls-1" d="m1444.52,684.89s4.37-11.9-8.11-16.97c-3.43,14.39,8.11,16.97,8.11,16.97Z"/>
      <path class="cls-1" d="m1479.15,698.55s6.58,10.83,18.33,4.24c-9.12-11.65-18.33-4.24-18.33-4.24Z"/>
      <path class="cls-1" d="m1285.85,736.33s3.41,12.21,16.5,9.03c-5.63-13.68-16.5-9.03-16.5-9.03Z"/>
      <path class="cls-1" d="m1450.73,618.69s23.32,13.12,38.1-11.17c-28.83-11.99-38.1,11.17-38.1,11.17Z"/>
      <path class="cls-1" d="m1255.67,511.24s25.32-8.64,17.06-35.85c-28.15,13.5-17.06,35.85-17.06,35.85Z"/>
      <path class="cls-1" d="m1443.38,602.35s17.94,5.91,24.87-12.94c-21.61-4.38-24.87,12.94-24.87,12.94Z"/>
      <path class="cls-1" d="m1410.45,613.19s2.84-18.68-16.9-22.37c-.72,22.04,16.9,22.37,16.9,22.37Z"/>
      <path class="cls-1" d="m1245.39,522.43s2.84-18.68-16.9-22.37c-.72,22.04,16.9,22.37,16.9,22.37Z"/>
      <path class="cls-1" d="m1480.11,722.94s2.84-18.68-16.9-22.37c-.72,22.03,16.9,22.37,16.9,22.37Z"/>
      <path class="cls-1" d="m1060.38,575.8s19.24-10.32,8.98-31.14c-20.88,14.61-8.98,31.14-8.98,31.14Z"/>
      <path class="cls-1" d="m1313.36,751s19.24-10.32,8.98-31.14c-20.88,14.61-8.98,31.14-8.98,31.14Z"/>
      <path class="cls-7" d="m1488.32,676.41c0,10.23-8.29,18.53-18.53,18.53s-18.53-8.29-18.53-18.53,8.29-18.53,18.53-18.53,18.53,8.29,18.53,18.53Z"/>
      <path class="cls-1" d="m1245.53,755.67c0,33.51-17.25,63.01-43.34,80.07-14.35-4.95-27.76-11.9-39.9-20.55-40.01-28.48-66.12-75.28-66.12-128.14,0-3.65.13-7.27.37-10.83,15.23-10.25,33.54-16.21,53.29-16.21,48.85,0,89.15,36.6,94.98,83.85.48,3.89.72,7.83.72,11.82Z"/>
      <path class="cls-1" d="m1345.7,814.29c-3.89,2.85-7.93,5.51-12.08,7.96-23.48,14-50.92,22.01-80.23,22.01-17.91,0-35.14-3.01-51.19-8.52-14.35-4.95-27.76-11.9-39.9-20.55,9.48-38.3,42.3-67.4,82.52-71.34,3.06-.29,6.18-.45,9.32-.45,25.39,0,48.45,10.01,65.43,26.3,12.48,11.98,21.69,27.31,26.14,44.59Z"/>
      <path class="cls-1" d="m1401.84,738.93c-10.67,30.51-30.48,56.73-56.14,75.36-3.89,2.85-7.93,5.51-12.08,7.96-9.85-9.8-15.94-23.37-15.94-38.36,0-4.9.67-9.66,1.89-14.19,6.23-23,27.23-39.9,52.2-39.9,11.13,0,21.48,3.38,30.08,9.13Z"/>
    </g>
    <circle class="cls-2" cx="1160" cy="729.65" r="34.72" transform="translate(-190.93 499.46) rotate(-22.5)"/>
    <path class="cls-2" d="m1208.6,794.79c0,8.09-6.56,14.65-14.65,14.65s-14.65-6.56-14.65-14.65,6.56-14.65,14.65-14.65,14.65,6.56,14.65,14.65Z"/>
  </g>
  <g>
    <path class="cls-11" d="m1809,1069h366.17s-17.54-64.06-54.58-42.88c-5.85-76.29-70.06-86.04-90.59-33.4-32.22-58.48-205.1-46.88-221,45.76"/>
    <g>
      <path class="cls-9" d="m1732.35,559.01l64.67,97.58v34.37l-79.04-122.55c-1.41-2.19-1.75-4.9-.93-7.37h0c2.26-6.79,11.35-7.99,15.3-2.03Z"/>
      <path class="cls-8" d="m2064.78,443.14v257.24c0,81.63-66.13,147.76-147.76,147.76s-147.76-66.13-147.76-147.76v-257.24c0-15.67,2.43-30.76,6.95-44.91,19-59.67,74.85-102.85,140.81-102.85,40.8,0,77.77,16.53,104.5,43.26,13.49,13.49,24.39,29.57,31.87,47.46,7.32,17.56,11.39,36.81,11.39,57.04Z"/>
      <path class="cls-9" d="m1895.04,440.05h50.25c4.46,0,8.07,3.62,8.07,8.07v648.37h-66.39V448.12c0-4.46,3.62-8.07,8.07-8.07Z"/>
      <path class="cls-9" d="m1844.98,550.43l64.67,97.58v34.37l-79.04-122.55c-1.41-2.19-1.75-4.9-.93-7.37h0c2.26-6.79,11.35-7.99,15.3-2.03Z"/>
      <path class="cls-9" d="m1863.66,686.17l82.57,124.59-8.97,58.63-104.95-162.71c-3.08-4.77-3.82-10.68-2.03-16.07h0c4.94-14.81,24.75-17.43,33.38-4.42Z"/>
      <path class="cls-9" d="m1987.88,459.93l-64.67,97.58v34.37l79.04-122.55c1.41-2.19,1.75-4.9.93-7.37h0c-2.26-6.79-11.35-7.99-15.3-2.03Z"/>
      <path class="cls-9" d="m2010.9,789.26l-64.67,97.58v34.37l79.04-122.55c1.41-2.19,1.75-4.9.93-7.37h0c-2.26-6.79-11.35-7.99-15.3-2.03Z"/>
      <circle class="cls-11" cx="1737.29" cy="523.98" r="67.89"/>
      <circle class="cls-11" cx="2060.67" cy="734.99" r="86.16"/>
      <circle class="cls-5" cx="2033.25" cy="699.05" r="20.8"/>
      <circle class="cls-5" cx="2098.89" cy="722.45" r="30.66"/>
      <path class="cls-5" d="m1702.87,517.23c0,3.73-3.02,6.75-6.75,6.75s-6.75-3.02-6.75-6.75,3.02-6.75,6.75-6.75,6.75,3.02,6.75,6.75Z"/>
      <circle class="cls-5" cx="1717.8" cy="486.35" r="9.12"/>
      <circle class="cls-5" cx="1765.81" cy="508.07" r="21.72"/>
      <path class="cls-8" d="m2078.78,641s-8.42-28.96,24.22-32.18c5.82,32.18-24.22,32.18-24.22,32.18Z"/>
      <path class="cls-6" d="m1809.17,743.72s18.15-24.09,40.28.11c-22.28,23.94-40.28-.11-40.28-.11Z"/>
      <path class="cls-6" d="m1791.59,702.17s27.58-12.21,35.13,19.7c-31.12,10.07-35.13-19.7-35.13-19.7Z"/>
      <path class="cls-6" d="m2012.98,477.14s-5.29-29.7,27.51-29.42c2.36,32.62-27.51,29.42-27.51,29.42Z"/>
      <path class="cls-6" d="m1986.44,508.42s21.86-41.44,61.79-9.81c-28.24,42.23-61.79,9.81-61.79,9.81Z"/>
      <path class="cls-8" d="m2021.2,823.05s28.18,10.77,11.05,38.73c-29.17-14.78-11.05-38.73-11.05-38.73Z"/>
      <path class="cls-8" d="m2044.45,830.42s37.13-11.53,42.05,30.45c-41.34,8.26-42.05-30.45-42.05-30.45Z"/>
      <path class="cls-8" d="m1724.02,652.63s-19.13-23.32,9.61-39.11c18.01,27.3-9.61,39.11-9.61,39.11Z"/>
      <path class="cls-8" d="m1666.34,602.89s27.65-35.02,59.56,1.51c-33.76,34.66-59.56-1.51-59.56-1.51Z"/>
      <ellipse class="cls-3" cx="1909.4" cy="503.51" rx="7.62" ry="26.28"/>
      <path class="cls-3" d="m1936.15,883.89c0,49.64-4.28,89.88-9.57,89.88s-9.57-40.24-9.57-89.88,4.28-89.88,9.57-89.88,9.57,40.24,9.57,89.88Z"/>
      <ellipse class="cls-3" cx="1909.4" cy="722.45" rx="7.62" ry="26.28"/>
      <ellipse class="cls-3" cx="1928.53" cy="603.59" rx="11.51" ry="60.69"/>
      <path class="cls-11" d="m2053.39,386.1c-123.25-104.21-233.88-27.43-277.19,12.13,19-59.67,74.85-102.85,140.81-102.85,40.8,0,77.77,16.53,104.5,43.26,13.49,13.49,24.39,29.57,31.87,47.46Z"/>
      <path class="cls-6" d="m2003.62,1096.5h-307.49s2.71-78.59,80.07-58.52c20.85-71.15,95.49-28.62,73.66,27.6,51.12-38.58,139.7-9.01,153.77,30.93Z"/>
      <path class="cls-8" d="m1838.63,1096.5h-113.42c11.1-16.29,30.31-33.48,61.77-26.03,13.98-25.46,56.71-10.49,51.65,26.03Z"/>
    </g>
  </g>
  <g>
    <path class="cls-4" d="m2200.31,793.61s41.53,84.82,128.46,63.86c20.22,56.23,58.34,33.36,58.34,33.36,0,0,27.64,43.05,64.81-4.21,13.34,65.21,84.82,1.35,101.98-15.81,34.31,53.37,113.42,38.12,104.84-10.48,59.09,28.59,95.31-13.34,98.17-43.84-75.29,5.72-250.6-48.81-250.6-48.81"/>
    <path class="cls-4" d="m2357.43,436.5s12.28,29.36,45.22,35.37c-15.07,18,22.93,52.01,49.6,39.34,10,32.67,48.33,12.81,48.33,12.81,0,0,54.07,21.2,72.22-12.81,32.82,23.34,114.17-6,94.16-62.01-40.67,21.34-191.45-33.34-191.45-33.34l-118.08,20.64Z"/>
    <path class="cls-4" d="m2396.9,260.5s8.33,30.67,42.5,15.34c1.5,46.68,56.4,45.29,59.96,19.65,20.23,24.36,35.61,2.36,35.61,2.36,0,0,59.96,10,58.63-37.34-1.33-47.34-184.03-30.01-196.7,0Z"/>
    <polygon class="cls-3" points="2534.98 1053.26 2466.17 1053.26 2498.63 138.08 2502.52 138.08 2534.98 1053.26"/>
    <path class="cls-1" d="m2500.57,105.35s-5.28,36.85-28.66,45.86c21.59-1.79,26.53-7.66,26.53-7.66,0,0,10.35,15.3,31.03,7.66-19.79-5.38-28.9-45.86-28.9-45.86Z"/>
    <path class="cls-1" d="m2422.17,1056h167.36s11.51-73.64,0-82c-11.51-8.37-9.41,69.04-9.41,69.04,0,0-15.69-35.78-20.92-28.35-5.23,7.43-1.05,28.35-1.05,28.35,0,0-36.61-35.56-43.93-19.87-7.32,15.69-5.81,23.01-5.81,23.01,0,0-22.43-44.98-44.4-39.75-21.97,5.23-23.01,34.52-23.01,34.52,0,0-9.41-47.07-18.83-46.02-9.41,1.05,0,61.08,0,61.08Z"/>
    <path class="cls-4" d="m2500.57,650.44s-13.56,68.74-88.87,85.48c64.05,47.19,88.87,9.41,88.87,9.41,0,0,41.65,48.12,94.06,3.14-42.77-8.37-79.4-39.41-94.06-98.03Z"/>
    <path class="cls-4" d="m2500.57,331.11s-27.5,81.79-97.93,90.06c37.31,19.77,48.97,7.22,48.97,7.22,0,0,29.31,47.07,77.86,9.41,23.45,21.97,43.32,1.05,43.32,1.05,0,0-50.29-18.83-72.22-107.74Z"/>
    <path class="cls-4" d="m2500.57,179.39s-19.53,52.01-61.17,47.23c19.48,27.75,44.31,12.17,44.31,12.17,0,0,21.91,16.56,31.16-.49,3.9,15.58,17.79,8.76,20.09-3.41,10.58,6.33,20.81,5.36,25.68-5.84-51.85-2.43-60.08-49.67-60.08-49.67Z"/>
    <polyline class="cls-3" points="2512.26 542.55 2528.26 524.02 2532.26 524.02 2517.57 562.48"/>
    <polyline class="cls-3" points="2500.03 291.66 2487.72 285.84 2484.25 294.5 2495.59 303.84"/>
    <polyline class="cls-3" points="2485.59 808.6 2466.17 789.26 2461.58 802.6 2479.59 833.94"/>
    <polyline class="cls-3" points="2516.26 921.28 2538.93 895.28 2546.26 903.95 2528.26 953.96"/>
    <path class="cls-12" d="m2500.92,897.95c0,6.26-5.08,11.34-11.34,11.34s-11.34-5.08-11.34-11.34,5.08-11.34,11.34-11.34,11.34,5.08,11.34,11.34Z"/>
    <path class="cls-12" d="m2520.31,980.96c0,3.87-3.13,7-7,7s-7-3.13-7-7,3.13-7,7-7,7,3.13,7,7Z"/>
    <path class="cls-12" d="m2516.26,941.59c0,2.75-2.23,4.97-4.97,4.97s-4.97-2.23-4.97-4.97,2.23-4.97,4.97-4.97,4.97,2.23,4.97,4.97Z"/>
    <circle class="cls-12" cx="2507.91" cy="781.93" r="7.33"/>
    <path class="cls-12" d="m2498.62,564.33c0,1.02-.83,1.85-1.85,1.85s-1.85-.83-1.85-1.85.83-1.85,1.85-1.85,1.85.83,1.85,1.85Z"/>
    <path class="cls-12" d="m2514.24,511.14c0,3.5-2.84,6.33-6.33,6.33s-6.33-2.84-6.33-6.33,2.84-6.33,6.33-6.33,6.33,2.84,6.33,6.33Z"/>
    <path class="cls-12" d="m2503.59,484.21c0,2.39-1.94,4.33-4.33,4.33s-4.33-1.94-4.33-4.33,1.94-4.33,4.33-4.33,4.33,1.94,4.33,4.33Z"/>
    <path class="cls-12" d="m2503.17,314.47c0,1.08-.88,1.96-1.96,1.96s-1.96-.88-1.96-1.96.88-1.96,1.96-1.96,1.96.88,1.96,1.96Z"/>
    <path class="cls-1" d="m2500.57,524.02s-74.98,261.72-331.31,257.67c124.12,90.39,179.43,48.57,179.43,48.57,0,0,5.4,43.17,37.77,48.57,32.38,5.4,49.92-28.33,49.92-28.33,0,0,59.36,63.41,118.72,0,43.17,47.22,79.6,24.28,86.34-10.79,89.04,36.43,140.3-36.43,140.3-36.43,0,0-239.92-16.19-281.17-279.26Z"/>
    <path class="cls-1" d="m2500.9,289.01s-44.33,145.63-172.13,125.35c41.78,43.63,92.78,35.64,92.78,35.64,0,0-6.14,29.49,17.82,38.1,23.96,8.6,39.94-9.83,39.94-9.83,0,0,55.3,52.84,96.47-8.6,42.4,49.16,103.84,2.46,113.06-43.01-59.6,21.51-128.92-23.35-154.48-58.99-25.56-35.64-33.46-78.65-33.46-78.65Z"/>
    <path class="cls-1" d="m2500.57,151.66s-73.09,91.08-161.04,72.52c57.29,81.49,102.47,32.27,102.47,32.27,0,0,24.35,48.41,58.57,8.07,34.22,43.57,59.23-1.61,59.23-1.61,0,0,58.09,43.57,102.47-26.63-83.91,12.1-161.7-84.62-161.7-84.62Z"/>
    <path class="cls-4" d="m2496.21,527.18s-54.7,67.91-108.11,69.84c28.96,9.65,54.06-9.72,54.06-9.72,0,0-12.87,19.37,0,20.66,12.87,1.29,32.18-9.65,32.18-9.65,0,0,46.98,36.68,74.01-3.86,30.25,16.73,53.41-10.3,53.41-10.3,0,0-65.64,23.77-105.54-56.97Z"/>
  </g>
  <g>
    <path class="cls-1" d="m3613.33,1070.29h-212.19s-9.39-85.27,63.67-75.84c-2.09-69.9,83.51-53.27,70.98,0,54.28-52.15,80.49,14.72,80.49,14.72,0,0,43.5-82.67,111.99-15.79,52.83-60.47,107.11,21.19,58.05,76.91h-172.98Z"/>
    <g>
      <polyline class="cls-9" points="3906.73 568.12 3884.82 594.33 3811.26 572.56 3800.84 602.97 3890.61 612.64 3917.06 577.71"/>
      <path class="cls-9" d="m3784.4,520.9c1.24-1.65,103.73-72.32,103.73-72.32l5.96,18.28-84.48,95.78"/>
      <polyline class="cls-9" points="3347.04 432.87 3356.42 507.12 3428.58 568.12 3448.74 531.41 3372.11 497.88 3362.62 432.87"/>
      <path class="cls-9" d="m3652.81,861.29c1.66-3.14,93.69-113.99,93.69-113.99l-29.28-8.37-64.41,84.19"/>
      <polyline class="cls-9" points="3591.72 848.53 3508.06 742.91 3492.37 750.79 3591.72 877.33"/>
      <rect class="cls-9" x="3570.35" y="755.78" width="85.97" height="314.52"/>
      <path class="cls-7" d="m3782.12,364.74c0,67.41-39.99,125.44-97.53,151.69-21.05,9.64-44.47,14.99-69.18,14.99-92.04,0-166.67-74.6-166.67-166.67s74.64-166.71,166.67-166.71c63.11,0,118.06,35.1,146.34,86.84,12.99,23.69,20.37,50.91,20.37,79.87Z"/>
      <path class="cls-1" d="m3782.12,364.74c0,67.41-39.99,125.44-97.53,151.69-43.08-18.98-73.17-62.06-73.17-112.18,0-67.67,54.87-122.54,122.54-122.54,9.57,0,18.87,1.09,27.79,3.16,12.99,23.69,20.37,50.91,20.37,79.87Z"/>
      <path class="cls-7" d="m3837.82,577.69c0,25.72-4.37,50.42-12.39,73.4-15.1,43.16-43.12,80.25-79.42,106.61-5.5,4.03-11.22,7.8-17.1,11.26-33.21,19.81-72.04,31.14-113.5,31.14-25.34,0-49.71-4.26-72.42-12.05-20.3-7-39.28-16.83-56.45-29.07-56.6-40.29-93.54-106.5-93.54-181.28,0-5.16.19-10.28.53-15.33,7.87-115.65,104.24-207.08,221.88-207.08s222.41,99.61,222.41,222.41Z"/>
      <circle class="cls-7" cx="3352.05" cy="398.28" r="53.47" transform="translate(2230.52 3582.15) rotate(-77.37)"/>
      <circle class="cls-7" cx="3909.13" cy="426.59" r="71.29" transform="translate(843.31 2889.12) rotate(-45)"/>
      <path class="cls-7" d="m3504.77,1075h227.08s-11.5-19.91-37.65-9.96c1.05-43.92-55.43-47.06-59.61-12.55-19.87-30.33-21.26,9.41-21.26,9.41,0,0-34.16-32.42-61.35-5.23-21.96-19.87-49.08-8.74-47.21,18.32Z"/>
      <path class="cls-3" d="m3600.61,1004.13c0,5.34-4.33,9.67-9.67,9.67s-9.67-4.33-9.67-9.67,4.33-9.67,9.67-9.67,9.67,4.33,9.67,9.67Z"/>
      <path class="cls-3" d="m3649.67,936.04c0,12.71-10.3,23.01-23.01,23.01s-23.01-10.3-23.01-23.01,10.3-23.01,23.01-23.01,23.01,10.3,23.01,23.01Z"/>
      <circle class="cls-3" cx="3597.29" cy="870.09" r="6.36"/>
      <path class="cls-3" d="m3639.04,824.12c0,5.56-4.51,10.07-10.07,10.07s-10.07-4.51-10.07-10.07,4.51-10.07,10.07-10.07,10.07,4.51,10.07,10.07Z"/>
      <path class="cls-3" d="m3639.04,983.8c0,2.78-2.25,5.03-5.03,5.03s-5.03-2.25-5.03-5.03,2.25-5.03,5.03-5.03,5.03,2.25,5.03,5.03Z"/>
      <path class="cls-3" d="m3597.29,902.08c0,4.43-3.59,8.02-8.02,8.02s-8.02-3.59-8.02-8.02,3.59-8.02,8.02-8.02,8.02,3.59,8.02,8.02Z"/>
      <path class="cls-1" d="m3342.81,461.39s-12.52-12.84-26.61,0c16.28,13.15,26.61,0,26.61,0Z"/>
      <path class="cls-1" d="m3346.77,437.95s-3.04-17.67-21.92-15.09c5.95,20.06,21.92,15.09,21.92,15.09Z"/>
      <path class="cls-1" d="m3352.66,438.5s15.85-8.4,7.5-25.53c-17.21,11.91-7.5,25.53-7.5,25.53Z"/>
      <path class="cls-1" d="m3869.65,457.37s15.85-8.4,7.5-25.53c-17.21,11.91-7.5,25.53-7.5,25.53Z"/>
      <path class="cls-1" d="m3885.81,574.64s6.19-16.83-11.47-24.01c-4.85,20.36,11.47,24.01,11.47,24.01Z"/>
      <path class="cls-1" d="m3934.8,593.96s9.31,15.33,25.93,5.99c-12.9-16.48-25.93-5.99-25.93-5.99Z"/>
      <path class="cls-1" d="m3661.34,647.41s4.82,17.27,23.34,12.78c-7.97-19.35-23.34-12.78-23.34-12.78Z"/>
      <path class="cls-1" d="m3894.6,480.99s32.99,18.56,53.9-15.81c-40.78-16.96-53.9,15.81-53.9,15.81Z"/>
      <path class="cls-1" d="m3618.65,328.98s35.82-12.22,24.14-50.72c-39.83,19.1-24.14,50.72-24.14,50.72Z"/>
      <path class="cls-1" d="m3884.2,457.86s25.39,8.36,35.19-18.3c-30.57-6.19-35.19,18.3-35.19,18.3Z"/>
      <path class="cls-1" d="m3837.61,473.2s4.02-26.42-23.9-31.65c-1.02,31.17,23.9,31.65,23.9,31.65Z"/>
      <path class="cls-1" d="m3604.1,344.81s4.02-26.42-23.9-31.65c-1.02,31.17,23.9,31.65,23.9,31.65Z"/>
      <path class="cls-1" d="m3936.16,628.47s4.02-26.42-23.9-31.65c-1.02,31.17,23.9,31.65,23.9,31.65Z"/>
      <path class="cls-1" d="m3342.37,420.3s27.22-14.6,12.7-44.05c-29.53,20.67-12.7,44.05-12.7,44.05Z"/>
      <path class="cls-1" d="m3700.26,668.16s27.22-14.6,12.7-44.05c-29.53,20.67-12.7,44.05-12.7,44.05Z"/>
      <path class="cls-7" d="m3947.77,562.64c0,14.48-11.73,26.21-26.21,26.21s-26.21-11.73-26.21-26.21,11.73-26.21,26.21-26.21,26.21,11.73,26.21,26.21Z"/>
      <path class="cls-1" d="m3604.3,674.77c0,47.41-24.4,89.14-61.31,113.27-20.3-7-39.28-16.83-56.45-29.07-56.6-40.29-93.54-106.5-93.54-181.28,0-5.16.19-10.28.53-15.33,21.54-14.5,47.45-22.93,75.39-22.93,69.1,0,126.12,51.78,134.36,118.62.68,5.5,1.02,11.07,1.02,16.72Z"/>
      <path class="cls-1" d="m3746.01,757.7c-5.5,4.03-11.22,7.8-17.1,11.26-33.21,19.81-72.04,31.14-113.5,31.14-25.34,0-49.71-4.26-72.42-12.05-20.3-7-39.28-16.83-56.45-29.07,13.41-54.19,59.84-95.35,116.74-100.92,4.33-.41,8.74-.64,13.18-.64,35.93,0,68.54,14.16,92.56,37.21,17.66,16.95,30.69,38.64,36.98,63.08Z"/>
      <path class="cls-1" d="m3825.43,651.09c-15.1,43.16-43.12,80.25-79.42,106.61-5.5,4.03-11.22,7.8-17.1,11.26-13.93-13.86-22.56-33.06-22.56-54.27,0-6.93.94-13.67,2.67-20.07,8.81-32.54,38.52-56.45,73.85-56.45,15.74,0,30.39,4.78,42.55,12.92Z"/>
    </g>
    <circle class="cls-2" cx="3483.3" cy="637.97" r="49.12" transform="translate(21.01 1381.56) rotate(-22.5)"/>
    <path class="cls-2" d="m3552.05,730.11c0,11.45-9.28,20.73-20.73,20.73s-20.73-9.28-20.73-20.73,9.28-20.73,20.73-20.73,20.73,9.28,20.73,20.73Z"/>
  </g>
</svg>