<?xml version="1.0" encoding="UTF-8"?>
<svg id="Layer_3" data-name="Layer 3" xmlns="http://www.w3.org/2000/svg" viewBox="0 0 4023 1080">
  <defs>
    <style>
      .cls-1 {
        fill: #fafafa;
      }

      .cls-2 {
        fill: #e6f0ff;
      }

      .cls-3 {
        fill: #d2e1fa;
      }
    </style>
  </defs>
  <g>
    <path class="cls-2" d="m244.07,355.11c-24.7-33.73,24.09-99.01,82.67-53.11,0,0-88.36-164.77,101.02-183.28,169.74-16.59,101.85,192.07,101.85,192.07,15.22-21.61,78.65-25.78,84.28,29.43,0,0,13-90.29,78.38-90.29,90.13,0,86.34,119.95,86.34,119.95,0,0,50.01-59.11,80.75,13.4l153.63,20.1c-114.4,72.59-416.5,30.16-416.5,30.16-179.85,47.49-338.91-8.43-338.91-8.43-73.83,0-65.75-70-13.51-70Z"/>
    <path class="cls-3" d="m1013,403.38c-262.92,62.49-404.73,6.92-404.73,6.92,21.07-14.65,18.42-37.76,18.42-37.76-26.14,55.7-268.64,83.65-361.09,30.27,0,0-51.06,22.89-60.54-23.11-6.58,20.17,8.18,45.42,52.53,45.42,0,0,159.06,55.91,338.91,8.43,0,0,302.1,42.44,416.5-30.16Z"/>
    <g>
      <path class="cls-1" d="m299.32,352.45c72.37-6.82,27.43-50.45,27.43-50.45-44.9-35.18-84.01-5.05-88.72,26.13,8.09,15.61,28.91,27.37,61.3,24.32Z"/>
      <path class="cls-1" d="m705.12,352.93c29.23-.28,53.65-18.49,64.52-41.83-10.15-30.38-31.69-61.17-77.35-61.17-16.83,0-30.17,6.01-40.73,14.89h0c-34.34,35.34,2.79,88.6,53.56,88.11Z"/>
      <path class="cls-1" d="m475.51,196.72c47.74,24.12,17.05,139.81,17.05,139.81,0,0,21.98-5.86,37.07-25.75,0,0,67.89-208.66-101.85-192.07-118.65,11.6-128.28,80.59-118.92,130.52,16.12,30.95,50.9,51.8,98.46,44.86,103.82-15.16,68.2-97.38,68.2-97.38Z"/>
      <path class="cls-1" d="m244.07,355.11c-17.12,0-29.46,7.54-35.76,17.65.12,16.31,17.56,31.09,49.45,17.33,49.76-21.47-13.69-34.98-13.69-34.98Z"/>
      <path class="cls-1" d="m468.18,343.61c15.16-37.89-57.59-38.39-79.82-13.14,0,0-23.74-17.18-32.33,13.13,0,0-43.45,21.22-22.73,37.38,25.01,19.52,67.7,0,67.7,0,51.55,20.67,97.5-5.67,67.19-37.38Z"/>
      <path class="cls-1" d="m613.9,340.22c-4.91-48.15-53.76-51.13-76.28-36.78-2.51,22.05-34.46,54.7-34.46,54.7,17.43,27.28,107.81,14.57,110.74-17.91Z"/>
      <path class="cls-1" d="m818.4,394.5c30.69,8.71,40.96-11.23,40.96-11.23-21.29-50.22-51.82-37.3-68.58-24.61-2.93,15.52,6.7,29.9,27.61,35.84Z"/>
      <path class="cls-1" d="m661.92,391.35c20.21-28.8,76.92-13.13,76.92-13.13,9.72-17.43,39.04-4.29,39.03,10.99,0,0,1.52,21.98-35.24,11.75-38.69,8.59-80.7-9.6-80.7-9.6Z"/>
    </g>
  </g>
  <g>
    <g>
      <path class="cls-2" d="m1293.51,308.61c95.37,43.84,565.15,31.56,565.15,6.14,5.12-56.28-49.38-55.04-58.2-44.86,3.61-67-57.66-62.83-76.56-48.08-3.68-76.57-37.52-87.95-60.45-87.86-60.65.22-58.84,81.61-58.84,81.61-40.37-41.62-88.1-14.21-82.98,33.32-35.83-24.58-47.22,20.25-47.22,20.25-40.01-10.64-180.15,25.06-180.9,39.48Z"/>
      <path class="cls-3" d="m1858.66,314.75c.9-9.89-.07-17.97-2.28-24.57,5.52,45.9-236.31,35.26-236.31,35.26,0,0,18.62-5.32,32.33-24.76-54.63,32.33-226.16,21.42-358.88,7.93,95.37,43.84,565.15,31.56,565.15,6.14Z"/>
      <g>
        <path class="cls-1" d="m1555.62,296.41c62.61,7.98,95.75-17.8,95.75-17.8,32.84,14.42,55.55-9.51,53.09-21.48-2.54-12.4-36.21-29.77-54.32-7.37,0,0-21.34-26.7-57.08-11.91-27.89,11.54-21.48,36.16-21.48,36.16-28.23-.92-15.96,22.4-15.96,22.4Z"/>
        <path class="cls-1" d="m1617.81,160.52c11.4,24.77,53.06,45.45,93.64,4.01-12.82-25.65-32.8-30.64-48-30.59-23.09.08-37.11,11.94-45.64,26.58Z"/>
        <path class="cls-1" d="m1521.91,233.27c14.79,25.51,71.59,8.98,68.97-29.11-31.87-20.7-64.1-3.5-68.97,29.11Z"/>
        <path class="cls-1" d="m1651.98,227.67c-33.45-8.59-36.83-15.04-25.78-24.55,11.05-9.51,30.38,9.21,30.38,9.21,20.25-16.27,44.81-11.36,44.81-1.23s-49.41,16.57-49.41,16.57Z"/>
        <path class="cls-1" d="m1734.26,216.34c-13.84,46.31,48.77,93.57,66.2,53.55,3.09-57.46-41.51-62.56-66.2-53.55Z"/>
        <path class="cls-1" d="m1809.27,265.5c1.72,18.83,30.57,38.46,45.08,19.67-9.64-19.63-32-22.8-45.08-19.67Z"/>
        <path class="cls-1" d="m1474.41,269.13c-28.09-7.47-105.46,7.89-149.37,22.7,41.41,14.97,130.77,26.15,196.87,10.1,54.35-13.2-5.88-26.09-17.85-15.8-1.84-14.89-29.65-17-29.65-17Z"/>
        <path class="cls-1" d="m1511.84,272.68s16.16,11.87,31.1,4.91c14.94-6.96-2.25-21.48-9.82-15.96,0,0-2.66-5.11-11.49-12.75-25.06-17.19-38.15-.44-43.76,11.19,5.07,9.89,24.11,13.75,33.97,12.61Z"/>
        <path class="cls-1" d="m1723.18,302.75c37.15,0,23.32-28.44.92-17.79-22.71-14.33-27.52,17.79-.92,17.79Z"/>
        <ellipse class="cls-1" cx="1724.92" cy="266.13" rx="10.33" ry="6.34"/>
        <path class="cls-1" d="m1717.3,227.98c-4-2.07-8.72-1.14-11.37,1.99-.73-.61-1.54-1.17-2.46-1.65-4.53-2.35-9.42-1.9-10.92.99-1.5,2.9.95,7.15,5.49,9.5,2.54,1.32,5.18,1.73,7.29,1.34.89,1.45,2.17,2.71,3.82,3.56,4.61,2.39,10.16.8,12.42-3.55,2.25-4.35.34-9.8-4.26-12.19Z"/>
      </g>
      <g>
        <ellipse class="cls-1" cx="1448" cy="210.96" rx="7.77" ry="4.77"/>
        <path class="cls-1" d="m1432.62,179.21c-5.64-.53-10.69,2.78-12.3,7.67-1.14-.36-2.35-.64-3.64-.77-6.38-.6-11.87,2.22-12.25,6.3-.39,4.08,4.48,7.88,10.86,8.48,3.58.34,6.84-.43,9.12-1.86,1.72,1.27,3.81,2.13,6.13,2.35,6.49.61,12.21-3.85,12.79-9.97s-4.21-11.58-10.7-12.19Z"/>
        <ellipse class="cls-1" cx="1806.45" cy="188.18" rx="19.03" ry="8.8"/>
      </g>
    </g>
    <g>
      <path class="cls-2" d="m1225.64,313.33c-51.88,11.5-142.46,0-142.46,0,47.93-17.96,76.51-11.45,76.51-11.45,12.75-23.66,28.92-26.93,44.41-23.08,21.54,5.35,21.54,34.52,21.54,34.52Z"/>
      <path class="cls-3" d="m1225.64,313.33c-3.3-12.01-142.46,0-142.46,0,0,0,90.58,11.5,142.46,0Z"/>
      <path class="cls-1" d="m1204.09,278.81c-11.75-2.92-23.89-1.72-34.64,9.35-.58,7.46,10.68,12.23,24.85,10.91,16.73-1.56,24.61-2.04,29.5,1.84-2.33-8.63-7.64-19.1-19.71-22.1Z"/>
    </g>
  </g>
  <g>
    <path class="cls-2" d="m2072.17,407.5c-.59,17.03,539.7,24.55,540.37,5.49-20.56-26.36-73.47-42.96-91.9-38.27,0,0,16.63-52.09-35.1-71.71-47.79-18.13-69.78,35.04-66.6,48.02,0,0-6.23-20.18-24.06-11.75,0,0-17.59-28.08-43.4-5.12,0,0,3.19-87.22-58.14-89.36-61.33-2.14-66.84,67.01-59.2,82.77,0,0-41.4-8.48-27.57,38.26,0,0-25.57-5.55-18.55,21.19l-115.85,20.48Z"/>
    <path class="cls-3" d="m2612.54,412.99c-2.43-3.12-5.33-6.1-8.56-8.92-27.62-12.89-64.83-15.23-108.7-8.04-50.08,8.21-124.13,1.47-146.25-6.77-22.12-8.24-201.04,25.97-276.86,18.24-.59,17.03,539.7,24.55,540.37,5.49Z"/>
    <g>
      <path class="cls-1" d="m2349.03,389.26c21.65-2.15,12.88-24.24-4.24-21.1,0,0-8.7-24.3-48.29-23.47-39.59.83-31.96,27.93-31.96,27.93-15.52-7.18-57.69,18.81-54.25,27.89,64.98-7.18,126.37-15.85,138.74-11.24Z"/>
      <path class="cls-1" d="m2255.53,297.89s9.59,26.62,49.63,12.8c28.51-9.84,40.45-3.14,44.97,1.53-3.46-25.99-15.49-65.97-56.78-67.41-32.81-1.15-49.63,18.11-57.02,38.68,6.79,8.08,24.46,7.22,42.78-2.75,0,0-2.65,12.36-23.56,17.16Z"/>
      <path class="cls-1" d="m2469,340.32c29.53-1.86,48.91,16.44,51.63,34.4,0,0,16.63-52.09-35.1-71.71-18.63-7.07-33.32-3.28-44.14,4.72-7.96,17.46,5.75,33.97,27.61,32.6Z"/>
      <path class="cls-1" d="m2376.68,346.04c16.11,8.03,18.86.66,18.19-6.76,0,0-12.2-19.45-31.19-12.7-.96,6.09,2.79,14.37,13,19.46Z"/>
      <path class="cls-1" d="m2418.94,351.03s-4.74-15.34-17.78-13.67c-2.98,9.03,18.95,21.53,17.78,13.67Z"/>
      <path class="cls-1" d="m2459.22,390.76c29.07.75,49.85-9.31,49.85-9.31-8.57-23.83-29.32-24-35.78-21.19,0,0-5.68-11.55-20.39-10.26-14.71,1.29-11.98,18.33-11.98,18.33-14.05-1.66-23.85,9.61-20.15,14.45,3.7,4.83,22.65,7.57,38.45,7.98Z"/>
      <ellipse class="cls-1" cx="2395.26" cy="390.22" rx="6.67" ry="14.72" transform="translate(1921.68 2770.41) rotate(-88)"/>
      <path class="cls-1" d="m2234.14,327.57s-31.81-6.51-30.34,23.37c12.52,26.68,42.3-15.24,30.34-23.37Z"/>
      <path class="cls-1" d="m2271.84,323.91c-5.76-.2-10.59,4.06-10.78,9.51,0,.14.03.26.03.4-1-.5-2.15-.83-3.4-.87-3.93-.14-7.21,2.36-7.32,5.58s2.98,5.94,6.91,6.07c3.18.11,5.9-1.51,6.89-3.83,1.8,1.7,4.24,2.8,6.97,2.9,5.76.2,10.59-4.06,10.78-9.51.19-5.45-4.33-10.04-10.09-10.24Z"/>
      <path class="cls-1" d="m2319.13,338.42c12.47,3.48,29.31,22.19,29.31,22.19,11.77-2.08,21.46,9.46,21.46,9.46,8.59-4.4,1.31-24.8-13.13-20.24,0,0,4.46-7.7-9.85-15.28-19.55-10.37-27.79,3.87-27.79,3.87Z"/>
    </g>
    <g>
      <path class="cls-1" d="m2248.07,307.61c-56.57,9.64-118.6,3.52-118.6,3.52,26.27-3.63,69.96-7.09,69.96-7.09,1.93-15.56,15.8-20.75,27.16-17.31,7.2,2.18,10.77,12.55,10.77,12.55,7.74-3.74,10.71,8.33,10.71,8.33Z"/>
      <path class="cls-1" d="m2376.77,295.49c17.11,6.36,31.84,2.66,31.84,2.66,1.73-5.09-14.02-10.21-18.03-5.9,0,0-3.33-8.55-10.09-6.21-6.76,2.34-3.73,9.44-3.73,9.44Z"/>
    </g>
  </g>
  <g>
    <path class="cls-2" d="m3190.65,338.02c-2.65-101.1,110.72-75.78,110.72-75.78,0,0-6.56-74.06,75.38-58.7,0,0-19.02-102.12,72.44-111.08,98.24-9.63,95.47,103.48,95.47,103.48,52.74-43.82,144.46-2.33,128.88,81.49,20.53-26.33,66.5-13.2,65.12,33.12,10-12.12,41.83.69,34.57,25.23,28.32-24.43,73.05,22.82,182.77,22.82,0,0-78.84,48.85-327.24,25.02,0,0-117.75,45.35-242.86,2.02,0,0-254.94,47.48-257.77-13.36-1.4-30.15,62.52-34.27,62.52-34.27Z"/>
    <path class="cls-3" d="m3641.18,364.82c23.04-20.97,23.04-42.17,23.04-42.17-40.1,58.53-232.29,98.17-293.82,16.36,0,0,.69,13.83,11.29,27.54,0,0-281.96,54.6-239.38-15.74-8.53,5.02-14.63,11.95-14.18,21.48,2.82,60.84,257.77,13.36,257.77,13.36,125.11,43.33,242.86-2.02,242.86-2.02,248.4,23.83,327.24-25.02,327.24-25.02-137.84,42.86-314.82,6.22-314.82,6.22Z"/>
    <g>
      <path class="cls-1" d="m3737.27,295.57c-5.67-24.82-27.52-35.46-45.93-30.24-11.02,18.57,44.38,58.85,45.93,30.24Z"/>
      <path class="cls-1" d="m3773.23,335.78c5.71-19.31-12.76-31.35-25.77-29.71-7.19,16.1,18.43,50.95,25.77,29.71Z"/>
      <path class="cls-1" d="m3604.06,305.89c0,43.98-156.45,61.52-196.43,12.98-34.25-41.59,25.17-58.72,39.15-28.72,26.56-31.75,92.97-32.56,103.46,0,0,0,53.83-14.45,53.83,15.73Z"/>
      <path class="cls-1" d="m3604.06,264.03s70.11,26.9,66.29-33.82c-14.42-39.47-57.9-59.33-96.04-49.47-26.51,25.63-4.13,77.6,64.56,64.01,0,0-4.18,13.67-34.81,19.28Z"/>
      <path class="cls-1" d="m3356.83,201.47c-60.87-.6-55.46,60.77-55.46,60.77,3.11,51.8,118.88-39,55.46-60.77Z"/>
      <path class="cls-1" d="m3390.43,221.73c11.39-15.67,23.63-12.41,44.18-7.48,5.75-11.77,32.88-17.78,46.04-4.93,7.21,7.04,42.75,6.99,23.84,22.61-18.91,15.62-61.25,17.68-61.25,17.68-28.77,13.15-67.8-7.23-52.81-27.87Z"/>
      <path class="cls-1" d="m3489.54,174.93c16.28,1.21,39.87-24.53,45.17-9.85,5.3,14.68,12.67,34.27-9.22,28.74s-26.27,5.14-35.95.96-21.66-21.47,0-19.85Z"/>
      <path class="cls-1" d="m3523.84,122.72c-13.78-19.35-36.66-33.99-74.65-30.27-65.43,6.41-74.31,60.5-74.07,90.77,5.66,9.63,18.72,12.61,41.15,6.23,59.92-17.05,46.04-28.9,84.34-40.56,7.76-2.36,17.92-14.52,23.24-26.17Z"/>
      <path class="cls-1" d="m3313.48,336.01c8.3-14.29-41.71-42.63-41.71-42.63,18.67-7.84,19.78-23.54,16.01-33.16-30.02-3.02-99.2-1.44-97.13,77.8,11.76,15.97,114.54,12.28,122.83-2.01Z"/>
      <path class="cls-1" d="m3341.83,312.52c24.99,15.74,50.81,3.38,44.25-5.23s-26.27-31.23-39.06-25.96c-12.79,5.26-14.52,25.31-5.19,31.19Z"/>
      <path class="cls-1" d="m3527.73,244.25c4.05-13.56,21.25-4.64,21.25-4.64,9.94-11.68,40.49,14.72,18.74,20.09-25.65,6.33-42.46-7.16-39.98-15.45Z"/>
    </g>
    <g>
      <path class="cls-1" d="m3750.79,216.82c6.13,12.26,35.64,12.49,40.31,2.53,4.68-9.96-12.93-12.44-12.93-12.44-8.81-18.99-33.85-3.03-27.38,9.91Z"/>
      <path class="cls-1" d="m3185.39,196.78c18.46,10.46,67.11,4.08,67.11-2.37,0-11.14-17.89-16.04-24.32-4.4-20.22-7.91-43.49,6.73-42.79,6.76Z"/>
      <ellipse class="cls-1" cx="3262.43" cy="156.72" rx="9.92" ry="7.6"/>
    </g>
  </g>
</svg>