<svg id="Layer_1" data-name="Layer 1" xmlns="http://www.w3.org/2000/svg" viewBox="0 0 492 492"><defs><style>.cls-1{fill:#2c2c2c;}.cls-2{fill:#848484;}.cls-3{fill:#cecece;}.cls-4{fill:#bcbcbc;}.cls-5{fill:#9595aa;}.cls-10,.cls-11,.cls-12,.cls-16,.cls-5,.cls-6,.cls-7,.cls-8,.cls-9{fill-rule:evenodd;}.cls-6{fill:#727282;}.cls-7{fill:#5e5e5e;}.cls-8{fill:#969696;}.cls-9{fill:#d3d3d3;}.cls-10{fill:#7c7c8e;}.cls-11{fill:#fff;}.cls-12{fill:#757575;}.cls-13{fill:#464748;}.cls-14{fill:#f3ffff;}.cls-15{fill:#424242;}.cls-16{fill:#494949;}.cls-17{fill:#565656;}.cls-18{fill:#ff8327;}</style></defs><rect class="cls-1" x="304.19" y="243.63" width="22.93" height="12.82"/><rect class="cls-2" x="166.2" y="169.18" width="43.82" height="14.09"/><path class="cls-3" d="M106.42,176.5H269.79a44,44,0,0,1,43.88,43.88v9.67a44,44,0,0,1-43.88,43.88H106.42a44,44,0,0,1-43.88-43.88v-9.67a44,44,0,0,1,43.88-43.88Z"/><path class="cls-4" d="M106.42,176.5h81.69v97.43H106.42a44,44,0,0,1-43.88-43.88v-9.67a44,44,0,0,1,43.88-43.88Z"/><path class="cls-5" d="M101.4,303.33H96.7a5.78,5.78,0,0,1-1.09-11.46v-.5h0V272a5.77,5.77,0,0,1,5.78-5.77H298.49a5.77,5.77,0,0,1,5.78,5.77v19.66l11.44,0,11.56,0h1.36v0l0,0-.18.4h0c-.06.13-.12.26-.17.4l0,0h0c-.06.13-.12.27-.17.4v0l0,0-.33.82V294l-.15.4v0l-.15.41v0l-.15.42v0l-.15.44h0l-.14.44v0c0,.14-.09.28-.13.42v0l-.13.42v0l0,.07-.1.36v.07l-.11.39v.05l-.1.4v.07l-.09.38,0,0v0l-.08.37v.08l-.09.44h0v0l-.08.4,0,.09-.07.36,0,.12-.07.36v.09l-.07.39v0h0v.05l-.06.38v.08l-.06.42v0l0,.29,0,.11v0l-22.76.06v0H276.75v0l-58.87.05v.08C175.79,303.36,137.45,303.33,101.4,303.33Z"/><path class="cls-6" d="M304.93,303.19h-2.3v0H276.75v0l-38.66,0a33.87,33.87,0,0,1,66.84-.05Z"/><path class="cls-6" d="M235.65,303.25H217.88v.08H168.79a33.87,33.87,0,0,1,66.86-.1Z"/><path class="cls-6" d="M101.4,303.33H99.51a33.86,33.86,0,0,1,66.87,0Z"/><path class="cls-7" d="M430.61,303.11a5.62,5.62,0,0,0,.57-2.49,5.77,5.77,0,0,0-5.55-5.77h-3.11V260.21c0-10-4.09-15.14-8.66-17.81v-.08a52.6,52.6,0,0,0-52.47-52.47H330.17a8.77,8.77,0,0,0-6.22,2.58h0a8.79,8.79,0,0,0-2.59,6.21V303.12Z"/><path class="cls-8" d="M339.7,303.12h66.8a33.86,33.86,0,0,0-66.8,0Z"/><path class="cls-9" d="M398.35,246.67H331.23V205.13a8.77,8.77,0,0,1,8.39-8.39h23a35.59,35.59,0,0,1,25.2,10.48c6.7,6.69,10.42,27.17,10.47,36.55Z"/><path class="cls-5" d="M430.61,303.11a5.62,5.62,0,0,0,.57-2.49,5.77,5.77,0,0,0-5.55-5.77h-3.11v-3.1H312.27v11.38Z"/><path class="cls-10" d="M402.41,291.74H343.79a33.62,33.62,0,0,0-4.09,11.38h66.8A33.83,33.83,0,0,0,402.41,291.74Z"/><path class="cls-11" d="M395.44,243.79c-.05-8.95-3.72-28.63-9.62-34.53a32.7,32.7,0,0,0-23.16-9.63h-23a5.9,5.9,0,0,0-5.5,5.5v38.66Z"/><path class="cls-12" d="M160.51,303.35l-55.14,0a28.09,28.09,0,0,1,55.14,0Z"/><path class="cls-13" d="M113.08,288.85a28.09,28.09,0,1,1-8.22,19.86A28,28,0,0,1,113.08,288.85Z"/><path class="cls-14" d="M118.9,294.66a19.86,19.86,0,1,1-5.82,14A19.8,19.8,0,0,1,118.9,294.66Z"/><path class="cls-15" d="M125.4,301.17a10.66,10.66,0,1,1-3.12,7.54A10.63,10.63,0,0,1,125.4,301.17Z"/><path class="cls-12" d="M400.67,303.35l-55.14,0a28.09,28.09,0,0,1,55.14,0Z"/><path class="cls-15" d="M353.24,288.85A28.09,28.09,0,1,1,345,308.71,28,28,0,0,1,353.24,288.85Z"/><path class="cls-14" d="M359.06,294.66a19.86,19.86,0,1,1-5.82,14A19.8,19.8,0,0,1,359.06,294.66Z"/><path class="cls-13" d="M365.56,301.17a10.66,10.66,0,1,1-3.12,7.54A10.63,10.63,0,0,1,365.56,301.17Z"/><path class="cls-16" d="M336.45,252.93h10.6a2.11,2.11,0,0,1,2.1,2.11h0a2.11,2.11,0,0,1-2.1,2.11h-10.6a2.11,2.11,0,0,1-2.1-2.11h0A2.11,2.11,0,0,1,336.45,252.93Z"/><path class="cls-17" d="M161.26,166.29a2.89,2.89,0,0,0,0,5.78H215a2.89,2.89,0,1,0,0-5.78Z"/><path class="cls-12" d="M229.8,303.35l-55.14,0a28.09,28.09,0,0,1,55.14,0Z"/><path class="cls-15" d="M204.26,336.72a28.1,28.1,0,1,1,19.21-9.65A28,28,0,0,1,204.26,336.72Z"/><path class="cls-14" d="M188.19,294.66a19.86,19.86,0,1,1-5.82,14A19.8,19.8,0,0,1,188.19,294.66Z"/><path class="cls-13" d="M194.69,301.17a10.66,10.66,0,1,1-3.12,7.54A10.62,10.62,0,0,1,194.69,301.17Z"/><path class="cls-12" d="M299.09,303.35l-55.14,0a28.09,28.09,0,0,1,55.14,0Z"/><path class="cls-15" d="M251.66,288.85a28.07,28.07,0,1,1-8.23,19.86A28,28,0,0,1,251.66,288.85Z"/><path class="cls-14" d="M257.47,294.66a19.88,19.88,0,1,1-5.81,14A19.82,19.82,0,0,1,257.47,294.66Z"/><path class="cls-13" d="M264,301.17a10.66,10.66,0,1,1-3.12,7.54A10.62,10.62,0,0,1,264,301.17Z"/><rect class="cls-18" x="74.33" y="230.6" width="226.33" height="6.77"/></svg>