<?xml version="1.0" encoding="UTF-8"?>
<svg id="clouds_back" data-name="clouds back" xmlns="http://www.w3.org/2000/svg" viewBox="0 0 4023 1080">
  <defs>
    <style>
      .cls-1 {
        fill: #fafafa;
      }

      .cls-2 {
        fill: #e6f0ff;
      }

      .cls-3 {
        fill: #d2e1fa;
      }
    </style>
  </defs>
  <g>
    <path class="cls-2" d="m2314.06,184.51c-17.38-23.74,16.95-69.67,58.18-37.37,0,0-62.18-115.95,71.09-128.98,119.45-11.67,71.68,135.16,71.68,135.16,10.71-15.21,55.34-18.14,59.31,20.71,0,0,9.15-63.54,55.16-63.54,63.42,0,60.76,84.41,60.76,84.41,0,0,35.19-41.59,56.82,9.43l108.11,14.15c-80.5,51.08-293.09,21.22-293.09,21.22-126.56,33.42-238.49-5.93-238.49-5.93-51.96,0-46.27-49.26-9.51-49.26Z"/>
    <path class="cls-3" d="m2855.16,218.48c-185.02,43.97-284.81,4.87-284.81,4.87,14.83-10.31,12.96-26.57,12.96-26.57-18.4,39.19-189.04,58.86-254.1,21.3,0,0-35.93,16.11-42.6-16.26-4.63,14.19,5.76,31.96,36.97,31.96,0,0,111.93,39.35,238.49,5.93,0,0,212.59,29.86,293.09-21.22Z"/>
    <g>
      <path class="cls-1" d="m2352.94,182.64c50.93-4.8,19.3-35.5,19.3-35.5-31.6-24.76-59.11-3.55-62.43,18.39,5.7,10.98,20.34,19.26,43.13,17.11Z"/>
      <path class="cls-1" d="m2638.5,182.98c20.57-.2,37.76-13.01,45.4-29.44-7.15-21.38-22.3-43.05-54.43-43.05-11.84,0-21.23,4.23-28.66,10.48h0c-24.17,24.87,1.96,62.35,37.69,62Z"/>
      <path class="cls-1" d="m2476.92,73.05c33.6,16.98,12,98.39,12,98.39,0,0,15.46-4.12,26.08-18.12,0,0,47.77-146.83-71.68-135.16-83.49,8.16-90.27,56.71-83.69,91.85,11.35,21.78,35.82,36.45,69.29,31.57,73.06-10.67,47.99-68.52,47.99-68.52Z"/>
      <path class="cls-1" d="m2314.06,184.51c-12.05,0-20.73,5.3-25.16,12.42.08,11.48,12.35,21.88,34.8,12.2,35.02-15.11-9.64-24.61-9.64-24.61Z"/>
      <path class="cls-1" d="m2471.77,176.42c10.67-26.66-40.53-27.02-56.17-9.24,0,0-16.71-12.09-22.75,9.24,0,0-30.57,14.93-16,26.31,17.6,13.74,47.64,0,47.64,0,36.27,14.55,68.61-3.99,47.28-26.31Z"/>
      <path class="cls-1" d="m2574.31,174.03c-3.46-33.88-37.83-35.98-53.68-25.88-1.76,15.52-24.25,38.49-24.25,38.49,12.26,19.2,75.87,10.25,77.93-12.6Z"/>
      <path class="cls-1" d="m2718.22,212.23c21.6,6.13,28.83-7.9,28.83-7.9-14.98-35.34-36.46-26.24-48.26-17.32-2.06,10.92,4.71,21.04,19.43,25.22Z"/>
      <path class="cls-1" d="m2608.1,210.01c14.22-20.26,54.13-9.24,54.13-9.24,6.84-12.26,27.47-3.02,27.46,7.73,0,0,1.07,15.46-24.8,8.27-27.23,6.04-56.79-6.75-56.79-6.75Z"/>
    </g>
  </g>
  <g>
    <g>
      <path class="cls-2" d="m236.51,196.11c95.37,43.84,565.15,31.56,565.15,6.14,5.12-56.28-49.38-55.04-58.2-44.86,3.61-67-57.66-62.83-76.56-48.08-3.68-76.57-37.52-87.95-60.45-87.86-60.65.22-58.84,81.61-58.84,81.61-40.37-41.62-88.1-14.21-82.98,33.32-35.83-24.58-47.22,20.25-47.22,20.25-40.01-10.64-180.15,25.06-180.9,39.48Z"/>
      <path class="cls-3" d="m801.66,202.25c.9-9.89-.07-17.97-2.28-24.57,5.52,45.9-236.31,35.26-236.31,35.26,0,0,18.62-5.32,32.33-24.76-54.63,32.33-226.16,21.42-358.88,7.93,95.37,43.84,565.15,31.56,565.15,6.14Z"/>
      <g>
        <path class="cls-1" d="m498.62,183.91c62.61,7.98,95.75-17.8,95.75-17.8,32.84,14.42,55.55-9.51,53.09-21.48-2.54-12.4-36.21-29.77-54.32-7.37,0,0-21.34-26.7-57.08-11.91-27.89,11.54-21.48,36.16-21.48,36.16-28.23-.92-15.96,22.4-15.96,22.4Z"/>
        <path class="cls-1" d="m560.81,48.02c11.4,24.77,53.06,45.45,93.64,4.01-12.82-25.65-32.8-30.64-48-30.59-23.09.08-37.11,11.94-45.64,26.58Z"/>
        <path class="cls-1" d="m464.91,120.77c14.79,25.51,71.59,8.98,68.97-29.11-31.87-20.7-64.1-3.5-68.97,29.11Z"/>
        <path class="cls-1" d="m594.98,115.17c-33.45-8.59-36.83-15.04-25.78-24.55s30.38,9.21,30.38,9.21c20.25-16.27,44.81-11.36,44.81-1.23s-49.41,16.57-49.41,16.57Z"/>
        <path class="cls-1" d="m677.26,103.84c-13.84,46.31,48.77,93.57,66.2,53.55,3.09-57.46-41.51-62.56-66.2-53.55Z"/>
        <path class="cls-1" d="m752.27,153c1.72,18.83,30.57,38.46,45.08,19.67-9.64-19.63-32-22.8-45.08-19.67Z"/>
        <path class="cls-1" d="m417.41,156.63c-28.09-7.47-105.46,7.89-149.37,22.7,41.41,14.97,130.77,26.15,196.87,10.1,54.35-13.2-5.88-26.09-17.85-15.8-1.84-14.89-29.65-17-29.65-17Z"/>
        <path class="cls-1" d="m454.84,160.18s16.16,11.87,31.1,4.91c14.94-6.96-2.25-21.48-9.82-15.96,0,0-2.66-5.11-11.49-12.75-25.06-17.19-38.15-.44-43.76,11.19,5.07,9.89,24.11,13.75,33.97,12.61Z"/>
        <path class="cls-1" d="m666.18,190.25c37.15,0,23.32-28.44.92-17.79-22.71-14.33-27.52,17.79-.92,17.79Z"/>
        <ellipse class="cls-1" cx="667.92" cy="153.63" rx="10.33" ry="6.34"/>
        <path class="cls-1" d="m660.3,115.48c-4-2.07-8.72-1.14-11.37,1.99-.73-.61-1.54-1.17-2.46-1.65-4.53-2.35-9.42-1.9-10.92.99-1.5,2.9.95,7.15,5.49,9.5,2.54,1.32,5.18,1.73,7.29,1.34.89,1.45,2.17,2.71,3.82,3.56,4.61,2.39,10.16.8,12.42-3.55,2.25-4.35.34-9.8-4.26-12.19Z"/>
      </g>
      <g>
        <ellipse class="cls-1" cx="391" cy="98.46" rx="7.77" ry="4.77"/>
        <path class="cls-1" d="m375.62,66.71c-5.64-.53-10.69,2.78-12.3,7.67-1.14-.36-2.35-.64-3.64-.77-6.38-.6-11.87,2.22-12.25,6.3-.39,4.08,4.48,7.88,10.86,8.48,3.58.34,6.84-.43,9.12-1.86,1.72,1.27,3.81,2.13,6.13,2.35,6.49.61,12.21-3.85,12.79-9.97s-4.21-11.58-10.7-12.19Z"/>
        <ellipse class="cls-1" cx="749.45" cy="75.68" rx="19.03" ry="8.8"/>
      </g>
    </g>
    <g>
      <path class="cls-2" d="m168.64,200.83c-51.88,11.5-142.46,0-142.46,0,47.93-17.96,76.51-11.45,76.51-11.45,12.75-23.66,28.92-26.93,44.41-23.08,21.54,5.35,21.54,34.52,21.54,34.52Z"/>
      <path class="cls-3" d="m168.64,200.83c-3.3-12.01-142.46,0-142.46,0,0,0,90.58,11.5,142.46,0Z"/>
      <path class="cls-1" d="m147.09,166.31c-11.75-2.92-23.89-1.72-34.64,9.35-.58,7.46,10.68,12.23,24.85,10.91,16.73-1.56,24.61-2.04,29.5,1.84-2.33-8.63-7.64-19.1-19.71-22.1Z"/>
    </g>
  </g>
  <g>
    <path class="cls-2" d="m1215.17,209c-.59,17.03,539.7,24.55,540.37,5.49-20.56-26.36-73.47-42.96-91.9-38.27,0,0,16.63-52.09-35.1-71.71-47.79-18.13-69.78,35.04-66.6,48.02,0,0-6.23-20.18-24.06-11.75,0,0-17.59-28.08-43.4-5.12,0,0,3.19-87.22-58.14-89.36-61.33-2.14-66.84,67.01-59.2,82.77,0,0-41.4-8.48-27.57,38.26,0,0-25.57-5.55-18.55,21.19l-115.85,20.48Z"/>
    <path class="cls-3" d="m1755.54,214.49c-2.43-3.12-5.33-6.1-8.56-8.92-27.62-12.89-64.83-15.23-108.7-8.04-50.08,8.21-124.13,1.47-146.25-6.77-22.12-8.24-201.04,25.97-276.86,18.24-.59,17.03,539.7,24.55,540.37,5.49Z"/>
    <g>
      <path class="cls-1" d="m1492.03,190.76c21.65-2.15,12.88-24.24-4.24-21.1,0,0-8.7-24.3-48.29-23.47-39.59.83-31.96,27.93-31.96,27.93-15.52-7.18-57.69,18.81-54.25,27.89,64.98-7.18,126.37-15.85,138.74-11.24Z"/>
      <path class="cls-1" d="m1398.53,99.39s9.59,26.62,49.63,12.8c28.51-9.84,40.45-3.14,44.97,1.53-3.46-25.99-15.49-65.97-56.78-67.41-32.81-1.15-49.63,18.11-57.02,38.68,6.79,8.08,24.46,7.22,42.78-2.75,0,0-2.65,12.36-23.56,17.16Z"/>
      <path class="cls-1" d="m1612,141.82c29.53-1.86,48.91,16.44,51.63,34.4,0,0,16.63-52.09-35.1-71.71-18.63-7.07-33.32-3.28-44.14,4.72-7.96,17.46,5.75,33.97,27.61,32.6Z"/>
      <path class="cls-1" d="m1519.68,147.54c16.11,8.03,18.86.66,18.19-6.76,0,0-12.2-19.45-31.19-12.7-.96,6.09,2.79,14.37,13,19.46Z"/>
      <path class="cls-1" d="m1561.94,152.53s-4.74-15.34-17.78-13.67c-2.98,9.03,18.95,21.53,17.78,13.67Z"/>
      <path class="cls-1" d="m1602.22,192.26c29.07.75,49.85-9.31,49.85-9.31-8.57-23.83-29.32-24-35.78-21.19,0,0-5.68-11.55-20.39-10.26-14.71,1.29-11.98,18.33-11.98,18.33-14.05-1.66-23.85,9.61-20.15,14.45,3.7,4.83,22.65,7.57,38.45,7.98Z"/>
      <ellipse class="cls-1" cx="1538.26" cy="191.72" rx="6.67" ry="14.72" transform="translate(1292.97 1722.36) rotate(-88)"/>
      <path class="cls-1" d="m1377.14,129.07s-31.81-6.51-30.34,23.37c12.52,26.68,42.3-15.24,30.34-23.37Z"/>
      <path class="cls-1" d="m1414.84,125.41c-5.76-.2-10.59,4.06-10.78,9.51,0,.14.03.26.03.4-1-.5-2.15-.83-3.4-.87-3.93-.14-7.21,2.36-7.32,5.58-.11,3.22,2.98,5.94,6.91,6.07,3.18.11,5.9-1.51,6.89-3.83,1.8,1.7,4.24,2.8,6.97,2.9,5.76.2,10.59-4.06,10.78-9.51.19-5.45-4.33-10.04-10.09-10.24Z"/>
      <path class="cls-1" d="m1462.13,139.92c12.47,3.48,29.31,22.19,29.31,22.19,11.77-2.08,21.46,9.46,21.46,9.46,8.59-4.4,1.31-24.8-13.13-20.24,0,0,4.46-7.7-9.85-15.28-19.55-10.37-27.79,3.87-27.79,3.87Z"/>
    </g>
    <g>
      <path class="cls-1" d="m1391.07,109.11c-56.57,9.64-118.6,3.52-118.6,3.52,26.27-3.63,69.96-7.09,69.96-7.09,1.93-15.56,15.8-20.75,27.16-17.31,7.2,2.18,10.77,12.55,10.77,12.55,7.74-3.74,10.71,8.33,10.71,8.33Z"/>
      <path class="cls-1" d="m1519.77,96.99c17.11,6.36,31.84,2.66,31.84,2.66,1.73-5.09-14.02-10.21-18.03-5.9,0,0-3.33-8.55-10.09-6.21s-3.73,9.44-3.73,9.44Z"/>
    </g>
  </g>
  <g>
    <path class="cls-2" d="m3446.89,181.86c-1.56-59.46,65.12-44.57,65.12-44.57,0,0-3.86-43.55,44.33-34.52,0,0-11.19-60.06,42.6-65.33,57.78-5.66,56.15,60.86,56.15,60.86,31.02-25.77,84.96-1.37,75.8,47.93,12.07-15.49,39.11-7.76,38.3,19.48,5.88-7.13,24.6.41,20.33,14.84,16.65-14.37,42.96,13.42,107.49,13.42,0,0-46.37,28.73-192.45,14.71,0,0-69.25,26.67-142.83,1.19,0,0-149.94,27.92-151.6-7.86-.82-17.73,36.77-20.15,36.77-20.15Z"/>
    <path class="cls-3" d="m3711.85,197.62c13.55-12.33,13.55-24.8,13.55-24.8-23.58,34.42-136.61,57.74-172.8,9.62,0,0,.41,8.13,6.64,16.2,0,0-165.82,32.11-140.78-9.26-5.02,2.95-8.6,7.03-8.34,12.63,1.66,35.78,151.6,7.86,151.6,7.86,73.58,25.48,142.83-1.19,142.83-1.19,146.09,14.01,192.45-14.71,192.45-14.71-81.06,25.2-185.15,3.66-185.15,3.66Z"/>
    <g>
      <path class="cls-1" d="m3768.36,156.89c-3.34-14.6-16.19-20.86-27.01-17.78-6.48,10.92,26.1,34.61,27.01,17.78Z"/>
      <path class="cls-1" d="m3789.51,180.54c3.36-11.35-7.51-18.43-15.16-17.47-4.23,9.47,10.84,29.97,15.16,17.47Z"/>
      <path class="cls-1" d="m3690.02,162.96c0,25.86-92.01,36.18-115.52,7.64-20.14-24.46,14.8-34.53,23.02-16.89,15.62-18.67,54.68-19.15,60.84,0,0,0,31.66-8.5,31.66,9.25Z"/>
      <path class="cls-1" d="m3690.02,138.34s41.23,15.82,38.98-19.89c-8.48-23.21-34.05-34.89-56.48-29.09-15.59,15.07-2.43,45.64,37.97,37.64,0,0-2.46,8.04-20.47,11.34Z"/>
      <path class="cls-1" d="m3544.62,101.55c-35.8-.35-32.62,35.74-32.62,35.74,1.83,30.46,69.91-22.94,32.62-35.74Z"/>
      <path class="cls-1" d="m3564.38,113.47c6.7-9.22,13.89-7.3,25.98-4.4,3.38-6.92,19.34-10.46,27.08-2.9,4.24,4.14,25.14,4.11,14.02,13.3-11.12,9.19-36.02,10.39-36.02,10.39-16.92,7.74-39.88-4.25-31.06-16.39Z"/>
      <path class="cls-1" d="m3622.67,85.94c9.57.71,23.45-14.43,26.56-5.79s7.45,20.16-5.42,16.9c-12.88-3.25-15.45,3.02-21.14.56-5.69-2.46-12.74-12.63,0-11.68Z"/>
      <path class="cls-1" d="m3642.84,55.24c-8.1-11.38-21.56-19.99-43.9-17.8-38.48,3.77-43.7,35.58-43.56,53.38,3.33,5.66,11.01,7.42,24.2,3.66,35.24-10.03,27.08-17,49.6-23.85,4.56-1.39,10.54-8.54,13.66-15.39Z"/>
      <path class="cls-1" d="m3519.13,180.68c4.88-8.4-24.53-25.07-24.53-25.07,10.98-4.61,11.63-13.85,9.41-19.5-17.66-1.78-58.34-.85-57.12,45.75,6.91,9.39,67.36,7.22,72.24-1.18Z"/>
      <path class="cls-1" d="m3535.8,166.86c14.7,9.25,29.88,1.99,26.02-3.07s-15.45-18.36-22.97-15.27c-7.52,3.1-8.54,14.89-3.05,18.34Z"/>
      <path class="cls-1" d="m3645.13,126.71c2.38-7.97,12.5-2.73,12.5-2.73,5.84-6.87,23.82,8.66,11.02,11.81-15.09,3.72-24.97-4.21-23.51-9.09Z"/>
    </g>
    <g>
      <path class="cls-1" d="m3776.31,110.58c3.61,7.21,20.96,7.35,23.71,1.49,2.75-5.86-7.61-7.31-7.61-7.31-5.18-11.17-19.91-1.78-16.1,5.83Z"/>
      <path class="cls-1" d="m3443.8,98.79c10.86,6.15,39.47,2.4,39.47-1.39,0-6.55-10.52-9.43-14.31-2.59-11.89-4.65-25.58,3.96-25.16,3.98Z"/>
      <ellipse class="cls-1" cx="3489.1" cy="75.24" rx="5.83" ry="4.47"/>
    </g>
  </g>
</svg>