<?xml version="1.0" encoding="UTF-8"?>
<svg id="clouds_front" data-name="clouds front" xmlns="http://www.w3.org/2000/svg" viewBox="0 0 4023 1080">
  <defs>
    <style>
      .cls-1 {
        fill: #fafafa;
      }

      .cls-2 {
        fill: #e6f0ff;
      }

      .cls-3 {
        fill: #d2e1fa;
      }
    </style>
  </defs>
  <g>
    <path class="cls-2" d="m645.72,365.65c0,20.82,660.28,6.97,660.28-16.35-26.23-31.32-91.58-49.34-113.89-42.82,0,0,18.09-64.33-45.93-86.09-59.15-20.1-83.74,45.78-79.3,61.5,0,0-8.47-24.39-29.89-13.33,0,0-22.68-33.55-53.22-4.4,0,0,.18-106.67-74.83-106.67s-78.78,84.7-68.78,103.63c0,0-50.93-8.6-32.04,47.91,0,0-31.47-5.69-21.75,26.68l-140.64,29.96Z"/>
    <path class="cls-3" d="m1306,349.3c-3.1-3.71-6.77-7.22-10.83-10.53-34.29-14.56-79.84-15.84-133.12-5.18-60.82,12.17-151.56,7.1-178.93-2.03-27.37-9.12-244.46,40.3-337.4,34.09,0,20.82,660.28,6.97,660.28-16.35Z"/>
    <g>
      <path class="cls-1" d="m983.12,331.56c26.36-3.55,14.7-30.16-6.08-25.6,0,0-11.66-29.31-59.98-26.61-48.32,2.7-37.85,35.48-37.85,35.48-19.26-8.11-69.67,25.44-65.08,36.38,79.06-11.55,153.68-24.75,168.99-19.65Z"/>
      <path class="cls-1" d="m865.02,223.93s12.84,32.1,61.17,13.52c34.41-13.23,49.28-5.57,54.99-.05-5.34-31.6-21.74-79.92-72.24-79.92-40.12,0-59.85,24.24-68,49.68,8.63,9.58,30.19,7.78,52.13-5.18,0,0-2.71,15.21-28.05,21.96Z"/>
      <path class="cls-1" d="m1127.58,266.66c35.99-3.53,60.44,18,64.53,39.81,0,0,18.09-64.33-45.93-86.09-23.06-7.84-40.84-2.58-53.72,7.64-8.98,21.66,8.47,41.25,35.12,38.64Z"/>
      <path class="cls-1" d="m1015.05,277.58c20.02,9.12,23.06,0,21.93-9.03,0,0-15.74-23.24-38.64-14.18-.91,7.48,4.02,17.43,16.71,23.21Z"/>
      <path class="cls-1" d="m1066.88,281.88s-6.45-18.53-22.3-15.95c-3.26,11.16,24.06,25.49,22.3,15.95Z"/>
      <path class="cls-1" d="m1117.78,328.69c35.54-.32,60.49-13.5,60.49-13.5-11.49-28.74-36.83-28.07-44.6-24.35,0,0-7.43-13.87-25.34-11.67-17.91,2.2-13.85,22.9-13.85,22.9-17.23-1.43-28.72,12.76-23.99,18.51,4.73,5.74,27.99,8.28,47.31,8.11Z"/>
      <ellipse class="cls-1" cx="1039.64" cy="330.76" rx="17.99" ry="8.15"/>
      <path class="cls-1" d="m840.15,261.1s-39.13-6.6-36.07,29.84c16.44,32.06,51.02-20.42,36.07-29.84Z"/>
      <path class="cls-1" d="m886.05,255.02c-7.05,0-12.76,5.41-12.76,12.08,0,.17.04.32.05.48-1.25-.57-2.66-.92-4.19-.92-4.81,0-8.7,3.19-8.7,7.12,0,3.93,3.9,7.12,8.7,7.12,3.89,0,7.14-2.1,8.26-4.98,2.28,1.99,5.29,3.24,8.64,3.24,7.05,0,12.76-5.41,12.76-12.08,0-6.67-5.71-12.08-12.76-12.08Z"/>
      <path class="cls-1" d="m944.43,270.74c15.38,3.72,36.74,25.85,36.74,25.85,14.28-3.04,26.62,10.64,26.62,10.64,10.31-5.74.54-30.35-16.9-24.16,0,0,5.12-9.59-12.68-18.25-24.32-11.83-33.78,5.91-33.78,5.91Z"/>
    </g>
    <g>
      <path class="cls-1" d="m856.32,236.13c-68.68,14.19-144.71,9.36-144.71,9.36,31.93-5.56,85.15-11.64,85.15-11.64,1.69-19.09,18.42-26.02,32.44-22.3,8.89,2.36,13.69,14.87,13.69,14.87,9.29-4.9,13.43,9.72,13.43,9.72Z"/>
      <path class="cls-1" d="m1013.01,215.83c21.17,7.04,39.01,1.9,39.01,1.9,1.89-6.29-17.56-11.87-22.28-6.44,0,0-4.43-10.3-12.59-7.15-8.15,3.15-4.15,11.69-4.15,11.69Z"/>
    </g>
  </g>
  <g>
    <path class="cls-2" d="m2306.82,375.02c-.82-41.76-42.22-44.49-60.71-33.17,0,0-4.27-39.1-36.61-18.75,0,0,16.67-42.31-23.88-62.09-40.55-19.78-60.08,25.34-60.08,25.34,7.22-92.58-31-153.66-116.63-147.88-92.93,6.27-108.26,105.08-102.72,133.39-25.24-13.28-53.08,12.91-47.68,46.95-34.15,35.48-164.33,25.76-164.92,42.79,64.03,32.21,612.46,35.49,613.23,13.42Z"/>
    <path class="cls-3" d="m2306.82,375.02c-.19-9.77-2.62-17.38-6.45-23.2-7.56,7.79-30.82,7.36-56.46,11.49-33.57,5.41-72.28-17.1-107.29-24.43-35.01-7.33-82.91,4.63-82.91,4.63,21.43-7.71,32.61-38.36,32.61-38.36-46.55,30.76-131.3,23.63-161.31-5.63,0,0,17.67,39.41,47.13,50.54,0,0-138.92,19.6-278.55,11.55,64.03,32.21,612.46,35.49,613.23,13.42Z"/>
    <g>
      <path class="cls-1" d="m2197.56,300.57s-3.75,16.44-30.27,18.69c0,0,36.92,14.1,45.46-19.99-.95-13.01-6.96-28.42-27.13-38.26-16.41-8-29.37-5.38-39,.58-14.02,32.92,13.65,61.08,50.93,38.97Z"/>
      <path class="cls-1" d="m2246.1,341.85s-3.6-32.74-29.01-22.67c1.14,17.07,26.09,36.73,29.01,22.67Z"/>
      <path class="cls-1" d="m2256.61,337.58c.42,9.45,26.71,25.85,43.76,14.24h0c-9.87-15.02-29.11-17.94-43.76-14.24Z"/>
      <path class="cls-1" d="m2136.62,338.88c15.33,3.21,31.38,9.34,47.39,14.75-1.49-16.32-31.59-22.9-31.59-22.9-5.38-21.11-38.39-24.85-44.25-5.31,0,0-17.42-1.74-24.15,12.78,16.02-1.91,35.79-2.84,52.59.68Z"/>
      <path class="cls-1" d="m1937.76,230.37s13.77,23.05,70.59,25.03c56.82,1.98,69.18-28.62,69.18-28.62-24.39,11.84-50.88,2.93-50.88,2.93,16.06,1.74,69.45-14.18,79.87-47.51-18.89-30.39-51.3-46.85-97.62-43.73-46.68,3.15-73.77,29.64-88.48,58.83,12.81,27.02,68.54,34.39,68.54,34.39-12.36,3.8-51.2-1.32-51.2-1.32Z"/>
      <path class="cls-1" d="m2015.87,302.69c37.29,6.44,58.9-10.29,58.9-10.29,24.49,5.44,43.93-5.87,37.83-12.78-6.11-6.91-31.39-20.14-39.63-6.32,0,0-1.68-15.24-29.67-8.72-22.4,5.21-21.99,23.85-21.99,23.85-14.9-7.57-13.11,12.94-5.44,14.27Z"/>
      <ellipse class="cls-1" cx="2101.78" cy="243.39" rx="10.34" ry="13.3" transform="translate(1785.19 2335.4) rotate(-88)"/>
      <path class="cls-1" d="m1915.7,273.09c12.32,20.88,65.62,29.33,65.62,29.33,15.82-18.73-25.47-27.93-25.47-27.93-9.67-30.28-41.53-22.37-40.15-1.4Z"/>
      <path class="cls-1" d="m1893.5,268.39c-20.92-.82-39.48,22.07-34.99,50.43,47.09,10.53,44.45-24.46,34.99-50.43Z"/>
    </g>
    <g>
      <path class="cls-1" d="m1823.33,248.94c-56.29,9.79-77.44,3.99-79.99-1.09s37.08-8.87,37.08-8.87c11.46-20.74,43.85-7.42,42.91,9.96Z"/>
      <path class="cls-1" d="m2257.09,219.13c-.27,7.69-10.57,9.33-23.19,8.89-12.62-.44-22.78-2.8-22.52-10.49.27-7.69,10.72-13.56,23.34-13.12,12.62.44,22.64,7.03,22.37,14.72Z"/>
    </g>
  </g>
  <g>
    <path class="cls-2" d="m2869.71,323.63c-3.38-45.23,33.12-78.41,67.39-61.94-19.39-28.41,15.42-75.96,50.9-62.77,7.21-48.22,61.01-71.1,91.82-65.62,40.21,7.15,65.9,45.45,73.56,85.11,25.69-32.9,79.76-27.94,91.93,20.8,0,0,45.17-49.08,70.95,48.32,22.33-33.97,87.75-21.67,87.75,32.05,0,20.95-79.84,22.31-91.56,10.14,0,0-69.22,63.57-224.89,16.24,0,0-113.63,41.83-197.6,8.65,0,0-70.05,12.79-148.71,1.69,46.66-32.45,128.45-32.67,128.45-32.67Z"/>
    <path class="cls-3" d="m3312.68,313.94c-38.53,36.5-148.71,46.87-210.22,16.45,0,0,16-8.79,24.33-37.4-36.95,47.09-173.49,80.44-237.48,42.13,0,0-72.28,25.22-121.18,7.05-9.6,3.86-18.77,8.5-26.87,14.13,78.66,11.1,148.71-1.69,148.71-1.69,83.97,33.17,197.6-8.65,197.6-8.65,155.67,47.33,224.89-16.24,224.89-16.24,11.72,12.17,91.56,10.82,91.56-10.14-47.69,22.31-91.33-5.63-91.33-5.63Z"/>
    <g>
      <path class="cls-1" d="m3143.18,186.93c-12.53-26.72-34.09-48.43-63.36-53.63-25.25-4.49-65.92,10.08-83.76,42.02,5.09,16.29,24.42,27.93,49.61,21.46,0,0-6.65,20.73-45.51,9.24,0,0,0,36.28,73.68,21.63,13.97,9.24,80.89,19.15,69.33-40.71Z"/>
      <path class="cls-1" d="m2931.58,242.54c7.04,14.72,24.87,22.19,38.18,19.23,24.33-5.41,32.11-50.02,18.25-62.86-28.23-10.49-56.01,17.46-56.43,43.63Z"/>
      <path class="cls-1" d="m3242.37,230.14c-13.69-33.82-50.42-40.77-76-23.76-3.41,24.85,33.37,58.5,76,23.76Z"/>
      <path class="cls-1" d="m2937.1,261.69c-27.59-13.26-56.61,5.68-65.12,37.17,47.64,62.13,91.04-23.26,65.12-37.17Z"/>
      <path class="cls-1" d="m2959.55,317.57c-7.19-12.21,8.62-28.92,19.76-25.96,4.13-12.12,38.08-43.49,66.01-16.17,7.45-7.45,31.17-2.6,23.44,14.64,8.98,15.27-42.16,34.5-78.24,24.21,0,0-24.98,13.47-30.98,3.28Z"/>
      <path class="cls-1" d="m3316.27,287.52c7.51,40.16,95.06,20.67,75.98-1.79-19.88-23.12-59.56-23.18-75.98,1.79Z"/>
      <path class="cls-1" d="m3259.13,229.56c.2,20.19,43.56,52.64,48.53,32.12-15.9-37.71-35.59-37.8-48.53-32.12Z"/>
      <path class="cls-1" d="m3161.09,305.61c17.71,25.94,98.74,6.82,101.88-3.3-4.72-29.94-25.04-12.55-25.04-12.55-9.13-24.08-47.2-14.08-52.15-3.62-17.74-18.28-33.91,5.97-24.69,19.47Z"/>
      <path class="cls-1" d="m3125.18,248.52c-21.55-11.12-34.94,17.94-9.2,23.37,0,0,50.29,2.59,37.36-21.55-12.93-24.14-28.16-1.82-28.16-1.82Z"/>
      <ellipse class="cls-1" cx="3244.85" cy="262.77" rx="15.04" ry="9.2"/>
      <ellipse class="cls-1" cx="3065.71" cy="253.04" rx="9.2" ry="17.79" transform="translate(2232.35 3214.15) rotate(-79)"/>
      <ellipse class="cls-1" cx="3183.95" cy="261.24" rx="8.36" ry="5.01"/>
    </g>
  </g>
  <g>
    <path class="cls-2" d="m3784.74,230.8c-14.09-79.16,144.56-104.56,134.03,33.98,0,0,67.87-47.59,78.44,32.52,10.56,80.12-119.35,31.49-119.35,31.49-53.79,46.2-112.03,26.23-114.87-9.91,0,0-25.53,21.21-47.57,11.75-22.04-9.46-14.45-42.82,4.62-47.58,0,0-10.13-30.22,10.54-49.66,20.67-19.44,54.17-2.59,54.17-2.59Z"/>
    <path class="cls-3" d="m3997.79,304.99c-38.55,44.88-112.26,14.97-81.29-34.37,0,0-33.45,22.12-82.27,12.44,0,0,51.91,13.26,24.55,33.15-53.7,39.05-92.3-15.98-92.3-15.98-38.3,30.75-68.2,3.58-46.45-17.17-19.07,4.76-26.66,38.13-4.62,47.58,22.04,9.46,47.57-11.75,47.57-11.75,2.84,36.14,61.09,56.11,114.87,9.91,0,0,121.26,45.38,119.94-23.81Z"/>
    <g>
      <path class="cls-1" d="m3941.27,253.8c-8.92,19.25,15.99,22.15,19.74,27.07,4.32,5.66-12.68,21.04-29.13,10.79-15.63-9.74,38.58,61.1,62.44-8.84-9.8-35.22-34.53-35.03-53.05-29.02Z"/>
      <path class="cls-1" d="m3918.77,240c-6.32-75.44-72.91-86.62-110.12-62.42-15.98,28.54,6.52,52.55,41.24,51.63,2.68,31.08,49.38,49.43,68.88,10.79Z"/>
      <path class="cls-1" d="m3763.55,283.83c17.4,3.24,71.62,10.92,63.12-11.33-8.5-22.25-27.71-7.95-27.71-7.95-16.04-28.45-42.7,5.12-35.41,19.28Z"/>
      <ellipse class="cls-1" cx="3812.6" cy="242.43" rx="14.97" ry="9.04"/>
      <path class="cls-1" d="m3730.57,233.39c-12.14,11.42-13.64,26.53-12.82,37.08,31.48,21.42,51.17-18.83,48.11-45.58-11.04-1.88-24.82-1.35-35.3,8.5Z"/>
    </g>
  </g>
</svg>