<?xml version="1.0" encoding="UTF-8"?>
<svg id="clouds_back" data-name="clouds back" xmlns="http://www.w3.org/2000/svg" viewBox="0 0 4023 1080">
  <defs>
    <style>
      .cls-1 {
        fill: #fafafa;
      }

      .cls-2 {
        fill: #e6f0ff;
      }

      .cls-3 {
        fill: #d2e1fa;
      }
    </style>
  </defs>
  <g>
    <path class="cls-2" d="m93.39,226.19c-20.63-28.17,20.12-82.68,69.04-44.35,0,0-73.79-137.6,84.36-153.06,141.75-13.85,85.06,160.39,85.06,160.39,12.71-18.05,65.68-21.53,70.38,24.58,0,0,10.85-75.4,65.45-75.4,75.26,0,72.1,100.17,72.1,100.17,0,0,41.77-49.36,67.43,11.19l128.3,16.79c-95.53,60.62-347.82,25.18-347.82,25.18-150.19,39.66-283.02-7.04-283.02-7.04-61.66,0-54.91-58.45-11.29-58.45Z"/>
    <path class="cls-3" d="m735.51,266.5c-219.56,52.18-337.99,5.78-337.99,5.78,17.59-12.23,15.38-31.54,15.38-31.54-21.83,46.51-224.34,69.85-301.54,25.28,0,0-42.64,19.11-50.56-19.3-5.49,16.84,6.83,37.93,43.87,37.93,0,0,132.83,46.69,283.02,7.04,0,0,252.29,35.44,347.82-25.18Z"/>
    <g>
      <path class="cls-1" d="m139.52,223.97c60.43-5.7,22.9-42.13,22.9-42.13-37.5-29.38-70.15-4.22-74.09,21.82,6.76,13.03,24.14,22.86,51.19,20.31Z"/>
      <path class="cls-1" d="m478.4,224.38c24.41-.23,44.8-15.44,53.88-34.93-8.48-25.37-26.46-51.09-64.6-51.09-14.06,0-25.19,5.02-34.01,12.44h0c-28.68,29.51,2.33,73.99,44.73,73.58Z"/>
      <path class="cls-1" d="m286.66,93.93c39.87,20.14,14.24,116.76,14.24,116.76,0,0,18.35-4.89,30.95-21.5,0,0,56.69-174.25-85.06-160.4-99.08,9.68-107.12,67.3-99.31,109,13.47,25.85,42.51,43.26,82.22,37.46,86.7-12.66,56.95-81.32,56.95-81.32Z"/>
      <path class="cls-1" d="m93.39,226.19c-14.3,0-24.6,6.29-29.86,14.74.1,13.62,14.66,25.97,41.3,14.47,41.56-17.93-11.44-29.21-11.44-29.21Z"/>
      <path class="cls-1" d="m280.54,216.59c12.66-31.64-48.09-32.06-66.66-10.97,0,0-19.83-14.34-27,10.97,0,0-36.28,17.72-18.98,31.22,20.89,16.3,56.53,0,56.53,0,43.05,17.26,81.42-4.74,56.11-31.22Z"/>
      <path class="cls-1" d="m402.23,213.76c-4.1-40.21-44.89-42.7-63.7-30.72-2.09,18.41-28.78,45.68-28.78,45.68,14.55,22.78,90.03,12.17,92.48-14.96Z"/>
      <path class="cls-1" d="m573.01,259.09c25.63,7.28,34.21-9.38,34.21-9.38-17.78-41.94-43.27-31.15-57.27-20.55-2.44,12.96,5.6,24.97,23.06,29.93Z"/>
      <path class="cls-1" d="m442.33,256.46c16.88-24.05,64.23-10.97,64.23-10.97,8.12-14.55,32.6-3.59,32.59,9.18,0,0,1.27,18.35-29.43,9.81-32.31,7.17-67.4-8.02-67.4-8.02Z"/>
    </g>
  </g>
  <g>
    <g>
      <path class="cls-2" d="m1032.51,215.61c95.37,43.84,565.15,31.56,565.15,6.14,5.12-56.28-49.38-55.04-58.2-44.86,3.61-67-57.66-62.83-76.56-48.08-3.68-76.57-37.52-87.95-60.45-87.86-60.65.22-58.84,81.61-58.84,81.61-40.37-41.62-88.1-14.21-82.98,33.32-35.83-24.58-47.22,20.25-47.22,20.25-40.01-10.64-180.15,25.06-180.9,39.48Z"/>
      <path class="cls-3" d="m1597.66,221.75c.9-9.89-.07-17.97-2.28-24.57,5.52,45.9-236.31,35.26-236.31,35.26,0,0,18.62-5.32,32.33-24.76-54.63,32.33-226.16,21.42-358.88,7.93,95.37,43.84,565.15,31.56,565.15,6.14Z"/>
      <g>
        <path class="cls-1" d="m1294.62,203.41c62.61,7.98,95.75-17.8,95.75-17.8,32.84,14.42,55.55-9.51,53.09-21.48-2.54-12.4-36.21-29.77-54.32-7.37,0,0-21.34-26.7-57.08-11.91-27.89,11.54-21.48,36.16-21.48,36.16-28.23-.92-15.96,22.4-15.96,22.4Z"/>
        <path class="cls-1" d="m1356.81,67.52c11.4,24.77,53.06,45.45,93.64,4.01-12.82-25.65-32.8-30.64-48-30.59-23.09.08-37.11,11.94-45.64,26.58Z"/>
        <path class="cls-1" d="m1260.91,140.27c14.79,25.51,71.59,8.98,68.97-29.11-31.87-20.7-64.1-3.5-68.97,29.11Z"/>
        <path class="cls-1" d="m1390.98,134.67c-33.45-8.59-36.83-15.04-25.78-24.55s30.38,9.21,30.38,9.21c20.25-16.27,44.81-11.36,44.81-1.23s-49.41,16.57-49.41,16.57Z"/>
        <path class="cls-1" d="m1473.26,123.34c-13.84,46.31,48.77,93.57,66.2,53.55,3.09-57.46-41.51-62.56-66.2-53.55Z"/>
        <path class="cls-1" d="m1548.27,172.5c1.72,18.83,30.57,38.46,45.08,19.67-9.64-19.63-32-22.8-45.08-19.67Z"/>
        <path class="cls-1" d="m1213.41,176.13c-28.09-7.47-105.46,7.89-149.37,22.7,41.41,14.97,130.77,26.15,196.87,10.1,54.35-13.2-5.88-26.09-17.85-15.8-1.84-14.89-29.65-17-29.65-17Z"/>
        <path class="cls-1" d="m1250.84,179.68s16.16,11.87,31.1,4.91c14.94-6.96-2.25-21.48-9.82-15.96,0,0-2.66-5.11-11.49-12.75-25.06-17.19-38.15-.44-43.76,11.19,5.07,9.89,24.11,13.75,33.97,12.61Z"/>
        <path class="cls-1" d="m1462.18,209.75c37.15,0,23.32-28.44.92-17.79-22.71-14.33-27.52,17.79-.92,17.79Z"/>
        <ellipse class="cls-1" cx="1463.92" cy="173.13" rx="10.33" ry="6.34"/>
        <path class="cls-1" d="m1456.3,134.98c-4-2.07-8.72-1.14-11.37,1.99-.73-.61-1.54-1.17-2.46-1.65-4.53-2.35-9.42-1.9-10.92.99-1.5,2.9.95,7.15,5.49,9.5,2.54,1.32,5.18,1.73,7.29,1.34.89,1.45,2.17,2.71,3.82,3.56,4.61,2.39,10.16.8,12.42-3.55,2.25-4.35.34-9.8-4.26-12.19Z"/>
      </g>
      <g>
        <ellipse class="cls-1" cx="1187" cy="117.96" rx="7.77" ry="4.77"/>
        <path class="cls-1" d="m1171.62,86.21c-5.64-.53-10.69,2.78-12.3,7.67-1.14-.36-2.35-.64-3.64-.77-6.38-.6-11.87,2.22-12.25,6.3-.39,4.08,4.48,7.88,10.86,8.48,3.58.34,6.84-.43,9.12-1.86,1.72,1.27,3.81,2.13,6.13,2.35,6.49.61,12.21-3.85,12.79-9.97s-4.21-11.58-10.7-12.19Z"/>
        <ellipse class="cls-1" cx="1545.45" cy="95.18" rx="19.03" ry="8.8"/>
      </g>
    </g>
    <g>
      <path class="cls-2" d="m964.64,220.33c-51.88,11.5-142.46,0-142.46,0,47.93-17.96,76.51-11.45,76.51-11.45,12.75-23.66,28.92-26.93,44.41-23.08,21.54,5.35,21.54,34.52,21.54,34.52Z"/>
      <path class="cls-3" d="m964.64,220.33c-3.3-12.01-142.46,0-142.46,0,0,0,90.58,11.5,142.46,0Z"/>
      <path class="cls-1" d="m943.09,185.81c-11.75-2.92-23.89-1.72-34.64,9.35-.58,7.46,10.68,12.23,24.85,10.91,16.73-1.56,24.61-2.04,29.5,1.84-2.33-8.63-7.64-19.1-19.71-22.1Z"/>
    </g>
  </g>
  <g>
    <path class="cls-2" d="m2031.17,240.5c-.59,17.03,539.7,24.55,540.37,5.49-20.56-26.36-73.47-42.96-91.9-38.27,0,0,16.63-52.09-35.1-71.71-47.79-18.13-69.78,35.04-66.6,48.02,0,0-6.23-20.18-24.06-11.75,0,0-17.59-28.08-43.4-5.12,0,0,3.19-87.22-58.14-89.36-61.33-2.14-66.84,67.01-59.2,82.77,0,0-41.4-8.48-27.57,38.26,0,0-25.57-5.55-18.55,21.19l-115.85,20.48Z"/>
    <path class="cls-3" d="m2571.54,245.99c-2.43-3.12-5.33-6.1-8.56-8.92-27.62-12.89-64.83-15.23-108.7-8.04-50.08,8.21-124.13,1.47-146.25-6.77-22.12-8.24-201.04,25.97-276.86,18.24-.59,17.03,539.7,24.55,540.37,5.49Z"/>
    <g>
      <path class="cls-1" d="m2308.03,222.26c21.65-2.15,12.88-24.24-4.24-21.1,0,0-8.7-24.3-48.29-23.47-39.59.83-31.96,27.93-31.96,27.93-15.52-7.18-57.69,18.81-54.25,27.89,64.98-7.18,126.37-15.85,138.74-11.24Z"/>
      <path class="cls-1" d="m2214.53,130.89s9.59,26.62,49.63,12.8c28.51-9.84,40.45-3.14,44.97,1.53-3.46-25.99-15.49-65.97-56.78-67.41-32.81-1.15-49.63,18.11-57.02,38.68,6.79,8.08,24.46,7.22,42.78-2.75,0,0-2.65,12.36-23.56,17.16Z"/>
      <path class="cls-1" d="m2428,173.32c29.53-1.86,48.91,16.44,51.63,34.4,0,0,16.63-52.09-35.1-71.71-18.63-7.07-33.32-3.28-44.14,4.72-7.96,17.46,5.75,33.97,27.61,32.6Z"/>
      <path class="cls-1" d="m2335.68,179.04c16.11,8.03,18.86.66,18.19-6.76,0,0-12.2-19.45-31.19-12.7-.96,6.09,2.79,14.37,13,19.46Z"/>
      <path class="cls-1" d="m2377.94,184.03s-4.74-15.34-17.78-13.67c-2.98,9.03,18.95,21.53,17.78,13.67Z"/>
      <path class="cls-1" d="m2418.22,223.76c29.07.75,49.85-9.31,49.85-9.31-8.57-23.83-29.32-24-35.78-21.19,0,0-5.68-11.55-20.39-10.26-14.71,1.29-11.98,18.33-11.98,18.33-14.05-1.66-23.85,9.61-20.15,14.45,3.7,4.83,22.65,7.57,38.45,7.98Z"/>
      <ellipse class="cls-1" cx="2354.26" cy="223.22" rx="6.67" ry="14.72" transform="translate(2049.01 2568.26) rotate(-88)"/>
      <path class="cls-1" d="m2193.14,160.57s-31.81-6.51-30.34,23.37c12.52,26.68,42.3-15.24,30.34-23.37Z"/>
      <path class="cls-1" d="m2230.84,156.91c-5.76-.2-10.59,4.06-10.78,9.51,0,.14.03.26.03.4-1-.5-2.15-.83-3.4-.87-3.93-.14-7.21,2.36-7.32,5.58-.11,3.22,2.98,5.94,6.91,6.07,3.18.11,5.9-1.51,6.89-3.83,1.8,1.7,4.24,2.8,6.97,2.9,5.76.2,10.59-4.06,10.78-9.51.19-5.45-4.33-10.04-10.09-10.24Z"/>
      <path class="cls-1" d="m2278.13,171.42c12.47,3.48,29.31,22.19,29.31,22.19,11.77-2.08,21.46,9.46,21.46,9.46,8.59-4.4,1.31-24.8-13.13-20.24,0,0,4.46-7.7-9.85-15.28-19.55-10.37-27.79,3.87-27.79,3.87Z"/>
    </g>
    <g>
      <path class="cls-1" d="m2207.07,140.61c-56.57,9.64-118.6,3.52-118.6,3.52,26.27-3.63,69.96-7.09,69.96-7.09,1.93-15.56,15.8-20.75,27.16-17.31,7.2,2.18,10.77,12.55,10.77,12.55,7.74-3.74,10.71,8.33,10.71,8.33Z"/>
      <path class="cls-1" d="m2335.77,128.49c17.11,6.36,31.84,2.66,31.84,2.66,1.73-5.09-14.02-10.21-18.03-5.9,0,0-3.33-8.55-10.09-6.21s-3.73,9.44-3.73,9.44Z"/>
    </g>
  </g>
  <g>
    <path class="cls-2" d="m3229.42,231.69c-2.34-89.41,97.92-67.02,97.92-67.02,0,0-5.8-65.5,66.66-51.92,0,0-16.82-90.31,64.06-98.24,86.88-8.52,84.43,91.52,84.43,91.52,46.64-38.75,127.76-2.06,113.98,72.07,18.16-23.29,58.82-11.67,57.59,29.29,8.84-10.72,36.99.61,30.57,22.32,25.04-21.6,64.61,20.18,161.64,20.18,0,0-69.73,43.2-289.41,22.13,0,0-104.14,40.11-214.78,1.79,0,0-225.47,41.99-227.97-11.81-1.24-26.66,55.29-30.31,55.29-30.31Z"/>
    <path class="cls-3" d="m3627.86,255.39c20.38-18.55,20.38-37.3,20.38-37.3-35.46,51.77-205.44,86.82-259.85,14.47,0,0,.61,12.23,9.99,24.35,0,0-249.36,48.29-211.71-13.92-7.55,4.44-12.93,10.56-12.54,18.99,2.5,53.81,227.97,11.81,227.97,11.81,110.65,38.32,214.78-1.79,214.78-1.79,219.68,21.07,289.41-22.13,289.41-22.13-121.9,37.9-278.42,5.5-278.42,5.5Z"/>
    <g>
      <path class="cls-1" d="m3712.84,194.15c-5.02-21.95-24.34-31.36-40.62-26.74-9.74,16.42,39.25,52.05,40.62,26.74Z"/>
      <path class="cls-1" d="m3744.64,229.71c5.05-17.07-11.29-27.72-22.79-26.27-6.36,14.24,16.3,45.06,22.79,26.27Z"/>
      <path class="cls-1" d="m3595.04,203.27c0,38.89-138.37,54.41-173.72,11.48-30.29-36.78,22.26-51.93,34.62-25.4,23.49-28.08,82.22-28.8,91.5,0,0,0,47.6-12.78,47.6,13.91Z"/>
      <path class="cls-1" d="m3595.04,166.26s62,23.79,58.62-29.91c-12.76-34.9-51.2-52.47-84.93-43.75-23.44,22.67-3.66,68.63,57.1,56.61,0,0-3.69,12.09-30.79,17.05Z"/>
      <path class="cls-1" d="m3376.39,110.93c-53.83-.53-49.05,53.74-49.05,53.74,2.75,45.81,105.13-34.49,49.05-53.74Z"/>
      <path class="cls-1" d="m3406.1,128.85c10.07-13.86,20.89-10.98,39.07-6.62,5.09-10.41,29.08-15.72,40.71-4.36,6.38,6.23,37.81,6.18,21.08,19.99-16.72,13.81-54.17,15.63-54.17,15.63-25.45,11.63-59.96-6.4-46.7-24.65Z"/>
      <path class="cls-1" d="m3493.76,87.46c14.4,1.07,35.26-21.69,39.95-8.71,4.69,12.99,11.21,30.31-8.15,25.42-19.36-4.89-23.23,4.55-31.79.85s-19.16-18.99,0-17.56Z"/>
      <path class="cls-1" d="m3524.09,41.28c-12.19-17.11-32.42-30.06-66.02-26.77-57.87,5.67-65.72,53.5-65.51,80.27,5,8.52,16.55,11.15,36.39,5.51,52.99-15.08,40.72-25.56,74.59-35.87,6.86-2.09,15.85-12.85,20.55-23.14Z"/>
      <path class="cls-1" d="m3338.05,229.92c7.34-12.64-36.89-37.7-36.89-37.7,16.51-6.93,17.5-20.82,14.16-29.33-26.55-2.67-87.74-1.27-85.9,68.8,10.4,14.12,101.29,10.86,108.63-1.77Z"/>
      <path class="cls-1" d="m3363.12,209.14c22.1,13.92,44.94,2.99,39.13-4.62s-23.23-27.62-34.55-22.96c-11.31,4.65-12.84,22.39-4.59,27.58Z"/>
      <path class="cls-1" d="m3527.53,148.77c3.58-11.99,18.79-4.1,18.79-4.1,8.79-10.33,35.81,13.02,16.57,17.76-22.69,5.6-37.55-6.34-35.36-13.67Z"/>
    </g>
    <g>
      <path class="cls-1" d="m3724.8,124.51c5.42,10.84,31.52,11.05,35.65,2.24,4.14-8.81-11.44-11-11.44-11-7.79-16.79-29.94-2.68-24.22,8.76Z"/>
      <path class="cls-1" d="m3224.77,106.78c16.33,9.25,59.35,3.61,59.35-2.09,0-9.85-15.82-14.19-21.51-3.89-17.88-7-38.46,5.95-37.84,5.98Z"/>
      <ellipse class="cls-1" cx="3292.9" cy="71.36" rx="8.77" ry="6.73"/>
    </g>
  </g>
</svg>