<?xml version="1.0" encoding="UTF-8"?>
<svg id="clouds_front" data-name="clouds front" xmlns="http://www.w3.org/2000/svg" viewBox="0 0 4023 1080">
  <defs>
    <style>
      .cls-1 {
        fill: #fafafa;
      }

      .cls-2 {
        fill: #e6f0ff;
      }

      .cls-3 {
        fill: #d2e1fa;
      }
    </style>
  </defs>
  <g>
    <path class="cls-2" d="m590.79,522.65c-.8,22.9,725.86,33.02,726.75,7.38-27.65-35.45-98.81-57.77-123.6-51.47,0,0,22.37-70.06-47.2-96.44-64.28-24.38-93.85,47.12-89.57,64.58,0,0-8.38-27.14-32.36-15.81,0,0-23.65-37.76-58.36-6.89,0,0,4.29-117.3-78.19-120.18s-89.89,90.12-79.62,111.32c0,0-55.68-11.41-37.08,51.46,0,0-34.39-7.47-24.94,28.5l-155.81,27.55Z"/>
    <path class="cls-3" d="m1317.54,530.03c-3.27-4.19-7.17-8.2-11.51-12-37.15-17.33-87.19-20.48-146.19-10.81-67.36,11.04-166.94,1.98-196.69-9.1-29.75-11.08-270.39,34.93-372.36,24.53-.8,22.9,725.86,33.02,726.75,7.38Z"/>
    <g>
      <path class="cls-1" d="m963.14,498.12c29.12-2.89,17.32-32.6-5.71-28.38,0,0-11.69-32.69-64.94-31.57-53.24,1.12-42.98,37.57-42.98,37.57-20.87-9.66-77.6,25.3-72.97,37.5,87.39-9.66,169.96-21.32,186.6-15.12Z"/>
      <path class="cls-1" d="m837.39,375.22s12.89,35.8,66.75,17.21c38.35-13.23,54.4-4.23,60.48,2.05-4.66-34.95-20.84-88.73-76.37-90.67-44.12-1.54-66.75,24.35-76.69,52.02,9.13,10.86,32.9,9.71,57.53-3.69,0,0-3.56,16.62-31.69,23.08Z"/>
      <path class="cls-1" d="m1124.5,432.3c39.71-2.5,65.78,22.11,69.44,46.26,0,0,22.37-70.06-47.2-96.44-25.05-9.5-44.81-4.41-59.37,6.34-10.7,23.48,7.73,45.69,37.13,43.84Z"/>
      <path class="cls-1" d="m1000.33,439.98c21.67,10.8,25.36.89,24.47-9.09,0,0-16.41-26.16-41.95-17.08-1.29,8.2,3.75,19.32,17.48,26.17Z"/>
      <path class="cls-1" d="m1057.16,446.7s-6.38-20.63-23.92-18.39c-4.01,12.15,25.49,28.95,23.92,18.39Z"/>
      <path class="cls-1" d="m1111.34,500.13c39.09,1.01,67.04-12.52,67.04-12.52-11.53-32.05-39.43-32.28-48.12-28.49,0,0-7.64-15.54-27.42-13.8-19.78,1.74-16.12,24.65-16.12,24.65-18.9-2.24-32.08,12.93-27.1,19.43,4.98,6.5,30.46,10.18,51.71,10.74Z"/>
      <ellipse class="cls-1" cx="1025.32" cy="499.41" rx="8.97" ry="19.8" transform="translate(490.43 1506.68) rotate(-88)"/>
      <path class="cls-1" d="m808.62,415.14s-42.78-8.76-40.81,31.43c16.84,35.88,56.89-20.49,40.81-31.43Z"/>
      <path class="cls-1" d="m859.33,410.22c-7.75-.27-14.24,5.46-14.49,12.79,0,.18.04.35.04.53-1.35-.67-2.89-1.11-4.57-1.17-5.28-.18-9.69,3.17-9.84,7.5-.15,4.33,4.01,7.98,9.3,8.17,4.27.15,7.93-2.03,9.27-5.16,2.43,2.28,5.7,3.77,9.38,3.9,7.75.27,14.24-5.46,14.49-12.79.26-7.33-5.82-13.5-13.56-13.77Z"/>
      <path class="cls-1" d="m922.93,429.74c16.77,4.68,39.41,29.84,39.41,29.84,15.82-2.8,28.86,12.73,28.86,12.73,11.55-5.92,1.76-33.35-17.65-27.22,0,0,6-10.35-13.24-20.55-26.29-13.94-37.38,5.21-37.38,5.21Z"/>
    </g>
    <g>
      <path class="cls-1" d="m827.36,388.3c-76.08,12.97-159.5,4.74-159.5,4.74,35.33-4.89,94.09-9.53,94.09-9.53,2.59-20.93,21.25-27.91,36.53-23.28,9.68,2.93,14.48,16.88,14.48,16.88,10.41-5.03,14.4,11.2,14.4,11.2Z"/>
      <path class="cls-1" d="m1000.46,372c23.01,8.56,42.82,3.58,42.82,3.58,2.32-6.85-18.85-13.73-24.25-7.93,0,0-4.48-11.49-13.57-8.35-9.09,3.15-5.01,12.7-5.01,12.7Z"/>
    </g>
  </g>
  <g>
    <path class="cls-2" d="m2167.81,501.74c-1-50.9-51.45-54.21-73.99-40.42,0,0-5.2-47.65-44.61-22.85,0,0,20.32-51.57-29.1-75.67-49.42-24.1-73.22,30.88-73.22,30.88,8.8-112.83-37.78-187.26-142.14-180.22-113.25,7.64-131.93,128.06-125.18,162.56-30.76-16.19-64.68,15.74-58.11,57.22-41.62,43.24-200.26,31.4-200.99,52.14,78.04,39.26,746.4,43.26,747.34,16.35Z"/>
    <path class="cls-3" d="m2167.81,501.74c-.23-11.91-3.2-21.19-7.86-28.28-9.21,9.5-37.56,8.97-68.81,14-40.91,6.59-88.09-20.84-130.75-29.78-42.66-8.94-101.05,5.64-101.05,5.64,26.11-9.4,39.74-46.74,39.74-46.74-56.73,37.49-160.01,28.79-196.59-6.86,0,0,21.53,48.02,57.44,61.6,0,0-169.3,23.88-339.47,14.07,78.04,39.26,746.4,43.26,747.34,16.35Z"/>
    <g>
      <path class="cls-1" d="m2034.65,411s-4.57,20.04-36.89,22.78c0,0,45,17.18,55.41-24.36-1.16-15.85-8.48-34.63-33.06-46.62-20-9.75-35.8-6.55-47.52.71-17.08,40.12,16.63,74.44,62.07,47.5Z"/>
      <path class="cls-1" d="m2093.81,461.32s-4.38-39.89-35.35-27.62c1.39,20.81,31.8,44.76,35.35,27.62Z"/>
      <path class="cls-1" d="m2106.62,456.11c.51,11.52,32.56,31.51,53.33,17.36h0c-12.03-18.31-35.48-21.87-53.33-17.36Z"/>
      <path class="cls-1" d="m1960.39,457.69c18.69,3.92,38.24,11.38,57.75,17.98-1.81-19.89-38.49-27.9-38.49-27.9-6.55-25.73-46.79-30.28-53.92-6.47,0,0-21.23-2.12-29.43,15.57,19.53-2.33,43.62-3.47,64.1.83Z"/>
      <path class="cls-1" d="m1718.05,325.45s16.78,28.09,86.03,30.51,84.3-34.87,84.3-34.87c-29.73,14.43-62.01,3.56-62.01,3.56,19.57,2.12,84.64-17.28,97.34-57.9-23.02-37.04-62.52-57.1-118.96-53.29-56.88,3.84-89.9,36.13-107.83,71.69,15.61,32.93,83.53,41.91,83.53,41.91-15.06,4.63-62.4-1.61-62.4-1.61Z"/>
      <path class="cls-1" d="m1813.24,413.58c45.44,7.85,71.78-12.53,71.78-12.53,29.85,6.63,53.54-7.16,46.1-15.58-7.44-8.43-38.25-24.54-48.29-7.7,0,0-2.05-18.57-36.16-10.63-27.3,6.35-26.8,29.06-26.8,29.06-18.16-9.23-15.98,15.77-6.62,17.39Z"/>
      <ellipse class="cls-1" cx="1917.93" cy="341.32" rx="12.6" ry="16.21" transform="translate(1509.89 2246.18) rotate(-88)"/>
      <path class="cls-1" d="m1691.16,377.52c15.01,25.45,79.97,35.75,79.97,35.75,19.28-22.83-31.04-34.04-31.04-34.04-11.79-36.9-50.62-27.27-48.93-1.71Z"/>
      <path class="cls-1" d="m1664.1,371.79c-25.49-1-48.12,26.9-42.64,61.46,57.39,12.83,54.17-29.8,42.64-61.46Z"/>
    </g>
    <g>
      <path class="cls-1" d="m1578.59,348.09c-68.6,11.93-94.38,4.86-97.48-1.33-3.11-6.19,45.19-10.81,45.19-10.81,13.96-25.27,53.44-9.04,52.29,12.14Z"/>
      <path class="cls-1" d="m2107.21,311.75c-.33,9.37-12.88,11.37-28.26,10.84-15.38-.54-27.77-3.42-27.44-12.78s13.06-16.53,28.44-15.99c15.38.54,27.59,8.57,27.26,17.93Z"/>
    </g>
  </g>
  <g>
    <path class="cls-2" d="m2491.85,433.01c-4.11-55.12,40.36-95.56,82.12-75.48-23.64-34.63,18.79-92.57,62.04-76.5,8.79-58.76,74.36-86.64,111.9-79.97,49.01,8.71,80.31,55.39,89.65,103.72,31.3-40.09,97.2-34.05,112.04,25.35,0,0,55.05-59.81,86.47,58.88,27.21-41.39,106.94-26.41,106.94,39.06,0,25.54-97.3,27.18-111.58,12.36,0,0-84.36,77.47-274.07,19.79,0,0-138.48,50.97-240.81,10.55,0,0-85.37,15.59-181.23,2.07,56.87-39.54,156.54-39.82,156.54-39.82Z"/>
    <path class="cls-3" d="m3031.7,421.2c-46.95,44.48-181.23,57.11-256.19,20.05,0,0,19.5-10.71,29.66-45.58-45.03,57.39-211.43,98.03-289.42,51.35,0,0-88.09,30.73-147.68,8.59-11.71,4.7-22.88,10.36-32.75,17.22,95.86,13.52,181.23-2.07,181.23-2.07,102.33,40.43,240.81-10.55,240.81-10.55,189.71,57.68,274.07-19.79,274.07-19.79,14.28,14.83,111.58,13.18,111.58-12.36-58.12,27.18-111.3-6.86-111.3-6.86Z"/>
    <g>
      <path class="cls-1" d="m2825.13,266.42c-15.27-32.56-41.55-59.02-77.21-65.36-30.77-5.47-80.34,12.28-102.07,51.21,6.21,19.85,29.76,34.03,60.47,26.15,0,0-8.1,25.26-55.47,11.26,0,0,0,44.21,89.79,26.36,17.02,11.26,98.58,23.34,84.5-49.62Z"/>
      <path class="cls-1" d="m2567.24,334.19c8.57,17.94,30.31,27.04,46.53,23.44,29.66-6.59,39.13-60.96,22.24-76.61-34.41-12.78-68.25,21.28-68.77,53.17Z"/>
      <path class="cls-1" d="m2946.01,319.07c-16.68-41.21-61.44-49.69-92.62-28.96-4.16,30.28,40.67,71.29,92.62,28.96Z"/>
      <path class="cls-1" d="m2573.98,357.53c-33.63-16.16-68.99,6.92-79.36,45.3,58.06,75.72,110.94-28.35,79.36-45.3Z"/>
      <path class="cls-1" d="m2601.34,425.63c-8.76-14.89,10.51-35.24,24.08-31.63,5.03-14.78,46.41-53,80.45-19.7,9.08-9.08,37.98-3.17,28.57,17.84,10.95,18.61-51.38,42.04-95.35,29.5,0,0-30.44,16.42-37.75,3.99Z"/>
      <path class="cls-1" d="m3036.06,389.01c9.15,48.95,115.85,25.19,92.59-2.18-24.22-28.18-72.59-28.25-92.59,2.18Z"/>
      <path class="cls-1" d="m2966.44,318.38c.24,24.6,53.09,64.15,59.14,39.14-19.38-45.96-43.37-46.07-59.14-39.14Z"/>
      <path class="cls-1" d="m2846.95,411.06c21.58,31.61,120.33,8.31,124.15-4.03-5.75-36.49-30.51-15.29-30.51-15.29-11.12-29.34-57.52-17.16-63.55-4.41-21.62-22.28-41.32,7.27-30.09,23.73Z"/>
      <path class="cls-1" d="m2803.18,341.48c-26.27-13.55-42.58,21.86-11.21,28.48,0,0,61.29,3.15,45.53-26.27-15.76-29.42-34.32-2.21-34.32-2.21Z"/>
      <ellipse class="cls-1" cx="2949.02" cy="358.84" rx="18.33" ry="11.22"/>
      <ellipse class="cls-1" cx="2730.71" cy="346.99" rx="11.22" ry="21.68" transform="translate(1869.05 2961.32) rotate(-79)"/>
      <ellipse class="cls-1" cx="2874.81" cy="356.98" rx="10.19" ry="6.1"/>
    </g>
  </g>
  <g>
    <path class="cls-2" d="m3346.19,391.79c-17.17-96.47,176.18-127.42,163.34,41.41,0,0,82.72-58,95.59,39.64s-145.45,38.37-145.45,38.37c-65.55,56.3-136.53,31.97-140-12.08,0,0-31.11,25.85-57.97,14.32-26.86-11.52-17.61-52.18,5.62-57.99,0,0-12.34-36.83,12.84-60.52,25.19-23.69,66.02-3.16,66.02-3.16Z"/>
    <path class="cls-3" d="m3605.83,482.2c-46.97,54.69-136.81,18.24-99.07-41.89,0,0-40.76,26.96-100.27,15.16,0,0,63.26,16.16,29.92,40.4-65.45,47.59-112.48-19.48-112.48-19.48-46.68,37.48-83.12,4.36-56.6-20.92-23.24,5.8-32.48,46.47-5.62,57.99,26.86,11.52,57.97-14.32,57.97-14.32,3.46,44.05,74.45,68.38,140,12.08,0,0,147.78,55.31,146.17-29.01Z"/>
    <g>
      <path class="cls-1" d="m3536.95,419.81c-10.87,23.46,19.48,26.99,24.05,32.99,5.26,6.9-15.45,25.64-35.5,13.15-19.05-11.87,47.02,74.47,76.1-10.78-11.94-42.92-42.08-42.69-64.65-35.36Z"/>
      <path class="cls-1" d="m3509.53,403c-7.7-91.94-88.86-105.56-134.2-76.07-19.47,34.78,7.95,64.04,50.26,62.92,3.26,37.87,60.18,60.23,83.94,13.15Z"/>
      <path class="cls-1" d="m3320.36,456.42c21.2,3.94,87.28,13.31,76.93-13.81-10.36-27.12-33.77-9.69-33.77-9.69-19.55-34.67-52.03,6.24-43.16,23.5Z"/>
      <ellipse class="cls-1" cx="3380.14" cy="405.96" rx="18.25" ry="11.01"/>
      <path class="cls-1" d="m3280.17,394.95c-14.8,13.92-16.62,32.33-15.62,45.19,38.36,26.1,62.37-22.95,58.64-55.55-13.45-2.29-30.24-1.65-43.01,10.36Z"/>
    </g>
  </g>
</svg>