<svg width="23" height="29" viewBox="0 0 23 29" fill="none" xmlns="http://www.w3.org/2000/svg">
<path d="M21.2029 12.8427C20.6086 11.4718 19.7378 10.2384 18.6449 9.21947L17.7431 8.37692C17.7125 8.34909 17.6755 8.3292 17.6354 8.319C17.5953 8.3088 17.5533 8.3086 17.5131 8.31842C17.4729 8.32824 17.4357 8.34778 17.4048 8.37532C17.3739 8.40286 17.3503 8.43756 17.3359 8.47637L16.9192 9.63828C16.6594 10.3672 16.1871 11.1099 15.5211 11.8383C15.477 11.8847 15.4268 11.8968 15.3924 11.8996C15.358 11.9024 15.305 11.8957 15.2585 11.8515C15.2151 11.8136 15.1937 11.7572 15.1973 11.701C15.3299 9.82082 14.7866 7.69396 13.5763 5.37356C12.5749 3.4457 11.1728 1.93611 9.41356 0.876434L8.12984 0.105442C7.962 0.00392284 7.7452 0.133221 7.7528 0.330173L7.80801 1.83073C7.84563 2.85611 7.71871 3.76125 7.43067 4.51181C7.07861 5.43055 6.57716 6.2823 5.93899 7.04533C5.49488 7.5756 4.99263 8.05432 4.44168 8.47249C3.11479 9.47358 2.03158 10.7619 1.27316 12.2409C0.516455 13.7329 0.114441 15.3795 0.0984345 17.0524C0.0851216 18.5273 0.362845 19.958 0.925665 21.31C1.46915 22.6118 2.25972 23.7958 3.25366 24.7968C4.2571 25.8059 5.42494 26.604 6.72933 27.1627C8.08039 27.7436 9.51524 28.0441 10.9995 28.0575C12.4839 28.0709 13.9239 27.7964 15.2852 27.243C16.5962 26.7111 17.7911 25.929 18.803 24.9403C19.8245 23.9495 20.6288 22.7879 21.1936 21.4961C21.7798 20.1581 22.0874 18.7148 22.0975 17.2541C22.1113 15.7291 21.8122 14.2451 21.2029 12.8427Z" fill="#FF0000"/>
</svg>
