<?xml version="1.0" encoding="UTF-8"?>
<svg id="forest_front" data-name="forest front" xmlns="http://www.w3.org/2000/svg" viewBox="0 0 4023 1080">
  <defs>
    <style>
      .cls-1 {
        fill: #25a977;
      }

      .cls-2 {
        fill: #1b8d67;
      }

      .cls-3 {
        fill: #6c2950;
      }

      .cls-4 {
        fill: #258265;
      }

      .cls-5 {
        fill: #ffdd3a;
      }

      .cls-6 {
        fill: #f17a40;
      }

      .cls-7 {
        fill: #36cd88;
      }

      .cls-8 {
        fill: #f99d46;
      }

      .cls-9 {
        fill: #853866;
      }

      .cls-10 {
        fill: #fabb50;
      }

      .cls-11 {
        fill: #582949;
      }
    </style>
  </defs>
  <g>
    <path class="cls-10" d="m125,1026.64h306.15s-14.67-53.56-45.63-35.85c-4.89-63.78-58.58-71.93-75.74-27.93-26.94-48.89-171.48-39.2-184.77,38.26"/>
    <g>
      <path class="cls-9" d="m60.77,577.25l54.07,81.58v28.73l-66.09-102.46c-1.18-1.83-1.47-4.1-.78-6.16h0c1.89-5.68,9.49-6.68,12.79-1.7Z"/>
      <path class="cls-8" d="m338.71,480.37v215.07c0,68.25-55.29,123.54-123.54,123.54s-123.54-55.29-123.54-123.54v-215.07c0-13.1,2.03-25.72,5.81-37.55,15.89-49.89,62.58-85.99,117.73-85.99,34.11,0,65.02,13.82,87.37,36.17,11.28,11.28,20.39,24.72,26.65,39.68,6.12,14.68,9.52,30.77,9.52,47.69Z"/>
      <path class="cls-9" d="m195.72,477.79h44.17c3.13,0,5.67,2.54,5.67,5.67v543.17h-55.51V483.47c0-3.13,2.54-5.67,5.67-5.67Z"/>
      <path class="cls-9" d="m154.94,570.08l54.07,81.58v28.73l-66.09-102.46c-1.18-1.83-1.47-4.1-.78-6.16h0c1.89-5.68,9.49-6.68,12.79-1.7Z"/>
      <path class="cls-9" d="m170.56,683.57l69.04,104.16-7.5,49.02-87.75-136.04c-2.57-3.99-3.2-8.93-1.7-13.44h0c4.13-12.38,20.7-14.58,27.91-3.7Z"/>
      <path class="cls-9" d="m274.41,494.41l-54.07,81.58v28.73l66.09-102.46c1.18-1.83,1.47-4.1.78-6.16h0c-1.89-5.68-9.49-6.68-12.79-1.7Z"/>
      <path class="cls-9" d="m293.66,769.76l-54.07,81.58v28.73l66.09-102.46c1.18-1.83,1.47-4.1.78-6.16h0c-1.89-5.68-9.49-6.68-12.79-1.7Z"/>
      <circle class="cls-10" cx="64.9" cy="547.96" r="56.77"/>
      <circle class="cls-10" cx="335.27" cy="724.38" r="72.03"/>
      <circle class="cls-5" cx="312.34" cy="694.34" r="17.39"/>
      <circle class="cls-5" cx="367.23" cy="713.9" r="25.63"/>
      <path class="cls-5" d="m36.12,542.32c0,3.12-2.53,5.64-5.64,5.64s-5.64-2.53-5.64-5.64,2.53-5.64,5.64-5.64,5.64,2.53,5.64,5.64Z"/>
      <circle class="cls-5" cx="48.61" cy="516.5" r="7.62"/>
      <circle class="cls-5" cx="88.74" cy="534.66" r="18.16"/>
      <path class="cls-8" d="m350.42,645.81s-7.04-24.22,20.25-26.91c4.86,26.91-20.25,26.91-20.25,26.91Z"/>
      <path class="cls-6" d="m125,731.68s15.17-20.14,33.68.09c-18.63,20.02-33.68-.09-33.68-.09Z"/>
      <path class="cls-6" d="m110.3,696.95s23.06-10.21,29.37,16.47c-26.02,8.42-29.37-16.47-29.37-16.47Z"/>
      <path class="cls-6" d="m295.4,508.81s-4.42-24.83,23-24.6c1.97,27.27-23,24.6-23,24.6Z"/>
      <path class="cls-6" d="m273.21,534.96s18.28-34.65,51.66-8.2c-23.61,35.31-51.66,8.2-51.66,8.2Z"/>
      <path class="cls-8" d="m302.27,798.01s23.56,9,9.24,32.38c-24.39-12.36-9.24-32.38-9.24-32.38Z"/>
      <path class="cls-8" d="m321.71,804.17s31.04-9.64,35.15,25.46c-34.56,6.9-35.15-25.46-35.15-25.46Z"/>
      <path class="cls-8" d="m53.81,655.53s-16-19.5,8.03-32.7c15.06,22.82-8.03,32.7-8.03,32.7Z"/>
      <path class="cls-8" d="m5.58,613.94s23.11-29.28,49.8,1.27c-28.22,28.98-49.8-1.27-49.8-1.27Z"/>
      <ellipse class="cls-3" cx="208.8" cy="530.85" rx="6.37" ry="21.97"/>
      <path class="cls-3" d="m231.17,848.88c0,41.5-3.58,75.15-8,75.15s-8-33.65-8-75.15,3.58-75.15,8-75.15,8,33.64,8,75.15Z"/>
      <ellipse class="cls-3" cx="208.8" cy="713.9" rx="6.37" ry="21.97"/>
      <ellipse class="cls-3" cx="224.79" cy="614.53" rx="9.62" ry="50.74"/>
      <path class="cls-10" d="m329.18,432.68c-103.05-87.13-195.54-22.93-231.75,10.14,15.89-49.89,62.58-85.99,117.73-85.99,34.11,0,65.02,13.82,87.37,36.17,11.28,11.28,20.39,24.72,26.65,39.68Z"/>
      <path class="cls-6" d="m287.58,1030.77H30.49s2.27-65.71,66.95-48.93c17.43-59.48,79.84-23.93,61.58,23.07,42.74-32.25,116.8-7.53,128.56,25.86Z"/>
      <path class="cls-8" d="m149.63,1026.64H54.8c9.28-13.62,25.34-27.99,51.65-21.77,11.69-21.28,47.42-8.77,43.19,21.77Z"/>
    </g>
  </g>
  <g>
    <path class="cls-4" d="m304.24,798.62s31.95,65.25,98.82,49.12c15.55,43.26,44.88,25.66,44.88,25.66,0,0,21.26,33.11,49.86-3.24,10.26,50.16,65.25,1.04,78.45-12.16,26.39,41.06,87.25,29.33,80.65-8.07,45.46,22,73.32-10.26,75.52-33.73-57.92,4.4-192.78-37.55-192.78-37.55"/>
    <path class="cls-4" d="m425.1,523.9s9.45,22.59,34.78,27.21c-11.6,13.85,17.64,40.01,38.16,30.26,7.69,25.13,37.18,9.85,37.18,9.85,0,0,41.59,16.31,55.55-9.85,25.25,17.95,87.83-4.62,72.44-47.7-31.29,16.41-147.28-25.65-147.28-25.65l-90.84,15.88Z"/>
    <path class="cls-4" d="m455.47,388.51s6.41,23.6,32.7,11.8c1.16,35.91,43.38,34.84,46.12,15.11,15.56,18.74,27.4,1.81,27.4,1.81,0,0,46.13,7.69,45.1-28.72-1.03-36.42-141.57-23.08-151.32,0Z"/>
    <polygon class="cls-3" points="561.69 998.37 508.76 998.37 533.73 294.33 536.72 294.33 561.69 998.37"/>
    <path class="cls-1" d="m535.23,269.16s-4.06,28.35-22.05,35.28c16.61-1.37,20.41-5.9,20.41-5.9,0,0,7.96,11.77,23.87,5.9-15.22-4.14-22.23-35.28-22.23-35.28Z"/>
    <path class="cls-1" d="m474.91,1002.32h128.75s8.85-56.65,0-63.08c-8.85-6.44-7.24,53.11-7.24,53.11,0,0-12.07-27.52-16.09-21.81-4.02,5.72-.8,21.81-.8,21.81,0,0-28.16-27.36-33.8-15.29-5.63,12.07-4.47,17.7-4.47,17.7,0,0-17.26-34.6-34.15-30.58-16.9,4.02-17.7,26.55-17.7,26.55,0,0-7.24-36.21-14.48-35.41-7.24.8,0,46.99,0,46.99Z"/>
    <path class="cls-4" d="m535.23,688.48s-10.43,52.88-68.36,65.75c49.27,36.3,68.36,7.24,68.36,7.24,0,0,32.04,37.01,72.36,2.41-32.9-6.44-61.08-30.32-72.36-75.41Z"/>
    <path class="cls-4" d="m535.23,442.83s-21.16,62.92-75.34,69.28c28.7,15.21,37.67,5.55,37.67,5.55,0,0,22.55,36.21,59.9,7.24,18.04,16.9,33.32.8,33.32.8,0,0-38.69-14.48-55.55-82.88Z"/>
    <path class="cls-4" d="m535.23,326.11s-15.03,40.01-47.05,36.33c14.98,21.35,34.09,9.36,34.09,9.36,0,0,16.86,12.74,23.97-.37,3,11.99,13.69,6.74,15.46-2.62,8.14,4.87,16.01,4.12,19.75-4.5-39.88-1.87-46.22-38.21-46.22-38.21Z"/>
    <polyline class="cls-3" points="544.21 605.48 556.52 591.23 559.6 591.23 548.3 620.82"/>
    <polyline class="cls-3" points="534.81 412.48 525.33 408 522.67 414.67 531.39 421.85"/>
    <polyline class="cls-3" points="523.7 810.15 508.76 795.27 505.23 805.53 519.08 829.64"/>
    <polyline class="cls-3" points="547.29 896.84 564.73 876.83 570.37 883.5 556.52 921.97"/>
    <path class="cls-11" d="m535.49,878.88c0,4.82-3.9,8.72-8.72,8.72s-8.72-3.9-8.72-8.72,3.9-8.72,8.72-8.72,8.72,3.9,8.72,8.72Z"/>
    <path class="cls-11" d="m550.41,942.75c0,2.97-2.41,5.39-5.39,5.39s-5.39-2.41-5.39-5.39,2.41-5.39,5.39-5.39,5.39,2.41,5.39,5.39Z"/>
    <path class="cls-11" d="m547.29,912.46c0,2.11-1.71,3.83-3.83,3.83s-3.83-1.71-3.83-3.83,1.71-3.83,3.83-3.83,3.83,1.71,3.83,3.83Z"/>
    <circle class="cls-11" cx="540.87" cy="789.63" r="5.64"/>
    <path class="cls-11" d="m533.73,622.24c0,.79-.64,1.42-1.42,1.42s-1.42-.64-1.42-1.42.64-1.42,1.42-1.42,1.42.64,1.42,1.42Z"/>
    <path class="cls-11" d="m545.74,581.32c0,2.69-2.18,4.87-4.87,4.87s-4.87-2.18-4.87-4.87,2.18-4.87,4.87-4.87,4.87,2.18,4.87,4.87Z"/>
    <path class="cls-11" d="m537.55,560.6c0,1.84-1.49,3.33-3.33,3.33s-3.33-1.49-3.33-3.33,1.49-3.33,3.33-3.33,3.33,1.49,3.33,3.33Z"/>
    <path class="cls-11" d="m537.22,430.02c0,.83-.67,1.51-1.51,1.51s-1.51-.67-1.51-1.51.67-1.51,1.51-1.51,1.51.67,1.51,1.51Z"/>
    <path class="cls-1" d="m535.23,591.23s-57.68,201.34-254.87,198.22c95.48,69.53,138.03,37.36,138.03,37.36,0,0,4.15,33.21,29.06,37.36,24.91,4.15,38.4-21.79,38.4-21.79,0,0,45.66,48.78,91.33,0,33.21,36.32,61.23,18.68,66.42-8.3,68.5,28.02,107.93-28.02,107.93-28.02,0,0-184.56-12.45-216.3-214.83Z"/>
    <path class="cls-1" d="m535.48,410.44s-34.1,112.03-132.42,96.43c32.14,33.56,71.38,27.42,71.38,27.42,0,0-4.73,22.69,13.71,29.31,18.43,6.62,30.72-7.56,30.72-7.56,0,0,42.54,40.65,74.21-6.62,32.62,37.82,79.88,1.89,86.97-33.09-45.85,16.54-99.18-17.96-118.84-45.38-19.66-27.42-25.74-60.5-25.74-60.5Z"/>
    <path class="cls-1" d="m535.23,304.78s-56.23,70.07-123.88,55.79c44.07,62.69,78.83,24.83,78.83,24.83,0,0,18.73,37.24,45.06,6.21,26.32,33.52,45.56-1.24,45.56-1.24,0,0,44.69,33.52,78.83-20.48-64.55,9.31-124.39-65.1-124.39-65.1Z"/>
    <path class="cls-4" d="m531.87,593.66s-42.08,52.24-83.17,53.73c22.28,7.43,41.58-7.48,41.58-7.48,0,0-9.9,14.9,0,15.89,9.9.99,24.75-7.43,24.75-7.43,0,0,36.14,28.22,56.93-2.97,23.27,12.87,41.09-7.92,41.09-7.92,0,0-50.5,18.29-81.19-43.83Z"/>
  </g>
  <g>
    <path class="cls-1" d="m852.08,1017.58h-150.19s-6.65-60.36,45.07-53.68c-1.48-49.47,59.1-37.71,50.24,0,38.42-36.91,56.97,10.42,56.97,10.42,0,0,30.79-58.51,79.26-11.18,37.39-42.8,75.81,15,41.08,54.44h-122.43Z"/>
    <g>
      <polyline class="cls-9" points="1059.73 662.15 1044.23 680.7 992.17 665.29 984.79 686.81 1048.33 693.66 1067.05 668.94"/>
      <path class="cls-9" d="m973.15,628.73c.88-1.17,73.42-51.19,73.42-51.19l4.22,12.94-59.79,67.79"/>
      <polyline class="cls-9" points="663.6 566.43 670.24 618.98 721.31 662.15 735.58 636.17 681.34 612.44 674.63 566.43"/>
      <path class="cls-9" d="m880.02,869.65c1.17-2.22,66.31-80.68,66.31-80.68l-20.72-5.92-45.58,59.58"/>
      <polyline class="cls-9" points="836.78 860.62 777.57 785.86 766.46 791.44 836.78 881"/>
      <rect class="cls-9" x="821.65" y="794.97" width="60.85" height="221.87"/>
      <path class="cls-7" d="m971.54,518.2c0,47.71-28.31,88.78-69.03,107.36-14.9,6.82-31.48,10.61-48.96,10.61-65.14,0-117.97-52.8-117.97-117.97s52.83-117.99,117.97-117.99c44.67,0,83.56,24.84,103.57,61.46,9.2,16.76,14.42,36.04,14.42,56.53Z"/>
      <path class="cls-1" d="m971.54,518.2c0,47.71-28.31,88.78-69.03,107.36-30.49-13.43-51.79-43.92-51.79-79.4,0-47.9,38.83-86.73,86.73-86.73,6.77,0,13.35.77,19.67,2.24,9.2,16.76,14.42,36.04,14.42,56.53Z"/>
      <path class="cls-7" d="m1010.96,668.93c0,18.2-3.09,35.69-8.77,51.95-10.69,30.54-30.52,56.8-56.21,75.46-3.89,2.85-7.94,5.52-12.1,7.97-23.51,14.02-50.99,22.04-80.33,22.04-17.94,0-35.18-3.01-51.25-8.53-14.37-4.96-27.8-11.91-39.95-20.58-40.06-28.52-66.21-75.38-66.21-128.31,0-3.65.13-7.28.37-10.85,5.57-81.85,73.78-146.57,157.04-146.57s157.41,70.5,157.41,157.41Z"/>
      <circle class="cls-7" cx="667.15" cy="541.94" r="37.84" transform="translate(-7.55 1074.46) rotate(-77.37)"/>
      <circle class="cls-7" cx="1061.43" cy="561.98" r="50.46" transform="translate(-86.49 915.15) rotate(-45)"/>
      <path class="cls-1" d="m778.59,1016.84h160.72s-8.14-14.09-26.65-7.05c.74-31.09-39.23-33.31-42.19-8.88-14.06-21.47-15.05,6.66-15.05,6.66,0,0-24.18-22.95-43.42-3.7-15.54-14.06-34.74-6.19-33.41,12.97Z"/>
      <path class="cls-3" d="m843.07,970.75c0,3.78-3.07,6.85-6.85,6.85s-6.85-3.07-6.85-6.85,3.07-6.85,6.85-6.85,6.85,3.07,6.85,6.85Z"/>
      <path class="cls-3" d="m877.79,922.56c0,8.99-7.29,16.28-16.28,16.28s-16.28-7.29-16.28-16.28,7.29-16.28,16.28-16.28,16.28,7.29,16.28,16.28Z"/>
      <circle class="cls-3" cx="840.73" cy="875.88" r="4.5"/>
      <path class="cls-3" d="m870.27,843.34c0,3.93-3.19,7.12-7.12,7.12s-7.12-3.19-7.12-7.12,3.19-7.12,7.12-7.12,7.12,3.19,7.12,7.12Z"/>
      <path class="cls-3" d="m870.27,956.36c0,1.97-1.59,3.56-3.56,3.56s-3.56-1.59-3.56-3.56,1.59-3.56,3.56-3.56,3.56,1.59,3.56,3.56Z"/>
      <path class="cls-3" d="m840.73,898.52c0,3.13-2.54,5.67-5.67,5.67s-5.67-2.54-5.67-5.67,2.54-5.67,5.67-5.67,5.67,2.54,5.67,5.67Z"/>
      <path class="cls-1" d="m660.61,586.61s-8.86-9.08-18.83,0c11.52,9.31,18.83,0,18.83,0Z"/>
      <path class="cls-1" d="m663.41,570.02s-2.15-12.51-15.51-10.68c4.21,14.2,15.51,10.68,15.51,10.68Z"/>
      <path class="cls-1" d="m667.58,570.41s11.22-5.94,5.31-18.07c-12.18,8.43-5.31,18.07-5.31,18.07Z"/>
      <path class="cls-1" d="m1033.49,583.77s11.22-5.94,5.31-18.07c-12.18,8.43-5.31,18.07-5.31,18.07Z"/>
      <path class="cls-1" d="m1044.93,666.77s4.38-11.91-8.12-17c-3.43,14.41,8.12,17,8.12,17Z"/>
      <path class="cls-1" d="m1079.61,680.44s6.59,10.85,18.35,4.24c-9.13-11.66-18.35-4.24-18.35-4.24Z"/>
      <path class="cls-1" d="m886.05,718.27s3.41,12.22,16.52,9.04c-5.64-13.7-16.52-9.04-16.52-9.04Z"/>
      <path class="cls-1" d="m1051.15,600.48s23.35,13.14,38.15-11.19c-28.87-12.01-38.15,11.19-38.15,11.19Z"/>
      <path class="cls-1" d="m855.84,492.89s25.35-8.65,17.08-35.9c-28.19,13.52-17.08,35.9-17.08,35.9Z"/>
      <path class="cls-1" d="m1043.79,584.11s17.97,5.92,24.9-12.95c-21.64-4.38-24.9,12.95-24.9,12.95Z"/>
      <path class="cls-1" d="m1010.81,594.97s2.84-18.7-16.92-22.4c-.72,22.06,16.92,22.4,16.92,22.4Z"/>
      <path class="cls-1" d="m845.54,504.1s2.84-18.7-16.92-22.4c-.72,22.06,16.92,22.4,16.92,22.4Z"/>
      <path class="cls-1" d="m1080.56,704.86s2.84-18.7-16.92-22.4c-.72,22.06,16.92,22.4,16.92,22.4Z"/>
      <path class="cls-1" d="m660.3,557.53s19.27-10.34,8.99-31.18c-20.9,14.63-8.99,31.18-8.99,31.18Z"/>
      <path class="cls-1" d="m913.6,732.96s19.27-10.34,8.99-31.18c-20.9,14.63-8.99,31.18-8.99,31.18Z"/>
      <path class="cls-7" d="m1088.78,658.27c0,10.25-8.31,18.55-18.55,18.55s-18.55-8.31-18.55-18.55,8.31-18.55,18.55-18.55,18.55,8.31,18.55,18.55Z"/>
      <path class="cls-1" d="m845.69,737.64c0,33.56-17.27,63.09-43.39,80.17-14.37-4.96-27.8-11.91-39.95-20.58-40.06-28.52-66.21-75.38-66.21-128.31,0-3.65.13-7.28.37-10.85,15.24-10.26,33.58-16.23,53.36-16.23,48.91,0,89.26,36.65,95.1,83.96.48,3.89.72,7.84.72,11.83Z"/>
      <path class="cls-1" d="m945.98,796.33c-3.89,2.85-7.94,5.52-12.1,7.97-23.51,14.02-50.99,22.04-80.33,22.04-17.94,0-35.18-3.01-51.25-8.53-14.37-4.96-27.8-11.91-39.95-20.58,9.49-38.35,42.35-67.49,82.63-71.43,3.07-.29,6.18-.45,9.33-.45,25.43,0,48.51,10.02,65.51,26.33,12.5,11.99,21.72,27.35,26.17,44.64Z"/>
      <path class="cls-1" d="m1002.19,720.87c-10.69,30.54-30.52,56.8-56.21,75.46-3.89,2.85-7.94,5.52-12.1,7.97-9.86-9.81-15.97-23.4-15.97-38.41,0-4.9.67-9.68,1.89-14.21,6.24-23.03,27.27-39.95,52.27-39.95,11.14,0,21.51,3.38,30.12,9.14Z"/>
    </g>
    <circle class="cls-2" cx="760.05" cy="711.59" r="34.76" transform="translate(-214.46 345.02) rotate(-22.5)"/>
    <path class="cls-2" d="m808.71,776.8c0,8.1-6.57,14.67-14.67,14.67s-14.67-6.57-14.67-14.67,6.57-14.67,14.67-14.67,14.67,6.57,14.67,14.67Z"/>
  </g>
  <g>
    <path class="cls-4" d="m945.86,800.97s31.65,64.65,97.91,48.67c15.41,42.86,44.46,25.42,44.46,25.42,0,0,21.07,32.81,49.4-3.21,10.17,49.7,64.65,1.03,77.73-12.05,26.15,40.68,86.44,29.06,79.9-7.99,45.04,21.79,72.64-10.17,74.82-33.41-57.39,4.36-191-37.2-191-37.2"/>
    <path class="cls-4" d="m1065.61,528.8s9.36,22.38,34.46,26.95c-11.49,13.72,17.48,39.64,37.81,29.98,7.62,24.9,36.83,9.76,36.83,9.76,0,0,41.21,16.16,55.04-9.76,25.01,17.79,87.01-4.57,71.77-47.26-31,16.26-145.91-25.41-145.91-25.41l-90,15.73Z"/>
    <path class="cls-4" d="m1095.7,394.65s6.35,23.38,32.39,11.69c1.15,35.57,42.98,34.52,45.7,14.97,15.42,18.57,27.14,1.8,27.14,1.8,0,0,45.7,7.62,44.69-28.46-1.02-36.08-140.26-22.87-149.92,0Z"/>
    <polygon class="cls-3" points="1200.93 998.87 1148.49 998.87 1173.23 301.35 1176.19 301.35 1200.93 998.87"/>
    <path class="cls-1" d="m1174.71,276.41s-4.02,28.09-21.85,34.95c16.45-1.36,20.22-5.84,20.22-5.84,0,0,7.89,11.66,23.65,5.84-15.08-4.1-22.02-34.95-22.02-34.95Z"/>
    <path class="cls-1" d="m1114.95,1002.78h127.55s8.77-56.12,0-62.5c-8.77-6.38-7.17,52.62-7.17,52.62,0,0-11.96-27.27-15.94-21.61-3.99,5.66-.8,21.61-.8,21.61,0,0-27.9-27.11-33.48-15.15-5.58,11.96-4.43,17.54-4.43,17.54,0,0-17.1-34.28-33.84-30.29-16.74,3.99-17.54,26.31-17.54,26.31,0,0-7.18-35.87-14.35-35.08-7.17.8,0,46.56,0,46.56Z"/>
    <path class="cls-4" d="m1174.71,691.85s-10.33,52.39-67.73,65.15c48.81,35.97,67.73,7.17,67.73,7.17,0,0,31.74,36.67,71.69,2.39-32.6-6.38-60.51-30.04-71.69-74.71Z"/>
    <path class="cls-4" d="m1174.71,448.47s-20.96,62.34-74.64,68.64c28.43,15.07,37.32,5.5,37.32,5.5,0,0,22.34,35.87,59.34,7.17,17.87,16.74,33.02.8,33.02.8,0,0-38.33-14.35-55.04-82.11Z"/>
    <path class="cls-4" d="m1174.71,332.84s-14.89,39.64-46.62,36c14.84,21.15,33.77,9.28,33.77,9.28,0,0,16.7,12.62,23.75-.37,2.97,11.88,13.56,6.68,15.32-2.6,8.07,4.82,15.86,4.08,19.57-4.45-39.52-1.86-45.79-37.85-45.79-37.85Z"/>
    <polyline class="cls-3" points="1183.62 609.62 1195.81 595.5 1198.86 595.5 1187.66 624.81"/>
    <polyline class="cls-3" points="1174.3 418.4 1164.91 413.96 1162.27 420.57 1170.91 427.69"/>
    <polyline class="cls-3" points="1163.29 812.39 1148.49 797.65 1144.99 807.82 1158.71 831.7"/>
    <polyline class="cls-3" points="1186.66 898.28 1203.94 878.46 1209.53 885.06 1195.81 923.18"/>
    <path class="cls-11" d="m1174.98,880.49c0,4.77-3.87,8.64-8.64,8.64s-8.64-3.87-8.64-8.64,3.87-8.64,8.64-8.64,8.64,3.87,8.64,8.64Z"/>
    <path class="cls-11" d="m1189.75,943.76c0,2.95-2.39,5.34-5.34,5.34s-5.34-2.39-5.34-5.34,2.39-5.34,5.34-5.34,5.34,2.39,5.34,5.34Z"/>
    <path class="cls-11" d="m1186.66,913.76c0,2.09-1.7,3.79-3.79,3.79s-3.79-1.7-3.79-3.79,1.7-3.79,3.79-3.79,3.79,1.7,3.79,3.79Z"/>
    <circle class="cls-11" cx="1180.3" cy="792.06" r="5.59"/>
    <path class="cls-11" d="m1173.22,626.22c0,.78-.63,1.41-1.41,1.41s-1.41-.63-1.41-1.41.63-1.41,1.41-1.41,1.41.63,1.41,1.41Z"/>
    <path class="cls-11" d="m1185.13,585.68c0,2.67-2.16,4.83-4.83,4.83s-4.83-2.16-4.83-4.83,2.16-4.83,4.83-4.83,4.83,2.16,4.83,4.83Z"/>
    <path class="cls-11" d="m1177.01,565.15c0,1.82-1.48,3.3-3.3,3.3s-3.3-1.48-3.3-3.3,1.48-3.3,3.3-3.3,3.3,1.48,3.3,3.3Z"/>
    <path class="cls-11" d="m1176.69,435.79c0,.82-.67,1.49-1.49,1.49s-1.49-.67-1.49-1.49.67-1.49,1.49-1.49,1.49.67,1.49,1.49Z"/>
    <path class="cls-1" d="m1174.71,595.5s-57.15,199.47-252.51,196.39c94.6,68.89,136.75,37.02,136.75,37.02,0,0,4.11,32.9,28.79,37.02,24.68,4.11,38.04-21.59,38.04-21.59,0,0,45.24,48.33,90.48,0,32.9,35.99,60.66,18.51,65.81-8.23,67.86,27.76,106.93-27.76,106.93-27.76,0,0-182.86-12.34-214.3-212.84Z"/>
    <path class="cls-1" d="m1174.96,416.39s-33.78,110.99-131.19,95.54c31.85,33.25,70.71,27.16,70.71,27.16,0,0-4.68,22.48,13.58,29.04,18.26,6.56,30.44-7.49,30.44-7.49,0,0,42.15,40.27,73.52-6.56,32.31,37.47,79.14,1.87,86.17-32.78-45.43,16.39-98.26-17.8-117.74-44.96-19.48-27.16-25.5-59.94-25.5-59.94Z"/>
    <path class="cls-1" d="m1174.71,311.7s-55.71,69.42-122.74,55.27c43.66,62.11,78.1,24.6,78.1,24.6,0,0,18.56,36.9,44.64,6.15,26.08,33.21,45.14-1.23,45.14-1.23,0,0,44.28,33.21,78.1-20.29-63.95,9.22-123.24-64.5-123.24-64.5Z"/>
    <path class="cls-4" d="m1171.38,597.91s-41.69,51.76-82.4,53.23c22.07,7.36,41.2-7.41,41.2-7.41,0,0-9.81,14.76,0,15.74,9.81.98,24.52-7.36,24.52-7.36,0,0,35.8,27.96,56.4-2.94,23.05,12.75,40.71-7.85,40.71-7.85,0,0-50.03,18.12-80.44-43.42Z"/>
  </g>
  <g>
    <path class="cls-1" d="m1465.97,1018.57h-171.89s-7.61-69.08,51.58-61.44c-1.69-56.62,67.65-43.16,57.5,0,43.97-42.25,65.2,11.93,65.2,11.93,0,0,35.24-66.97,90.72-12.79,42.79-48.99,86.76,17.17,47.02,62.31h-140.12Z"/>
    <g>
      <polyline class="cls-9" points="1703.64 611.77 1685.9 633 1626.31 615.37 1617.86 640 1690.58 647.84 1712.01 619.54"/>
      <path class="cls-9" d="m1604.55,573.52c1-1.34,84.03-58.59,84.03-58.59l4.83,14.81-68.43,77.59"/>
      <polyline class="cls-9" points="1250.26 502.21 1257.85 562.36 1316.31 611.77 1332.64 582.03 1270.56 554.87 1262.88 502.21"/>
      <path class="cls-9" d="m1497.95,849.26c1.34-2.54,75.89-92.34,75.89-92.34l-23.72-6.78-52.17,68.2"/>
      <polyline class="cls-9" points="1448.46 838.92 1380.69 753.36 1367.98 759.75 1448.46 862.25"/>
      <rect class="cls-9" x="1431.15" y="763.79" width="69.64" height="253.94"/>
      <path class="cls-7" d="m1602.7,447.02c0,54.6-32.4,101.61-79.01,122.88-17.05,7.81-36.03,12.14-56.04,12.14-74.56,0-135.02-60.43-135.02-135.02s60.46-135.05,135.02-135.05c51.13,0,95.63,28.43,118.54,70.35,10.52,19.19,16.5,41.24,16.5,64.7Z"/>
      <path class="cls-1" d="m1602.7,447.02c0,54.6-32.4,101.61-79.01,122.88-34.9-15.37-59.27-50.27-59.27-90.88,0-54.82,44.45-99.26,99.26-99.26,7.75,0,15.28.88,22.51,2.56,10.52,19.19,16.5,41.24,16.5,64.7Z"/>
      <path class="cls-7" d="m1647.82,619.53c0,20.83-3.54,40.85-10.04,59.45-12.23,34.96-34.93,65.01-64.34,86.36-4.45,3.26-9.09,6.31-13.85,9.12-26.91,16.05-58.36,25.23-91.94,25.23-20.53,0-40.27-3.45-58.66-9.76-16.44-5.67-31.82-13.64-45.73-23.55-45.85-32.64-75.77-86.27-75.77-146.85,0-4.18.15-8.33.43-12.42,6.38-93.68,84.44-167.75,179.74-167.75s180.16,80.69,180.16,180.16Z"/>
      <circle class="cls-7" cx="1254.32" cy="474.19" r="43.31" transform="translate(517.36 1594.49) rotate(-77.37)"/>
      <circle class="cls-7" cx="1705.59" cy="497.12" r="57.75" transform="translate(148.04 1351.63) rotate(-45)"/>
      <path class="cls-1" d="m1381.87,1017.72h183.95s-9.32-16.13-30.5-8.07c.85-35.58-44.9-38.12-48.29-10.17-16.1-24.57-17.22,7.62-17.22,7.62,0,0-27.67-26.26-49.7-4.24-17.79-16.1-39.76-7.08-38.24,14.84Z"/>
      <path class="cls-3" d="m1455.66,964.97c0,4.33-3.51,7.84-7.84,7.84s-7.84-3.51-7.84-7.84,3.51-7.84,7.84-7.84,7.84,3.51,7.84,7.84Z"/>
      <path class="cls-3" d="m1495.41,909.81c0,10.29-8.34,18.64-18.64,18.64s-18.64-8.34-18.64-18.64,8.34-18.64,18.64-18.64,18.64,8.34,18.64,18.64Z"/>
      <circle class="cls-3" cx="1452.98" cy="856.39" r="5.15"/>
      <path class="cls-3" d="m1486.8,819.15c0,4.5-3.65,8.15-8.15,8.15s-8.15-3.65-8.15-8.15,3.65-8.15,8.15-8.15,8.15,3.65,8.15,8.15Z"/>
      <path class="cls-3" d="m1486.8,948.5c0,2.25-1.83,4.08-4.08,4.08s-4.08-1.83-4.08-4.08,1.83-4.08,4.08-4.08,4.08,1.83,4.08,4.08Z"/>
      <path class="cls-3" d="m1452.98,882.3c0,3.59-2.91,6.49-6.49,6.49s-6.49-2.91-6.49-6.49,2.91-6.49,6.49-6.49,6.49,2.91,6.49,6.49Z"/>
      <path class="cls-1" d="m1246.83,525.32s-10.14-10.4-21.56,0c13.19,10.65,21.56,0,21.56,0Z"/>
      <path class="cls-1" d="m1250.03,506.33s-2.46-14.32-17.76-12.22c4.82,16.25,17.76,12.22,17.76,12.22Z"/>
      <path class="cls-1" d="m1254.81,506.77s12.84-6.8,6.08-20.68c-13.94,9.65-6.08,20.68-6.08,20.68Z"/>
      <path class="cls-1" d="m1673.61,522.06s12.84-6.8,6.08-20.68c-13.94,9.65-6.08,20.68-6.08,20.68Z"/>
      <path class="cls-1" d="m1686.69,617.06s5.01-13.64-9.29-19.45c-3.93,16.49,9.29,19.45,9.29,19.45Z"/>
      <path class="cls-1" d="m1726.38,632.7s7.54,12.42,21,4.85c-10.45-13.35-21-4.85-21-4.85Z"/>
      <path class="cls-1" d="m1504.86,676.01s3.91,13.99,18.91,10.35c-6.46-15.67-18.91-10.35-18.91-10.35Z"/>
      <path class="cls-1" d="m1693.81,541.19s26.72,15.04,43.66-12.8c-33.04-13.74-43.66,12.8-43.66,12.8Z"/>
      <path class="cls-1" d="m1470.28,418.05s29.02-9.9,19.55-41.08c-32.26,15.47-19.55,41.08-19.55,41.08Z"/>
      <path class="cls-1" d="m1685.39,522.46s20.56,6.77,28.5-14.83c-24.76-5.01-28.5,14.83-28.5,14.83Z"/>
      <path class="cls-1" d="m1647.65,534.88s3.26-21.4-19.36-25.64c-.82,25.25,19.36,25.64,19.36,25.64Z"/>
      <path class="cls-1" d="m1458.49,430.87s3.26-21.4-19.36-25.64c-.82,25.25,19.36,25.64,19.36,25.64Z"/>
      <path class="cls-1" d="m1727.48,660.66s3.26-21.4-19.36-25.64c-.82,25.25,19.36,25.64,19.36,25.64Z"/>
      <path class="cls-1" d="m1246.47,492.03s22.05-11.83,10.29-35.68c-23.92,16.75-10.29,35.68-10.29,35.68Z"/>
      <path class="cls-1" d="m1536.39,692.81s22.05-11.83,10.29-35.68c-23.92,16.75-10.29,35.68-10.29,35.68Z"/>
      <path class="cls-7" d="m1736.89,607.33c0,11.73-9.51,21.23-21.23,21.23s-21.23-9.51-21.23-21.23,9.51-21.23,21.23-21.23,21.23,9.51,21.23,21.23Z"/>
      <path class="cls-1" d="m1458.66,698.17c0,38.41-19.77,72.21-49.66,91.76-16.44-5.67-31.82-13.64-45.73-23.55-45.85-32.64-75.77-86.27-75.77-146.85,0-4.18.15-8.33.43-12.42,17.45-11.74,38.44-18.58,61.07-18.58,55.98,0,102.16,41.94,108.84,96.09.55,4.45.82,8.97.82,13.54Z"/>
      <path class="cls-1" d="m1573.45,765.34c-4.45,3.26-9.09,6.31-13.85,9.12-26.91,16.05-58.36,25.23-91.94,25.23-20.53,0-40.27-3.45-58.66-9.76-16.44-5.67-31.82-13.64-45.73-23.55,10.86-43.9,48.47-77.24,94.57-81.75,3.51-.34,7.08-.52,10.68-.52,29.1,0,55.52,11.47,74.98,30.14,14.31,13.73,24.86,31.3,29.96,51.1Z"/>
      <path class="cls-1" d="m1637.78,678.98c-12.23,34.96-34.93,65.01-64.34,86.36-4.45,3.26-9.09,6.31-13.85,9.12-11.29-11.23-18.27-26.78-18.27-43.96,0-5.61.76-11.07,2.17-16.26,7.14-26.36,31.21-45.73,59.82-45.73,12.75,0,24.62,3.87,34.47,10.46Z"/>
    </g>
    <circle class="cls-2" cx="1360.64" cy="668.35" r="39.79" transform="translate(-152.19 571.57) rotate(-22.5)"/>
    <path class="cls-2" d="m1416.33,743c0,9.27-7.52,16.79-16.79,16.79s-16.79-7.52-16.79-16.79,7.52-16.79,16.79-16.79,16.79,7.52,16.79,16.79Z"/>
  </g>
  <g>
    <path class="cls-4" d="m1609.38,789.14s33.29,67.99,102.96,51.18c16.2,45.07,46.76,26.74,46.76,26.74,0,0,22.15,34.5,51.95-3.37,10.69,52.26,67.99,1.08,81.74-12.67,27.5,42.78,90.9,30.56,84.03-8.4,47.36,22.92,76.39-10.69,78.68-35.14-60.35,4.58-200.86-39.12-200.86-39.12"/>
    <path class="cls-4" d="m1735.31,502.92s9.84,23.54,36.24,28.35c-12.08,14.43,18.38,41.69,39.76,31.53,8.02,26.19,38.73,10.27,38.73,10.27,0,0,43.33,16.99,57.88-10.27,26.3,18.71,91.51-4.81,75.47-49.7-32.6,17.1-153.45-26.72-153.45-26.72l-94.64,16.55Z"/>
    <path class="cls-4" d="m1766.95,361.85s6.67,24.58,34.07,12.29c1.21,37.41,45.2,36.3,48.06,15.75,16.21,19.53,28.54,1.89,28.54,1.89,0,0,48.06,8.02,46.99-29.93-1.07-37.95-147.51-24.05-157.66,0Z"/>
    <polygon class="cls-3" points="1877.62 997.26 1822.47 997.26 1848.49 263.73 1851.6 263.73 1877.62 997.26"/>
    <path class="cls-1" d="m1850.04,237.5s-4.23,29.54-22.97,36.75c17.3-1.43,21.26-6.14,21.26-6.14,0,0,8.29,12.26,24.87,6.14-15.86-4.32-23.16-36.75-23.16-36.75Z"/>
    <path class="cls-1" d="m1787.2,1001.38h134.14s9.22-59.02,0-65.73c-9.22-6.71-7.55,55.33-7.55,55.33,0,0-12.58-28.68-16.77-22.72-4.19,5.96-.84,22.72-.84,22.72,0,0-29.34-28.5-35.21-15.93-5.87,12.58-4.66,18.44-4.66,18.44,0,0-17.98-36.05-35.58-31.86-17.61,4.19-18.44,27.67-18.44,27.67,0,0-7.55-37.73-15.09-36.89-7.55.84,0,48.96,0,48.96Z"/>
    <path class="cls-4" d="m1850.04,674.39s-10.87,55.1-71.23,68.51c51.33,37.82,71.23,7.55,71.23,7.55,0,0,33.38,38.57,75.39,2.52-34.28-6.71-63.64-31.59-75.39-78.57Z"/>
    <path class="cls-4" d="m1850.04,418.45s-22.04,65.56-78.49,72.18c29.9,15.85,39.25,5.79,39.25,5.79,0,0,23.49,37.73,62.41,7.55,18.79,17.61,34.72.84,34.72.84,0,0-40.31-15.09-57.88-86.35Z"/>
    <path class="cls-4" d="m1850.04,296.84s-15.65,41.69-49.03,37.86c15.61,22.25,35.52,9.76,35.52,9.76,0,0,17.56,13.27,24.98-.39,3.12,12.49,14.26,7.02,16.11-2.73,8.48,5.07,16.68,4.29,20.58-4.68-41.56-1.95-48.15-39.81-48.15-39.81Z"/>
    <polyline class="cls-3" points="1859.41 587.92 1872.24 573.07 1875.44 573.07 1863.67 603.89"/>
    <polyline class="cls-3" points="1849.61 386.82 1839.74 382.16 1836.96 389.11 1846.05 396.59"/>
    <polyline class="cls-3" points="1838.03 801.16 1822.47 785.66 1818.79 796.35 1833.22 821.47"/>
    <polyline class="cls-3" points="1862.62 891.48 1880.79 870.64 1886.67 877.58 1872.24 917.67"/>
    <path class="cls-11" d="m1850.32,872.77c0,5.02-4.07,9.09-9.09,9.09s-9.09-4.07-9.09-9.09,4.07-9.09,9.09-9.09,9.09,4.07,9.09,9.09Z"/>
    <path class="cls-11" d="m1865.87,939.31c0,3.1-2.51,5.61-5.61,5.61s-5.61-2.51-5.61-5.61,2.51-5.61,5.61-5.61,5.61,2.51,5.61,5.61Z"/>
    <path class="cls-11" d="m1862.62,907.76c0,2.2-1.78,3.99-3.99,3.99s-3.99-1.78-3.99-3.99,1.78-3.99,3.99-3.99,3.99,1.78,3.99,3.99Z"/>
    <circle class="cls-11" cx="1855.92" cy="779.78" r="5.88"/>
    <path class="cls-11" d="m1848.48,605.38c0,.82-.66,1.48-1.48,1.48s-1.48-.66-1.48-1.48.66-1.48,1.48-1.48,1.48.66,1.48,1.48Z"/>
    <path class="cls-11" d="m1861,562.74c0,2.8-2.27,5.08-5.08,5.08s-5.08-2.27-5.08-5.08,2.27-5.08,5.08-5.08,5.08,2.27,5.08,5.08Z"/>
    <path class="cls-11" d="m1852.46,541.15c0,1.92-1.56,3.47-3.47,3.47s-3.47-1.56-3.47-3.47,1.56-3.47,3.47-3.47,3.47,1.56,3.47,3.47Z"/>
    <path class="cls-11" d="m1852.13,405.11c0,.87-.7,1.57-1.57,1.57s-1.57-.7-1.57-1.57.7-1.57,1.57-1.57,1.57.7,1.57,1.57Z"/>
    <path class="cls-1" d="m1850.04,573.07s-60.1,209.77-265.55,206.53c99.48,72.45,143.81,38.93,143.81,38.93,0,0,4.33,34.6,30.28,38.93,25.95,4.33,40.01-22.71,40.01-22.71,0,0,47.58,50.82,95.15,0,34.6,37.85,63.8,19.46,69.2-8.65,71.37,29.2,112.46-29.2,112.46-29.2,0,0-192.3-12.98-225.36-223.83Z"/>
    <path class="cls-1" d="m1850.31,384.71s-35.53,116.72-137.97,100.47c33.49,34.97,74.37,28.56,74.37,28.56,0,0-4.92,23.64,14.28,30.53,19.21,6.89,32.01-7.88,32.01-7.88,0,0,44.32,42.35,77.32-6.9,33.98,39.4,83.23,1.97,90.62-34.47-47.77,17.24-103.33-18.71-123.82-47.28-20.48-28.56-26.82-63.04-26.82-63.04Z"/>
    <path class="cls-1" d="m1850.04,274.61s-58.58,73-129.07,58.13c45.92,65.32,82.13,25.87,82.13,25.87,0,0,19.52,38.8,46.94,6.47,27.43,34.92,47.47-1.29,47.47-1.29,0,0,46.56,34.92,82.13-21.34-67.26,9.7-129.6-67.83-129.6-67.83Z"/>
    <path class="cls-4" d="m1846.55,575.6s-43.84,54.43-86.65,55.98c23.21,7.74,43.33-7.79,43.33-7.79,0,0-10.32,15.53,0,16.56,10.32,1.03,25.79-7.74,25.79-7.74,0,0,37.65,29.4,59.32-3.09,24.24,13.41,42.81-8.25,42.81-8.25,0,0-52.61,19.05-84.59-45.66Z"/>
  </g>
  <g>
    <path class="cls-4" d="m3608.88,813.2s27.44,56.04,84.87,42.19c13.36,37.15,38.54,22.04,38.54,22.04,0,0,18.26,28.44,42.82-2.78,8.81,43.08,56.04.89,67.37-10.44,22.67,35.26,74.93,25.19,69.26-6.93,39.04,18.89,62.96-8.81,64.85-28.96-49.74,3.78-165.55-32.24-165.55-32.24"/>
    <path class="cls-4" d="m3712.68,577.29s8.11,19.4,29.87,23.36c-9.96,11.89,15.15,34.36,32.77,25.99,6.61,21.58,31.93,8.46,31.93,8.46,0,0,35.72,14,47.71-8.46,21.68,15.42,75.42-3.96,62.21-40.97-26.87,14.1-126.47-22.03-126.47-22.03l-78.01,13.64Z"/>
    <path class="cls-4" d="m3738.76,461.02s5.5,20.26,28.08,10.13c.99,30.84,37.26,29.92,39.61,12.98,13.36,16.09,23.53,1.56,23.53,1.56,0,0,39.61,6.61,38.73-24.67-.88-31.28-121.58-19.82-129.95,0Z"/>
    <polygon class="cls-3" points="3829.97 984.74 3784.52 984.74 3805.96 380.14 3808.53 380.14 3829.97 984.74"/>
    <path class="cls-1" d="m3807.25,358.52s-3.49,24.34-18.94,30.29c14.26-1.18,17.52-5.06,17.52-5.06,0,0,6.84,10.11,20.5,5.06-13.07-3.56-19.09-30.29-19.09-30.29Z"/>
    <path class="cls-1" d="m3755.45,988.13h110.56s7.6-48.65,0-54.17c-7.6-5.53-6.22,45.61-6.22,45.61,0,0-10.37-23.64-13.82-18.73-3.46,4.91-.69,18.73-.69,18.73,0,0-24.19-23.49-29.02-13.13-4.84,10.37-3.84,15.2-3.84,15.2,0,0-14.82-29.71-29.33-26.26-14.51,3.45-15.2,22.8-15.2,22.8,0,0-6.22-31.1-12.44-30.4-6.22.69,0,40.35,0,40.35Z"/>
    <path class="cls-4" d="m3807.25,718.62s-8.96,45.41-58.71,56.47c42.31,31.17,58.71,6.22,58.71,6.22,0,0,27.51,31.79,62.14,2.07-28.25-5.53-52.45-26.04-62.14-64.76Z"/>
    <path class="cls-4" d="m3807.25,507.67s-18.17,54.03-64.7,59.49c24.65,13.06,32.35,4.77,32.35,4.77,0,0,19.37,31.1,51.44,6.22,15.49,14.51,28.62.69,28.62.69,0,0-33.22-12.44-47.71-71.17Z"/>
    <path class="cls-4" d="m3807.25,407.43s-12.9,34.36-40.41,31.2c12.87,18.34,29.27,8.04,29.27,8.04,0,0,14.48,10.94,20.59-.32,2.57,10.29,11.75,5.79,13.27-2.25,6.99,4.18,13.75,3.54,16.96-3.86-34.25-1.61-39.69-32.81-39.69-32.81Z"/>
    <polyline class="cls-3" points="3814.97 647.35 3825.54 635.1 3828.18 635.1 3818.48 660.52"/>
    <polyline class="cls-3" points="3806.89 481.6 3798.75 477.75 3796.47 483.48 3803.95 489.65"/>
    <polyline class="cls-3" points="3797.35 823.11 3784.52 810.33 3781.49 819.14 3793.38 839.85"/>
    <polyline class="cls-3" points="3817.61 897.55 3832.59 880.37 3837.43 886.1 3825.54 919.14"/>
    <path class="cls-11" d="m3807.48,882.13c0,4.14-3.35,7.49-7.49,7.49s-7.49-3.35-7.49-7.49,3.35-7.49,7.49-7.49,7.49,3.35,7.49,7.49Z"/>
    <path class="cls-11" d="m3820.29,936.98c0,2.55-2.07,4.63-4.63,4.63s-4.63-2.07-4.63-4.63,2.07-4.63,4.63-4.63,4.63,2.07,4.63,4.63Z"/>
    <path class="cls-11" d="m3817.61,910.97c0,1.81-1.47,3.29-3.29,3.29s-3.29-1.47-3.29-3.29,1.47-3.29,3.29-3.29,3.29,1.47,3.29,3.29Z"/>
    <circle class="cls-11" cx="3812.09" cy="805.49" r="4.85"/>
    <path class="cls-11" d="m3805.96,661.74c0,.68-.55,1.22-1.22,1.22s-1.22-.55-1.22-1.22.55-1.22,1.22-1.22,1.22.55,1.22,1.22Z"/>
    <path class="cls-11" d="m3816.28,626.59c0,2.31-1.87,4.18-4.18,4.18s-4.18-1.87-4.18-4.18,1.87-4.18,4.18-4.18,4.18,1.87,4.18,4.18Z"/>
    <path class="cls-11" d="m3809.24,608.8c0,1.58-1.28,2.86-2.86,2.86s-2.86-1.28-2.86-2.86,1.28-2.86,2.86-2.86,2.86,1.28,2.86,2.86Z"/>
    <path class="cls-11" d="m3808.96,496.67c0,.71-.58,1.29-1.29,1.29s-1.29-.58-1.29-1.29.58-1.29,1.29-1.29,1.29.58,1.29,1.29Z"/>
    <path class="cls-1" d="m3807.25,635.1s-49.54,172.9-218.87,170.23c81.99,59.71,118.54,32.08,118.54,32.08,0,0,3.56,28.52,24.95,32.08,21.39,3.56,32.98-18.72,32.98-18.72,0,0,39.21,41.89,78.43,0,28.52,31.19,52.58,16.04,57.04-7.13,58.82,24.06,92.69-24.06,92.69-24.06,0,0-158.5-10.69-185.75-184.49Z"/>
    <path class="cls-1" d="m3807.47,479.85s-29.28,96.2-113.72,82.81c27.6,28.82,61.29,23.54,61.29,23.54,0,0-4.06,19.48,11.77,25.17,15.83,5.68,26.39-6.49,26.39-6.49,0,0,36.53,34.91,63.73-5.68,28.01,32.47,68.6,1.62,74.69-28.41-39.37,14.21-85.17-15.43-102.05-38.97-16.88-23.54-22.1-51.96-22.1-51.96Z"/>
    <path class="cls-1" d="m3807.25,389.11s-48.29,60.17-106.39,47.91c37.84,53.84,67.69,21.32,67.69,21.32,0,0,16.09,31.98,38.69,5.33,22.61,28.78,39.13-1.07,39.13-1.07,0,0,38.38,28.78,67.69-17.59-55.43,8-106.82-55.91-106.82-55.91Z"/>
    <path class="cls-4" d="m3804.36,637.19s-36.14,44.86-71.42,46.14c19.13,6.38,35.71-6.42,35.71-6.42,0,0-8.5,12.8,0,13.65,8.5.85,21.26-6.38,21.26-6.38,0,0,31.03,24.23,48.89-2.55,19.98,11.05,35.29-6.8,35.29-6.8,0,0-43.36,15.7-69.72-37.64Z"/>
  </g>
  <g>
    <path class="cls-1" d="m2172.27,1018.36h-171.23s-7.58-68.81,51.38-61.2c-1.68-56.4,67.38-42.99,57.28,0,43.8-42.08,64.95,11.88,64.95,11.88,0,0,35.1-66.71,90.36-12.75,42.63-48.8,86.43,17.1,46.84,62.06h-139.58Z"/>
    <g>
      <polyline class="cls-9" points="2409.02 613.14 2391.34 634.29 2331.98 616.72 2323.57 641.26 2396.01 649.07 2417.35 620.87"/>
      <path class="cls-9" d="m2310.31,575.03c1-1.33,83.7-58.36,83.7-58.36l4.81,14.75-68.17,77.29"/>
      <polyline class="cls-9" points="1957.4 504 1964.96 563.92 2023.19 613.14 2039.46 583.52 1977.62 556.46 1969.97 504"/>
      <path class="cls-9" d="m2204.12,849.71c1.34-2.53,75.6-91.98,75.6-91.98l-23.63-6.75-51.97,67.93"/>
      <polyline class="cls-9" points="2154.83 839.41 2087.32 754.18 2074.66 760.54 2154.83 862.65"/>
      <rect class="cls-9" x="2137.59" y="764.57" width="69.37" height="252.95"/>
      <path class="cls-7" d="m2308.47,449.02c0,54.39-32.27,101.22-78.7,122.4-16.99,7.78-35.89,12.09-55.82,12.09-74.27,0-134.49-60.2-134.49-134.49s60.23-134.52,134.49-134.52c50.93,0,95.26,28.32,118.08,70.07,10.48,19.11,16.44,41.08,16.44,64.45Z"/>
      <path class="cls-1" d="m2308.47,449.02c0,54.39-32.27,101.22-78.7,122.4-34.76-15.32-59.04-50.08-59.04-90.52,0-54.61,44.27-98.88,98.88-98.88,7.72,0,15.22.88,22.43,2.55,10.48,19.11,16.44,41.08,16.44,64.45Z"/>
      <path class="cls-7" d="m2353.41,620.86c0,20.75-3.53,40.69-10,59.22-12.19,34.82-34.79,64.75-64.09,86.03-4.44,3.25-9.06,6.29-13.8,9.09-26.8,15.98-58.13,25.13-91.59,25.13-20.45,0-40.11-3.43-58.43-9.72-16.38-5.65-31.69-13.58-45.55-23.46-45.67-32.51-75.48-85.93-75.48-146.28,0-4.16.15-8.3.43-12.37,6.35-93.32,84.11-167.1,179.04-167.1s179.47,80.37,179.47,179.47Z"/>
      <circle class="cls-7" cx="1961.44" cy="476.09" r="43.14" transform="translate(1068.02 2285.98) rotate(-77.37)"/>
      <circle class="cls-7" cx="2410.96" cy="498.93" r="57.53" transform="translate(353.35 1850.94) rotate(-45)"/>
      <path class="cls-1" d="m2088.49,1017.52h183.24s-9.28-16.07-30.38-8.03c.84-35.44-44.72-37.97-48.1-10.13-16.03-24.47-17.16,7.59-17.16,7.59,0,0-27.57-26.16-49.51-4.22-17.72-16.03-39.61-7.05-38.09,14.79Z"/>
      <path class="cls-3" d="m2162,964.96c0,4.31-3.49,7.81-7.81,7.81s-7.81-3.49-7.81-7.81,3.49-7.81,7.81-7.81,7.81,3.49,7.81,7.81Z"/>
      <path class="cls-3" d="m2201.59,910.03c0,10.25-8.31,18.57-18.56,18.57s-18.56-8.31-18.56-18.57,8.31-18.56,18.56-18.56,18.56,8.31,18.56,18.56Z"/>
      <circle class="cls-3" cx="2159.33" cy="856.81" r="5.13"/>
      <path class="cls-3" d="m2193.01,819.71c0,4.49-3.64,8.12-8.12,8.12s-8.12-3.64-8.12-8.12,3.64-8.12,8.12-8.12,8.12,3.64,8.12,8.12Z"/>
      <path class="cls-3" d="m2193.01,948.56c0,2.24-1.82,4.06-4.06,4.06s-4.06-1.82-4.06-4.06,1.82-4.06,4.06-4.06,4.06,1.82,4.06,4.06Z"/>
      <path class="cls-3" d="m2159.33,882.62c0,3.57-2.9,6.47-6.47,6.47s-6.47-2.9-6.47-6.47,2.9-6.47,6.47-6.47,6.47,2.9,6.47,6.47Z"/>
      <path class="cls-1" d="m1953.98,527.02s-10.11-10.36-21.47,0c13.14,10.61,21.47,0,21.47,0Z"/>
      <path class="cls-1" d="m1957.17,508.1s-2.45-14.26-17.69-12.17c4.81,16.19,17.69,12.17,17.69,12.17Z"/>
      <path class="cls-1" d="m1961.93,508.55s12.79-6.77,6.05-20.6c-13.88,9.61-6.05,20.6-6.05,20.6Z"/>
      <path class="cls-1" d="m2379.1,523.78s12.79-6.77,6.05-20.6c-13.88,9.61-6.05,20.6-6.05,20.6Z"/>
      <path class="cls-1" d="m2392.14,618.4s4.99-13.58-9.25-19.38c-3.91,16.43,9.25,19.38,9.25,19.38Z"/>
      <path class="cls-1" d="m2431.67,633.99s7.51,12.37,20.92,4.84c-10.41-13.3-20.92-4.84-20.92-4.84Z"/>
      <path class="cls-1" d="m2211.01,677.12s3.89,13.94,18.84,10.31c-6.43-15.61-18.84-10.31-18.84-10.31Z"/>
      <path class="cls-1" d="m2399.23,542.83s26.62,14.98,43.49-12.75c-32.91-13.69-43.49,12.75-43.49,12.75Z"/>
      <path class="cls-1" d="m2176.56,420.17s28.91-9.86,19.48-40.93c-32.14,15.41-19.48,40.93-19.48,40.93Z"/>
      <path class="cls-1" d="m2390.84,524.17s20.48,6.75,28.39-14.77c-24.67-4.99-28.39,14.77-28.39,14.77Z"/>
      <path class="cls-1" d="m2353.24,536.54s3.24-21.32-19.29-25.54c-.82,25.15,19.29,25.54,19.29,25.54Z"/>
      <path class="cls-1" d="m2164.82,432.94s3.24-21.32-19.29-25.54c-.82,25.15,19.29,25.54,19.29,25.54Z"/>
      <path class="cls-1" d="m2432.77,661.84s3.24-21.32-19.29-25.54c-.82,25.15,19.29,25.54,19.29,25.54Z"/>
      <path class="cls-1" d="m1953.62,493.86s21.97-11.78,10.25-35.54c-23.83,16.68-10.25,35.54-10.25,35.54Z"/>
      <path class="cls-1" d="m2242.42,693.87s21.97-11.78,10.25-35.54c-23.83,16.68-10.25,35.54-10.25,35.54Z"/>
      <path class="cls-7" d="m2442.13,608.72c0,11.68-9.47,21.15-21.15,21.15s-21.15-9.47-21.15-21.15,9.47-21.15,21.15-21.15,21.15,9.47,21.15,21.15Z"/>
      <path class="cls-1" d="m2164.98,699.2c0,38.26-19.69,71.93-49.47,91.4-16.38-5.65-31.69-13.58-45.55-23.46-45.67-32.51-75.48-85.93-75.48-146.28,0-4.16.15-8.3.43-12.37,17.38-11.7,38.29-18.51,60.83-18.51,55.76,0,101.77,41.78,108.42,95.72.55,4.44.82,8.93.82,13.49Z"/>
      <path class="cls-1" d="m2279.33,766.11c-4.44,3.25-9.06,6.29-13.8,9.09-26.8,15.98-58.13,25.13-91.59,25.13-20.45,0-40.11-3.43-58.43-9.72-16.38-5.65-31.69-13.58-45.55-23.46,10.82-43.73,48.29-76.94,94.2-81.44,3.49-.33,7.05-.52,10.64-.52,28.99,0,55.3,11.43,74.69,30.02,14.25,13.67,24.77,31.18,29.84,50.9Z"/>
      <path class="cls-1" d="m2343.42,680.09c-12.19,34.82-34.79,64.75-64.09,86.03-4.44,3.25-9.06,6.29-13.8,9.09-11.24-11.18-18.2-26.68-18.2-43.79,0-5.59.76-11.03,2.16-16.2,7.11-26.25,31.09-45.55,59.59-45.55,12.7,0,24.52,3.86,34.34,10.42Z"/>
    </g>
    <circle class="cls-2" cx="2067.35" cy="669.5" r="39.63" transform="translate(-98.84 842.1) rotate(-22.5)"/>
    <path class="cls-2" d="m2122.82,743.85c0,9.24-7.49,16.73-16.73,16.73s-16.73-7.49-16.73-16.73,7.49-16.73,16.73-16.73,16.73,7.49,16.73,16.73Z"/>
  </g>
  <g>
    <path class="cls-10" d="m3134.97,1001.62h297.61s-14.26-52.07-44.36-34.85c-4.75-62.01-56.94-69.93-73.62-27.15-26.19-47.53-166.7-38.1-179.62,37.19"/>
    <g>
      <path class="cls-9" d="m3072.53,564.77l52.56,79.31v27.93l-64.24-99.6c-1.15-1.78-1.42-3.98-.76-5.99h0c1.84-5.52,9.22-6.5,12.44-1.65Z"/>
      <path class="cls-8" d="m3342.72,470.6v209.08c0,66.35-53.75,120.1-120.1,120.1s-120.1-53.75-120.1-120.1v-209.08c0-12.74,1.97-25,5.65-36.5,15.44-48.5,60.83-83.6,114.45-83.6,33.16,0,63.21,13.44,84.93,35.16,10.96,10.96,19.82,24.03,25.9,38.57,5.95,14.27,9.26,29.92,9.26,46.36Z"/>
      <path class="cls-9" d="m3203.88,468.09h42.62c3.13,0,5.67,2.54,5.67,5.67v527.86h-53.96V473.76c0-3.13,2.54-5.67,5.67-5.67Z"/>
      <path class="cls-9" d="m3164.08,557.8l52.56,79.31v27.93l-64.24-99.6c-1.15-1.78-1.43-3.98-.76-5.99h0c1.84-5.52,9.22-6.5,12.44-1.65Z"/>
      <path class="cls-9" d="m3179.26,668.13l67.11,101.26-7.29,47.65-85.3-132.25c-2.5-3.88-3.11-8.68-1.65-13.06h0c4.01-12.03,20.12-14.17,27.13-3.6Z"/>
      <path class="cls-9" d="m3280.22,484.24l-52.56,79.31v27.93l64.24-99.6c1.15-1.78,1.42-3.98.76-5.99h0c-1.84-5.52-9.22-6.5-12.44-1.65Z"/>
      <path class="cls-9" d="m3298.93,751.92l-52.56,79.31v27.93l64.24-99.6c1.15-1.78,1.43-3.98.76-5.99h0c-1.84-5.52-9.22-6.5-12.44-1.65Z"/>
      <circle class="cls-10" cx="3076.55" cy="536.3" r="55.18"/>
      <circle class="cls-10" cx="3339.38" cy="707.8" r="70.03"/>
      <circle class="cls-5" cx="3317.09" cy="678.6" r="16.9"/>
      <circle class="cls-5" cx="3370.45" cy="697.61" r="24.92"/>
      <path class="cls-5" d="m3048.57,530.82c0,3.03-2.46,5.48-5.48,5.48s-5.48-2.46-5.48-5.48,2.46-5.48,5.48-5.48,5.48,2.46,5.48,5.48Z"/>
      <circle class="cls-5" cx="3060.71" cy="505.72" r="7.41"/>
      <circle class="cls-5" cx="3099.73" cy="523.37" r="17.66"/>
      <path class="cls-8" d="m3354.1,631.42s-6.84-23.54,19.68-26.16c4.73,26.16-19.68,26.16-19.68,26.16Z"/>
      <path class="cls-6" d="m3134.97,714.9s14.75-19.58,32.74.09c-18.11,19.46-32.74-.09-32.74-.09Z"/>
      <path class="cls-6" d="m3120.68,681.13s22.42-9.93,28.55,16.01c-25.29,8.18-28.55-16.01-28.55-16.01Z"/>
      <path class="cls-6" d="m3300.62,498.24s-4.3-24.14,22.36-23.91c1.92,26.51-22.36,23.91-22.36,23.91Z"/>
      <path class="cls-6" d="m3279.05,523.66s17.77-33.68,50.22-7.98c-22.95,34.33-50.22,7.98-50.22,7.98Z"/>
      <path class="cls-8" d="m3307.3,779.37s22.9,8.75,8.98,31.48c-23.71-12.01-8.98-31.48-8.98-31.48Z"/>
      <path class="cls-8" d="m3326.2,785.37s30.18-9.37,34.17,24.75c-33.6,6.71-34.17-24.75-34.17-24.75Z"/>
      <path class="cls-8" d="m3065.77,640.87s-15.55-18.95,7.81-31.79c14.64,22.19-7.81,31.79-7.81,31.79Z"/>
      <path class="cls-8" d="m3018.89,600.44s22.47-28.46,48.41,1.23c-27.44,28.17-48.41-1.23-48.41-1.23Z"/>
      <ellipse class="cls-3" cx="3216.44" cy="519.67" rx="6.19" ry="21.36"/>
      <path class="cls-3" d="m3238.18,828.83c0,40.35-3.48,73.05-7.78,73.05s-7.78-32.71-7.78-73.05,3.48-73.05,7.78-73.05,7.78,32.71,7.78,73.05Z"/>
      <ellipse class="cls-3" cx="3216.44" cy="697.61" rx="6.19" ry="21.36"/>
      <ellipse class="cls-3" cx="3231.99" cy="601.01" rx="9.36" ry="49.33"/>
      <path class="cls-10" d="m3333.46,424.24c-100.18-84.7-190.09-22.29-225.29,9.86,15.44-48.5,60.83-83.6,114.45-83.6,33.16,0,63.21,13.44,84.93,35.16,10.96,10.96,19.82,24.03,25.9,38.57Z"/>
      <path class="cls-6" d="m3293.02,1005.64h-249.92s2.21-63.88,65.08-47.56c16.95-57.83,77.61-23.26,59.86,22.43,41.55-31.35,113.55-7.32,124.98,25.14Z"/>
      <path class="cls-8" d="m3158.92,1001.62h-92.19c9.03-13.24,24.64-27.21,50.21-21.16,11.36-20.69,46.09-8.52,41.98,21.16Z"/>
    </g>
  </g>
  <g>
    <path class="cls-4" d="m2639.5,774.44s34.41,70.29,106.45,52.91c16.75,46.6,48.34,27.64,48.34,27.64,0,0,22.9,35.67,53.7-3.49,11.06,54.03,70.29,1.12,84.5-13.1,28.43,44.23,93.98,31.59,86.87-8.69,48.96,23.69,78.98-11.06,81.34-36.33-62.39,4.74-207.65-40.45-207.65-40.45"/>
    <path class="cls-4" d="m2769.69,478.54s10.18,24.33,37.47,29.3c-12.49,14.92,19,43.1,41.1,32.6,8.29,27.07,40.05,10.61,40.05,10.61,0,0,44.8,17.57,59.84-10.61,27.19,19.34,94.6-4.97,78.03-51.38-33.7,17.68-158.64-27.63-158.64-27.63l-97.85,17.11Z"/>
    <path class="cls-4" d="m2802.4,332.69s6.9,25.42,35.22,12.71c1.25,38.68,46.73,37.53,49.68,16.28,16.76,20.19,29.51,1.95,29.51,1.95,0,0,49.69,8.29,48.58-30.94-1.11-39.23-152.5-24.86-162.99,0Z"/>
    <polygon class="cls-3" points="2916.81 989.6 2859.8 989.6 2886.7 231.25 2889.92 231.25 2916.81 989.6"/>
    <path class="cls-1" d="m2888.31,204.13s-4.38,30.54-23.75,38c17.89-1.48,21.98-6.35,21.98-6.35,0,0,8.58,12.68,25.72,6.35-16.4-4.46-23.94-38-23.94-38Z"/>
    <path class="cls-1" d="m2823.34,993.86h138.68s9.53-61.02,0-67.95c-9.53-6.93-7.8,57.21-7.8,57.21,0,0-13-29.65-17.33-23.49-4.33,6.16-.87,23.49-.87,23.49,0,0-30.34-29.47-36.4-16.47-6.07,13-4.82,19.07-4.82,19.07,0,0-18.59-37.27-36.79-32.94-18.2,4.33-19.07,28.6-19.07,28.6,0,0-7.8-39-15.6-38.14-7.8.87,0,50.62,0,50.62Z"/>
    <path class="cls-4" d="m2888.31,655.81s-11.23,56.96-73.64,70.83c53.07,39.1,73.64,7.8,73.64,7.8,0,0,34.51,39.87,77.95,2.6-35.44-6.93-65.79-32.66-77.95-81.23Z"/>
    <path class="cls-4" d="m2888.31,391.21s-22.79,67.78-81.15,74.62c30.91,16.38,40.57,5.98,40.57,5.98,0,0,24.29,39,64.52,7.8,19.43,18.2,35.9.87,35.9.87,0,0-41.67-15.6-59.84-89.27Z"/>
    <path class="cls-4" d="m2888.31,265.48s-16.18,43.1-50.68,39.14c16.14,23,36.72,10.09,36.72,10.09,0,0,18.16,13.72,25.82-.4,3.23,12.91,14.74,7.26,16.65-2.82,8.77,5.25,17.24,4.44,21.28-4.84-42.96-2.02-49.78-41.16-49.78-41.16Z"/>
    <polyline class="cls-3" points="2897.99 566.41 2911.25 551.05 2914.56 551.05 2902.39 582.93"/>
    <polyline class="cls-3" points="2887.86 358.51 2877.65 353.69 2874.78 360.87 2884.18 368.61"/>
    <polyline class="cls-3" points="2875.89 786.86 2859.8 770.84 2856 781.89 2870.91 807.86"/>
    <polyline class="cls-3" points="2901.3 880.24 2920.09 858.69 2926.17 865.88 2911.25 907.31"/>
    <path class="cls-11" d="m2888.6,860.9c0,5.19-4.21,9.39-9.39,9.39s-9.39-4.21-9.39-9.39,4.21-9.39,9.39-9.39,9.39,4.21,9.39,9.39Z"/>
    <path class="cls-11" d="m2904.66,929.69c0,3.2-2.6,5.8-5.8,5.8s-5.8-2.6-5.8-5.8,2.6-5.8,5.8-5.8,5.8,2.6,5.8,5.8Z"/>
    <path class="cls-11" d="m2901.3,897.07c0,2.28-1.85,4.12-4.12,4.12s-4.12-1.85-4.12-4.12,1.85-4.12,4.12-4.12,4.12,1.85,4.12,4.12Z"/>
    <circle class="cls-11" cx="2894.38" cy="764.76" r="6.08"/>
    <path class="cls-11" d="m2886.69,584.46c0,.85-.69,1.53-1.53,1.53s-1.53-.69-1.53-1.53.69-1.53,1.53-1.53,1.53.69,1.53,1.53Z"/>
    <path class="cls-11" d="m2899.63,540.38c0,2.9-2.35,5.25-5.25,5.25s-5.25-2.35-5.25-5.25,2.35-5.25,5.25-5.25,5.25,2.35,5.25,5.25Z"/>
    <path class="cls-11" d="m2890.81,518.06c0,1.98-1.61,3.59-3.59,3.59s-3.59-1.61-3.59-3.59,1.61-3.59,3.59-3.59,3.59,1.61,3.59,3.59Z"/>
    <path class="cls-11" d="m2890.46,377.41c0,.9-.73,1.62-1.62,1.62s-1.62-.73-1.62-1.62.73-1.62,1.62-1.62,1.62.73,1.62,1.62Z"/>
    <path class="cls-1" d="m2888.31,551.05s-62.13,216.87-274.53,213.52c102.85,74.9,148.68,40.24,148.68,40.24,0,0,4.47,35.77,31.3,40.24,26.83,4.47,41.36-23.48,41.36-23.48,0,0,49.19,52.54,98.37,0,35.77,39.13,65.96,20.12,71.55-8.94,73.78,30.18,116.26-30.18,116.26-30.18,0,0-198.8-13.41-232.99-231.4Z"/>
    <path class="cls-1" d="m2888.58,356.32s-36.73,120.67-142.64,103.87c34.62,36.15,76.88,29.53,76.88,29.53,0,0-5.09,24.44,14.77,31.57,19.86,7.13,33.1-8.15,33.1-8.15,0,0,45.82,43.79,79.94-7.13,35.13,40.73,86.05,2.04,93.68-35.64-49.39,17.82-106.83-19.35-128.01-48.88-21.18-29.53-27.72-65.17-27.72-65.17Z"/>
    <path class="cls-1" d="m2888.31,242.5s-60.57,75.47-133.44,60.09c47.47,67.53,84.91,26.74,84.91,26.74,0,0,20.18,40.11,48.53,6.69,28.35,36.1,49.08-1.34,49.08-1.34,0,0,48.14,36.1,84.91-22.06-69.53,10.03-133.99-70.12-133.99-70.12Z"/>
    <path class="cls-4" d="m2884.69,553.67s-45.33,56.27-89.59,57.87c24,8,44.79-8.05,44.79-8.05,0,0-10.67,16.05,0,17.12,10.67,1.07,26.66-8,26.66-8,0,0,38.93,30.4,61.32-3.2,25.06,13.86,44.26-8.53,44.26-8.53,0,0-54.39,19.7-87.45-47.21Z"/>
  </g>
  <g>
    <path class="cls-4" d="m3301.99,784.5s30.26,61.8,93.6,46.52c14.73,40.97,42.51,24.3,42.51,24.3,0,0,20.14,31.36,47.22-3.07,9.72,47.51,61.8.98,74.3-11.52,25,38.89,82.63,27.78,76.38-7.64,43.05,20.83,69.44-9.72,71.52-31.94-54.86,4.17-182.58-35.56-182.58-35.56"/>
    <path class="cls-4" d="m3416.46,524.32s8.95,21.39,32.94,25.77c-10.98,13.12,16.71,37.89,36.14,28.66,7.29,23.8,35.21,9.33,35.21,9.33,0,0,39.39,15.44,52.61-9.33,23.91,17,83.18-4.37,68.61-45.18-29.63,15.55-139.48-24.29-139.48-24.29l-86.03,15.04Z"/>
    <path class="cls-4" d="m3445.22,396.09s6.07,22.35,30.97,11.17c1.1,34.01,41.09,33,43.68,14.31,14.74,17.75,25.95,1.72,25.95,1.72,0,0,43.69,7.29,42.72-27.21-.97-34.49-134.08-21.86-143.31,0Z"/>
    <polygon class="cls-3" points="3545.82 973.68 3495.69 973.68 3519.34 306.9 3522.17 306.9 3545.82 973.68"/>
    <path class="cls-1" d="m3520.76,283.05s-3.85,26.85-20.88,33.41c15.73-1.3,19.33-5.58,19.33-5.58,0,0,7.54,11.15,22.61,5.58-14.42-3.92-21.05-33.41-21.05-33.41Z"/>
    <path class="cls-1" d="m3463.63,977.42h121.93s8.38-53.65,0-59.75c-8.38-6.1-6.86,50.3-6.86,50.3,0,0-11.43-26.07-15.24-20.66-3.81,5.41-.76,20.66-.76,20.66,0,0-26.67-25.91-32.01-14.48-5.33,11.43-4.23,16.77-4.23,16.77,0,0-16.34-32.77-32.35-28.96-16,3.81-16.77,25.15-16.77,25.15,0,0-6.86-34.29-13.72-33.53-6.86.76,0,44.5,0,44.5Z"/>
    <path class="cls-4" d="m3520.76,680.19s-9.88,50.08-64.75,62.28c46.66,34.38,64.75,6.86,64.75,6.86,0,0,30.34,35.06,68.53,2.29-31.16-6.1-57.85-28.71-68.53-71.42Z"/>
    <path class="cls-4" d="m3520.76,447.54s-20.04,59.59-71.35,65.61c27.18,14.41,35.68,5.26,35.68,5.26,0,0,21.36,34.29,56.73,6.86,17.08,16,31.56.76,31.56.76,0,0-36.64-13.72-52.61-78.5Z"/>
    <path class="cls-4" d="m3520.76,337s-14.23,37.89-44.56,34.41c14.19,20.22,32.28,8.87,32.28,8.87,0,0,15.96,12.06,22.7-.35,2.84,11.35,12.96,6.39,14.64-2.48,7.71,4.61,15.16,3.9,18.71-4.26-37.77-1.77-43.77-36.19-43.77-36.19Z"/>
    <polyline class="cls-3" points="3529.27 601.59 3540.93 588.09 3543.84 588.09 3533.14 616.11"/>
    <polyline class="cls-3" points="3520.36 418.79 3511.39 414.55 3508.87 420.87 3517.12 427.67"/>
    <polyline class="cls-3" points="3509.84 795.42 3495.69 781.34 3492.35 791.05 3505.47 813.88"/>
    <polyline class="cls-3" points="3532.18 877.53 3548.7 858.58 3554.05 864.89 3540.93 901.33"/>
    <path class="cls-11" d="m3521.01,860.52c0,4.56-3.7,8.26-8.26,8.26s-8.26-3.7-8.26-8.26,3.7-8.26,8.26-8.26,8.26,3.7,8.26,8.26Z"/>
    <path class="cls-11" d="m3535.14,921.01c0,2.82-2.28,5.1-5.1,5.1s-5.1-2.28-5.1-5.1,2.28-5.1,5.1-5.1,5.1,2.28,5.1,5.1Z"/>
    <path class="cls-11" d="m3532.18,892.32c0,2-1.62,3.62-3.62,3.62s-3.62-1.62-3.62-3.62,1.62-3.62,3.62-3.62,3.62,1.62,3.62,3.62Z"/>
    <circle class="cls-11" cx="3526.1" cy="775.99" r="5.34"/>
    <path class="cls-11" d="m3519.34,617.46c0,.75-.6,1.35-1.35,1.35s-1.35-.6-1.35-1.35.6-1.35,1.35-1.35,1.35.6,1.35,1.35Z"/>
    <path class="cls-11" d="m3530.72,578.7c0,2.55-2.07,4.62-4.62,4.62s-4.62-2.07-4.62-4.62,2.07-4.62,4.62-4.62,4.62,2.07,4.62,4.62Z"/>
    <path class="cls-11" d="m3522.95,559.08c0,1.74-1.41,3.16-3.16,3.16s-3.16-1.41-3.16-3.16,1.41-3.16,3.16-3.16,3.16,1.41,3.16,3.16Z"/>
    <path class="cls-11" d="m3522.65,435.41c0,.79-.64,1.43-1.43,1.43s-1.43-.64-1.43-1.43.64-1.43,1.43-1.43,1.43.64,1.43,1.43Z"/>
    <path class="cls-1" d="m3520.76,588.09s-54.63,190.69-241.38,187.74c90.43,65.86,130.73,35.38,130.73,35.38,0,0,3.93,31.45,27.52,35.38,23.59,3.93,36.37-20.64,36.37-20.64,0,0,43.25,46.2,86.5,0,31.45,34.4,57.99,17.69,62.91-7.86,64.87,26.54,102.22-26.54,102.22-26.54,0,0-174.8-11.79-204.86-203.46Z"/>
    <path class="cls-1" d="m3521,416.86s-32.3,106.1-125.41,91.33c30.44,31.78,67.6,25.97,67.6,25.97,0,0-4.48,21.49,12.98,27.76,17.46,6.27,29.1-7.16,29.1-7.16,0,0,40.29,38.5,70.29-6.27,30.89,35.81,75.66,1.79,82.37-31.34-43.42,15.67-93.93-17.01-112.55-42.98-18.62-25.97-24.38-57.3-24.38-57.3Z"/>
    <path class="cls-1" d="m3520.76,316.79s-53.25,66.36-117.33,52.84c41.74,59.37,74.66,23.51,74.66,23.51,0,0,17.74,35.27,42.67,5.88,24.93,31.74,43.15-1.18,43.15-1.18,0,0,42.32,31.74,74.66-19.4-61.14,8.82-117.81-61.66-117.81-61.66Z"/>
    <path class="cls-4" d="m3517.58,590.39s-39.85,49.48-78.77,50.89c21.1,7.03,39.38-7.08,39.38-7.08,0,0-9.38,14.11,0,15.05,9.38.94,23.44-7.03,23.44-7.03,0,0,34.23,26.73,53.92-2.81,22.04,12.19,38.92-7.5,38.92-7.5,0,0-47.82,17.32-76.89-41.51Z"/>
  </g>
  <g>
    <path class="cls-1" d="m2562.28,1009.21h-147.84s-6.55-59.41,44.36-52.84c-1.45-48.7,58.18-37.12,49.45,0,37.82-36.33,56.07,10.26,56.07,10.26,0,0,30.31-57.59,78.02-11,36.8-42.13,74.62,14.77,40.44,53.59h-120.51Z"/>
    <g>
      <polyline class="cls-9" points="2766.68 659.34 2751.42 677.6 2700.17 662.44 2692.91 683.62 2755.45 690.36 2773.88 666.02"/>
      <path class="cls-9" d="m2681.46,626.44c.86-1.15,72.27-50.39,72.27-50.39l4.15,12.74-58.86,66.73"/>
      <polyline class="cls-9" points="2376.75 565.12 2383.28 616.85 2433.56 659.34 2447.6 633.77 2394.21 610.41 2387.61 565.12"/>
      <path class="cls-9" d="m2589.78,863.6c1.16-2.19,65.27-79.42,65.27-79.42l-20.4-5.83-44.87,58.65"/>
      <polyline class="cls-9" points="2547.22 854.71 2488.93 781.12 2478 786.61 2547.22 874.77"/>
      <rect class="cls-9" x="2532.33" y="790.09" width="59.89" height="218.4"/>
      <path class="cls-7" d="m2679.87,517.65c0,46.96-27.86,87.39-67.95,105.68-14.67,6.72-30.98,10.44-48.2,10.44-64.12,0-116.12-51.97-116.12-116.12s52-116.15,116.12-116.15c43.97,0,82.25,24.45,101.95,60.5,9.05,16.5,14.19,35.47,14.19,55.65Z"/>
      <path class="cls-1" d="m2679.87,517.65c0,46.96-27.86,87.39-67.95,105.68-30.01-13.22-50.98-43.24-50.98-78.16,0-47.15,38.23-85.37,85.37-85.37,6.66,0,13.14.76,19.36,2.2,9.05,16.5,14.19,35.47,14.19,55.65Z"/>
      <path class="cls-7" d="m2718.68,666.01c0,17.92-3.04,35.13-8.63,51.13-10.52,30.07-30.04,55.91-55.33,74.27-3.83,2.81-7.82,5.43-11.91,7.84-23.14,13.8-50.19,21.7-79.08,21.7-17.66,0-34.63-2.96-50.45-8.4-14.14-4.88-27.36-11.73-39.33-20.25-39.43-28.07-65.17-74.2-65.17-126.3,0-3.59.13-7.16.37-10.68,5.48-80.57,72.62-144.27,154.58-144.27s154.95,69.39,154.95,154.95Z"/>
      <circle class="cls-7" cx="2380.24" cy="541.02" r="37.25" transform="translate(1331.9 2745.39) rotate(-77.37)"/>
      <circle class="cls-7" cx="2768.36" cy="560.74" r="49.67" transform="translate(414.33 2121.76) rotate(-45)"/>
      <path class="cls-1" d="m2489.94,1008.48h158.21s-8.01-13.87-26.23-6.94c.73-30.6-38.62-32.79-41.53-8.74-13.84-21.13-14.81,6.56-14.81,6.56,0,0-23.8-22.59-42.75-3.64-15.3-13.84-34.2-6.09-32.89,12.77Z"/>
      <path class="cls-3" d="m2553.41,963.11c0,3.72-3.02,6.74-6.74,6.74s-6.74-3.02-6.74-6.74,3.02-6.74,6.74-6.74,6.74,3.02,6.74,6.74Z"/>
      <path class="cls-3" d="m2587.59,915.68c0,8.85-7.18,16.03-16.03,16.03s-16.03-7.18-16.03-16.03,7.18-16.03,16.03-16.03,16.03,7.18,16.03,16.03Z"/>
      <circle class="cls-3" cx="2551.1" cy="869.73" r="4.43"/>
      <path class="cls-3" d="m2580.19,837.7c0,3.87-3.14,7.01-7.01,7.01s-7.01-3.14-7.01-7.01,3.14-7.01,7.01-7.01,7.01,3.14,7.01,7.01Z"/>
      <path class="cls-3" d="m2580.19,948.95c0,1.94-1.57,3.51-3.51,3.51s-3.51-1.57-3.51-3.51,1.57-3.51,3.51-3.51,3.51,1.57,3.51,3.51Z"/>
      <path class="cls-3" d="m2551.1,892.01c0,3.08-2.5,5.59-5.59,5.59s-5.59-2.5-5.59-5.59,2.5-5.59,5.59-5.59,5.59,2.5,5.59,5.59Z"/>
      <path class="cls-1" d="m2373.8,584.99s-8.72-8.94-18.54,0c11.34,9.16,18.54,0,18.54,0Z"/>
      <path class="cls-1" d="m2376.56,568.66s-2.12-12.31-15.27-10.51c4.15,13.98,15.27,10.51,15.27,10.51Z"/>
      <path class="cls-1" d="m2380.67,569.04s11.04-5.85,5.23-17.79c-11.99,8.3-5.23,17.79-5.23,17.79Z"/>
      <path class="cls-1" d="m2740.85,582.19s11.04-5.85,5.23-17.79c-11.99,8.3-5.23,17.79-5.23,17.79Z"/>
      <path class="cls-1" d="m2752.11,663.89s4.31-11.73-7.99-16.73c-3.38,14.18,7.99,16.73,7.99,16.73Z"/>
      <path class="cls-1" d="m2786.24,677.35s6.49,10.68,18.06,4.18c-8.99-11.48-18.06-4.18-18.06-4.18Z"/>
      <path class="cls-1" d="m2595.72,714.59s3.36,12.03,16.26,8.9c-5.55-13.48-16.26-8.9-16.26-8.9Z"/>
      <path class="cls-1" d="m2758.23,598.64s22.98,12.93,37.55-11.01c-28.41-11.82-37.55,11.01-37.55,11.01Z"/>
      <path class="cls-1" d="m2565.98,492.74s24.96-8.52,16.82-35.33c-27.75,13.31-16.82,35.33-16.82,35.33Z"/>
      <path class="cls-1" d="m2750.99,582.53s17.69,5.82,24.51-12.75c-21.3-4.31-24.51,12.75-24.51,12.75Z"/>
      <path class="cls-1" d="m2718.53,593.21s2.8-18.41-16.65-22.05c-.71,21.72,16.65,22.05,16.65,22.05Z"/>
      <path class="cls-1" d="m2555.84,503.76s2.8-18.41-16.65-22.05c-.71,21.72,16.65,22.05,16.65,22.05Z"/>
      <path class="cls-1" d="m2787.19,701.39s2.8-18.41-16.65-22.05c-.71,21.72,16.65,22.05,16.65,22.05Z"/>
      <path class="cls-1" d="m2373.5,556.36s18.97-10.17,8.85-30.69c-20.58,14.4-8.85,30.69-8.85,30.69Z"/>
      <path class="cls-1" d="m2622.84,729.04s18.97-10.17,8.85-30.69c-20.58,14.4-8.85,30.69-8.85,30.69Z"/>
      <path class="cls-7" d="m2795.28,655.53c0,10.08-8.18,18.26-18.26,18.26s-18.26-8.18-18.26-18.26,8.18-18.26,18.26-18.26,18.26,8.18,18.26,18.26Z"/>
      <path class="cls-1" d="m2555.98,733.65c0,33.03-17,62.1-42.71,78.92-14.14-4.88-27.36-11.73-39.33-20.25-39.43-28.07-65.17-74.2-65.17-126.3,0-3.59.13-7.16.37-10.68,15.01-10.1,33.06-15.98,52.52-15.98,48.14,0,87.86,36.07,93.61,82.64.47,3.83.71,7.71.71,11.65Z"/>
      <path class="cls-1" d="m2654.71,791.42c-3.83,2.81-7.82,5.43-11.91,7.84-23.14,13.8-50.19,21.7-79.08,21.7-17.66,0-34.63-2.96-50.45-8.4-14.14-4.88-27.36-11.73-39.33-20.25,9.34-37.75,41.69-66.43,81.33-70.31,3.02-.29,6.09-.45,9.18-.45,25.03,0,47.75,9.86,64.49,25.92,12.3,11.81,21.38,26.92,25.76,43.95Z"/>
      <path class="cls-1" d="m2710.04,717.15c-10.52,30.07-30.04,55.91-55.33,74.27-3.83,2.81-7.82,5.43-11.91,7.84-9.71-9.65-15.72-23.04-15.72-37.81,0-4.83.66-9.52,1.86-13.98,6.14-22.67,26.84-39.33,51.45-39.33,10.97,0,21.17,3.33,29.65,9Z"/>
    </g>
    <circle class="cls-2" cx="2471.69" cy="708.01" r="34.22" transform="translate(-82.8 999.77) rotate(-22.5)"/>
    <path class="cls-2" d="m2519.58,772.2c0,7.98-6.47,14.44-14.44,14.44s-14.44-6.47-14.44-14.44,6.47-14.44,14.44-14.44,14.44,6.47,14.44,14.44Z"/>
  </g>
</svg>