<?xml version="1.0" encoding="UTF-8"?>
<svg id="forest_front" data-name="forest front" xmlns="http://www.w3.org/2000/svg" viewBox="0 0 4023 1080">
  <defs>
    <style>
      .cls-1 {
        fill: #25a977;
      }

      .cls-2 {
        fill: #1b8d67;
      }

      .cls-3 {
        fill: #6c2950;
      }

      .cls-4 {
        fill: #258265;
      }

      .cls-5 {
        fill: #ffdd3a;
      }

      .cls-6 {
        fill: #f17a40;
      }

      .cls-7 {
        fill: #36cd88;
      }

      .cls-8 {
        fill: #f99d46;
      }

      .cls-9 {
        fill: #853866;
      }

      .cls-10 {
        fill: #fabb50;
      }

      .cls-11 {
        fill: #582949;
      }
    </style>
  </defs>
  <g>
    <path class="cls-10" d="m198.47,1033.1h345.82s-16.57-60.5-51.55-40.5c-5.52-72.05-66.17-81.25-85.55-31.55-30.43-55.23-193.7-44.28-208.72,43.22"/>
    <g>
      <path class="cls-9" d="m125.92,525.48l61.08,92.16v32.46l-74.65-115.74c-1.33-2.07-1.66-4.63-.88-6.96h0c2.14-6.41,10.72-7.55,14.45-1.92Z"/>
      <path class="cls-8" d="m439.87,416.05v242.94c0,77.1-62.45,139.55-139.55,139.55s-139.55-62.45-139.55-139.55v-242.94c0-14.8,2.29-29.05,6.56-42.41,17.94-56.36,70.69-97.14,132.99-97.14,38.53,0,73.45,15.61,98.69,40.86,12.74,12.74,23.03,27.93,30.1,44.82,6.91,16.58,10.76,34.76,10.76,53.87Z"/>
      <path class="cls-9" d="m277.62,413.14h51.36c3.13,0,5.67,2.54,5.67,5.67v614.29h-62.7V418.81c0-3.13,2.54-5.67,5.67-5.67Z"/>
      <path class="cls-9" d="m232.3,517.38l61.08,92.16v32.46l-74.65-115.74c-1.33-2.07-1.66-4.63-.88-6.96h0c2.14-6.41,10.72-7.55,14.45-1.92Z"/>
      <path class="cls-9" d="m249.94,645.58l77.98,117.66-8.47,55.37-99.12-153.67c-2.91-4.51-3.61-10.09-1.92-15.18h0c4.66-13.98,23.38-16.46,31.52-4.18Z"/>
      <path class="cls-9" d="m367.25,431.91l-61.08,92.16v32.46l74.65-115.74c1.33-2.07,1.66-4.63.88-6.96h0c-2.14-6.41-10.72-7.55-14.45-1.92Z"/>
      <path class="cls-9" d="m388.99,742.94l-61.08,92.16v32.46l74.65-115.74c1.33-2.07,1.66-4.63.88-6.96h0c-2.14-6.41-10.72-7.55-14.45-1.92Z"/>
      <circle class="cls-10" cx="130.58" cy="492.4" r="64.12"/>
      <circle class="cls-10" cx="436" cy="691.68" r="81.37"/>
      <circle class="cls-5" cx="410.1" cy="657.74" r="19.64"/>
      <circle class="cls-5" cx="472.09" cy="679.84" r="28.95"/>
      <path class="cls-5" d="m98.08,486.03c0,3.52-2.85,6.37-6.37,6.37s-6.37-2.85-6.37-6.37,2.85-6.37,6.37-6.37,6.37,2.85,6.37,6.37Z"/>
      <circle class="cls-5" cx="112.18" cy="456.86" r="8.61"/>
      <circle class="cls-5" cx="157.52" cy="477.38" r="20.52"/>
      <path class="cls-8" d="m453.1,602.92s-7.95-27.35,22.87-30.39c5.49,30.39-22.87,30.39-22.87,30.39Z"/>
      <path class="cls-6" d="m198.47,699.93s17.14-22.75,38.04.1c-21.04,22.61-38.04-.1-38.04-.1Z"/>
      <path class="cls-6" d="m181.87,660.69s26.05-11.53,33.18,18.61c-29.39,9.51-33.18-18.61-33.18-18.61Z"/>
      <path class="cls-6" d="m390.96,448.17s-4.99-28.05,25.98-27.79c2.23,30.81-25.98,27.79-25.98,27.79Z"/>
      <path class="cls-6" d="m365.89,477.71s20.64-39.14,58.36-9.27c-26.67,39.89-58.36,9.27-58.36,9.27Z"/>
      <path class="cls-8" d="m398.71,774.85s26.61,10.17,10.43,36.58c-27.55-13.96-10.43-36.58-10.43-36.58Z"/>
      <path class="cls-8" d="m420.67,781.81s35.06-10.89,39.71,28.76c-39.04,7.8-39.71-28.76-39.71-28.76Z"/>
      <path class="cls-8" d="m118.06,613.9s-18.07-22.02,9.07-36.94c17.01,25.78-9.07,36.94-9.07,36.94Z"/>
      <path class="cls-8" d="m63.58,566.92s26.11-33.08,56.25,1.43c-31.88,32.73-56.25-1.43-56.25-1.43Z"/>
      <ellipse class="cls-3" cx="293.13" cy="473.07" rx="7.2" ry="24.82"/>
      <path class="cls-3" d="m318.4,832.31c0,46.88-4.05,84.89-9.03,84.89s-9.03-38.01-9.03-84.89,4.04-84.89,9.03-84.89,9.03,38,9.03,84.89Z"/>
      <ellipse class="cls-3" cx="293.13" cy="679.84" rx="7.2" ry="24.82"/>
      <ellipse class="cls-3" cx="311.2" cy="567.59" rx="10.87" ry="57.32"/>
      <path class="cls-10" d="m429.12,362.18c-116.4-98.42-220.88-25.91-261.78,11.46,17.94-56.36,70.69-97.14,132.99-97.14,38.53,0,73.45,15.61,98.69,40.86,12.74,12.74,23.03,27.93,30.1,44.82Z"/>
      <path class="cls-6" d="m382.12,1037.77H91.71s2.56-74.22,75.62-55.27c19.69-67.19,90.19-27.03,69.56,26.06,48.28-36.43,131.94-8.51,145.22,29.21Z"/>
      <path class="cls-8" d="m226.29,1033.1h-107.12c10.49-15.38,28.63-31.62,58.34-24.59,13.21-24.04,53.56-9.9,48.78,24.59Z"/>
    </g>
  </g>
  <g>
    <path class="cls-4" d="m474.78,856.55s28.67,58.55,88.67,44.08c13.95,38.81,40.27,23.02,40.27,23.02,0,0,19.08,29.71,44.73-2.91,9.21,45.01,58.55.93,70.39-10.91,23.68,36.84,78.28,26.31,72.36-7.24,40.79,19.74,65.78-9.21,67.76-30.26-51.97,3.95-172.97-33.69-172.97-33.69"/>
    <path class="cls-4" d="m583.23,610.07s8.48,20.27,31.21,24.41c-10.4,12.43,15.83,35.9,34.24,27.15,6.9,22.55,33.36,8.84,33.36,8.84,0,0,37.32,14.63,49.84-8.84,22.65,16.11,78.8-4.14,64.99-42.8-28.07,14.73-132.14-23.01-132.14-23.01l-81.5,14.25Z"/>
    <path class="cls-4" d="m610.48,488.58s5.75,21.17,29.34,10.59c1.04,32.22,38.93,31.26,41.38,13.56,13.96,16.82,24.58,1.63,24.58,1.63,0,0,41.39,6.9,40.47-25.77-.92-32.68-127.02-20.71-135.77,0Z"/>
    <polygon class="cls-3" points="705.78 1035.77 658.29 1035.77 680.69 404.09 683.38 404.09 705.78 1035.77"/>
    <path class="cls-1" d="m682.03,381.5s-3.64,25.43-19.78,31.65c14.9-1.23,18.31-5.29,18.31-5.29,0,0,7.14,10.56,21.42,5.29-13.66-3.72-19.94-31.65-19.94-31.65Z"/>
    <path class="cls-1" d="m627.92,1039.32h115.52s7.94-50.83,0-56.6c-7.94-5.78-6.5,47.65-6.5,47.65,0,0-10.83-24.7-14.44-19.57-3.61,5.13-.72,19.57-.72,19.57,0,0-25.27-24.55-30.32-13.72-5.05,10.83-4.01,15.88-4.01,15.88,0,0-15.48-31.04-30.64-27.43-15.16,3.61-15.88,23.83-15.88,23.83,0,0-6.5-32.49-13-31.77-6.5.72,0,42.16,0,42.16Z"/>
    <path class="cls-4" d="m682.03,757.73s-9.36,47.45-61.34,59c44.21,32.57,61.34,6.5,61.34,6.5,0,0,28.75,33.21,64.93,2.17-29.52-5.78-54.8-27.2-64.93-67.66Z"/>
    <path class="cls-4" d="m682.03,537.33s-18.98,56.45-67.59,62.16c25.75,13.65,33.8,4.98,33.8,4.98,0,0,20.23,32.49,53.74,6.5,16.18,15.16,29.9.72,29.9.72,0,0-34.71-13-49.84-74.36Z"/>
    <path class="cls-4" d="m682.03,432.6s-13.48,35.9-42.22,32.6c13.44,19.16,30.58,8.4,30.58,8.4,0,0,15.12,11.43,21.51-.34,2.69,10.75,12.28,6.05,13.87-2.35,7.3,4.37,14.36,3.7,17.72-4.03-35.79-1.68-41.47-34.28-41.47-34.28Z"/>
    <polyline class="cls-3" points="690.1 683.26 701.14 670.47 703.91 670.47 693.76 697.02"/>
    <polyline class="cls-3" points="681.66 510.09 673.16 506.07 670.77 512.06 678.59 518.5"/>
    <polyline class="cls-3" points="671.69 866.9 658.29 853.55 655.12 862.75 667.55 884.39"/>
    <polyline class="cls-3" points="692.86 944.68 708.51 926.73 713.57 932.71 701.14 967.23"/>
    <path class="cls-11" d="m682.27,928.57c0,4.32-3.5,7.82-7.82,7.82s-7.82-3.5-7.82-7.82,3.5-7.82,7.82-7.82,7.82,3.5,7.82,7.82Z"/>
    <path class="cls-11" d="m695.66,985.87c0,2.67-2.16,4.83-4.83,4.83s-4.83-2.16-4.83-4.83,2.16-4.83,4.83-4.83,4.83,2.16,4.83,4.83Z"/>
    <path class="cls-11" d="m692.86,958.69c0,1.9-1.54,3.43-3.43,3.43s-3.43-1.54-3.43-3.43,1.54-3.43,3.43-3.43,3.43,1.54,3.43,3.43Z"/>
    <circle class="cls-11" cx="687.1" cy="848.49" r="5.06"/>
    <path class="cls-11" d="m680.69,698.3c0,.71-.57,1.28-1.28,1.28s-1.28-.57-1.28-1.28.57-1.28,1.28-1.28,1.28.57,1.28,1.28Z"/>
    <path class="cls-11" d="m691.47,661.58c0,2.41-1.96,4.37-4.37,4.37s-4.37-1.96-4.37-4.37,1.96-4.37,4.37-4.37,4.37,1.96,4.37,4.37Z"/>
    <path class="cls-11" d="m684.12,642.99c0,1.65-1.34,2.99-2.99,2.99s-2.99-1.34-2.99-2.99,1.34-2.99,2.99-2.99,2.99,1.34,2.99,2.99Z"/>
    <path class="cls-11" d="m683.83,525.83c0,.75-.61,1.35-1.35,1.35s-1.35-.61-1.35-1.35.61-1.35,1.35-1.35,1.35.61,1.35,1.35Z"/>
    <path class="cls-1" d="m682.03,670.47s-51.76,180.65-228.68,177.85c85.67,62.39,123.85,33.52,123.85,33.52,0,0,3.72,29.8,26.07,33.52,22.35,3.72,34.45-19.55,34.45-19.55,0,0,40.97,43.76,81.94,0,29.8,32.59,54.94,16.76,59.59-7.45,61.46,25.14,96.84-25.14,96.84-25.14,0,0-165.6-11.17-194.07-192.75Z"/>
    <path class="cls-1" d="m682.26,508.27s-30.6,100.51-118.81,86.52c28.84,30.11,64.04,24.6,64.04,24.6,0,0-4.24,20.36,12.3,26.29,16.54,5.94,27.57-6.79,27.57-6.79,0,0,38.17,36.47,66.59-5.94,29.26,33.93,71.67,1.7,78.04-29.69-41.14,14.84-88.99-16.12-106.63-40.71-17.64-24.6-23.09-54.29-23.09-54.29Z"/>
    <path class="cls-1" d="m682.03,413.46s-50.45,62.87-111.15,50.06c39.54,56.25,70.73,22.28,70.73,22.28,0,0,16.81,33.41,40.43,5.57,23.62,30.07,40.88-1.11,40.88-1.11,0,0,40.1,30.07,70.73-18.38-57.92,8.35-111.61-58.41-111.61-58.41Z"/>
    <path class="cls-4" d="m679.02,672.66s-37.76,46.87-74.62,48.21c19.99,6.66,37.31-6.71,37.31-6.71,0,0-8.88,13.37,0,14.26,8.88.89,22.21-6.66,22.21-6.66,0,0,32.43,25.32,51.08-2.67,20.88,11.55,36.87-7.11,36.87-7.11,0,0-45.31,16.41-72.85-39.32Z"/>
  </g>
  <g>
    <path class="cls-1" d="m1037.32,1045.58h-182.71s-8.09-73.43,54.83-65.3c-1.8-60.19,71.9-45.87,61.12,0,46.74-44.91,69.3,12.68,69.3,12.68,0,0,37.46-71.18,96.43-13.6,45.49-52.07,92.22,18.25,49.98,66.23h-148.94Z"/>
    <g>
      <polyline class="cls-9" points="1289.95 613.17 1271.09 635.74 1207.75 616.99 1198.77 643.18 1276.08 651.51 1298.85 621.43"/>
      <path class="cls-9" d="m1184.62,572.51c1.07-1.42,89.32-62.27,89.32-62.27l5.13,15.74-72.74,82.47"/>
      <polyline class="cls-9" points="808.03 496.72 816.11 560.65 878.24 613.17 895.6 581.56 829.61 552.69 821.45 496.72"/>
      <path class="cls-9" d="m1071.31,865.61c1.43-2.7,80.67-98.15,80.67-98.15l-25.21-7.2-55.46,72.49"/>
      <polyline class="cls-9" points="1018.71 854.63 946.68 763.68 933.17 770.46 1018.71 879.42"/>
      <rect class="cls-9" x="1000.31" y="774.76" width="74.02" height="269.92"/>
      <path class="cls-7" d="m1182.66,438.05c0,58.04-34.44,108.01-83.98,130.61-18.13,8.3-38.29,12.91-59.57,12.91-79.25,0-143.52-64.24-143.52-143.52s64.27-143.55,143.52-143.55c54.35,0,101.65,30.22,126.01,74.77,11.19,20.4,17.54,43.84,17.54,68.78Z"/>
      <path class="cls-1" d="m1182.66,438.05c0,58.04-34.44,108.01-83.98,130.61-37.09-16.34-63-53.44-63-96.6,0-58.27,47.24-105.51,105.51-105.51,8.24,0,16.25.94,23.93,2.72,11.19,20.4,17.54,43.84,17.54,68.78Z"/>
      <path class="cls-7" d="m1230.62,621.42c0,22.15-3.76,43.42-10.67,63.2-13,37.16-37.13,69.1-68.39,91.8-4.73,3.47-9.66,6.71-14.72,9.7-28.6,17.06-62.03,26.82-97.73,26.82-21.82,0-42.8-3.66-62.35-10.38-17.48-6.03-33.82-14.49-48.61-25.03-48.74-34.7-80.54-91.7-80.54-156.1,0-4.44.16-8.85.45-13.2,6.78-99.58,89.75-178.31,191.05-178.31s191.51,85.77,191.51,191.51Z"/>
      <circle class="cls-7" cx="812.35" cy="466.93" r="46.04" transform="translate(179.1 1157.54) rotate(-77.37)"/>
      <circle class="cls-7" cx="1292.02" cy="491.31" r="61.39" transform="translate(31.02 1057.5) rotate(-45)"/>
      <path class="cls-1" d="m947.93,1044.68h195.53s-9.91-17.15-32.42-8.57c.9-37.82-47.73-40.52-51.33-10.81-17.11-26.11-18.31,8.1-18.31,8.1,0,0-29.42-27.91-52.83-4.5-18.91-17.11-42.26-7.53-40.65,15.78Z"/>
      <path class="cls-3" d="m1026.37,988.6c0,4.6-3.73,8.33-8.33,8.33s-8.33-3.73-8.33-8.33,3.73-8.33,8.33-8.33,8.33,3.73,8.33,8.33Z"/>
      <path class="cls-3" d="m1068.61,929.98c0,10.94-8.87,19.81-19.81,19.81s-19.81-8.87-19.81-19.81,8.87-19.81,19.81-19.81,19.81,8.87,19.81,19.81Z"/>
      <circle class="cls-3" cx="1023.51" cy="873.19" r="5.48"/>
      <path class="cls-3" d="m1059.46,833.61c0,4.79-3.88,8.67-8.67,8.67s-8.67-3.88-8.67-8.67,3.88-8.67,8.67-8.67,8.67,3.88,8.67,8.67Z"/>
      <path class="cls-3" d="m1059.46,971.1c0,2.39-1.94,4.33-4.33,4.33s-4.33-1.94-4.33-4.33,1.94-4.33,4.33-4.33,4.33,1.94,4.33,4.33Z"/>
      <path class="cls-3" d="m1023.51,900.73c0,3.81-3.09,6.9-6.9,6.9s-6.9-3.09-6.9-6.9,3.09-6.9,6.9-6.9,6.9,3.09,6.9,6.9Z"/>
      <path class="cls-1" d="m804.39,521.27s-10.78-11.05-22.91,0c14.02,11.32,22.91,0,22.91,0Z"/>
      <path class="cls-1" d="m807.79,501.09s-2.62-15.22-18.87-12.99c5.13,17.27,18.87,12.99,18.87,12.99Z"/>
      <path class="cls-1" d="m812.87,501.56s13.64-7.23,6.46-21.98c-14.81,10.26-6.46,21.98-6.46,21.98Z"/>
      <path class="cls-1" d="m1258.03,517.82s13.64-7.23,6.46-21.98c-14.81,10.26-6.46,21.98-6.46,21.98Z"/>
      <path class="cls-1" d="m1271.94,618.79s5.33-14.49-9.87-20.68c-4.18,17.53,9.87,20.68,9.87,20.68Z"/>
      <path class="cls-1" d="m1314.13,635.42s8.02,13.2,22.32,5.16c-11.11-14.19-22.32-5.16-22.32-5.16Z"/>
      <path class="cls-1" d="m1078.66,681.45s4.15,14.87,20.1,11c-6.86-16.66-20.1-11-20.1-11Z"/>
      <path class="cls-1" d="m1279.51,538.15s28.4,15.98,46.41-13.61c-35.12-14.61-46.41,13.61-46.41,13.61Z"/>
      <path class="cls-1" d="m1041.9,407.26s30.85-10.53,20.78-43.67c-34.29,16.45-20.78,43.67-20.78,43.67Z"/>
      <path class="cls-1" d="m1270.56,518.24s21.86,7.2,30.3-15.76c-26.32-5.33-30.3,15.76-30.3,15.76Z"/>
      <path class="cls-1" d="m1230.44,531.44s3.46-22.75-20.58-27.25c-.88,26.84,20.58,27.25,20.58,27.25Z"/>
      <path class="cls-1" d="m1029.38,420.89s3.46-22.75-20.58-27.25c-.88,26.84,20.58,27.25,20.58,27.25Z"/>
      <path class="cls-1" d="m1315.3,665.14s3.46-22.75-20.58-27.25c-.88,26.84,20.58,27.25,20.58,27.25Z"/>
      <path class="cls-1" d="m804.01,485.9s23.44-12.57,10.93-37.93c-25.43,17.8-10.93,37.93-10.93,37.93Z"/>
      <path class="cls-1" d="m1112.18,699.32s23.44-12.57,10.93-37.93c-25.43,17.8-10.93,37.93-10.93,37.93Z"/>
      <path class="cls-7" d="m1325.29,608.45c0,12.46-10.1,22.57-22.57,22.57s-22.57-10.1-22.57-22.57,10.1-22.57,22.57-22.57,22.57,10.1,22.57,22.57Z"/>
      <path class="cls-1" d="m1029.55,705.01c0,40.82-21.01,76.75-52.79,97.54-17.48-6.03-33.82-14.49-48.61-25.03-48.74-34.7-80.54-91.7-80.54-156.1,0-4.44.16-8.85.45-13.2,18.55-12.48,40.86-19.75,64.92-19.75,59.5,0,108.59,44.59,115.69,102.14.58,4.73.88,9.53.88,14.4Z"/>
      <path class="cls-1" d="m1151.57,776.41c-4.73,3.47-9.66,6.71-14.72,9.7-28.6,17.06-62.03,26.82-97.73,26.82-21.82,0-42.8-3.66-62.35-10.38-17.48-6.03-33.82-14.49-48.61-25.03,11.54-46.66,51.52-82.1,100.52-86.9,3.73-.36,7.52-.55,11.35-.55,30.93,0,59.02,12.19,79.7,32.04,15.21,14.59,26.43,33.27,31.84,54.31Z"/>
      <path class="cls-1" d="m1219.95,684.61c-13,37.16-37.13,69.1-68.39,91.8-4.73,3.47-9.66,6.71-14.72,9.7-12-11.93-19.42-28.47-19.42-46.73,0-5.97.81-11.77,2.3-17.28,7.59-28.02,33.17-48.61,63.59-48.61,13.55,0,26.17,4.12,36.64,11.12Z"/>
    </g>
    <circle class="cls-2" cx="925.36" cy="673.32" r="42.29" transform="translate(-187.23 405.37) rotate(-22.5)"/>
    <path class="cls-2" d="m984.56,752.66c0,9.86-7.99,17.85-17.85,17.85s-17.85-7.99-17.85-17.85,7.99-17.85,17.85-17.85,17.85,7.99,17.85,17.85Z"/>
  </g>
  <g>
    <path class="cls-4" d="m1263.58,856.43s28.6,58.42,88.47,43.98c13.92,38.73,40.18,22.97,40.18,22.97,0,0,19.03,29.64,44.63-2.9,9.19,44.91,58.42.93,70.23-10.88,23.63,36.76,78.11,26.25,72.2-7.22,40.69,19.69,65.64-9.19,67.61-30.19-51.85,3.94-172.58-33.61-172.58-33.61"/>
    <path class="cls-4" d="m1371.78,610.5s8.46,20.22,31.14,24.35c-10.38,12.4,15.79,35.82,34.16,27.09,6.89,22.5,33.28,8.82,33.28,8.82,0,0,37.23,14.6,49.73-8.82,22.6,16.07,78.62-4.13,64.85-42.71-28.01,14.69-131.84-22.96-131.84-22.96l-81.32,14.22Z"/>
    <path class="cls-4" d="m1398.97,489.29s5.73,21.12,29.27,10.56c1.04,32.14,38.84,31.19,41.29,13.53,13.93,16.78,24.53,1.62,24.53,1.62,0,0,41.3,6.89,40.38-25.71-.92-32.6-126.74-20.66-135.46,0Z"/>
    <polygon class="cls-3" points="1494.05 1035.24 1446.67 1035.24 1469.02 404.99 1471.7 404.99 1494.05 1035.24"/>
    <path class="cls-1" d="m1470.36,382.45s-3.64,25.38-19.74,31.58c14.87-1.23,18.27-5.28,18.27-5.28,0,0,7.13,10.53,21.37,5.28-13.63-3.71-19.9-31.58-19.9-31.58Z"/>
    <path class="cls-1" d="m1416.37,1038.78h115.26s7.92-50.71,0-56.47c-7.92-5.76-6.48,47.54-6.48,47.54,0,0-10.81-24.64-14.41-19.52-3.6,5.12-.72,19.52-.72,19.52,0,0-25.21-24.49-30.25-13.69-5.04,10.81-4,15.85-4,15.85,0,0-15.45-30.97-30.57-27.37-15.13,3.6-15.85,23.77-15.85,23.77,0,0-6.48-32.42-12.97-31.7-6.48.72,0,42.07,0,42.07Z"/>
    <path class="cls-4" d="m1470.36,757.83s-9.34,47.34-61.2,58.86c44.11,32.5,61.2,6.48,61.2,6.48,0,0,28.68,33.14,64.78,2.16-29.45-5.76-54.68-27.14-64.78-67.51Z"/>
    <path class="cls-4" d="m1470.36,537.92s-18.94,56.33-67.44,62.02c25.69,13.62,33.72,4.97,33.72,4.97,0,0,20.19,32.42,53.62,6.48,16.15,15.13,29.83.72,29.83.72,0,0-34.63-12.97-49.73-74.2Z"/>
    <path class="cls-4" d="m1470.36,433.43s-13.45,35.82-42.12,32.53c13.41,19.11,30.52,8.38,30.52,8.38,0,0,15.09,11.4,21.46-.34,2.68,10.73,12.25,6.04,13.84-2.35,7.29,4.36,14.33,3.69,17.68-4.02-35.71-1.68-41.37-34.2-41.37-34.2Z"/>
    <polyline class="cls-3" points="1478.41 683.53 1489.43 670.77 1492.19 670.77 1482.07 697.26"/>
    <polyline class="cls-3" points="1469.99 510.75 1461.51 506.74 1459.12 512.71 1466.93 519.14"/>
    <polyline class="cls-3" points="1460.04 866.75 1446.67 853.43 1443.51 862.62 1455.91 884.2"/>
    <polyline class="cls-3" points="1481.16 944.35 1496.78 926.45 1501.83 932.41 1489.43 966.85"/>
    <path class="cls-11" d="m1470.6,928.28c0,4.31-3.5,7.81-7.81,7.81s-7.81-3.5-7.81-7.81,3.5-7.81,7.81-7.81,7.81,3.5,7.81,7.81Z"/>
    <path class="cls-11" d="m1483.96,985.45c0,2.66-2.16,4.82-4.82,4.82s-4.82-2.16-4.82-4.82,2.16-4.82,4.82-4.82,4.82,2.16,4.82,4.82Z"/>
    <path class="cls-11" d="m1481.16,958.34c0,1.89-1.53,3.43-3.43,3.43s-3.43-1.53-3.43-3.43,1.53-3.43,3.43-3.43,3.43,1.53,3.43,3.43Z"/>
    <circle class="cls-11" cx="1475.41" cy="848.38" r="5.05"/>
    <path class="cls-11" d="m1469.02,698.53c0,.7-.57,1.27-1.27,1.27s-1.27-.57-1.27-1.27.57-1.27,1.27-1.27,1.27.57,1.27,1.27Z"/>
    <path class="cls-11" d="m1479.78,661.9c0,2.41-1.95,4.36-4.36,4.36s-4.36-1.95-4.36-4.36,1.95-4.36,4.36-4.36,4.36,1.95,4.36,4.36Z"/>
    <path class="cls-11" d="m1472.44,643.35c0,1.65-1.34,2.98-2.98,2.98s-2.98-1.34-2.98-2.98,1.34-2.98,2.98-2.98,2.98,1.34,2.98,2.98Z"/>
    <path class="cls-11" d="m1472.15,526.46c0,.74-.6,1.35-1.35,1.35s-1.35-.6-1.35-1.35.6-1.35,1.35-1.35,1.35.6,1.35,1.35Z"/>
    <path class="cls-1" d="m1470.36,670.77s-51.64,180.24-228.16,177.45c85.47,62.25,123.57,33.45,123.57,33.45,0,0,3.72,29.73,26.01,33.45,22.3,3.72,34.38-19.51,34.38-19.51,0,0,40.88,43.67,81.76,0,29.73,32.52,54.82,16.72,59.46-7.43,61.32,25.09,96.62-25.09,96.62-25.09,0,0-165.22-11.15-193.64-192.32Z"/>
    <path class="cls-1" d="m1470.59,508.93s-30.53,100.29-118.54,86.32c28.77,30.04,63.9,24.54,63.9,24.54,0,0-4.23,20.31,12.27,26.24,16.5,5.92,27.51-6.77,27.51-6.77,0,0,38.08,36.39,66.44-5.92,29.2,33.85,71.51,1.69,77.86-29.62-41.05,14.81-88.79-16.08-106.39-40.62-17.6-24.54-23.04-54.16-23.04-54.16Z"/>
    <path class="cls-1" d="m1470.36,414.34s-50.34,62.72-110.9,49.94c39.45,56.12,70.57,22.23,70.57,22.23,0,0,16.77,33.34,40.33,5.56,23.56,30,40.79-1.11,40.79-1.11,0,0,40.01,30.01,70.57-18.34-57.79,8.33-111.36-58.28-111.36-58.28Z"/>
    <path class="cls-4" d="m1467.36,672.95s-37.67,46.77-74.45,48.1c19.94,6.65,37.23-6.69,37.23-6.69,0,0-8.86,13.34,0,14.23,8.86.89,22.16-6.65,22.16-6.65,0,0,32.35,25.26,50.97-2.66,20.83,11.52,36.78-7.09,36.78-7.09,0,0-45.2,16.37-72.68-39.23Z"/>
  </g>
  <g>
    <path class="cls-1" d="m1891.97,1034.57h-171.89s-7.61-69.08,51.58-61.44c-1.69-56.62,67.65-43.16,57.5,0,43.97-42.25,65.2,11.93,65.2,11.93,0,0,35.24-66.97,90.72-12.79,42.79-48.99,86.76,17.17,47.02,62.31h-140.12Z"/>
    <g>
      <polyline class="cls-9" points="2129.64 627.77 2111.9 649 2052.31 631.37 2043.86 656 2116.58 663.84 2138.01 635.54"/>
      <path class="cls-9" d="m2030.55,589.52c1-1.34,84.03-58.59,84.03-58.59l4.83,14.81-68.43,77.59"/>
      <polyline class="cls-9" points="1676.26 518.21 1683.85 578.36 1742.31 627.77 1758.64 598.03 1696.56 570.87 1688.88 518.21"/>
      <path class="cls-9" d="m1923.95,865.26c1.34-2.54,75.89-92.34,75.89-92.34l-23.72-6.78-52.17,68.2"/>
      <polyline class="cls-9" points="1874.46 854.92 1806.69 769.36 1793.98 775.75 1874.46 878.25"/>
      <rect class="cls-9" x="1857.15" y="779.79" width="69.64" height="253.94"/>
      <path class="cls-7" d="m2028.7,463.02c0,54.6-32.4,101.61-79.01,122.88-17.05,7.81-36.03,12.14-56.04,12.14-74.56,0-135.02-60.43-135.02-135.02s60.46-135.05,135.02-135.05c51.13,0,95.63,28.43,118.54,70.35,10.52,19.19,16.5,41.24,16.5,64.7Z"/>
      <path class="cls-1" d="m2028.7,463.02c0,54.6-32.4,101.61-79.01,122.88-34.9-15.37-59.27-50.27-59.27-90.88,0-54.82,44.45-99.26,99.26-99.26,7.75,0,15.28.88,22.51,2.56,10.52,19.19,16.5,41.24,16.5,64.7Z"/>
      <path class="cls-7" d="m2073.82,635.53c0,20.83-3.54,40.85-10.04,59.45-12.23,34.96-34.93,65.01-64.34,86.36-4.45,3.26-9.09,6.31-13.85,9.12-26.91,16.05-58.36,25.23-91.94,25.23-20.53,0-40.27-3.45-58.66-9.76-16.44-5.67-31.82-13.64-45.73-23.55-45.85-32.64-75.77-86.27-75.77-146.85,0-4.18.15-8.33.43-12.42,6.38-93.68,84.44-167.75,179.74-167.75s180.16,80.69,180.16,180.16Z"/>
      <circle class="cls-7" cx="1680.32" cy="490.19" r="43.31" transform="translate(834.6 2022.68) rotate(-77.37)"/>
      <circle class="cls-7" cx="2131.59" cy="513.12" r="57.75" transform="translate(261.5 1657.55) rotate(-45)"/>
      <path class="cls-1" d="m1807.87,1033.72h183.95s-9.32-16.13-30.5-8.07c.85-35.58-44.9-38.12-48.29-10.17-16.1-24.57-17.22,7.62-17.22,7.62,0,0-27.67-26.26-49.7-4.24-17.79-16.1-39.76-7.08-38.24,14.84Z"/>
      <path class="cls-3" d="m1881.66,980.97c0,4.33-3.51,7.84-7.84,7.84s-7.84-3.51-7.84-7.84,3.51-7.84,7.84-7.84,7.84,3.51,7.84,7.84Z"/>
      <path class="cls-3" d="m1921.41,925.81c0,10.29-8.34,18.64-18.64,18.64s-18.64-8.34-18.64-18.64,8.34-18.64,18.64-18.64,18.64,8.34,18.64,18.64Z"/>
      <circle class="cls-3" cx="1878.98" cy="872.39" r="5.15"/>
      <path class="cls-3" d="m1912.8,835.15c0,4.5-3.65,8.15-8.15,8.15s-8.15-3.65-8.15-8.15,3.65-8.15,8.15-8.15,8.15,3.65,8.15,8.15Z"/>
      <path class="cls-3" d="m1912.8,964.5c0,2.25-1.83,4.08-4.08,4.08s-4.08-1.83-4.08-4.08,1.83-4.08,4.08-4.08,4.08,1.83,4.08,4.08Z"/>
      <path class="cls-3" d="m1878.98,898.3c0,3.59-2.91,6.49-6.49,6.49s-6.49-2.91-6.49-6.49,2.91-6.49,6.49-6.49,6.49,2.91,6.49,6.49Z"/>
      <path class="cls-1" d="m1672.83,541.32s-10.14-10.4-21.56,0c13.19,10.65,21.56,0,21.56,0Z"/>
      <path class="cls-1" d="m1676.03,522.33s-2.46-14.32-17.76-12.22c4.82,16.25,17.76,12.22,17.76,12.22Z"/>
      <path class="cls-1" d="m1680.81,522.77s12.84-6.8,6.08-20.68c-13.94,9.65-6.08,20.68-6.08,20.68Z"/>
      <path class="cls-1" d="m2099.61,538.06s12.84-6.8,6.08-20.68c-13.94,9.65-6.08,20.68-6.08,20.68Z"/>
      <path class="cls-1" d="m2112.69,633.06s5.01-13.64-9.29-19.45c-3.93,16.49,9.29,19.45,9.29,19.45Z"/>
      <path class="cls-1" d="m2152.38,648.7s7.54,12.42,21,4.85c-10.45-13.35-21-4.85-21-4.85Z"/>
      <path class="cls-1" d="m1930.86,692.01s3.91,13.99,18.91,10.35c-6.46-15.67-18.91-10.35-18.91-10.35Z"/>
      <path class="cls-1" d="m2119.81,557.19s26.72,15.04,43.66-12.8c-33.04-13.74-43.66,12.8-43.66,12.8Z"/>
      <path class="cls-1" d="m1896.28,434.05s29.02-9.9,19.55-41.08c-32.26,15.47-19.55,41.08-19.55,41.08Z"/>
      <path class="cls-1" d="m2111.39,538.46s20.56,6.77,28.5-14.83c-24.76-5.01-28.5,14.83-28.5,14.83Z"/>
      <path class="cls-1" d="m2073.65,550.88s3.26-21.4-19.36-25.64c-.82,25.25,19.36,25.64,19.36,25.64Z"/>
      <path class="cls-1" d="m1884.49,446.87s3.26-21.4-19.36-25.64c-.82,25.25,19.36,25.64,19.36,25.64Z"/>
      <path class="cls-1" d="m2153.48,676.66s3.26-21.4-19.36-25.64c-.82,25.25,19.36,25.64,19.36,25.64Z"/>
      <path class="cls-1" d="m1672.47,508.03s22.05-11.83,10.29-35.68c-23.92,16.75-10.29,35.68-10.29,35.68Z"/>
      <path class="cls-1" d="m1962.39,708.81s22.05-11.83,10.29-35.68c-23.92,16.75-10.29,35.68-10.29,35.68Z"/>
      <path class="cls-7" d="m2162.89,623.33c0,11.73-9.51,21.23-21.23,21.23s-21.23-9.51-21.23-21.23,9.51-21.23,21.23-21.23,21.23,9.51,21.23,21.23Z"/>
      <path class="cls-1" d="m1884.66,714.17c0,38.41-19.77,72.21-49.66,91.76-16.44-5.67-31.82-13.64-45.73-23.55-45.85-32.64-75.77-86.27-75.77-146.85,0-4.18.15-8.33.43-12.42,17.45-11.74,38.44-18.58,61.07-18.58,55.98,0,102.16,41.94,108.84,96.09.55,4.45.82,8.97.82,13.54Z"/>
      <path class="cls-1" d="m1999.45,781.34c-4.45,3.26-9.09,6.31-13.85,9.12-26.91,16.05-58.36,25.23-91.94,25.23-20.53,0-40.27-3.45-58.66-9.76-16.44-5.67-31.82-13.64-45.73-23.55,10.86-43.9,48.47-77.24,94.57-81.75,3.51-.34,7.08-.52,10.68-.52,29.1,0,55.52,11.47,74.98,30.14,14.31,13.73,24.86,31.3,29.96,51.1Z"/>
      <path class="cls-1" d="m2063.78,694.98c-12.23,34.96-34.93,65.01-64.34,86.36-4.45,3.26-9.09,6.31-13.85,9.12-11.29-11.23-18.27-26.78-18.27-43.96,0-5.61.76-11.07,2.17-16.26,7.14-26.36,31.21-45.73,59.82-45.73,12.75,0,24.62,3.87,34.47,10.46Z"/>
    </g>
    <circle class="cls-2" cx="1786.64" cy="684.35" r="39.79" transform="translate(-125.89 735.81) rotate(-22.5)"/>
    <path class="cls-2" d="m1842.33,759c0,9.27-7.52,16.79-16.79,16.79s-16.79-7.52-16.79-16.79,7.52-16.79,16.79-16.79,16.79,7.52,16.79,16.79Z"/>
  </g>
  <g>
    <path class="cls-4" d="m2605.38,811.14s33.29,67.99,102.96,51.18c16.2,45.07,46.76,26.74,46.76,26.74,0,0,22.15,34.5,51.95-3.37,10.69,52.26,67.99,1.08,81.74-12.67,27.5,42.78,90.9,30.56,84.03-8.4,47.36,22.92,76.39-10.69,78.68-35.14-60.35,4.58-200.86-39.12-200.86-39.12"/>
    <path class="cls-4" d="m2731.31,524.92s9.84,23.54,36.24,28.35c-12.08,14.43,18.38,41.69,39.76,31.53,8.02,26.19,38.73,10.27,38.73,10.27,0,0,43.33,16.99,57.88-10.27,26.3,18.71,91.51-4.81,75.47-49.7-32.6,17.1-153.45-26.72-153.45-26.72l-94.64,16.55Z"/>
    <path class="cls-4" d="m2762.95,383.85s6.67,24.58,34.07,12.29c1.21,37.41,45.2,36.3,48.06,15.75,16.21,19.53,28.54,1.89,28.54,1.89,0,0,48.06,8.02,46.99-29.93-1.07-37.95-147.51-24.05-157.66,0Z"/>
    <polygon class="cls-3" points="2873.62 1019.26 2818.47 1019.26 2844.49 285.73 2847.6 285.73 2873.62 1019.26"/>
    <path class="cls-1" d="m2846.04,259.5s-4.23,29.54-22.97,36.75c17.3-1.43,21.26-6.14,21.26-6.14,0,0,8.29,12.26,24.87,6.14-15.86-4.32-23.16-36.75-23.16-36.75Z"/>
    <path class="cls-1" d="m2783.2,1023.38h134.14s9.22-59.02,0-65.73c-9.22-6.71-7.55,55.33-7.55,55.33,0,0-12.58-28.68-16.77-22.72-4.19,5.96-.84,22.72-.84,22.72,0,0-29.34-28.5-35.21-15.93-5.87,12.58-4.66,18.44-4.66,18.44,0,0-17.98-36.05-35.58-31.86-17.61,4.19-18.44,27.67-18.44,27.67,0,0-7.55-37.73-15.09-36.89-7.55.84,0,48.96,0,48.96Z"/>
    <path class="cls-4" d="m2846.04,696.39s-10.87,55.1-71.23,68.51c51.33,37.82,71.23,7.55,71.23,7.55,0,0,33.38,38.57,75.39,2.52-34.28-6.71-63.64-31.59-75.39-78.57Z"/>
    <path class="cls-4" d="m2846.04,440.45s-22.04,65.56-78.49,72.18c29.9,15.85,39.25,5.79,39.25,5.79,0,0,23.49,37.73,62.41,7.55,18.79,17.61,34.72.84,34.72.84,0,0-40.31-15.09-57.88-86.35Z"/>
    <path class="cls-4" d="m2846.04,318.84s-15.65,41.69-49.03,37.86c15.61,22.25,35.52,9.76,35.52,9.76,0,0,17.56,13.27,24.98-.39,3.12,12.49,14.26,7.02,16.11-2.73,8.48,5.07,16.68,4.29,20.58-4.68-41.56-1.95-48.15-39.81-48.15-39.81Z"/>
    <polyline class="cls-3" points="2855.41 609.92 2868.24 595.07 2871.44 595.07 2859.67 625.89"/>
    <polyline class="cls-3" points="2845.61 408.82 2835.74 404.16 2832.96 411.11 2842.05 418.59"/>
    <polyline class="cls-3" points="2834.03 823.16 2818.47 807.66 2814.79 818.35 2829.22 843.47"/>
    <polyline class="cls-3" points="2858.62 913.48 2876.79 892.64 2882.67 899.58 2868.24 939.67"/>
    <path class="cls-11" d="m2846.32,894.77c0,5.02-4.07,9.09-9.09,9.09s-9.09-4.07-9.09-9.09,4.07-9.09,9.09-9.09,9.09,4.07,9.09,9.09Z"/>
    <path class="cls-11" d="m2861.87,961.31c0,3.1-2.51,5.61-5.61,5.61s-5.61-2.51-5.61-5.61,2.51-5.61,5.61-5.61,5.61,2.51,5.61,5.61Z"/>
    <path class="cls-11" d="m2858.62,929.76c0,2.2-1.78,3.99-3.99,3.99s-3.99-1.78-3.99-3.99,1.78-3.99,3.99-3.99,3.99,1.78,3.99,3.99Z"/>
    <circle class="cls-11" cx="2851.92" cy="801.78" r="5.88"/>
    <path class="cls-11" d="m2844.48,627.38c0,.82-.66,1.48-1.48,1.48s-1.48-.66-1.48-1.48.66-1.48,1.48-1.48,1.48.66,1.48,1.48Z"/>
    <path class="cls-11" d="m2857,584.74c0,2.8-2.27,5.08-5.08,5.08s-5.08-2.27-5.08-5.08,2.27-5.08,5.08-5.08,5.08,2.27,5.08,5.08Z"/>
    <path class="cls-11" d="m2848.46,563.15c0,1.92-1.56,3.47-3.47,3.47s-3.47-1.56-3.47-3.47,1.56-3.47,3.47-3.47,3.47,1.56,3.47,3.47Z"/>
    <path class="cls-11" d="m2848.13,427.11c0,.87-.7,1.57-1.57,1.57s-1.57-.7-1.57-1.57.7-1.57,1.57-1.57,1.57.7,1.57,1.57Z"/>
    <path class="cls-1" d="m2846.04,595.07s-60.1,209.77-265.55,206.53c99.48,72.45,143.81,38.93,143.81,38.93,0,0,4.33,34.6,30.28,38.93,25.95,4.33,40.01-22.71,40.01-22.71,0,0,47.58,50.82,95.15,0,34.6,37.85,63.8,19.46,69.2-8.65,71.37,29.2,112.46-29.2,112.46-29.2,0,0-192.3-12.98-225.36-223.83Z"/>
    <path class="cls-1" d="m2846.31,406.71s-35.53,116.72-137.97,100.47c33.49,34.97,74.37,28.56,74.37,28.56,0,0-4.92,23.64,14.28,30.53,19.21,6.89,32.01-7.88,32.01-7.88,0,0,44.32,42.35,77.32-6.9,33.98,39.4,83.23,1.97,90.62-34.47-47.77,17.24-103.33-18.71-123.82-47.28-20.48-28.56-26.82-63.04-26.82-63.04Z"/>
    <path class="cls-1" d="m2846.04,296.61s-58.58,73-129.07,58.13c45.92,65.32,82.13,25.87,82.13,25.87,0,0,19.52,38.8,46.94,6.47,27.43,34.92,47.47-1.29,47.47-1.29,0,0,46.56,34.92,82.13-21.34-67.26,9.7-129.6-67.83-129.6-67.83Z"/>
    <path class="cls-4" d="m2842.55,597.6s-43.84,54.43-86.65,55.98c23.21,7.74,43.33-7.79,43.33-7.79,0,0-10.32,15.53,0,16.56,10.32,1.03,25.79-7.74,25.79-7.74,0,0,37.65,29.4,59.32-3.09,24.24,13.41,42.81-8.25,42.81-8.25,0,0-52.61,19.05-84.59-45.66Z"/>
  </g>
  <g>
    <path class="cls-1" d="m3298.5,1023.36h-190.93s-8.45-76.73,57.29-68.24c-1.88-62.89,75.14-47.94,63.87,0,48.84-46.93,72.42,13.25,72.42,13.25,0,0,39.14-74.38,100.76-14.21,47.53-54.41,96.37,19.07,52.23,69.21h-155.64Z"/>
    <g>
      <polyline class="cls-9" points="3562.49 571.51 3542.78 595.09 3476.59 575.5 3467.21 602.86 3547.99 611.57 3571.79 580.13"/>
      <path class="cls-9" d="m3452.42,529.02c1.12-1.49,93.34-65.07,93.34-65.07l5.36,16.45-76.01,86.18"/>
      <polyline class="cls-9" points="3058.9 449.81 3067.33 516.62 3132.26 571.51 3150.4 538.48 3081.45 508.3 3072.91 449.81"/>
      <path class="cls-9" d="m3334.02,835.3c1.49-2.82,84.3-102.57,84.3-102.57l-26.35-7.53-57.95,75.75"/>
      <polyline class="cls-9" points="3279.05 823.82 3203.77 728.78 3189.66 735.87 3279.05 849.73"/>
      <rect class="cls-9" x="3259.82" y="740.36" width="77.35" height="282.06"/>
      <path class="cls-7" d="m3450.37,388.5c0,60.65-35.99,112.87-87.76,136.48-18.94,8.67-40.02,13.49-62.24,13.49-82.81,0-149.97-67.12-149.97-149.97s67.16-150,149.97-150c56.79,0,106.23,31.58,131.67,78.14,11.69,21.31,18.33,45.81,18.33,71.87Z"/>
      <path class="cls-1" d="m3450.37,388.5c0,60.65-35.99,112.87-87.76,136.48-38.76-17.08-65.84-55.84-65.84-100.94,0-60.89,49.37-110.26,110.26-110.26,8.61,0,16.98.98,25.01,2.85,11.69,21.31,18.33,45.81,18.33,71.87Z"/>
      <path class="cls-7" d="m3500.49,580.12c0,23.14-3.93,45.37-11.15,66.04-13.59,38.83-38.8,72.21-71.46,95.93-4.95,3.63-10.1,7.01-15.38,10.13-29.89,17.82-64.82,28.02-102.13,28.02-22.8,0-44.73-3.83-65.16-10.84-18.26-6.3-35.34-15.15-50.79-26.16-50.93-36.26-84.17-95.82-84.17-163.12,0-4.64.17-9.25.47-13.79,7.08-104.06,93.79-186.33,199.64-186.33s200.12,89.62,200.12,200.12Z"/>
      <circle class="cls-7" cx="3063.4" cy="418.69" r="48.11" transform="translate(1985.07 3316.43) rotate(-77.37)"/>
      <circle class="cls-7" cx="3564.65" cy="444.16" r="64.15" transform="translate(730 2650.68) rotate(-45)"/>
      <path class="cls-1" d="m3205.08,1022.42h204.32s-10.35-17.92-33.87-8.96c.94-39.52-49.87-42.34-53.64-11.29-17.88-27.29-19.13,8.47-19.13,8.47,0,0-30.74-29.17-55.21-4.7-19.76-17.88-44.16-7.86-42.48,16.49Z"/>
      <path class="cls-3" d="m3287.05,963.82c0,4.81-3.9,8.7-8.7,8.7s-8.7-3.9-8.7-8.7,3.9-8.7,8.7-8.7,8.7,3.9,8.7,8.7Z"/>
      <path class="cls-3" d="m3331.19,902.56c0,11.43-9.27,20.7-20.7,20.7s-20.7-9.27-20.7-20.7,9.27-20.7,20.7-20.7,20.7,9.27,20.7,20.7Z"/>
      <circle class="cls-3" cx="3284.07" cy="843.22" r="5.72"/>
      <path class="cls-3" d="m3321.63,801.85c0,5-4.05,9.06-9.06,9.06s-9.06-4.05-9.06-9.06,4.06-9.06,9.06-9.06,9.06,4.05,9.06,9.06Z"/>
      <path class="cls-3" d="m3321.63,945.53c0,2.5-2.03,4.53-4.53,4.53s-4.53-2.03-4.53-4.53,2.03-4.53,4.53-4.53,4.53,2.03,4.53,4.53Z"/>
      <path class="cls-3" d="m3284.07,871.99c0,3.98-3.23,7.21-7.21,7.21s-7.21-3.23-7.21-7.21,3.23-7.21,7.21-7.21,7.21,3.23,7.21,7.21Z"/>
      <path class="cls-1" d="m3055.09,475.47s-11.27-11.55-23.94,0c14.65,11.83,23.94,0,23.94,0Z"/>
      <path class="cls-1" d="m3058.65,454.38s-2.73-15.9-19.72-13.58c5.36,18.05,19.72,13.58,19.72,13.58Z"/>
      <path class="cls-1" d="m3063.95,454.88s14.26-7.55,6.75-22.97c-15.48,10.72-6.75,22.97-6.75,22.97Z"/>
      <path class="cls-1" d="m3529.13,471.86s14.26-7.55,6.75-22.97c-15.48,10.72-6.75,22.97-6.75,22.97Z"/>
      <path class="cls-1" d="m3543.67,577.38s5.57-15.15-10.32-21.61c-4.36,18.32,10.32,21.61,10.32,21.61Z"/>
      <path class="cls-1" d="m3587.75,594.76s8.38,13.79,23.33,5.39c-11.61-14.83-23.33-5.39-23.33-5.39Z"/>
      <path class="cls-1" d="m3341.69,642.85s4.34,15.54,21,11.49c-7.17-17.41-21-11.49-21-11.49Z"/>
      <path class="cls-1" d="m3551.58,493.1s29.68,16.7,48.5-14.22c-36.7-15.26-48.5,14.22-48.5,14.22Z"/>
      <path class="cls-1" d="m3303.28,356.33s32.23-11,21.72-45.63c-35.84,17.19-21.72,45.63-21.72,45.63Z"/>
      <path class="cls-1" d="m3542.22,472.3s22.84,7.52,31.66-16.47c-27.51-5.57-31.66,16.47-31.66,16.47Z"/>
      <path class="cls-1" d="m3500.3,486.1s3.62-23.78-21.51-28.48c-.91,28.05,21.51,28.48,21.51,28.48Z"/>
      <path class="cls-1" d="m3290.19,370.57s3.62-23.78-21.51-28.48c-.91,28.05,21.51,28.48,21.51,28.48Z"/>
      <path class="cls-1" d="m3588.97,625.81s3.62-23.78-21.51-28.48c-.91,28.05,21.51,28.48,21.51,28.48Z"/>
      <path class="cls-1" d="m3054.69,438.5s24.49-13.14,11.43-39.63c-26.57,18.6-11.43,39.63-11.43,39.63Z"/>
      <path class="cls-1" d="m3376.72,661.52s24.49-13.14,11.43-39.63c-26.57,18.6-11.43,39.63-11.43,39.63Z"/>
      <path class="cls-7" d="m3599.42,566.57c0,13.02-10.56,23.58-23.58,23.58s-23.58-10.56-23.58-23.58,10.56-23.58,23.58-23.58,23.58,10.56,23.58,23.58Z"/>
      <path class="cls-1" d="m3290.37,667.47c0,42.66-21.96,80.2-55.16,101.92-18.26-6.3-35.34-15.15-50.79-26.16-50.93-36.26-84.17-95.82-84.17-163.12,0-4.64.17-9.25.47-13.79,19.38-13.05,42.69-20.64,67.84-20.64,62.18,0,113.48,46.59,120.9,106.73.61,4.95.91,9.96.91,15.04Z"/>
      <path class="cls-1" d="m3417.88,742.08c-4.95,3.63-10.1,7.01-15.38,10.13-29.89,17.82-64.82,28.02-102.13,28.02-22.8,0-44.73-3.83-65.16-10.84-18.26-6.3-35.34-15.15-50.79-26.16,12.06-48.76,53.84-85.79,105.04-90.81,3.9-.37,7.86-.58,11.86-.58,32.33,0,61.67,12.74,83.29,33.48,15.89,15.25,27.62,34.76,33.27,56.76Z"/>
      <path class="cls-1" d="m3489.34,646.16c-13.59,38.83-38.8,72.21-71.46,95.93-4.95,3.63-10.1,7.01-15.38,10.13-12.54-12.47-20.3-29.75-20.3-48.83,0-6.23.85-12.3,2.41-18.06,7.93-29.28,34.66-50.79,66.45-50.79,14.16,0,27.34,4.3,38.29,11.62Z"/>
    </g>
    <circle class="cls-2" cx="3181.5" cy="634.35" r="44.2" transform="translate(-.58 1265.79) rotate(-22.5)"/>
    <path class="cls-2" d="m3243.36,717.26c0,10.3-8.35,18.65-18.65,18.65s-18.65-8.35-18.65-18.65,8.35-18.65,18.65-18.65,18.65,8.35,18.65,18.65Z"/>
  </g>
  <g>
    <path class="cls-10" d="m2316.39,1025.92h275.61s-13.2-48.22-41.08-32.28c-4.4-57.42-52.73-64.76-68.18-25.14-24.25-44.02-154.38-35.29-166.34,34.44"/>
    <g>
      <path class="cls-9" d="m2258.57,621.36l48.68,73.45v25.87l-59.49-92.24c-1.06-1.65-1.32-3.69-.7-5.55h0c1.7-5.11,8.54-6.02,11.52-1.53Z"/>
      <path class="cls-8" d="m2508.78,534.15v193.62c0,61.44-49.78,111.22-111.22,111.22s-111.22-49.77-111.22-111.22v-193.62c0-11.79,1.83-23.15,5.23-33.8,14.3-44.91,56.34-77.42,105.99-77.42,30.71,0,58.53,12.44,78.66,32.56,10.15,10.15,18.36,22.26,23.99,35.72,5.51,13.22,8.57,27.7,8.57,42.93Z"/>
      <path class="cls-9" d="m2380.62,531.82h38.63c3.13,0,5.67,2.54,5.67,5.67v488.42h-49.97v-488.42c0-3.13,2.54-5.67,5.67-5.67Z"/>
      <path class="cls-9" d="m2343.35,614.9l48.68,73.45v25.87l-59.49-92.24c-1.06-1.65-1.32-3.69-.7-5.55h0c1.7-5.11,8.54-6.02,11.52-1.53Z"/>
      <path class="cls-9" d="m2357.41,717.08l62.15,93.77-6.75,44.13-78.99-122.47c-2.32-3.59-2.88-8.04-1.53-12.1h0c3.71-11.14,18.63-13.12,25.12-3.33Z"/>
      <path class="cls-9" d="m2450.9,546.79l-48.68,73.45v25.87l59.49-92.24c1.06-1.65,1.32-3.69.7-5.55h0c-1.7-5.11-8.54-6.02-11.52-1.53Z"/>
      <path class="cls-9" d="m2468.23,794.67l-48.68,73.45v25.87l59.49-92.24c1.06-1.65,1.32-3.69.7-5.55h0c-1.7-5.11-8.54-6.02-11.52-1.53Z"/>
      <circle class="cls-10" cx="2262.28" cy="594.99" r="51.1"/>
      <circle class="cls-10" cx="2505.69" cy="753.82" r="64.85"/>
      <circle class="cls-5" cx="2485.05" cy="726.77" r="15.65"/>
      <circle class="cls-5" cx="2534.46" cy="744.38" r="23.07"/>
      <path class="cls-5" d="m2236.38,589.92c0,2.8-2.27,5.08-5.08,5.08s-5.08-2.27-5.08-5.08,2.27-5.08,5.08-5.08,5.08,2.27,5.08,5.08Z"/>
      <circle class="cls-5" cx="2247.62" cy="566.67" r="6.86"/>
      <circle class="cls-5" cx="2283.75" cy="583.02" r="16.35"/>
      <path class="cls-8" d="m2519.33,683.08s-6.34-21.8,18.23-24.22c4.38,24.22-18.23,24.22-18.23,24.22Z"/>
      <path class="cls-6" d="m2316.39,760.39s13.66-18.13,30.32.08c-16.77,18.02-30.32-.08-30.32-.08Z"/>
      <path class="cls-6" d="m2303.16,729.12s20.76-9.19,26.44,14.83c-23.42,7.58-26.44-14.83-26.44-14.83Z"/>
      <path class="cls-6" d="m2469.8,559.74s-3.98-22.35,20.7-22.15c1.78,24.55-20.7,22.15-20.7,22.15Z"/>
      <path class="cls-6" d="m2449.82,583.29s16.45-31.19,46.51-7.39c-21.25,31.79-46.51,7.39-46.51,7.39Z"/>
      <path class="cls-8" d="m2475.98,820.1s21.21,8.1,8.31,29.15c-21.96-11.13-8.31-29.15-8.31-29.15Z"/>
      <path class="cls-8" d="m2493.48,825.65s27.95-8.68,31.65,22.92c-31.11,6.22-31.65-22.92-31.65-22.92Z"/>
      <path class="cls-8" d="m2252.3,691.83s-14.4-17.55,7.23-29.44c13.55,20.55-7.23,29.44-7.23,29.44Z"/>
      <path class="cls-8" d="m2208.89,654.39s20.81-26.36,44.83,1.14c-25.41,26.09-44.83-1.14-44.83-1.14Z"/>
      <ellipse class="cls-3" cx="2391.83" cy="579.59" rx="5.74" ry="19.78"/>
      <path class="cls-3" d="m2411.97,865.9c0,37.36-3.22,67.65-7.2,67.65s-7.2-30.29-7.2-67.65,3.22-67.65,7.2-67.65,7.2,30.29,7.2,67.65Z"/>
      <ellipse class="cls-3" cx="2391.83" cy="744.38" rx="5.74" ry="19.78"/>
      <ellipse class="cls-3" cx="2406.23" cy="654.92" rx="8.66" ry="45.68"/>
      <path class="cls-10" d="m2500.21,491.21c-92.77-78.44-176.04-20.65-208.63,9.13,14.3-44.91,56.34-77.42,105.99-77.42,30.71,0,58.53,12.44,78.66,32.56,10.15,10.15,18.36,22.26,23.99,35.72Z"/>
      <path class="cls-6" d="m2462.75,1029.64h-231.45s2.04-59.15,60.27-44.05c15.69-53.55,71.88-21.54,55.44,20.77,38.48-29.04,105.15-6.78,115.74,23.28Z"/>
      <path class="cls-8" d="m2338.56,1025.92h-85.37c8.36-12.26,22.81-25.2,46.49-19.59,10.52-19.16,42.69-7.89,38.88,19.59Z"/>
    </g>
  </g>
  <g>
    <path class="cls-4" d="m3550.16,816.99s33.29,67.99,102.96,51.18c16.2,45.07,46.76,26.74,46.76,26.74,0,0,22.15,34.5,51.95-3.37,10.69,52.26,67.99,1.08,81.74-12.67,27.5,42.78,90.9,30.56,84.03-8.4,47.36,22.92,76.39-10.69,78.68-35.14-60.35,4.58-200.86-39.12-200.86-39.12"/>
    <path class="cls-4" d="m3676.09,530.77s9.84,23.54,36.24,28.35c-12.08,14.43,18.38,41.69,39.76,31.53,8.02,26.19,38.73,10.27,38.73,10.27,0,0,43.33,16.99,57.88-10.27,26.3,18.71,91.51-4.81,75.47-49.7-32.6,17.1-153.45-26.72-153.45-26.72l-94.64,16.55Z"/>
    <path class="cls-4" d="m3707.74,389.7s6.67,24.58,34.07,12.29c1.21,37.41,45.2,36.3,48.06,15.75,16.21,19.53,28.54,1.89,28.54,1.89,0,0,48.06,8.02,46.99-29.93-1.07-37.95-147.51-24.05-157.66,0Z"/>
    <polygon class="cls-3" points="3818.4 1025.11 3763.26 1025.11 3789.27 291.58 3792.39 291.58 3818.4 1025.11"/>
    <path class="cls-1" d="m3790.83,265.35s-4.23,29.54-22.97,36.75c17.3-1.43,21.26-6.14,21.26-6.14,0,0,8.29,12.26,24.87,6.14-15.86-4.32-23.16-36.75-23.16-36.75Z"/>
    <path class="cls-1" d="m3727.98,1029.23h134.14s9.22-59.02,0-65.73c-9.22-6.71-7.55,55.33-7.55,55.33,0,0-12.58-28.68-16.77-22.72-4.19,5.96-.84,22.72-.84,22.72,0,0-29.34-28.5-35.21-15.93-5.87,12.58-4.66,18.44-4.66,18.44,0,0-17.98-36.05-35.58-31.86-17.61,4.19-18.44,27.67-18.44,27.67,0,0-7.55-37.73-15.09-36.89-7.55.84,0,48.96,0,48.96Z"/>
    <path class="cls-4" d="m3790.83,702.24s-10.87,55.1-71.23,68.51c51.33,37.82,71.23,7.55,71.23,7.55,0,0,33.38,38.57,75.39,2.52-34.28-6.71-63.64-31.59-75.39-78.57Z"/>
    <path class="cls-4" d="m3790.83,446.3s-22.04,65.56-78.49,72.18c29.9,15.85,39.25,5.79,39.25,5.79,0,0,23.49,37.73,62.41,7.55,18.79,17.61,34.72.84,34.72.84,0,0-40.31-15.09-57.88-86.35Z"/>
    <path class="cls-4" d="m3790.83,324.69s-15.65,41.69-49.03,37.86c15.61,22.25,35.52,9.76,35.52,9.76,0,0,17.56,13.27,24.98-.39,3.12,12.49,14.26,7.02,16.11-2.73,8.48,5.07,16.68,4.29,20.58-4.68-41.56-1.95-48.15-39.81-48.15-39.81Z"/>
    <polyline class="cls-3" points="3800.19 615.77 3813.02 600.92 3816.23 600.92 3804.45 631.75"/>
    <polyline class="cls-3" points="3790.39 414.68 3780.52 410.01 3777.75 416.96 3786.83 424.44"/>
    <polyline class="cls-3" points="3778.82 829.01 3763.26 813.51 3759.58 824.2 3774.01 849.32"/>
    <polyline class="cls-3" points="3803.4 919.33 3821.57 898.49 3827.45 905.43 3813.02 945.52"/>
    <path class="cls-11" d="m3791.11,900.62c0,5.02-4.07,9.09-9.09,9.09s-9.09-4.07-9.09-9.09,4.07-9.09,9.09-9.09,9.09,4.07,9.09,9.09Z"/>
    <path class="cls-11" d="m3806.65,967.16c0,3.1-2.51,5.61-5.61,5.61s-5.61-2.51-5.61-5.61,2.51-5.61,5.61-5.61,5.61,2.51,5.61,5.61Z"/>
    <path class="cls-11" d="m3803.4,935.61c0,2.2-1.78,3.99-3.99,3.99s-3.99-1.78-3.99-3.99,1.78-3.99,3.99-3.99,3.99,1.78,3.99,3.99Z"/>
    <circle class="cls-11" cx="3796.71" cy="807.63" r="5.88"/>
    <path class="cls-11" d="m3789.27,633.23c0,.82-.66,1.48-1.48,1.48s-1.48-.66-1.48-1.48.66-1.48,1.48-1.48,1.48.66,1.48,1.48Z"/>
    <path class="cls-11" d="m3801.78,590.59c0,2.8-2.27,5.08-5.08,5.08s-5.08-2.27-5.08-5.08,2.27-5.08,5.08-5.08,5.08,2.27,5.08,5.08Z"/>
    <path class="cls-11" d="m3793.25,569.01c0,1.92-1.56,3.47-3.47,3.47s-3.47-1.56-3.47-3.47,1.56-3.47,3.47-3.47,3.47,1.56,3.47,3.47Z"/>
    <path class="cls-11" d="m3792.91,432.96c0,.87-.7,1.57-1.57,1.57s-1.57-.7-1.57-1.57.7-1.57,1.57-1.57,1.57.7,1.57,1.57Z"/>
    <path class="cls-1" d="m3790.83,600.92s-60.1,209.77-265.55,206.53c99.48,72.45,143.81,38.93,143.81,38.93,0,0,4.33,34.6,30.28,38.93,25.95,4.33,40.01-22.71,40.01-22.71,0,0,47.58,50.82,95.15,0,34.6,37.85,63.8,19.46,69.2-8.65,71.37,29.2,112.46-29.2,112.46-29.2,0,0-192.3-12.98-225.36-223.83Z"/>
    <path class="cls-1" d="m3791.09,412.56s-35.53,116.72-137.97,100.47c33.49,34.97,74.37,28.56,74.37,28.56,0,0-4.92,23.64,14.28,30.53,19.21,6.89,32.01-7.88,32.01-7.88,0,0,44.32,42.35,77.32-6.9,33.98,39.4,83.23,1.97,90.62-34.47-47.77,17.24-103.33-18.71-123.82-47.28-20.48-28.56-26.82-63.04-26.82-63.04Z"/>
    <path class="cls-1" d="m3790.83,302.47s-58.58,73-129.07,58.13c45.92,65.32,82.13,25.87,82.13,25.87,0,0,19.52,38.8,46.94,6.47,27.43,34.92,47.47-1.29,47.47-1.29,0,0,46.56,34.92,82.13-21.34-67.26,9.7-129.6-67.83-129.6-67.83Z"/>
    <path class="cls-4" d="m3787.33,603.45s-43.84,54.43-86.65,55.98c23.21,7.74,43.33-7.79,43.33-7.79,0,0-10.32,15.53,0,16.56,10.32,1.03,25.79-7.74,25.79-7.74,0,0,37.65,29.4,59.32-3.09,24.24,13.41,42.81-8.25,42.81-8.25,0,0-52.61,19.05-84.59-45.66Z"/>
  </g>
</svg>