<?xml version="1.0" encoding="UTF-8"?>
<svg id="forest_front" data-name="forest front" xmlns="http://www.w3.org/2000/svg" viewBox="0 0 4023 1080">
  <defs>
    <style>
      .cls-1 {
        fill: #25a977;
      }

      .cls-2 {
        fill: #1b8d67;
      }

      .cls-3 {
        fill: #6c2950;
      }

      .cls-4 {
        fill: #258265;
      }

      .cls-5 {
        fill: #ffdd3a;
      }

      .cls-6 {
        fill: #f17a40;
      }

      .cls-7 {
        fill: #36cd88;
      }

      .cls-8 {
        fill: #f99d46;
      }

      .cls-9 {
        fill: #853866;
      }

      .cls-10 {
        fill: #fabb50;
      }

      .cls-11 {
        fill: #582949;
      }
    </style>
  </defs>
  <g>
    <path class="cls-1" d="m173.95,1059.95H62.36s-4.94-44.85,33.49-39.88c-1.1-36.76,43.92-28.02,37.33,0,28.55-27.43,42.33,7.74,42.33,7.74,0,0,22.88-43.48,58.89-8.31,27.78-31.8,56.33,11.15,30.53,40.45h-90.97Z"/>
    <g>
      <polyline class="cls-9" points="328.25 795.86 316.73 809.64 278.04 798.19 272.56 814.19 319.77 819.28 333.68 800.9"/>
      <path class="cls-9" d="m263.91,771.03c.65-.87,54.55-38.03,54.55-38.03l3.13,9.61-44.43,50.37"/>
      <polyline class="cls-9" points="33.91 724.73 38.84 763.78 76.79 795.86 87.39 776.55 47.09 758.92 42.1 724.73"/>
      <path class="cls-9" d="m194.71,950.04c.87-1.65,49.27-59.95,49.27-59.95l-15.4-4.4-33.87,44.27"/>
      <polyline class="cls-9" points="162.58 943.33 118.59 887.78 110.34 891.93 162.58 958.47"/>
      <rect class="cls-9" x="151.34" y="894.55" width="45.21" height="164.86"/>
      <path class="cls-7" d="m262.72,688.9c0,35.45-21.03,65.97-51.29,79.77-11.07,5.07-23.39,7.88-36.38,7.88-48.4,0-87.65-39.23-87.65-87.65s39.25-87.67,87.65-87.67c33.19,0,62.09,18.46,76.96,45.67,6.83,12.46,10.71,26.78,10.71,42Z"/>
      <path class="cls-1" d="m262.72,688.9c0,35.45-21.03,65.97-51.29,79.77-22.66-9.98-38.48-32.64-38.48-59,0-35.59,28.86-64.44,64.44-64.44,5.03,0,9.92.57,14.62,1.66,6.83,12.46,10.71,26.78,10.71,42Z"/>
      <path class="cls-7" d="m292.01,800.89c0,13.53-2.3,26.52-6.52,38.6-7.94,22.7-22.68,42.2-41.77,56.07-2.89,2.12-5.9,4.1-8.99,5.92-17.47,10.42-37.89,16.38-59.69,16.38-13.33,0-26.14-2.24-38.08-6.34-10.67-3.68-20.66-8.85-29.69-15.29-29.77-21.19-49.19-56.01-49.19-95.34,0-2.71.1-5.41.28-8.06,4.14-60.82,54.82-108.9,116.69-108.9s116.96,52.38,116.96,116.96Z"/>
      <circle class="cls-7" cx="36.54" cy="706.54" r="28.12" transform="translate(-660.9 587.72) rotate(-77.37)"/>
      <circle class="cls-7" cx="329.51" cy="721.43" r="37.49" transform="translate(-413.62 444.3) rotate(-45)"/>
      <path class="cls-1" d="m119.35,1059.41h119.42s-6.05-10.47-19.8-5.24c.55-23.1-29.15-24.75-31.35-6.6-10.45-15.95-11.18,4.95-11.18,4.95,0,0-17.97-17.05-32.27-2.75-11.55-10.45-25.81-4.6-24.83,9.64Z"/>
      <path class="cls-3" d="m167.26,1025.16c0,2.81-2.28,5.09-5.09,5.09s-5.09-2.28-5.09-5.09,2.28-5.09,5.09-5.09,5.09,2.28,5.09,5.09Z"/>
      <path class="cls-3" d="m193.06,989.35c0,6.68-5.42,12.1-12.1,12.1s-12.1-5.42-12.1-12.1,5.42-12.1,12.1-12.1,12.1,5.42,12.1,12.1Z"/>
      <circle class="cls-3" cx="165.52" cy="954.67" r="3.34"/>
      <path class="cls-3" d="m187.47,930.49c0,2.92-2.37,5.29-5.29,5.29s-5.29-2.37-5.29-5.29,2.37-5.29,5.29-5.29,5.29,2.37,5.29,5.29Z"/>
      <path class="cls-3" d="m187.47,1014.47c0,1.46-1.18,2.65-2.65,2.65s-2.65-1.18-2.65-2.65,1.18-2.65,2.65-2.65,2.65,1.18,2.65,2.65Z"/>
      <path class="cls-3" d="m165.52,971.49c0,2.33-1.89,4.22-4.22,4.22s-4.22-1.89-4.22-4.22,1.89-4.22,4.22-4.22,4.22,1.89,4.22,4.22Z"/>
      <path class="cls-1" d="m31.68,739.73s-6.59-6.75-13.99,0c8.56,6.92,13.99,0,13.99,0Z"/>
      <path class="cls-1" d="m33.76,727.41s-1.6-9.29-11.53-7.93c3.13,10.55,11.53,7.93,11.53,7.93Z"/>
      <path class="cls-1" d="m36.86,727.69s8.33-4.42,3.95-13.43c-9.05,6.26-3.95,13.43-3.95,13.43Z"/>
      <path class="cls-1" d="m308.75,737.62s8.33-4.42,3.95-13.43c-9.05,6.26-3.95,13.43-3.95,13.43Z"/>
      <path class="cls-1" d="m317.24,799.29s3.25-8.85-6.03-12.63c-2.55,10.71,6.03,12.63,6.03,12.63Z"/>
      <path class="cls-1" d="m343.01,809.45s4.9,8.06,13.64,3.15c-6.78-8.67-13.64-3.15-13.64-3.15Z"/>
      <path class="cls-1" d="m199.2,837.56s2.54,9.08,12.28,6.72c-4.19-10.18-12.28-6.72-12.28-6.72Z"/>
      <path class="cls-1" d="m321.87,750.04s17.35,9.76,28.35-8.31c-21.45-8.92-28.35,8.31-28.35,8.31Z"/>
      <path class="cls-1" d="m176.74,670.1s18.84-6.43,12.69-26.67c-20.95,10.04-12.69,26.67-12.69,26.67Z"/>
      <path class="cls-1" d="m316.4,737.88s13.35,4.4,18.5-9.63c-16.08-3.26-18.5,9.63-18.5,9.63Z"/>
      <path class="cls-1" d="m291.89,745.94s2.11-13.9-12.57-16.64c-.53,16.39,12.57,16.64,12.57,16.64Z"/>
      <path class="cls-1" d="m169.1,678.42s2.11-13.9-12.57-16.64c-.53,16.39,12.57,16.64,12.57,16.64Z"/>
      <path class="cls-1" d="m343.72,827.6s2.11-13.9-12.57-16.64c-.53,16.39,12.57,16.64,12.57,16.64Z"/>
      <path class="cls-1" d="m31.45,718.13s14.32-7.68,6.68-23.17c-15.53,10.87-6.68,23.17-6.68,23.17Z"/>
      <path class="cls-1" d="m219.67,848.47s14.32-7.68,6.68-23.17c-15.53,10.87-6.68,23.17-6.68,23.17Z"/>
      <path class="cls-7" d="m349.83,792.98c0,7.61-6.17,13.78-13.78,13.78s-13.78-6.17-13.78-13.78,6.17-13.78,13.78-13.78,13.78,6.17,13.78,13.78Z"/>
      <path class="cls-1" d="m169.2,851.95c0,24.93-12.83,46.88-32.24,59.57-10.67-3.68-20.66-8.85-29.69-15.29-29.77-21.19-49.19-56.01-49.19-95.34,0-2.71.1-5.41.28-8.06,11.33-7.62,24.95-12.06,39.65-12.06,36.34,0,66.32,27.23,70.66,62.38.36,2.89.53,5.82.53,8.79Z"/>
      <path class="cls-1" d="m243.72,895.56c-2.89,2.12-5.9,4.1-8.99,5.92-17.47,10.42-37.89,16.38-59.69,16.38-13.33,0-26.14-2.24-38.08-6.34-10.67-3.68-20.66-8.85-29.69-15.29,7.05-28.5,31.47-50.14,61.39-53.08,2.28-.22,4.59-.34,6.93-.34,18.89,0,36.04,7.45,48.68,19.57,9.29,8.91,16.14,20.32,19.45,33.17Z"/>
      <path class="cls-1" d="m285.49,839.49c-7.94,22.7-22.68,42.2-41.77,56.07-2.89,2.12-5.9,4.1-8.99,5.92-7.33-7.29-11.86-17.39-11.86-28.54,0-3.64.5-7.19,1.41-10.56,4.63-17.11,20.26-29.69,38.84-29.69,8.28,0,15.98,2.52,22.38,6.79Z"/>
    </g>
    <circle class="cls-2" cx="105.57" cy="832.59" r="25.83" transform="translate(-310.58 103.78) rotate(-22.5)"/>
    <path class="cls-2" d="m141.72,881.05c0,6.02-4.88,10.9-10.9,10.9s-10.9-4.88-10.9-10.9,4.88-10.9,10.9-10.9,10.9,4.88,10.9,10.9Z"/>
  </g>
  <g>
    <path class="cls-10" d="m746.7,1047.15h180.94s-8.67-31.66-26.97-21.19c-2.89-37.7-34.62-42.51-44.76-16.51-15.92-28.9-101.35-23.17-109.21,22.61"/>
    <g>
      <path class="cls-9" d="m708.73,781.55l31.96,48.22v16.98l-39.06-60.56c-.7-1.08-.87-2.42-.46-3.64h0c1.12-3.35,5.61-3.95,7.56-1Z"/>
      <path class="cls-8" d="m873,724.29v127.11c0,40.34-32.68,73.02-73.02,73.02s-73.02-32.68-73.02-73.02v-127.11c0-7.74,1.2-15.2,3.43-22.19,9.39-29.49,36.99-50.83,69.58-50.83,20.16,0,38.43,8.17,51.64,21.38,6.67,6.67,12.05,14.61,15.75,23.45,3.62,8.68,5.63,18.19,5.63,28.19Z"/>
      <path class="cls-9" d="m790.81,722.77h21.46c3.13,0,5.67,2.54,5.67,5.67v318.71h-32.81v-318.71c0-3.13,2.54-5.67,5.67-5.67Z"/>
      <path class="cls-9" d="m764.39,777.31l31.96,48.22v16.98l-39.06-60.56c-.7-1.08-.87-2.42-.46-3.64h0c1.12-3.35,5.61-3.95,7.56-1Z"/>
      <path class="cls-9" d="m773.62,844.39l40.8,61.56-4.43,28.97-51.86-80.41c-1.52-2.36-1.89-5.28-1-7.94h0c2.44-7.32,12.23-8.61,16.49-2.19Z"/>
      <path class="cls-9" d="m835,732.59l-31.96,48.22v16.98l39.06-60.56c.7-1.08.87-2.42.46-3.64h0c-1.12-3.35-5.61-3.95-7.56-1Z"/>
      <path class="cls-9" d="m846.38,895.33l-31.96,48.22v16.98l39.06-60.56c.7-1.08.87-2.42.46-3.64h0c-1.12-3.35-5.61-3.95-7.56-1Z"/>
      <circle class="cls-10" cx="711.17" cy="764.24" r="33.55"/>
      <circle class="cls-10" cx="870.97" cy="868.51" r="42.57"/>
      <circle class="cls-5" cx="857.42" cy="850.75" r="10.28"/>
      <circle class="cls-5" cx="889.86" cy="862.31" r="15.15"/>
      <path class="cls-5" d="m694.17,760.91c0,1.84-1.49,3.33-3.33,3.33s-3.33-1.49-3.33-3.33,1.49-3.33,3.33-3.33,3.33,1.49,3.33,3.33Z"/>
      <circle class="cls-5" cx="701.55" cy="745.64" r="4.51"/>
      <circle class="cls-5" cx="725.27" cy="756.38" r="10.73"/>
      <path class="cls-8" d="m879.92,822.07s-4.16-14.31,11.97-15.9c2.87,15.9-11.97,15.9-11.97,15.9Z"/>
      <path class="cls-6" d="m746.7,872.82s8.97-11.91,19.9.05c-11.01,11.83-19.9-.05-19.9-.05Z"/>
      <path class="cls-6" d="m738.01,852.29s13.63-6.03,17.36,9.74c-15.38,4.97-17.36-9.74-17.36-9.74Z"/>
      <path class="cls-6" d="m847.41,741.1s-2.61-14.67,13.59-14.54c1.17,16.12-13.59,14.54-13.59,14.54Z"/>
      <path class="cls-6" d="m834.29,756.55s10.8-20.48,30.53-4.85c-13.95,20.87-30.53,4.85-30.53,4.85Z"/>
      <path class="cls-8" d="m851.47,912.02s13.92,5.32,5.46,19.14c-14.42-7.3-5.46-19.14-5.46-19.14Z"/>
      <path class="cls-8" d="m862.96,915.67s18.35-5.7,20.78,15.05c-20.43,4.08-20.78-15.05-20.78-15.05Z"/>
      <path class="cls-8" d="m704.62,827.81s-9.45-11.52,4.75-19.33c8.9,13.49-4.75,19.33-4.75,19.33Z"/>
      <path class="cls-8" d="m676.12,803.23s13.66-17.31,29.43.75c-16.68,17.13-29.43-.75-29.43-.75Z"/>
      <ellipse class="cls-3" cx="796.22" cy="754.13" rx="3.77" ry="12.99"/>
      <path class="cls-3" d="m809.44,942.09c0,24.53-2.12,44.41-4.73,44.41s-4.73-19.89-4.73-44.41,2.12-44.41,4.73-44.41,4.73,19.89,4.73,44.41Z"/>
      <ellipse class="cls-3" cx="796.22" cy="862.31" rx="3.77" ry="12.99"/>
      <ellipse class="cls-3" cx="805.68" cy="803.58" rx="5.69" ry="29.99"/>
      <path class="cls-10" d="m867.37,696.11c-60.91-51.5-115.57-13.55-136.97,5.99,9.39-29.49,36.99-50.83,69.58-50.83,20.16,0,38.43,8.17,51.64,21.38,6.67,6.67,12.05,14.61,15.75,23.45Z"/>
      <path class="cls-6" d="m842.78,1049.59h-151.95s1.34-38.84,39.57-28.92c10.3-35.16,47.19-14.14,36.4,13.64,25.26-19.06,69.03-4.45,75.98,15.28Z"/>
      <path class="cls-8" d="m761.25,1047.15h-56.05c5.49-8.05,14.98-16.54,30.52-12.86,6.91-12.58,28.02-5.18,25.52,12.86Z"/>
    </g>
  </g>
  <g>
    <path class="cls-4" d="m323.52,907.99s24.8,50.66,76.72,38.14c12.07,33.58,34.84,19.92,34.84,19.92,0,0,16.51,25.71,38.71-2.51,7.97,38.94,50.66.81,60.91-9.44,20.49,31.88,67.74,22.77,62.61-6.26,35.29,17.08,56.92-7.97,58.63-26.18-44.97,3.42-149.67-29.15-149.67-29.15"/>
    <path class="cls-4" d="m417.35,694.72s7.34,17.54,27.01,21.12c-9,10.75,13.7,31.06,29.63,23.5,5.97,19.51,28.86,7.65,28.86,7.65,0,0,32.29,12.66,43.13-7.65,19.6,13.94,68.18-3.58,56.24-37.04-24.29,12.74-114.34-19.91-114.34-19.91l-70.52,12.33Z"/>
    <path class="cls-4" d="m440.93,589.6s4.97,18.32,25.38,9.16c.9,27.88,33.68,27.05,35.81,11.73,12.08,14.55,21.27,1.41,21.27,1.41,0,0,35.81,5.97,35.02-22.3-.8-28.27-109.91-17.92-117.48,0Z"/>
    <polygon class="cls-3" points="523.39 1063.07 482.3 1063.07 501.69 516.49 504.01 516.49 523.39 1063.07"/>
    <path class="cls-1" d="m502.85,496.94s-3.15,22.01-17.12,27.39c12.89-1.07,15.84-4.58,15.84-4.58,0,0,6.18,9.14,18.54,4.58-11.82-3.22-17.26-27.39-17.26-27.39Z"/>
    <path class="cls-1" d="m456.02,1066.13h99.95s6.87-43.98,0-48.98c-6.87-5-5.62,41.23-5.62,41.23,0,0-9.37-21.37-12.49-16.93-3.12,4.44-.62,16.93-.62,16.93,0,0-21.86-21.24-26.24-11.87-4.37,9.37-3.47,13.74-3.47,13.74,0,0-13.4-26.86-26.52-23.74-13.12,3.12-13.74,20.62-13.74,20.62,0,0-5.62-28.11-11.24-27.49-5.62.62,0,36.48,0,36.48Z"/>
    <path class="cls-4" d="m502.85,822.48s-8.1,41.05-53.08,51.05c38.25,28.18,53.08,5.62,53.08,5.62,0,0,24.87,28.74,56.18,1.87-25.54-5-47.42-23.54-56.18-58.55Z"/>
    <path class="cls-4" d="m502.85,631.77s-16.42,48.85-58.49,53.79c22.28,11.81,29.24,4.31,29.24,4.31,0,0,17.51,28.11,46.5,5.62,14,13.12,25.87.62,25.87.62,0,0-30.04-11.24-43.13-64.34Z"/>
    <path class="cls-4" d="m502.85,541.16s-11.66,31.06-36.53,28.21c11.63,16.58,26.46,7.27,26.46,7.27,0,0,13.09,9.89,18.61-.29,2.33,9.31,10.63,5.23,12-2.04,6.32,3.78,12.43,3.2,15.34-3.49-30.96-1.45-35.88-29.66-35.88-29.66Z"/>
    <polyline class="cls-3" points="509.83 758.05 519.38 746.98 521.77 746.98 513 769.96"/>
    <polyline class="cls-3" points="502.52 608.21 495.17 604.73 493.1 609.91 499.87 615.48"/>
    <polyline class="cls-3" points="493.9 916.94 482.3 905.4 479.56 913.36 490.31 932.08"/>
    <polyline class="cls-3" points="512.22 984.25 525.76 968.71 530.14 973.89 519.38 1003.76"/>
    <path class="cls-11" d="m503.06,970.31c0,3.74-3.03,6.77-6.77,6.77s-6.77-3.03-6.77-6.77,3.03-6.77,6.77-6.77,6.77,3.03,6.77,6.77Z"/>
    <path class="cls-11" d="m514.64,1019.89c0,2.31-1.87,4.18-4.18,4.18s-4.18-1.87-4.18-4.18,1.87-4.18,4.18-4.18,4.18,1.87,4.18,4.18Z"/>
    <path class="cls-11" d="m512.22,996.38c0,1.64-1.33,2.97-2.97,2.97s-2.97-1.33-2.97-2.97,1.33-2.97,2.97-2.97,2.97,1.33,2.97,2.97Z"/>
    <circle class="cls-11" cx="507.23" cy="901.02" r="4.38"/>
    <path class="cls-11" d="m501.68,771.06c0,.61-.49,1.11-1.11,1.11s-1.11-.49-1.11-1.11.49-1.11,1.11-1.11,1.11.49,1.11,1.11Z"/>
    <path class="cls-11" d="m511.01,739.29c0,2.09-1.69,3.78-3.78,3.78s-3.78-1.69-3.78-3.78,1.69-3.78,3.78-3.78,3.78,1.69,3.78,3.78Z"/>
    <path class="cls-11" d="m504.65,723.2c0,1.43-1.16,2.59-2.59,2.59s-2.59-1.16-2.59-2.59,1.16-2.59,2.59-2.59,2.59,1.16,2.59,2.59Z"/>
    <path class="cls-11" d="m504.4,621.83c0,.65-.52,1.17-1.17,1.17s-1.17-.52-1.17-1.17.52-1.17,1.17-1.17,1.17.52,1.17,1.17Z"/>
    <path class="cls-1" d="m502.85,746.98s-44.78,156.31-197.87,153.89c74.13,53.98,107.16,29.01,107.16,29.01,0,0,3.22,25.78,22.56,29.01,19.34,3.22,29.81-16.92,29.81-16.92,0,0,35.45,37.87,70.9,0,25.78,28.2,47.54,14.5,51.57-6.45,53.18,21.75,83.8-21.75,83.8-21.75,0,0-143.29-9.67-167.93-166.78Z"/>
    <path class="cls-1" d="m503.05,606.63s-26.47,86.97-102.8,74.86c24.95,26.05,55.41,21.28,55.41,21.28,0,0-3.67,17.61,10.64,22.75,14.31,5.14,23.85-5.87,23.85-5.87,0,0,33.03,31.56,57.61-5.14,25.32,29.36,62.02,1.47,67.52-25.69-35.6,12.84-77-13.95-92.26-35.23-15.26-21.28-19.98-46.97-19.98-46.97Z"/>
    <path class="cls-1" d="m502.85,524.6s-43.65,54.4-96.18,43.31c34.21,48.67,61.2,19.27,61.2,19.27,0,0,14.54,28.91,34.98,4.82,20.44,26.02,35.37-.96,35.37-.96,0,0,34.7,26.02,61.2-15.9-50.12,7.23-96.57-50.54-96.57-50.54Z"/>
    <path class="cls-4" d="m500.24,748.87s-32.67,40.56-64.57,41.71c17.3,5.77,32.28-5.8,32.28-5.8,0,0-7.69,11.57,0,12.34,7.69.77,19.22-5.77,19.22-5.77,0,0,28.06,21.91,44.2-2.31,18.06,9.99,31.9-6.15,31.9-6.15,0,0-39.2,14.2-63.03-34.03Z"/>
  </g>
  <g>
    <path class="cls-4" d="m943.74,946.82s18.34,37.45,56.72,28.19c8.93,24.83,25.76,14.73,25.76,14.73,0,0,12.2,19,28.61-1.86,5.89,28.79,37.45.6,45.02-6.98,15.15,23.56,50.07,16.83,46.29-4.63,26.09,12.62,42.08-5.89,43.34-19.36-33.24,2.52-110.64-21.55-110.64-21.55"/>
    <path class="cls-4" d="m1013.11,789.16s5.42,12.96,19.96,15.61c-6.66,7.95,10.12,22.96,21.9,17.37,4.42,14.42,21.34,5.65,21.34,5.65,0,0,23.87,9.36,31.88-5.65,14.49,10.3,50.4-2.65,41.57-27.38-17.96,9.42-84.52-14.72-84.52-14.72l-52.13,9.11Z"/>
    <path class="cls-4" d="m1030.54,711.46s3.68,13.54,18.77,6.77c.66,20.61,24.9,20,26.47,8.67,8.93,10.76,15.72,1.04,15.72,1.04,0,0,26.47,4.42,25.89-16.49-.59-20.9-81.25-13.25-86.84,0Z"/>
    <polygon class="cls-3" points="1091.5 1061.46 1061.12 1061.46 1075.45 657.41 1077.17 657.41 1091.5 1061.46"/>
    <path class="cls-1" d="m1076.31,642.96s-2.33,16.27-12.66,20.25c9.53-.79,11.71-3.38,11.71-3.38,0,0,4.57,6.75,13.7,3.38-8.74-2.38-12.76-20.25-12.76-20.25Z"/>
    <path class="cls-1" d="m1041.69,1063.73h73.89s5.08-32.51,0-36.2c-5.08-3.69-4.16,30.48-4.16,30.48,0,0-6.93-15.8-9.24-12.52-2.31,3.28-.46,12.52-.46,12.52,0,0-16.16-15.7-19.4-8.77-3.23,6.93-2.57,10.16-2.57,10.16,0,0-9.9-19.86-19.6-17.55-9.7,2.31-10.16,15.24-10.16,15.24,0,0-4.16-20.78-8.31-20.32-4.16.46,0,26.97,0,26.97Z"/>
    <path class="cls-4" d="m1076.31,883.61s-5.98,30.35-39.23,37.74c28.28,20.83,39.23,4.16,39.23,4.16,0,0,18.39,21.24,41.53,1.39-18.88-3.69-35.05-17.4-41.53-43.28Z"/>
    <path class="cls-4" d="m1076.31,742.63s-12.14,36.11-43.24,39.76c16.47,8.73,21.62,3.19,21.62,3.19,0,0,12.94,20.78,34.38,4.16,10.35,9.7,19.13.46,19.13.46,0,0-22.2-8.31-31.88-47.57Z"/>
    <path class="cls-4" d="m1076.31,675.65s-8.62,22.96-27,20.85c8.6,12.25,19.56,5.37,19.56,5.37,0,0,9.67,7.31,13.76-.21,1.72,6.88,7.85,3.87,8.87-1.5,4.67,2.79,9.19,2.36,11.34-2.58-22.89-1.07-26.52-21.93-26.52-21.93Z"/>
    <polyline class="cls-3" points="1081.47 835.98 1088.53 827.8 1090.3 827.8 1083.81 844.78"/>
    <polyline class="cls-3" points="1076.07 725.21 1070.63 722.64 1069.11 726.47 1074.11 730.59"/>
    <polyline class="cls-3" points="1069.69 953.44 1061.12 944.9 1059.1 950.79 1067.04 964.63"/>
    <polyline class="cls-3" points="1083.24 1003.19 1093.24 991.71 1096.48 995.54 1088.53 1017.62"/>
    <path class="cls-11" d="m1076.46,992.89c0,2.76-2.24,5-5,5s-5-2.24-5-5,2.24-5,5-5,5,2.24,5,5Z"/>
    <path class="cls-11" d="m1085.03,1029.54c0,1.71-1.38,3.09-3.09,3.09s-3.09-1.38-3.09-3.09,1.38-3.09,3.09-3.09,3.09,1.38,3.09,3.09Z"/>
    <path class="cls-11" d="m1083.24,1012.16c0,1.21-.98,2.2-2.2,2.2s-2.2-.98-2.2-2.2.98-2.2,2.2-2.2,2.2.98,2.2,2.2Z"/>
    <circle class="cls-11" cx="1079.55" cy="941.67" r="3.24"/>
    <path class="cls-11" d="m1075.45,845.6c0,.45-.37.82-.82.82s-.82-.37-.82-.82.37-.82.82-.82.82.37.82.82Z"/>
    <path class="cls-11" d="m1082.35,822.11c0,1.54-1.25,2.8-2.8,2.8s-2.8-1.25-2.8-2.8,1.25-2.8,2.8-2.8,2.8,1.25,2.8,2.8Z"/>
    <path class="cls-11" d="m1077.64,810.22c0,1.06-.86,1.91-1.91,1.91s-1.91-.86-1.91-1.91.86-1.91,1.91-1.91,1.91.86,1.91,1.91Z"/>
    <path class="cls-11" d="m1077.46,735.28c0,.48-.39.86-.86.86s-.86-.39-.86-.86.39-.86.86-.86.86.39.86.86Z"/>
    <path class="cls-1" d="m1076.31,827.8s-33.1,115.55-146.27,113.76c54.8,39.91,79.22,21.44,79.22,21.44,0,0,2.38,19.06,16.68,21.44,14.29,2.38,22.04-12.51,22.04-12.51,0,0,26.21,27.99,52.41,0,19.06,20.85,35.14,10.72,38.12-4.76,39.31,16.08,61.94-16.08,61.94-16.08,0,0-105.92-7.15-124.14-123.29Z"/>
    <path class="cls-1" d="m1076.46,724.05s-19.57,64.29-76,55.34c18.45,19.26,40.96,15.73,40.96,15.73,0,0-2.71,13.02,7.87,16.82,10.58,3.8,17.63-4.34,17.63-4.34,0,0,24.42,23.33,42.59-3.8,18.72,21.7,45.85,1.09,49.92-18.99-26.31,9.49-56.92-10.31-68.2-26.04-11.28-15.73-14.77-34.72-14.77-34.72Z"/>
    <path class="cls-1" d="m1076.31,663.4s-32.27,40.21-71.1,32.02c25.29,35.98,45.24,14.25,45.24,14.25,0,0,10.75,21.37,25.86,3.56,15.11,19.24,26.15-.71,26.15-.71,0,0,25.65,19.24,45.24-11.76-37.05,5.34-71.39-37.36-71.39-37.36Z"/>
    <path class="cls-4" d="m1074.38,829.2s-24.15,29.98-47.73,30.84c12.79,4.26,23.87-4.29,23.87-4.29,0,0-5.68,8.55,0,9.12,5.68.57,14.21-4.26,14.21-4.26,0,0,20.74,16.19,32.67-1.7,13.35,7.39,23.58-4.55,23.58-4.55,0,0-28.98,10.5-46.59-25.15Z"/>
  </g>
  <g>
    <path class="cls-1" d="m1326.19,1046.29h-86.55s-3.83-34.78,25.97-30.93c-.85-28.51,34.06-21.73,28.95,0,22.14-21.27,32.83,6,32.83,6,0,0,17.74-33.72,45.68-6.44,21.55-24.67,43.69,8.64,23.68,31.37h-70.55Z"/>
    <g>
      <polyline class="cls-9" points="1445.86 841.46 1436.92 852.15 1406.92 843.27 1402.67 855.67 1439.28 859.62 1450.07 845.37"/>
      <path class="cls-9" d="m1395.96,822.2c.51-.67,42.31-29.5,42.31-29.5l2.43,7.46-34.46,39.07"/>
      <polyline class="cls-9" points="1217.57 786.29 1221.39 816.58 1250.83 841.46 1259.05 826.48 1227.79 812.81 1223.92 786.29"/>
      <path class="cls-9" d="m1342.29,961.04c.68-1.28,38.21-46.49,38.21-46.49l-11.94-3.41-26.27,34.34"/>
      <polyline class="cls-9" points="1317.37 955.83 1283.25 912.75 1276.85 915.96 1317.37 967.58"/>
      <rect class="cls-9" x="1308.65" y="918" width="35.06" height="127.86"/>
      <path class="cls-7" d="m1395.03,758.5c0,27.49-16.31,51.16-39.78,61.87-8.59,3.93-18.14,6.11-28.22,6.11-37.54,0-67.98-30.43-67.98-67.98s30.44-68,67.98-68c25.74,0,48.15,14.32,59.69,35.42,5.3,9.66,8.31,20.77,8.31,32.58Z"/>
      <path class="cls-1" d="m1395.03,758.5c0,27.49-16.31,51.16-39.78,61.87-17.57-7.74-29.84-25.31-29.84-45.76,0-27.6,22.38-49.98,49.98-49.98,3.9,0,7.7.45,11.34,1.29,5.3,9.66,8.31,20.77,8.31,32.58Z"/>
      <path class="cls-7" d="m1417.75,845.36c0,10.49-1.78,20.57-5.05,29.94-6.16,17.6-17.59,32.73-32.39,43.48-2.24,1.64-4.58,3.18-6.97,4.59-13.55,8.08-29.38,12.7-46.3,12.7-10.34,0-20.28-1.74-29.54-4.92-8.28-2.86-16.02-6.87-23.03-11.86-23.09-16.44-38.15-43.44-38.15-73.94,0-2.1.08-4.19.22-6.25,3.21-47.17,42.52-84.47,90.5-84.47s90.72,40.63,90.72,90.72Z"/>
      <circle class="cls-7" cx="1219.61" cy="772.18" r="21.81" transform="translate(199.46 1793.46) rotate(-77.37)"/>
      <circle class="cls-7" cx="1446.84" cy="783.73" r="29.08" transform="translate(-130.41 1252.62) rotate(-45)"/>
      <path class="cls-1" d="m1283.84,1045.86h92.62s-4.69-8.12-15.36-4.06c.43-17.92-22.61-19.2-24.31-5.12-8.1-12.37-8.67,3.84-8.67,3.84,0,0-13.93-13.22-25.03-2.13-8.96-8.1-20.02-3.56-19.26,7.47Z"/>
      <path class="cls-3" d="m1321,1019.3c0,2.18-1.77,3.95-3.95,3.95s-3.95-1.77-3.95-3.95,1.77-3.95,3.95-3.95,3.95,1.77,3.95,3.95Z"/>
      <path class="cls-3" d="m1341.01,991.53c0,5.18-4.2,9.38-9.38,9.38s-9.38-4.2-9.38-9.38,4.2-9.38,9.38-9.38,9.38,4.2,9.38,9.38Z"/>
      <circle class="cls-3" cx="1319.64" cy="964.63" r="2.59"/>
      <path class="cls-3" d="m1336.67,945.88c0,2.27-1.84,4.11-4.11,4.11s-4.11-1.84-4.11-4.11,1.84-4.11,4.11-4.11,4.11,1.84,4.11,4.11Z"/>
      <path class="cls-3" d="m1336.67,1011.01c0,1.13-.92,2.05-2.05,2.05s-2.05-.92-2.05-2.05.92-2.05,2.05-2.05,2.05.92,2.05,2.05Z"/>
      <path class="cls-3" d="m1319.64,977.67c0,1.81-1.46,3.27-3.27,3.27s-3.27-1.46-3.27-3.27,1.46-3.27,3.27-3.27,3.27,1.46,3.27,3.27Z"/>
      <path class="cls-1" d="m1215.84,797.92s-5.11-5.24-10.85,0c6.64,5.36,10.85,0,10.85,0Z"/>
      <path class="cls-1" d="m1217.46,788.36s-1.24-7.21-8.94-6.15c2.43,8.18,8.94,6.15,8.94,6.15Z"/>
      <path class="cls-1" d="m1219.86,788.59s6.46-3.42,3.06-10.41c-7.02,4.86-3.06,10.41-3.06,10.41Z"/>
      <path class="cls-1" d="m1430.73,796.29s6.46-3.42,3.06-10.41c-7.02,4.86-3.06,10.41-3.06,10.41Z"/>
      <path class="cls-1" d="m1437.32,844.12s2.52-6.87-4.68-9.79c-1.98,8.3,4.68,9.79,4.68,9.79Z"/>
      <path class="cls-1" d="m1457.31,852s3.8,6.25,10.58,2.44c-5.26-6.72-10.58-2.44-10.58-2.44Z"/>
      <path class="cls-1" d="m1345.77,873.8s1.97,7.05,9.52,5.21c-3.25-7.89-9.52-5.21-9.52-5.21Z"/>
      <path class="cls-1" d="m1440.91,805.92s13.46,7.57,21.98-6.45c-16.63-6.92-21.98,6.45-21.98,6.45Z"/>
      <path class="cls-1" d="m1328.35,743.92s14.61-4.99,9.85-20.69c-16.25,7.79-9.85,20.69-9.85,20.69Z"/>
      <path class="cls-1" d="m1436.67,796.48s10.35,3.41,14.35-7.47c-12.47-2.52-14.35,7.47-14.35,7.47Z"/>
      <path class="cls-1" d="m1417.66,802.74s1.64-10.78-9.75-12.91c-.41,12.72,9.75,12.91,9.75,12.91Z"/>
      <path class="cls-1" d="m1322.42,750.37s1.64-10.78-9.75-12.91c-.41,12.72,9.75,12.91,9.75,12.91Z"/>
      <path class="cls-1" d="m1457.86,866.07s1.64-10.78-9.75-12.91c-.41,12.71,9.75,12.91,9.75,12.91Z"/>
      <path class="cls-1" d="m1215.66,781.17s11.1-5.96,5.18-17.97c-12.05,8.43-5.18,17.97-5.18,17.97Z"/>
      <path class="cls-1" d="m1361.64,882.26s11.1-5.96,5.18-17.97c-12.05,8.43-5.18,17.97-5.18,17.97Z"/>
      <path class="cls-7" d="m1462.6,839.22c0,5.9-4.79,10.69-10.69,10.69s-10.69-4.79-10.69-10.69,4.79-10.69,10.69-10.69,10.69,4.79,10.69,10.69Z"/>
      <path class="cls-1" d="m1322.5,884.96c0,19.34-9.95,36.36-25.01,46.2-8.28-2.86-16.02-6.87-23.03-11.86-23.09-16.44-38.15-43.44-38.15-73.94,0-2.1.08-4.19.22-6.25,8.79-5.91,19.35-9.35,30.75-9.35,28.19,0,51.44,21.12,54.8,48.38.28,2.24.41,4.52.41,6.82Z"/>
      <path class="cls-1" d="m1380.3,918.78c-2.24,1.64-4.58,3.18-6.97,4.59-13.55,8.08-29.38,12.7-46.3,12.7-10.34,0-20.28-1.74-29.54-4.92-8.28-2.86-16.02-6.87-23.03-11.86,5.47-22.1,24.41-38.89,47.62-41.16,1.77-.17,3.56-.26,5.38-.26,14.65,0,27.96,5.78,37.76,15.18,7.2,6.91,12.52,15.76,15.08,25.73Z"/>
      <path class="cls-1" d="m1412.7,875.3c-6.16,17.6-17.59,32.73-32.39,43.48-2.24,1.64-4.58,3.18-6.97,4.59-5.68-5.65-9.2-13.49-9.2-22.13,0-2.83.38-5.58,1.09-8.19,3.59-13.27,15.71-23.02,30.12-23.02,6.42,0,12.4,1.95,17.36,5.27Z"/>
    </g>
    <circle class="cls-2" cx="1273.15" cy="869.95" r="20.03" transform="translate(-236 553.43) rotate(-22.5)"/>
    <path class="cls-2" d="m1301.19,907.53c0,4.67-3.79,8.46-8.46,8.46s-8.46-3.79-8.46-8.46,3.79-8.46,8.46-8.46,8.46,3.79,8.46,8.46Z"/>
  </g>
  <g>
    <path class="cls-4" d="m1420.07,931.37s20.99,42.87,64.93,32.28c10.22,28.42,29.49,16.86,29.49,16.86,0,0,13.97,21.76,32.76-2.13,6.74,32.96,42.87.68,51.54-7.99,17.34,26.98,57.32,19.27,52.99-5.3,29.87,14.45,48.17-6.74,49.62-22.16-38.06,2.89-126.66-24.67-126.66-24.67"/>
    <path class="cls-4" d="m1499.48,750.88s6.21,14.84,22.85,17.87c-7.62,9.1,11.59,26.29,25.07,19.88,5.06,16.51,24.43,6.47,24.43,6.47,0,0,27.33,10.71,36.5-6.47,16.59,11.8,57.7-3.03,47.59-31.34-20.56,10.78-96.76-16.85-96.76-16.85l-59.68,10.43Z"/>
    <path class="cls-4" d="m1519.43,661.92s4.21,15.5,21.48,7.75c.76,23.59,28.5,22.89,30.3,9.93,10.22,12.31,18,1.19,18,1.19,0,0,30.31,5.06,29.63-18.87-.67-23.93-93.02-15.17-99.42,0Z"/>
    <polygon class="cls-3" points="1589.22 1062.61 1554.44 1062.61 1570.85 600.04 1572.81 600.04 1589.22 1062.61"/>
    <path class="cls-1" d="m1571.83,583.5s-2.67,18.63-14.49,23.18c10.91-.9,13.41-3.87,13.41-3.87,0,0,5.23,7.73,15.69,3.87-10-2.72-14.61-23.18-14.61-23.18Z"/>
    <path class="cls-1" d="m1532.2,1065.2h84.59s5.82-37.22,0-41.45c-5.82-4.23-4.76,34.89-4.76,34.89,0,0-7.93-18.08-10.57-14.33-2.64,3.76-.53,14.33-.53,14.33,0,0-18.5-17.98-22.2-10.04-3.7,7.93-2.94,11.63-2.94,11.63,0,0-11.34-22.73-22.44-20.09-11.1,2.64-11.63,17.45-11.63,17.45,0,0-4.76-23.79-9.52-23.26-4.76.53,0,30.87,0,30.87Z"/>
    <path class="cls-4" d="m1571.83,859s-6.85,34.74-44.92,43.2c32.37,23.85,44.92,4.76,44.92,4.76,0,0,21.05,24.32,47.54,1.59-21.62-4.23-40.13-19.92-47.54-49.55Z"/>
    <path class="cls-4" d="m1571.83,697.61s-13.9,41.34-49.5,45.52c18.86,9.99,24.75,3.65,24.75,3.65,0,0,14.82,23.79,39.35,4.76,11.85,11.1,21.89.53,21.89.53,0,0-25.42-9.52-36.5-54.45Z"/>
    <path class="cls-4" d="m1571.83,620.92s-9.87,26.29-30.92,23.87c9.84,14.03,22.4,6.15,22.4,6.15,0,0,11.07,8.37,15.75-.25,1.97,7.88,8.99,4.43,10.16-1.72,5.35,3.2,10.52,2.71,12.98-2.95-26.21-1.23-30.37-25.1-30.37-25.1Z"/>
    <polyline class="cls-3" points="1577.74 804.47 1585.83 795.11 1587.85 795.11 1580.42 814.55"/>
    <polyline class="cls-3" points="1571.56 677.66 1565.33 674.72 1563.58 679.1 1569.31 683.82"/>
    <polyline class="cls-3" points="1564.26 938.94 1554.44 929.17 1552.12 935.91 1561.22 951.75"/>
    <polyline class="cls-3" points="1579.76 995.9 1591.22 982.76 1594.92 987.14 1585.83 1012.41"/>
    <path class="cls-11" d="m1572.01,984.1c0,3.16-2.57,5.73-5.73,5.73s-5.73-2.57-5.73-5.73,2.57-5.73,5.73-5.73,5.73,2.57,5.73,5.73Z"/>
    <path class="cls-11" d="m1581.81,1026.06c0,1.95-1.58,3.54-3.54,3.54s-3.54-1.58-3.54-3.54,1.58-3.54,3.54-3.54,3.54,1.58,3.54,3.54Z"/>
    <path class="cls-11" d="m1579.76,1006.17c0,1.39-1.13,2.51-2.51,2.51s-2.51-1.13-2.51-2.51,1.13-2.51,2.51-2.51,2.51,1.13,2.51,2.51Z"/>
    <circle class="cls-11" cx="1575.54" cy="925.46" r="3.71"/>
    <path class="cls-11" d="m1570.85,815.48c0,.52-.42.94-.94.94s-.94-.42-.94-.94.42-.94.94-.94.94.42.94.94Z"/>
    <path class="cls-11" d="m1578.74,788.6c0,1.77-1.43,3.2-3.2,3.2s-3.2-1.43-3.2-3.2,1.43-3.2,3.2-3.2,3.2,1.43,3.2,3.2Z"/>
    <path class="cls-11" d="m1573.36,774.98c0,1.21-.98,2.19-2.19,2.19s-2.19-.98-2.19-2.19.98-2.19,2.19-2.19,2.19.98,2.19,2.19Z"/>
    <path class="cls-11" d="m1573.14,689.19c0,.55-.44.99-.99.99s-.99-.44-.99-.99.44-.99.99-.99.99.44.99.99Z"/>
    <path class="cls-1" d="m1571.83,795.11s-37.9,132.28-167.45,130.24c62.73,45.69,90.69,24.55,90.69,24.55,0,0,2.73,21.82,19.09,24.55,16.36,2.73,25.23-14.32,25.23-14.32,0,0,30,32.05,60,0,21.82,23.87,40.23,12.27,43.64-5.46,45,18.41,70.91-18.41,70.91-18.41,0,0-121.26-8.18-142.12-141.15Z"/>
    <path class="cls-1" d="m1572,676.33s-22.4,73.6-87,63.36c21.12,22.05,46.9,18.01,46.9,18.01,0,0-3.11,14.91,9.01,19.26,12.11,4.35,20.19-4.97,20.19-4.97,0,0,27.95,26.71,48.76-4.35,21.43,24.85,52.49,1.24,57.14-21.74-30.13,10.87-65.16-11.8-78.08-29.81-12.92-18.01-16.91-39.75-16.91-39.75Z"/>
    <path class="cls-1" d="m1571.83,606.9s-36.94,46.03-81.39,36.65c28.95,41.19,51.79,16.31,51.79,16.31,0,0,12.31,24.47,29.6,4.08,17.29,22.02,29.94-.82,29.94-.82,0,0,29.36,22.02,51.79-13.46-42.41,6.12-81.73-42.77-81.73-42.77Z"/>
    <path class="cls-4" d="m1569.63,796.71s-27.65,34.32-54.64,35.3c14.64,4.88,27.32-4.91,27.32-4.91,0,0-6.51,9.79,0,10.44,6.51.65,16.26-4.88,16.26-4.88,0,0,23.74,18.54,37.41-1.95,15.29,8.46,27-5.2,27-5.2,0,0-33.18,12.02-53.34-28.8Z"/>
  </g>
  <g>
    <path class="cls-1" d="m1856.12,1070.13h-110.36s-4.89-44.35,33.12-39.44c-1.09-36.35,43.43-27.71,36.92,0,28.23-27.12,41.86,7.66,41.86,7.66,0,0,22.63-42.99,58.24-8.21,27.47-31.45,55.7,11.02,30.19,40h-89.96Z"/>
    <g>
      <polyline class="cls-9" points="2008.71 808.95 1997.32 822.58 1959.06 811.26 1953.63 827.08 2000.32 832.11 2014.08 813.94"/>
      <path class="cls-9" d="m1945.09,784.39c.64-.86,53.95-37.61,53.95-37.61l3.1,9.51-43.94,49.81"/>
      <polyline class="cls-9" points="1717.63 738.61 1722.5 777.23 1760.03 808.95 1770.52 789.86 1730.66 772.42 1725.73 738.61"/>
      <path class="cls-9" d="m1876.65,961.43c.86-1.63,48.72-59.28,48.72-59.28l-15.23-4.35-33.5,43.78"/>
      <polyline class="cls-9" points="1844.88 954.79 1801.37 899.86 1793.21 903.96 1844.88 969.77"/>
      <rect class="cls-9" x="1833.76" y="906.55" width="44.71" height="163.03"/>
      <path class="cls-7" d="m1943.9,703.18c0,35.06-20.8,65.24-50.73,78.89-10.95,5.01-23.13,7.79-35.98,7.79-47.87,0-86.68-38.8-86.68-86.68s38.82-86.7,86.68-86.7c32.82,0,61.4,18.25,76.11,45.16,6.76,12.32,10.6,26.48,10.6,41.54Z"/>
      <path class="cls-1" d="m1943.9,703.18c0,35.06-20.8,65.24-50.73,78.89-22.41-9.87-38.05-32.28-38.05-58.34,0-35.19,28.54-63.73,63.73-63.73,4.97,0,9.81.57,14.45,1.65,6.76,12.32,10.6,26.48,10.6,41.54Z"/>
      <path class="cls-7" d="m1972.87,813.93c0,13.38-2.27,26.22-6.44,38.17-7.85,22.44-22.43,41.74-41.31,55.45-2.86,2.1-5.84,4.05-8.89,5.86-17.27,10.3-37.47,16.2-59.03,16.2-13.18,0-25.85-2.21-37.66-6.27-10.56-3.64-20.43-8.75-29.36-15.12-29.44-20.96-48.65-55.39-48.65-94.28,0-2.68.1-5.35.27-7.97,4.09-60.15,54.21-107.7,115.4-107.7s115.67,51.8,115.67,115.67Z"/>
      <circle class="cls-7" cx="1720.23" cy="720.62" r="27.81" transform="translate(640.93 2241.68) rotate(-77.37)"/>
      <circle class="cls-7" cx="2009.96" cy="735.35" r="37.08" transform="translate(68.73 1636.63) rotate(-45)"/>
      <path class="cls-1" d="m1802.12,1069.58h118.1s-5.98-10.36-19.58-5.18c.54-22.84-28.83-24.47-31-6.53-10.33-15.77-11.06,4.89-11.06,4.89,0,0-17.77-16.86-31.91-2.72-11.42-10.33-25.53-4.55-24.55,9.53Z"/>
      <path class="cls-3" d="m1849.5,1035.71c0,2.78-2.25,5.03-5.03,5.03s-5.03-2.25-5.03-5.03,2.25-5.03,5.03-5.03,5.03,2.25,5.03,5.03Z"/>
      <path class="cls-3" d="m1875.02,1000.3c0,6.61-5.36,11.97-11.97,11.97s-11.97-5.36-11.97-11.97,5.36-11.97,11.97-11.97,11.97,5.36,11.97,11.97Z"/>
      <circle class="cls-3" cx="1847.78" cy="966" r="3.31"/>
      <path class="cls-3" d="m1869.49,942.1c0,2.89-2.34,5.23-5.23,5.23s-5.23-2.34-5.23-5.23,2.34-5.23,5.23-5.23,5.23,2.34,5.23,5.23Z"/>
      <path class="cls-3" d="m1869.49,1025.14c0,1.45-1.17,2.62-2.62,2.62s-2.62-1.17-2.62-2.62,1.17-2.62,2.62-2.62,2.62,1.17,2.62,2.62Z"/>
      <path class="cls-3" d="m1847.78,982.64c0,2.3-1.87,4.17-4.17,4.17s-4.17-1.87-4.17-4.17,1.87-4.17,4.17-4.17,4.17,1.87,4.17,4.17Z"/>
      <path class="cls-1" d="m1715.43,753.45s-6.51-6.68-13.84,0c8.47,6.84,13.84,0,13.84,0Z"/>
      <path class="cls-1" d="m1717.48,741.26s-1.58-9.19-11.4-7.85c3.1,10.43,11.4,7.85,11.4,7.85Z"/>
      <path class="cls-1" d="m1720.55,741.54s8.24-4.37,3.9-13.28c-8.95,6.2-3.9,13.28-3.9,13.28Z"/>
      <path class="cls-1" d="m1989.42,751.36s8.24-4.37,3.9-13.28c-8.95,6.2-3.9,13.28-3.9,13.28Z"/>
      <path class="cls-1" d="m1997.83,812.35s3.22-8.75-5.96-12.49c-2.52,10.59,5.96,12.49,5.96,12.49Z"/>
      <path class="cls-1" d="m2023.31,822.39s4.84,7.97,13.48,3.12c-6.71-8.57-13.48-3.12-13.48-3.12Z"/>
      <path class="cls-1" d="m1881.09,850.19s2.51,8.98,12.14,6.64c-4.14-10.06-12.14-6.64-12.14-6.64Z"/>
      <path class="cls-1" d="m2002.4,763.64s17.16,9.65,28.03-8.22c-21.21-8.82-28.03,8.22-28.03,8.22Z"/>
      <path class="cls-1" d="m1858.88,684.58s18.63-6.36,12.55-26.38c-20.71,9.93-12.55,26.38-12.55,26.38Z"/>
      <path class="cls-1" d="m1996.99,751.61s13.2,4.35,18.3-9.52c-15.9-3.22-18.3,9.52-18.3,9.52Z"/>
      <path class="cls-1" d="m1972.76,759.59s2.09-13.74-12.43-16.46c-.53,16.21,12.43,16.46,12.43,16.46Z"/>
      <path class="cls-1" d="m1851.32,692.81s2.09-13.74-12.43-16.46c-.53,16.21,12.43,16.46,12.43,16.46Z"/>
      <path class="cls-1" d="m2024.01,840.34s2.09-13.74-12.43-16.46c-.53,16.21,12.43,16.46,12.43,16.46Z"/>
      <path class="cls-1" d="m1715.2,732.08s14.16-7.6,6.6-22.91c-15.36,10.75-6.6,22.91-6.6,22.91Z"/>
      <path class="cls-1" d="m1901.33,860.98s14.16-7.6,6.6-22.91c-15.36,10.75-6.6,22.91-6.6,22.91Z"/>
      <path class="cls-7" d="m2030.05,806.1c0,7.53-6.1,13.63-13.63,13.63s-13.63-6.1-13.63-13.63,6.1-13.63,13.63-13.63,13.63,6.1,13.63,13.63Z"/>
      <path class="cls-1" d="m1851.42,864.42c0,24.66-12.69,46.36-31.88,58.91-10.56-3.64-20.43-8.75-29.36-15.12-29.44-20.96-48.65-55.39-48.65-94.28,0-2.68.1-5.35.27-7.97,11.2-7.54,24.68-11.93,39.21-11.93,35.94,0,65.59,26.93,69.88,61.69.35,2.86.53,5.76.53,8.7Z"/>
      <path class="cls-1" d="m1925.12,907.55c-2.86,2.1-5.84,4.05-8.89,5.86-17.27,10.3-37.47,16.2-59.03,16.2-13.18,0-25.85-2.21-37.66-6.27-10.56-3.64-20.43-8.75-29.36-15.12,6.97-28.18,31.12-49.59,60.71-52.49,2.25-.22,4.54-.33,6.85-.33,18.68,0,35.65,7.36,48.14,19.35,9.19,8.81,15.96,20.09,19.23,32.81Z"/>
      <path class="cls-1" d="m1966.43,852.1c-7.85,22.44-22.43,41.74-41.31,55.45-2.86,2.1-5.84,4.05-8.89,5.86-7.25-7.21-11.73-17.2-11.73-28.22,0-3.6.49-7.11,1.39-10.44,4.58-16.92,20.04-29.36,38.41-29.36,8.19,0,15.81,2.49,22.13,6.72Z"/>
    </g>
    <circle class="cls-2" cx="1788.49" cy="845.28" r="25.55" transform="translate(-187.33 748.77) rotate(-22.5)"/>
    <path class="cls-2" d="m1824.25,893.2c0,5.95-4.83,10.78-10.78,10.78s-10.78-4.83-10.78-10.78,4.83-10.78,10.78-10.78,10.78,4.83,10.78,10.78Z"/>
  </g>
  <g>
    <path class="cls-4" d="m1978.86,905.54s24.62,50.29,76.16,37.86c11.99,33.34,34.59,19.78,34.59,19.78,0,0,16.39,25.52,38.42-2.5,7.91,38.66,50.29.8,60.46-9.37,20.34,31.64,67.24,22.6,62.16-6.22,35.03,16.95,56.5-7.91,58.2-25.99-44.64,3.39-148.57-28.94-148.57-28.94"/>
    <path class="cls-4" d="m2072.01,693.83s7.28,17.41,26.81,20.97c-8.94,10.67,13.6,30.83,29.41,23.32,5.93,19.37,28.65,7.59,28.65,7.59,0,0,32.05,12.57,42.81-7.59,19.46,13.84,67.69-3.56,55.83-36.76-24.11,12.65-113.5-19.77-113.5-19.77l-70.01,12.24Z"/>
    <path class="cls-4" d="m2095.42,589.48s4.94,18.18,25.2,9.09c.89,27.67,33.44,26.85,35.55,11.65,11.99,14.44,21.11,1.4,21.11,1.4,0,0,35.55,5.93,34.76-22.14-.79-28.07-109.11-17.79-116.62,0Z"/>
    <polygon class="cls-3" points="2177.28 1059.48 2136.49 1059.48 2155.73 516.9 2158.03 516.9 2177.28 1059.48"/>
    <path class="cls-1" d="m2156.88,497.5s-3.13,21.85-16.99,27.19c12.8-1.06,15.73-4.54,15.73-4.54,0,0,6.14,9.07,18.4,4.54-11.73-3.19-17.13-27.19-17.13-27.19Z"/>
    <path class="cls-1" d="m2110.4,1062.53h99.22s6.82-43.66,0-48.62c-6.82-4.96-5.58,40.93-5.58,40.93,0,0-9.3-21.21-12.4-16.81-3.1,4.41-.62,16.81-.62,16.81,0,0-21.7-21.08-26.05-11.78-4.34,9.3-3.45,13.64-3.45,13.64,0,0-13.3-26.67-26.32-23.56-13.02,3.1-13.64,20.46-13.64,20.46,0,0-5.58-27.91-11.16-27.29-5.58.62,0,36.21,0,36.21Z"/>
    <path class="cls-4" d="m2156.88,820.66s-8.04,40.75-52.69,50.68c37.97,27.98,52.69,5.58,52.69,5.58,0,0,24.69,28.53,55.77,1.86-25.36-4.96-47.07-23.36-55.77-58.12Z"/>
    <path class="cls-4" d="m2156.88,631.34s-16.3,48.49-58.06,53.39c22.12,11.72,29.03,4.28,29.03,4.28,0,0,17.38,27.91,46.16,5.58,13.9,13.02,25.68.62,25.68.62,0,0-29.82-11.16-42.81-63.87Z"/>
    <path class="cls-4" d="m2156.88,541.39s-11.58,30.83-36.26,28c11.55,16.45,26.27,7.22,26.27,7.22,0,0,12.99,9.82,18.48-.29,2.31,9.24,10.55,5.2,11.91-2.02,6.27,3.75,12.34,3.18,15.22-3.46-30.74-1.44-35.62-29.45-35.62-29.45Z"/>
    <polyline class="cls-3" points="2163.81 756.7 2173.3 745.71 2175.67 745.71 2166.96 768.52"/>
    <polyline class="cls-3" points="2156.56 607.95 2149.26 604.5 2147.21 609.64 2153.93 615.18"/>
    <polyline class="cls-3" points="2148 914.43 2136.49 902.96 2133.76 910.87 2144.44 929.45"/>
    <polyline class="cls-3" points="2166.18 981.24 2179.62 965.82 2183.97 970.96 2173.3 1000.61"/>
    <path class="cls-11" d="m2157.09,967.4c0,3.71-3.01,6.72-6.72,6.72s-6.72-3.01-6.72-6.72,3.01-6.72,6.72-6.72,6.72,3.01,6.72,6.72Z"/>
    <path class="cls-11" d="m2168.58,1016.62c0,2.29-1.86,4.15-4.15,4.15s-4.15-1.86-4.15-4.15,1.86-4.15,4.15-4.15,4.15,1.86,4.15,4.15Z"/>
    <path class="cls-11" d="m2166.18,993.28c0,1.63-1.32,2.95-2.95,2.95s-2.95-1.32-2.95-2.95,1.32-2.95,2.95-2.95,2.95,1.32,2.95,2.95Z"/>
    <circle class="cls-11" cx="2161.23" cy="898.62" r="4.35"/>
    <path class="cls-11" d="m2155.73,769.61c0,.61-.49,1.1-1.1,1.1s-1.1-.49-1.1-1.1.49-1.1,1.1-1.1,1.1.49,1.1,1.1Z"/>
    <path class="cls-11" d="m2164.99,738.07c0,2.07-1.68,3.76-3.76,3.76s-3.76-1.68-3.76-3.76,1.68-3.76,3.76-3.76,3.76,1.68,3.76,3.76Z"/>
    <path class="cls-11" d="m2158.67,722.11c0,1.42-1.15,2.57-2.57,2.57s-2.57-1.15-2.57-2.57,1.15-2.57,2.57-2.57,2.57,1.15,2.57,2.57Z"/>
    <path class="cls-11" d="m2158.42,621.48c0,.64-.52,1.16-1.16,1.16s-1.16-.52-1.16-1.16.52-1.16,1.16-1.16,1.16.52,1.16,1.16Z"/>
    <path class="cls-1" d="m2156.88,745.71s-44.45,155.17-196.42,152.77c73.58,53.59,106.38,28.79,106.38,28.79,0,0,3.2,25.59,22.4,28.79,19.2,3.2,29.59-16.8,29.59-16.8,0,0,35.19,37.59,70.38,0,25.59,27.99,47.19,14.4,51.19-6.4,52.79,21.6,83.18-21.6,83.18-21.6,0,0-142.24-9.6-166.7-165.56Z"/>
    <path class="cls-1" d="m2157.08,606.39s-26.28,86.34-102.05,74.31c24.77,25.86,55.01,21.13,55.01,21.13,0,0-3.64,17.49,10.56,22.59,14.21,5.1,23.68-5.83,23.68-5.83,0,0,32.79,31.33,57.19-5.1,25.14,29.14,61.56,1.46,67.03-25.5-35.34,12.75-76.43-13.84-91.59-34.97-15.15-21.13-19.84-46.63-19.84-46.63Z"/>
    <path class="cls-1" d="m2156.88,524.95s-43.33,54-95.47,43c33.96,48.31,60.75,19.13,60.75,19.13,0,0,14.44,28.7,34.72,4.78,20.29,25.83,35.12-.96,35.12-.96,0,0,34.44,25.83,60.75-15.79-49.75,7.18-95.87-50.17-95.87-50.17Z"/>
    <path class="cls-4" d="m2154.29,747.59s-32.43,40.26-64.1,41.41c17.17,5.72,32.05-5.76,32.05-5.76,0,0-7.63,11.48,0,12.25,7.63.76,19.08-5.72,19.08-5.72,0,0,27.85,21.75,43.88-2.29,17.93,9.92,31.67-6.1,31.67-6.1,0,0-38.92,14.09-62.57-33.78Z"/>
  </g>
  <g>
    <path class="cls-1" d="m2469.97,1054.03h-108.11s-4.79-43.45,32.44-38.64c-1.06-35.61,42.55-27.14,36.16,0,27.65-26.57,41.01,7.5,41.01,7.5,0,0,22.16-42.12,57.06-8.05,26.91-30.81,54.57,10.8,29.57,39.19h-88.13Z"/>
    <g>
      <polyline class="cls-9" points="2619.45 798.17 2608.29 811.53 2570.81 800.44 2565.5 815.93 2611.24 820.86 2624.71 803.06"/>
      <path class="cls-9" d="m2557.13,774.12c.63-.84,52.85-36.85,52.85-36.85l3.04,9.31-43.04,48.8"/>
      <polyline class="cls-9" points="2334.3 729.27 2339.08 767.1 2375.84 798.17 2386.11 779.47 2347.07 762.39 2342.24 729.27"/>
      <path class="cls-9" d="m2490.08,947.54c.85-1.6,47.73-58.08,47.73-58.08l-14.92-4.26-32.81,42.89"/>
      <polyline class="cls-9" points="2458.96 941.04 2416.33 887.23 2408.34 891.24 2458.96 955.71"/>
      <rect class="cls-9" x="2448.07" y="893.78" width="43.8" height="159.71"/>
      <path class="cls-7" d="m2555.97,694.55c0,34.34-20.38,63.91-49.69,77.28-10.73,4.91-22.66,7.64-35.24,7.64-46.89,0-84.92-38.01-84.92-84.92s38.03-84.94,84.92-84.94c32.16,0,60.15,17.88,74.56,44.24,6.62,12.07,10.38,25.94,10.38,40.69Z"/>
      <path class="cls-1" d="m2555.97,694.55c0,34.34-20.38,63.91-49.69,77.28-21.95-9.67-37.28-31.62-37.28-57.16,0-34.48,27.95-62.43,62.43-62.43,4.87,0,9.61.56,14.16,1.61,6.62,12.07,10.38,25.94,10.38,40.69Z"/>
      <path class="cls-7" d="m2584.34,803.05c0,13.1-2.23,25.69-6.31,37.39-7.69,21.99-21.97,40.89-40.46,54.32-2.8,2.05-5.72,3.97-8.71,5.74-16.92,10.09-36.7,15.87-57.83,15.87-12.91,0-25.33-2.17-36.9-6.14-10.34-3.57-20.01-8.58-28.76-14.81-28.84-20.53-47.66-54.26-47.66-92.36,0-2.63.1-5.24.27-7.81,4.01-58.92,53.11-105.5,113.04-105.5s113.31,50.75,113.31,113.31Z"/>
      <circle class="cls-7" cx="2336.85" cy="711.64" r="27.24" transform="translate(1131.5 2836.36) rotate(-77.37)"/>
      <circle class="cls-7" cx="2620.67" cy="726.07" r="36.32" transform="translate(254.17 2065.76) rotate(-45)"/>
      <path class="cls-1" d="m2417.07,1053.5h115.69s-5.86-10.15-19.18-5.07c.53-22.38-28.24-23.98-30.37-6.39-10.12-15.45-10.83,4.8-10.83,4.8,0,0-17.41-16.52-31.26-2.66-11.19-10.12-25.01-4.45-24.05,9.34Z"/>
      <path class="cls-3" d="m2463.49,1020.31c0,2.72-2.21,4.93-4.93,4.93s-4.93-2.21-4.93-4.93,2.21-4.93,4.93-4.93,4.93,2.21,4.93,4.93Z"/>
      <path class="cls-3" d="m2488.48,985.63c0,6.47-5.25,11.72-11.72,11.72s-11.72-5.25-11.72-11.72,5.25-11.72,11.72-11.72,11.72,5.25,11.72,11.72Z"/>
      <circle class="cls-3" cx="2461.8" cy="952.03" r="3.24"/>
      <path class="cls-3" d="m2483.07,928.6c0,2.83-2.3,5.13-5.13,5.13s-5.13-2.3-5.13-5.13,2.3-5.13,5.13-5.13,5.13,2.3,5.13,5.13Z"/>
      <path class="cls-3" d="m2483.07,1009.96c0,1.42-1.15,2.56-2.56,2.56s-2.56-1.15-2.56-2.56,1.15-2.56,2.56-2.56,2.56,1.15,2.56,2.56Z"/>
      <path class="cls-3" d="m2461.8,968.32c0,2.26-1.83,4.08-4.08,4.08s-4.08-1.83-4.08-4.08,1.83-4.08,4.08-4.08,4.08,1.83,4.08,4.08Z"/>
      <path class="cls-1" d="m2332.14,743.8s-6.38-6.54-13.56,0c8.29,6.7,13.56,0,13.56,0Z"/>
      <path class="cls-1" d="m2334.16,731.86s-1.55-9-11.17-7.69c3.03,10.22,11.17,7.69,11.17,7.69Z"/>
      <path class="cls-1" d="m2337.16,732.14s8.07-4.28,3.82-13.01c-8.77,6.07-3.82,13.01-3.82,13.01Z"/>
      <path class="cls-1" d="m2600.56,741.75s8.07-4.28,3.82-13.01c-8.77,6.07-3.82,13.01-3.82,13.01Z"/>
      <path class="cls-1" d="m2608.79,801.5s3.15-8.58-5.84-12.23c-2.47,10.37,5.84,12.23,5.84,12.23Z"/>
      <path class="cls-1" d="m2633.76,811.34s4.74,7.81,13.21,3.05c-6.57-8.4-13.21-3.05-13.21-3.05Z"/>
      <path class="cls-1" d="m2494.43,838.57s2.46,8.8,11.89,6.51c-4.06-9.86-11.89-6.51-11.89-6.51Z"/>
      <path class="cls-1" d="m2613.27,753.78s16.81,9.46,27.46-8.05c-20.78-8.64-27.46,8.05-27.46,8.05Z"/>
      <path class="cls-1" d="m2472.68,676.34s18.25-6.23,12.3-25.84c-20.29,9.73-12.3,25.84-12.3,25.84Z"/>
      <path class="cls-1" d="m2607.97,742s12.93,4.26,17.93-9.32c-15.57-3.15-17.93,9.32-17.93,9.32Z"/>
      <path class="cls-1" d="m2584.23,749.81s2.05-13.46-12.18-16.13c-.52,15.88,12.18,16.13,12.18,16.13Z"/>
      <path class="cls-1" d="m2465.27,684.4s2.05-13.46-12.18-16.13c-.52,15.88,12.18,16.13,12.18,16.13Z"/>
      <path class="cls-1" d="m2634.45,828.92s2.05-13.46-12.18-16.13c-.52,15.88,12.18,16.13,12.18,16.13Z"/>
      <path class="cls-1" d="m2331.92,722.87s13.87-7.44,6.47-22.44c-15.05,10.53-6.47,22.44-6.47,22.44Z"/>
      <path class="cls-1" d="m2514.26,849.15s13.87-7.44,6.47-22.44c-15.05,10.53-6.47,22.44-6.47,22.44Z"/>
      <path class="cls-7" d="m2640.36,795.38c0,7.37-5.98,13.35-13.35,13.35s-13.35-5.98-13.35-13.35,5.98-13.35,13.35-13.35,13.35,5.98,13.35,13.35Z"/>
      <path class="cls-1" d="m2465.37,852.51c0,24.16-12.43,45.41-31.23,57.71-10.34-3.57-20.01-8.58-28.76-14.81-28.84-20.53-47.66-54.26-47.66-92.36,0-2.63.1-5.24.27-7.81,10.97-7.39,24.17-11.68,38.41-11.68,35.21,0,64.25,26.38,68.46,60.44.35,2.8.52,5.64.52,8.52Z"/>
      <path class="cls-1" d="m2537.57,894.76c-2.8,2.05-5.72,3.97-8.71,5.74-16.92,10.09-36.7,15.87-57.83,15.87-12.91,0-25.33-2.17-36.9-6.14-10.34-3.57-20.01-8.58-28.76-14.81,6.83-27.61,30.49-48.58,59.48-51.42,2.21-.21,4.45-.33,6.72-.33,18.3,0,34.92,7.21,47.16,18.96,9,8.63,15.64,19.68,18.84,32.14Z"/>
      <path class="cls-1" d="m2578.03,840.45c-7.69,21.99-21.97,40.89-40.46,54.32-2.8,2.05-5.72,3.97-8.71,5.74-7.1-7.06-11.49-16.85-11.49-27.65,0-3.53.48-6.96,1.36-10.23,4.49-16.58,19.63-28.76,37.62-28.76,8.02,0,15.48,2.44,21.68,6.58Z"/>
    </g>
    <circle class="cls-2" cx="2403.72" cy="833.76" r="25.03" transform="translate(-136.09 983.33) rotate(-22.5)"/>
    <path class="cls-2" d="m2438.75,880.71c0,5.83-4.73,10.56-10.56,10.56s-10.56-4.73-10.56-10.56,4.73-10.56,10.56-10.56,10.56,4.73,10.56,10.56Z"/>
  </g>
  <g>
    <path class="cls-10" d="m3036.14,1061.76h214.94s-10.3-37.6-32.04-25.17c-3.43-44.78-41.13-50.5-53.17-19.61-18.91-34.33-120.39-27.52-129.73,26.86"/>
    <g>
      <path class="cls-9" d="m2991.05,746.25l37.96,57.28v20.17l-46.4-71.94c-.83-1.28-1.03-2.88-.55-4.33h0c1.33-3.98,6.66-4.69,8.98-1.19Z"/>
      <path class="cls-8" d="m3186.19,678.24v151c0,47.92-38.82,86.74-86.74,86.74s-86.74-38.82-86.74-86.74v-151c0-9.2,1.42-18.06,4.08-26.36,11.15-35.03,43.94-60.38,82.66-60.38,23.95,0,45.65,9.7,61.34,25.4,7.92,7.92,14.32,17.36,18.71,27.86,4.3,10.31,6.69,21.61,6.69,33.48Z"/>
      <path class="cls-9" d="m3087.48,676.43h27.63c3.13,0,5.67,2.54,5.67,5.67v379.66h-38.97v-379.66c0-3.13,2.54-5.67,5.67-5.67Z"/>
      <path class="cls-9" d="m3057.17,741.22l37.96,57.28v20.17l-46.4-71.94c-.83-1.28-1.03-2.88-.55-4.33h0c1.33-3.98,6.66-4.69,8.98-1.19Z"/>
      <path class="cls-9" d="m3068.13,820.9l48.47,73.13-5.26,34.41-61.61-95.51c-1.81-2.8-2.25-6.27-1.19-9.43h0c2.9-8.69,14.53-10.23,19.59-2.6Z"/>
      <path class="cls-9" d="m3141.05,688.09l-37.96,57.28v20.17l46.4-71.94c.83-1.28,1.03-2.88.55-4.33h0c-1.33-3.98-6.66-4.69-8.98-1.19Z"/>
      <path class="cls-9" d="m3154.56,881.41l-37.96,57.28v20.17l46.4-71.94c.83-1.28,1.03-2.88.55-4.33h0c-1.33-3.98-6.66-4.69-8.98-1.19Z"/>
      <circle class="cls-10" cx="2993.95" cy="725.69" r="39.85"/>
      <circle class="cls-10" cx="3183.78" cy="849.55" r="50.57"/>
      <circle class="cls-5" cx="3167.68" cy="828.46" r="12.21"/>
      <circle class="cls-5" cx="3206.21" cy="842.19" r="17.99"/>
      <path class="cls-5" d="m2973.74,721.73c0,2.19-1.77,3.96-3.96,3.96s-3.96-1.77-3.96-3.96,1.77-3.96,3.96-3.96,3.96,1.77,3.96,3.96Z"/>
      <circle class="cls-5" cx="2982.51" cy="703.6" r="5.35"/>
      <circle class="cls-5" cx="3010.69" cy="716.35" r="12.75"/>
      <path class="cls-8" d="m3194.41,794.39s-4.94-17,14.22-18.89c3.41,18.89-14.22,18.89-14.22,18.89Z"/>
      <path class="cls-6" d="m3036.14,854.68s10.65-14.14,23.64.06c-13.08,14.05-23.64-.06-23.64-.06Z"/>
      <path class="cls-6" d="m3025.82,830.29s16.19-7.17,20.62,11.56c-18.27,5.91-20.62-11.56-20.62-11.56Z"/>
      <path class="cls-6" d="m3155.78,698.2s-3.1-17.43,16.15-17.27c1.39,19.15-16.15,17.27-16.15,17.27Z"/>
      <path class="cls-6" d="m3140.2,716.56s12.83-24.33,36.27-5.76c-16.57,24.79-36.27,5.76-36.27,5.76Z"/>
      <path class="cls-8" d="m3160.6,901.25s16.54,6.32,6.48,22.74c-17.12-8.68-6.48-22.74-6.48-22.74Z"/>
      <path class="cls-8" d="m3174.25,905.57s21.79-6.77,24.68,17.87c-24.26,4.85-24.68-17.87-24.68-17.87Z"/>
      <path class="cls-8" d="m2986.16,801.21s-11.23-13.69,5.64-22.96c10.57,16.03-5.64,22.96-5.64,22.96Z"/>
      <path class="cls-8" d="m2952.3,772.01s16.23-20.56,34.96.89c-19.81,20.34-34.96-.89-34.96-.89Z"/>
      <ellipse class="cls-3" cx="3094.98" cy="713.68" rx="4.47" ry="15.43"/>
      <path class="cls-3" d="m3110.68,936.96c0,29.14-2.51,52.76-5.62,52.76s-5.62-23.62-5.62-52.76,2.51-52.76,5.62-52.76,5.62,23.62,5.62,52.76Z"/>
      <ellipse class="cls-3" cx="3094.98" cy="842.19" rx="4.47" ry="15.43"/>
      <ellipse class="cls-3" cx="3106.21" cy="772.42" rx="6.76" ry="35.63"/>
      <path class="cls-10" d="m3179.5,644.75c-72.35-61.17-137.29-16.1-162.71,7.12,11.15-35.03,43.94-60.38,82.66-60.38,23.95,0,45.65,9.7,61.34,25.4,7.92,7.92,14.32,17.36,18.71,27.86Z"/>
      <path class="cls-6" d="m3150.29,1064.66h-180.5s1.59-46.13,47-34.35c12.24-41.76,56.05-16.8,43.24,16.2,30.01-22.64,82.01-5.29,90.26,18.15Z"/>
      <path class="cls-8" d="m3053.44,1061.76h-66.58c6.52-9.56,17.79-19.65,36.26-15.28,8.21-14.94,33.29-6.16,30.32,15.28Z"/>
    </g>
  </g>
  <g>
    <path class="cls-4" d="m2649.7,900.06s24.8,50.66,76.72,38.14c12.07,33.58,34.84,19.92,34.84,19.92,0,0,16.51,25.71,38.71-2.51,7.97,38.94,50.66.81,60.91-9.44,20.49,31.88,67.74,22.77,62.61-6.26,35.29,17.08,56.92-7.97,58.63-26.18-44.97,3.42-149.67-29.15-149.67-29.15"/>
    <path class="cls-4" d="m2743.54,686.79s7.34,17.54,27.01,21.12c-9,10.75,13.7,31.06,29.63,23.5,5.97,19.51,28.86,7.65,28.86,7.65,0,0,32.29,12.66,43.13-7.65,19.6,13.94,68.18-3.58,56.24-37.04-24.29,12.74-114.34-19.91-114.34-19.91l-70.52,12.33Z"/>
    <path class="cls-4" d="m2767.12,581.67s4.97,18.32,25.38,9.16c.9,27.88,33.68,27.05,35.81,11.73,12.08,14.55,21.27,1.41,21.27,1.41,0,0,35.81,5.97,35.02-22.3-.8-28.27-109.91-17.92-117.48,0Z"/>
    <polygon class="cls-3" points="2849.58 1055.14 2808.49 1055.14 2827.87 508.56 2830.2 508.56 2849.58 1055.14"/>
    <path class="cls-1" d="m2829.03,489.01s-3.15,22.01-17.12,27.39c12.89-1.07,15.84-4.58,15.84-4.58,0,0,6.18,9.14,18.54,4.58-11.82-3.22-17.26-27.39-17.26-27.39Z"/>
    <path class="cls-1" d="m2782.21,1058.21h99.95s6.87-43.98,0-48.98c-6.87-5-5.62,41.23-5.62,41.23,0,0-9.37-21.37-12.49-16.93-3.12,4.44-.62,16.93-.62,16.93,0,0-21.86-21.24-26.24-11.87-4.37,9.37-3.47,13.74-3.47,13.74,0,0-13.4-26.86-26.52-23.74-13.12,3.12-13.74,20.62-13.74,20.62,0,0-5.62-28.11-11.24-27.49-5.62.62,0,36.48,0,36.48Z"/>
    <path class="cls-4" d="m2829.03,814.56s-8.1,41.05-53.08,51.05c38.25,28.18,53.08,5.62,53.08,5.62,0,0,24.87,28.74,56.18,1.87-25.54-5-47.42-23.54-56.18-58.55Z"/>
    <path class="cls-4" d="m2829.03,623.84s-16.42,48.85-58.49,53.79c22.28,11.81,29.24,4.31,29.24,4.31,0,0,17.51,28.11,46.5,5.62,14,13.12,25.87.62,25.87.62,0,0-30.04-11.24-43.13-64.34Z"/>
    <path class="cls-4" d="m2829.03,533.23s-11.66,31.06-36.53,28.21c11.63,16.58,26.46,7.27,26.46,7.27,0,0,13.09,9.89,18.61-.29,2.33,9.31,10.63,5.23,12-2.04,6.32,3.78,12.43,3.2,15.34-3.49-30.96-1.45-35.88-29.66-35.88-29.66Z"/>
    <polyline class="cls-3" points="2836.01 750.12 2845.57 739.05 2847.96 739.05 2839.19 762.03"/>
    <polyline class="cls-3" points="2828.71 600.28 2821.36 596.8 2819.29 601.98 2826.06 607.55"/>
    <polyline class="cls-3" points="2820.08 909.02 2808.49 897.47 2805.75 905.43 2816.5 924.15"/>
    <polyline class="cls-3" points="2838.4 976.32 2851.94 960.79 2856.32 965.96 2845.57 995.83"/>
    <path class="cls-11" d="m2829.24,962.38c0,3.74-3.03,6.77-6.77,6.77s-6.77-3.03-6.77-6.77,3.03-6.77,6.77-6.77,6.77,3.03,6.77,6.77Z"/>
    <path class="cls-11" d="m2840.82,1011.96c0,2.31-1.87,4.18-4.18,4.18s-4.18-1.87-4.18-4.18,1.87-4.18,4.18-4.18,4.18,1.87,4.18,4.18Z"/>
    <path class="cls-11" d="m2838.4,988.45c0,1.64-1.33,2.97-2.97,2.97s-2.97-1.33-2.97-2.97,1.33-2.97,2.97-2.97,2.97,1.33,2.97,2.97Z"/>
    <circle class="cls-11" cx="2833.42" cy="893.09" r="4.38"/>
    <path class="cls-11" d="m2827.87,763.13c0,.61-.49,1.11-1.11,1.11s-1.11-.49-1.11-1.11.49-1.11,1.11-1.11,1.11.49,1.11,1.11Z"/>
    <path class="cls-11" d="m2837.2,731.36c0,2.09-1.69,3.78-3.78,3.78s-3.78-1.69-3.78-3.78,1.69-3.78,3.78-3.78,3.78,1.69,3.78,3.78Z"/>
    <path class="cls-11" d="m2830.84,715.28c0,1.43-1.16,2.59-2.59,2.59s-2.59-1.16-2.59-2.59,1.16-2.59,2.59-2.59,2.59,1.16,2.59,2.59Z"/>
    <path class="cls-11" d="m2830.59,613.9c0,.65-.52,1.17-1.17,1.17s-1.17-.52-1.17-1.17.52-1.17,1.17-1.17,1.17.52,1.17,1.17Z"/>
    <path class="cls-1" d="m2829.03,739.05s-44.78,156.31-197.87,153.89c74.13,53.98,107.16,29.01,107.16,29.01,0,0,3.22,25.78,22.56,29.01,19.34,3.22,29.81-16.92,29.81-16.92,0,0,35.45,37.87,70.9,0,25.78,28.2,47.54,14.5,51.57-6.45,53.18,21.75,83.8-21.75,83.8-21.75,0,0-143.29-9.67-167.93-166.78Z"/>
    <path class="cls-1" d="m2829.23,598.7s-26.47,86.97-102.8,74.86c24.95,26.05,55.41,21.28,55.41,21.28,0,0-3.67,17.61,10.64,22.75,14.31,5.14,23.85-5.87,23.85-5.87,0,0,33.03,31.56,57.61-5.14,25.32,29.36,62.02,1.47,67.52-25.69-35.6,12.84-77-13.95-92.26-35.23-15.26-21.28-19.98-46.97-19.98-46.97Z"/>
    <path class="cls-1" d="m2829.03,516.67s-43.65,54.4-96.18,43.31c34.21,48.67,61.2,19.27,61.2,19.27,0,0,14.54,28.91,34.98,4.82,20.44,26.02,35.37-.96,35.37-.96,0,0,34.7,26.02,61.2-15.9-50.12,7.23-96.57-50.54-96.57-50.54Z"/>
    <path class="cls-4" d="m2826.43,740.94s-32.67,40.56-64.57,41.71c17.3,5.77,32.28-5.8,32.28-5.8,0,0-7.69,11.57,0,12.34,7.69.77,19.22-5.77,19.22-5.77,0,0,28.06,21.91,44.2-2.31,18.06,9.99,31.9-6.15,31.9-6.15,0,0-39.2,14.2-63.03-34.03Z"/>
  </g>
  <g>
    <path class="cls-4" d="m3242.86,928.97s19.58,39.99,60.56,30.1c9.53,26.51,27.5,15.73,27.5,15.73,0,0,13.03,20.29,30.55-1.98,6.29,30.74,39.99.64,48.08-7.45,16.18,25.16,53.47,17.97,49.42-4.94,27.86,13.48,44.93-6.29,46.28-20.67-35.5,2.7-118.14-23.01-118.14-23.01"/>
    <path class="cls-4" d="m3316.93,760.62s5.79,13.84,21.32,16.67c-7.11,8.49,10.81,24.52,23.39,18.55,4.72,15.4,22.78,6.04,22.78,6.04,0,0,25.49,9.99,34.04-6.04,15.47,11,53.82-2.83,44.39-29.23-19.18,10.06-90.25-15.72-90.25-15.72l-55.67,9.73Z"/>
    <path class="cls-4" d="m3335.54,677.64s3.93,14.46,20.04,7.23c.71,22,26.59,21.35,28.27,9.26,9.54,11.49,16.79,1.11,16.79,1.11,0,0,28.27,4.72,27.64-17.6-.63-22.32-86.76-14.15-92.73,0Z"/>
    <polygon class="cls-3" points="3400.63 1051.38 3368.2 1051.38 3383.5 619.93 3385.33 619.93 3400.63 1051.38"/>
    <path class="cls-1" d="m3384.42,604.5s-2.49,17.37-13.51,21.62c10.18-.84,12.51-3.61,12.51-3.61,0,0,4.88,7.21,14.63,3.61-9.33-2.54-13.62-21.62-13.62-21.62Z"/>
    <path class="cls-1" d="m3347.45,1053.8h78.9s5.42-34.71,0-38.66c-5.42-3.94-4.44,32.55-4.44,32.55,0,0-7.4-16.87-9.86-13.37-2.47,3.5-.49,13.37-.49,13.37,0,0-17.26-16.77-20.71-9.37-3.45,7.4-2.74,10.85-2.74,10.85,0,0-10.57-21.2-20.93-18.74-10.36,2.47-10.85,16.27-10.85,16.27,0,0-4.44-22.19-8.88-21.7-4.44.49,0,28.8,0,28.8Z"/>
    <path class="cls-4" d="m3384.42,861.47s-6.39,32.41-41.9,40.3c30.19,22.25,41.9,4.44,41.9,4.44,0,0,19.63,22.68,44.35,1.48-20.16-3.95-37.43-18.58-44.35-46.21Z"/>
    <path class="cls-4" d="m3384.42,710.93s-12.96,38.56-46.17,42.46c17.59,9.32,23.08,3.4,23.08,3.4,0,0,13.82,22.19,36.71,4.44,11.05,10.36,20.42.49,20.42.49,0,0-23.71-8.88-34.04-50.79Z"/>
    <path class="cls-4" d="m3384.42,639.4s-9.21,24.52-28.84,22.27c9.18,13.08,20.89,5.74,20.89,5.74,0,0,10.33,7.81,14.69-.23,1.84,7.35,8.39,4.13,9.47-1.61,4.99,2.98,9.81,2.53,12.1-2.75-24.44-1.15-28.32-23.41-28.32-23.41Z"/>
    <polyline class="cls-3" points="3389.92 810.61 3397.47 801.87 3399.35 801.87 3392.43 820.01"/>
    <polyline class="cls-3" points="3384.16 692.33 3378.35 689.59 3376.72 693.67 3382.07 698.07"/>
    <polyline class="cls-3" points="3377.35 936.03 3368.2 926.92 3366.03 933.2 3374.52 947.98"/>
    <polyline class="cls-3" points="3391.81 989.16 3402.5 976.9 3405.96 980.99 3397.47 1004.56"/>
    <path class="cls-11" d="m3384.58,978.16c0,2.95-2.39,5.34-5.34,5.34s-5.34-2.39-5.34-5.34,2.39-5.34,5.34-5.34,5.34,2.39,5.34,5.34Z"/>
    <path class="cls-11" d="m3393.72,1017.29c0,1.82-1.48,3.3-3.3,3.3s-3.3-1.48-3.3-3.3,1.48-3.3,3.3-3.3,3.3,1.48,3.3,3.3Z"/>
    <path class="cls-11" d="m3391.81,998.73c0,1.3-1.05,2.34-2.34,2.34s-2.34-1.05-2.34-2.34,1.05-2.34,2.34-2.34,2.34,1.05,2.34,2.34Z"/>
    <circle class="cls-11" cx="3387.87" cy="923.46" r="3.46"/>
    <path class="cls-11" d="m3383.5,820.88c0,.48-.39.87-.87.87s-.87-.39-.87-.87.39-.87.87-.87.87.39.87.87Z"/>
    <path class="cls-11" d="m3390.86,795.8c0,1.65-1.34,2.99-2.99,2.99s-2.99-1.34-2.99-2.99,1.34-2.99,2.99-2.99,2.99,1.34,2.99,2.99Z"/>
    <path class="cls-11" d="m3385.84,783.1c0,1.13-.91,2.04-2.04,2.04s-2.04-.91-2.04-2.04.91-2.04,2.04-2.04,2.04.91,2.04,2.04Z"/>
    <path class="cls-11" d="m3385.64,703.08c0,.51-.41.92-.92.92s-.92-.41-.92-.92.41-.92.92-.92.92.41.92.92Z"/>
    <path class="cls-1" d="m3384.42,801.87s-35.35,123.38-156.19,121.48c58.51,42.61,84.59,22.9,84.59,22.9,0,0,2.54,20.35,17.81,22.9,15.26,2.54,23.53-13.36,23.53-13.36,0,0,27.98,29.89,55.97,0,20.35,22.26,37.52,11.45,40.7-5.09,41.98,17.17,66.14-17.17,66.14-17.17,0,0-113.11-7.63-132.56-131.65Z"/>
    <path class="cls-1" d="m3384.57,691.08s-20.9,68.65-81.15,59.09c19.7,20.57,43.74,16.8,43.74,16.8,0,0-2.9,13.9,8.4,17.96,11.3,4.06,18.83-4.63,18.83-4.63,0,0,26.07,24.91,45.48-4.06,19.99,23.17,48.96,1.16,53.3-20.28-28.1,10.14-60.78-11.01-72.83-27.81-12.05-16.8-15.77-37.08-15.77-37.08Z"/>
    <path class="cls-1" d="m3384.42,626.33s-34.46,42.94-75.92,34.19c27.01,38.42,48.31,15.21,48.31,15.21,0,0,11.48,22.82,27.61,3.8,16.13,20.54,27.92-.76,27.92-.76,0,0,27.39,20.54,48.31-12.55-39.56,5.71-76.23-39.89-76.23-39.89Z"/>
    <path class="cls-4" d="m3382.36,803.36s-25.79,32.02-50.97,32.93c13.65,4.55,25.48-4.58,25.48-4.58,0,0-6.07,9.13,0,9.74,6.07.61,15.17-4.55,15.17-4.55,0,0,22.15,17.29,34.89-1.82,14.26,7.89,25.18-4.85,25.18-4.85,0,0-30.94,11.21-49.75-26.86Z"/>
  </g>
  <g>
    <path class="cls-1" d="m3622.33,1062.36h-90.57s-4.01-36.4,27.18-32.37c-.89-29.83,35.64-22.74,30.29,0,23.17-22.26,34.35,6.28,34.35,6.28,0,0,18.57-35.28,47.8-6.74,22.55-25.81,45.71,9.05,24.77,32.83h-73.83Z"/>
    <g>
      <polyline class="cls-9" points="3747.55 848.03 3738.2 859.21 3706.8 849.92 3702.35 862.9 3740.67 867.03 3751.96 852.12"/>
      <path class="cls-9" d="m3695.34,827.87c.53-.71,44.27-30.87,44.27-30.87l2.54,7.8-36.06,40.88"/>
      <polyline class="cls-9" points="3508.67 790.3 3512.68 821.99 3543.47 848.03 3552.08 832.36 3519.37 818.05 3515.32 790.3"/>
      <path class="cls-9" d="m3639.17,973.16c.71-1.34,39.99-48.65,39.99-48.65l-12.5-3.57-27.49,35.93"/>
      <polyline class="cls-9" points="3613.1 967.71 3577.39 922.63 3570.7 925.99 3613.1 980"/>
      <rect class="cls-9" x="3603.98" y="928.12" width="36.69" height="133.79"/>
      <path class="cls-7" d="m3694.37,761.22c0,28.77-17.07,53.54-41.63,64.74-8.98,4.11-18.98,6.4-29.52,6.4-39.28,0-71.14-31.84-71.14-71.14s31.86-71.15,71.14-71.15c26.94,0,50.39,14.98,62.46,37.06,5.55,10.11,8.7,21.73,8.7,34.09Z"/>
      <path class="cls-1" d="m3694.37,761.22c0,28.77-17.07,53.54-41.63,64.74-18.39-8.1-31.23-26.49-31.23-47.88,0-28.88,23.42-52.3,52.3-52.3,4.08,0,8.05.47,11.86,1.35,5.55,10.11,8.7,21.73,8.7,34.09Z"/>
      <path class="cls-7" d="m3718.14,852.11c0,10.98-1.86,21.52-5.29,31.33-6.45,18.42-18.4,34.25-33.9,45.5-2.35,1.72-4.79,3.33-7.3,4.81-14.18,8.45-30.75,13.29-48.44,13.29-10.82,0-21.22-1.82-30.91-5.14-8.66-2.99-16.76-7.18-24.09-12.41-24.16-17.2-39.92-45.45-39.92-77.37,0-2.2.08-4.39.23-6.54,3.36-49.36,44.49-88.38,94.7-88.38s94.92,42.51,94.92,94.92Z"/>
      <circle class="cls-7" cx="3510.81" cy="775.54" r="22.82" transform="translate(1986.44 4031.85) rotate(-77.37)"/>
      <circle class="cls-7" cx="3748.57" cy="787.62" r="30.43" transform="translate(541 2881.33) rotate(-45)"/>
      <path class="cls-1" d="m3578.01,1061.91h96.92s-4.91-8.5-16.07-4.25c.45-18.75-23.66-20.09-25.44-5.36-8.48-12.94-9.07,4.02-9.07,4.02,0,0-14.58-13.84-26.19-2.23-9.37-8.48-20.95-3.73-20.15,7.82Z"/>
      <path class="cls-3" d="m3616.9,1034.12c0,2.28-1.85,4.13-4.13,4.13s-4.13-1.85-4.13-4.13,1.85-4.13,4.13-4.13,4.13,1.85,4.13,4.13Z"/>
      <path class="cls-3" d="m3637.84,1005.06c0,5.42-4.4,9.82-9.82,9.82s-9.82-4.4-9.82-9.82,4.4-9.82,9.82-9.82,9.82,4.4,9.82,9.82Z"/>
      <circle class="cls-3" cx="3615.48" cy="976.91" r="2.71"/>
      <path class="cls-3" d="m3633.3,957.29c0,2.37-1.92,4.3-4.3,4.3s-4.3-1.92-4.3-4.3,1.92-4.3,4.3-4.3,4.3,1.92,4.3,4.3Z"/>
      <path class="cls-3" d="m3633.3,1025.44c0,1.19-.96,2.15-2.15,2.15s-2.15-.96-2.15-2.15.96-2.15,2.15-2.15,2.15.96,2.15,2.15Z"/>
      <path class="cls-3" d="m3615.48,990.56c0,1.89-1.53,3.42-3.42,3.42s-3.42-1.53-3.42-3.42,1.53-3.42,3.42-3.42,3.42,1.53,3.42,3.42Z"/>
      <path class="cls-1" d="m3506.87,802.48s-5.34-5.48-11.36,0c6.95,5.61,11.36,0,11.36,0Z"/>
      <path class="cls-1" d="m3508.56,792.47s-1.3-7.54-9.36-6.44c2.54,8.56,9.36,6.44,9.36,6.44Z"/>
      <path class="cls-1" d="m3511.07,792.71s6.76-3.58,3.2-10.9c-7.34,5.08-3.2,10.9-3.2,10.9Z"/>
      <path class="cls-1" d="m3731.72,800.76s6.76-3.58,3.2-10.9c-7.34,5.08-3.2,10.9-3.2,10.9Z"/>
      <path class="cls-1" d="m3738.62,850.81s2.64-7.18-4.89-10.25c-2.07,8.69,4.89,10.25,4.89,10.25Z"/>
      <path class="cls-1" d="m3759.53,859.06s3.97,6.54,11.07,2.56c-5.51-7.03-11.07-2.56-11.07-2.56Z"/>
      <path class="cls-1" d="m3642.82,881.87s2.06,7.37,9.96,5.45c-3.4-8.26-9.96-5.45-9.96-5.45Z"/>
      <path class="cls-1" d="m3742.37,810.84s14.08,7.92,23-6.75c-17.41-7.24-23,6.75-23,6.75Z"/>
      <path class="cls-1" d="m3624.6,745.96s15.29-5.22,10.3-21.65c-17,8.15-10.3,21.65-10.3,21.65Z"/>
      <path class="cls-1" d="m3737.93,800.97s10.83,3.57,15.02-7.81c-13.05-2.64-15.02,7.81-15.02,7.81Z"/>
      <path class="cls-1" d="m3718.05,807.52s1.72-11.28-10.2-13.51c-.43,13.3,10.2,13.51,10.2,13.51Z"/>
      <path class="cls-1" d="m3618.39,752.72s1.72-11.28-10.2-13.51c-.43,13.3,10.2,13.51,10.2,13.51Z"/>
      <path class="cls-1" d="m3760.11,873.79s1.72-11.28-10.2-13.51c-.43,13.3,10.2,13.51,10.2,13.51Z"/>
      <path class="cls-1" d="m3506.68,784.94s11.62-6.23,5.42-18.8c-12.61,8.82-5.42,18.8-5.42,18.8Z"/>
      <path class="cls-1" d="m3659.43,890.73s11.62-6.23,5.42-18.8c-12.61,8.82-5.42,18.8-5.42,18.8Z"/>
      <path class="cls-7" d="m3765.06,845.69c0,6.18-5.01,11.19-11.19,11.19s-11.19-5.01-11.19-11.19,5.01-11.19,11.19-11.19,11.19,5.01,11.19,11.19Z"/>
      <path class="cls-1" d="m3618.47,893.55c0,20.24-10.41,38.04-26.17,48.35-8.66-2.99-16.76-7.18-24.09-12.41-24.16-17.2-39.92-45.45-39.92-77.37,0-2.2.08-4.39.23-6.54,9.19-6.19,20.25-9.79,32.18-9.79,29.49,0,53.83,22.1,57.35,50.63.29,2.35.43,4.73.43,7.14Z"/>
      <path class="cls-1" d="m3678.95,928.94c-2.35,1.72-4.79,3.33-7.3,4.81-14.18,8.45-30.75,13.29-48.44,13.29-10.82,0-21.22-1.82-30.91-5.14-8.66-2.99-16.76-7.18-24.09-12.41,5.72-23.13,25.54-40.7,49.82-43.07,1.85-.18,3.73-.27,5.63-.27,15.33,0,29.25,6.04,39.51,15.88,7.54,7.23,13.1,16.49,15.78,26.92Z"/>
      <path class="cls-1" d="m3712.85,883.44c-6.45,18.42-18.4,34.25-33.9,45.5-2.35,1.72-4.79,3.33-7.3,4.81-5.95-5.91-9.63-14.11-9.63-23.16,0-2.96.4-5.83,1.14-8.57,3.76-13.89,16.44-24.09,31.52-24.09,6.72,0,12.97,2.04,18.16,5.51Z"/>
    </g>
    <circle class="cls-2" cx="3566.83" cy="877.84" r="20.96" transform="translate(-64.43 1431.79) rotate(-22.5)"/>
    <path class="cls-2" d="m3596.17,917.17c0,4.89-3.96,8.85-8.85,8.85s-8.85-3.96-8.85-8.85,3.96-8.85,8.85-8.85,8.85,3.96,8.85,8.85Z"/>
  </g>
  <g>
    <path class="cls-4" d="m3724.25,924.44s20.99,42.87,64.93,32.28c10.22,28.42,29.49,16.86,29.49,16.86,0,0,13.97,21.76,32.76-2.13,6.74,32.96,42.87.68,51.54-7.99,17.34,26.98,57.32,19.27,52.99-5.3,29.87,14.45,48.17-6.74,49.62-22.16-38.06,2.89-126.66-24.67-126.66-24.67"/>
    <path class="cls-4" d="m3803.67,743.95s6.21,14.84,22.85,17.87c-7.62,9.1,11.59,26.29,25.07,19.88,5.06,16.51,24.43,6.47,24.43,6.47,0,0,27.33,10.71,36.5-6.47,16.59,11.8,57.7-3.03,47.59-31.34-20.56,10.78-96.76-16.85-96.76-16.85l-59.68,10.43Z"/>
    <path class="cls-4" d="m3823.62,654.99s4.21,15.5,21.48,7.75c.76,23.59,28.5,22.89,30.3,9.93,10.22,12.31,18,1.19,18,1.19,0,0,30.31,5.06,29.63-18.87-.67-23.93-93.02-15.17-99.42,0Z"/>
    <polygon class="cls-3" points="3893.41 1055.68 3858.63 1055.68 3875.04 593.11 3877 593.11 3893.41 1055.68"/>
    <path class="cls-1" d="m3876.02,576.57s-2.67,18.63-14.49,23.18c10.91-.9,13.41-3.87,13.41-3.87,0,0,5.23,7.73,15.69,3.87-10-2.72-14.61-23.18-14.61-23.18Z"/>
    <path class="cls-1" d="m3836.39,1058.27h84.59s5.82-37.22,0-41.45c-5.82-4.23-4.76,34.89-4.76,34.89,0,0-7.93-18.08-10.57-14.33-2.64,3.76-.53,14.33-.53,14.33,0,0-18.5-17.98-22.2-10.04-3.7,7.93-2.94,11.63-2.94,11.63,0,0-11.34-22.73-22.44-20.09-11.1,2.64-11.63,17.45-11.63,17.45,0,0-4.76-23.79-9.52-23.26-4.76.53,0,30.87,0,30.87Z"/>
    <path class="cls-4" d="m3876.02,852.08s-6.85,34.74-44.92,43.2c32.37,23.85,44.92,4.76,44.92,4.76,0,0,21.05,24.32,47.54,1.59-21.62-4.23-40.13-19.92-47.54-49.55Z"/>
    <path class="cls-4" d="m3876.02,690.68s-13.9,41.34-49.5,45.52c18.86,9.99,24.75,3.65,24.75,3.65,0,0,14.82,23.79,39.35,4.76,11.85,11.1,21.89.53,21.89.53,0,0-25.42-9.52-36.5-54.45Z"/>
    <path class="cls-4" d="m3876.02,613.99s-9.87,26.29-30.92,23.87c9.84,14.03,22.4,6.15,22.4,6.15,0,0,11.07,8.37,15.75-.25,1.97,7.88,8.99,4.43,10.16-1.72,5.35,3.2,10.52,2.71,12.98-2.95-26.21-1.23-30.37-25.1-30.37-25.1Z"/>
    <polyline class="cls-3" points="3881.92 797.55 3890.01 788.18 3892.03 788.18 3884.61 807.62"/>
    <polyline class="cls-3" points="3875.74 670.74 3869.52 667.79 3867.77 672.17 3873.5 676.89"/>
    <polyline class="cls-3" points="3868.44 932.02 3858.63 922.24 3856.31 928.98 3865.41 944.82"/>
    <polyline class="cls-3" points="3883.95 988.97 3895.4 975.83 3899.11 980.21 3890.01 1005.49"/>
    <path class="cls-11" d="m3876.19,977.18c0,3.16-2.57,5.73-5.73,5.73s-5.73-2.57-5.73-5.73,2.57-5.73,5.73-5.73,5.73,2.57,5.73,5.73Z"/>
    <path class="cls-11" d="m3885.99,1019.13c0,1.95-1.58,3.54-3.54,3.54s-3.54-1.58-3.54-3.54,1.58-3.54,3.54-3.54,3.54,1.58,3.54,3.54Z"/>
    <path class="cls-11" d="m3883.95,999.24c0,1.39-1.13,2.51-2.51,2.51s-2.51-1.13-2.51-2.51,1.13-2.51,2.51-2.51,2.51,1.13,2.51,2.51Z"/>
    <circle class="cls-11" cx="3879.73" cy="918.54" r="3.71"/>
    <path class="cls-11" d="m3875.03,808.56c0,.52-.42.94-.94.94s-.94-.42-.94-.94.42-.94.94-.94.94.42.94.94Z"/>
    <path class="cls-11" d="m3882.93,781.67c0,1.77-1.43,3.2-3.2,3.2s-3.2-1.43-3.2-3.2,1.43-3.2,3.2-3.2,3.2,1.43,3.2,3.2Z"/>
    <path class="cls-11" d="m3877.54,768.06c0,1.21-.98,2.19-2.19,2.19s-2.19-.98-2.19-2.19.98-2.19,2.19-2.19,2.19.98,2.19,2.19Z"/>
    <path class="cls-11" d="m3877.33,682.26c0,.55-.44.99-.99.99s-.99-.44-.99-.99.44-.99.99-.99.99.44.99.99Z"/>
    <path class="cls-1" d="m3876.02,788.18s-37.9,132.28-167.45,130.24c62.73,45.69,90.69,24.55,90.69,24.55,0,0,2.73,21.82,19.09,24.55,16.36,2.73,25.23-14.32,25.23-14.32,0,0,30,32.05,60,0,21.82,23.87,40.23,12.27,43.64-5.46,45,18.41,70.91-18.41,70.91-18.41,0,0-121.26-8.18-142.12-141.15Z"/>
    <path class="cls-1" d="m3876.19,669.4s-22.4,73.6-87,63.36c21.12,22.05,46.9,18.01,46.9,18.01,0,0-3.11,14.91,9.01,19.26,12.11,4.35,20.19-4.97,20.19-4.97,0,0,27.95,26.71,48.76-4.35,21.43,24.85,52.49,1.24,57.14-21.74-30.13,10.87-65.16-11.8-78.08-29.81-12.92-18.01-16.91-39.75-16.91-39.75Z"/>
    <path class="cls-1" d="m3876.02,599.98s-36.94,46.03-81.39,36.65c28.95,41.19,51.79,16.31,51.79,16.31,0,0,12.31,24.47,29.6,4.08,17.29,22.02,29.94-.82,29.94-.82,0,0,29.36,22.02,51.79-13.46-42.41,6.12-81.73-42.77-81.73-42.77Z"/>
    <path class="cls-4" d="m3873.81,789.78s-27.65,34.32-54.64,35.3c14.64,4.88,27.32-4.91,27.32-4.91,0,0-6.51,9.79,0,10.44,6.51.65,16.26-4.88,16.26-4.88,0,0,23.74,18.54,37.41-1.95,15.29,8.46,27-5.2,27-5.2,0,0-33.18,12.02-53.34-28.8Z"/>
  </g>
</svg>