<?xml version="1.0" encoding="UTF-8"?>
<svg id="forest_back" data-name="forest back" xmlns="http://www.w3.org/2000/svg" viewBox="0 0 4023 1080">
  <defs>
    <style>
      .cls-1 {
        fill: #25a977;
      }

      .cls-2 {
        fill: #1b8d67;
      }

      .cls-3 {
        fill: #6c2950;
      }

      .cls-4 {
        fill: #258265;
      }

      .cls-5 {
        fill: #ffdd3a;
      }

      .cls-6 {
        fill: #f17a40;
      }

      .cls-7 {
        fill: #36cd88;
      }

      .cls-8 {
        fill: #f99d46;
      }

      .cls-9 {
        fill: #853866;
      }

      .cls-10 {
        fill: #fabb50;
      }

      .cls-11 {
        fill: #582949;
      }
    </style>
  </defs>
  <g>
    <path class="cls-1" d="m167.72,883.97h-72.27s-3.2-29.04,21.69-25.83c-.71-23.81,28.44-18.14,24.18,0,18.49-17.76,27.41,5.01,27.41,5.01,0,0,14.82-28.16,38.14-5.38,17.99-20.6,36.48,7.22,19.77,26.2h-58.91Z"/>
    <g>
      <polyline class="cls-9" points="267.65 712.93 260.19 721.86 235.14 714.44 231.59 724.8 262.16 728.1 271.17 716.2"/>
      <path class="cls-9" d="m225.99,696.85c.42-.56,35.33-24.63,35.33-24.63l2.03,6.23-28.77,32.62"/>
      <polyline class="cls-9" points="77.03 666.87 80.22 692.16 104.8 712.93 111.66 700.43 85.56 689.01 82.33 666.87"/>
      <path class="cls-9" d="m181.17,812.78c.57-1.07,31.91-38.82,31.91-38.82l-9.97-2.85-21.94,28.67"/>
      <polyline class="cls-9" points="160.36 808.44 131.87 772.46 126.53 775.15 160.36 818.24"/>
      <rect class="cls-9" x="153.08" y="776.85" width="29.28" height="106.77"/>
      <path class="cls-7" d="m225.21,643.66c0,22.96-13.62,42.72-33.22,51.66-7.17,3.28-15.15,5.1-23.56,5.1-31.35,0-56.77-25.41-56.77-56.77s25.42-56.78,56.77-56.78c21.5,0,40.21,11.95,49.84,29.58,4.43,8.07,6.94,17.34,6.94,27.2Z"/>
      <path class="cls-1" d="m225.21,643.66c0,22.96-13.62,42.72-33.22,51.66-14.67-6.46-24.92-21.14-24.92-38.21,0-23.05,18.69-41.74,41.74-41.74,3.26,0,6.43.37,9.47,1.08,4.43,8.07,6.94,17.34,6.94,27.2Z"/>
      <path class="cls-7" d="m244.18,716.19c0,8.76-1.49,17.17-4.22,25-5.14,14.7-14.69,27.33-27.05,36.31-1.87,1.37-3.82,2.65-5.82,3.83-11.31,6.75-24.54,10.61-38.66,10.61-8.63,0-16.93-1.45-24.66-4.1-6.91-2.39-13.38-5.73-19.23-9.9-19.28-13.72-31.86-36.27-31.86-61.74,0-1.76.06-3.5.18-5.22,2.68-39.39,35.5-70.53,75.57-70.53s75.75,33.92,75.75,75.75Z"/>
      <circle class="cls-7" cx="78.73" cy="655.08" r="18.21" transform="translate(-577.72 588.69) rotate(-77.37)"/>
      <circle class="cls-7" cx="268.47" cy="664.73" r="24.28" transform="translate(-391.4 384.53) rotate(-45)"/>
      <path class="cls-1" d="m132.36,883.61h77.34s-3.92-6.78-12.82-3.39c.36-14.96-18.88-16.03-20.3-4.27-6.77-10.33-7.24,3.21-7.24,3.21,0,0-11.64-11.04-20.9-1.78-7.48-6.77-16.72-2.98-16.08,6.24Z"/>
      <path class="cls-3" d="m163.39,861.43c0,1.82-1.48,3.29-3.29,3.29s-3.29-1.48-3.29-3.29,1.48-3.29,3.29-3.29,3.29,1.48,3.29,3.29Z"/>
      <path class="cls-3" d="m180.1,838.24c0,4.33-3.51,7.84-7.84,7.84s-7.84-3.51-7.84-7.84,3.51-7.84,7.84-7.84,7.84,3.51,7.84,7.84Z"/>
      <circle class="cls-3" cx="162.26" cy="815.78" r="2.17"/>
      <path class="cls-3" d="m176.48,800.12c0,1.89-1.53,3.43-3.43,3.43s-3.43-1.53-3.43-3.43,1.53-3.43,3.43-3.43,3.43,1.53,3.43,3.43Z"/>
      <path class="cls-3" d="m176.48,854.51c0,.95-.77,1.71-1.71,1.71s-1.71-.77-1.71-1.71.77-1.71,1.71-1.71,1.71.77,1.71,1.71Z"/>
      <path class="cls-3" d="m162.26,826.67c0,1.51-1.22,2.73-2.73,2.73s-2.73-1.22-2.73-2.73,1.22-2.73,2.73-2.73,2.73,1.22,2.73,2.73Z"/>
      <path class="cls-1" d="m75.59,676.58s-4.27-4.37-9.06,0c5.54,4.48,9.06,0,9.06,0Z"/>
      <path class="cls-1" d="m76.93,668.6s-1.03-6.02-7.47-5.14c2.03,6.83,7.47,5.14,7.47,5.14Z"/>
      <path class="cls-1" d="m78.94,668.78s5.4-2.86,2.56-8.7c-5.86,4.06-2.56,8.7-2.56,8.7Z"/>
      <path class="cls-1" d="m255.02,675.21s5.4-2.86,2.56-8.7c-5.86,4.06-2.56,8.7-2.56,8.7Z"/>
      <path class="cls-1" d="m260.53,715.15s2.11-5.73-3.91-8.18c-1.65,6.93,3.91,8.18,3.91,8.18Z"/>
      <path class="cls-1" d="m277.22,721.73s3.17,5.22,8.83,2.04c-4.39-5.61-8.83-2.04-8.83-2.04Z"/>
      <path class="cls-1" d="m184.07,739.94s1.64,5.88,7.95,4.35c-2.71-6.59-7.95-4.35-7.95-4.35Z"/>
      <path class="cls-1" d="m263.52,683.25s11.24,6.32,18.36-5.38c-13.89-5.78-18.36,5.38-18.36,5.38Z"/>
      <path class="cls-1" d="m169.53,631.48s12.2-4.16,8.22-17.27c-13.57,6.51-8.22,17.27-8.22,17.27Z"/>
      <path class="cls-1" d="m259.98,675.38s8.65,2.85,11.98-6.23c-10.41-2.11-11.98,6.23-11.98,6.23Z"/>
      <path class="cls-1" d="m244.11,680.6s1.37-9-8.14-10.78c-.35,10.62,8.14,10.78,8.14,10.78Z"/>
      <path class="cls-1" d="m164.58,636.87s1.37-9-8.14-10.78c-.35,10.62,8.14,10.78,8.14,10.78Z"/>
      <path class="cls-1" d="m277.68,733.49s1.37-9-8.14-10.78c-.35,10.62,8.14,10.78,8.14,10.78Z"/>
      <path class="cls-1" d="m75.44,662.59s9.27-4.97,4.32-15c-10.06,7.04-4.32,15-4.32,15Z"/>
      <path class="cls-1" d="m197.33,747s9.27-4.97,4.32-15c-10.06,7.04-4.32,15-4.32,15Z"/>
      <path class="cls-7" d="m281.63,711.06c0,4.93-4,8.93-8.93,8.93s-8.93-4-8.93-8.93,4-8.93,8.93-8.93,8.93,4,8.93,8.93Z"/>
      <path class="cls-1" d="m164.65,749.26c0,16.15-8.31,30.36-20.88,38.58-6.91-2.39-13.38-5.73-19.23-9.9-19.28-13.72-31.86-36.27-31.86-61.74,0-1.76.06-3.5.18-5.22,7.34-4.94,16.16-7.81,25.68-7.81,23.54,0,42.95,17.64,45.76,40.4.23,1.87.35,3.77.35,5.69Z"/>
      <path class="cls-1" d="m212.91,777.5c-1.87,1.37-3.82,2.65-5.82,3.83-11.31,6.75-24.54,10.61-38.66,10.61-8.63,0-16.93-1.45-24.66-4.1-6.91-2.39-13.38-5.73-19.23-9.9,4.57-18.46,20.38-32.48,39.76-34.37,1.48-.14,2.98-.22,4.49-.22,12.24,0,23.34,4.82,31.53,12.67,6.02,5.77,10.45,13.16,12.6,21.48Z"/>
      <path class="cls-1" d="m239.96,741.19c-5.14,14.7-14.69,27.33-27.05,36.31-1.87,1.37-3.82,2.65-5.82,3.83-4.75-4.72-7.68-11.26-7.68-18.48,0-2.36.32-4.66.91-6.84,3-11.08,13.12-19.23,25.15-19.23,5.36,0,10.35,1.63,14.49,4.4Z"/>
    </g>
    <circle class="cls-2" cx="123.44" cy="736.72" r="16.73" transform="translate(-272.53 103.32) rotate(-22.5)"/>
    <path class="cls-2" d="m146.85,768.1c0,3.9-3.16,7.06-7.06,7.06s-7.06-3.16-7.06-7.06,3.16-7.06,7.06-7.06,7.06,3.16,7.06,7.06Z"/>
  </g>
  <g>
    <path class="cls-10" d="m499.77,870.5h120.96s-5.8-21.16-18.03-14.17c-1.93-25.2-23.14-28.42-29.92-11.03-10.64-19.32-67.75-15.49-73,15.12"/>
    <g>
      <path class="cls-9" d="m474.39,692.94l21.36,32.23v11.35l-26.11-40.48c-.47-.72-.58-1.62-.31-2.43h0c.75-2.24,3.75-2.64,5.05-.67Z"/>
      <path class="cls-8" d="m584.21,654.67v84.98c0,26.97-21.85,48.81-48.81,48.81s-48.81-21.85-48.81-48.81v-84.98c0-5.18.8-10.16,2.3-14.84,6.28-19.71,24.73-33.98,46.52-33.98,13.48,0,25.69,5.46,34.52,14.29,4.46,4.46,8.06,9.77,10.53,15.68,2.42,5.8,3.76,12.16,3.76,18.84Z"/>
      <path class="cls-9" d="m531.14,653.65h10.59c3.13,0,5.67,2.54,5.67,5.67v211.18h-21.93v-211.18c0-3.13,2.54-5.67,5.67-5.67Z"/>
      <path class="cls-9" d="m511.6,690.11l21.36,32.23v11.35l-26.11-40.48c-.47-.72-.58-1.62-.31-2.43h0c.75-2.24,3.75-2.64,5.05-.67Z"/>
      <path class="cls-9" d="m517.77,734.95l27.28,41.16-2.96,19.37-34.67-53.75c-1.02-1.58-1.26-3.53-.67-5.31h0c1.63-4.89,8.18-5.76,11.03-1.46Z"/>
      <path class="cls-9" d="m558.81,660.21l-21.36,32.23v11.35l26.11-40.48c.47-.72.58-1.62.31-2.43h0c-.75-2.24-3.75-2.64-5.05-.67Z"/>
      <path class="cls-9" d="m566.41,769l-21.36,32.23v11.35l26.11-40.48c.47-.72.58-1.62.31-2.43h0c-.75-2.24-3.75-2.64-5.05-.67Z"/>
      <circle class="cls-10" cx="476.03" cy="681.37" r="22.43"/>
      <circle class="cls-10" cx="582.85" cy="751.07" r="28.46"/>
      <circle class="cls-5" cx="573.79" cy="739.2" r="6.87"/>
      <circle class="cls-5" cx="595.48" cy="746.93" r="10.13"/>
      <path class="cls-5" d="m464.66,679.14c0,1.23-1,2.23-2.23,2.23s-2.23-1-2.23-2.23,1-2.23,2.23-2.23,2.23,1,2.23,2.23Z"/>
      <circle class="cls-5" cx="469.59" cy="668.94" r="3.01"/>
      <circle class="cls-5" cx="485.45" cy="676.12" r="7.18"/>
      <path class="cls-8" d="m588.84,720.03s-2.78-9.57,8-10.63c1.92,10.63-8,10.63-8,10.63Z"/>
      <path class="cls-6" d="m499.77,753.96s5.99-7.96,13.31.04c-7.36,7.91-13.31-.04-13.31-.04Z"/>
      <path class="cls-6" d="m493.96,740.24s9.11-4.03,11.6,6.51c-10.28,3.33-11.6-6.51-11.6-6.51Z"/>
      <path class="cls-6" d="m567.1,665.9s-1.75-9.81,9.09-9.72c.78,10.78-9.09,9.72-9.09,9.72Z"/>
      <path class="cls-6" d="m558.33,676.23s7.22-13.69,20.41-3.24c-9.33,13.95-20.41,3.24-20.41,3.24Z"/>
      <path class="cls-8" d="m569.81,780.16s9.31,3.56,3.65,12.79c-9.64-4.88-3.65-12.79-3.65-12.79Z"/>
      <path class="cls-8" d="m577.49,782.6s12.26-3.81,13.89,10.06c-13.65,2.73-13.89-10.06-13.89-10.06Z"/>
      <path class="cls-8" d="m471.64,723.87s-6.32-7.7,3.17-12.92c5.95,9.02-3.17,12.92-3.17,12.92Z"/>
      <path class="cls-8" d="m452.59,707.44s9.13-11.57,19.68.5c-11.15,11.45-19.68-.5-19.68-.5Z"/>
      <ellipse class="cls-3" cx="532.88" cy="674.61" rx="2.52" ry="8.68"/>
      <path class="cls-3" d="m541.72,800.26c0,16.4-1.41,29.69-3.16,29.69s-3.16-13.29-3.16-29.69,1.41-29.69,3.16-29.69,3.16,13.29,3.16,29.69Z"/>
      <ellipse class="cls-3" cx="532.88" cy="746.93" rx="2.52" ry="8.68"/>
      <ellipse class="cls-3" cx="539.2" cy="707.67" rx="3.8" ry="20.05"/>
      <path class="cls-10" d="m580.45,635.82c-40.72-34.43-77.26-9.06-91.56,4.01,6.28-19.71,24.73-33.98,46.52-33.98,13.48,0,25.69,5.46,34.52,14.29,4.46,4.46,8.06,9.77,10.53,15.68Z"/>
      <path class="cls-6" d="m564.01,872.13h-101.58s.9-25.96,26.45-19.33c6.89-23.5,31.55-9.46,24.33,9.12,16.89-12.74,46.15-2.98,50.8,10.22Z"/>
      <path class="cls-8" d="m509.5,870.5h-37.47c3.67-5.38,10.01-11.06,20.41-8.6,4.62-8.41,18.73-3.46,17.06,8.6Z"/>
    </g>
  </g>
  <g>
    <path class="cls-4" d="m249.78,788.53s16.58,33.87,51.29,25.5c8.07,22.45,23.29,13.32,23.29,13.32,0,0,11.04,17.19,25.88-1.68,5.33,26.03,33.87.54,40.72-6.31,13.7,21.31,45.28,15.22,41.86-4.19,23.59,11.42,38.05-5.33,39.19-17.5-30.06,2.28-100.05-19.49-100.05-19.49"/>
    <path class="cls-4" d="m312.51,645.96s4.9,11.72,18.05,14.12c-6.02,7.19,9.16,20.77,19.8,15.71,3.99,13.04,19.29,5.11,19.29,5.11,0,0,21.59,8.46,28.83-5.11,13.1,9.32,45.58-2.4,37.6-24.76-16.24,8.52-76.44-13.31-76.44-13.31l-47.14,8.24Z"/>
    <path class="cls-4" d="m328.27,575.69s3.32,12.25,16.97,6.12c.6,18.64,22.52,18.08,23.94,7.84,8.08,9.73,14.22.94,14.22.94,0,0,23.94,3.99,23.41-14.91-.53-18.9-73.48-11.98-78.53,0Z"/>
    <polygon class="cls-3" points="383.4 892.2 355.93 892.2 368.89 526.81 370.44 526.81 383.4 892.2"/>
    <path class="cls-1" d="m369.67,513.74s-2.11,14.71-11.44,18.31c8.62-.71,10.59-3.06,10.59-3.06,0,0,4.13,6.11,12.39,3.06-7.9-2.15-11.54-18.31-11.54-18.31Z"/>
    <path class="cls-1" d="m338.36,894.25h66.82s4.59-29.4,0-32.74c-4.59-3.34-3.76,27.56-3.76,27.56,0,0-6.26-14.29-8.35-11.32-2.09,2.97-.42,11.32-.42,11.32,0,0-14.62-14.2-17.54-7.93-2.92,6.26-2.32,9.19-2.32,9.19,0,0-8.96-17.96-17.73-15.87-8.77,2.09-9.19,13.78-9.19,13.78,0,0-3.76-18.79-7.52-18.38-3.76.42,0,24.39,0,24.39Z"/>
    <path class="cls-4" d="m369.67,731.37s-5.41,27.44-35.48,34.13c25.57,18.84,35.48,3.76,35.48,3.76,0,0,16.63,19.21,37.56,1.25-17.08-3.34-31.7-15.73-37.56-39.14Z"/>
    <path class="cls-4" d="m369.67,603.88s-10.98,32.66-39.1,35.96c14.89,7.89,19.55,2.88,19.55,2.88,0,0,11.7,18.79,31.09,3.76,9.36,8.77,17.3.42,17.3.42,0,0-20.08-7.52-28.83-43.01Z"/>
    <path class="cls-4" d="m369.67,543.3s-7.8,20.77-24.42,18.86c7.78,11.08,17.69,4.86,17.69,4.86,0,0,8.75,6.61,12.44-.19,1.56,6.22,7.1,3.5,8.02-1.36,4.22,2.53,8.31,2.14,10.25-2.33-20.7-.97-23.99-19.83-23.99-19.83Z"/>
    <polyline class="cls-3" points="374.33 688.3 380.72 680.9 382.32 680.9 376.45 696.26"/>
    <polyline class="cls-3" points="369.45 588.13 364.53 585.8 363.15 589.26 367.68 592.99"/>
    <polyline class="cls-3" points="363.68 794.52 355.93 786.8 354.1 792.12 361.29 804.64"/>
    <polyline class="cls-3" points="375.93 839.51 384.98 829.13 387.91 832.59 380.72 852.55"/>
    <path class="cls-11" d="m369.8,830.19c0,2.5-2.03,4.53-4.53,4.53s-4.53-2.03-4.53-4.53,2.03-4.53,4.53-4.53,4.53,2.03,4.53,4.53Z"/>
    <path class="cls-11" d="m377.55,863.34c0,1.54-1.25,2.8-2.8,2.8s-2.8-1.25-2.8-2.8,1.25-2.8,2.8-2.8,2.8,1.25,2.8,2.8Z"/>
    <path class="cls-11" d="m375.93,847.62c0,1.1-.89,1.99-1.99,1.99s-1.99-.89-1.99-1.99.89-1.99,1.99-1.99,1.99.89,1.99,1.99Z"/>
    <circle class="cls-11" cx="372.59" cy="783.87" r="2.93"/>
    <path class="cls-11" d="m368.89,697c0,.41-.33.74-.74.74s-.74-.33-.74-.74.33-.74.74-.74.74.33.74.74Z"/>
    <path class="cls-11" d="m375.12,675.76c0,1.4-1.13,2.53-2.53,2.53s-2.53-1.13-2.53-2.53,1.13-2.53,2.53-2.53,2.53,1.13,2.53,2.53Z"/>
    <path class="cls-11" d="m370.87,665c0,.96-.77,1.73-1.73,1.73s-1.73-.77-1.73-1.73.77-1.73,1.73-1.73,1.73.77,1.73,1.73Z"/>
    <path class="cls-11" d="m370.7,597.23c0,.43-.35.78-.78.78s-.78-.35-.78-.78.35-.78.78-.78.78.35.78.78Z"/>
    <path class="cls-1" d="m369.67,680.9s-29.94,104.49-132.28,102.88c49.55,36.09,71.64,19.39,71.64,19.39,0,0,2.15,17.24,15.08,19.39,12.93,2.15,19.93-11.31,19.93-11.31,0,0,23.7,25.32,47.4,0,17.24,18.85,31.78,9.7,34.47-4.31,35.55,14.54,56.02-14.54,56.02-14.54,0,0-95.79-6.46-112.26-111.5Z"/>
    <path class="cls-1" d="m369.8,587.07s-17.7,58.14-68.73,50.05c16.68,17.42,37.04,14.23,37.04,14.23,0,0-2.45,11.78,7.11,15.21,9.57,3.43,15.95-3.93,15.95-3.93,0,0,22.08,21.1,38.52-3.43,16.93,19.63,41.46.98,45.14-17.17-23.8,8.59-51.47-9.32-61.68-23.55-10.2-14.23-13.36-31.4-13.36-31.4Z"/>
    <path class="cls-1" d="m369.67,532.23s-29.18,36.36-64.3,28.95c22.87,32.54,40.91,12.89,40.91,12.89,0,0,9.72,19.33,23.38,3.22,13.66,17.4,23.65-.64,23.65-.64,0,0,23.19,17.4,40.91-10.63-33.5,4.83-64.56-33.79-64.56-33.79Z"/>
    <path class="cls-4" d="m367.92,682.16s-21.84,27.11-43.16,27.88c11.56,3.85,21.58-3.88,21.58-3.88,0,0-5.14,7.73,0,8.25s12.85-3.85,12.85-3.85c0,0,18.76,14.65,29.55-1.54,12.08,6.68,21.33-4.11,21.33-4.11,0,0-26.21,9.49-42.14-22.75Z"/>
  </g>
  <g>
    <path class="cls-4" d="m613.12,815.74s12.26,25.04,37.91,18.85c5.97,16.6,17.22,9.85,17.22,9.85,0,0,8.16,12.7,19.13-1.24,3.94,19.25,25.04.4,30.1-4.66,10.13,15.75,33.47,11.25,30.94-3.09,17.44,8.44,28.13-3.94,28.97-12.94-22.22,1.69-73.96-14.41-73.96-14.41"/>
    <path class="cls-4" d="m659.49,710.34s3.63,8.67,13.35,10.44c-4.45,5.31,6.77,15.35,14.64,11.61,2.95,9.64,14.26,3.78,14.26,3.78,0,0,15.96,6.26,21.31-3.78,9.69,6.89,33.7-1.77,27.79-18.3-12,6.3-56.5-9.84-56.5-9.84l-34.85,6.09Z"/>
    <path class="cls-4" d="m671.14,658.39s2.46,9.05,12.54,4.53c.44,13.78,16.64,13.37,17.7,5.8,5.97,7.19,10.51.7,10.51.7,0,0,17.7,2.95,17.3-11.02-.39-13.97-54.32-8.86-58.06,0Z"/>
    <polygon class="cls-3" points="711.89 892.37 691.59 892.37 701.17 622.26 702.31 622.26 711.89 892.37"/>
    <path class="cls-1" d="m701.74,612.6s-1.56,10.88-8.46,13.53c6.37-.53,7.83-2.26,7.83-2.26,0,0,3.05,4.51,9.16,2.26-5.84-1.59-8.53-13.53-8.53-13.53Z"/>
    <path class="cls-1" d="m678.6,893.89h49.39s3.4-21.73,0-24.2c-3.4-2.47-2.78,20.38-2.78,20.38,0,0-4.63-10.56-6.17-8.37-1.54,2.19-.31,8.37-.31,8.37,0,0-10.81-10.5-12.97-5.87-2.16,4.63-1.72,6.79-1.72,6.79,0,0-6.62-13.27-13.1-11.73-6.48,1.54-6.79,10.19-6.79,10.19,0,0-2.78-13.89-5.56-13.58-2.78.31,0,18.03,0,18.03Z"/>
    <path class="cls-4" d="m701.74,773.48s-4,20.29-26.23,25.23c18.9,13.93,26.23,2.78,26.23,2.78,0,0,12.29,14.2,27.76.93-12.62-2.47-23.43-11.63-27.76-28.93Z"/>
    <path class="cls-4" d="m701.74,679.24s-8.12,24.14-28.9,26.58c11.01,5.84,14.45,2.13,14.45,2.13,0,0,8.65,13.89,22.98,2.78,6.92,6.48,12.79.31,12.79.31,0,0-14.84-5.56-21.31-31.8Z"/>
    <path class="cls-4" d="m701.74,634.46s-5.76,15.35-18.05,13.94c5.75,8.19,13.08,3.59,13.08,3.59,0,0,6.47,4.89,9.2-.14,1.15,4.6,5.25,2.59,5.93-1.01,3.12,1.87,6.14,1.58,7.58-1.72-15.3-.72-17.73-14.66-17.73-14.66Z"/>
    <polyline class="cls-3" points="705.19 741.64 709.91 736.17 711.09 736.17 706.76 747.52"/>
    <polyline class="cls-3" points="701.58 667.59 697.94 665.87 696.92 668.43 700.27 671.19"/>
    <polyline class="cls-3" points="697.32 820.16 691.59 814.45 690.23 818.39 695.55 827.64"/>
    <polyline class="cls-3" points="706.37 853.42 713.06 845.74 715.22 848.3 709.91 863.06"/>
    <path class="cls-11" d="m701.84,846.53c0,1.85-1.5,3.35-3.35,3.35s-3.35-1.5-3.35-3.35,1.5-3.35,3.35-3.35,3.35,1.5,3.35,3.35Z"/>
    <path class="cls-11" d="m707.57,871.03c0,1.14-.93,2.07-2.07,2.07s-2.07-.93-2.07-2.07.93-2.07,2.07-2.07,2.07.93,2.07,2.07Z"/>
    <path class="cls-11" d="m706.37,859.41c0,.81-.66,1.47-1.47,1.47s-1.47-.66-1.47-1.47.66-1.47,1.47-1.47,1.47.66,1.47,1.47Z"/>
    <circle class="cls-11" cx="703.9" cy="812.29" r="2.16"/>
    <path class="cls-11" d="m701.16,748.07c0,.3-.24.55-.55.55s-.55-.24-.55-.55.24-.55.55-.55.55.24.55.55Z"/>
    <path class="cls-11" d="m705.77,732.37c0,1.03-.84,1.87-1.87,1.87s-1.87-.84-1.87-1.87.84-1.87,1.87-1.87,1.87.84,1.87,1.87Z"/>
    <path class="cls-11" d="m702.63,724.42c0,.71-.57,1.28-1.28,1.28s-1.28-.57-1.28-1.28.57-1.28,1.28-1.28,1.28.57,1.28,1.28Z"/>
    <path class="cls-11" d="m702.51,674.32c0,.32-.26.58-.58.58s-.58-.26-.58-.58.26-.58.58-.58.58.26.58.58Z"/>
    <path class="cls-1" d="m701.74,736.17s-22.13,77.25-97.78,76.05c36.63,26.68,52.96,14.33,52.96,14.33,0,0,1.59,12.74,11.15,14.33,9.56,1.59,14.73-8.36,14.73-8.36,0,0,17.52,18.71,35.04,0,12.74,13.94,23.49,7.17,25.48-3.19,26.28,10.75,41.41-10.75,41.41-10.75,0,0-70.81-4.78-82.99-82.42Z"/>
    <path class="cls-1" d="m701.84,666.81s-13.08,42.98-50.8,37c12.33,12.88,27.38,10.52,27.38,10.52,0,0-1.81,8.7,5.26,11.24,7.07,2.54,11.79-2.9,11.79-2.9,0,0,16.32,15.6,28.47-2.54,12.51,14.51,30.65.73,33.37-12.69-17.59,6.35-38.05-6.89-45.59-17.41-7.54-10.52-9.87-23.21-9.87-23.21Z"/>
    <path class="cls-1" d="m701.74,626.27s-21.57,26.88-47.53,21.4c16.91,24.05,30.24,9.53,30.24,9.53,0,0,7.19,14.29,17.29,2.38,10.1,12.86,17.48-.48,17.48-.48,0,0,17.15,12.86,30.24-7.86-24.77,3.57-47.72-24.98-47.72-24.98Z"/>
    <path class="cls-4" d="m700.45,737.1s-16.14,20.04-31.91,20.61c8.55,2.85,15.95-2.87,15.95-2.87,0,0-3.8,5.72,0,6.1,3.8.38,9.5-2.85,9.5-2.85,0,0,13.87,10.83,21.84-1.14,8.93,4.94,15.76-3.04,15.76-3.04,0,0-19.37,7.02-31.15-16.81Z"/>
  </g>
  <g>
    <path class="cls-1" d="m844.11,860.02h-58.61s-2.59-23.55,17.59-20.95c-.58-19.31,23.07-14.72,19.61,0,14.99-14.41,22.23,4.07,22.23,4.07,0,0,12.02-22.83,30.93-4.36,14.59-16.7,29.58,5.85,16.03,21.24h-47.78Z"/>
    <g>
      <polyline class="cls-9" points="925.15 721.31 919.1 728.55 898.78 722.54 895.9 730.94 920.7 733.61 928 723.96"/>
      <path class="cls-9" d="m891.36,708.27c.34-.46,28.65-19.98,28.65-19.98l1.65,5.05-23.33,26.46"/>
      <polyline class="cls-9" points="770.56 683.95 773.15 704.46 793.08 721.31 798.65 711.17 777.48 701.91 774.86 683.95"/>
      <path class="cls-9" d="m855.01,802.29c.46-.87,25.88-31.49,25.88-31.49l-8.09-2.31-17.79,23.25"/>
      <polyline class="cls-9" points="838.14 798.76 815.03 769.59 810.7 771.77 838.14 806.72"/>
      <rect class="cls-9" x="832.24" y="773.15" width="23.75" height="86.59"/>
      <path class="cls-7" d="m890.73,665.13c0,18.62-11.05,34.65-26.94,41.9-5.81,2.66-12.28,4.14-19.11,4.14-25.42,0-46.04-20.61-46.04-46.04s20.62-46.05,46.04-46.05c17.43,0,32.61,9.69,40.42,23.99,3.59,6.54,5.63,14.06,5.63,22.06Z"/>
      <path class="cls-1" d="m890.73,665.13c0,18.62-11.05,34.65-26.94,41.9-11.9-5.24-20.21-17.14-20.21-30.99,0-18.69,15.16-33.85,33.85-33.85,2.64,0,5.21.3,7.68.87,3.59,6.54,5.63,14.06,5.63,22.06Z"/>
      <path class="cls-7" d="m906.12,723.96c0,7.1-1.21,13.93-3.42,20.27-4.17,11.92-11.91,22.17-21.94,29.45-1.52,1.11-3.1,2.15-4.72,3.11-9.17,5.47-19.9,8.6-31.35,8.6-7,0-13.73-1.18-20-3.33-5.61-1.93-10.85-4.65-15.59-8.03-15.63-11.13-25.84-29.42-25.84-50.07,0-1.42.05-2.84.15-4.23,2.17-31.94,28.79-57.2,61.29-57.2s61.43,27.51,61.43,61.43Z"/>
      <circle class="cls-7" cx="771.94" cy="674.4" r="14.77" transform="translate(-54.92 1280.22) rotate(-77.37)"/>
      <circle class="cls-7" cx="925.81" cy="682.22" r="19.69" transform="translate(-211.24 854.47) rotate(-45)"/>
      <path class="cls-1" d="m815.43,859.73h62.72s-3.18-5.5-10.4-2.75c.29-12.13-15.31-13-16.46-3.47-5.49-8.38-5.87,2.6-5.87,2.6,0,0-9.44-8.95-16.95-1.44-6.07-5.49-13.56-2.41-13.04,5.06Z"/>
      <path class="cls-3" d="m840.6,841.74c0,1.48-1.2,2.67-2.67,2.67s-2.67-1.2-2.67-2.67,1.2-2.67,2.67-2.67,2.67,1.2,2.67,2.67Z"/>
      <path class="cls-3" d="m854.15,822.94c0,3.51-2.85,6.35-6.35,6.35s-6.35-2.85-6.35-6.35,2.85-6.35,6.35-6.35,6.35,2.85,6.35,6.35Z"/>
      <circle class="cls-3" cx="839.68" cy="804.72" r="1.76"/>
      <path class="cls-3" d="m851.21,792.02c0,1.54-1.24,2.78-2.78,2.78s-2.78-1.24-2.78-2.78,1.24-2.78,2.78-2.78,2.78,1.24,2.78,2.78Z"/>
      <path class="cls-3" d="m851.21,836.13c0,.77-.62,1.39-1.39,1.39s-1.39-.62-1.39-1.39.62-1.39,1.39-1.39,1.39.62,1.39,1.39Z"/>
      <path class="cls-3" d="m839.68,813.55c0,1.22-.99,2.21-2.21,2.21s-2.21-.99-2.21-2.21.99-2.21,2.21-2.21,2.21.99,2.21,2.21Z"/>
      <path class="cls-1" d="m769.39,691.83s-3.46-3.55-7.35,0c4.5,3.63,7.35,0,7.35,0Z"/>
      <path class="cls-1" d="m770.48,685.36s-.84-4.88-6.05-4.17c1.64,5.54,6.05,4.17,6.05,4.17Z"/>
      <path class="cls-1" d="m772.11,685.51s4.38-2.32,2.07-7.05c-4.75,3.29-2.07,7.05-2.07,7.05Z"/>
      <path class="cls-1" d="m914.91,690.72s4.38-2.32,2.07-7.05c-4.75,3.29-2.07,7.05-2.07,7.05Z"/>
      <path class="cls-1" d="m919.37,723.11s1.71-4.65-3.17-6.63c-1.34,5.62,3.17,6.63,3.17,6.63Z"/>
      <path class="cls-1" d="m932.9,728.45s2.57,4.23,7.16,1.66c-3.56-4.55-7.16-1.66-7.16-1.66Z"/>
      <path class="cls-1" d="m857.37,743.21s1.33,4.77,6.45,3.53c-2.2-5.34-6.45-3.53-6.45-3.53Z"/>
      <path class="cls-1" d="m921.8,697.24s9.11,5.13,14.89-4.37c-11.26-4.69-14.89,4.37-14.89,4.37Z"/>
      <path class="cls-1" d="m845.58,655.26s9.89-3.38,6.67-14.01c-11,5.28-6.67,14.01-6.67,14.01Z"/>
      <path class="cls-1" d="m918.93,690.86s7.01,2.31,9.72-5.06c-8.44-1.71-9.72,5.06-9.72,5.06Z"/>
      <path class="cls-1" d="m906.06,695.09s1.11-7.3-6.6-8.74c-.28,8.61,6.6,8.74,6.6,8.74Z"/>
      <path class="cls-1" d="m841.56,659.63s1.11-7.3-6.6-8.74c-.28,8.61,6.6,8.74,6.6,8.74Z"/>
      <path class="cls-1" d="m933.28,737.98s1.11-7.3-6.6-8.74c-.28,8.61,6.6,8.74,6.6,8.74Z"/>
      <path class="cls-1" d="m769.27,680.48s7.52-4.03,3.51-12.17c-8.16,5.71-3.51,12.17-3.51,12.17Z"/>
      <path class="cls-1" d="m868.12,748.94s7.52-4.03,3.51-12.17c-8.16,5.71-3.51,12.17-3.51,12.17Z"/>
      <path class="cls-7" d="m936.49,719.8c0,4-3.24,7.24-7.24,7.24s-7.24-3.24-7.24-7.24,3.24-7.24,7.24-7.24,7.24,3.24,7.24,7.24Z"/>
      <path class="cls-1" d="m841.62,750.77c0,13.1-6.74,24.62-16.93,31.29-5.61-1.93-10.85-4.65-15.59-8.03-15.63-11.13-25.84-29.42-25.84-50.07,0-1.42.05-2.84.15-4.23,5.95-4,13.11-6.33,20.82-6.33,19.09,0,34.83,14.3,37.11,32.77.19,1.52.28,3.06.28,4.62Z"/>
      <path class="cls-1" d="m880.76,773.67c-1.52,1.11-3.1,2.15-4.72,3.11-9.17,5.47-19.9,8.6-31.35,8.6-7,0-13.73-1.18-20-3.33-5.61-1.93-10.85-4.65-15.59-8.03,3.7-14.97,16.53-26.34,32.24-27.88,1.2-.11,2.41-.18,3.64-.18,9.92,0,18.93,3.91,25.57,10.28,4.88,4.68,8.48,10.67,10.21,17.42Z"/>
      <path class="cls-1" d="m902.69,744.23c-4.17,11.92-11.91,22.17-21.94,29.45-1.52,1.11-3.1,2.15-4.72,3.11-3.85-3.83-6.23-9.13-6.23-14.99,0-1.91.26-3.78.74-5.54,2.43-8.99,10.64-15.59,20.4-15.59,4.35,0,8.39,1.32,11.75,3.57Z"/>
    </g>
    <circle class="cls-2" cx="808.2" cy="740.6" r="13.57" transform="translate(-221.9 365.66) rotate(-22.5)"/>
    <path class="cls-2" d="m827.18,766.06c0,3.16-2.56,5.73-5.73,5.73s-5.73-2.56-5.73-5.73,2.56-5.73,5.73-5.73,5.73,2.56,5.73,5.73Z"/>
  </g>
  <g>
    <path class="cls-4" d="m939.32,786.57s13.48,27.54,41.71,20.73c6.56,18.26,18.94,10.83,18.94,10.83,0,0,8.97,13.98,21.04-1.37,4.33,21.17,27.54.44,33.11-5.13,11.14,17.33,36.82,12.38,34.04-3.4,19.19,9.28,30.94-4.33,31.87-14.23-24.45,1.86-81.36-15.85-81.36-15.85"/>
    <path class="cls-4" d="m990.33,670.62s3.99,9.53,14.68,11.48c-4.89,5.85,7.45,16.89,16.11,12.77,3.25,10.61,15.69,4.16,15.69,4.16,0,0,17.55,6.88,23.45-4.16,10.66,7.58,37.07-1.95,30.57-20.13-13.21,6.93-62.16-10.82-62.16-10.82l-38.34,6.7Z"/>
    <path class="cls-4" d="m1003.15,613.48s2.7,9.96,13.8,4.98c.49,15.15,18.31,14.71,19.47,6.38,6.57,7.91,11.56.77,11.56.77,0,0,19.47,3.25,19.04-12.12-.43-15.37-59.75-9.74-63.86,0Z"/>
    <polygon class="cls-3" points="1047.98 870.87 1025.64 870.87 1036.18 573.74 1037.44 573.74 1047.98 870.87"/>
    <path class="cls-1" d="m1036.81,563.11s-1.71,11.96-9.31,14.89c7.01-.58,8.61-2.49,8.61-2.49,0,0,3.36,4.97,10.08,2.49-6.42-1.75-9.38-14.89-9.38-14.89Z"/>
    <path class="cls-1" d="m1011.35,872.54h54.34s3.74-23.91,0-26.62c-3.74-2.72-3.06,22.41-3.06,22.41,0,0-5.09-11.62-6.79-9.2-1.7,2.41-.34,9.2-.34,9.2,0,0-11.89-11.55-14.26-6.45-2.38,5.09-1.89,7.47-1.89,7.47,0,0-7.28-14.6-14.41-12.9-7.13,1.7-7.47,11.21-7.47,11.21,0,0-3.06-15.28-6.11-14.94-3.06.34,0,19.83,0,19.83Z"/>
    <path class="cls-4" d="m1036.81,740.08s-4.4,22.32-28.85,27.75c20.79,15.32,28.85,3.06,28.85,3.06,0,0,13.52,15.62,30.54,1.02-13.89-2.72-25.78-12.8-30.54-31.83Z"/>
    <path class="cls-4" d="m1036.81,636.41s-8.93,26.56-31.8,29.24c12.11,6.42,15.9,2.34,15.9,2.34,0,0,9.52,15.28,25.28,3.06,7.61,7.13,14.06.34,14.06.34,0,0-16.33-6.11-23.45-34.98Z"/>
    <path class="cls-4" d="m1036.81,587.15s-6.34,16.89-19.86,15.33c6.32,9.01,14.39,3.95,14.39,3.95,0,0,7.11,5.38,10.12-.16,1.26,5.06,5.78,2.85,6.52-1.11,3.44,2.06,6.76,1.74,8.34-1.9-16.83-.79-19.51-16.13-19.51-16.13Z"/>
    <polyline class="cls-3" points="1040.6 705.05 1045.8 699.04 1047.09 699.04 1042.32 711.53"/>
    <polyline class="cls-3" points="1036.63 623.6 1032.63 621.71 1031.51 624.52 1035.19 627.55"/>
    <polyline class="cls-3" points="1031.94 791.43 1025.64 785.15 1024.15 789.48 1029.99 799.66"/>
    <polyline class="cls-3" points="1041.9 828.02 1049.26 819.58 1051.64 822.39 1045.8 838.63"/>
    <path class="cls-11" d="m1036.92,820.44c0,2.03-1.65,3.68-3.68,3.68s-3.68-1.65-3.68-3.68,1.65-3.68,3.68-3.68,3.68,1.65,3.68,3.68Z"/>
    <path class="cls-11" d="m1043.22,847.39c0,1.26-1.02,2.27-2.27,2.27s-2.27-1.02-2.27-2.27,1.02-2.27,2.27-2.27,2.27,1.02,2.27,2.27Z"/>
    <path class="cls-11" d="m1041.9,834.61c0,.89-.72,1.61-1.61,1.61s-1.61-.72-1.61-1.61.72-1.61,1.61-1.61,1.61.72,1.61,1.61Z"/>
    <circle class="cls-11" cx="1039.19" cy="782.77" r="2.38"/>
    <path class="cls-11" d="m1036.17,712.13c0,.33-.27.6-.6.6s-.6-.27-.6-.6.27-.6.6-.6.6.27.6.6Z"/>
    <path class="cls-11" d="m1041.24,694.86c0,1.14-.92,2.06-2.06,2.06s-2.06-.92-2.06-2.06.92-2.06,2.06-2.06,2.06.92,2.06,2.06Z"/>
    <path class="cls-11" d="m1037.79,686.11c0,.78-.63,1.41-1.41,1.41s-1.41-.63-1.41-1.41.63-1.41,1.41-1.41,1.41.63,1.41,1.41Z"/>
    <path class="cls-11" d="m1037.65,631c0,.35-.28.64-.64.64s-.64-.28-.64-.64.28-.64.64-.64.64.28.64.64Z"/>
    <path class="cls-1" d="m1036.81,699.04s-24.34,84.97-107.57,83.66c40.3,29.35,58.26,15.77,58.26,15.77,0,0,1.75,14.02,12.26,15.77,10.51,1.75,16.21-9.2,16.21-9.2,0,0,19.27,20.59,38.54,0,14.02,15.33,25.84,7.88,28.03-3.5,28.91,11.83,45.55-11.83,45.55-11.83,0,0-77.89-5.26-91.29-90.67Z"/>
    <path class="cls-1" d="m1036.91,622.74s-14.39,47.28-55.89,40.7c13.57,14.16,30.12,11.57,30.12,11.57,0,0-1.99,9.58,5.79,12.37,7.78,2.79,12.97-3.19,12.97-3.19,0,0,17.95,17.16,31.32-2.79,13.77,15.96,33.71.8,36.71-13.96-19.35,6.98-41.86-7.58-50.15-19.15-8.3-11.57-10.86-25.54-10.86-25.54Z"/>
    <path class="cls-1" d="m1036.81,578.14s-23.73,29.57-52.28,23.55c18.6,26.46,33.27,10.48,33.27,10.48,0,0,7.91,15.72,19.02,2.62,11.11,14.15,19.23-.52,19.23-.52,0,0,18.86,14.15,33.27-8.64-27.24,3.93-52.5-27.48-52.5-27.48Z"/>
    <path class="cls-4" d="m1035.39,700.07s-17.76,22.05-35.1,22.68c9.4,3.13,17.55-3.15,17.55-3.15,0,0-4.18,6.29,0,6.71,4.18.42,10.45-3.13,10.45-3.13,0,0,15.25,11.91,24.03-1.25,9.82,5.43,17.34-3.34,17.34-3.34,0,0-21.31,7.72-34.27-18.5Z"/>
  </g>
  <g>
    <path class="cls-10" d="m1436.56,860.5h108.11s-5.18-18.91-16.11-12.66c-1.73-22.52-20.68-25.4-26.74-9.86-9.51-17.27-60.55-13.84-65.25,13.51"/>
    <g>
      <path class="cls-9" d="m1413.88,701.81l19.09,28.81v10.15l-23.34-36.18c-.42-.65-.52-1.45-.27-2.18h0c.67-2,3.35-2.36,4.52-.6Z"/>
      <path class="cls-8" d="m1512.02,667.6v75.95c0,24.1-19.52,43.63-43.63,43.63s-43.63-19.52-43.63-43.63v-75.95c0-4.63.72-9.08,2.05-13.26,5.61-17.62,22.1-30.37,41.57-30.37,12.04,0,22.96,4.88,30.85,12.77,3.98,3.98,7.2,8.73,9.41,14.01,2.16,5.18,3.36,10.87,3.36,16.84Z"/>
      <path class="cls-9" d="m1463.64,666.69h11.37c2.27,0,4.12,1.84,4.12,4.12v189.69h-19.6v-189.69c0-2.27,1.84-4.12,4.12-4.12Z"/>
      <path class="cls-9" d="m1447.13,699.28l19.09,28.81v10.15l-23.34-36.18c-.42-.65-.52-1.45-.27-2.18h0c.67-2,3.35-2.36,4.52-.6Z"/>
      <path class="cls-9" d="m1452.65,739.36l24.38,36.78-2.65,17.31-30.99-48.04c-.91-1.41-1.13-3.15-.6-4.75h0c1.46-4.37,7.31-5.15,9.85-1.31Z"/>
      <path class="cls-9" d="m1489.32,672.56l-19.09,28.81v10.15l23.34-36.18c.42-.65.52-1.45.27-2.18h0c-.67-2-3.35-2.36-4.52-.6Z"/>
      <path class="cls-9" d="m1496.12,769.79l-19.09,28.81v10.15l23.34-36.18c.42-.65.52-1.45.27-2.18h0c-.67-2-3.35-2.36-4.52-.6Z"/>
      <circle class="cls-10" cx="1415.33" cy="691.47" r="20.04"/>
      <circle class="cls-10" cx="1510.81" cy="753.77" r="25.44"/>
      <circle class="cls-5" cx="1502.71" cy="743.16" r="6.14"/>
      <circle class="cls-5" cx="1522.09" cy="750.07" r="9.05"/>
      <path class="cls-5" d="m1405.17,689.48c0,1.1-.89,1.99-1.99,1.99s-1.99-.89-1.99-1.99.89-1.99,1.99-1.99,1.99.89,1.99,1.99Z"/>
      <circle class="cls-5" cx="1409.58" cy="680.36" r="2.69"/>
      <circle class="cls-5" cx="1423.75" cy="686.77" r="6.41"/>
      <path class="cls-8" d="m1516.16,726.02s-2.49-8.55,7.15-9.5c1.72,9.5-7.15,9.5-7.15,9.5Z"/>
      <path class="cls-6" d="m1436.56,756.35s5.36-7.11,11.89.03c-6.58,7.07-11.89-.03-11.89-.03Z"/>
      <path class="cls-6" d="m1431.37,744.08s8.14-3.61,10.37,5.82c-9.19,2.97-10.37-5.82-10.37-5.82Z"/>
      <path class="cls-6" d="m1496.73,677.64s-1.56-8.77,8.12-8.69c.7,9.63-8.12,8.69-8.12,8.69Z"/>
      <path class="cls-6" d="m1488.89,686.88s6.45-12.24,18.24-2.9c-8.34,12.47-18.24,2.9-18.24,2.9Z"/>
      <path class="cls-8" d="m1499.15,779.77s8.32,3.18,3.26,11.44c-8.61-4.36-3.26-11.44-3.26-11.44Z"/>
      <path class="cls-8" d="m1506.02,781.94s10.96-3.4,12.41,8.99c-12.2,2.44-12.41-8.99-12.41-8.99Z"/>
      <path class="cls-8" d="m1411.42,729.45s-5.65-6.88,2.84-11.55c5.32,8.06-2.84,11.55-2.84,11.55Z"/>
      <path class="cls-8" d="m1394.39,714.77s8.16-10.34,17.59.45c-9.97,10.23-17.59-.45-17.59-.45Z"/>
      <ellipse class="cls-3" cx="1466.15" cy="685.43" rx="2.25" ry="7.76"/>
      <path class="cls-3" d="m1474.05,797.73c0,14.66-1.26,26.54-2.82,26.54s-2.82-11.88-2.82-26.54,1.26-26.54,2.82-26.54,2.82,11.88,2.82,26.54Z"/>
      <ellipse class="cls-3" cx="1466.15" cy="750.07" rx="2.25" ry="7.76"/>
      <ellipse class="cls-3" cx="1471.8" cy="714.98" rx="3.4" ry="17.92"/>
      <path class="cls-10" d="m1508.66,650.76c-36.39-30.77-69.05-8.1-81.84,3.58,5.61-17.62,22.1-30.37,41.57-30.37,12.04,0,22.96,4.88,30.85,12.77,3.98,3.98,7.2,8.73,9.41,14.01Z"/>
      <path class="cls-6" d="m1493.97,861.96h-90.78s.8-23.2,23.64-17.28c6.16-21.01,28.19-8.45,21.75,8.15,15.09-11.39,41.25-2.66,45.4,9.13Z"/>
      <path class="cls-8" d="m1445.25,860.5h-33.49c3.28-4.81,8.95-9.88,18.24-7.69,4.13-7.52,16.74-3.1,15.25,7.69Z"/>
    </g>
  </g>
  <g>
    <path class="cls-1" d="m1239.7,875.72h-75.17s-3.33-30.21,22.56-26.87c-.74-24.76,29.58-18.87,25.15,0,19.23-18.48,28.51,5.22,28.51,5.22,0,0,15.41-29.29,39.67-5.6,18.71-21.42,37.94,7.51,20.56,27.25h-61.28Z"/>
    <g>
      <polyline class="cls-9" points="1343.63 697.82 1335.87 707.1 1309.81 699.39 1306.12 710.16 1337.92 713.59 1347.29 701.22"/>
      <path class="cls-9" d="m1300.3,681.09c.44-.59,36.75-25.62,36.75-25.62l2.11,6.48-29.93,33.93"/>
      <polyline class="cls-9" points="1145.36 649.91 1148.68 676.21 1174.25 697.82 1181.39 684.81 1154.24 672.94 1150.88 649.91"/>
      <path class="cls-9" d="m1253.68,801.68c.59-1.11,33.19-40.38,33.19-40.38l-10.37-2.96-22.82,29.82"/>
      <polyline class="cls-9" points="1232.04 797.16 1202.4 759.74 1196.84 762.53 1232.04 807.36"/>
      <rect class="cls-9" x="1224.47" y="764.3" width="30.45" height="111.05"/>
      <path class="cls-7" d="m1299.49,625.77c0,23.88-14.17,44.44-34.55,53.74-7.46,3.42-15.76,5.31-24.51,5.31-32.6,0-59.05-26.43-59.05-59.05s26.44-59.06,59.05-59.06c22.36,0,41.82,12.43,51.84,30.76,4.6,8.39,7.22,18.04,7.22,28.3Z"/>
      <path class="cls-1" d="m1299.49,625.77c0,23.88-14.17,44.44-34.55,53.74-15.26-6.72-25.92-21.99-25.92-39.74,0-23.97,19.44-43.41,43.41-43.41,3.39,0,6.68.39,9.85,1.12,4.6,8.39,7.22,18.04,7.22,28.3Z"/>
      <path class="cls-7" d="m1319.22,701.21c0,9.11-1.55,17.86-4.39,26-5.35,15.29-15.28,28.43-28.14,37.77-1.95,1.43-3.98,2.76-6.06,3.99-11.77,7.02-25.52,11.03-40.21,11.03-8.98,0-17.61-1.51-25.65-4.27-7.19-2.48-13.91-5.96-20-10.3-20.05-14.27-33.14-37.73-33.14-64.22,0-1.83.07-3.64.19-5.43,2.79-40.97,36.93-73.36,78.6-73.36s78.79,35.29,78.79,78.79Z"/>
      <circle class="cls-7" cx="1147.14" cy="637.65" r="18.94" transform="translate(274.1 1617.62) rotate(-77.37)"/>
      <circle class="cls-7" cx="1344.48" cy="647.68" r="25.26" transform="translate(-64.19 1140.4) rotate(-45)"/>
      <path class="cls-1" d="m1202.92,875.35h80.45s-4.08-7.05-13.34-3.53c.37-15.56-19.64-16.67-21.12-4.45-7.04-10.74-7.53,3.33-7.53,3.33,0,0-12.1-11.48-21.74-1.85-7.78-7.04-17.39-3.1-16.72,6.49Z"/>
      <path class="cls-3" d="m1235.19,852.28c0,1.89-1.53,3.43-3.43,3.43s-3.43-1.53-3.43-3.43,1.53-3.43,3.43-3.43,3.43,1.53,3.43,3.43Z"/>
      <path class="cls-3" d="m1252.57,828.16c0,4.5-3.65,8.15-8.15,8.15s-8.15-3.65-8.15-8.15,3.65-8.15,8.15-8.15,8.15,3.65,8.15,8.15Z"/>
      <circle class="cls-3" cx="1234.01" cy="804.8" r="2.25"/>
      <path class="cls-3" d="m1248.8,788.51c0,1.97-1.6,3.57-3.57,3.57s-3.57-1.6-3.57-3.57,1.6-3.57,3.57-3.57,3.57,1.6,3.57,3.57Z"/>
      <path class="cls-3" d="m1248.8,845.08c0,.98-.8,1.78-1.78,1.78s-1.78-.8-1.78-1.78.8-1.78,1.78-1.78,1.78.8,1.78,1.78Z"/>
      <path class="cls-3" d="m1234.01,816.13c0,1.57-1.27,2.84-2.84,2.84s-2.84-1.27-2.84-2.84,1.27-2.84,2.84-2.84,2.84,1.27,2.84,2.84Z"/>
      <path class="cls-1" d="m1143.86,660.01s-4.44-4.55-9.43,0c5.77,4.66,9.43,0,9.43,0Z"/>
      <path class="cls-1" d="m1145.26,651.71s-1.08-6.26-7.77-5.34c2.11,7.11,7.77,5.34,7.77,5.34Z"/>
      <path class="cls-1" d="m1147.35,651.9s5.61-2.97,2.66-9.04c-6.1,4.22-2.66,9.04-2.66,9.04Z"/>
      <path class="cls-1" d="m1330.5,658.59s5.61-2.97,2.66-9.04c-6.1,4.22-2.66,9.04-2.66,9.04Z"/>
      <path class="cls-1" d="m1336.22,700.13s2.19-5.96-4.06-8.51c-1.72,7.21,4.06,8.51,4.06,8.51Z"/>
      <path class="cls-1" d="m1353.58,706.97s3.3,5.43,9.18,2.12c-4.57-5.84-9.18-2.12-9.18-2.12Z"/>
      <path class="cls-1" d="m1256.7,725.91s1.71,6.12,8.27,4.53c-2.82-6.85-8.27-4.53-8.27-4.53Z"/>
      <path class="cls-1" d="m1339.34,666.95s11.69,6.58,19.09-5.6c-14.45-6.01-19.09,5.6-19.09,5.6Z"/>
      <path class="cls-1" d="m1241.58,613.1s12.69-4.33,8.55-17.97c-14.11,6.77-8.55,17.97-8.55,17.97Z"/>
      <path class="cls-1" d="m1335.65,658.76s8.99,2.96,12.46-6.48c-10.83-2.19-12.46,6.48-12.46,6.48Z"/>
      <path class="cls-1" d="m1319.15,664.19s1.42-9.36-8.47-11.21c-.36,11.04,8.47,11.21,8.47,11.21Z"/>
      <path class="cls-1" d="m1236.43,618.71s1.42-9.36-8.47-11.21c-.36,11.04,8.47,11.21,8.47,11.21Z"/>
      <path class="cls-1" d="m1354.06,719.2s1.42-9.36-8.47-11.21c-.36,11.04,8.47,11.21,8.47,11.21Z"/>
      <path class="cls-1" d="m1143.71,645.46s9.64-5.17,4.5-15.6c-10.46,7.32-4.5,15.6-4.5,15.6Z"/>
      <path class="cls-1" d="m1270.49,733.26s9.64-5.17,4.5-15.6c-10.46,7.32-4.5,15.6-4.5,15.6Z"/>
      <path class="cls-7" d="m1358.17,695.88c0,5.13-4.16,9.29-9.29,9.29s-9.28-4.16-9.28-9.29,4.16-9.29,9.28-9.29,9.29,4.16,9.29,9.29Z"/>
      <path class="cls-1" d="m1236.5,735.6c0,16.8-8.64,31.58-21.72,40.13-7.19-2.48-13.91-5.96-20-10.3-20.05-14.27-33.14-37.73-33.14-64.22,0-1.83.07-3.64.19-5.43,7.63-5.14,16.81-8.12,26.71-8.12,24.48,0,44.68,18.34,47.6,42.02.24,1.95.36,3.92.36,5.92Z"/>
      <path class="cls-1" d="m1286.7,764.98c-1.95,1.43-3.98,2.76-6.06,3.99-11.77,7.02-25.52,11.03-40.21,11.03-8.98,0-17.61-1.51-25.65-4.27-7.19-2.48-13.91-5.96-20-10.3,4.75-19.2,21.2-33.78,41.36-35.75,1.53-.15,3.1-.23,4.67-.23,12.73,0,24.28,5.02,32.79,13.18,6.26,6,10.87,13.69,13.1,22.35Z"/>
      <path class="cls-1" d="m1314.83,727.21c-5.35,15.29-15.28,28.43-28.14,37.77-1.95,1.43-3.98,2.76-6.06,3.99-4.94-4.91-7.99-11.71-7.99-19.22,0-2.45.33-4.84.95-7.11,3.12-11.53,13.65-20,26.16-20,5.58,0,10.77,1.69,15.08,4.58Z"/>
    </g>
    <circle class="cls-2" cx="1193.63" cy="722.56" r="17.4" transform="translate(-185.65 511.78) rotate(-22.5)"/>
    <path class="cls-2" d="m1217.99,755.21c0,4.06-3.29,7.34-7.34,7.34s-7.34-3.29-7.34-7.34,3.29-7.34,7.34-7.34,7.34,3.29,7.34,7.34Z"/>
  </g>
  <g>
    <path class="cls-1" d="m1654.15,872.98h-73.77s-3.27-29.65,22.14-26.37c-.73-24.3,29.03-18.52,24.68,0,18.87-18.13,27.98,5.12,27.98,5.12,0,0,15.12-28.74,38.94-5.49,18.37-21.03,37.24,7.37,20.18,26.74h-60.14Z"/>
    <g>
      <polyline class="cls-9" points="1756.16 698.38 1748.54 707.5 1722.97 699.93 1719.34 710.5 1750.55 713.86 1759.75 701.72"/>
      <path class="cls-9" d="m1713.63,681.96c.43-.57,36.06-25.14,36.06-25.14l2.07,6.36-29.37,33.3"/>
      <polyline class="cls-9" points="1561.57 651.36 1564.83 677.18 1589.92 698.38 1596.93 685.62 1570.28 673.96 1566.99 651.36"/>
      <path class="cls-9" d="m1667.88,800.31c.58-1.09,32.57-39.63,32.57-39.63l-10.18-2.91-22.39,29.27"/>
      <polyline class="cls-9" points="1646.64 795.88 1617.55 759.15 1612.1 761.89 1646.64 805.89"/>
      <rect class="cls-9" x="1639.21" y="763.63" width="29.89" height="108.99"/>
      <path class="cls-7" d="m1712.84,627.67c0,23.44-13.9,43.61-33.91,52.74-7.32,3.35-15.46,5.21-24.05,5.21-32,0-57.95-25.94-57.95-57.95s25.95-57.96,57.95-57.96c21.94,0,41.05,12.2,50.88,30.19,4.52,8.24,7.08,17.7,7.08,27.77Z"/>
      <path class="cls-1" d="m1712.84,627.67c0,23.44-13.9,43.61-33.91,52.74-14.98-6.6-25.44-21.58-25.44-39,0-23.53,19.08-42.6,42.6-42.6,3.33,0,6.56.38,9.66,1.1,4.52,8.24,7.08,17.7,7.08,27.77Z"/>
      <path class="cls-7" d="m1732.2,701.71c0,8.94-1.52,17.53-4.31,25.52-5.25,15-14.99,27.9-27.61,37.07-1.91,1.4-3.9,2.71-5.94,3.91-11.55,6.89-25.05,10.83-39.46,10.83-8.81,0-17.28-1.48-25.18-4.19-7.06-2.44-13.66-5.85-19.63-10.11-19.68-14.01-32.52-37.03-32.52-63.03,0-1.79.07-3.57.18-5.33,2.74-40.21,36.24-72,77.14-72s77.33,34.63,77.33,77.33Z"/>
      <circle class="cls-7" cx="1563.31" cy="639.33" r="18.59" transform="translate(597.64 2025.04) rotate(-77.37)"/>
      <circle class="cls-7" cx="1756.99" cy="649.18" r="24.79" transform="translate(55.57 1432.52) rotate(-45)"/>
      <path class="cls-1" d="m1618.05,872.62h78.95s-4-6.92-13.09-3.46c.36-15.27-19.27-16.36-20.72-4.36-6.91-10.54-7.39,3.27-7.39,3.27,0,0-11.88-11.27-21.33-1.82-7.64-6.91-17.06-3.04-16.41,6.37Z"/>
      <path class="cls-3" d="m1649.73,849.97c0,1.86-1.51,3.36-3.36,3.36s-3.36-1.51-3.36-3.36,1.51-3.36,3.36-3.36,3.36,1.51,3.36,3.36Z"/>
      <path class="cls-3" d="m1666.78,826.3c0,4.42-3.58,8-8,8s-8-3.58-8-8,3.58-8,8-8,8,3.58,8,8Z"/>
      <circle class="cls-3" cx="1648.58" cy="803.37" r="2.21"/>
      <path class="cls-3" d="m1663.09,787.39c0,1.93-1.57,3.5-3.5,3.5s-3.5-1.57-3.5-3.5,1.57-3.5,3.5-3.5,3.5,1.57,3.5,3.5Z"/>
      <path class="cls-3" d="m1663.09,842.9c0,.97-.78,1.75-1.75,1.75s-1.75-.78-1.75-1.75.78-1.75,1.75-1.75,1.75.78,1.75,1.75Z"/>
      <path class="cls-3" d="m1648.58,814.49c0,1.54-1.25,2.79-2.79,2.79s-2.79-1.25-2.79-2.79,1.25-2.79,2.79-2.79,2.79,1.25,2.79,2.79Z"/>
      <path class="cls-1" d="m1560.1,661.28s-4.35-4.46-9.25,0c5.66,4.57,9.25,0,9.25,0Z"/>
      <path class="cls-1" d="m1561.47,653.13s-1.06-6.14-7.62-5.25c2.07,6.97,7.62,5.25,7.62,5.25Z"/>
      <path class="cls-1" d="m1563.52,653.32s5.51-2.92,2.61-8.88c-5.98,4.14-2.61,8.88-2.61,8.88Z"/>
      <path class="cls-1" d="m1743.27,659.88s5.51-2.92,2.61-8.88c-5.98,4.14-2.61,8.88-2.61,8.88Z"/>
      <path class="cls-1" d="m1748.88,700.65s2.15-5.85-3.99-8.35c-1.69,7.08,3.99,8.35,3.99,8.35Z"/>
      <path class="cls-1" d="m1765.92,707.37s3.24,5.33,9.01,2.08c-4.49-5.73-9.01-2.08-9.01-2.08Z"/>
      <path class="cls-1" d="m1670.84,725.95s1.68,6.01,8.12,4.44c-2.77-6.73-8.12-4.44-8.12-4.44Z"/>
      <path class="cls-1" d="m1751.94,668.09s11.47,6.45,18.74-5.5c-14.18-5.9-18.74,5.5-18.74,5.5Z"/>
      <path class="cls-1" d="m1656,615.24s12.45-4.25,8.39-17.63c-13.85,6.64-8.39,17.63-8.39,17.63Z"/>
      <path class="cls-1" d="m1748.33,660.05s8.83,2.91,12.23-6.36c-10.63-2.15-12.23,6.36-12.23,6.36Z"/>
      <path class="cls-1" d="m1732.13,665.38s1.4-9.19-8.31-11c-.35,10.84,8.31,11,8.31,11Z"/>
      <path class="cls-1" d="m1650.94,620.74s1.4-9.19-8.31-11c-.35,10.84,8.31,11,8.31,11Z"/>
      <path class="cls-1" d="m1766.39,719.36s1.4-9.19-8.31-11c-.35,10.84,8.31,11,8.31,11Z"/>
      <path class="cls-1" d="m1559.94,646.99s9.46-5.08,4.41-15.31c-10.27,7.19-4.41,15.31-4.41,15.31Z"/>
      <path class="cls-1" d="m1684.37,733.17s9.46-5.08,4.41-15.31c-10.27,7.19-4.41,15.31-4.41,15.31Z"/>
      <path class="cls-7" d="m1770.43,696.48c0,5.03-4.08,9.11-9.11,9.11s-9.11-4.08-9.11-9.11,4.08-9.11,9.11-9.11,9.11,4.08,9.11,9.11Z"/>
      <path class="cls-1" d="m1651.01,735.46c0,16.48-8.48,30.99-21.31,39.38-7.06-2.44-13.66-5.85-19.63-10.11-19.68-14.01-32.52-37.03-32.52-63.03,0-1.79.07-3.57.18-5.33,7.49-5.04,16.5-7.97,26.21-7.97,24.03,0,43.85,18,46.71,41.24.24,1.91.35,3.85.35,5.81Z"/>
      <path class="cls-1" d="m1700.28,764.29c-1.91,1.4-3.9,2.71-5.94,3.91-11.55,6.89-25.05,10.83-39.46,10.83-8.81,0-17.28-1.48-25.18-4.19-7.06-2.44-13.66-5.85-19.63-10.11,4.66-18.84,20.8-33.15,40.59-35.09,1.51-.14,3.04-.22,4.58-.22,12.49,0,23.83,4.92,32.18,12.94,6.14,5.89,10.67,13.43,12.86,21.93Z"/>
      <path class="cls-1" d="m1727.89,727.23c-5.25,15-14.99,27.9-27.61,37.07-1.91,1.4-3.9,2.71-5.94,3.91-4.84-4.82-7.84-11.5-7.84-18.87,0-2.41.33-4.75.93-6.98,3.06-11.31,13.39-19.63,25.67-19.63,5.47,0,10.57,1.66,14.79,4.49Z"/>
    </g>
    <circle class="cls-2" cx="1608.94" cy="722.67" r="17.08" transform="translate(-154.08 670.72) rotate(-22.5)"/>
    <path class="cls-2" d="m1632.85,754.7c0,3.98-3.23,7.21-7.21,7.21s-7.21-3.23-7.21-7.21,3.23-7.21,7.21-7.21,7.21,3.23,7.21,7.21Z"/>
  </g>
  <g>
    <path class="cls-4" d="m1749.25,775.37s11.98,24.47,37.06,18.42c5.83,16.22,16.83,9.62,16.83,9.62,0,0,7.97,12.42,18.7-1.21,3.85,18.81,24.47.39,29.42-4.56,9.9,15.4,32.72,11,30.24-3.02,17.05,8.25,27.49-3.85,28.32-12.65-21.72,1.65-72.29-14.08-72.29-14.08"/>
    <path class="cls-4" d="m1794.57,672.36s3.54,8.47,13.04,10.2c-4.35,5.19,6.62,15,14.31,11.35,2.89,9.42,13.94,3.69,13.94,3.69,0,0,15.6,6.11,20.83-3.69,9.47,6.73,32.93-1.73,27.16-17.89-11.73,6.16-55.23-9.62-55.23-9.62l-34.06,5.96Z"/>
    <path class="cls-4" d="m1805.96,621.59s2.4,8.85,12.26,4.42c.43,13.46,16.27,13.07,17.3,5.67,5.84,7.03,10.27.68,10.27.68,0,0,17.3,2.89,16.91-10.77-.38-13.66-53.09-8.66-56.74,0Z"/>
    <polygon class="cls-3" points="1845.79 850.27 1825.94 850.27 1835.3 586.27 1836.42 586.27 1845.79 850.27"/>
    <path class="cls-1" d="m1835.86,576.83s-1.52,10.63-8.27,13.23c6.23-.52,7.65-2.21,7.65-2.21,0,0,2.99,4.41,8.95,2.21-5.71-1.55-8.34-13.23-8.34-13.23Z"/>
    <path class="cls-1" d="m1813.25,851.75h48.28s3.32-21.24,0-23.66c-3.32-2.41-2.72,19.91-2.72,19.91,0,0-4.53-10.32-6.03-8.18-1.51,2.14-.3,8.18-.3,8.18,0,0-10.56-10.26-12.67-5.73-2.11,4.53-1.68,6.64-1.68,6.64,0,0-6.47-12.97-12.81-11.47-6.34,1.51-6.64,9.96-6.64,9.96,0,0-2.72-13.58-5.43-13.28-2.72.3,0,17.62,0,17.62Z"/>
    <path class="cls-4" d="m1835.86,734.07s-3.91,19.83-25.64,24.66c18.48,13.61,25.64,2.72,25.64,2.72,0,0,12.01,13.88,27.13.91-12.34-2.41-22.9-11.37-27.13-28.28Z"/>
    <path class="cls-4" d="m1835.86,641.96s-7.93,23.59-28.25,25.98c10.76,5.7,14.12,2.08,14.12,2.08,0,0,8.46,13.58,22.46,2.72,6.76,6.34,12.5.3,12.5.3,0,0-14.51-5.43-20.83-31.08Z"/>
    <path class="cls-4" d="m1835.86,598.19s-5.63,15-17.64,13.62c5.62,8.01,12.78,3.51,12.78,3.51,0,0,6.32,4.78,8.99-.14,1.12,4.49,5.13,2.53,5.8-.98,3.05,1.83,6,1.55,7.41-1.69-14.96-.7-17.33-14.33-17.33-14.33Z"/>
    <polyline class="cls-3" points="1839.23 702.95 1843.85 697.6 1845 697.6 1840.77 708.7"/>
    <polyline class="cls-3" points="1835.71 630.57 1832.15 628.89 1831.16 631.4 1834.43 634.09"/>
    <polyline class="cls-3" points="1831.54 779.69 1825.94 774.12 1824.62 777.96 1829.81 787"/>
    <polyline class="cls-3" points="1840.39 812.2 1846.93 804.7 1849.04 807.2 1843.85 821.62"/>
    <path class="cls-11" d="m1835.96,805.47c0,1.81-1.46,3.27-3.27,3.27s-3.27-1.46-3.27-3.27,1.46-3.27,3.27-3.27,3.27,1.46,3.27,3.27Z"/>
    <path class="cls-11" d="m1841.56,829.41c0,1.12-.9,2.02-2.02,2.02s-2.02-.9-2.02-2.02.9-2.02,2.02-2.02,2.02.9,2.02,2.02Z"/>
    <path class="cls-11" d="m1840.39,818.06c0,.79-.64,1.43-1.43,1.43s-1.43-.64-1.43-1.43.64-1.43,1.43-1.43,1.43.64,1.43,1.43Z"/>
    <circle class="cls-11" cx="1837.98" cy="772" r="2.12"/>
    <path class="cls-11" d="m1835.3,709.23c0,.29-.24.53-.53.53s-.53-.24-.53-.53.24-.53.53-.53.53.24.53.53Z"/>
    <path class="cls-11" d="m1839.81,693.89c0,1.01-.82,1.83-1.83,1.83s-1.83-.82-1.83-1.83.82-1.83,1.83-1.83,1.83.82,1.83,1.83Z"/>
    <path class="cls-11" d="m1836.73,686.12c0,.69-.56,1.25-1.25,1.25s-1.25-.56-1.25-1.25.56-1.25,1.25-1.25,1.25.56,1.25,1.25Z"/>
    <path class="cls-11" d="m1836.61,637.15c0,.31-.25.56-.56.56s-.56-.25-.56-.56.25-.57.56-.57.56.25.56.57Z"/>
    <path class="cls-1" d="m1835.86,697.6s-21.63,75.5-95.57,74.33c35.8,26.07,51.76,14.01,51.76,14.01,0,0,1.56,12.45,10.9,14.01,9.34,1.56,14.4-8.17,14.4-8.17,0,0,17.12,18.29,34.25,0,12.45,13.62,22.96,7,24.91-3.11,25.68,10.51,40.47-10.51,40.47-10.51,0,0-69.21-4.67-81.11-80.56Z"/>
    <path class="cls-1" d="m1835.96,629.81s-12.79,42.01-49.65,36.16c12.05,12.58,26.76,10.28,26.76,10.28,0,0-1.77,8.51,5.14,10.99,6.91,2.48,11.52-2.84,11.52-2.84,0,0,15.95,15.24,27.83-2.48,12.23,14.18,29.95.71,32.61-12.41-17.19,6.2-37.19-6.74-44.56-17.02-7.37-10.28-9.65-22.69-9.65-22.69Z"/>
    <path class="cls-1" d="m1835.86,590.19s-21.08,26.27-46.45,20.92c16.52,23.51,29.56,9.31,29.56,9.31,0,0,7.02,13.96,16.9,2.33,9.87,12.57,17.09-.47,17.09-.47,0,0,16.76,12.57,29.56-7.68-24.21,3.49-46.64-24.41-46.64-24.41Z"/>
    <path class="cls-4" d="m1834.6,698.51s-15.78,19.59-31.19,20.15c8.35,2.78,15.59-2.8,15.59-2.8,0,0-3.71,5.59,0,5.96s9.28-2.78,9.28-2.78c0,0,13.55,10.58,21.35-1.11,8.72,4.83,15.41-2.97,15.41-2.97,0,0-18.93,6.86-30.44-16.43Z"/>
  </g>
  <g>
    <path class="cls-1" d="m1981.28,868.3h-57.32s-2.54-23.04,17.2-20.49c-.56-18.88,22.56-14.39,19.18,0,14.66-14.09,21.74,3.98,21.74,3.98,0,0,11.75-22.33,30.25-4.27,14.27-16.34,28.93,5.73,15.68,20.78h-46.73Z"/>
    <g>
      <polyline class="cls-9" points="2060.54 732.64 2054.62 739.72 2034.75 733.84 2031.93 742.06 2056.18 744.67 2063.33 735.23"/>
      <path class="cls-9" d="m2027.49,719.89c.33-.45,28.02-19.54,28.02-19.54l1.61,4.94-22.82,25.88"/>
      <polyline class="cls-9" points="1909.34 696.11 1911.87 716.16 1931.37 732.64 1936.81 722.73 1916.11 713.67 1913.55 696.11"/>
      <path class="cls-9" d="m1991.94,811.84c.45-.85,25.31-30.79,25.31-30.79l-7.91-2.26-17.4,22.74"/>
      <polyline class="cls-9" points="1975.44 808.4 1952.84 779.86 1948.6 781.99 1975.44 816.17"/>
      <rect class="cls-9" x="1969.67" y="783.34" width="23.22" height="84.68"/>
      <path class="cls-7" d="m2026.88,677.7c0,18.21-10.8,33.89-26.35,40.98-5.69,2.6-12.01,4.05-18.69,4.05-24.86,0-45.03-20.15-45.03-45.03s20.16-45.04,45.03-45.04c17.05,0,31.89,9.48,39.53,23.46,3.51,6.4,5.5,13.75,5.5,21.58Z"/>
      <path class="cls-1" d="m2026.88,677.7c0,18.21-10.8,33.89-26.35,40.98-11.64-5.13-19.77-16.77-19.77-30.31,0-18.28,14.82-33.1,33.1-33.1,2.58,0,5.1.29,7.51.85,3.51,6.4,5.5,13.75,5.5,21.58Z"/>
      <path class="cls-7" d="m2041.92,735.23c0,6.95-1.18,13.62-3.35,19.83-4.08,11.66-11.65,21.68-21.46,28.8-1.49,1.09-3.03,2.11-4.62,3.04-8.97,5.35-19.46,8.41-30.66,8.41-6.85,0-13.43-1.15-19.56-3.26-5.48-1.89-10.61-4.55-15.25-7.85-15.29-10.89-25.27-28.77-25.27-48.97,0-1.39.05-2.78.14-4.14,2.13-31.24,28.16-55.94,59.94-55.94s60.08,26.91,60.08,60.08Z"/>
      <circle class="cls-7" cx="1910.69" cy="686.76" r="14.44" transform="translate(822.8 2401.07) rotate(-77.37)"/>
      <circle class="cls-7" cx="2061.19" cy="694.41" r="19.26" transform="translate(112.69 1660.87) rotate(-45)"/>
      <path class="cls-1" d="m1953.23,868.02h61.35s-3.11-5.38-10.17-2.69c.28-11.87-14.97-12.71-16.1-3.39-5.37-8.19-5.74,2.54-5.74,2.54,0,0-9.23-8.76-16.57-1.41-5.93-5.37-13.26-2.36-12.75,4.95Z"/>
      <path class="cls-3" d="m1977.84,850.43c0,1.44-1.17,2.61-2.61,2.61s-2.61-1.17-2.61-2.61,1.17-2.61,2.61-2.61,2.61,1.17,2.61,2.61Z"/>
      <path class="cls-3" d="m1991.09,832.04c0,3.43-2.78,6.22-6.22,6.22s-6.22-2.78-6.22-6.22,2.78-6.22,6.22-6.22,6.22,2.78,6.22,6.22Z"/>
      <circle class="cls-3" cx="1976.95" cy="814.22" r="1.72"/>
      <path class="cls-3" d="m1988.22,801.8c0,1.5-1.22,2.72-2.72,2.72s-2.72-1.22-2.72-2.72,1.22-2.72,2.72-2.72,2.72,1.22,2.72,2.72Z"/>
      <path class="cls-3" d="m1988.22,844.94c0,.75-.61,1.36-1.36,1.36s-1.36-.61-1.36-1.36.61-1.36,1.36-1.36,1.36.61,1.36,1.36Z"/>
      <path class="cls-3" d="m1976.95,822.86c0,1.2-.97,2.17-2.17,2.17s-2.17-.97-2.17-2.17.97-2.17,2.17-2.17,2.17.97,2.17,2.17Z"/>
      <path class="cls-1" d="m1908.2,703.81s-3.38-3.47-7.19,0c4.4,3.55,7.19,0,7.19,0Z"/>
      <path class="cls-1" d="m1909.27,697.48s-.82-4.77-5.92-4.08c1.61,5.42,5.92,4.08,5.92,4.08Z"/>
      <path class="cls-1" d="m1910.86,697.63s4.28-2.27,2.03-6.9c-4.65,3.22-2.03,6.9-2.03,6.9Z"/>
      <path class="cls-1" d="m2050.52,702.72s4.28-2.27,2.03-6.9c-4.65,3.22-2.03,6.9-2.03,6.9Z"/>
      <path class="cls-1" d="m2054.89,734.41s1.67-4.55-3.1-6.49c-1.31,5.5,3.1,6.49,3.1,6.49Z"/>
      <path class="cls-1" d="m2068.12,739.62s2.52,4.14,7,1.62c-3.48-4.45-7-1.62-7-1.62Z"/>
      <path class="cls-1" d="m1994.25,754.06s1.3,4.67,6.31,3.45c-2.15-5.23-6.31-3.45-6.31-3.45Z"/>
      <path class="cls-1" d="m2057.26,709.1s8.91,5.01,14.56-4.27c-11.02-4.58-14.56,4.27-14.56,4.27Z"/>
      <path class="cls-1" d="m1982.71,668.04s9.68-3.3,6.52-13.7c-10.76,5.16-6.52,13.7-6.52,13.7Z"/>
      <path class="cls-1" d="m2054.45,702.86s6.86,2.26,9.51-4.94c-8.26-1.67-9.51,4.94-9.51,4.94Z"/>
      <path class="cls-1" d="m2041.86,707s1.09-7.14-6.46-8.55c-.27,8.42,6.46,8.55,6.46,8.55Z"/>
      <path class="cls-1" d="m1978.78,672.31s1.09-7.14-6.46-8.55c-.27,8.42,6.46,8.55,6.46,8.55Z"/>
      <path class="cls-1" d="m2068.49,748.95s1.09-7.14-6.46-8.55c-.27,8.42,6.46,8.55,6.46,8.55Z"/>
      <path class="cls-1" d="m1908.08,692.71s7.35-3.95,3.43-11.9c-7.98,5.58-3.43,11.9-3.43,11.9Z"/>
      <path class="cls-1" d="m2004.76,759.67s7.35-3.95,3.43-11.9c-7.98,5.58-3.43,11.9-3.43,11.9Z"/>
      <path class="cls-7" d="m2071.62,731.16c0,3.91-3.17,7.08-7.08,7.08s-7.08-3.17-7.08-7.08,3.17-7.08,7.08-7.08,7.08,3.17,7.08,7.08Z"/>
      <path class="cls-1" d="m1978.84,761.45c0,12.81-6.59,24.08-16.56,30.6-5.48-1.89-10.61-4.55-15.25-7.85-15.29-10.89-25.27-28.77-25.27-48.97,0-1.39.05-2.78.14-4.14,5.82-3.92,12.82-6.2,20.37-6.2,18.67,0,34.07,13.99,36.3,32.05.18,1.49.27,2.99.27,4.52Z"/>
      <path class="cls-1" d="m2017.12,783.86c-1.49,1.09-3.03,2.11-4.62,3.04-8.97,5.35-19.46,8.41-30.66,8.41-6.85,0-13.43-1.15-19.56-3.26-5.48-1.89-10.61-4.55-15.25-7.85,3.62-14.64,16.17-25.76,31.54-27.26,1.17-.11,2.36-.17,3.56-.17,9.71,0,18.52,3.83,25.01,10.05,4.77,4.58,8.29,10.44,9.99,17.04Z"/>
      <path class="cls-1" d="m2038.58,755.06c-4.08,11.66-11.65,21.68-21.46,28.8-1.49,1.09-3.03,2.11-4.62,3.04-3.76-3.74-6.09-8.93-6.09-14.66,0-1.87.25-3.69.72-5.42,2.38-8.79,10.41-15.25,19.95-15.25,4.25,0,8.21,1.29,11.5,3.49Z"/>
    </g>
    <circle class="cls-2" cx="1946.15" cy="751.51" r="13.27" transform="translate(-139.45 801.96) rotate(-22.5)"/>
    <path class="cls-2" d="m1964.72,776.4c0,3.09-2.51,5.6-5.6,5.6s-5.6-2.51-5.6-5.6,2.51-5.6,5.6-5.6,5.6,2.51,5.6,5.6Z"/>
  </g>
  <g>
    <path class="cls-10" d="m2343.8,864.52h129.26s-6.19-22.61-19.27-15.14c-2.06-26.93-24.73-30.37-31.98-11.79-11.37-20.64-72.4-16.55-78.02,16.15"/>
    <g>
      <path class="cls-9" d="m2316.68,674.78l22.83,34.45v12.13l-27.9-43.26c-.5-.77-.62-1.73-.33-2.6h0c.8-2.4,4.01-2.82,5.4-.72Z"/>
      <path class="cls-8" d="m2434.04,633.87v90.81c0,28.82-23.35,52.16-52.16,52.16s-52.16-23.34-52.16-52.16v-90.81c0-5.53.86-10.86,2.45-15.85,6.71-21.07,26.42-36.31,49.71-36.31,14.4,0,27.45,5.84,36.89,15.27,4.76,4.76,8.61,10.44,11.25,16.75,2.58,6.2,4.02,12.99,4.02,20.14Z"/>
      <path class="cls-9" d="m2377.33,632.78h11.32c3.35,0,6.06,2.72,6.06,6.06v225.67h-23.44v-225.67c0-3.35,2.72-6.06,6.06-6.06Z"/>
      <path class="cls-9" d="m2356.45,671.75l22.83,34.45v12.13l-27.9-43.26c-.5-.77-.62-1.73-.33-2.6h0c.8-2.4,4.01-2.82,5.4-.72Z"/>
      <path class="cls-9" d="m2363.04,719.67l29.15,43.98-3.17,20.7-37.05-57.44c-1.09-1.68-1.35-3.77-.72-5.67h0c1.74-5.23,8.74-6.15,11.78-1.56Z"/>
      <path class="cls-9" d="m2406.89,639.8l-22.83,34.45v12.13l27.9-43.26c.5-.77.62-1.73.33-2.6h0c-.8-2.4-4.01-2.82-5.4-.72Z"/>
      <path class="cls-9" d="m2415.02,756.06l-22.83,34.45v12.13l27.9-43.26c.5-.77.62-1.73.33-2.6h0c-.8-2.4-4.01-2.82-5.4-.72Z"/>
      <circle class="cls-10" cx="2318.43" cy="662.41" r="23.97"/>
      <circle class="cls-10" cx="2432.59" cy="736.9" r="30.42"/>
      <circle class="cls-5" cx="2422.91" cy="724.22" r="7.34"/>
      <circle class="cls-5" cx="2446.08" cy="732.47" r="10.82"/>
      <path class="cls-5" d="m2306.28,660.03c0,1.32-1.07,2.38-2.38,2.38s-2.38-1.07-2.38-2.38,1.07-2.38,2.38-2.38,2.38,1.07,2.38,2.38Z"/>
      <circle class="cls-5" cx="2311.55" cy="649.13" r="3.22"/>
      <circle class="cls-5" cx="2328.5" cy="656.8" r="7.67"/>
      <path class="cls-8" d="m2438.98,703.72s-2.97-10.22,8.55-11.36c2.05,11.36-8.55,11.36-8.55,11.36Z"/>
      <path class="cls-6" d="m2343.8,739.98s6.41-8.51,14.22.04c-7.87,8.45-14.22-.04-14.22-.04Z"/>
      <path class="cls-6" d="m2337.6,725.32s9.74-4.31,12.4,6.95c-10.98,3.55-12.4-6.95-12.4-6.95Z"/>
      <path class="cls-6" d="m2415.75,645.88s-1.87-10.48,9.71-10.39c.83,11.51-9.71,10.39-9.71,10.39Z"/>
      <path class="cls-6" d="m2406.38,656.92s7.72-14.63,21.81-3.46c-9.97,14.91-21.81,3.46-21.81,3.46Z"/>
      <path class="cls-8" d="m2418.65,767.99s9.95,3.8,3.9,13.67c-10.3-5.22-3.9-13.67-3.9-13.67Z"/>
      <path class="cls-8" d="m2426.86,770.59s13.11-4.07,14.84,10.75c-14.59,2.92-14.84-10.75-14.84-10.75Z"/>
      <path class="cls-8" d="m2313.74,707.83s-6.75-8.23,3.39-13.81c6.36,9.64-3.39,13.81-3.39,13.81Z"/>
      <path class="cls-8" d="m2293.38,690.27s9.76-12.36,21.03.53c-11.92,12.23-21.03-.53-21.03-.53Z"/>
      <ellipse class="cls-3" cx="2379.19" cy="655.19" rx="2.69" ry="9.28"/>
      <path class="cls-3" d="m2388.63,789.47c0,17.52-1.51,31.73-3.38,31.73s-3.38-14.21-3.38-31.73,1.51-31.73,3.38-31.73,3.38,14.21,3.38,31.73Z"/>
      <ellipse class="cls-3" cx="2379.19" cy="732.47" rx="2.69" ry="9.28"/>
      <ellipse class="cls-3" cx="2385.94" cy="690.52" rx="4.06" ry="21.42"/>
      <path class="cls-10" d="m2430.02,613.74c-43.51-36.79-82.56-9.68-97.85,4.28,6.71-21.07,26.42-36.31,49.71-36.31,14.4,0,27.45,5.84,36.89,15.27,4.76,4.76,8.61,10.44,11.25,16.75Z"/>
      <path class="cls-6" d="m2412.45,866.27h-108.55s.96-27.74,28.27-20.66c7.36-25.12,33.71-10.1,26,9.74,18.05-13.62,49.32-3.18,54.28,10.92Z"/>
      <path class="cls-8" d="m2354.2,864.52h-40.04c3.92-5.75,10.7-11.82,21.81-9.19,4.94-8.99,20.02-3.7,18.23,9.19Z"/>
    </g>
  </g>
  <g>
    <path class="cls-4" d="m2090.65,772.76s14.45,29.52,44.71,22.22c7.04,19.57,20.3,11.61,20.3,11.61,0,0,9.62,14.98,22.55-1.47,4.64,22.69,29.52.47,35.49-5.5,11.94,18.57,39.47,13.27,36.49-3.65,20.56,9.95,33.17-4.64,34.16-15.26-26.2,1.99-87.21-16.99-87.21-16.99"/>
    <path class="cls-4" d="m2145.33,648.48s4.27,10.22,15.74,12.31c-5.25,6.27,7.98,18.1,17.26,13.69,3.48,11.37,16.82,4.46,16.82,4.46,0,0,18.82,7.38,25.13-4.46,11.42,8.12,39.73-2.09,32.77-21.58-14.16,7.43-66.63-11.6-66.63-11.6l-41.09,7.18Z"/>
    <path class="cls-4" d="m2159.07,587.23s2.9,10.67,14.79,5.34c.52,16.24,19.63,15.76,20.87,6.84,7.04,8.48,12.39.82,12.39.82,0,0,20.87,3.48,20.4-12.99-.46-16.48-64.05-10.44-68.46,0Z"/>
    <polygon class="cls-3" points="2207.12 863.12 2183.17 863.12 2194.47 544.63 2195.82 544.63 2207.12 863.12"/>
    <path class="cls-1" d="m2195.15,533.24s-1.84,12.82-9.98,15.96c7.51-.62,9.23-2.67,9.23-2.67,0,0,3.6,5.32,10.8,2.67-6.89-1.87-10.06-15.96-10.06-15.96Z"/>
    <path class="cls-1" d="m2167.86,864.91h58.24s4-25.63,0-28.54c-4-2.91-3.28,24.03-3.28,24.03,0,0-5.46-12.45-7.28-9.87-1.82,2.59-.36,9.87-.36,9.87,0,0-12.74-12.38-15.29-6.92-2.55,5.46-2.02,8.01-2.02,8.01,0,0-7.81-15.65-15.45-13.83-7.64,1.82-8.01,12.01-8.01,12.01,0,0-3.28-16.38-6.55-16.02-3.28.36,0,21.26,0,21.26Z"/>
    <path class="cls-4" d="m2195.15,722.93s-4.72,23.92-30.93,29.75c22.29,16.42,30.93,3.28,30.93,3.28,0,0,14.49,16.74,32.74,1.09-14.88-2.91-27.63-13.72-32.74-34.11Z"/>
    <path class="cls-4" d="m2195.15,611.81s-9.57,28.46-34.08,31.34c12.98,6.88,17.04,2.51,17.04,2.51,0,0,10.2,16.38,27.1,3.28,8.16,7.64,15.08.36,15.08.36,0,0-17.5-6.55-25.13-37.49Z"/>
    <path class="cls-4" d="m2195.15,559s-6.8,18.1-21.29,16.44c6.78,9.66,15.42,4.24,15.42,4.24,0,0,7.63,5.76,10.85-.17,1.36,5.42,6.19,3.05,6.99-1.19,3.68,2.2,7.24,1.86,8.94-2.03-18.04-.85-20.91-17.28-20.91-17.28Z"/>
    <polyline class="cls-3" points="2199.21 685.39 2204.78 678.94 2206.17 678.94 2201.06 692.33"/>
    <polyline class="cls-3" points="2194.96 598.07 2190.67 596.05 2189.47 599.06 2193.41 602.31"/>
    <polyline class="cls-3" points="2189.93 777.98 2183.17 771.25 2181.58 775.89 2187.84 786.79"/>
    <polyline class="cls-3" points="2200.61 817.19 2208.5 808.14 2211.05 811.16 2204.78 828.56"/>
    <path class="cls-11" d="m2195.27,809.07c0,2.18-1.77,3.94-3.94,3.94s-3.94-1.77-3.94-3.94,1.77-3.94,3.94-3.94,3.94,1.77,3.94,3.94Z"/>
    <path class="cls-11" d="m2202.02,837.96c0,1.35-1.09,2.44-2.44,2.44s-2.44-1.09-2.44-2.44,1.09-2.44,2.44-2.44,2.44,1.09,2.44,2.44Z"/>
    <path class="cls-11" d="m2200.61,824.26c0,.96-.77,1.73-1.73,1.73s-1.73-.77-1.73-1.73.77-1.73,1.73-1.73,1.73.77,1.73,1.73Z"/>
    <circle class="cls-11" cx="2197.7" cy="768.69" r="2.55"/>
    <path class="cls-11" d="m2194.47,692.97c0,.36-.29.64-.64.64s-.64-.29-.64-.64.29-.64.64-.64.64.29.64.64Z"/>
    <path class="cls-11" d="m2199.9,674.46c0,1.22-.99,2.2-2.2,2.2s-2.2-.99-2.2-2.2.99-2.2,2.2-2.2,2.2.99,2.2,2.2Z"/>
    <path class="cls-11" d="m2196.2,665.08c0,.83-.68,1.51-1.51,1.51s-1.51-.68-1.51-1.51.68-1.51,1.51-1.51,1.51.68,1.51,1.51Z"/>
    <path class="cls-11" d="m2196.05,606.01c0,.38-.31.68-.68.68s-.68-.31-.68-.68.31-.68.68-.68.68.31.68.68Z"/>
    <path class="cls-1" d="m2195.15,678.94s-26.1,91.08-115.3,89.67c43.19,31.46,62.44,16.9,62.44,16.9,0,0,1.88,15.02,13.15,16.9,11.27,1.88,17.37-9.86,17.37-9.86,0,0,20.66,22.07,41.32,0,15.02,16.43,27.7,8.45,30.05-3.76,30.99,12.68,48.83-12.68,48.83-12.68,0,0-83.5-5.63-97.85-97.19Z"/>
    <path class="cls-1" d="m2195.26,597.15s-15.43,50.68-59.9,43.62c14.54,15.18,32.29,12.4,32.29,12.4,0,0-2.14,10.26,6.2,13.26,8.34,2.99,13.9-3.42,13.9-3.42,0,0,19.25,18.39,33.57-2.99,14.75,17.11,36.14.86,39.35-14.97-20.74,7.48-44.87-8.13-53.76-20.53-8.89-12.4-11.64-27.37-11.64-27.37Z"/>
    <path class="cls-1" d="m2195.15,549.35s-25.44,31.7-56.04,25.24c19.94,28.36,35.66,11.23,35.66,11.23,0,0,8.47,16.85,20.38,2.81,11.91,15.16,20.61-.56,20.61-.56,0,0,20.22,15.16,35.66-9.27-29.2,4.21-56.27-29.45-56.27-29.45Z"/>
    <path class="cls-4" d="m2193.63,680.04s-19.04,23.63-37.62,24.31c10.08,3.36,18.81-3.38,18.81-3.38,0,0-4.48,6.74,0,7.19,4.48.45,11.2-3.36,11.2-3.36,0,0,16.35,12.77,25.76-1.34,10.53,5.82,18.59-3.58,18.59-3.58,0,0-22.84,8.27-36.73-19.83Z"/>
  </g>
  <g>
    <path class="cls-4" d="m2481.01,794.44s10.42,21.29,32.24,16.03c5.07,14.11,14.64,8.37,14.64,8.37,0,0,6.94,10.8,16.27-1.06,3.35,16.36,21.29.34,25.59-3.97,8.61,13.39,28.46,9.57,26.31-2.63,14.83,7.18,23.92-3.35,24.64-11-18.9,1.44-62.89-12.25-62.89-12.25"/>
    <path class="cls-4" d="m2520.44,704.82s3.08,7.37,11.35,8.88c-3.78,4.52,5.76,13.05,12.45,9.87,2.51,8.2,12.13,3.21,12.13,3.21,0,0,13.57,5.32,18.12-3.21,8.24,5.86,28.65-1.51,23.63-15.56-10.21,5.35-48.05-8.37-48.05-8.37l-29.63,5.18Z"/>
    <path class="cls-4" d="m2530.35,660.64s2.09,7.7,10.67,3.85c.38,11.71,14.15,11.37,15.05,4.93,5.08,6.11,8.94.59,8.94.59,0,0,15.05,2.51,14.71-9.37-.33-11.88-46.19-7.53-49.37,0Z"/>
    <polygon class="cls-3" points="2565 859.6 2547.73 859.6 2555.88 629.92 2556.85 629.92 2565 859.6"/>
    <path class="cls-1" d="m2556.36,621.71s-1.33,9.25-7.19,11.51c5.42-.45,6.66-1.92,6.66-1.92,0,0,2.6,3.84,7.79,1.92-4.97-1.35-7.25-11.51-7.25-11.51Z"/>
    <path class="cls-1" d="m2536.69,860.89h42s2.89-18.48,0-20.58c-2.89-2.1-2.36,17.33-2.36,17.33,0,0-3.94-8.98-5.25-7.11-1.31,1.86-.26,7.11-.26,7.11,0,0-9.19-8.93-11.03-4.99-1.84,3.94-1.46,5.78-1.46,5.78,0,0-5.63-11.29-11.14-9.98-5.51,1.31-5.78,8.66-5.78,8.66,0,0-2.36-11.81-4.73-11.55-2.36.26,0,15.33,0,15.33Z"/>
    <path class="cls-4" d="m2556.36,758.51s-3.4,17.25-22.3,21.45c16.07,11.84,22.3,2.36,22.3,2.36,0,0,10.45,12.08,23.61.79-10.73-2.1-19.93-9.89-23.61-24.6Z"/>
    <path class="cls-4" d="m2556.36,678.37s-6.9,20.53-24.58,22.6c9.36,4.96,12.29,1.81,12.29,1.81,0,0,7.36,11.81,19.54,2.36,5.88,5.51,10.87.26,10.87.26,0,0-12.62-4.73-18.12-27.04Z"/>
    <path class="cls-4" d="m2556.36,640.29s-4.9,13.05-15.35,11.85c4.89,6.97,11.12,3.06,11.12,3.06,0,0,5.5,4.15,7.82-.12.98,3.91,4.46,2.2,5.04-.86,2.66,1.59,5.22,1.34,6.44-1.47-13.01-.61-15.08-12.46-15.08-12.46Z"/>
    <polyline class="cls-3" points="2559.3 731.43 2563.31 726.78 2564.32 726.78 2560.63 736.43"/>
    <polyline class="cls-3" points="2556.23 668.46 2553.14 667 2552.27 669.18 2555.11 671.52"/>
    <polyline class="cls-3" points="2552.6 798.2 2547.73 793.35 2546.58 796.69 2551.1 804.56"/>
    <polyline class="cls-3" points="2560.3 826.48 2565.99 819.95 2567.83 822.13 2563.31 834.68"/>
    <path class="cls-11" d="m2556.45,820.62c0,1.57-1.27,2.84-2.84,2.84s-2.84-1.27-2.84-2.84,1.27-2.84,2.84-2.84,2.84,1.27,2.84,2.84Z"/>
    <path class="cls-11" d="m2561.32,841.46c0,.97-.79,1.76-1.76,1.76s-1.76-.79-1.76-1.76.79-1.76,1.76-1.76,1.76.79,1.76,1.76Z"/>
    <path class="cls-11" d="m2560.3,831.58c0,.69-.56,1.25-1.25,1.25s-1.25-.56-1.25-1.25.56-1.25,1.25-1.25,1.25.56,1.25,1.25Z"/>
    <circle class="cls-11" cx="2558.21" cy="791.51" r="1.84"/>
    <path class="cls-11" d="m2555.87,736.9c0,.26-.21.46-.46.46s-.46-.21-.46-.46.21-.46.46-.46.46.21.46.46Z"/>
    <path class="cls-11" d="m2559.79,723.55c0,.88-.71,1.59-1.59,1.59s-1.59-.71-1.59-1.59.71-1.59,1.59-1.59,1.59.71,1.59,1.59Z"/>
    <path class="cls-11" d="m2557.12,716.79c0,.6-.49,1.09-1.09,1.09s-1.09-.49-1.09-1.09.49-1.09,1.09-1.09,1.09.49,1.09,1.09Z"/>
    <path class="cls-11" d="m2557.02,674.19c0,.27-.22.49-.49.49s-.49-.22-.49-.49.22-.49.49-.49.49.22.49.49Z"/>
    <path class="cls-1" d="m2556.36,726.78s-18.82,65.68-83.15,64.67c31.15,22.68,45.03,12.19,45.03,12.19,0,0,1.35,10.83,9.48,12.19,8.13,1.35,12.53-7.11,12.53-7.11,0,0,14.9,15.91,29.79,0,10.83,11.85,19.98,6.09,21.67-2.71,22.35,9.14,35.21-9.14,35.21-9.14,0,0-60.21-4.06-70.57-70.09Z"/>
    <path class="cls-1" d="m2556.45,667.8s-11.12,36.55-43.2,31.46c10.49,10.95,23.29,8.94,23.29,8.94,0,0-1.54,7.4,4.47,9.56,6.01,2.16,10.02-2.47,10.02-2.47,0,0,13.88,13.26,24.21-2.16,10.64,12.34,26.06.62,28.37-10.79-14.96,5.4-32.36-5.86-38.77-14.8-6.41-8.94-8.4-19.74-8.4-19.74Z"/>
    <path class="cls-1" d="m2556.36,633.33s-18.34,22.86-40.42,18.2c14.38,20.45,25.72,8.1,25.72,8.1,0,0,6.11,12.15,14.7,2.03,8.59,10.93,14.86-.41,14.86-.41,0,0,14.58,10.93,25.72-6.68-21.06,3.04-40.58-21.24-40.58-21.24Z"/>
    <path class="cls-4" d="m2555.27,727.57s-13.73,17.04-27.13,17.53c7.27,2.42,13.57-2.44,13.57-2.44,0,0-3.23,4.86,0,5.18,3.23.32,8.08-2.42,8.08-2.42,0,0,11.79,9.21,18.57-.97,7.59,4.2,13.4-2.58,13.4-2.58,0,0-16.47,5.97-26.49-14.3Z"/>
  </g>
  <g>
    <path class="cls-1" d="m2739.53,861.09h-78.04s-3.46-31.36,23.42-27.89c-.77-25.71,30.71-19.59,26.11,0,19.96-19.18,29.6,5.41,29.6,5.41,0,0,16-30.4,41.19-5.81,19.43-22.24,39.39,7.79,21.35,28.29h-63.62Z"/>
    <g>
      <polyline class="cls-9" points="2847.43 676.39 2839.38 686.03 2812.32 678.03 2808.49 689.21 2841.51 692.77 2851.23 679.92"/>
      <path class="cls-9" d="m2802.44,659.03c.46-.61,38.15-26.6,38.15-26.6l2.19,6.72-31.07,35.23"/>
      <polyline class="cls-9" points="2641.59 626.65 2645.04 653.96 2671.58 676.39 2678.99 662.89 2650.81 650.56 2647.32 626.65"/>
      <path class="cls-9" d="m2754.05,784.22c.61-1.15,34.46-41.92,34.46-41.92l-10.77-3.08-23.69,30.96"/>
      <polyline class="cls-9" points="2731.58 779.53 2700.81 740.68 2695.04 743.58 2731.58 790.12"/>
      <rect class="cls-9" x="2723.72" y="745.41" width="31.62" height="115.29"/>
      <path class="cls-7" d="m2801.61,601.59c0,24.79-14.71,46.14-35.87,55.79-7.74,3.55-16.36,5.51-25.44,5.51-33.85,0-61.3-27.44-61.3-61.3s27.45-61.31,61.3-61.31c23.21,0,43.42,12.91,53.82,31.94,4.78,8.71,7.49,18.73,7.49,29.38Z"/>
      <path class="cls-1" d="m2801.61,601.59c0,24.79-14.71,46.14-35.87,55.79-15.84-6.98-26.91-22.83-26.91-41.26,0-24.89,20.18-45.07,45.07-45.07,3.52,0,6.94.4,10.22,1.16,4.78,8.71,7.49,18.73,7.49,29.38Z"/>
      <path class="cls-7" d="m2822.09,679.91c0,9.46-1.61,18.55-4.56,26.99-5.55,15.87-15.86,29.51-29.21,39.21-2.02,1.48-4.13,2.87-6.29,4.14-12.22,7.29-26.5,11.45-41.74,11.45-9.32,0-18.28-1.57-26.63-4.43-7.47-2.58-14.45-6.19-20.76-10.69-20.82-14.82-34.4-39.17-34.4-66.67,0-1.9.07-3.78.19-5.64,2.89-42.53,38.34-76.16,81.61-76.16s81.8,36.63,81.8,81.8Z"/>
      <circle class="cls-7" cx="2643.43" cy="613.93" r="19.66" transform="translate(1466.4 3059.18) rotate(-77.37)"/>
      <circle class="cls-7" cx="2848.32" cy="624.34" r="26.22" transform="translate(392.78 2196.93) rotate(-45)"/>
      <path class="cls-1" d="m2701.34,860.71h83.52s-4.23-7.32-13.85-3.66c.38-16.15-20.39-17.31-21.92-4.62-7.31-11.15-7.82,3.46-7.82,3.46,0,0-12.57-11.92-22.57-1.92-8.08-7.31-18.05-3.21-17.36,6.74Z"/>
      <path class="cls-3" d="m2734.85,836.75c0,1.96-1.59,3.56-3.56,3.56s-3.56-1.59-3.56-3.56,1.59-3.56,3.56-3.56,3.56,1.59,3.56,3.56Z"/>
      <path class="cls-3" d="m2752.89,811.71c0,4.67-3.79,8.46-8.46,8.46s-8.46-3.79-8.46-8.46,3.79-8.46,8.46-8.46,8.46,3.79,8.46,8.46Z"/>
      <circle class="cls-3" cx="2733.63" cy="787.46" r="2.34"/>
      <path class="cls-3" d="m2748.98,770.55c0,2.04-1.66,3.7-3.7,3.7s-3.7-1.66-3.7-3.7,1.66-3.7,3.7-3.7,3.7,1.66,3.7,3.7Z"/>
      <path class="cls-3" d="m2748.98,829.28c0,1.02-.83,1.85-1.85,1.85s-1.85-.83-1.85-1.85.83-1.85,1.85-1.85,1.85.83,1.85,1.85Z"/>
      <path class="cls-3" d="m2733.63,799.22c0,1.63-1.32,2.95-2.95,2.95s-2.95-1.32-2.95-2.95,1.32-2.95,2.95-2.95,2.95,1.32,2.95,2.95Z"/>
      <path class="cls-1" d="m2640.03,637.14s-4.61-4.72-9.79,0c5.99,4.84,9.79,0,9.79,0Z"/>
      <path class="cls-1" d="m2641.49,628.52s-1.12-6.5-8.06-5.55c2.19,7.38,8.06,5.55,8.06,5.55Z"/>
      <path class="cls-1" d="m2643.65,628.72s5.83-3.09,2.76-9.39c-6.33,4.38-2.76,9.39-2.76,9.39Z"/>
      <path class="cls-1" d="m2833.8,635.66s5.83-3.09,2.76-9.39c-6.33,4.38-2.76,9.39-2.76,9.39Z"/>
      <path class="cls-1" d="m2839.74,678.79s2.28-6.19-4.22-8.83c-1.78,7.49,4.22,8.83,4.22,8.83Z"/>
      <path class="cls-1" d="m2857.76,685.9s3.42,5.64,9.54,2.2c-4.74-6.06-9.54-2.2-9.54-2.2Z"/>
      <path class="cls-1" d="m2757.18,705.56s1.77,6.35,8.59,4.7c-2.93-7.12-8.59-4.7-8.59-4.7Z"/>
      <path class="cls-1" d="m2842.97,644.35s12.13,6.83,19.82-5.81c-15-6.24-19.82,5.81-19.82,5.81Z"/>
      <path class="cls-1" d="m2741.48,588.44s13.18-4.5,8.88-18.65c-14.65,7.02-8.88,18.65-8.88,18.65Z"/>
      <path class="cls-1" d="m2839.15,635.84s9.34,3.07,12.94-6.73c-11.24-2.28-12.94,6.73-12.94,6.73Z"/>
      <path class="cls-1" d="m2822.01,641.48s1.48-9.72-8.79-11.64c-.37,11.47,8.79,11.64,8.79,11.64Z"/>
      <path class="cls-1" d="m2736.13,594.26s1.48-9.72-8.79-11.64c-.37,11.47,8.79,11.64,8.79,11.64Z"/>
      <path class="cls-1" d="m2858.26,698.59s1.48-9.72-8.79-11.64c-.37,11.46,8.79,11.64,8.79,11.64Z"/>
      <path class="cls-1" d="m2639.87,622.03s10.01-5.37,4.67-16.2c-10.86,7.6-4.67,16.2-4.67,16.2Z"/>
      <path class="cls-1" d="m2771.5,713.19s10.01-5.37,4.67-16.2c-10.86,7.6-4.67,16.2-4.67,16.2Z"/>
      <path class="cls-7" d="m2862.53,674.38c0,5.32-4.32,9.64-9.64,9.64s-9.64-4.32-9.64-9.64,4.32-9.64,9.64-9.64,9.64,4.32,9.64,9.64Z"/>
      <path class="cls-1" d="m2736.21,715.62c0,17.44-8.97,32.78-22.55,41.66-7.47-2.58-14.45-6.19-20.76-10.69-20.82-14.82-34.4-39.17-34.4-66.67,0-1.9.07-3.78.19-5.64,7.92-5.33,17.45-8.43,27.73-8.43,25.42,0,46.38,19.04,49.42,43.63.25,2.02.37,4.07.37,6.15Z"/>
      <path class="cls-1" d="m2788.32,746.12c-2.02,1.48-4.13,2.87-6.29,4.14-12.22,7.29-26.5,11.45-41.74,11.45-9.32,0-18.28-1.57-26.63-4.43-7.47-2.58-14.45-6.19-20.76-10.69,4.93-19.93,22.01-35.07,42.94-37.12,1.59-.15,3.21-.24,4.85-.24,13.21,0,25.21,5.21,34.04,13.68,6.5,6.23,11.29,14.21,13.6,23.2Z"/>
      <path class="cls-1" d="m2817.53,706.91c-5.55,15.87-15.86,29.51-29.21,39.21-2.02,1.48-4.13,2.87-6.29,4.14-5.12-5.1-8.3-12.16-8.3-19.96,0-2.55.35-5.03.98-7.38,3.24-11.97,14.17-20.76,27.16-20.76,5.79,0,11.18,1.76,15.65,4.75Z"/>
    </g>
    <circle class="cls-2" cx="2691.7" cy="702.08" r="18.07" transform="translate(-63.78 1083.51) rotate(-22.5)"/>
    <path class="cls-2" d="m2716.99,735.97c0,4.21-3.41,7.62-7.62,7.62s-7.62-3.41-7.62-7.62,3.41-7.62,7.62-7.62,7.62,3.41,7.62,7.62Z"/>
  </g>
  <g>
    <path class="cls-1" d="m3018.55,866.39h-72.27s-3.2-29.04,21.69-25.83c-.71-23.81,28.44-18.14,24.18,0,18.49-17.76,27.41,5.01,27.41,5.01,0,0,14.82-28.16,38.14-5.38,17.99-20.6,36.48,7.22,19.77,26.2h-58.91Z"/>
    <g>
      <polyline class="cls-9" points="3118.47 695.35 3111.01 704.28 3085.96 696.86 3082.41 707.22 3112.99 710.52 3121.99 698.62"/>
      <path class="cls-9" d="m3076.81,679.27c.42-.56,35.33-24.63,35.33-24.63l2.03,6.23-28.77,32.62"/>
      <polyline class="cls-9" points="2927.85 649.29 2931.04 674.58 2955.62 695.35 2962.49 682.85 2936.39 671.43 2933.16 649.29"/>
      <path class="cls-9" d="m3031.99,795.2c.57-1.07,31.91-38.82,31.91-38.82l-9.97-2.85-21.94,28.67"/>
      <polyline class="cls-9" points="3011.19 790.86 2982.69 754.88 2977.35 757.57 3011.19 800.67"/>
      <rect class="cls-9" x="3003.91" y="759.27" width="29.28" height="106.77"/>
      <path class="cls-7" d="m3076.04,626.08c0,22.96-13.62,42.72-33.22,51.66-7.17,3.28-15.15,5.1-23.56,5.1-31.35,0-56.77-25.41-56.77-56.77s25.42-56.78,56.77-56.78c21.5,0,40.21,11.95,49.84,29.58,4.43,8.07,6.94,17.34,6.94,27.2Z"/>
      <path class="cls-1" d="m3076.04,626.08c0,22.96-13.62,42.72-33.22,51.66-14.67-6.46-24.92-21.14-24.92-38.21,0-23.05,18.69-41.74,41.74-41.74,3.26,0,6.43.37,9.47,1.08,4.43,8.07,6.94,17.34,6.94,27.2Z"/>
      <path class="cls-7" d="m3095.01,698.61c0,8.76-1.49,17.17-4.22,25-5.14,14.7-14.69,27.33-27.05,36.31-1.87,1.37-3.82,2.65-5.82,3.83-11.31,6.75-24.54,10.61-38.66,10.61-8.63,0-16.93-1.45-24.66-4.1-6.91-2.39-13.38-5.73-19.23-9.9-19.28-13.72-31.86-36.27-31.86-61.74,0-1.76.06-3.5.18-5.22,2.68-39.39,35.5-70.53,75.57-70.53s75.75,33.92,75.75,75.75Z"/>
      <circle class="cls-7" cx="2929.56" cy="637.51" r="18.21" transform="translate(1666.96 3356.8) rotate(-77.37)"/>
      <circle class="cls-7" cx="3119.29" cy="647.15" r="24.28" transform="translate(456.02 2395.22) rotate(-45)"/>
      <path class="cls-1" d="m2983.19,866.03h77.34s-3.92-6.78-12.82-3.39c.36-14.96-18.88-16.03-20.3-4.27-6.77-10.33-7.24,3.21-7.24,3.21,0,0-11.64-11.04-20.9-1.78-7.48-6.77-16.72-2.98-16.08,6.24Z"/>
      <path class="cls-3" d="m3014.21,843.85c0,1.82-1.48,3.29-3.29,3.29s-3.29-1.48-3.29-3.29,1.48-3.29,3.29-3.29,3.29,1.48,3.29,3.29Z"/>
      <path class="cls-3" d="m3030.92,820.66c0,4.33-3.51,7.84-7.84,7.84s-7.84-3.51-7.84-7.84,3.51-7.84,7.84-7.84,7.84,3.51,7.84,7.84Z"/>
      <circle class="cls-3" cx="3013.08" cy="798.2" r="2.17"/>
      <path class="cls-3" d="m3027.3,782.54c0,1.89-1.53,3.43-3.43,3.43s-3.43-1.53-3.43-3.43,1.53-3.43,3.43-3.43,3.43,1.53,3.43,3.43Z"/>
      <path class="cls-3" d="m3027.3,836.93c0,.95-.77,1.71-1.71,1.71s-1.71-.77-1.71-1.71.77-1.71,1.71-1.71,1.71.77,1.71,1.71Z"/>
      <path class="cls-3" d="m3013.08,809.09c0,1.51-1.22,2.73-2.73,2.73s-2.73-1.22-2.73-2.73,1.22-2.73,2.73-2.73,2.73,1.22,2.73,2.73Z"/>
      <path class="cls-1" d="m2926.41,659s-4.27-4.37-9.06,0c5.54,4.48,9.06,0,9.06,0Z"/>
      <path class="cls-1" d="m2927.76,651.02s-1.03-6.02-7.47-5.14c2.03,6.83,7.47,5.14,7.47,5.14Z"/>
      <path class="cls-1" d="m2929.76,651.2s5.4-2.86,2.56-8.7c-5.86,4.06-2.56,8.7-2.56,8.7Z"/>
      <path class="cls-1" d="m3105.85,657.63s5.4-2.86,2.56-8.7c-5.86,4.06-2.56,8.7-2.56,8.7Z"/>
      <path class="cls-1" d="m3111.35,697.57s2.11-5.73-3.91-8.18c-1.65,6.93,3.91,8.18,3.91,8.18Z"/>
      <path class="cls-1" d="m3128.04,704.15s3.17,5.22,8.83,2.04c-4.39-5.61-8.83-2.04-8.83-2.04Z"/>
      <path class="cls-1" d="m3034.9,722.36s1.64,5.88,7.95,4.35c-2.71-6.59-7.95-4.35-7.95-4.35Z"/>
      <path class="cls-1" d="m3114.34,665.67s11.24,6.32,18.36-5.38c-13.89-5.78-18.36,5.38-18.36,5.38Z"/>
      <path class="cls-1" d="m3020.36,613.9s12.2-4.16,8.22-17.27c-13.57,6.51-8.22,17.27-8.22,17.27Z"/>
      <path class="cls-1" d="m3110.8,657.8s8.65,2.85,11.98-6.23c-10.41-2.11-11.98,6.23-11.98,6.23Z"/>
      <path class="cls-1" d="m3094.93,663.02s1.37-9-8.14-10.78c-.35,10.62,8.14,10.78,8.14,10.78Z"/>
      <path class="cls-1" d="m3015.4,619.29s1.37-9-8.14-10.78c-.35,10.62,8.14,10.78,8.14,10.78Z"/>
      <path class="cls-1" d="m3128.5,715.91s1.37-9-8.14-10.78c-.35,10.62,8.14,10.78,8.14,10.78Z"/>
      <path class="cls-1" d="m2926.26,645.01s9.27-4.97,4.32-15c-10.06,7.04-4.32,15-4.32,15Z"/>
      <path class="cls-1" d="m3048.15,729.43s9.27-4.97,4.32-15c-10.06,7.04-4.32,15-4.32,15Z"/>
      <path class="cls-7" d="m3132.45,693.48c0,4.93-4,8.93-8.93,8.93s-8.93-4-8.93-8.93,4-8.93,8.93-8.93,8.93,4,8.93,8.93Z"/>
      <path class="cls-1" d="m3015.47,731.68c0,16.15-8.31,30.36-20.88,38.58-6.91-2.39-13.38-5.73-19.23-9.9-19.28-13.72-31.86-36.27-31.86-61.74,0-1.76.06-3.5.18-5.22,7.34-4.94,16.16-7.81,25.68-7.81,23.54,0,42.95,17.64,45.76,40.4.23,1.87.35,3.77.35,5.69Z"/>
      <path class="cls-1" d="m3063.74,759.92c-1.87,1.37-3.82,2.65-5.82,3.83-11.31,6.75-24.54,10.61-38.66,10.61-8.63,0-16.93-1.45-24.66-4.1-6.91-2.39-13.38-5.73-19.23-9.9,4.57-18.46,20.38-32.48,39.76-34.37,1.48-.14,2.98-.22,4.49-.22,12.24,0,23.34,4.82,31.53,12.67,6.02,5.77,10.45,13.16,12.6,21.48Z"/>
      <path class="cls-1" d="m3090.79,723.61c-5.14,14.7-14.69,27.33-27.05,36.31-1.87,1.37-3.82,2.65-5.82,3.83-4.75-4.72-7.68-11.26-7.68-18.48,0-2.36.32-4.66.91-6.84,3-11.08,13.12-19.23,25.15-19.23,5.36,0,10.35,1.63,14.49,4.4Z"/>
    </g>
    <circle class="cls-2" cx="2974.26" cy="719.14" r="16.73" transform="translate(-48.8 1192.94) rotate(-22.5)"/>
    <path class="cls-2" d="m2997.68,750.52c0,3.9-3.16,7.06-7.06,7.06s-7.06-3.16-7.06-7.06,3.16-7.06,7.06-7.06,7.06,3.16,7.06,7.06Z"/>
  </g>
  <g>
    <path class="cls-10" d="m3374.46,856.58h120.96s-5.8-21.16-18.03-14.17c-1.93-25.2-23.14-28.42-29.92-11.03-10.64-19.32-67.75-15.49-73,15.12"/>
    <g>
      <path class="cls-9" d="m3349.08,679.03l21.36,32.23v11.35l-26.11-40.48c-.47-.72-.58-1.62-.31-2.43h0c.75-2.24,3.75-2.64,5.05-.67Z"/>
      <path class="cls-8" d="m3458.9,640.75v84.98c0,26.97-21.85,48.81-48.81,48.81s-48.81-21.85-48.81-48.81v-84.98c0-5.18.8-10.16,2.3-14.84,6.28-19.71,24.73-33.98,46.52-33.98,13.48,0,25.69,5.46,34.52,14.29,4.46,4.46,8.06,9.77,10.53,15.68,2.42,5.8,3.76,12.16,3.76,18.84Z"/>
      <path class="cls-9" d="m3405.83,639.73h10.59c3.13,0,5.67,2.54,5.67,5.67v211.18h-21.93v-211.18c0-3.13,2.54-5.67,5.67-5.67Z"/>
      <path class="cls-9" d="m3386.29,676.19l21.36,32.23v11.35l-26.11-40.48c-.47-.72-.58-1.62-.31-2.43h0c.75-2.24,3.75-2.64,5.05-.67Z"/>
      <path class="cls-9" d="m3392.46,721.04l27.28,41.16-2.96,19.37-34.67-53.75c-1.02-1.58-1.26-3.53-.67-5.31h0c1.63-4.89,8.18-5.76,11.03-1.46Z"/>
      <path class="cls-9" d="m3433.5,646.3l-21.36,32.23v11.35l26.11-40.48c.47-.72.58-1.62.31-2.43h0c-.75-2.24-3.75-2.64-5.05-.67Z"/>
      <path class="cls-9" d="m3441.1,755.09l-21.36,32.23v11.35l26.11-40.48c.47-.72.58-1.62.31-2.43h0c-.75-2.24-3.75-2.64-5.05-.67Z"/>
      <circle class="cls-10" cx="3350.72" cy="667.46" r="22.43"/>
      <circle class="cls-10" cx="3457.54" cy="737.16" r="28.46"/>
      <circle class="cls-5" cx="3448.48" cy="725.29" r="6.87"/>
      <circle class="cls-5" cx="3470.17" cy="733.02" r="10.13"/>
      <path class="cls-5" d="m3339.35,665.23c0,1.23-1,2.23-2.23,2.23s-2.23-1-2.23-2.23,1-2.23,2.23-2.23,2.23,1,2.23,2.23Z"/>
      <circle class="cls-5" cx="3344.28" cy="655.03" r="3.01"/>
      <circle class="cls-5" cx="3360.14" cy="662.2" r="7.18"/>
      <path class="cls-8" d="m3463.53,706.12s-2.78-9.57,8-10.63c1.92,10.63-8,10.63-8,10.63Z"/>
      <path class="cls-6" d="m3374.46,740.05s5.99-7.96,13.31.04c-7.36,7.91-13.31-.04-13.31-.04Z"/>
      <path class="cls-6" d="m3368.65,726.32s9.11-4.03,11.6,6.51c-10.28,3.33-11.6-6.51-11.6-6.51Z"/>
      <path class="cls-6" d="m3441.79,651.99s-1.75-9.81,9.09-9.72c.78,10.78-9.09,9.72-9.09,9.72Z"/>
      <path class="cls-6" d="m3433.02,662.32s7.22-13.69,20.41-3.24c-9.33,13.95-20.41,3.24-20.41,3.24Z"/>
      <path class="cls-8" d="m3444.5,766.25s9.31,3.56,3.65,12.79c-9.64-4.88-3.65-12.79-3.65-12.79Z"/>
      <path class="cls-8" d="m3452.18,768.69s12.26-3.81,13.89,10.06c-13.65,2.73-13.89-10.06-13.89-10.06Z"/>
      <path class="cls-8" d="m3346.33,709.96s-6.32-7.7,3.17-12.92c5.95,9.02-3.17,12.92-3.17,12.92Z"/>
      <path class="cls-8" d="m3327.28,693.52s9.13-11.57,19.68.5c-11.15,11.45-19.68-.5-19.68-.5Z"/>
      <ellipse class="cls-3" cx="3407.57" cy="660.7" rx="2.52" ry="8.68"/>
      <path class="cls-3" d="m3416.41,786.35c0,16.4-1.41,29.69-3.16,29.69s-3.16-13.29-3.16-29.69,1.41-29.69,3.16-29.69,3.16,13.29,3.16,29.69Z"/>
      <ellipse class="cls-3" cx="3407.57" cy="733.02" rx="2.52" ry="8.68"/>
      <ellipse class="cls-3" cx="3413.89" cy="693.76" rx="3.8" ry="20.05"/>
      <path class="cls-10" d="m3455.14,621.91c-40.72-34.43-77.26-9.06-91.56,4.01,6.28-19.71,24.73-33.98,46.52-33.98,13.48,0,25.69,5.46,34.52,14.29,4.46,4.46,8.06,9.77,10.53,15.68Z"/>
      <path class="cls-6" d="m3438.7,858.22h-101.58s.9-25.96,26.45-19.33c6.89-23.5,31.55-9.46,24.33,9.12,16.89-12.74,46.15-2.98,50.8,10.22Z"/>
      <path class="cls-8" d="m3384.19,856.58h-37.47c3.67-5.38,10.01-11.06,20.41-8.6,4.62-8.41,18.73-3.46,17.06,8.6Z"/>
    </g>
  </g>
  <g>
    <path class="cls-4" d="m3129.12,773.3s13.35,27.26,41.29,20.52c6.5,18.07,18.75,10.72,18.75,10.72,0,0,8.88,13.84,20.83-1.35,4.29,20.96,27.26.43,32.78-5.08,11.03,17.15,36.45,12.25,33.7-3.37,18.99,9.19,30.63-4.29,31.55-14.09-24.2,1.84-80.54-15.69-80.54-15.69"/>
    <path class="cls-4" d="m3179.62,658.53s3.95,9.44,14.53,11.37c-4.84,5.79,7.37,16.72,15.94,12.64,3.21,10.5,15.53,4.12,15.53,4.12,0,0,17.38,6.81,23.21-4.12,10.55,7.5,36.69-1.93,30.26-19.93-13.07,6.86-61.53-10.72-61.53-10.72l-37.95,6.64Z"/>
    <path class="cls-4" d="m3192.31,601.96s2.68,9.86,13.66,4.93c.48,15,18.13,14.56,19.27,6.31,6.5,7.83,11.45.76,11.45.76,0,0,19.27,3.21,18.84-12-.43-15.22-59.15-9.64-63.22,0Z"/>
    <polygon class="cls-3" points="3236.69 856.76 3214.57 856.76 3225 562.61 3226.25 562.61 3236.69 856.76"/>
    <path class="cls-1" d="m3225.63,552.1s-1.7,11.84-9.21,14.74c6.94-.57,8.53-2.46,8.53-2.46,0,0,3.33,4.92,9.97,2.46-6.36-1.73-9.29-14.74-9.29-14.74Z"/>
    <path class="cls-1" d="m3200.43,858.41h53.79s3.7-23.67,0-26.36c-3.7-2.69-3.03,22.19-3.03,22.19,0,0-5.04-11.5-6.72-9.11-1.68,2.39-.34,9.11-.34,9.11,0,0-11.77-11.43-14.12-6.39-2.35,5.04-1.87,7.4-1.87,7.4,0,0-7.21-14.46-14.27-12.77-7.06,1.68-7.4,11.09-7.4,11.09,0,0-3.03-15.13-6.05-14.79-3.03.34,0,19.63,0,19.63Z"/>
    <path class="cls-4" d="m3225.63,727.29s-4.36,22.09-28.56,27.47c20.58,15.17,28.56,3.03,28.56,3.03,0,0,13.39,15.46,30.23,1.01-13.75-2.69-25.52-12.67-30.23-31.51Z"/>
    <path class="cls-4" d="m3225.63,624.66s-8.84,26.29-31.48,28.94c11.99,6.35,15.74,2.32,15.74,2.32,0,0,9.42,15.13,25.03,3.03,7.54,7.06,13.92.34,13.92.34,0,0-16.16-6.05-23.21-34.63Z"/>
    <path class="cls-4" d="m3225.63,575.89s-6.28,16.72-19.66,15.18c6.26,8.92,14.24,3.91,14.24,3.91,0,0,7.04,5.32,10.02-.16,1.25,5.01,5.72,2.82,6.46-1.1,3.4,2.03,6.69,1.72,8.25-1.88-16.66-.78-19.31-15.96-19.31-15.96Z"/>
    <polyline class="cls-3" points="3229.38 692.61 3234.53 686.66 3235.81 686.66 3231.09 699.02"/>
    <polyline class="cls-3" points="3225.45 611.97 3221.5 610.1 3220.38 612.89 3224.03 615.89"/>
    <polyline class="cls-3" points="3220.81 778.12 3214.57 771.91 3213.1 776.19 3218.88 786.26"/>
    <polyline class="cls-3" points="3230.67 814.34 3237.96 805.98 3240.31 808.77 3234.53 824.84"/>
    <path class="cls-11" d="m3225.74,806.84c0,2.01-1.63,3.64-3.64,3.64s-3.64-1.63-3.64-3.64,1.63-3.64,3.64-3.64,3.64,1.63,3.64,3.64Z"/>
    <path class="cls-11" d="m3231.97,833.52c0,1.24-1.01,2.25-2.25,2.25s-2.25-1.01-2.25-2.25,1.01-2.25,2.25-2.25,2.25,1.01,2.25,2.25Z"/>
    <path class="cls-11" d="m3230.67,820.87c0,.88-.72,1.6-1.6,1.6s-1.6-.72-1.6-1.6.72-1.6,1.6-1.6,1.6.72,1.6,1.6Z"/>
    <circle class="cls-11" cx="3227.99" cy="769.55" r="2.36"/>
    <path class="cls-11" d="m3225,699.61c0,.33-.27.6-.6.6s-.59-.27-.59-.6.27-.59.59-.59.6.27.6.59Z"/>
    <path class="cls-11" d="m3230.02,682.52c0,1.12-.91,2.04-2.04,2.04s-2.04-.91-2.04-2.04.91-2.04,2.04-2.04,2.04.91,2.04,2.04Z"/>
    <path class="cls-11" d="m3226.6,673.86c0,.77-.62,1.39-1.39,1.39s-1.39-.62-1.39-1.39.62-1.39,1.39-1.39,1.39.62,1.39,1.39Z"/>
    <path class="cls-11" d="m3226.46,619.3c0,.35-.28.63-.63.63s-.63-.28-.63-.63.28-.63.63-.63.63.28.63.63Z"/>
    <path class="cls-1" d="m3225.63,686.66s-24.1,84.12-106.48,82.82c39.89,29.05,57.67,15.61,57.67,15.61,0,0,1.73,13.88,12.14,15.61,10.41,1.73,16.04-9.11,16.04-9.11,0,0,19.08,20.38,38.16,0,13.88,15.18,25.58,7.8,27.75-3.47,28.62,11.71,45.09-11.71,45.09-11.71,0,0-77.11-5.2-90.37-89.76Z"/>
    <path class="cls-1" d="m3225.74,611.12s-14.25,46.8-55.32,40.29c13.43,14.02,29.82,11.45,29.82,11.45,0,0-1.97,9.48,5.73,12.24,7.7,2.76,12.84-3.16,12.84-3.16,0,0,17.77,16.98,31.01-2.76,13.63,15.8,33.38.79,36.34-13.82-19.16,6.91-41.44-7.5-49.65-18.96-8.21-11.45-10.75-25.28-10.75-25.28Z"/>
    <path class="cls-1" d="m3225.63,566.98s-23.49,29.27-51.76,23.31c18.41,26.19,32.93,10.37,32.93,10.37,0,0,7.83,15.56,18.82,2.59,11,14,19.04-.52,19.04-.52,0,0,18.67,14,32.93-8.56-26.97,3.89-51.97-27.2-51.97-27.2Z"/>
    <path class="cls-4" d="m3224.23,687.67s-17.58,21.83-34.75,22.45c9.31,3.1,17.37-3.12,17.37-3.12,0,0-4.14,6.23,0,6.64s10.34-3.1,10.34-3.1c0,0,15.1,11.79,23.79-1.24,9.72,5.38,17.17-3.31,17.17-3.31,0,0-21.1,7.64-33.92-18.31Z"/>
  </g>
  <g>
    <path class="cls-10" d="m3824.76,844.15h108.11s-5.18-18.91-16.11-12.66c-1.73-22.52-20.68-25.4-26.74-9.86-9.51-17.27-60.55-13.84-65.25,13.51"/>
    <g>
      <path class="cls-9" d="m3802.08,685.47l19.09,28.81v10.15l-23.34-36.18c-.42-.65-.52-1.45-.27-2.18h0c.67-2,3.35-2.36,4.52-.6Z"/>
      <path class="cls-8" d="m3900.23,651.26v75.95c0,24.1-19.52,43.63-43.63,43.63s-43.63-19.52-43.63-43.63v-75.95c0-4.63.72-9.08,2.05-13.26,5.61-17.62,22.1-30.37,41.57-30.37,12.04,0,22.96,4.88,30.85,12.77,3.98,3.98,7.2,8.73,9.41,14.01,2.16,5.18,3.36,10.87,3.36,16.84Z"/>
      <path class="cls-9" d="m3851.85,650.35h11.37c2.27,0,4.12,1.84,4.12,4.12v189.69h-19.6v-189.69c0-2.27,1.84-4.12,4.12-4.12Z"/>
      <path class="cls-9" d="m3835.34,682.93l19.09,28.81v10.15l-23.34-36.18c-.42-.65-.52-1.45-.27-2.18h0c.67-2,3.35-2.36,4.52-.6Z"/>
      <path class="cls-9" d="m3840.85,723.01l24.38,36.78-2.65,17.31-30.99-48.04c-.91-1.41-1.13-3.15-.6-4.75h0c1.46-4.37,7.31-5.15,9.85-1.31Z"/>
      <path class="cls-9" d="m3877.52,656.21l-19.09,28.81v10.15l23.34-36.18c.42-.65.52-1.45.27-2.18h0c-.67-2-3.35-2.36-4.52-.6Z"/>
      <path class="cls-9" d="m3884.32,753.45l-19.09,28.81v10.15l23.34-36.18c.42-.65.52-1.45.27-2.18h0c-.67-2-3.35-2.36-4.52-.6Z"/>
      <circle class="cls-10" cx="3803.54" cy="675.12" r="20.04"/>
      <circle class="cls-10" cx="3899.02" cy="737.42" r="25.44"/>
      <circle class="cls-5" cx="3890.92" cy="726.81" r="6.14"/>
      <circle class="cls-5" cx="3910.3" cy="733.72" r="9.05"/>
      <path class="cls-5" d="m3793.38,673.13c0,1.1-.89,1.99-1.99,1.99s-1.99-.89-1.99-1.99.89-1.99,1.99-1.99,1.99.89,1.99,1.99Z"/>
      <circle class="cls-5" cx="3797.79" cy="664.01" r="2.69"/>
      <circle class="cls-5" cx="3811.96" cy="670.43" r="6.41"/>
      <path class="cls-8" d="m3904.36,709.67s-2.49-8.55,7.15-9.5c1.72,9.5-7.15,9.5-7.15,9.5Z"/>
      <path class="cls-6" d="m3824.76,740s5.36-7.11,11.89.03c-6.58,7.07-11.89-.03-11.89-.03Z"/>
      <path class="cls-6" d="m3819.57,727.73s8.14-3.61,10.37,5.82c-9.19,2.97-10.37-5.82-10.37-5.82Z"/>
      <path class="cls-6" d="m3884.94,661.3s-1.56-8.77,8.12-8.69c.7,9.63-8.12,8.69-8.12,8.69Z"/>
      <path class="cls-6" d="m3877.1,670.53s6.45-12.24,18.24-2.9c-8.34,12.47-18.24,2.9-18.24,2.9Z"/>
      <path class="cls-8" d="m3887.36,763.42s8.32,3.18,3.26,11.44c-8.61-4.36-3.26-11.44-3.26-11.44Z"/>
      <path class="cls-8" d="m3894.22,765.6s10.96-3.4,12.41,8.99c-12.2,2.44-12.41-8.99-12.41-8.99Z"/>
      <path class="cls-8" d="m3799.62,713.11s-5.65-6.88,2.84-11.55c5.32,8.06-2.84,11.55-2.84,11.55Z"/>
      <path class="cls-8" d="m3782.59,698.42s8.16-10.34,17.59.45c-9.97,10.23-17.59-.45-17.59-.45Z"/>
      <ellipse class="cls-3" cx="3854.35" cy="669.08" rx="2.25" ry="7.76"/>
      <path class="cls-3" d="m3862.25,781.38c0,14.66-1.26,26.54-2.82,26.54s-2.82-11.88-2.82-26.54,1.26-26.54,2.82-26.54,2.82,11.88,2.82,26.54Z"/>
      <ellipse class="cls-3" cx="3854.35" cy="733.72" rx="2.25" ry="7.76"/>
      <ellipse class="cls-3" cx="3860" cy="698.63" rx="3.4" ry="17.92"/>
      <path class="cls-10" d="m3896.86,634.42c-36.39-30.77-69.05-8.1-81.84,3.58,5.61-17.62,22.1-30.37,41.57-30.37,12.04,0,22.96,4.88,30.85,12.77,3.98,3.98,7.2,8.73,9.41,14.01Z"/>
      <path class="cls-6" d="m3882.17,845.61h-90.78s.8-23.2,23.64-17.28c6.16-21.01,28.19-8.45,21.75,8.15,15.09-11.39,41.25-2.66,45.4,9.13Z"/>
      <path class="cls-8" d="m3833.46,844.15h-33.49c3.28-4.81,8.95-9.88,18.24-7.69,4.13-7.52,16.74-3.1,15.25,7.69Z"/>
    </g>
  </g>
  <g>
    <path class="cls-1" d="m3627.9,859.37h-75.17s-3.33-30.21,22.56-26.87c-.74-24.76,29.58-18.87,25.15,0,19.23-18.48,28.51,5.22,28.51,5.22,0,0,15.41-29.29,39.67-5.6,18.71-21.42,37.94,7.51,20.56,27.25h-61.28Z"/>
    <g>
      <polyline class="cls-9" points="3731.84 681.47 3724.08 690.76 3698.02 683.04 3694.33 693.82 3726.13 697.25 3735.5 684.87"/>
      <path class="cls-9" d="m3688.5,664.74c.44-.59,36.75-25.62,36.75-25.62l2.11,6.48-29.93,33.93"/>
      <polyline class="cls-9" points="3533.57 633.56 3536.89 659.86 3562.45 681.47 3569.59 668.47 3542.44 656.59 3539.09 633.56"/>
      <path class="cls-9" d="m3641.89,785.33c.59-1.11,33.19-40.38,33.19-40.38l-10.37-2.96-22.82,29.82"/>
      <polyline class="cls-9" points="3620.24 780.81 3590.61 743.39 3585.05 746.18 3620.24 791.01"/>
      <rect class="cls-9" x="3612.67" y="747.95" width="30.45" height="111.05"/>
      <path class="cls-7" d="m3687.7,609.42c0,23.88-14.17,44.44-34.55,53.74-7.46,3.42-15.76,5.31-24.51,5.31-32.6,0-59.05-26.43-59.05-59.05s26.44-59.06,59.05-59.06c22.36,0,41.82,12.43,51.84,30.76,4.6,8.39,7.22,18.04,7.22,28.3Z"/>
      <path class="cls-1" d="m3687.7,609.42c0,23.88-14.17,44.44-34.55,53.74-15.26-6.72-25.92-21.99-25.92-39.74,0-23.97,19.44-43.41,43.41-43.41,3.39,0,6.68.39,9.85,1.12,4.6,8.39,7.22,18.04,7.22,28.3Z"/>
      <path class="cls-7" d="m3707.43,684.86c0,9.11-1.55,17.86-4.39,26-5.35,15.29-15.28,28.43-28.14,37.77-1.95,1.43-3.98,2.76-6.06,3.99-11.77,7.02-25.52,11.03-40.21,11.03-8.98,0-17.61-1.51-25.65-4.27-7.19-2.48-13.91-5.96-20-10.3-20.05-14.27-33.14-37.73-33.14-64.22,0-1.83.07-3.64.19-5.43,2.79-40.97,36.93-73.36,78.6-73.36s78.79,35.29,78.79,78.79Z"/>
      <circle class="cls-7" cx="3535.34" cy="621.31" r="18.94" transform="translate(2156.11 3935.27) rotate(-77.37)"/>
      <circle class="cls-7" cx="3732.69" cy="631.33" r="25.26" transform="translate(646.86 2824.32) rotate(-45)"/>
      <path class="cls-1" d="m3591.12,859h80.45s-4.08-7.05-13.34-3.53c.37-15.56-19.64-16.67-21.12-4.45-7.04-10.74-7.53,3.33-7.53,3.33,0,0-12.1-11.48-21.74-1.85-7.78-7.04-17.39-3.1-16.72,6.49Z"/>
      <path class="cls-3" d="m3623.39,835.93c0,1.89-1.53,3.43-3.43,3.43s-3.43-1.53-3.43-3.43,1.53-3.43,3.43-3.43,3.43,1.53,3.43,3.43Z"/>
      <path class="cls-3" d="m3640.77,811.81c0,4.5-3.65,8.15-8.15,8.15s-8.15-3.65-8.15-8.15,3.65-8.15,8.15-8.15,8.15,3.65,8.15,8.15Z"/>
      <circle class="cls-3" cx="3622.22" cy="788.45" r="2.25"/>
      <path class="cls-3" d="m3637.01,772.16c0,1.97-1.6,3.57-3.57,3.57s-3.57-1.6-3.57-3.57,1.6-3.57,3.57-3.57,3.57,1.6,3.57,3.57Z"/>
      <path class="cls-3" d="m3637.01,828.73c0,.98-.8,1.78-1.78,1.78s-1.78-.8-1.78-1.78.8-1.78,1.78-1.78,1.78.8,1.78,1.78Z"/>
      <path class="cls-3" d="m3622.22,799.78c0,1.57-1.27,2.84-2.84,2.84s-2.84-1.27-2.84-2.84,1.27-2.84,2.84-2.84,2.84,1.27,2.84,2.84Z"/>
      <path class="cls-1" d="m3532.07,643.66s-4.44-4.55-9.43,0c5.77,4.66,9.43,0,9.43,0Z"/>
      <path class="cls-1" d="m3533.47,635.36s-1.08-6.26-7.77-5.34c2.11,7.11,7.77,5.34,7.77,5.34Z"/>
      <path class="cls-1" d="m3535.56,635.55s5.61-2.97,2.66-9.04c-6.1,4.22-2.66,9.04-2.66,9.04Z"/>
      <path class="cls-1" d="m3718.7,642.24s5.61-2.97,2.66-9.04c-6.1,4.22-2.66,9.04-2.66,9.04Z"/>
      <path class="cls-1" d="m3724.43,683.78s2.19-5.96-4.06-8.51c-1.72,7.21,4.06,8.51,4.06,8.51Z"/>
      <path class="cls-1" d="m3741.79,690.63s3.3,5.43,9.18,2.12c-4.57-5.84-9.18-2.12-9.18-2.12Z"/>
      <path class="cls-1" d="m3644.91,709.56s1.71,6.12,8.27,4.53c-2.82-6.85-8.27-4.53-8.27-4.53Z"/>
      <path class="cls-1" d="m3727.54,650.6s11.69,6.58,19.09-5.6c-14.45-6.01-19.09,5.6-19.09,5.6Z"/>
      <path class="cls-1" d="m3629.78,596.76s12.69-4.33,8.55-17.97c-14.11,6.77-8.55,17.97-8.55,17.97Z"/>
      <path class="cls-1" d="m3723.86,642.41s8.99,2.96,12.46-6.48c-10.83-2.19-12.46,6.48-12.46,6.48Z"/>
      <path class="cls-1" d="m3707.35,647.85s1.42-9.36-8.47-11.21c-.36,11.04,8.47,11.21,8.47,11.21Z"/>
      <path class="cls-1" d="m3624.63,602.36s1.42-9.36-8.47-11.21c-.36,11.04,8.47,11.21,8.47,11.21Z"/>
      <path class="cls-1" d="m3742.27,702.85s1.42-9.36-8.47-11.21c-.36,11.04,8.47,11.21,8.47,11.21Z"/>
      <path class="cls-1" d="m3531.91,629.11s9.64-5.17,4.5-15.6c-10.46,7.32-4.5,15.6-4.5,15.6Z"/>
      <path class="cls-1" d="m3658.7,716.91s9.64-5.17,4.5-15.6c-10.46,7.32-4.5,15.6-4.5,15.6Z"/>
      <path class="cls-7" d="m3746.38,679.53c0,5.13-4.16,9.29-9.29,9.29s-9.28-4.16-9.28-9.29,4.16-9.29,9.28-9.29,9.29,4.16,9.29,9.29Z"/>
      <path class="cls-1" d="m3624.7,719.26c0,16.8-8.64,31.58-21.72,40.13-7.19-2.48-13.91-5.96-20-10.3-20.05-14.27-33.14-37.73-33.14-64.22,0-1.83.07-3.64.19-5.43,7.63-5.14,16.81-8.12,26.71-8.12,24.48,0,44.68,18.34,47.6,42.02.24,1.95.36,3.92.36,5.92Z"/>
      <path class="cls-1" d="m3674.9,748.63c-1.95,1.43-3.98,2.76-6.06,3.99-11.77,7.02-25.52,11.03-40.21,11.03-8.98,0-17.61-1.51-25.65-4.27-7.19-2.48-13.91-5.96-20-10.3,4.75-19.2,21.2-33.78,41.36-35.75,1.53-.15,3.1-.23,4.67-.23,12.73,0,24.28,5.02,32.79,13.18,6.26,6,10.87,13.69,13.1,22.35Z"/>
      <path class="cls-1" d="m3703.04,710.86c-5.35,15.29-15.28,28.43-28.14,37.77-1.95,1.43-3.98,2.76-6.06,3.99-4.94-4.91-7.99-11.71-7.99-19.22,0-2.45.33-4.84.95-7.11,3.12-11.53,13.65-20,26.16-20,5.58,0,10.77,1.69,15.08,4.58Z"/>
    </g>
    <circle class="cls-2" cx="3581.84" cy="706.22" r="17.4" transform="translate(2.39 1424.47) rotate(-22.5)"/>
    <path class="cls-2" d="m3606.19,738.86c0,4.06-3.29,7.34-7.34,7.34s-7.34-3.29-7.34-7.34,3.29-7.34,7.34-7.34,7.34,3.29,7.34,7.34Z"/>
  </g>
</svg>