<?xml version="1.0" encoding="UTF-8"?>
<svg id="forest_mid" data-name="forest mid" xmlns="http://www.w3.org/2000/svg" viewBox="0 0 4023 1080">
  <defs>
    <style>
      .cls-1 {
        fill: #25a977;
      }

      .cls-2 {
        fill: #1b8d67;
      }

      .cls-3 {
        fill: #6c2950;
      }

      .cls-4 {
        fill: #258265;
      }

      .cls-5 {
        fill: #ffdd3a;
      }

      .cls-6 {
        fill: #f17a40;
      }

      .cls-7 {
        fill: #36cd88;
      }

      .cls-8 {
        fill: #f99d46;
      }

      .cls-9 {
        fill: #853866;
      }

      .cls-10 {
        fill: #fabb50;
      }

      .cls-11 {
        fill: #582949;
      }
    </style>
  </defs>
  <g>
    <path class="cls-10" d="m3329.33,936.12h-173.83s8.33-30.82,25.91-20.63c2.78-36.7,33.26-41.39,43-16.07,15.3-28.14,97.37-22.56,104.92,22.02"/>
    <g>
      <path class="cls-9" d="m3365.8,677.52l-30.7,46.95v16.53s37.52-58.96,37.52-58.96c.67-1.05.83-2.36.44-3.55h0c-1.07-3.27-5.39-3.85-7.26-.98Z"/>
      <path class="cls-8" d="m3207.99,621.78v123.76c0,39.28,31.39,71.09,70.15,71.09,38.74,0,70.15-31.82,70.15-71.09v-123.76c0-7.54-1.15-14.8-3.3-21.61-9.02-28.71-35.53-49.49-66.85-49.49-19.37,0-36.92,7.95-49.61,20.82-6.4,6.49-11.58,14.23-15.13,22.83-3.48,8.45-5.41,17.71-5.41,27.44Z"/>
      <path class="cls-9" d="m3260.88,620.29h31.52v310.16c0,3.13-2.54,5.67-5.67,5.67h-20.18c-3.13,0-5.67-2.54-5.67-5.67v-310.16h0Z" transform="translate(6553.28 1556.41) rotate(-180)"/>
      <path class="cls-9" d="m3312.33,673.39l-30.7,46.95v16.53s37.52-58.96,37.52-58.96c.67-1.05.83-2.36.44-3.55h0c-1.07-3.27-5.39-3.85-7.26-.98Z"/>
      <path class="cls-9" d="m3303.46,738.71l-39.2,59.94,4.26,28.21,49.82-78.29c1.46-2.3,1.82-5.14.96-7.73h0c-2.34-7.12-11.75-8.39-15.85-2.13Z"/>
      <path class="cls-9" d="m3244.49,629.85l30.7,46.95v16.53s-37.52-58.96-37.52-58.96c-.67-1.05-.83-2.36-.44-3.55h0c1.07-3.27,5.39-3.85,7.26-.98Z"/>
      <path class="cls-9" d="m3233.56,788.3l30.7,46.95v16.53s-37.52-58.96-37.52-58.96c-.67-1.05-.83-2.36-.44-3.55h0c1.07-3.27,5.39-3.85,7.26-.98Z"/>
      <ellipse class="cls-10" cx="3363.46" cy="660.67" rx="32.23" ry="32.67"/>
      <ellipse class="cls-10" cx="3209.93" cy="762.19" rx="40.9" ry="41.45"/>
      <ellipse class="cls-5" cx="3222.95" cy="744.9" rx="9.87" ry="10.01"/>
      <ellipse class="cls-5" cx="3191.79" cy="756.16" rx="14.55" ry="14.75"/>
      <path class="cls-5" d="m3379.8,657.42c0,1.79,1.43,3.25,3.2,3.25s3.2-1.45,3.2-3.25-1.43-3.25-3.2-3.25-3.2,1.45-3.2,3.25Z"/>
      <ellipse class="cls-5" cx="3372.71" cy="642.56" rx="4.33" ry="4.39"/>
      <ellipse class="cls-5" cx="3349.92" cy="653.02" rx="10.31" ry="10.45"/>
      <path class="cls-8" d="m3201.34,716.97s4-13.94-11.5-15.48c-2.76,15.48,11.5,15.48,11.5,15.48Z"/>
      <path class="cls-6" d="m3329.33,766.39s-8.62-11.59-19.12.05c10.58,11.52,19.12-.05,19.12-.05Z"/>
      <path class="cls-6" d="m3337.68,746.4s-13.09-5.88-16.68,9.48c14.77,4.84,16.68-9.48,16.68-9.48Z"/>
      <path class="cls-6" d="m3232.57,638.14s2.51-14.29-13.06-14.16c-1.12,15.69,13.06,14.16,13.06,14.16Z"/>
      <path class="cls-6" d="m3245.18,653.19s-10.38-19.94-29.34-4.72c13.4,20.32,29.34,4.72,29.34,4.72Z"/>
      <path class="cls-8" d="m3228.68,804.56s-13.38,5.18-5.24,18.64c13.85-7.11,5.24-18.64,5.24-18.64Z"/>
      <path class="cls-8" d="m3217.64,808.11s-17.63-5.55-19.96,14.65c19.62,3.97,19.96-14.65,19.96-14.65Z"/>
      <path class="cls-8" d="m3369.76,722.57s9.08-11.22-4.56-18.82c-8.55,13.13,4.56,18.82,4.56,18.82Z"/>
      <path class="cls-8" d="m3397.14,698.63s-13.12-16.85-28.28.73c16.02,16.67,28.28-.73,28.28-.73Z"/>
      <ellipse class="cls-3" cx="3281.75" cy="650.82" rx="3.62" ry="12.65"/>
      <path class="cls-3" d="m3269.05,833.83c0,23.88,2.03,43.24,4.54,43.24s4.54-19.36,4.54-43.24c0-23.88-2.03-43.24-4.54-43.24s-4.54,19.36-4.54,43.24Z"/>
      <ellipse class="cls-3" cx="3281.75" cy="756.16" rx="3.62" ry="12.65"/>
      <ellipse class="cls-3" cx="3272.67" cy="698.97" rx="5.47" ry="29.2"/>
      <path class="cls-10" d="m3213.39,594.33c58.51-50.14,111.03-13.2,131.59,5.84-9.02-28.71-35.53-49.49-66.85-49.49-19.37,0-36.92,7.95-49.61,20.82-6.4,6.49-11.58,14.23-15.13,22.83Z"/>
      <path class="cls-6" d="m3237.02,938.5h145.98s-1.29-37.81-38.01-28.16c-9.9-34.23-45.33-13.77-34.97,13.28-24.27-18.56-66.32-4.33-73,14.88Z"/>
      <path class="cls-8" d="m3315.35,936.12h53.85c-5.27-7.84-14.39-16.11-29.32-12.52-6.64-12.25-26.92-5.05-24.52,12.52Z"/>
    </g>
  </g>
  <g>
    <path class="cls-4" d="m3159.77,800.73s-20.67,42.78-63.93,32.2c-10.06,28.36-29.03,16.82-29.03,16.82,0,0-13.75,21.71-32.25-2.12-6.64,32.88-42.21.68-50.75-7.97-17.07,26.92-56.44,19.23-52.17-5.29-29.4,14.42-47.43-6.73-48.85-22.11,37.47,2.88,124.7-24.62,124.7-24.62"/>
    <path class="cls-4" d="m3081.58,620.64s-6.11,14.81-22.5,17.84c7.5,9.08-11.41,26.23-24.68,19.84-4.98,16.48-24.05,6.46-24.05,6.46,0,0-26.9,10.69-35.94-6.46-16.33,11.77-56.81-3.03-46.86-31.27,20.24,10.76,95.27-16.81,95.27-16.81l58.76,10.41Z"/>
    <path class="cls-4" d="m3061.94,531.87s-4.14,15.47-21.15,7.73c-.75,23.54-28.06,22.84-29.84,9.91-10.07,12.29-17.72,1.19-17.72,1.19,0,0-29.84,5.04-29.18-18.83.66-23.88,91.58-15.13,97.88,0Z"/>
    <polygon class="cls-3" points="2993.23 931.68 3027.47 931.68 3011.32 470.14 3009.38 470.14 2993.23 931.68"/>
    <path class="cls-1" d="m3010.35,453.63s2.63,18.58,14.26,23.13c-10.74-.9-13.2-3.87-13.2-3.87,0,0-5.15,7.71-15.44,3.87,9.85-2.72,14.38-23.13,14.38-23.13Z"/>
    <path class="cls-1" d="m3049.37,934.26h-83.28s-5.73-37.14,0-41.36c5.73-4.22,4.68,34.82,4.68,34.82,0,0,7.81-18.04,10.41-14.3,2.6,3.75.52,14.3.52,14.3,0,0,18.22-17.94,21.86-10.02,3.64,7.91,2.89,11.61,2.89,11.61,0,0,11.16-22.68,22.09-20.05,10.93,2.64,11.45,17.41,11.45,17.41,0,0,4.68-23.74,9.37-23.21,4.68.53,0,30.81,0,30.81Z"/>
    <path class="cls-4" d="m3010.35,728.52s6.75,34.67,44.22,43.11c-31.87,23.8-44.22,4.75-44.22,4.75,0,0-20.73,24.27-46.81,1.58,21.28-4.22,39.51-19.87,46.81-49.44Z"/>
    <path class="cls-4" d="m3010.35,567.49s13.68,41.25,48.73,45.42c-18.56,9.97-24.37,3.64-24.37,3.64,0,0-14.59,23.74-38.75,4.75-11.67,11.08-21.56.53-21.56.53,0,0,25.03-9.5,35.94-54.33Z"/>
    <path class="cls-4" d="m3010.35,490.97s9.72,26.23,30.44,23.82c-9.69,14-22.05,6.14-22.05,6.14,0,0-10.9,8.35-15.51-.25-1.94,7.86-8.85,4.42-10-1.72-5.27,3.19-10.35,2.7-12.78-2.95,25.8-1.23,29.9-25.05,29.9-25.05Z"/>
    <polyline class="cls-3" points="3004.54 674.12 2996.57 664.77 2994.58 664.77 3001.89 684.17"/>
    <polyline class="cls-3" points="3010.62 547.59 3016.75 544.65 3018.47 549.02 3012.83 553.73"/>
    <polyline class="cls-3" points="3017.81 808.29 3027.47 798.54 3029.75 805.26 3020.79 821.07"/>
    <polyline class="cls-3" points="3002.55 865.12 2991.26 852 2987.61 856.37 2996.57 881.59"/>
    <path class="cls-11" d="m3010.18,853.35c0,3.16,2.53,5.72,5.64,5.72,3.12,0,5.64-2.56,5.64-5.72,0-3.16-2.53-5.72-5.64-5.72s-5.64,2.56-5.64,5.72Z"/>
    <path class="cls-11" d="m3000.53,895.21c0,1.95,1.56,3.53,3.48,3.53,1.92,0,3.48-1.58,3.48-3.53,0-1.95-1.56-3.53-3.48-3.53s-3.48,1.58-3.48,3.53Z"/>
    <path class="cls-11" d="m3002.55,875.36c0,1.39,1.11,2.51,2.48,2.51s2.47-1.12,2.47-2.51c0-1.39-1.11-2.51-2.47-2.51s-2.48,1.12-2.48,2.51Z"/>
    <ellipse class="cls-11" cx="3006.7" cy="794.84" rx="3.65" ry="3.7"/>
    <path class="cls-11" d="m3011.32,685.1c0,.52.41.93.92.93s.92-.42.92-.93c0-.52-.41-.93-.92-.93s-.92.42-.92.93Z"/>
    <path class="cls-11" d="m3003.55,658.27c0,1.76,1.41,3.19,3.15,3.19s3.15-1.43,3.15-3.19-1.41-3.19-3.15-3.19-3.15,1.43-3.15,3.19Z"/>
    <path class="cls-11" d="m3008.85,644.69c0,1.21.97,2.19,2.16,2.19,1.19,0,2.16-.98,2.16-2.19s-.97-2.19-2.16-2.19-2.16.98-2.16,2.19Z"/>
    <path class="cls-11" d="m3009.06,559.09c0,.55.44.99.97.99s.97-.44.97-.99c0-.55-.44-.99-.97-.99s-.97.44-.97.99Z"/>
    <path class="cls-1" d="m3010.35,664.77s37.31,131.99,164.87,129.95c-61.76,45.58-89.29,24.49-89.29,24.49,0,0-2.69,21.77-18.8,24.49-16.11,2.72-24.84-14.29-24.84-14.29,0,0-29.54,31.98-59.08,0-21.48,23.81-39.61,12.25-42.96-5.44-44.31,18.37-69.82-18.37-69.82-18.37,0,0,119.39-8.16,139.92-140.83Z"/>
    <path class="cls-1" d="m3010.19,546.25s22.06,73.44,85.66,63.21c-20.79,22-46.17,17.97-46.17,17.97,0,0,3.06,14.87-8.87,19.21-11.92,4.34-19.87-4.96-19.87-4.96,0,0-27.52,26.65-48-4.34-21.1,24.79-51.67,1.24-56.26-21.69,29.66,10.85,64.15-11.78,76.87-29.75,12.72-17.97,16.65-39.66,16.65-39.66Z"/>
    <path class="cls-1" d="m3010.35,476.98s36.37,45.93,80.14,36.57c-28.51,41.1-50.99,16.28-50.99,16.28,0,0-12.12,24.41-29.15,4.07-17.03,21.97-29.47-.81-29.47-.81,0,0-28.91,21.97-50.99-13.43,41.76,6.1,80.46-42.68,80.46-42.68Z"/>
    <path class="cls-4" d="m3012.52,666.37s27.22,34.25,53.8,35.22c-14.41,4.87-26.9-4.9-26.9-4.9,0,0,6.4,9.77,0,10.42-6.4.65-16.01-4.87-16.01-4.87,0,0-23.38,18.5-36.83-1.95-15.05,8.44-26.58-5.19-26.58-5.19,0,0,32.66,11.99,52.52-28.73Z"/>
  </g>
  <g>
    <path class="cls-4" d="m291.03,810.05s-19.88,41.15-61.49,30.98c-9.68,27.28-27.92,16.18-27.92,16.18,0,0-13.23,20.88-31.02-2.04-6.39,31.63-40.6.65-48.81-7.67-16.42,25.89-54.29,18.49-50.18-5.09-28.28,13.87-45.62-6.47-46.99-21.27,36.04,2.77,119.95-23.68,119.95-23.68"/>
    <path class="cls-4" d="m215.83,636.83s-5.88,14.24-21.64,17.15c7.22,8.73-10.98,25.23-23.74,19.08-4.79,15.85-23.13,6.21-23.13,6.21,0,0-25.88,10.28-34.57-6.21-15.71,11.32-54.64-2.91-45.07-30.08,19.47,10.35,91.63-16.17,91.63-16.17l56.52,10.01Z"/>
    <path class="cls-4" d="m196.93,551.46s-3.99,14.88-20.34,7.44c-.72,22.64-26.99,21.97-28.7,9.53-9.68,11.82-17.05,1.14-17.05,1.14,0,0-28.7,4.85-28.06-18.11.64-22.96,88.09-14.56,94.15,0Z"/>
    <polygon class="cls-3" points="130.84 936.01 163.77 936.01 148.24 492.07 146.38 492.07 130.84 936.01"/>
    <path class="cls-1" d="m147.31,476.2s2.53,17.88,13.72,22.24c-10.33-.87-12.7-3.72-12.7-3.72,0,0-4.95,7.42-14.85,3.72,9.47-2.61,13.83-22.24,13.83-22.24Z"/>
    <path class="cls-1" d="m184.84,938.5h-80.1s-5.51-35.72,0-39.78c5.51-4.06,4.51,33.49,4.51,33.49,0,0,7.51-17.36,10.01-13.75,2.5,3.6.5,13.75.5,13.75,0,0,17.52-17.25,21.03-9.64,3.5,7.61,2.78,11.16,2.78,11.16,0,0,10.74-21.82,21.25-19.28,10.51,2.54,11.01,16.74,11.01,16.74,0,0,4.51-22.83,9.01-22.33,4.51.51,0,29.63,0,29.63Z"/>
    <path class="cls-4" d="m147.31,740.61s6.49,33.34,42.54,41.46c-30.66,22.89-42.54,4.57-42.54,4.57,0,0-19.93,23.34-45.02,1.52,20.47-4.06,38-19.12,45.02-47.55Z"/>
    <path class="cls-4" d="m147.31,585.71s13.16,39.68,46.87,43.68c-17.86,9.59-23.44,3.5-23.44,3.5,0,0-14.03,22.83-37.27,4.57-11.22,10.66-20.73.51-20.73.51,0,0,24.07-9.13,34.57-52.26Z"/>
    <path class="cls-4" d="m147.31,512.11s9.35,25.23,29.28,22.91c-9.32,13.46-21.21,5.9-21.21,5.9,0,0-10.49,8.03-14.92-.24-1.86,7.56-8.52,4.25-9.62-1.65-5.06,3.07-9.96,2.6-12.29-2.83,24.82-1.18,28.76-24.09,28.76-24.09Z"/>
    <polyline class="cls-3" points="141.72 688.27 134.06 679.28 132.14 679.28 139.17 697.94"/>
    <polyline class="cls-3" points="147.57 566.57 153.46 563.75 155.12 567.95 149.69 572.48"/>
    <polyline class="cls-3" points="154.48 817.33 163.77 807.95 165.97 814.41 157.35 829.62"/>
    <polyline class="cls-3" points="139.8 871.99 128.95 859.37 125.44 863.58 134.06 887.84"/>
    <path class="cls-11" d="m147.14,860.67c0,3.04,2.43,5.5,5.43,5.5,3,0,5.43-2.46,5.43-5.5s-2.43-5.5-5.43-5.5c-3,0-5.43,2.46-5.43,5.5Z"/>
    <path class="cls-11" d="m137.86,900.94c0,1.88,1.5,3.4,3.35,3.4s3.35-1.52,3.35-3.4-1.5-3.4-3.35-3.4-3.35,1.52-3.35,3.4Z"/>
    <path class="cls-11" d="m139.8,881.84c0,1.33,1.07,2.41,2.38,2.41s2.38-1.08,2.38-2.41c0-1.33-1.07-2.41-2.38-2.41s-2.38,1.08-2.38,2.41Z"/>
    <ellipse class="cls-11" cx="143.8" cy="804.39" rx="3.51" ry="3.56"/>
    <path class="cls-11" d="m148.24,698.84c0,.5.4.9.89.9s.89-.4.89-.9c0-.5-.4-.9-.89-.9s-.89.4-.89.9Z"/>
    <path class="cls-11" d="m140.77,673.03c0,1.7,1.36,3.07,3.03,3.07,1.67,0,3.03-1.38,3.03-3.07s-1.36-3.07-3.03-3.07-3.03,1.38-3.03,3.07Z"/>
    <path class="cls-11" d="m145.87,659.97c0,1.16.93,2.1,2.07,2.1s2.07-.94,2.07-2.1-.93-2.1-2.07-2.1-2.07.94-2.07,2.1Z"/>
    <path class="cls-11" d="m146.06,577.63c0,.52.42.95.94.95s.94-.43.94-.95-.42-.95-.94-.95-.94.43-.94.95Z"/>
    <path class="cls-1" d="m147.31,679.28s35.89,126.96,158.58,124.99c-59.41,43.85-85.88,23.56-85.88,23.56,0,0-2.58,20.94-18.08,23.56-15.5,2.62-23.89-13.74-23.89-13.74,0,0-28.41,30.76-56.82,0-20.66,22.9-38.1,11.78-41.33-5.24-42.62,17.67-67.16-17.67-67.16-17.67,0,0,114.83-7.85,134.58-135.46Z"/>
    <path class="cls-1" d="m147.15,565.29s21.22,70.64,82.39,60.8c-20,21.16-44.41,17.29-44.41,17.29,0,0,2.94,14.31-8.53,18.48-11.47,4.17-19.12-4.77-19.12-4.77,0,0-26.47,25.63-46.17-4.17-20.29,23.84-49.7,1.19-54.11-20.86,28.53,10.43,61.71-11.33,73.94-28.61,12.23-17.29,16.01-38.15,16.01-38.15Z"/>
    <path class="cls-1" d="m147.31,498.66s34.98,44.18,77.08,35.18c-27.42,39.53-49.05,15.66-49.05,15.66,0,0-11.66,23.48-28.03,3.91-16.38,21.13-28.35-.78-28.35-.78,0,0-27.81,21.13-49.05-12.92,40.16,5.87,77.4-41.05,77.4-41.05Z"/>
    <path class="cls-4" d="m149.4,680.82s26.18,32.94,51.75,33.88c-13.86,4.68-25.87-4.71-25.87-4.71,0,0,6.16,9.4,0,10.02-6.16.62-15.4-4.68-15.4-4.68,0,0-22.49,17.79-35.42-1.87-14.48,8.12-25.57-4.99-25.57-4.99,0,0,31.42,11.53,50.51-27.64Z"/>
  </g>
  <g>
    <path class="cls-10" d="m776.62,936.7h-180.91s8.67-32.07,26.97-21.47c2.89-38.2,34.61-43.08,44.75-16.73,15.92-29.28,101.33-23.47,109.19,22.91"/>
    <g>
      <path class="cls-9" d="m814.58,667.58l-31.95,48.86v17.21s39.05-61.36,39.05-61.36c.7-1.1.87-2.45.46-3.69h0c-1.12-3.4-5.61-4-7.56-1.02Z"/>
      <path class="cls-8" d="m650.34,609.57v128.8c0,40.87,32.67,73.99,73,73.99,40.31,0,73-33.11,73-73.99v-128.8c0-7.85-1.2-15.4-3.43-22.49-9.39-29.88-36.98-51.5-69.57-51.5-20.16,0-38.42,8.28-51.63,21.66-6.66,6.75-12.05,14.81-15.75,23.76-3.62,8.79-5.63,18.43-5.63,28.56Z"/>
      <path class="cls-9" d="m705.39,608.02h32.8v322.62c0,3.35-2.72,6.06-6.06,6.06h-20.68c-3.35,0-6.06-2.72-6.06-6.06v-322.62h0Z" transform="translate(1443.57 1544.72) rotate(-180)"/>
      <path class="cls-9" d="m758.93,663.29l-31.95,48.86v17.21s39.05-61.36,39.05-61.36c.7-1.1.87-2.45.46-3.69h0c-1.12-3.4-5.61-4-7.56-1.02Z"/>
      <path class="cls-9" d="m749.7,731.25l-40.79,62.38,4.43,29.35,51.85-81.47c1.52-2.39,1.89-5.35,1-8.05h0c-2.44-7.41-12.23-8.73-16.49-2.21Z"/>
      <path class="cls-9" d="m688.33,617.97l31.95,48.86v17.21s-39.05-61.36-39.05-61.36c-.7-1.1-.87-2.45-.46-3.69h0c1.12-3.4,5.61-4,7.56-1.02Z"/>
      <path class="cls-9" d="m676.96,782.87l31.95,48.86v17.21s-39.05-61.36-39.05-61.36c-.7-1.1-.87-2.45-.46-3.69h0c1.12-3.4,5.61-4,7.56-1.02Z"/>
      <ellipse class="cls-10" cx="812.14" cy="650.04" rx="33.54" ry="33.99"/>
      <ellipse class="cls-10" cx="652.37" cy="755.7" rx="42.57" ry="43.14"/>
      <ellipse class="cls-5" cx="665.92" cy="737.7" rx="10.27" ry="10.41"/>
      <ellipse class="cls-5" cx="633.49" cy="749.42" rx="15.15" ry="15.35"/>
      <path class="cls-5" d="m829.14,646.67c0,1.87,1.49,3.38,3.33,3.38,1.84,0,3.33-1.51,3.33-3.38s-1.49-3.38-3.33-3.38-3.33,1.51-3.33,3.38Z"/>
      <ellipse class="cls-5" cx="821.77" cy="631.2" rx="4.5" ry="4.57"/>
      <ellipse class="cls-5" cx="798.05" cy="642.08" rx="10.73" ry="10.88"/>
      <path class="cls-8" d="m643.42,708.64s4.16-14.5-11.97-16.11c-2.87,16.11,11.97,16.11,11.97,16.11Z"/>
      <path class="cls-6" d="m776.62,760.07s-8.97-12.06-19.9.05c11.01,11.99,19.9-.05,19.9-.05Z"/>
      <path class="cls-6" d="m785.31,739.27s-13.63-6.11-17.36,9.86c15.37,5.04,17.36-9.86,17.36-9.86Z"/>
      <path class="cls-6" d="m675.93,626.59s2.61-14.87-13.59-14.73c-1.17,16.33,13.59,14.73,13.59,14.73Z"/>
      <path class="cls-6" d="m689.05,642.25s-10.8-20.75-30.53-4.91c13.95,21.15,30.53,4.91,30.53,4.91Z"/>
      <path class="cls-8" d="m671.87,799.79s-13.92,5.39-5.46,19.39c14.41-7.4,5.46-19.39,5.46-19.39Z"/>
      <path class="cls-8" d="m660.39,803.48s-18.34-5.77-20.77,15.25c20.42,4.13,20.77-15.25,20.77-15.25Z"/>
      <path class="cls-8" d="m818.69,714.46s9.45-11.68-4.75-19.58c-8.9,13.67,4.75,19.58,4.75,19.58Z"/>
      <path class="cls-8" d="m847.19,689.55s-13.66-17.54-29.43.76c16.68,17.35,29.43-.76,29.43-.76Z"/>
      <ellipse class="cls-3" cx="727.11" cy="639.8" rx="3.77" ry="13.16"/>
      <path class="cls-3" d="m713.89,830.25c0,24.85,2.12,45,4.73,45,2.61,0,4.73-20.15,4.73-45,0-24.85-2.12-45-4.73-45s-4.73,20.15-4.73,45Z"/>
      <ellipse class="cls-3" cx="727.11" cy="749.42" rx="3.77" ry="13.16"/>
      <ellipse class="cls-3" cx="717.65" cy="689.91" rx="5.69" ry="30.39"/>
      <path class="cls-10" d="m655.97,581.01c60.89-52.18,115.55-13.73,136.94,6.07-9.39-29.88-36.98-51.5-69.57-51.5-20.16,0-38.42,8.28-51.63,21.66-6.66,6.75-12.05,14.81-15.75,23.76Z"/>
      <path class="cls-6" d="m680.55,939.18h151.92s-1.34-39.35-39.56-29.3c-10.3-35.62-47.18-14.33-36.39,13.82-25.26-19.31-69.02-4.51-75.97,15.48Z"/>
      <path class="cls-8" d="m762.07,936.7h56.04c-5.49-8.15-14.97-16.76-30.52-13.03-6.91-12.75-28.02-5.25-25.52,13.03Z"/>
    </g>
  </g>
  <g>
    <path class="cls-10" d="m2791.75,939.13h-189.49s9.08-33.6,28.24-22.49c3.03-40.01,36.25-45.12,46.88-17.52,16.67-30.67,106.14-24.59,114.36,24"/>
    <g>
      <path class="cls-9" d="m2831.51,657.25l-33.47,51.17v18.02s40.9-64.27,40.9-64.27c.73-1.15.91-2.57.48-3.86h0c-1.17-3.56-5.87-4.19-7.92-1.06Z"/>
      <path class="cls-8" d="m2659.48,596.48v134.91c0,42.81,34.22,77.49,76.47,77.49,42.22,0,76.47-34.68,76.47-77.49v-134.91c0-8.22-1.26-16.13-3.6-23.55-9.83-31.3-38.73-53.94-72.87-53.94-21.11,0-40.24,8.67-54.08,22.69-6.98,7.07-12.62,15.51-16.49,24.89-3.79,9.21-5.9,19.3-5.9,29.91Z"/>
      <path class="cls-9" d="m2717.13,594.86h34.36v340.15c0,2.27-1.84,4.12-4.12,4.12h-26.13c-2.27,0-4.12-1.84-4.12-4.12v-340.15h0Z" transform="translate(5468.63 1533.99) rotate(-180)"/>
      <path class="cls-9" d="m2773.22,652.75l-33.47,51.17v18.02s40.9-64.27,40.9-64.27c.73-1.15.91-2.57.48-3.86h0c-1.17-3.56-5.87-4.19-7.92-1.06Z"/>
      <path class="cls-9" d="m2763.55,723.94l-42.73,65.34,4.64,30.75,54.31-85.34c1.59-2.5,1.98-5.6,1.05-8.43h0c-2.55-7.77-12.81-9.14-17.27-2.32Z"/>
      <path class="cls-9" d="m2699.27,605.29l33.47,51.17v18.02s-40.9-64.27-40.9-64.27c-.73-1.15-.91-2.57-.48-3.86h0c1.17-3.56,5.87-4.19,7.92-1.06Z"/>
      <path class="cls-9" d="m2687.36,778l33.47,51.17v18.02s-40.9-64.27-40.9-64.27c-.73-1.15-.91-2.57-.48-3.86h0c1.17-3.56,5.87-4.19,7.92-1.06Z"/>
      <ellipse class="cls-10" cx="2828.95" cy="638.88" rx="35.13" ry="35.61"/>
      <ellipse class="cls-10" cx="2661.6" cy="749.54" rx="44.59" ry="45.19"/>
      <ellipse class="cls-5" cx="2675.8" cy="730.69" rx="10.76" ry="10.91"/>
      <ellipse class="cls-5" cx="2641.83" cy="742.96" rx="15.86" ry="16.08"/>
      <path class="cls-5" d="m2846.76,635.34c0,1.95,1.56,3.54,3.49,3.54s3.49-1.58,3.49-3.54-1.56-3.54-3.49-3.54-3.49,1.58-3.49,3.54Z"/>
      <ellipse class="cls-5" cx="2839.03" cy="619.14" rx="4.72" ry="4.78"/>
      <ellipse class="cls-5" cx="2814.19" cy="630.53" rx="11.24" ry="11.39"/>
      <path class="cls-8" d="m2652.23,700.25s4.36-15.19-12.53-16.88c-3.01,16.88,12.53,16.88,12.53,16.88Z"/>
      <path class="cls-6" d="m2791.75,754.12s-9.39-12.64-20.84.06c11.53,12.56,20.84-.06,20.84-.06Z"/>
      <path class="cls-6" d="m2800.85,732.33s-14.27-6.4-18.18,10.33c16.1,5.28,18.18-10.33,18.18-10.33Z"/>
      <path class="cls-6" d="m2686.28,614.31s2.74-15.57-14.23-15.43c-1.22,17.11,14.23,15.43,14.23,15.43Z"/>
      <path class="cls-6" d="m2700.02,630.72s-11.31-21.74-31.98-5.15c14.61,22.15,31.98,5.15,31.98,5.15Z"/>
      <path class="cls-8" d="m2682.03,795.72s-14.58,5.65-5.72,20.31c15.1-7.75,5.72-20.31,5.72-20.31Z"/>
      <path class="cls-8" d="m2670,799.59s-19.21-6.05-21.76,15.97c21.39,4.33,21.76-15.97,21.76-15.97Z"/>
      <path class="cls-8" d="m2835.82,706.35s9.9-12.23-4.97-20.51c-9.32,14.32,4.97,20.51,4.97,20.51Z"/>
      <path class="cls-8" d="m2865.66,680.26s-14.31-18.37-30.82.79c17.47,18.18,30.82-.79,30.82-.79Z"/>
      <ellipse class="cls-3" cx="2739.88" cy="628.14" rx="3.94" ry="13.78"/>
      <path class="cls-3" d="m2726.04,827.63c0,26.03,2.22,47.14,4.95,47.14s4.95-21.1,4.95-47.14c0-26.03-2.22-47.14-4.95-47.14s-4.95,21.1-4.95,47.14Z"/>
      <ellipse class="cls-3" cx="2739.88" cy="742.96" rx="3.94" ry="13.78"/>
      <ellipse class="cls-3" cx="2729.98" cy="680.63" rx="5.96" ry="31.83"/>
      <path class="cls-10" d="m2665.37,566.56c63.78-54.65,121.03-14.39,143.44,6.36-9.83-31.3-38.73-53.94-72.87-53.94-21.11,0-40.24,8.67-54.08,22.69-6.98,7.07-12.62,15.51-16.49,24.89Z"/>
      <path class="cls-6" d="m2691.13,941.72h159.12s-1.4-41.22-41.44-30.69c-10.79-37.31-49.42-15.01-38.12,14.47-26.45-20.23-72.29-4.72-79.57,16.22Z"/>
      <path class="cls-8" d="m2776.51,939.13h58.7c-5.75-8.54-15.69-17.56-31.97-13.65-7.24-13.35-29.35-5.5-26.73,13.65Z"/>
    </g>
  </g>
  <g>
    <path class="cls-1" d="m2170.3,935.45h105.96s4.69-43.15-31.8-38.38c1.04-35.37-41.7-26.96-35.44,0-27.1-26.39-40.19,7.45-40.19,7.45,0,0-21.72-41.84-55.92-7.99-26.38-30.6-53.48,10.73-28.98,38.92h86.38Z"/>
    <g>
      <polyline class="cls-9" points="2023.79 681.31 2034.73 694.58 2071.46 683.56 2076.67 698.95 2031.84 703.84 2018.63 686.16"/>
      <path class="cls-9" d="m2084.88,657.41c-.62-.84-51.8-36.6-51.8-36.6l-2.97,9.25,42.18,48.47"/>
      <polyline class="cls-9" points="2303.27 612.87 2298.59 650.44 2262.56 681.31 2252.49 662.73 2290.76 645.76 2295.49 612.87"/>
      <path class="cls-9" d="m2150.59,829.68c-.83-1.59-46.78-57.69-46.78-57.69l14.62-4.23,32.16,42.6"/>
      <polyline class="cls-9" points="2181.09 823.22 2222.87 769.77 2230.7 773.76 2181.09 837.79"/>
      <rect class="cls-9" x="2148.84" y="776.28" width="42.93" height="158.64" transform="translate(4340.6 1711.2) rotate(-180)"/>
      <path class="cls-7" d="m2086.01,578.39c0,34.11,19.97,63.48,48.7,76.76,10.51,4.88,22.21,7.58,34.54,7.58,45.96,0,83.23-37.75,83.23-84.35,0-46.6-37.27-84.37-83.23-84.37-31.52,0-58.95,17.76-73.07,43.95-6.49,11.99-10.17,25.77-10.17,40.42Z"/>
      <path class="cls-1" d="m2086.01,578.39c0,34.11,19.97,63.48,48.7,76.76,21.51-9.6,36.54-31.41,36.54-56.77,0-34.25-27.4-62.01-61.19-62.01-4.78,0-9.42.55-13.88,1.6-6.49,11.99-10.17,25.77-10.17,40.42Z"/>
      <path class="cls-7" d="m2058.2,686.16c0,13.02,2.18,25.52,6.19,37.14,7.54,21.84,21.53,40.61,39.66,53.95,2.75,2.04,5.6,3.94,8.54,5.7,16.59,10.02,35.97,15.76,56.68,15.76,12.66,0,24.82-2.15,36.16-6.1,10.14-3.54,19.61-8.52,28.19-14.71,28.26-20.39,46.71-53.89,46.71-91.74,0-2.61-.09-5.2-.26-7.76-3.93-58.53-52.05-104.8-110.8-104.8-61.34,0-111.06,50.41-111.06,112.55Z"/>
      <ellipse class="cls-7" cx="2300.77" cy="595.36" rx="26.7" ry="27.06"/>
      <ellipse class="cls-7" cx="2022.59" cy="609.69" rx="35.6" ry="36.08"/>
      <path class="cls-1" d="m2222.15,934.92h-113.39s5.74-10.08,18.8-5.04c-.52-22.23,27.68-23.82,29.77-6.35,9.92-15.35,10.62,4.76,10.62,4.76,0,0,17.06-16.41,30.64-2.65,10.97-10.06,24.51-4.42,23.57,9.27Z"/>
      <path class="cls-3" d="m2176.65,901.96c0,2.7,2.16,4.9,4.83,4.9,2.67,0,4.83-2.19,4.83-4.9,0-2.7-2.16-4.9-4.83-4.9s-4.83,2.19-4.83,4.9Z"/>
      <path class="cls-3" d="m2152.16,867.51c0,6.43,5.14,11.64,11.49,11.64,6.34,0,11.49-5.21,11.49-11.64,0-6.43-5.14-11.64-11.49-11.64-6.34,0-11.49,5.21-11.49,11.64Z"/>
      <ellipse class="cls-3" cx="2178.31" cy="834.13" rx="3.18" ry="3.22"/>
      <path class="cls-3" d="m2157.46,810.87c0,2.81,2.25,5.09,5.03,5.09,2.78,0,5.03-2.28,5.03-5.09s-2.25-5.09-5.03-5.09-5.03,2.28-5.03,5.09Z"/>
      <path class="cls-3" d="m2157.46,891.68c0,1.41,1.13,2.55,2.51,2.55,1.39,0,2.51-1.14,2.51-2.55,0-1.41-1.13-2.55-2.51-2.55-1.39,0-2.51,1.14-2.51,2.55Z"/>
      <path class="cls-3" d="m2178.31,850.32c0,2.24,1.79,4.06,4,4.06s4-1.82,4-4.06-1.79-4.06-4-4.06-4,1.82-4,4.06Z"/>
      <path class="cls-1" d="m2305.39,627.3s6.25-6.5,13.29,0c-8.13,6.65-13.29,0-13.29,0Z"/>
      <path class="cls-1" d="m2303.41,615.44s1.52-8.94,10.95-7.64c-2.97,10.15-10.95,7.64-10.95,7.64Z"/>
      <path class="cls-1" d="m2300.47,615.72s-7.91-4.25-3.75-12.92c8.59,6.03,3.75,12.92,3.75,12.92Z"/>
      <path class="cls-1" d="m2042.31,625.27s-7.91-4.25-3.75-12.92c8.59,6.03,3.75,12.92,3.75,12.92Z"/>
      <path class="cls-1" d="m2034.24,684.61s-3.09-8.52,5.73-12.15c2.42,10.3-5.73,12.15-5.73,12.15Z"/>
      <path class="cls-1" d="m2009.77,694.39s-4.65,7.76-12.95,3.03c6.44-8.34,12.95-3.03,12.95-3.03Z"/>
      <path class="cls-1" d="m2146.33,721.44s-2.41,8.74-11.66,6.47c3.98-9.79,11.66-6.47,11.66-6.47Z"/>
      <path class="cls-1" d="m2029.85,637.22s-16.47,9.39-26.91-8c20.37-8.58,26.91,8,26.91,8Z"/>
      <path class="cls-1" d="m2167.65,560.29s-17.89-6.19-12.05-25.67c19.89,9.67,12.05,25.67,12.05,25.67Z"/>
      <path class="cls-1" d="m2035.04,625.52s-12.68,4.23-17.57-9.26c15.26-3.13,17.57,9.26,17.57,9.26Z"/>
      <path class="cls-1" d="m2058.31,633.28s-2.01-13.37,11.94-16.02c.51,15.78-11.94,16.02-11.94,16.02Z"/>
      <path class="cls-1" d="m2174.91,568.3s-2.01-13.37,11.94-16.02c.51,15.78-11.94,16.02-11.94,16.02Z"/>
      <path class="cls-1" d="m2009.1,711.85s-2.01-13.37,11.94-16.02c.51,15.78-11.94,16.02-11.94,16.02Z"/>
      <path class="cls-1" d="m2305.61,606.51s-13.59-7.39-6.34-22.29c14.75,10.46,6.34,22.29,6.34,22.29Z"/>
      <path class="cls-1" d="m2126.89,731.94s-13.59-7.39-6.34-22.29c14.75,10.46,6.34,22.29,6.34,22.29Z"/>
      <path class="cls-7" d="m2003.3,678.54c0,7.33,5.86,13.26,13.09,13.26,7.23,0,13.09-5.94,13.09-13.26,0-7.33-5.86-13.26-13.09-13.26-7.23,0-13.09,5.94-13.09,13.26Z"/>
      <path class="cls-1" d="m2174.81,735.29c0,23.99,12.19,45.11,30.61,57.32,10.14-3.54,19.61-8.52,28.19-14.71,28.26-20.39,46.71-53.89,46.71-91.74,0-2.61-.09-5.2-.26-7.76-10.76-7.34-23.69-11.61-37.65-11.61-34.51,0-62.98,26.2-67.09,60.03-.34,2.78-.51,5.6-.51,8.46Z"/>
      <path class="cls-1" d="m2104.05,777.25c2.75,2.04,5.6,3.94,8.54,5.7,16.59,10.02,35.97,15.76,56.68,15.76,12.66,0,24.82-2.15,36.16-6.1,10.14-3.54,19.61-8.52,28.19-14.71-6.69-27.42-29.88-48.25-58.29-51.07-2.16-.21-4.36-.32-6.58-.32-17.94,0-34.22,7.17-46.22,18.83-8.82,8.58-15.33,19.55-18.47,31.92Z"/>
      <path class="cls-1" d="m2064.39,723.3c7.54,21.84,21.53,40.61,39.66,53.95,2.75,2.04,5.6,3.94,8.54,5.7,6.96-7.01,11.26-16.73,11.26-27.46,0-3.51-.47-6.92-1.34-10.16-4.4-16.47-19.24-28.57-36.88-28.57-7.86,0-15.18,2.42-21.25,6.54Z"/>
    </g>
    <ellipse class="cls-2" cx="2235.23" cy="716.66" rx="24.53" ry="24.86"/>
    <path class="cls-2" d="m2200.9,763.29c0,5.79,4.63,10.49,10.35,10.49,5.72,0,10.35-4.7,10.35-10.49,0-5.79-4.63-10.49-10.35-10.49-5.72,0-10.35,4.7-10.35,10.49Z"/>
  </g>
  <g>
    <path class="cls-4" d="m2039.53,797.45s-21.91,45.35-67.77,34.14c-10.67,30.06-30.78,17.83-30.78,17.83,0,0-14.58,23.01-34.19-2.25-7.04,34.86-44.75.72-53.8-8.45-18.1,28.53-59.83,20.38-55.3-5.6-31.17,15.29-50.28-7.13-51.79-23.44,39.72,3.06,132.2-26.09,132.2-26.09"/>
    <path class="cls-4" d="m1956.65,606.54s-6.48,15.7-23.85,18.91c7.95,9.62-12.1,27.81-26.17,21.03-5.28,17.47-25.49,6.85-25.49,6.85,0,0-28.52,11.33-38.1-6.85-17.31,12.48-60.23-3.21-49.67-33.15,21.46,11.41,100.99-17.82,100.99-17.82l62.29,11.04Z"/>
    <path class="cls-4" d="m1935.82,512.44s-4.39,16.4-22.42,8.2c-.79,24.95-29.75,24.21-31.63,10.5-10.67,13.02-18.79,1.26-18.79,1.26,0,0-31.63,5.35-30.93-19.96.7-25.31,97.08-16.04,103.76,0Z"/>
    <polygon class="cls-3" points="1862.99 936.27 1899.28 936.27 1882.16 447 1880.11 447 1862.99 936.27"/>
    <path class="cls-1" d="m1881.14,429.5s2.79,19.7,15.12,24.52c-11.39-.96-13.99-4.1-13.99-4.1,0,0-5.46,8.18-16.37,4.1,10.44-2.88,15.24-24.52,15.24-24.52Z"/>
    <path class="cls-1" d="m1922.5,939.02h-88.29s-6.07-39.37,0-43.84c6.07-4.47,4.97,36.91,4.97,36.91,0,0,8.28-19.13,11.04-15.16,2.76,3.97.55,15.16.55,15.16,0,0,19.31-19.01,23.17-10.62,3.86,8.39,3.07,12.3,3.07,12.3,0,0,11.83-24.05,23.42-21.25,11.59,2.8,12.14,18.45,12.14,18.45,0,0,4.97-25.16,9.93-24.61,4.97.56,0,32.66,0,32.66Z"/>
    <path class="cls-4" d="m1881.14,720.91s7.15,36.75,46.88,45.7c-33.79,25.23-46.88,5.03-46.88,5.03,0,0-21.97,25.72-49.62,1.68,22.56-4.47,41.88-21.07,49.62-52.41Z"/>
    <path class="cls-4" d="m1881.14,550.2s14.51,43.73,51.66,48.15c-19.68,10.57-25.83,3.86-25.83,3.86,0,0-15.46,25.16-41.07,5.03-12.37,11.74-22.85.56-22.85.56,0,0,26.53-10.07,38.1-57.6Z"/>
    <path class="cls-4" d="m1881.14,469.08s10.3,27.81,32.27,25.25c-10.27,14.84-23.37,6.51-23.37,6.51,0,0-11.56,8.85-16.44-.26-2.05,8.33-9.38,4.69-10.6-1.82-5.58,3.38-10.98,2.86-13.55-3.12,27.35-1.3,31.69-26.55,31.69-26.55Z"/>
    <polyline class="cls-3" points="1874.97 663.23 1866.53 653.33 1864.42 653.33 1872.17 673.89"/>
    <polyline class="cls-3" points="1881.42 529.1 1887.92 525.99 1889.75 530.62 1883.77 535.61"/>
    <polyline class="cls-3" points="1889.04 805.47 1899.28 795.13 1901.71 802.26 1892.21 819.01"/>
    <polyline class="cls-3" points="1872.86 865.71 1860.9 851.81 1857.03 856.44 1866.53 883.18"/>
    <path class="cls-11" d="m1880.95,853.24c0,3.35,2.68,6.06,5.98,6.06s5.98-2.71,5.98-6.06c0-3.35-2.68-6.06-5.98-6.06-3.3,0-5.98,2.71-5.98,6.06Z"/>
    <path class="cls-11" d="m1870.72,897.62c0,2.07,1.65,3.74,3.69,3.74,2.04,0,3.69-1.68,3.69-3.74,0-2.07-1.65-3.74-3.69-3.74-2.04,0-3.69,1.68-3.69,3.74Z"/>
    <path class="cls-11" d="m1872.86,876.57c0,1.47,1.17,2.66,2.62,2.66s2.62-1.19,2.62-2.66c0-1.47-1.17-2.66-2.62-2.66-1.45,0-2.62,1.19-2.62,2.66Z"/>
    <ellipse class="cls-11" cx="1877.27" cy="791.21" rx="3.87" ry="3.92"/>
    <path class="cls-11" d="m1882.16,674.88c0,.55.44.99.98.99s.98-.44.98-.99c0-.55-.44-.99-.98-.99s-.98.44-.98.99Z"/>
    <path class="cls-11" d="m1873.93,646.44c0,1.87,1.5,3.39,3.34,3.39,1.85,0,3.34-1.52,3.34-3.39,0-1.87-1.5-3.39-3.34-3.39-1.85,0-3.34,1.52-3.34,3.39Z"/>
    <path class="cls-11" d="m1879.55,632.04c0,1.28,1.02,2.32,2.29,2.32,1.26,0,2.29-1.04,2.29-2.32,0-1.28-1.02-2.32-2.29-2.32s-2.29,1.04-2.29,2.32Z"/>
    <path class="cls-11" d="m1879.77,541.3c0,.58.46,1.05,1.03,1.05s1.03-.47,1.03-1.05c0-.58-.46-1.05-1.03-1.05s-1.03.47-1.03,1.05Z"/>
    <path class="cls-1" d="m1881.14,653.33s39.56,139.92,174.77,137.76c-65.47,48.32-94.65,25.96-94.65,25.96,0,0-2.85,23.08-19.93,25.96-17.08,2.88-26.33-15.15-26.33-15.15,0,0-31.31,33.9-62.63,0-22.77,25.24-41.99,12.98-45.55-5.77-46.97,19.47-74.01-19.47-74.01-19.47,0,0,126.56-8.65,148.33-149.3Z"/>
    <path class="cls-1" d="m1880.96,527.69s23.38,77.85,90.8,67.01c-22.04,23.32-48.94,19.05-48.94,19.05,0,0,3.24,15.77-9.4,20.37-12.64,4.6-21.07-5.26-21.07-5.26,0,0-29.17,28.25-50.89-4.6-22.37,26.28-54.78,1.31-59.64-22.99,31.44,11.5,68.01-12.48,81.49-31.54,13.48-19.05,17.65-42.05,17.65-42.05Z"/>
    <path class="cls-1" d="m1881.14,454.26s38.56,48.69,84.95,38.77c-30.22,43.57-54.05,17.25-54.05,17.25,0,0-12.85,25.88-30.9,4.31-18.05,23.29-31.24-.86-31.24-.86,0,0-30.65,23.29-54.05-14.23,44.27,6.47,85.3-45.24,85.3-45.24Z"/>
    <path class="cls-4" d="m1883.44,655.02s28.86,36.31,57.03,37.34c-15.28,5.16-28.52-5.19-28.52-5.19,0,0,6.79,10.36,0,11.04-6.79.69-16.97-5.16-16.97-5.16,0,0-24.78,19.61-39.04-2.06-15.96,8.95-28.18-5.5-28.18-5.5,0,0,34.63,12.71,55.67-30.46Z"/>
  </g>
  <g>
    <path class="cls-10" d="m1676.24,931.54h-193.12s9.25-34.24,28.79-22.92c3.08-40.78,36.95-45.99,47.78-17.85,16.99-31.26,108.17-25.06,116.56,24.46"/>
    <g>
      <path class="cls-9" d="m1716.76,644.26l-34.11,52.16v18.37s41.69-65.5,41.69-65.5c.74-1.17.92-2.62.49-3.94h0c-1.19-3.63-5.99-4.27-8.07-1.08Z"/>
      <path class="cls-8" d="m1541.44,582.32v137.49c0,43.63,34.88,78.98,77.93,78.98,43.03,0,77.93-35.35,77.93-78.98v-137.49c0-8.37-1.28-16.44-3.67-24-10.02-31.9-39.47-54.98-74.27-54.98-21.52,0-41.01,8.84-55.11,23.12-7.11,7.21-12.86,15.8-16.81,25.37-3.86,9.39-6.01,19.67-6.01,30.49Z"/>
      <path class="cls-9" d="m1600.2,580.67h35.02v344.81c0,3.35-2.72,6.06-6.06,6.06h-22.89c-3.35,0-6.06-2.72-6.06-6.06v-344.81h0Z" transform="translate(3235.41 1512.21) rotate(-180)"/>
      <path class="cls-9" d="m1657.35,639.67l-34.11,52.16v18.37s41.69-65.5,41.69-65.5c.74-1.17.92-2.62.49-3.94h0c-1.19-3.63-5.99-4.27-8.07-1.08Z"/>
      <path class="cls-9" d="m1647.5,712.22l-43.55,66.59,4.73,31.33,55.35-86.97c1.62-2.55,2.02-5.71,1.07-8.59h0c-2.6-7.91-13.06-9.32-17.6-2.36Z"/>
      <path class="cls-9" d="m1581.99,591.3l34.11,52.16v18.37s-41.69-65.5-41.69-65.5c-.74-1.17-.92-2.62-.49-3.94h0c1.19-3.63,5.99-4.27,8.07-1.08Z"/>
      <path class="cls-9" d="m1569.85,767.33l34.11,52.16v18.37s-41.69-65.5-41.69-65.5c-.74-1.17-.92-2.62-.49-3.94h0c1.19-3.63,5.99-4.27,8.07-1.08Z"/>
      <ellipse class="cls-10" cx="1714.15" cy="625.53" rx="35.81" ry="36.29"/>
      <ellipse class="cls-10" cx="1543.6" cy="738.32" rx="45.44" ry="46.05"/>
      <ellipse class="cls-5" cx="1558.06" cy="719.11" rx="10.97" ry="11.12"/>
      <ellipse class="cls-5" cx="1523.44" cy="731.61" rx="16.17" ry="16.39"/>
      <path class="cls-5" d="m1732.31,621.93c0,1.99,1.59,3.61,3.56,3.61s3.56-1.61,3.56-3.61-1.59-3.61-3.56-3.61c-1.97,0-3.56,1.61-3.56,3.61Z"/>
      <ellipse class="cls-5" cx="1724.43" cy="605.42" rx="4.81" ry="4.87"/>
      <ellipse class="cls-5" cx="1699.11" cy="617.03" rx="11.46" ry="11.61"/>
      <path class="cls-8" d="m1534.05,688.08s4.44-15.48-12.77-17.2c-3.07,17.2,12.77,17.2,12.77,17.2Z"/>
      <path class="cls-6" d="m1676.24,742.98s-9.57-12.88-21.24.06c11.75,12.8,21.24-.06,21.24-.06Z"/>
      <path class="cls-6" d="m1685.51,720.78s-14.55-6.53-18.53,10.53c16.41,5.38,18.53-10.53,18.53-10.53Z"/>
      <path class="cls-6" d="m1568.75,600.5s2.79-15.87-14.51-15.73c-1.24,17.43,14.51,15.73,14.51,15.73Z"/>
      <path class="cls-6" d="m1582.75,617.22s-11.53-22.15-32.59-5.25c14.89,22.57,32.59,5.25,32.59,5.25Z"/>
      <path class="cls-8" d="m1564.42,785.38s-14.86,5.75-5.83,20.7c15.39-7.9,5.83-20.7,5.83-20.7Z"/>
      <path class="cls-8" d="m1552.16,789.32s-19.58-6.16-22.18,16.28c21.8,4.41,22.18-16.28,22.18-16.28Z"/>
      <path class="cls-8" d="m1721.15,694.3s10.09-12.46-5.07-20.91c-9.5,14.59,5.07,20.91,5.07,20.91Z"/>
      <path class="cls-8" d="m1751.57,667.71s-14.58-18.72-31.41.81c17.8,18.52,31.41-.81,31.41-.81Z"/>
      <ellipse class="cls-3" cx="1623.38" cy="614.59" rx="4.02" ry="14.05"/>
      <path class="cls-3" d="m1609.27,817.9c0,26.53,2.26,48.04,5.05,48.04s5.05-21.51,5.05-48.04c0-26.53-2.26-48.04-5.05-48.04-2.79,0-5.05,21.51-5.05,48.04Z"/>
      <ellipse class="cls-3" cx="1623.38" cy="731.61" rx="4.02" ry="14.05"/>
      <ellipse class="cls-3" cx="1613.29" cy="668.08" rx="6.07" ry="32.44"/>
      <path class="cls-10" d="m1547.44,551.83c65-55.7,123.35-14.66,146.19,6.48-10.02-31.9-39.47-54.98-74.27-54.98-21.52,0-41.01,8.84-55.11,23.12-7.11,7.21-12.86,15.8-16.81,25.37Z"/>
      <path class="cls-6" d="m1573.69,934.18h162.17s-1.43-42.01-42.23-31.28c-11-38.03-50.36-15.3-38.85,14.75-26.96-20.62-73.68-4.81-81.1,16.53Z"/>
      <path class="cls-8" d="m1660.71,931.54h59.82c-5.86-8.7-15.99-17.89-32.58-13.91-7.37-13.61-29.91-5.61-27.24,13.91Z"/>
    </g>
  </g>
  <g>
    <path class="cls-4" d="m1484.35,801.19s-20.95,43.36-64.8,32.64c-10.2,28.75-29.43,17.05-29.43,17.05,0,0-13.94,22.01-32.69-2.15-6.73,33.33-42.79.69-51.44-8.08-17.31,27.28-57.21,19.49-52.88-5.36-29.81,14.62-48.08-6.82-49.52-22.41,37.98,2.92,126.41-24.95,126.41-24.95"/>
    <path class="cls-4" d="m1405.1,618.64s-6.2,15.01-22.81,18.08c7.6,9.2-11.57,26.59-25.02,20.11-5.05,16.7-24.38,6.55-24.38,6.55,0,0-27.27,10.84-36.43-6.55-16.55,11.93-57.59-3.07-47.5-31.7,20.52,10.91,96.57-17.04,96.57-17.04l59.56,10.55Z"/>
    <path class="cls-4" d="m1385.18,528.66s-4.2,15.68-21.44,7.84c-.76,23.86-28.45,23.15-30.24,10.04-10.2,12.45-17.96,1.21-17.96,1.21,0,0-30.25,5.11-29.57-19.09.67-24.2,92.83-15.34,99.22,0Z"/>
    <polygon class="cls-3" points="1315.54 933.93 1350.24 933.93 1333.87 466.08 1331.91 466.08 1315.54 933.93"/>
    <path class="cls-1" d="m1332.89,449.35s2.66,18.84,14.46,23.44c-10.89-.91-13.38-3.92-13.38-3.92,0,0-5.22,7.82-15.65,3.92,9.98-2.75,14.58-23.44,14.58-23.44Z"/>
    <path class="cls-1" d="m1372.44,936.55h-84.42s-5.8-37.64,0-41.92c5.8-4.28,4.75,35.29,4.75,35.29,0,0,7.91-18.29,10.55-14.49,2.64,3.8.53,14.49.53,14.49,0,0,18.47-18.18,22.16-10.16,3.69,8.02,2.93,11.76,2.93,11.76,0,0,11.31-22.99,22.39-20.32,11.08,2.67,11.61,17.65,11.61,17.65,0,0,4.75-24.06,9.5-23.53,4.75.53,0,31.23,0,31.23Z"/>
    <path class="cls-4" d="m1332.89,728s6.84,35.14,44.83,43.7c-32.31,24.12-44.83,4.81-44.83,4.81,0,0-21.01,24.6-47.45,1.6,21.57-4.28,40.05-20.15,47.45-50.11Z"/>
    <path class="cls-4" d="m1332.89,564.76s13.87,41.81,49.4,46.04c-18.82,10.11-24.7,3.69-24.7,3.69,0,0-14.79,24.06-39.28,4.81-11.83,11.23-21.85.53-21.85.53,0,0,25.37-9.63,36.43-55.08Z"/>
    <path class="cls-4" d="m1332.89,487.2s9.85,26.59,30.85,24.15c-9.82,14.19-22.35,6.22-22.35,6.22,0,0-11.05,8.46-15.72-.25-1.96,7.97-8.97,4.48-10.14-1.74-5.34,3.24-10.5,2.74-12.95-2.99,26.15-1.24,30.3-25.39,30.3-25.39Z"/>
    <polyline class="cls-3" points="1327 672.85 1318.92 663.37 1316.91 663.37 1324.32 683.04"/>
    <polyline class="cls-3" points="1333.17 544.59 1339.38 541.61 1341.12 546.04 1335.41 550.82"/>
    <polyline class="cls-3" points="1340.45 808.85 1350.24 798.97 1352.56 805.78 1343.48 821.81"/>
    <polyline class="cls-3" points="1324.98 866.46 1313.54 853.17 1309.84 857.6 1318.92 883.16"/>
    <path class="cls-11" d="m1332.71,854.53c0,3.2,2.56,5.79,5.72,5.79,3.16,0,5.72-2.59,5.72-5.79s-2.56-5.79-5.72-5.79-5.72,2.59-5.72,5.79Z"/>
    <path class="cls-11" d="m1322.93,896.97c0,1.98,1.58,3.58,3.53,3.58,1.95,0,3.53-1.6,3.53-3.58,0-1.98-1.58-3.58-3.53-3.58s-3.53,1.6-3.53,3.58Z"/>
    <path class="cls-11" d="m1324.98,876.84c0,1.4,1.12,2.54,2.51,2.54s2.51-1.14,2.51-2.54-1.12-2.54-2.51-2.54-2.51,1.14-2.51,2.54Z"/>
    <ellipse class="cls-11" cx="1329.19" cy="795.22" rx="3.7" ry="3.75"/>
    <path class="cls-11" d="m1333.87,683.98c0,.52.42.95.93.95s.93-.42.93-.95c0-.52-.42-.95-.93-.95s-.93.42-.93.95Z"/>
    <path class="cls-11" d="m1326,656.79c0,1.79,1.43,3.24,3.2,3.24s3.2-1.45,3.2-3.24c0-1.79-1.43-3.24-3.2-3.24s-3.2,1.45-3.2,3.24Z"/>
    <path class="cls-11" d="m1331.37,643.02c0,1.22.98,2.22,2.19,2.22s2.19-.99,2.19-2.22c0-1.22-.98-2.22-2.19-2.22s-2.19.99-2.19,2.22Z"/>
    <path class="cls-11" d="m1331.58,556.25c0,.55.44,1,.99,1s.99-.45.99-1c0-.55-.44-1-.99-1s-.99.45-.99,1Z"/>
    <path class="cls-1" d="m1332.89,663.37s37.82,133.79,167.12,131.73c-62.61,46.21-90.51,24.83-90.51,24.83,0,0-2.72,22.07-19.05,24.83-16.33,2.76-25.18-14.48-25.18-14.48,0,0-29.94,32.41-59.88,0-21.78,24.14-40.15,12.41-43.55-5.52-44.91,18.62-70.77-18.62-70.77-18.62,0,0,121.02-8.28,141.83-142.76Z"/>
    <path class="cls-1" d="m1332.72,543.24s22.36,74.44,86.83,64.08c-21.08,22.3-46.8,18.22-46.8,18.22,0,0,3.1,15.08-8.99,19.48-12.09,4.4-20.15-5.03-20.15-5.03,0,0-27.89,27.01-48.66-4.4-21.39,25.13-52.38,1.26-57.03-21.99,30.06,10.99,65.03-11.94,77.92-30.16,12.89-18.22,16.88-40.21,16.88-40.21Z"/>
    <path class="cls-1" d="m1332.89,473.02s36.87,46.56,81.23,37.07c-28.9,41.66-51.69,16.5-51.69,16.5,0,0-12.28,24.75-29.54,4.12-17.26,22.27-29.88-.83-29.88-.83,0,0-29.3,22.27-51.69-13.61,42.33,6.19,81.56-43.26,81.56-43.26Z"/>
    <path class="cls-4" d="m1335.09,664.99s27.59,34.72,54.53,35.7c-14.61,4.93-27.27-4.97-27.27-4.97,0,0,6.49,9.9,0,10.56-6.49.66-16.23-4.93-16.23-4.93,0,0-23.7,18.75-37.33-1.97-15.26,8.55-26.94-5.26-26.94-5.26,0,0,33.11,12.15,53.24-29.12Z"/>
  </g>
  <g>
    <path class="cls-1" d="m1057.21,941.87h115.69s5.12-47.12-34.71-41.9c1.14-38.62-45.53-29.44-38.7,0-29.59-28.82-43.88,8.13-43.88,8.13,0,0-23.72-45.68-61.06-8.73-28.8-33.41-58.39,11.71-31.65,42.5h94.31Z"/>
    <g>
      <polyline class="cls-9" points="897.25 664.4 909.19 678.88 949.3 666.85 954.99 683.65 906.04 689 891.62 669.69"/>
      <path class="cls-9" d="m963.95,638.3c-.68-.91-56.55-39.96-56.55-39.96l-3.25,10.1,46.06,52.92"/>
      <polyline class="cls-9" points="1202.39 589.67 1197.28 630.69 1157.94 664.4 1146.95 644.11 1188.73 625.58 1193.9 589.67"/>
      <path class="cls-9" d="m1035.69,826.38c-.9-1.73-51.08-62.98-51.08-62.98l15.96-4.62,35.11,46.52"/>
      <polyline class="cls-9" points="1069 819.33 1114.61 760.97 1123.16 765.33 1069 835.24"/>
      <rect class="cls-9" x="1033.78" y="768.08" width="46.87" height="173.21" transform="translate(2114.42 1709.38) rotate(-180)"/>
      <path class="cls-7" d="m965.19,552.02c0,37.25,21.8,69.31,53.18,83.81,11.48,5.33,24.25,8.28,37.72,8.28,50.18,0,90.87-41.22,90.87-92.09,0-50.87-40.69-92.11-90.87-92.11-34.41,0-64.36,19.39-79.78,47.98-7.08,13.09-11.11,28.13-11.11,44.13Z"/>
      <path class="cls-1" d="m965.19,552.02c0,37.25,21.8,69.31,53.18,83.81,23.49-10.49,39.89-34.29,39.89-61.99,0-37.39-29.91-67.71-66.81-67.71-5.22,0-10.29.6-15.15,1.75-7.08,13.09-11.11,28.13-11.11,44.13Z"/>
      <path class="cls-7" d="m934.82,669.68c0,14.21,2.38,27.86,6.75,40.55,8.23,23.85,23.51,44.34,43.3,58.91,3,2.23,6.12,4.31,9.32,6.22,18.11,10.94,39.28,17.21,61.88,17.21,13.82,0,27.1-2.35,39.48-6.66,11.07-3.87,21.41-9.3,30.78-16.06,30.86-22.26,51-58.84,51-100.17,0-2.85-.1-5.68-.29-8.47-4.29-63.9-56.83-114.42-120.97-114.42-66.97,0-121.26,55.04-121.26,122.89Z"/>
      <ellipse class="cls-7" cx="1199.66" cy="570.55" rx="29.15" ry="29.54"/>
      <ellipse class="cls-7" cx="895.94" cy="586.19" rx="38.87" ry="39.39"/>
      <path class="cls-1" d="m1113.82,941.29h-123.8s6.27-11,20.53-5.5c-.57-24.27,30.22-26,32.5-6.93,10.83-16.76,11.59,5.2,11.59,5.2,0,0,18.63-17.91,33.45-2.89,11.97-10.98,26.76-4.83,25.74,10.12Z"/>
      <path class="cls-3" d="m1064.15,905.31c0,2.95,2.36,5.34,5.27,5.34,2.91,0,5.27-2.39,5.27-5.34s-2.36-5.34-5.27-5.34c-2.91,0-5.27,2.39-5.27,5.34Z"/>
      <path class="cls-3" d="m1037.4,867.69c0,7.02,5.62,12.71,12.54,12.71,6.93,0,12.54-5.69,12.54-12.71s-5.62-12.71-12.54-12.71c-6.93,0-12.54,5.69-12.54,12.71Z"/>
      <ellipse class="cls-3" cx="1065.96" cy="831.25" rx="3.47" ry="3.51"/>
      <path class="cls-3" d="m1043.2,805.85c0,3.07,2.46,5.56,5.49,5.56,3.03,0,5.49-2.49,5.49-5.56s-2.46-5.56-5.49-5.56c-3.03,0-5.49,2.49-5.49,5.56Z"/>
      <path class="cls-3" d="m1043.2,894.07c0,1.54,1.23,2.78,2.74,2.78s2.74-1.24,2.74-2.78-1.23-2.78-2.74-2.78-2.74,1.24-2.74,2.78Z"/>
      <path class="cls-3" d="m1065.96,848.92c0,2.45,1.96,4.43,4.37,4.43s4.37-1.98,4.37-4.43-1.96-4.43-4.37-4.43-4.37,1.98-4.37,4.43Z"/>
      <path class="cls-1" d="m1204.7,605.42s6.83-7.09,14.51,0c-8.88,7.27-14.51,0-14.51,0Z"/>
      <path class="cls-1" d="m1202.54,592.47s1.66-9.77,11.95-8.34c-3.25,11.08-11.95,8.34-11.95,8.34Z"/>
      <path class="cls-1" d="m1199.33,592.78s-8.64-4.64-4.09-14.11c9.38,6.58,4.09,14.11,4.09,14.11Z"/>
      <path class="cls-1" d="m917.47,603.21s-8.64-4.64-4.09-14.11c9.38,6.58,4.09,14.11,4.09,14.11Z"/>
      <path class="cls-1" d="m908.66,668s-3.37-9.3,6.25-13.27c2.64,11.25-6.25,13.27-6.25,13.27Z"/>
      <path class="cls-1" d="m881.95,678.67s-5.08,8.47-14.14,3.31c7.03-9.1,14.14-3.31,14.14-3.31Z"/>
      <path class="cls-1" d="m1031.04,708.21s-2.63,9.54-12.73,7.06c4.34-10.69,12.73-7.06,12.73-7.06Z"/>
      <path class="cls-1" d="m903.87,616.25s-17.99,10.26-29.39-8.73c22.23-9.37,29.39,8.73,29.39,8.73Z"/>
      <path class="cls-1" d="m1054.31,532.26s-19.53-6.75-13.16-28.02c21.71,10.55,13.16,28.02,13.16,28.02Z"/>
      <path class="cls-1" d="m909.53,603.48s-13.84,4.62-19.18-10.11c16.67-3.42,19.18,10.11,19.18,10.11Z"/>
      <path class="cls-1" d="m934.94,611.95s-2.19-14.6,13.03-17.49c.55,17.22-13.03,17.49-13.03,17.49Z"/>
      <path class="cls-1" d="m1062.24,541.01s-2.19-14.6,13.03-17.49c.55,17.22-13.03,17.49-13.03,17.49Z"/>
      <path class="cls-1" d="m881.21,697.74s-2.19-14.6,13.03-17.49c.55,17.22-13.03,17.49-13.03,17.49Z"/>
      <path class="cls-1" d="m1204.94,582.72s-14.84-8.07-6.92-24.34c16.1,11.42,6.92,24.34,6.92,24.34Z"/>
      <path class="cls-1" d="m1009.82,719.67s-14.84-8.07-6.92-24.34c16.1,11.42,6.92,24.34,6.92,24.34Z"/>
      <path class="cls-7" d="m874.88,661.37c0,8,6.4,14.48,14.29,14.48,7.89,0,14.29-6.48,14.29-14.48,0-8-6.4-14.48-14.29-14.48s-14.29,6.48-14.29,14.48Z"/>
      <path class="cls-1" d="m1062.14,723.33c0,26.2,13.3,49.25,33.42,62.59,11.07-3.87,21.41-9.3,30.78-16.06,30.86-22.26,51-58.84,51-100.17,0-2.85-.1-5.68-.29-8.47-11.74-8.01-25.87-12.67-41.1-12.67-37.67,0-68.76,28.61-73.25,65.54-.37,3.04-.55,6.12-.55,9.24Z"/>
      <path class="cls-1" d="m984.88,769.14c3,2.23,6.12,4.31,9.32,6.22,18.11,10.94,39.28,17.21,61.88,17.21,13.82,0,27.1-2.35,39.48-6.66,11.07-3.87,21.41-9.3,30.78-16.06-7.31-29.94-32.62-52.68-63.65-55.76-2.36-.23-4.76-.35-7.19-.35-19.59,0-37.37,7.82-50.47,20.56-9.63,9.36-16.73,21.35-20.16,34.85Z"/>
      <path class="cls-1" d="m941.58,710.24c8.23,23.85,23.51,44.34,43.3,58.91,3,2.23,6.12,4.31,9.32,6.22,7.6-7.66,12.3-18.27,12.3-29.98,0-3.83-.51-7.55-1.46-11.09-4.8-17.98-21-31.19-40.26-31.19-8.58,0-16.57,2.64-23.2,7.14Z"/>
    </g>
    <ellipse class="cls-2" cx="1128.1" cy="702.99" rx="26.78" ry="27.14"/>
    <path class="cls-2" d="m1090.62,753.9c0,6.33,5.06,11.45,11.3,11.45,6.24,0,11.3-5.13,11.3-11.45s-5.06-11.45-11.3-11.45-11.3,5.13-11.3,11.45Z"/>
  </g>
  <g>
    <path class="cls-1" d="m444.82,938.41h109.36s4.84-44.54-32.82-39.61c1.08-36.51-43.04-27.83-36.58,0-27.97-27.24-41.48,7.69-41.48,7.69,0,0-22.42-43.18-57.72-8.25-27.23-31.59-55.2,11.07-29.92,40.17h89.15Z"/>
    <g>
      <polyline class="cls-9" points="293.61 676.12 304.9 689.81 342.81 678.44 348.19 694.32 301.92 699.38 288.29 681.13"/>
      <path class="cls-9" d="m356.66,651.45c-.64-.86-53.46-37.78-53.46-37.78l-3.07,9.55,43.54,50.03"/>
      <polyline class="cls-9" points="582.06 605.48 577.23 644.26 540.04 676.12 529.65 656.95 569.15 639.43 574.03 605.48"/>
      <path class="cls-9" d="m424.48,829.25c-.86-1.64-48.28-59.54-48.28-59.54l15.09-4.37,33.19,43.97"/>
      <polyline class="cls-9" points="455.96 822.58 499.08 767.41 507.16 771.53 455.96 837.62"/>
      <rect class="cls-9" x="422.67" y="774.14" width="44.31" height="163.73" transform="translate(889.64 1712.01) rotate(-180)"/>
      <path class="cls-7" d="m357.83,569.89c0,35.21,20.61,65.52,50.27,79.23,10.85,5.04,22.92,7.83,35.65,7.83,47.43,0,85.9-38.97,85.9-87.06,0-48.09-38.47-87.08-85.9-87.08-32.53,0-60.84,18.33-75.42,45.36-6.7,12.37-10.5,26.59-10.5,41.72Z"/>
      <path class="cls-1" d="m357.83,569.89c0,35.21,20.61,65.52,50.27,79.23,22.2-9.91,37.71-32.42,37.71-58.6,0-35.35-28.28-64-63.15-64-4.93,0-9.72.57-14.32,1.65-6.7,12.37-10.5,26.59-10.5,41.72Z"/>
      <path class="cls-7" d="m329.12,681.12c0,13.43,2.25,26.34,6.39,38.34,7.78,22.54,22.22,41.92,40.93,55.68,2.83,2.1,5.78,4.07,8.81,5.88,17.12,10.35,37.13,16.27,58.5,16.27,13.06,0,25.62-2.22,37.32-6.29,10.46-3.66,20.24-8.79,29.09-15.18,29.17-21.05,48.21-55.62,48.21-94.69,0-2.69-.1-5.37-.27-8.01-4.06-60.4-53.72-108.16-114.35-108.16-63.31,0-114.63,52.03-114.63,116.17Z"/>
      <ellipse class="cls-7" cx="579.48" cy="587.41" rx="27.56" ry="27.93"/>
      <ellipse class="cls-7" cx="292.37" cy="602.19" rx="36.74" ry="37.24"/>
      <path class="cls-1" d="m498.33,937.87h-117.03s5.93-10.4,19.4-5.2c-.54-22.94,28.57-24.58,30.72-6.55,10.24-15.84,10.96,4.92,10.96,4.92,0,0,17.61-16.93,31.62-2.73,11.32-10.38,25.3-4.57,24.33,9.57Z"/>
      <path class="cls-3" d="m451.38,903.85c0,2.79,2.23,5.05,4.99,5.05s4.99-2.26,4.99-5.05-2.23-5.05-4.99-5.05c-2.75,0-4.99,2.26-4.99,5.05Z"/>
      <path class="cls-3" d="m426.09,868.29c0,6.64,5.31,12.02,11.86,12.02,6.55,0,11.86-5.38,11.86-12.02s-5.31-12.02-11.86-12.02c-6.55,0-11.86,5.38-11.86,12.02Z"/>
      <ellipse class="cls-3" cx="453.09" cy="833.84" rx="3.28" ry="3.32"/>
      <path class="cls-3" d="m431.57,809.83c0,2.9,2.32,5.26,5.19,5.26,2.87,0,5.19-2.35,5.19-5.26s-2.32-5.26-5.19-5.26c-2.87,0-5.19,2.35-5.19,5.26Z"/>
      <path class="cls-3" d="m431.57,893.24c0,1.45,1.16,2.63,2.59,2.63s2.59-1.18,2.59-2.63c0-1.45-1.16-2.63-2.59-2.63s-2.59,1.18-2.59,2.63Z"/>
      <path class="cls-3" d="m453.09,850.55c0,2.31,1.85,4.19,4.13,4.19s4.13-1.87,4.13-4.19c0-2.31-1.85-4.19-4.13-4.19-2.28,0-4.13,1.87-4.13,4.19Z"/>
      <path class="cls-1" d="m584.24,620.37s6.45-6.7,13.71,0c-8.39,6.87-13.71,0-13.71,0Z"/>
      <path class="cls-1" d="m582.21,608.13s1.57-9.23,11.3-7.88c-3.07,10.48-11.3,7.88-11.3,7.88Z"/>
      <path class="cls-1" d="m579.17,608.42s-8.17-4.39-3.87-13.34c8.87,6.22,3.87,13.34,3.87,13.34Z"/>
      <path class="cls-1" d="m312.72,618.28s-8.17-4.39-3.87-13.34c8.87,6.22,3.87,13.34,3.87,13.34Z"/>
      <path class="cls-1" d="m304.39,679.53s-3.19-8.79,5.91-12.54c2.5,10.63-5.91,12.54-5.91,12.54Z"/>
      <path class="cls-1" d="m279.14,689.62s-4.8,8.01-13.36,3.13c6.65-8.61,13.36-3.13,13.36-3.13Z"/>
      <path class="cls-1" d="m420.08,717.54s-2.49,9.02-12.03,6.67c4.11-10.11,12.03-6.67,12.03-6.67Z"/>
      <path class="cls-1" d="m299.86,630.61s-17,9.69-27.78-8.26c21.02-8.86,27.78,8.26,27.78,8.26Z"/>
      <path class="cls-1" d="m442.08,551.21s-18.46-6.38-12.44-26.49c20.53,9.98,12.44,26.49,12.44,26.49Z"/>
      <path class="cls-1" d="m305.22,618.53s-13.08,4.37-18.13-9.56c15.75-3.23,18.13,9.56,18.13,9.56Z"/>
      <path class="cls-1" d="m329.24,626.54s-2.07-13.8,12.32-16.53c.52,16.28-12.32,16.53-12.32,16.53Z"/>
      <path class="cls-1" d="m449.58,559.48s-2.07-13.8,12.32-16.53c.52,16.28-12.32,16.53-12.32,16.53Z"/>
      <path class="cls-1" d="m278.44,707.64s-2.07-13.8,12.32-16.53c.52,16.28-12.32,16.53-12.32,16.53Z"/>
      <path class="cls-1" d="m584.47,598.91s-14.03-7.63-6.54-23.01c15.22,10.8,6.54,23.01,6.54,23.01Z"/>
      <path class="cls-1" d="m400.02,728.37s-14.03-7.63-6.54-23.01c15.22,10.8,6.54,23.01,6.54,23.01Z"/>
      <path class="cls-7" d="m272.46,673.26c0,7.56,6.05,13.69,13.51,13.69,7.46,0,13.51-6.13,13.51-13.69,0-7.56-6.05-13.69-13.51-13.69-7.46,0-13.51,6.13-13.51,13.69Z"/>
      <path class="cls-1" d="m449.48,731.83c0,24.76,12.58,46.56,31.6,59.17,10.46-3.66,20.24-8.79,29.09-15.18,29.17-21.05,48.21-55.62,48.21-94.69,0-2.69-.1-5.37-.27-8.01-11.1-7.57-24.45-11.98-38.86-11.98-35.61,0-65,27.05-69.25,61.96-.35,2.87-.52,5.78-.52,8.73Z"/>
      <path class="cls-1" d="m376.44,775.14c2.83,2.1,5.78,4.07,8.81,5.88,17.12,10.35,37.13,16.27,58.5,16.27,13.06,0,25.62-2.22,37.32-6.29,10.46-3.66,20.24-8.79,29.09-15.18-6.91-28.3-30.84-49.8-60.17-52.71-2.23-.22-4.5-.33-6.79-.33-18.52,0-35.32,7.4-47.71,19.43-9.1,8.85-15.82,20.18-19.06,32.95Z"/>
      <path class="cls-1" d="m335.51,719.45c7.78,22.54,22.22,41.92,40.93,55.68,2.83,2.1,5.78,4.07,8.81,5.88,7.18-7.24,11.63-17.27,11.63-28.34,0-3.62-.49-7.14-1.38-10.48-4.54-16.99-19.85-29.48-38.06-29.48-8.11,0-15.66,2.5-21.93,6.75Z"/>
    </g>
    <ellipse class="cls-2" cx="511.84" cy="712.6" rx="25.31" ry="25.66"/>
    <path class="cls-2" d="m476.4,760.73c0,5.98,4.78,10.83,10.68,10.83,5.9,0,10.68-4.85,10.68-10.83,0-5.98-4.78-10.83-10.68-10.83s-10.68,4.85-10.68,10.83Z"/>
  </g>
  <g>
    <path class="cls-4" d="m2601.07,801.41s-21.05,43.57-65.11,32.8c-10.25,28.89-29.57,17.14-29.57,17.14,0,0-14.01,22.11-32.85-2.16-6.76,33.5-42.99.69-51.69-8.12-17.39,27.42-57.49,19.58-53.14-5.39-29.95,14.69-48.31-6.85-49.76-22.52,38.16,2.94,127.02-25.07,127.02-25.07"/>
    <path class="cls-4" d="m2521.43,617.97s-6.23,15.08-22.92,18.17c7.64,9.25-11.62,26.72-25.14,20.21-5.07,16.78-24.5,6.58-24.5,6.58,0,0-27.4,10.89-36.6-6.58-16.63,11.99-57.87-3.08-47.73-31.85,20.62,10.96,97.04-17.13,97.04-17.13l59.85,10.6Z"/>
    <path class="cls-4" d="m2501.42,527.56s-4.22,15.76-21.54,7.88c-.76,23.98-28.58,23.27-30.39,10.09-10.25,12.51-18.05,1.21-18.05,1.21,0,0-30.39,5.14-29.72-19.18.68-24.32,93.28-15.41,99.7,0Z"/>
    <polygon class="cls-3" points="2431.44 934.79 2466.31 934.79 2449.86 464.67 2447.89 464.67 2431.44 934.79"/>
    <path class="cls-1" d="m2448.88,447.86s2.68,18.93,14.53,23.56c-10.94-.92-13.45-3.94-13.45-3.94,0,0-5.25,7.86-15.73,3.94,10.03-2.77,14.65-23.56,14.65-23.56Z"/>
    <path class="cls-1" d="m2488.62,937.42h-84.83s-5.83-37.83,0-42.12c5.83-4.3,4.77,35.46,4.77,35.46,0,0,7.95-18.38,10.6-14.56,2.65,3.82.53,14.56.53,14.56,0,0,18.56-18.27,22.27-10.21s2.95,11.82,2.95,11.82c0,0,11.37-23.1,22.5-20.42,11.13,2.69,11.66,17.73,11.66,17.73,0,0,4.77-24.18,9.54-23.64,4.77.54,0,31.38,0,31.38Z"/>
    <path class="cls-4" d="m2448.88,727.86s6.87,35.31,45.04,43.91c-32.46,24.24-45.04,4.84-45.04,4.84,0,0-21.11,24.72-47.68,1.61,21.68-4.3,40.24-20.24,47.68-50.35Z"/>
    <path class="cls-4" d="m2448.88,563.83s13.94,42.02,49.64,46.26c-18.91,10.16-24.82,3.71-24.82,3.71,0,0-14.86,24.18-39.47,4.84-11.88,11.28-21.96.54-21.96.54,0,0,25.49-9.67,36.6-55.34Z"/>
    <path class="cls-4" d="m2448.88,485.89s9.9,26.72,31,24.26c-9.87,14.26-22.46,6.25-22.46,6.25,0,0-11.11,8.5-15.8-.25-1.97,8-9.02,4.5-10.19-1.75-5.36,3.25-10.55,2.75-13.01-3,26.28-1.25,30.45-25.51,30.45-25.51Z"/>
    <polyline class="cls-3" points="2442.96 672.44 2434.84 662.92 2432.82 662.92 2440.26 682.68"/>
    <polyline class="cls-3" points="2449.15 543.56 2455.39 540.57 2457.15 545.03 2451.4 549.82"/>
    <polyline class="cls-3" points="2456.47 809.11 2466.31 799.17 2468.64 806.02 2459.52 822.12"/>
    <polyline class="cls-3" points="2440.93 866.99 2429.44 853.63 2425.72 858.09 2434.84 883.78"/>
    <path class="cls-11" d="m2448.7,855c0,3.22,2.57,5.82,5.75,5.82,3.17,0,5.75-2.61,5.75-5.82s-2.57-5.82-5.75-5.82c-3.17,0-5.75,2.61-5.75,5.82Z"/>
    <path class="cls-11" d="m2438.87,897.65c0,1.99,1.59,3.6,3.55,3.6s3.55-1.61,3.55-3.6c0-1.99-1.59-3.6-3.55-3.6-1.96,0-3.55,1.61-3.55,3.6Z"/>
    <path class="cls-11" d="m2440.93,877.42c0,1.41,1.13,2.56,2.52,2.56s2.52-1.14,2.52-2.56-1.13-2.56-2.52-2.56-2.52,1.14-2.52,2.56Z"/>
    <ellipse class="cls-11" cx="2445.16" cy="795.41" rx="3.72" ry="3.77"/>
    <path class="cls-11" d="m2449.87,683.63c0,.53.42.95.94.95s.94-.43.94-.95c0-.53-.42-.95-.94-.95s-.94.43-.94.95Z"/>
    <path class="cls-11" d="m2441.95,656.31c0,1.8,1.44,3.25,3.21,3.25,1.77,0,3.21-1.46,3.21-3.25,0-1.8-1.44-3.25-3.21-3.25s-3.21,1.46-3.21,3.25Z"/>
    <path class="cls-11" d="m2447.35,642.47c0,1.23.98,2.23,2.2,2.23s2.2-1,2.2-2.23c0-1.23-.98-2.23-2.2-2.23s-2.2,1-2.2,2.23Z"/>
    <path class="cls-11" d="m2447.56,555.28c0,.56.44,1.01.99,1.01s.99-.45.99-1.01c0-.56-.44-1.01-.99-1.01s-.99.45-.99,1.01Z"/>
    <path class="cls-1" d="m2448.88,662.92s38.01,134.44,167.93,132.36c-62.91,46.43-90.95,24.95-90.95,24.95,0,0-2.74,22.18-19.15,24.95-16.41,2.77-25.3-14.55-25.3-14.55,0,0-30.09,32.57-60.17,0-21.88,24.25-40.34,12.47-43.76-5.54-45.13,18.71-71.12-18.71-71.12-18.71,0,0,121.61-8.32,142.52-143.45Z"/>
    <path class="cls-1" d="m2448.71,542.2s22.47,74.81,87.25,64.39c-21.18,22.41-47.03,18.31-47.03,18.31,0,0,3.11,15.15-9.03,19.57-12.15,4.42-20.24-5.05-20.24-5.05,0,0-28.03,27.14-48.9-4.42-21.49,25.25-52.63,1.26-57.31-22.09,30.21,11.05,65.35-11.99,78.3-30.3,12.95-18.31,16.96-40.4,16.96-40.4Z"/>
    <path class="cls-1" d="m2448.88,471.65s37.05,46.79,81.62,37.25c-29.04,41.86-51.94,16.58-51.94,16.58,0,0-12.34,24.87-29.69,4.14-17.34,22.38-30.02-.83-30.02-.83,0,0-29.44,22.38-51.94-13.68,42.53,6.22,81.96-43.47,81.96-43.47Z"/>
    <path class="cls-4" d="m2451.09,664.55s27.73,34.88,54.8,35.88c-14.68,4.96-27.4-4.99-27.4-4.99,0,0,6.52,9.95,0,10.61-6.52.66-16.31-4.96-16.31-4.96,0,0-23.81,18.84-37.51-1.98-15.33,8.59-27.07-5.29-27.07-5.29,0,0,33.27,12.21,53.49-29.27Z"/>
  </g>
  <g>
    <path class="cls-4" d="m3655.84,801.49s-19.88,41.15-61.49,30.98c-9.68,27.28-27.92,16.18-27.92,16.18,0,0-13.23,20.88-31.02-2.04-6.39,31.63-40.6.65-48.81-7.67-16.42,25.89-54.29,18.49-50.18-5.09-28.28,13.87-45.62-6.47-46.99-21.27,36.04,2.77,119.95-23.68,119.95-23.68"/>
    <path class="cls-4" d="m3580.64,628.26s-5.88,14.24-21.64,17.15c7.22,8.73-10.98,25.23-23.74,19.08-4.79,15.85-23.13,6.21-23.13,6.21,0,0-25.88,10.28-34.57-6.21-15.71,11.32-54.64-2.91-45.07-30.08,19.47,10.35,91.63-16.17,91.63-16.17l56.52,10.01Z"/>
    <path class="cls-4" d="m3561.75,542.89s-3.99,14.88-20.34,7.44c-.72,22.64-26.99,21.97-28.7,9.53-9.68,11.82-17.05,1.14-17.05,1.14,0,0-28.7,4.85-28.06-18.11.64-22.96,88.09-14.56,94.15,0Z"/>
    <polygon class="cls-3" points="3495.66 927.44 3528.59 927.44 3513.06 483.5 3511.19 483.5 3495.66 927.44"/>
    <path class="cls-1" d="m3512.12,467.63s2.53,17.88,13.72,22.24c-10.33-.87-12.7-3.72-12.7-3.72,0,0-4.95,7.42-14.85,3.72,9.47-2.61,13.83-22.24,13.83-22.24Z"/>
    <path class="cls-1" d="m3549.65,929.93h-80.1s-5.51-35.72,0-39.78c5.51-4.06,4.51,33.49,4.51,33.49,0,0,7.51-17.36,10.01-13.75,2.5,3.6.5,13.75.5,13.75,0,0,17.52-17.25,21.03-9.64,3.5,7.61,2.78,11.16,2.78,11.16,0,0,10.74-21.82,21.25-19.28,10.51,2.54,11.01,16.74,11.01,16.74,0,0,4.51-22.83,9.01-22.33,4.51.51,0,29.63,0,29.63Z"/>
    <path class="cls-4" d="m3512.12,732.04s6.49,33.34,42.54,41.46c-30.66,22.89-42.54,4.57-42.54,4.57,0,0-19.93,23.34-45.02,1.52,20.47-4.06,38-19.12,45.02-47.55Z"/>
    <path class="cls-4" d="m3512.12,577.14s13.16,39.68,46.87,43.68c-17.86,9.59-23.44,3.5-23.44,3.5,0,0-14.03,22.83-37.27,4.57-11.22,10.66-20.73.51-20.73.51,0,0,24.07-9.13,34.57-52.26Z"/>
    <path class="cls-4" d="m3512.12,503.54s9.35,25.23,29.28,22.91c-9.32,13.46-21.21,5.9-21.21,5.9,0,0-10.49,8.03-14.92-.24-1.86,7.56-8.52,4.25-9.62-1.65-5.06,3.07-9.96,2.6-12.29-2.83,24.82-1.18,28.76-24.09,28.76-24.09Z"/>
    <polyline class="cls-3" points="3506.53 679.7 3498.87 670.71 3496.96 670.71 3503.99 689.37"/>
    <polyline class="cls-3" points="3512.39 558 3518.28 555.18 3519.94 559.38 3514.51 563.91"/>
    <polyline class="cls-3" points="3519.3 808.76 3528.59 799.38 3530.79 805.85 3522.17 821.05"/>
    <polyline class="cls-3" points="3504.62 863.42 3493.77 850.8 3490.26 855.01 3498.87 879.27"/>
    <path class="cls-11" d="m3511.96,852.1c0,3.04,2.43,5.5,5.43,5.5,3,0,5.43-2.46,5.43-5.5s-2.43-5.5-5.43-5.5c-3,0-5.43,2.46-5.43,5.5Z"/>
    <path class="cls-11" d="m3502.68,892.37c0,1.88,1.5,3.4,3.35,3.4s3.35-1.52,3.35-3.4-1.5-3.4-3.35-3.4-3.35,1.52-3.35,3.4Z"/>
    <path class="cls-11" d="m3504.62,873.27c0,1.33,1.07,2.41,2.38,2.41s2.38-1.08,2.38-2.41c0-1.33-1.07-2.41-2.38-2.41s-2.38,1.08-2.38,2.41Z"/>
    <ellipse class="cls-11" cx="3508.61" cy="795.82" rx="3.51" ry="3.56"/>
    <path class="cls-11" d="m3513.06,690.27c0,.5.4.9.89.9s.89-.4.89-.9c0-.5-.4-.9-.89-.9s-.89.4-.89.9Z"/>
    <path class="cls-11" d="m3505.58,664.47c0,1.7,1.36,3.07,3.03,3.07,1.67,0,3.03-1.38,3.03-3.07,0-1.7-1.36-3.07-3.03-3.07s-3.03,1.38-3.03,3.07Z"/>
    <path class="cls-11" d="m3510.68,651.4c0,1.16.93,2.1,2.07,2.1s2.07-.94,2.07-2.1-.93-2.1-2.07-2.1-2.07.94-2.07,2.1Z"/>
    <path class="cls-11" d="m3510.88,569.06c0,.52.42.95.94.95s.94-.43.94-.95c0-.52-.42-.95-.94-.95s-.94.43-.94.95Z"/>
    <path class="cls-1" d="m3512.12,670.71s35.89,126.96,158.58,124.99c-59.41,43.85-85.88,23.56-85.88,23.56,0,0-2.58,20.94-18.08,23.56-15.5,2.62-23.89-13.74-23.89-13.74,0,0-28.41,30.76-56.82,0-20.66,22.9-38.1,11.78-41.33-5.24-42.62,17.67-67.16-17.67-67.16-17.67,0,0,114.83-7.85,134.58-135.46Z"/>
    <path class="cls-1" d="m3511.97,556.72s21.22,70.64,82.39,60.8c-20,21.16-44.41,17.29-44.41,17.29,0,0,2.94,14.31-8.53,18.48-11.47,4.17-19.12-4.77-19.12-4.77,0,0-26.47,25.63-46.17-4.17-20.29,23.84-49.7,1.19-54.11-20.86,28.53,10.43,61.71-11.33,73.94-28.61,12.23-17.29,16.01-38.15,16.01-38.15Z"/>
    <path class="cls-1" d="m3512.12,490.09s34.98,44.18,77.08,35.18c-27.42,39.53-49.05,15.66-49.05,15.66,0,0-11.66,23.48-28.03,3.91-16.38,21.13-28.35-.78-28.35-.78,0,0-27.81,21.13-49.05-12.92,40.16,5.87,77.4-41.05,77.4-41.05Z"/>
    <path class="cls-4" d="m3514.21,672.25s26.18,32.94,51.75,33.88c-13.86,4.68-25.87-4.71-25.87-4.71,0,0,6.16,9.4,0,10.02-6.16.62-15.4-4.68-15.4-4.68,0,0-22.49,17.79-35.42-1.87-14.48,8.12-25.57-4.99-25.57-4.99,0,0,31.42,11.53,50.51-27.64Z"/>
  </g>
  <g>
    <path class="cls-1" d="m3800.64,926.85h109.36s4.84-44.54-32.82-39.61c1.08-36.51-43.04-27.83-36.58,0-27.97-27.24-41.48,7.69-41.48,7.69,0,0-22.42-43.18-57.72-8.25-27.23-31.59-55.2,11.07-29.92,40.17h89.15Z"/>
    <g>
      <polyline class="cls-9" points="3649.43 664.55 3660.72 678.24 3698.63 666.87 3704 682.75 3657.73 687.81 3644.1 669.56"/>
      <path class="cls-9" d="m3712.47,639.89c-.64-.86-53.46-37.78-53.46-37.78l-3.07,9.55,43.54,50.03"/>
      <polyline class="cls-9" points="3937.88 593.91 3933.05 632.69 3895.86 664.55 3885.47 645.38 3924.96 627.86 3929.85 593.91"/>
      <path class="cls-9" d="m3780.29,817.68c-.86-1.64-48.28-59.54-48.28-59.54l15.09-4.37,33.19,43.97"/>
      <polyline class="cls-9" points="3811.78 811.01 3854.9 755.85 3862.98 759.96 3811.78 826.05"/>
      <rect class="cls-9" x="3778.48" y="762.57" width="44.31" height="163.73" transform="translate(7601.28 1688.87) rotate(-180)"/>
      <path class="cls-7" d="m3713.65,558.32c0,35.21,20.61,65.52,50.27,79.23,10.85,5.04,22.92,7.83,35.65,7.83,47.43,0,85.9-38.97,85.9-87.06s-38.47-87.08-85.9-87.08c-32.53,0-60.84,18.33-75.42,45.36-6.7,12.37-10.5,26.59-10.5,41.72Z"/>
      <path class="cls-1" d="m3713.65,558.32c0,35.21,20.61,65.52,50.27,79.23,22.2-9.91,37.71-32.42,37.71-58.6,0-35.35-28.28-64-63.15-64-4.93,0-9.72.57-14.32,1.65-6.7,12.37-10.5,26.59-10.5,41.72Z"/>
      <path class="cls-7" d="m3684.94,669.55c0,13.43,2.25,26.34,6.39,38.34,7.78,22.54,22.22,41.92,40.93,55.68,2.83,2.1,5.78,4.07,8.81,5.88,17.12,10.35,37.13,16.27,58.5,16.27,13.06,0,25.62-2.22,37.32-6.29,10.46-3.66,20.24-8.79,29.09-15.18,29.17-21.05,48.21-55.62,48.21-94.69,0-2.69-.1-5.37-.27-8.01-4.06-60.4-53.72-108.16-114.35-108.16-63.31,0-114.63,52.03-114.63,116.17Z"/>
      <ellipse class="cls-7" cx="3935.3" cy="575.84" rx="27.56" ry="27.93"/>
      <ellipse class="cls-7" cx="3648.19" cy="590.63" rx="36.74" ry="37.24"/>
      <path class="cls-1" d="m3854.15,926.3h-117.03s5.93-10.4,19.4-5.2c-.54-22.94,28.57-24.58,30.72-6.55,10.24-15.84,10.96,4.92,10.96,4.92,0,0,17.61-16.93,31.62-2.73,11.32-10.38,25.3-4.57,24.33,9.57Z"/>
      <path class="cls-3" d="m3807.2,892.28c0,2.79,2.23,5.05,4.99,5.05s4.99-2.26,4.99-5.05c0-2.79-2.23-5.05-4.99-5.05-2.75,0-4.99,2.26-4.99,5.05Z"/>
      <path class="cls-3" d="m3781.91,856.72c0,6.64,5.31,12.02,11.86,12.02,6.55,0,11.86-5.38,11.86-12.02s-5.31-12.02-11.86-12.02c-6.55,0-11.86,5.38-11.86,12.02Z"/>
      <ellipse class="cls-3" cx="3808.9" cy="822.28" rx="3.28" ry="3.32"/>
      <path class="cls-3" d="m3787.39,798.27c0,2.9,2.32,5.26,5.19,5.26,2.87,0,5.19-2.35,5.19-5.26s-2.32-5.26-5.19-5.26c-2.87,0-5.19,2.35-5.19,5.26Z"/>
      <path class="cls-3" d="m3787.39,881.67c0,1.45,1.16,2.63,2.59,2.63s2.59-1.18,2.59-2.63c0-1.45-1.16-2.63-2.59-2.63s-2.59,1.18-2.59,2.63Z"/>
      <path class="cls-3" d="m3808.9,838.98c0,2.31,1.85,4.19,4.13,4.19s4.13-1.87,4.13-4.19c0-2.31-1.85-4.19-4.13-4.19-2.28,0-4.13,1.87-4.13,4.19Z"/>
      <path class="cls-1" d="m3940.06,608.8s6.45-6.7,13.71,0c-8.39,6.87-13.71,0-13.71,0Z"/>
      <path class="cls-1" d="m3938.02,596.56s1.57-9.23,11.3-7.88c-3.07,10.48-11.3,7.88-11.3,7.88Z"/>
      <path class="cls-1" d="m3934.98,596.85s-8.17-4.39-3.87-13.34c8.87,6.22,3.87,13.34,3.87,13.34Z"/>
      <path class="cls-1" d="m3668.54,606.71s-8.17-4.39-3.87-13.34c8.87,6.22,3.87,13.34,3.87,13.34Z"/>
      <path class="cls-1" d="m3660.21,667.96s-3.19-8.79,5.91-12.54c2.5,10.63-5.91,12.54-5.91,12.54Z"/>
      <path class="cls-1" d="m3634.96,678.05s-4.8,8.01-13.36,3.13c6.65-8.61,13.36-3.13,13.36-3.13Z"/>
      <path class="cls-1" d="m3775.9,705.97s-2.49,9.02-12.03,6.67c4.11-10.11,12.03-6.67,12.03-6.67Z"/>
      <path class="cls-1" d="m3655.68,619.04s-17,9.69-27.78-8.26c21.02-8.86,27.78,8.26,27.78,8.26Z"/>
      <path class="cls-1" d="m3797.9,539.64s-18.46-6.38-12.44-26.49c20.53,9.98,12.44,26.49,12.44,26.49Z"/>
      <path class="cls-1" d="m3661.04,606.96s-13.08,4.37-18.13-9.56c15.75-3.23,18.13,9.56,18.13,9.56Z"/>
      <path class="cls-1" d="m3685.05,614.97s-2.07-13.8,12.32-16.53c.52,16.28-12.32,16.53-12.32,16.53Z"/>
      <path class="cls-1" d="m3805.4,547.91s-2.07-13.8,12.32-16.53c.52,16.28-12.32,16.53-12.32,16.53Z"/>
      <path class="cls-1" d="m3634.26,696.07s-2.07-13.8,12.32-16.53c.52,16.28-12.32,16.53-12.32,16.53Z"/>
      <path class="cls-1" d="m3940.29,587.34s-14.03-7.63-6.54-23.01c15.22,10.8,6.54,23.01,6.54,23.01Z"/>
      <path class="cls-1" d="m3755.84,716.8s-14.03-7.63-6.54-23.01c15.22,10.8,6.54,23.01,6.54,23.01Z"/>
      <path class="cls-7" d="m3628.28,661.69c0,7.56,6.05,13.69,13.51,13.69,7.46,0,13.51-6.13,13.51-13.69,0-7.56-6.05-13.69-13.51-13.69-7.46,0-13.51,6.13-13.51,13.69Z"/>
      <path class="cls-1" d="m3805.29,720.26c0,24.76,12.58,46.56,31.6,59.17,10.46-3.66,20.24-8.79,29.09-15.18,29.17-21.05,48.21-55.62,48.21-94.69,0-2.69-.1-5.37-.27-8.01-11.1-7.57-24.45-11.98-38.86-11.98-35.61,0-65,27.05-69.25,61.96-.35,2.87-.52,5.78-.52,8.73Z"/>
      <path class="cls-1" d="m3732.26,763.57c2.83,2.1,5.78,4.07,8.81,5.88,17.12,10.35,37.13,16.27,58.5,16.27,13.06,0,25.62-2.22,37.32-6.29,10.46-3.66,20.24-8.79,29.09-15.18-6.91-28.3-30.84-49.8-60.17-52.71-2.23-.22-4.5-.33-6.79-.33-18.52,0-35.32,7.4-47.71,19.43-9.1,8.85-15.82,20.18-19.06,32.95Z"/>
      <path class="cls-1" d="m3691.33,707.89c7.78,22.54,22.22,41.92,40.93,55.68,2.83,2.1,5.78,4.07,8.81,5.88,7.18-7.24,11.63-17.27,11.63-28.34,0-3.62-.49-7.14-1.38-10.48-4.54-16.99-19.85-29.48-38.06-29.48-8.11,0-15.66,2.5-21.93,6.75Z"/>
    </g>
    <ellipse class="cls-2" cx="3867.65" cy="701.03" rx="25.31" ry="25.66"/>
    <path class="cls-2" d="m3832.22,749.16c0,5.98,4.78,10.83,10.68,10.83,5.9,0,10.68-4.85,10.68-10.83s-4.78-10.83-10.68-10.83-10.68,4.85-10.68,10.83Z"/>
  </g>
</svg>