<?xml version="1.0" encoding="UTF-8"?>
<svg id="forest_front" data-name="forest front" xmlns="http://www.w3.org/2000/svg" viewBox="0 0 4023 1080">
  <defs>
    <style>
      .cls-1 {
        fill: #25a977;
      }

      .cls-2 {
        fill: #1b8d67;
      }

      .cls-3 {
        fill: #6c2950;
      }

      .cls-4 {
        fill: #258265;
      }

      .cls-5 {
        fill: #ffdd3a;
      }

      .cls-6 {
        fill: #f17a40;
      }

      .cls-7 {
        fill: #36cd88;
      }

      .cls-8 {
        fill: #f99d46;
      }

      .cls-9 {
        fill: #853866;
      }

      .cls-10 {
        fill: #fabb50;
      }

      .cls-11 {
        fill: #582949;
      }
    </style>
  </defs>
  <g>
    <path class="cls-1" d="m225.78,1029.95h-108.11s-4.79-43.45,32.44-38.64c-1.06-35.61,42.55-27.14,36.16,0,27.65-26.57,41.01,7.5,41.01,7.5,0,0,22.16-42.12,57.06-8.05,26.91-30.81,54.57,10.8,29.57,39.19h-88.13Z"/>
    <g>
      <polyline class="cls-9" points="375.26 774.1 364.1 787.46 326.63 776.36 321.31 791.86 367.05 796.79 380.53 778.99"/>
      <path class="cls-9" d="m312.94,750.04c.63-.84,52.85-36.85,52.85-36.85l3.04,9.31-43.04,48.8"/>
      <polyline class="cls-9" points="90.11 705.2 94.89 743.03 131.65 774.1 141.93 755.4 102.88 738.32 98.05 705.2"/>
      <path class="cls-9" d="m245.89,923.47c.85-1.6,47.73-58.08,47.73-58.08l-14.92-4.26-32.81,42.89"/>
      <polyline class="cls-9" points="214.77 916.97 172.15 863.16 164.15 867.17 214.77 931.64"/>
      <rect class="cls-9" x="203.88" y="869.71" width="43.8" height="159.71"/>
      <path class="cls-7" d="m311.78,670.48c0,34.34-20.38,63.91-49.69,77.28-10.73,4.91-22.66,7.64-35.24,7.64-46.89,0-84.92-38.01-84.92-84.92s38.03-84.94,84.92-84.94c32.16,0,60.15,17.88,74.56,44.24,6.62,12.07,10.38,25.94,10.38,40.69Z"/>
      <path class="cls-1" d="m311.78,670.48c0,34.34-20.38,63.91-49.69,77.28-21.95-9.67-37.28-31.62-37.28-57.16,0-34.48,27.95-62.43,62.43-62.43,4.87,0,9.61.56,14.16,1.61,6.62,12.07,10.38,25.94,10.38,40.69Z"/>
      <path class="cls-7" d="m340.16,778.98c0,13.1-2.23,25.69-6.31,37.39-7.69,21.99-21.97,40.89-40.46,54.32-2.8,2.05-5.72,3.97-8.71,5.74-16.92,10.09-36.7,15.87-57.83,15.87-12.91,0-25.33-2.17-36.9-6.14-10.34-3.57-20.01-8.58-28.76-14.81-28.84-20.53-47.66-54.26-47.66-92.36,0-2.63.1-5.24.27-7.81,4.01-58.92,53.11-105.5,113.04-105.5s113.31,50.75,113.31,113.31Z"/>
      <circle class="cls-7" cx="92.67" cy="687.57" r="27.24" transform="translate(-598.53 627.67) rotate(-77.37)"/>
      <circle class="cls-7" cx="376.49" cy="701.99" r="36.32" transform="translate(-386.11 471.83) rotate(-45)"/>
      <path class="cls-1" d="m172.89,1029.42h115.69s-5.86-10.15-19.18-5.07c.53-22.38-28.24-23.98-30.37-6.39-10.12-15.45-10.83,4.8-10.83,4.8,0,0-17.41-16.52-31.26-2.66-11.19-10.12-25.01-4.45-24.05,9.34Z"/>
      <path class="cls-3" d="m219.3,996.24c0,2.72-2.21,4.93-4.93,4.93s-4.93-2.21-4.93-4.93,2.21-4.93,4.93-4.93,4.93,2.21,4.93,4.93Z"/>
      <path class="cls-3" d="m244.3,961.56c0,6.47-5.25,11.72-11.72,11.72s-11.72-5.25-11.72-11.72,5.25-11.72,11.72-11.72,11.72,5.25,11.72,11.72Z"/>
      <circle class="cls-3" cx="217.61" cy="927.95" r="3.24"/>
      <path class="cls-3" d="m238.88,904.53c0,2.83-2.3,5.13-5.13,5.13s-5.13-2.3-5.13-5.13,2.3-5.13,5.13-5.13,5.13,2.3,5.13,5.13Z"/>
      <path class="cls-3" d="m238.88,985.89c0,1.42-1.15,2.56-2.56,2.56s-2.56-1.15-2.56-2.56,1.15-2.56,2.56-2.56,2.56,1.15,2.56,2.56Z"/>
      <path class="cls-3" d="m217.61,944.25c0,2.26-1.83,4.08-4.08,4.08s-4.08-1.83-4.08-4.08,1.83-4.08,4.08-4.08,4.08,1.83,4.08,4.08Z"/>
      <path class="cls-1" d="m87.96,719.73s-6.38-6.54-13.56,0c8.29,6.7,13.56,0,13.56,0Z"/>
      <path class="cls-1" d="m89.97,707.79s-1.55-9-11.17-7.69c3.03,10.22,11.17,7.69,11.17,7.69Z"/>
      <path class="cls-1" d="m92.97,708.06s8.07-4.28,3.82-13.01c-8.77,6.07-3.82,13.01-3.82,13.01Z"/>
      <path class="cls-1" d="m356.37,717.68s8.07-4.28,3.82-13.01c-8.77,6.07-3.82,13.01-3.82,13.01Z"/>
      <path class="cls-1" d="m364.61,777.43s3.15-8.58-5.84-12.23c-2.47,10.37,5.84,12.23,5.84,12.23Z"/>
      <path class="cls-1" d="m389.57,787.27s4.74,7.81,13.21,3.05c-6.57-8.4-13.21-3.05-13.21-3.05Z"/>
      <path class="cls-1" d="m250.24,814.5s2.46,8.8,11.89,6.51c-4.06-9.86-11.89-6.51-11.89-6.51Z"/>
      <path class="cls-1" d="m369.08,729.71s16.81,9.46,27.46-8.05c-20.78-8.64-27.46,8.05-27.46,8.05Z"/>
      <path class="cls-1" d="m228.49,652.27s18.25-6.23,12.3-25.84c-20.29,9.73-12.3,25.84-12.3,25.84Z"/>
      <path class="cls-1" d="m363.79,717.93s12.93,4.26,17.93-9.32c-15.57-3.15-17.93,9.32-17.93,9.32Z"/>
      <path class="cls-1" d="m340.05,725.74s2.05-13.46-12.18-16.13c-.52,15.88,12.18,16.13,12.18,16.13Z"/>
      <path class="cls-1" d="m221.08,660.33s2.05-13.46-12.18-16.13c-.52,15.88,12.18,16.13,12.18,16.13Z"/>
      <path class="cls-1" d="m390.26,804.85s2.05-13.46-12.18-16.13c-.52,15.88,12.18,16.13,12.18,16.13Z"/>
      <path class="cls-1" d="m87.73,698.79s13.87-7.44,6.47-22.44c-15.05,10.53-6.47,22.44-6.47,22.44Z"/>
      <path class="cls-1" d="m270.07,825.07s13.87-7.44,6.47-22.44c-15.05,10.53-6.47,22.44-6.47,22.44Z"/>
      <path class="cls-7" d="m396.17,771.31c0,7.37-5.98,13.35-13.35,13.35s-13.35-5.98-13.35-13.35,5.98-13.35,13.35-13.35,13.35,5.98,13.35,13.35Z"/>
      <path class="cls-1" d="m221.18,828.44c0,24.16-12.43,45.41-31.23,57.71-10.34-3.57-20.01-8.58-28.76-14.81-28.84-20.53-47.66-54.26-47.66-92.36,0-2.63.1-5.24.27-7.81,10.97-7.39,24.17-11.68,38.41-11.68,35.21,0,64.25,26.38,68.46,60.44.35,2.8.52,5.64.52,8.52Z"/>
      <path class="cls-1" d="m293.38,870.69c-2.8,2.05-5.72,3.97-8.71,5.74-16.92,10.09-36.7,15.87-57.83,15.87-12.91,0-25.33-2.17-36.9-6.14-10.34-3.57-20.01-8.58-28.76-14.81,6.83-27.61,30.49-48.58,59.48-51.42,2.21-.21,4.45-.33,6.72-.33,18.3,0,34.92,7.21,47.16,18.96,9,8.63,15.64,19.68,18.84,32.14Z"/>
      <path class="cls-1" d="m333.84,816.37c-7.69,21.99-21.97,40.89-40.46,54.32-2.8,2.05-5.72,3.97-8.71,5.74-7.1-7.06-11.49-16.85-11.49-27.65,0-3.53.48-6.96,1.36-10.23,4.49-16.58,19.63-28.76,37.62-28.76,8.02,0,15.48,2.44,21.68,6.58Z"/>
    </g>
    <circle class="cls-2" cx="159.54" cy="809.69" r="25.03" transform="translate(-297.71 122.69) rotate(-22.5)"/>
    <path class="cls-2" d="m194.56,856.64c0,5.83-4.73,10.56-10.56,10.56s-10.56-4.73-10.56-10.56,4.73-10.56,10.56-10.56,10.56,4.73,10.56,10.56Z"/>
  </g>
  <g>
    <path class="cls-10" d="m783.7,997.15h180.94s-8.67-31.66-26.97-21.19c-2.89-37.7-34.62-42.51-44.76-16.51-15.92-28.9-101.35-23.17-109.21,22.61"/>
    <g>
      <path class="cls-9" d="m745.73,731.55l31.96,48.22v16.98l-39.06-60.56c-.7-1.08-.87-2.42-.46-3.64h0c1.12-3.35,5.61-3.95,7.56-1Z"/>
      <path class="cls-8" d="m910,674.29v127.11c0,40.34-32.68,73.02-73.02,73.02s-73.02-32.68-73.02-73.02v-127.11c0-7.74,1.2-15.2,3.43-22.19,9.39-29.49,36.99-50.83,69.58-50.83,20.16,0,38.43,8.17,51.64,21.38,6.67,6.67,12.05,14.61,15.75,23.45,3.62,8.68,5.63,18.19,5.63,28.19Z"/>
      <path class="cls-9" d="m827.81,672.77h21.46c3.13,0,5.67,2.54,5.67,5.67v318.71h-32.81v-318.71c0-3.13,2.54-5.67,5.67-5.67Z"/>
      <path class="cls-9" d="m801.39,727.31l31.96,48.22v16.98l-39.06-60.56c-.7-1.08-.87-2.42-.46-3.64h0c1.12-3.35,5.61-3.95,7.56-1Z"/>
      <path class="cls-9" d="m810.62,794.39l40.8,61.56-4.43,28.97-51.86-80.41c-1.52-2.36-1.89-5.28-1-7.94h0c2.44-7.32,12.23-8.61,16.49-2.19Z"/>
      <path class="cls-9" d="m872,682.59l-31.96,48.22v16.98l39.06-60.56c.7-1.08.87-2.42.46-3.64h0c-1.12-3.35-5.61-3.95-7.56-1Z"/>
      <path class="cls-9" d="m883.38,845.33l-31.96,48.22v16.98l39.06-60.56c.7-1.08.87-2.42.46-3.64h0c-1.12-3.35-5.61-3.95-7.56-1Z"/>
      <circle class="cls-10" cx="748.17" cy="714.24" r="33.55"/>
      <circle class="cls-10" cx="907.97" cy="818.51" r="42.57"/>
      <circle class="cls-5" cx="894.42" cy="800.75" r="10.28"/>
      <circle class="cls-5" cx="926.86" cy="812.31" r="15.15"/>
      <path class="cls-5" d="m731.17,710.91c0,1.84-1.49,3.33-3.33,3.33s-3.33-1.49-3.33-3.33,1.49-3.33,3.33-3.33,3.33,1.49,3.33,3.33Z"/>
      <circle class="cls-5" cx="738.55" cy="695.64" r="4.51"/>
      <circle class="cls-5" cx="762.27" cy="706.38" r="10.73"/>
      <path class="cls-8" d="m916.92,772.07s-4.16-14.31,11.97-15.9c2.87,15.9-11.97,15.9-11.97,15.9Z"/>
      <path class="cls-6" d="m783.7,822.82s8.97-11.91,19.9.05c-11.01,11.83-19.9-.05-19.9-.05Z"/>
      <path class="cls-6" d="m775.01,802.29s13.63-6.03,17.36,9.74c-15.38,4.97-17.36-9.74-17.36-9.74Z"/>
      <path class="cls-6" d="m884.41,691.1s-2.61-14.67,13.59-14.54c1.17,16.12-13.59,14.54-13.59,14.54Z"/>
      <path class="cls-6" d="m871.29,706.55s10.8-20.48,30.53-4.85c-13.95,20.87-30.53,4.85-30.53,4.85Z"/>
      <path class="cls-8" d="m888.47,862.02s13.92,5.32,5.46,19.14c-14.42-7.3-5.46-19.14-5.46-19.14Z"/>
      <path class="cls-8" d="m899.96,865.67s18.35-5.7,20.78,15.05c-20.43,4.08-20.78-15.05-20.78-15.05Z"/>
      <path class="cls-8" d="m741.62,777.81s-9.45-11.52,4.75-19.33c8.9,13.49-4.75,19.33-4.75,19.33Z"/>
      <path class="cls-8" d="m713.12,753.23s13.66-17.31,29.43.75c-16.68,17.13-29.43-.75-29.43-.75Z"/>
      <ellipse class="cls-3" cx="833.22" cy="704.13" rx="3.77" ry="12.99"/>
      <path class="cls-3" d="m846.44,892.09c0,24.53-2.12,44.41-4.73,44.41s-4.73-19.89-4.73-44.41,2.12-44.41,4.73-44.41,4.73,19.89,4.73,44.41Z"/>
      <ellipse class="cls-3" cx="833.22" cy="812.31" rx="3.77" ry="12.99"/>
      <ellipse class="cls-3" cx="842.68" cy="753.58" rx="5.69" ry="29.99"/>
      <path class="cls-10" d="m904.37,646.11c-60.91-51.5-115.57-13.55-136.97,5.99,9.39-29.49,36.99-50.83,69.58-50.83,20.16,0,38.43,8.17,51.64,21.38,6.67,6.67,12.05,14.61,15.75,23.45Z"/>
      <path class="cls-6" d="m879.78,999.59h-151.95s1.34-38.84,39.57-28.92c10.3-35.16,47.19-14.14,36.4,13.64,25.26-19.06,69.03-4.45,75.98,15.28Z"/>
      <path class="cls-8" d="m798.25,997.15h-56.05c5.49-8.05,14.98-16.54,30.52-12.86,6.91-12.58,28.02-5.18,25.52,12.86Z"/>
    </g>
  </g>
  <g>
    <path class="cls-4" d="m368.52,889.99s24.8,50.66,76.72,38.14c12.07,33.58,34.84,19.92,34.84,19.92,0,0,16.51,25.71,38.71-2.51,7.97,38.94,50.66.81,60.91-9.44,20.49,31.88,67.74,22.77,62.61-6.26,35.29,17.08,56.92-7.97,58.63-26.18-44.97,3.42-149.67-29.15-149.67-29.15"/>
    <path class="cls-4" d="m462.35,676.72s7.34,17.54,27.01,21.12c-9,10.75,13.7,31.06,29.63,23.5,5.97,19.51,28.86,7.65,28.86,7.65,0,0,32.29,12.66,43.13-7.65,19.6,13.94,68.18-3.58,56.24-37.04-24.29,12.74-114.34-19.91-114.34-19.91l-70.52,12.33Z"/>
    <path class="cls-4" d="m485.93,571.6s4.97,18.32,25.38,9.16c.9,27.88,33.68,27.05,35.81,11.73,12.08,14.55,21.27,1.41,21.27,1.41,0,0,35.81,5.97,35.02-22.3-.8-28.27-109.91-17.92-117.48,0Z"/>
    <polygon class="cls-3" points="568.39 1045.07 527.3 1045.07 546.69 498.49 549.01 498.49 568.39 1045.07"/>
    <path class="cls-1" d="m547.85,478.94s-3.15,22.01-17.12,27.39c12.89-1.07,15.84-4.58,15.84-4.58,0,0,6.18,9.14,18.54,4.58-11.82-3.22-17.26-27.39-17.26-27.39Z"/>
    <path class="cls-1" d="m501.02,1048.13h99.95s6.87-43.98,0-48.98c-6.87-5-5.62,41.23-5.62,41.23,0,0-9.37-21.37-12.49-16.93-3.12,4.44-.62,16.93-.62,16.93,0,0-21.86-21.24-26.24-11.87-4.37,9.37-3.47,13.74-3.47,13.74,0,0-13.4-26.86-26.52-23.74-13.12,3.12-13.74,20.62-13.74,20.62,0,0-5.62-28.11-11.24-27.49-5.62.62,0,36.48,0,36.48Z"/>
    <path class="cls-4" d="m547.85,804.48s-8.1,41.05-53.08,51.05c38.25,28.18,53.08,5.62,53.08,5.62,0,0,24.87,28.74,56.18,1.87-25.54-5-47.42-23.54-56.18-58.55Z"/>
    <path class="cls-4" d="m547.85,613.77s-16.42,48.85-58.49,53.79c22.28,11.81,29.24,4.31,29.24,4.31,0,0,17.51,28.11,46.5,5.62,14,13.12,25.87.62,25.87.62,0,0-30.04-11.24-43.13-64.34Z"/>
    <path class="cls-4" d="m547.85,523.16s-11.66,31.06-36.53,28.21c11.63,16.58,26.46,7.27,26.46,7.27,0,0,13.09,9.89,18.61-.29,2.33,9.31,10.63,5.23,12-2.04,6.32,3.78,12.43,3.2,15.34-3.49-30.96-1.45-35.88-29.66-35.88-29.66Z"/>
    <polyline class="cls-3" points="554.83 740.05 564.38 728.98 566.77 728.98 558 751.96"/>
    <polyline class="cls-3" points="547.52 590.21 540.17 586.73 538.1 591.91 544.87 597.48"/>
    <polyline class="cls-3" points="538.9 898.94 527.3 887.4 524.56 895.36 535.31 914.08"/>
    <polyline class="cls-3" points="557.22 966.25 570.76 950.71 575.14 955.89 564.38 985.76"/>
    <path class="cls-11" d="m548.06,952.31c0,3.74-3.03,6.77-6.77,6.77s-6.77-3.03-6.77-6.77,3.03-6.77,6.77-6.77,6.77,3.03,6.77,6.77Z"/>
    <path class="cls-11" d="m559.64,1001.89c0,2.31-1.87,4.18-4.18,4.18s-4.18-1.87-4.18-4.18,1.87-4.18,4.18-4.18,4.18,1.87,4.18,4.18Z"/>
    <path class="cls-11" d="m557.22,978.38c0,1.64-1.33,2.97-2.97,2.97s-2.97-1.33-2.97-2.97,1.33-2.97,2.97-2.97,2.97,1.33,2.97,2.97Z"/>
    <circle class="cls-11" cx="552.23" cy="883.02" r="4.38"/>
    <path class="cls-11" d="m546.68,753.06c0,.61-.49,1.11-1.11,1.11s-1.11-.49-1.11-1.11.49-1.11,1.11-1.11,1.11.49,1.11,1.11Z"/>
    <path class="cls-11" d="m556.01,721.29c0,2.09-1.69,3.78-3.78,3.78s-3.78-1.69-3.78-3.78,1.69-3.78,3.78-3.78,3.78,1.69,3.78,3.78Z"/>
    <path class="cls-11" d="m549.65,705.2c0,1.43-1.16,2.59-2.59,2.59s-2.59-1.16-2.59-2.59,1.16-2.59,2.59-2.59,2.59,1.16,2.59,2.59Z"/>
    <path class="cls-11" d="m549.4,603.83c0,.65-.52,1.17-1.17,1.17s-1.17-.52-1.17-1.17.52-1.17,1.17-1.17,1.17.52,1.17,1.17Z"/>
    <path class="cls-1" d="m547.85,728.98s-44.78,156.31-197.87,153.89c74.13,53.98,107.16,29.01,107.16,29.01,0,0,3.22,25.78,22.56,29.01,19.34,3.22,29.81-16.92,29.81-16.92,0,0,35.45,37.87,70.9,0,25.78,28.2,47.54,14.5,51.57-6.45,53.18,21.75,83.8-21.75,83.8-21.75,0,0-143.29-9.67-167.93-166.78Z"/>
    <path class="cls-1" d="m548.05,588.63s-26.47,86.97-102.8,74.86c24.95,26.05,55.41,21.28,55.41,21.28,0,0-3.67,17.61,10.64,22.75,14.31,5.14,23.85-5.87,23.85-5.87,0,0,33.03,31.56,57.61-5.14,25.32,29.36,62.02,1.47,67.52-25.69-35.6,12.84-77-13.95-92.26-35.23-15.26-21.28-19.98-46.97-19.98-46.97Z"/>
    <path class="cls-1" d="m547.85,506.6s-43.65,54.4-96.18,43.31c34.21,48.67,61.2,19.27,61.2,19.27,0,0,14.54,28.91,34.98,4.82,20.44,26.02,35.37-.96,35.37-.96,0,0,34.7,26.02,61.2-15.9-50.12,7.23-96.57-50.54-96.57-50.54Z"/>
    <path class="cls-4" d="m545.24,730.87s-32.67,40.56-64.57,41.71c17.3,5.77,32.28-5.8,32.28-5.8,0,0-7.69,11.57,0,12.34,7.69.77,19.22-5.77,19.22-5.77,0,0,28.06,21.91,44.2-2.31,18.06,9.99,31.9-6.15,31.9-6.15,0,0-39.2,14.2-63.03-34.03Z"/>
  </g>
  <g>
    <path class="cls-4" d="m989.74,904.82s18.34,37.45,56.72,28.19c8.93,24.83,25.76,14.73,25.76,14.73,0,0,12.2,19,28.61-1.86,5.89,28.79,37.45.6,45.02-6.98,15.15,23.56,50.07,16.83,46.29-4.63,26.09,12.62,42.08-5.89,43.34-19.36-33.24,2.52-110.64-21.55-110.64-21.55"/>
    <path class="cls-4" d="m1059.11,747.16s5.42,12.96,19.96,15.61c-6.66,7.95,10.12,22.96,21.9,17.37,4.42,14.42,21.34,5.65,21.34,5.65,0,0,23.87,9.36,31.88-5.65,14.49,10.3,50.4-2.65,41.57-27.38-17.96,9.42-84.52-14.72-84.52-14.72l-52.13,9.11Z"/>
    <path class="cls-4" d="m1076.54,669.46s3.68,13.54,18.77,6.77c.66,20.61,24.9,20,26.47,8.67,8.93,10.76,15.72,1.04,15.72,1.04,0,0,26.47,4.42,25.89-16.49-.59-20.9-81.25-13.25-86.84,0Z"/>
    <polygon class="cls-3" points="1137.5 1019.46 1107.12 1019.46 1121.45 615.41 1123.17 615.41 1137.5 1019.46"/>
    <path class="cls-1" d="m1122.31,600.96s-2.33,16.27-12.66,20.25c9.53-.79,11.71-3.38,11.71-3.38,0,0,4.57,6.75,13.7,3.38-8.74-2.38-12.76-20.25-12.76-20.25Z"/>
    <path class="cls-1" d="m1087.69,1021.73h73.89s5.08-32.51,0-36.2c-5.08-3.69-4.16,30.48-4.16,30.48,0,0-6.93-15.8-9.24-12.52-2.31,3.28-.46,12.52-.46,12.52,0,0-16.16-15.7-19.4-8.77-3.23,6.93-2.57,10.16-2.57,10.16,0,0-9.9-19.86-19.6-17.55-9.7,2.31-10.16,15.24-10.16,15.24,0,0-4.16-20.78-8.31-20.32-4.16.46,0,26.97,0,26.97Z"/>
    <path class="cls-4" d="m1122.31,841.61s-5.98,30.35-39.23,37.74c28.28,20.83,39.23,4.16,39.23,4.16,0,0,18.39,21.24,41.53,1.39-18.88-3.69-35.05-17.4-41.53-43.28Z"/>
    <path class="cls-4" d="m1122.31,700.63s-12.14,36.11-43.24,39.76c16.47,8.73,21.62,3.19,21.62,3.19,0,0,12.94,20.78,34.38,4.16,10.35,9.7,19.13.46,19.13.46,0,0-22.2-8.31-31.88-47.57Z"/>
    <path class="cls-4" d="m1122.31,633.65s-8.62,22.96-27,20.85c8.6,12.25,19.56,5.37,19.56,5.37,0,0,9.67,7.31,13.76-.21,1.72,6.88,7.85,3.87,8.87-1.5,4.67,2.79,9.19,2.36,11.34-2.58-22.89-1.07-26.52-21.93-26.52-21.93Z"/>
    <polyline class="cls-3" points="1127.47 793.98 1134.53 785.8 1136.3 785.8 1129.81 802.78"/>
    <polyline class="cls-3" points="1122.07 683.21 1116.63 680.64 1115.11 684.47 1120.11 688.59"/>
    <polyline class="cls-3" points="1115.69 911.44 1107.12 902.9 1105.1 908.79 1113.04 922.63"/>
    <polyline class="cls-3" points="1129.24 961.19 1139.24 949.71 1142.48 953.54 1134.53 975.62"/>
    <path class="cls-11" d="m1122.46,950.89c0,2.76-2.24,5-5,5s-5-2.24-5-5,2.24-5,5-5,5,2.24,5,5Z"/>
    <path class="cls-11" d="m1131.03,987.54c0,1.71-1.38,3.09-3.09,3.09s-3.09-1.38-3.09-3.09,1.38-3.09,3.09-3.09,3.09,1.38,3.09,3.09Z"/>
    <path class="cls-11" d="m1129.24,970.16c0,1.21-.98,2.2-2.2,2.2s-2.2-.98-2.2-2.2.98-2.2,2.2-2.2,2.2.98,2.2,2.2Z"/>
    <circle class="cls-11" cx="1125.55" cy="899.67" r="3.24"/>
    <path class="cls-11" d="m1121.45,803.6c0,.45-.37.82-.82.82s-.82-.37-.82-.82.37-.82.82-.82.82.37.82.82Z"/>
    <path class="cls-11" d="m1128.35,780.11c0,1.54-1.25,2.8-2.8,2.8s-2.8-1.25-2.8-2.8,1.25-2.8,2.8-2.8,2.8,1.25,2.8,2.8Z"/>
    <path class="cls-11" d="m1123.64,768.22c0,1.06-.86,1.91-1.91,1.91s-1.91-.86-1.91-1.91.86-1.91,1.91-1.91,1.91.86,1.91,1.91Z"/>
    <path class="cls-11" d="m1123.46,693.28c0,.48-.39.86-.86.86s-.86-.39-.86-.86.39-.86.86-.86.86.39.86.86Z"/>
    <path class="cls-1" d="m1122.31,785.8s-33.1,115.55-146.27,113.76c54.8,39.91,79.22,21.44,79.22,21.44,0,0,2.38,19.06,16.68,21.44,14.29,2.38,22.04-12.51,22.04-12.51,0,0,26.21,27.99,52.41,0,19.06,20.85,35.14,10.72,38.12-4.76,39.31,16.08,61.94-16.08,61.94-16.08,0,0-105.92-7.15-124.14-123.29Z"/>
    <path class="cls-1" d="m1122.46,682.05s-19.57,64.29-76,55.34c18.45,19.26,40.96,15.73,40.96,15.73,0,0-2.71,13.02,7.87,16.82,10.58,3.8,17.63-4.34,17.63-4.34,0,0,24.42,23.33,42.59-3.8,18.72,21.7,45.85,1.09,49.92-18.99-26.31,9.49-56.92-10.31-68.2-26.04-11.28-15.73-14.77-34.72-14.77-34.72Z"/>
    <path class="cls-1" d="m1122.31,621.4s-32.27,40.21-71.1,32.02c25.29,35.98,45.24,14.25,45.24,14.25,0,0,10.75,21.37,25.86,3.56,15.11,19.24,26.15-.71,26.15-.71,0,0,25.65,19.24,45.24-11.76-37.05,5.34-71.39-37.36-71.39-37.36Z"/>
    <path class="cls-4" d="m1120.38,787.2s-24.15,29.98-47.73,30.84c12.79,4.26,23.87-4.29,23.87-4.29,0,0-5.68,8.55,0,9.12,5.68.57,14.21-4.26,14.21-4.26,0,0,20.74,16.19,32.67-1.7,13.35,7.39,23.58-4.55,23.58-4.55,0,0-28.98,10.5-46.59-25.15Z"/>
  </g>
  <g>
    <path class="cls-1" d="m1363.85,956.29h-87.67s-3.88-35.23,26.31-31.34c-.86-28.88,34.5-22.01,29.33,0,22.43-21.55,33.26,6.08,33.26,6.08,0,0,17.97-34.16,46.27-6.53,21.83-24.99,44.25,8.76,23.98,31.78h-71.47Z"/>
    <g>
      <polyline class="cls-9" points="1485.08 748.8 1476.03 759.63 1445.63 750.63 1441.32 763.2 1478.42 767.19 1489.35 752.76"/>
      <path class="cls-9" d="m1434.53,729.29c.51-.68,42.86-29.88,42.86-29.88l2.46,7.55-34.91,39.57"/>
      <polyline class="cls-9" points="1253.83 692.92 1257.7 723.59 1287.52 748.8 1295.85 733.63 1264.18 719.77 1260.26 692.92"/>
      <path class="cls-9" d="m1380.16,869.93c.69-1.3,38.71-47.1,38.71-47.1l-12.1-3.46-26.61,34.78"/>
      <polyline class="cls-9" points="1354.92 864.66 1320.35 821.02 1313.87 824.27 1354.92 876.56"/>
      <rect class="cls-9" x="1346.09" y="826.34" width="35.52" height="129.52"/>
      <path class="cls-7" d="m1433.59,664.76c0,27.85-16.52,51.83-40.3,62.67-8.7,3.98-18.38,6.19-28.58,6.19-38.03,0-68.87-30.82-68.87-68.87s30.84-68.88,68.87-68.88c26.08,0,48.78,14.5,60.46,35.88,5.37,9.79,8.42,21.04,8.42,33Z"/>
      <path class="cls-1" d="m1433.59,664.76c0,27.85-16.52,51.83-40.3,62.67-17.8-7.84-30.23-25.64-30.23-46.35,0-27.96,22.67-50.63,50.63-50.63,3.95,0,7.8.45,11.48,1.31,5.37,9.79,8.42,21.04,8.42,33Z"/>
      <path class="cls-7" d="m1456.61,752.75c0,10.63-1.81,20.83-5.12,30.33-6.24,17.83-17.82,33.16-32.82,44.05-2.27,1.66-4.64,3.22-7.06,4.65-13.72,8.18-29.77,12.87-46.9,12.87-10.47,0-20.54-1.76-29.92-4.98-8.39-2.89-16.23-6.96-23.32-12.01-23.39-16.65-38.65-44-38.65-74.9,0-2.13.08-4.25.22-6.33,3.25-47.78,43.07-85.56,91.68-85.56s91.89,41.15,91.89,91.89Z"/>
      <circle class="cls-7" cx="1255.9" cy="678.62" r="22.09" transform="translate(319.1 1755.76) rotate(-77.37)"/>
      <circle class="cls-7" cx="1486.07" cy="690.32" r="29.46" transform="translate(-52.87 1253) rotate(-45)"/>
      <path class="cls-1" d="m1320.95,955.86h93.83s-4.75-8.23-15.56-4.11c.43-18.15-22.9-19.44-24.63-5.18-8.21-12.53-8.79,3.89-8.79,3.89,0,0-14.12-13.39-25.35-2.16-9.07-8.21-20.28-3.61-19.51,7.57Z"/>
      <path class="cls-3" d="m1358.6,928.95c0,2.21-1.79,4-4,4s-4-1.79-4-4,1.79-4,4-4,4,1.79,4,4Z"/>
      <path class="cls-3" d="m1378.87,900.82c0,5.25-4.26,9.51-9.51,9.51s-9.51-4.26-9.51-9.51,4.26-9.51,9.51-9.51,9.51,4.26,9.51,9.51Z"/>
      <circle class="cls-3" cx="1357.23" cy="873.57" r="2.63"/>
      <path class="cls-3" d="m1374.47,854.57c0,2.3-1.86,4.16-4.16,4.16s-4.16-1.86-4.16-4.16,1.86-4.16,4.16-4.16,4.16,1.86,4.16,4.16Z"/>
      <path class="cls-3" d="m1374.47,920.55c0,1.15-.93,2.08-2.08,2.08s-2.08-.93-2.08-2.08.93-2.08,2.08-2.08,2.08.93,2.08,2.08Z"/>
      <path class="cls-3" d="m1357.23,886.78c0,1.83-1.48,3.31-3.31,3.31s-3.31-1.48-3.31-3.31,1.48-3.31,3.31-3.31,3.31,1.48,3.31,3.31Z"/>
      <path class="cls-1" d="m1252.08,704.7s-5.17-5.3-11,0c6.73,5.43,11,0,11,0Z"/>
      <path class="cls-1" d="m1253.71,695.02s-1.26-7.3-9.06-6.23c2.46,8.29,9.06,6.23,9.06,6.23Z"/>
      <path class="cls-1" d="m1256.15,695.24s6.55-3.47,3.1-10.55c-7.11,4.92-3.1,10.55-3.1,10.55Z"/>
      <path class="cls-1" d="m1469.76,703.04s6.55-3.47,3.1-10.55c-7.11,4.92-3.1,10.55-3.1,10.55Z"/>
      <path class="cls-1" d="m1476.43,751.49s2.56-6.95-4.74-9.92c-2,8.41,4.74,9.92,4.74,9.92Z"/>
      <path class="cls-1" d="m1496.68,759.47s3.85,6.33,10.71,2.48c-5.33-6.81-10.71-2.48-10.71-2.48Z"/>
      <path class="cls-1" d="m1383.69,781.56s1.99,7.14,9.65,5.28c-3.29-8-9.65-5.28-9.65-5.28Z"/>
      <path class="cls-1" d="m1480.07,712.8s13.63,7.67,22.27-6.53c-16.85-7.01-22.27,6.53-22.27,6.53Z"/>
      <path class="cls-1" d="m1366.05,649.99s14.8-5.05,9.97-20.96c-16.46,7.89-9.97,20.96-9.97,20.96Z"/>
      <path class="cls-1" d="m1475.77,703.24s10.49,3.45,14.54-7.56c-12.63-2.56-14.54,7.56-14.54,7.56Z"/>
      <path class="cls-1" d="m1456.52,709.58s1.66-10.92-9.88-13.08c-.42,12.88,9.88,13.08,9.88,13.08Z"/>
      <path class="cls-1" d="m1360.04,656.53s1.66-10.92-9.88-13.08c-.42,12.88,9.88,13.08,9.88,13.08Z"/>
      <path class="cls-1" d="m1497.24,773.73s1.66-10.92-9.88-13.08c-.42,12.88,9.88,13.08,9.88,13.08Z"/>
      <path class="cls-1" d="m1251.9,687.72s11.25-6.03,5.25-18.2c-12.2,8.54-5.25,18.2-5.25,18.2Z"/>
      <path class="cls-1" d="m1399.77,790.13s11.25-6.03,5.25-18.2c-12.2,8.54-5.25,18.2-5.25,18.2Z"/>
      <path class="cls-7" d="m1502.03,746.53c0,5.98-4.85,10.83-10.83,10.83s-10.83-4.85-10.83-10.83,4.85-10.83,10.83-10.83,10.83,4.85,10.83,10.83Z"/>
      <path class="cls-1" d="m1360.12,792.86c0,19.59-10.08,36.83-25.33,46.8-8.39-2.89-16.23-6.96-23.32-12.01-23.39-16.65-38.65-44-38.65-74.9,0-2.13.08-4.25.22-6.33,8.9-5.99,19.6-9.48,31.15-9.48,28.55,0,52.11,21.39,55.52,49.01.28,2.27.42,4.57.42,6.91Z"/>
      <path class="cls-1" d="m1418.67,827.13c-2.27,1.66-4.64,3.22-7.06,4.65-13.72,8.18-29.77,12.87-46.9,12.87-10.47,0-20.54-1.76-29.92-4.98-8.39-2.89-16.23-6.96-23.32-12.01,5.54-22.39,24.72-39.4,48.23-41.7,1.79-.17,3.61-.26,5.45-.26,14.84,0,28.32,5.85,38.25,15.37,7.3,7,12.68,15.96,15.28,26.06Z"/>
      <path class="cls-1" d="m1451.49,783.08c-6.24,17.83-17.82,33.16-32.82,44.05-2.27,1.66-4.64,3.22-7.06,4.65-5.76-5.73-9.32-13.66-9.32-22.42,0-2.86.39-5.65,1.1-8.29,3.64-13.44,15.92-23.32,30.51-23.32,6.5,0,12.56,1.98,17.58,5.34Z"/>
    </g>
    <circle class="cls-2" cx="1310.13" cy="777.66" r="20.29" transform="translate(-197.87 560.56) rotate(-22.5)"/>
    <path class="cls-2" d="m1338.53,815.73c0,4.73-3.83,8.57-8.57,8.57s-8.57-3.83-8.57-8.57,3.83-8.57,8.57-8.57,8.57,3.83,8.57,8.57Z"/>
  </g>
  <g>
    <path class="cls-4" d="m1466.07,900.37s20.99,42.87,64.93,32.28c10.22,28.42,29.49,16.86,29.49,16.86,0,0,13.97,21.76,32.76-2.13,6.74,32.96,42.87.68,51.54-7.99,17.34,26.98,57.32,19.27,52.99-5.3,29.87,14.45,48.17-6.74,49.62-22.16-38.06,2.89-126.66-24.67-126.66-24.67"/>
    <path class="cls-4" d="m1545.48,719.88s6.21,14.84,22.85,17.87c-7.62,9.1,11.59,26.29,25.07,19.88,5.06,16.51,24.43,6.47,24.43,6.47,0,0,27.33,10.71,36.5-6.47,16.59,11.8,57.7-3.03,47.59-31.34-20.56,10.78-96.76-16.85-96.76-16.85l-59.68,10.43Z"/>
    <path class="cls-4" d="m1565.43,630.92s4.21,15.5,21.48,7.75c.76,23.59,28.5,22.89,30.3,9.93,10.22,12.31,18,1.19,18,1.19,0,0,30.31,5.06,29.63-18.87-.67-23.93-93.02-15.17-99.42,0Z"/>
    <polygon class="cls-3" points="1635.22 1031.61 1600.44 1031.61 1616.85 569.04 1618.81 569.04 1635.22 1031.61"/>
    <path class="cls-1" d="m1617.83,552.5s-2.67,18.63-14.49,23.18c10.91-.9,13.41-3.87,13.41-3.87,0,0,5.23,7.73,15.69,3.87-10-2.72-14.61-23.18-14.61-23.18Z"/>
    <path class="cls-1" d="m1578.2,1034.2h84.59s5.82-37.22,0-41.45c-5.82-4.23-4.76,34.89-4.76,34.89,0,0-7.93-18.08-10.57-14.33-2.64,3.76-.53,14.33-.53,14.33,0,0-18.5-17.98-22.2-10.04-3.7,7.93-2.94,11.63-2.94,11.63,0,0-11.34-22.73-22.44-20.09-11.1,2.64-11.63,17.45-11.63,17.45,0,0-4.76-23.79-9.52-23.26-4.76.53,0,30.87,0,30.87Z"/>
    <path class="cls-4" d="m1617.83,828s-6.85,34.74-44.92,43.2c32.37,23.85,44.92,4.76,44.92,4.76,0,0,21.05,24.32,47.54,1.59-21.62-4.23-40.13-19.92-47.54-49.55Z"/>
    <path class="cls-4" d="m1617.83,666.61s-13.9,41.34-49.5,45.52c18.86,9.99,24.75,3.65,24.75,3.65,0,0,14.82,23.79,39.35,4.76,11.85,11.1,21.89.53,21.89.53,0,0-25.42-9.52-36.5-54.45Z"/>
    <path class="cls-4" d="m1617.83,589.92s-9.87,26.29-30.92,23.87c9.84,14.03,22.4,6.15,22.4,6.15,0,0,11.07,8.37,15.75-.25,1.97,7.88,8.99,4.43,10.16-1.72,5.35,3.2,10.52,2.71,12.98-2.95-26.21-1.23-30.37-25.1-30.37-25.1Z"/>
    <polyline class="cls-3" points="1623.74 773.47 1631.83 764.11 1633.85 764.11 1626.42 783.55"/>
    <polyline class="cls-3" points="1617.56 646.66 1611.33 643.72 1609.58 648.1 1615.31 652.82"/>
    <polyline class="cls-3" points="1610.26 907.94 1600.44 898.17 1598.12 904.91 1607.22 920.75"/>
    <polyline class="cls-3" points="1625.76 964.9 1637.22 951.76 1640.92 956.14 1631.83 981.41"/>
    <path class="cls-11" d="m1618.01,953.1c0,3.16-2.57,5.73-5.73,5.73s-5.73-2.57-5.73-5.73,2.57-5.73,5.73-5.73,5.73,2.57,5.73,5.73Z"/>
    <path class="cls-11" d="m1627.81,995.06c0,1.95-1.58,3.54-3.54,3.54s-3.54-1.58-3.54-3.54,1.58-3.54,3.54-3.54,3.54,1.58,3.54,3.54Z"/>
    <path class="cls-11" d="m1625.76,975.17c0,1.39-1.13,2.51-2.51,2.51s-2.51-1.13-2.51-2.51,1.13-2.51,2.51-2.51,2.51,1.13,2.51,2.51Z"/>
    <circle class="cls-11" cx="1621.54" cy="894.46" r="3.71"/>
    <path class="cls-11" d="m1616.85,784.48c0,.52-.42.94-.94.94s-.94-.42-.94-.94.42-.94.94-.94.94.42.94.94Z"/>
    <path class="cls-11" d="m1624.74,757.6c0,1.77-1.43,3.2-3.2,3.2s-3.2-1.43-3.2-3.2,1.43-3.2,3.2-3.2,3.2,1.43,3.2,3.2Z"/>
    <path class="cls-11" d="m1619.36,743.98c0,1.21-.98,2.19-2.19,2.19s-2.19-.98-2.19-2.19.98-2.19,2.19-2.19,2.19.98,2.19,2.19Z"/>
    <path class="cls-11" d="m1619.14,658.19c0,.55-.44.99-.99.99s-.99-.44-.99-.99.44-.99.99-.99.99.44.99.99Z"/>
    <path class="cls-1" d="m1617.83,764.11s-37.9,132.28-167.45,130.24c62.73,45.69,90.69,24.55,90.69,24.55,0,0,2.73,21.82,19.09,24.55,16.36,2.73,25.23-14.32,25.23-14.32,0,0,30,32.05,60,0,21.82,23.87,40.23,12.27,43.64-5.46,45,18.41,70.91-18.41,70.91-18.41,0,0-121.26-8.18-142.12-141.15Z"/>
    <path class="cls-1" d="m1618,645.33s-22.4,73.6-87,63.36c21.12,22.05,46.9,18.01,46.9,18.01,0,0-3.11,14.91,9.01,19.26,12.11,4.35,20.19-4.97,20.19-4.97,0,0,27.95,26.71,48.76-4.35,21.43,24.85,52.49,1.24,57.14-21.74-30.13,10.87-65.16-11.8-78.08-29.81-12.92-18.01-16.91-39.75-16.91-39.75Z"/>
    <path class="cls-1" d="m1617.83,575.9s-36.94,46.03-81.39,36.65c28.95,41.19,51.79,16.31,51.79,16.31,0,0,12.31,24.47,29.6,4.08,17.29,22.02,29.94-.82,29.94-.82,0,0,29.36,22.02,51.79-13.46-42.41,6.12-81.73-42.77-81.73-42.77Z"/>
    <path class="cls-4" d="m1615.63,765.71s-27.65,34.32-54.64,35.3c14.64,4.88,27.32-4.91,27.32-4.91,0,0-6.51,9.79,0,10.44,6.51.65,16.26-4.88,16.26-4.88,0,0,23.74,18.54,37.41-1.95,15.29,8.46,27-5.2,27-5.2,0,0-33.18,12.02-53.34-28.8Z"/>
  </g>
  <g>
    <path class="cls-1" d="m1901.12,1004.13h-110.36s-4.89-44.35,33.12-39.44c-1.09-36.35,43.43-27.71,36.92,0,28.23-27.12,41.86,7.66,41.86,7.66,0,0,22.63-42.99,58.24-8.21,27.47-31.45,55.7,11.02,30.19,40h-89.96Z"/>
    <g>
      <polyline class="cls-9" points="2053.71 742.95 2042.32 756.58 2004.06 745.26 1998.63 761.08 2045.32 766.11 2059.08 747.94"/>
      <path class="cls-9" d="m1990.09,718.39c.64-.86,53.95-37.61,53.95-37.61l3.1,9.51-43.94,49.81"/>
      <polyline class="cls-9" points="1762.63 672.61 1767.5 711.23 1805.03 742.95 1815.52 723.86 1775.66 706.42 1770.73 672.61"/>
      <path class="cls-9" d="m1921.65,895.43c.86-1.63,48.72-59.28,48.72-59.28l-15.23-4.35-33.5,43.78"/>
      <polyline class="cls-9" points="1889.88 888.79 1846.37 833.86 1838.21 837.96 1889.88 903.77"/>
      <rect class="cls-9" x="1878.76" y="840.55" width="44.71" height="163.03"/>
      <path class="cls-7" d="m1988.9,637.18c0,35.06-20.8,65.24-50.73,78.89-10.95,5.01-23.13,7.79-35.98,7.79-47.87,0-86.68-38.8-86.68-86.68s38.82-86.7,86.68-86.7c32.82,0,61.4,18.25,76.11,45.16,6.76,12.32,10.6,26.48,10.6,41.54Z"/>
      <path class="cls-1" d="m1988.9,637.18c0,35.06-20.8,65.24-50.73,78.89-22.41-9.87-38.05-32.28-38.05-58.34,0-35.19,28.54-63.73,63.73-63.73,4.97,0,9.81.57,14.45,1.65,6.76,12.32,10.6,26.48,10.6,41.54Z"/>
      <path class="cls-7" d="m2017.87,747.93c0,13.38-2.27,26.22-6.44,38.17-7.85,22.44-22.43,41.74-41.31,55.45-2.86,2.1-5.84,4.05-8.89,5.86-17.27,10.3-37.47,16.2-59.03,16.2-13.18,0-25.85-2.21-37.66-6.27-10.56-3.64-20.43-8.75-29.36-15.12-29.44-20.96-48.65-55.39-48.65-94.28,0-2.68.1-5.35.27-7.97,4.09-60.15,54.21-107.7,115.4-107.7s115.67,51.8,115.67,115.67Z"/>
      <circle class="cls-7" cx="1765.23" cy="654.62" r="27.81" transform="translate(740.5 2234.02) rotate(-77.37)"/>
      <circle class="cls-7" cx="2054.96" cy="669.35" r="37.08" transform="translate(128.58 1649.12) rotate(-45)"/>
      <path class="cls-1" d="m1847.12,1003.58h118.1s-5.98-10.36-19.58-5.18c.54-22.84-28.83-24.47-31-6.53-10.33-15.77-11.06,4.89-11.06,4.89,0,0-17.77-16.86-31.91-2.72-11.42-10.33-25.53-4.55-24.55,9.53Z"/>
      <path class="cls-3" d="m1894.5,969.71c0,2.78-2.25,5.03-5.03,5.03s-5.03-2.25-5.03-5.03,2.25-5.03,5.03-5.03,5.03,2.25,5.03,5.03Z"/>
      <path class="cls-3" d="m1920.02,934.3c0,6.61-5.36,11.97-11.97,11.97s-11.97-5.36-11.97-11.97,5.36-11.97,11.97-11.97,11.97,5.36,11.97,11.97Z"/>
      <circle class="cls-3" cx="1892.78" cy="900" r="3.31"/>
      <path class="cls-3" d="m1914.49,876.1c0,2.89-2.34,5.23-5.23,5.23s-5.23-2.34-5.23-5.23,2.34-5.23,5.23-5.23,5.23,2.34,5.23,5.23Z"/>
      <path class="cls-3" d="m1914.49,959.14c0,1.45-1.17,2.62-2.62,2.62s-2.62-1.17-2.62-2.62,1.17-2.62,2.62-2.62,2.62,1.17,2.62,2.62Z"/>
      <path class="cls-3" d="m1892.78,916.64c0,2.3-1.87,4.17-4.17,4.17s-4.17-1.87-4.17-4.17,1.87-4.17,4.17-4.17,4.17,1.87,4.17,4.17Z"/>
      <path class="cls-1" d="m1760.43,687.45s-6.51-6.68-13.84,0c8.47,6.84,13.84,0,13.84,0Z"/>
      <path class="cls-1" d="m1762.48,675.26s-1.58-9.19-11.4-7.85c3.1,10.43,11.4,7.85,11.4,7.85Z"/>
      <path class="cls-1" d="m1765.55,675.54s8.24-4.37,3.9-13.28c-8.95,6.2-3.9,13.28-3.9,13.28Z"/>
      <path class="cls-1" d="m2034.42,685.36s8.24-4.37,3.9-13.28c-8.95,6.2-3.9,13.28-3.9,13.28Z"/>
      <path class="cls-1" d="m2042.83,746.35s3.22-8.75-5.96-12.49c-2.52,10.59,5.96,12.49,5.96,12.49Z"/>
      <path class="cls-1" d="m2068.31,756.39s4.84,7.97,13.48,3.12c-6.71-8.57-13.48-3.12-13.48-3.12Z"/>
      <path class="cls-1" d="m1926.09,784.19s2.51,8.98,12.14,6.64c-4.14-10.06-12.14-6.64-12.14-6.64Z"/>
      <path class="cls-1" d="m2047.4,697.64s17.16,9.65,28.03-8.22c-21.21-8.82-28.03,8.22-28.03,8.22Z"/>
      <path class="cls-1" d="m1903.88,618.58s18.63-6.36,12.55-26.38c-20.71,9.93-12.55,26.38-12.55,26.38Z"/>
      <path class="cls-1" d="m2041.99,685.61s13.2,4.35,18.3-9.52c-15.9-3.22-18.3,9.52-18.3,9.52Z"/>
      <path class="cls-1" d="m2017.76,693.59s2.09-13.74-12.43-16.46c-.53,16.21,12.43,16.46,12.43,16.46Z"/>
      <path class="cls-1" d="m1896.32,626.81s2.09-13.74-12.43-16.46c-.53,16.21,12.43,16.46,12.43,16.46Z"/>
      <path class="cls-1" d="m2069.01,774.34s2.09-13.74-12.43-16.46c-.53,16.21,12.43,16.46,12.43,16.46Z"/>
      <path class="cls-1" d="m1760.2,666.08s14.16-7.6,6.6-22.91c-15.36,10.75-6.6,22.91-6.6,22.91Z"/>
      <path class="cls-1" d="m1946.33,794.98s14.16-7.6,6.6-22.91c-15.36,10.75-6.6,22.91-6.6,22.91Z"/>
      <path class="cls-7" d="m2075.05,740.1c0,7.53-6.1,13.63-13.63,13.63s-13.63-6.1-13.63-13.63,6.1-13.63,13.63-13.63,13.63,6.1,13.63,13.63Z"/>
      <path class="cls-1" d="m1896.42,798.42c0,24.66-12.69,46.36-31.88,58.91-10.56-3.64-20.43-8.75-29.36-15.12-29.44-20.96-48.65-55.39-48.65-94.28,0-2.68.1-5.35.27-7.97,11.2-7.54,24.68-11.93,39.21-11.93,35.94,0,65.59,26.93,69.88,61.69.35,2.86.53,5.76.53,8.7Z"/>
      <path class="cls-1" d="m1970.12,841.55c-2.86,2.1-5.84,4.05-8.89,5.86-17.27,10.3-37.47,16.2-59.03,16.2-13.18,0-25.85-2.21-37.66-6.27-10.56-3.64-20.43-8.75-29.36-15.12,6.97-28.18,31.12-49.59,60.71-52.49,2.25-.22,4.54-.33,6.85-.33,18.68,0,35.65,7.36,48.14,19.35,9.19,8.81,15.96,20.09,19.23,32.81Z"/>
      <path class="cls-1" d="m2011.43,786.1c-7.85,22.44-22.43,41.74-41.31,55.45-2.86,2.1-5.84,4.05-8.89,5.86-7.25-7.21-11.73-17.2-11.73-28.22,0-3.6.49-7.11,1.39-10.44,4.58-16.92,20.04-29.36,38.41-29.36,8.19,0,15.81,2.49,22.13,6.72Z"/>
    </g>
    <circle class="cls-2" cx="1833.49" cy="779.28" r="25.55" transform="translate(-158.65 760.97) rotate(-22.5)"/>
    <path class="cls-2" d="m1869.25,827.2c0,5.95-4.83,10.78-10.78,10.78s-10.78-4.83-10.78-10.78,4.83-10.78,10.78-10.78,10.78,4.83,10.78,10.78Z"/>
  </g>
  <g>
    <path class="cls-4" d="m2039.86,878.54s24.62,50.29,76.16,37.86c11.99,33.34,34.59,19.78,34.59,19.78,0,0,16.39,25.52,38.42-2.5,7.91,38.66,50.29.8,60.46-9.37,20.34,31.64,67.24,22.6,62.16-6.22,35.03,16.95,56.5-7.91,58.2-25.99-44.64,3.39-148.57-28.94-148.57-28.94"/>
    <path class="cls-4" d="m2133.01,666.83s7.28,17.41,26.81,20.97c-8.94,10.67,13.6,30.83,29.41,23.32,5.93,19.37,28.65,7.59,28.65,7.59,0,0,32.05,12.57,42.81-7.59,19.46,13.84,67.69-3.56,55.83-36.76-24.11,12.65-113.5-19.77-113.5-19.77l-70.01,12.24Z"/>
    <path class="cls-4" d="m2156.42,562.48s4.94,18.18,25.2,9.09c.89,27.67,33.44,26.85,35.55,11.65,11.99,14.44,21.11,1.4,21.11,1.4,0,0,35.55,5.93,34.76-22.14-.79-28.07-109.11-17.79-116.62,0Z"/>
    <polygon class="cls-3" points="2238.28 1032.48 2197.49 1032.48 2216.73 489.9 2219.03 489.9 2238.28 1032.48"/>
    <path class="cls-1" d="m2217.88,470.5s-3.13,21.85-16.99,27.19c12.8-1.06,15.73-4.54,15.73-4.54,0,0,6.14,9.07,18.4,4.54-11.73-3.19-17.13-27.19-17.13-27.19Z"/>
    <path class="cls-1" d="m2171.4,1035.53h99.22s6.82-43.66,0-48.62c-6.82-4.96-5.58,40.93-5.58,40.93,0,0-9.3-21.21-12.4-16.81-3.1,4.41-.62,16.81-.62,16.81,0,0-21.7-21.08-26.05-11.78-4.34,9.3-3.45,13.64-3.45,13.64,0,0-13.3-26.67-26.32-23.56-13.02,3.1-13.64,20.46-13.64,20.46,0,0-5.58-27.91-11.16-27.29-5.58.62,0,36.21,0,36.21Z"/>
    <path class="cls-4" d="m2217.88,793.66s-8.04,40.75-52.69,50.68c37.97,27.98,52.69,5.58,52.69,5.58,0,0,24.69,28.53,55.77,1.86-25.36-4.96-47.07-23.36-55.77-58.12Z"/>
    <path class="cls-4" d="m2217.88,604.34s-16.3,48.49-58.06,53.39c22.12,11.72,29.03,4.28,29.03,4.28,0,0,17.38,27.91,46.16,5.58,13.9,13.02,25.68.62,25.68.62,0,0-29.82-11.16-42.81-63.87Z"/>
    <path class="cls-4" d="m2217.88,514.39s-11.58,30.83-36.26,28c11.55,16.45,26.27,7.22,26.27,7.22,0,0,12.99,9.82,18.48-.29,2.31,9.24,10.55,5.2,11.91-2.02,6.27,3.75,12.34,3.18,15.22-3.46-30.74-1.44-35.62-29.45-35.62-29.45Z"/>
    <polyline class="cls-3" points="2224.81 729.7 2234.3 718.71 2236.67 718.71 2227.96 741.52"/>
    <polyline class="cls-3" points="2217.56 580.95 2210.26 577.5 2208.21 582.64 2214.93 588.18"/>
    <polyline class="cls-3" points="2209 887.43 2197.49 875.96 2194.76 883.87 2205.44 902.45"/>
    <polyline class="cls-3" points="2227.18 954.24 2240.62 938.82 2244.97 943.96 2234.3 973.61"/>
    <path class="cls-11" d="m2218.09,940.4c0,3.71-3.01,6.72-6.72,6.72s-6.72-3.01-6.72-6.72,3.01-6.72,6.72-6.72,6.72,3.01,6.72,6.72Z"/>
    <path class="cls-11" d="m2229.58,989.62c0,2.29-1.86,4.15-4.15,4.15s-4.15-1.86-4.15-4.15,1.86-4.15,4.15-4.15,4.15,1.86,4.15,4.15Z"/>
    <path class="cls-11" d="m2227.18,966.28c0,1.63-1.32,2.95-2.95,2.95s-2.95-1.32-2.95-2.95,1.32-2.95,2.95-2.95,2.95,1.32,2.95,2.95Z"/>
    <circle class="cls-11" cx="2222.23" cy="871.62" r="4.35"/>
    <path class="cls-11" d="m2216.73,742.61c0,.61-.49,1.1-1.1,1.1s-1.1-.49-1.1-1.1.49-1.1,1.1-1.1,1.1.49,1.1,1.1Z"/>
    <path class="cls-11" d="m2225.99,711.07c0,2.07-1.68,3.76-3.76,3.76s-3.76-1.68-3.76-3.76,1.68-3.76,3.76-3.76,3.76,1.68,3.76,3.76Z"/>
    <path class="cls-11" d="m2219.67,695.11c0,1.42-1.15,2.57-2.57,2.57s-2.57-1.15-2.57-2.57,1.15-2.57,2.57-2.57,2.57,1.15,2.57,2.57Z"/>
    <path class="cls-11" d="m2219.42,594.48c0,.64-.52,1.16-1.16,1.16s-1.16-.52-1.16-1.16.52-1.16,1.16-1.16,1.16.52,1.16,1.16Z"/>
    <path class="cls-1" d="m2217.88,718.71s-44.45,155.17-196.42,152.77c73.58,53.59,106.38,28.79,106.38,28.79,0,0,3.2,25.59,22.4,28.79,19.2,3.2,29.59-16.8,29.59-16.8,0,0,35.19,37.59,70.38,0,25.59,27.99,47.19,14.4,51.19-6.4,52.79,21.6,83.18-21.6,83.18-21.6,0,0-142.24-9.6-166.7-165.56Z"/>
    <path class="cls-1" d="m2218.08,579.39s-26.28,86.34-102.05,74.31c24.77,25.86,55.01,21.13,55.01,21.13,0,0-3.64,17.49,10.56,22.59,14.21,5.1,23.68-5.83,23.68-5.83,0,0,32.79,31.33,57.19-5.1,25.14,29.14,61.56,1.46,67.03-25.5-35.34,12.75-76.43-13.84-91.59-34.97-15.15-21.13-19.84-46.63-19.84-46.63Z"/>
    <path class="cls-1" d="m2217.88,497.95s-43.33,54-95.47,43c33.96,48.31,60.75,19.13,60.75,19.13,0,0,14.44,28.7,34.72,4.78,20.29,25.83,35.12-.96,35.12-.96,0,0,34.44,25.83,60.75-15.79-49.75,7.18-95.87-50.17-95.87-50.17Z"/>
    <path class="cls-4" d="m2215.29,720.59s-32.43,40.26-64.1,41.41c17.17,5.72,32.05-5.76,32.05-5.76,0,0-7.63,11.48,0,12.25,7.63.76,19.08-5.72,19.08-5.72,0,0,27.85,21.75,43.88-2.29,17.93,9.92,31.67-6.1,31.67-6.1,0,0-38.92,14.09-62.57-33.78Z"/>
  </g>
  <g>
    <path class="cls-1" d="m2597.97,1013.03h-108.11s-4.79-43.45,32.44-38.64c-1.06-35.61,42.55-27.14,36.16,0,27.65-26.57,41.01,7.5,41.01,7.5,0,0,22.16-42.12,57.06-8.05,26.91-30.81,54.57,10.8,29.57,39.19h-88.13Z"/>
    <g>
      <polyline class="cls-9" points="2747.45 757.17 2736.29 770.53 2698.81 759.44 2693.5 774.93 2739.24 779.86 2752.71 762.06"/>
      <path class="cls-9" d="m2685.13,733.12c.63-.84,52.85-36.85,52.85-36.85l3.04,9.31-43.04,48.8"/>
      <polyline class="cls-9" points="2462.3 688.27 2467.08 726.1 2503.84 757.17 2514.11 738.47 2475.07 721.39 2470.24 688.27"/>
      <path class="cls-9" d="m2618.08,906.54c.85-1.6,47.73-58.08,47.73-58.08l-14.92-4.26-32.81,42.89"/>
      <polyline class="cls-9" points="2586.96 900.04 2544.33 846.23 2536.34 850.24 2586.96 914.71"/>
      <rect class="cls-9" x="2576.07" y="852.78" width="43.8" height="159.71"/>
      <path class="cls-7" d="m2683.97,653.55c0,34.34-20.38,63.91-49.69,77.28-10.73,4.91-22.66,7.64-35.24,7.64-46.89,0-84.92-38.01-84.92-84.92s38.03-84.94,84.92-84.94c32.16,0,60.15,17.88,74.56,44.24,6.62,12.07,10.38,25.94,10.38,40.69Z"/>
      <path class="cls-1" d="m2683.97,653.55c0,34.34-20.38,63.91-49.69,77.28-21.95-9.67-37.28-31.62-37.28-57.16,0-34.48,27.95-62.43,62.43-62.43,4.87,0,9.61.56,14.16,1.61,6.62,12.07,10.38,25.94,10.38,40.69Z"/>
      <path class="cls-7" d="m2712.34,762.05c0,13.1-2.23,25.69-6.31,37.39-7.69,21.99-21.97,40.89-40.46,54.32-2.8,2.05-5.72,3.97-8.71,5.74-16.92,10.09-36.7,15.87-57.83,15.87-12.91,0-25.33-2.17-36.9-6.14-10.34-3.57-20.01-8.58-28.76-14.81-28.84-20.53-47.66-54.26-47.66-92.36,0-2.63.1-5.24.27-7.81,4.01-58.92,53.11-105.5,113.04-105.5s113.31,50.75,113.31,113.31Z"/>
      <circle class="cls-7" cx="2464.85" cy="670.64" r="27.24" transform="translate(1271.52 2929.23) rotate(-77.37)"/>
      <circle class="cls-7" cx="2748.67" cy="685.07" r="36.32" transform="translate(320.65 2144.26) rotate(-45)"/>
      <path class="cls-1" d="m2545.07,1012.5h115.69s-5.86-10.15-19.18-5.07c.53-22.38-28.24-23.98-30.37-6.39-10.12-15.45-10.83,4.8-10.83,4.8,0,0-17.41-16.52-31.26-2.66-11.19-10.12-25.01-4.45-24.05,9.34Z"/>
      <path class="cls-3" d="m2591.49,979.31c0,2.72-2.21,4.93-4.93,4.93s-4.93-2.21-4.93-4.93,2.21-4.93,4.93-4.93,4.93,2.21,4.93,4.93Z"/>
      <path class="cls-3" d="m2616.48,944.63c0,6.47-5.25,11.72-11.72,11.72s-11.72-5.25-11.72-11.72,5.25-11.72,11.72-11.72,11.72,5.25,11.72,11.72Z"/>
      <circle class="cls-3" cx="2589.8" cy="911.03" r="3.24"/>
      <path class="cls-3" d="m2611.07,887.6c0,2.83-2.3,5.13-5.13,5.13s-5.13-2.3-5.13-5.13,2.3-5.13,5.13-5.13,5.13,2.3,5.13,5.13Z"/>
      <path class="cls-3" d="m2611.07,968.96c0,1.42-1.15,2.56-2.56,2.56s-2.56-1.15-2.56-2.56,1.15-2.56,2.56-2.56,2.56,1.15,2.56,2.56Z"/>
      <path class="cls-3" d="m2589.8,927.32c0,2.26-1.83,4.08-4.08,4.08s-4.08-1.83-4.08-4.08,1.83-4.08,4.08-4.08,4.08,1.83,4.08,4.08Z"/>
      <path class="cls-1" d="m2460.14,702.8s-6.38-6.54-13.56,0c8.29,6.7,13.56,0,13.56,0Z"/>
      <path class="cls-1" d="m2462.16,690.86s-1.55-9-11.17-7.69c3.03,10.22,11.17,7.69,11.17,7.69Z"/>
      <path class="cls-1" d="m2465.16,691.14s8.07-4.28,3.82-13.01c-8.77,6.07-3.82,13.01-3.82,13.01Z"/>
      <path class="cls-1" d="m2728.56,700.75s8.07-4.28,3.82-13.01c-8.77,6.07-3.82,13.01-3.82,13.01Z"/>
      <path class="cls-1" d="m2736.79,760.5s3.15-8.58-5.84-12.23c-2.47,10.37,5.84,12.23,5.84,12.23Z"/>
      <path class="cls-1" d="m2761.76,770.34s4.74,7.81,13.21,3.05c-6.57-8.4-13.21-3.05-13.21-3.05Z"/>
      <path class="cls-1" d="m2622.43,797.57s2.46,8.8,11.89,6.51c-4.06-9.86-11.89-6.51-11.89-6.51Z"/>
      <path class="cls-1" d="m2741.27,712.78s16.81,9.46,27.46-8.05c-20.78-8.64-27.46,8.05-27.46,8.05Z"/>
      <path class="cls-1" d="m2600.68,635.34s18.25-6.23,12.3-25.84c-20.29,9.73-12.3,25.84-12.3,25.84Z"/>
      <path class="cls-1" d="m2735.97,701s12.93,4.26,17.93-9.32c-15.57-3.15-17.93,9.32-17.93,9.32Z"/>
      <path class="cls-1" d="m2712.23,708.81s2.05-13.46-12.18-16.13c-.52,15.88,12.18,16.13,12.18,16.13Z"/>
      <path class="cls-1" d="m2593.27,643.4s2.05-13.46-12.18-16.13c-.52,15.88,12.18,16.13,12.18,16.13Z"/>
      <path class="cls-1" d="m2762.45,787.92s2.05-13.46-12.18-16.13c-.52,15.88,12.18,16.13,12.18,16.13Z"/>
      <path class="cls-1" d="m2459.92,681.87s13.87-7.44,6.47-22.44c-15.05,10.53-6.47,22.44-6.47,22.44Z"/>
      <path class="cls-1" d="m2642.26,808.15s13.87-7.44,6.47-22.44c-15.05,10.53-6.47,22.44-6.47,22.44Z"/>
      <path class="cls-7" d="m2768.36,754.38c0,7.37-5.98,13.35-13.35,13.35s-13.35-5.98-13.35-13.35,5.98-13.35,13.35-13.35,13.35,5.98,13.35,13.35Z"/>
      <path class="cls-1" d="m2593.37,811.51c0,24.16-12.43,45.41-31.23,57.71-10.34-3.57-20.01-8.58-28.76-14.81-28.84-20.53-47.66-54.26-47.66-92.36,0-2.63.1-5.24.27-7.81,10.97-7.39,24.17-11.68,38.41-11.68,35.21,0,64.25,26.38,68.46,60.44.35,2.8.52,5.64.52,8.52Z"/>
      <path class="cls-1" d="m2665.57,853.76c-2.8,2.05-5.72,3.97-8.71,5.74-16.92,10.09-36.7,15.87-57.83,15.87-12.91,0-25.33-2.17-36.9-6.14-10.34-3.57-20.01-8.58-28.76-14.81,6.83-27.61,30.49-48.58,59.48-51.42,2.21-.21,4.45-.33,6.72-.33,18.3,0,34.92,7.21,47.16,18.96,9,8.63,15.64,19.68,18.84,32.14Z"/>
      <path class="cls-1" d="m2706.03,799.45c-7.69,21.99-21.97,40.89-40.46,54.32-2.8,2.05-5.72,3.97-8.71,5.74-7.1-7.06-11.49-16.85-11.49-27.65,0-3.53.48-6.96,1.36-10.23,4.49-16.58,19.63-28.76,37.62-28.76,8.02,0,15.48,2.44,21.68,6.58Z"/>
    </g>
    <circle class="cls-2" cx="2531.72" cy="792.76" r="25.03" transform="translate(-110.66 1029.19) rotate(-22.5)"/>
    <path class="cls-2" d="m2566.75,839.71c0,5.83-4.73,10.56-10.56,10.56s-10.56-4.73-10.56-10.56,4.73-10.56,10.56-10.56,10.56,4.73,10.56,10.56Z"/>
  </g>
  <g>
    <path class="cls-10" d="m3131.82,987.05h193.59s-9.28-33.87-28.86-22.67c-3.09-40.33-37.04-45.49-47.89-17.66-17.04-30.92-108.43-24.79-116.84,24.19"/>
    <g>
      <path class="cls-9" d="m3091.2,702.88l34.19,51.59v18.17l-41.79-64.79c-.75-1.16-.93-2.59-.49-3.9h0c1.2-3.59,6-4.23,8.09-1.07Z"/>
      <path class="cls-8" d="m3266.95,641.62v136c0,43.16-34.96,78.12-78.12,78.12s-78.12-34.96-78.12-78.12v-136c0-8.28,1.28-16.26,3.67-23.74,10.04-31.55,39.57-54.38,74.45-54.38,21.57,0,41.12,8.74,55.25,22.87,7.13,7.13,12.89,15.63,16.85,25.09,3.87,9.28,6.02,19.46,6.02,30.16Z"/>
      <path class="cls-9" d="m3178.62,639.99h23.76c3.13,0,5.67,2.54,5.67,5.67v341.39h-35.1v-341.39c0-3.13,2.54-5.67,5.67-5.67Z"/>
      <path class="cls-9" d="m3150.75,698.34l34.19,51.59v18.17l-41.79-64.79c-.75-1.16-.93-2.59-.49-3.9h0c1.2-3.59,6-4.23,8.09-1.07Z"/>
      <path class="cls-9" d="m3160.63,770.11l43.65,65.87-4.74,30.99-55.49-86.03c-1.63-2.52-2.02-5.65-1.07-8.5h0c2.61-7.83,13.09-9.22,17.65-2.34Z"/>
      <path class="cls-9" d="m3226.3,650.5l-34.19,51.59v18.17l41.79-64.79c.75-1.16.93-2.59.49-3.9h0c-1.2-3.59-6-4.23-8.09-1.07Z"/>
      <path class="cls-9" d="m3238.47,824.62l-34.19,51.59v18.17l41.79-64.79c.75-1.16.93-2.59.49-3.9h0c-1.2-3.59-6-4.23-8.09-1.07Z"/>
      <circle class="cls-10" cx="3093.81" cy="684.36" r="35.9"/>
      <circle class="cls-10" cx="3264.78" cy="795.92" r="45.55"/>
      <circle class="cls-5" cx="3250.28" cy="776.92" r="10.99"/>
      <circle class="cls-5" cx="3284.99" cy="789.29" r="16.21"/>
      <path class="cls-5" d="m3075.61,680.79c0,1.97-1.6,3.57-3.57,3.57s-3.57-1.6-3.57-3.57,1.6-3.57,3.57-3.57,3.57,1.6,3.57,3.57Z"/>
      <circle class="cls-5" cx="3083.51" cy="664.47" r="4.82"/>
      <circle class="cls-5" cx="3108.89" cy="675.95" r="11.48"/>
      <path class="cls-8" d="m3274.36,746.23s-4.45-15.31,12.8-17.01c3.08,17.01-12.8,17.01-12.8,17.01Z"/>
      <path class="cls-6" d="m3131.82,800.54s9.59-12.74,21.29.06c-11.78,12.66-21.29-.06-21.29-.06Z"/>
      <path class="cls-6" d="m3122.52,778.57s14.58-6.46,18.57,10.42c-16.45,5.32-18.57-10.42-18.57-10.42Z"/>
      <path class="cls-6" d="m3239.57,659.6s-2.8-15.7,14.54-15.56c1.25,17.25-14.54,15.56-14.54,15.56Z"/>
      <path class="cls-6" d="m3225.54,676.14s11.56-21.91,32.67-5.19c-14.93,22.33-32.67,5.19-32.67,5.19Z"/>
      <path class="cls-8" d="m3243.91,842.48s14.9,5.69,5.84,20.48c-15.42-7.81-5.84-20.48-5.84-20.48Z"/>
      <path class="cls-8" d="m3256.2,846.38s19.63-6.1,22.23,16.1c-21.85,4.37-22.23-16.1-22.23-16.1Z"/>
      <path class="cls-8" d="m3086.8,752.38s-10.11-12.33,5.08-20.68c9.52,14.43-5.08,20.68-5.08,20.68Z"/>
      <path class="cls-8" d="m3056.3,726.08s14.62-18.52,31.49.8c-17.85,18.32-31.49-.8-31.49-.8Z"/>
      <ellipse class="cls-3" cx="3184.81" cy="673.54" rx="4.03" ry="13.9"/>
      <path class="cls-3" d="m3198.95,874.65c0,26.24-2.26,47.52-5.06,47.52s-5.06-21.28-5.06-47.52,2.26-47.52,5.06-47.52,5.06,21.28,5.06,47.52Z"/>
      <ellipse class="cls-3" cx="3184.81" cy="789.29" rx="4.03" ry="13.9"/>
      <ellipse class="cls-3" cx="3194.92" cy="726.45" rx="6.09" ry="32.09"/>
      <path class="cls-10" d="m3260.93,611.46c-65.16-55.1-123.65-14.5-146.55,6.41,10.04-31.55,39.57-54.38,74.45-54.38,21.57,0,41.12,8.74,55.25,22.87,7.13,7.13,12.89,15.63,16.85,25.09Z"/>
      <path class="cls-6" d="m3234.62,989.66h-162.57s1.43-41.55,42.33-30.94c11.02-37.61,50.49-15.13,38.94,14.59,27.03-20.39,73.86-4.76,81.3,16.35Z"/>
      <path class="cls-8" d="m3147.39,987.05h-59.97c5.87-8.61,16.02-17.7,32.66-13.76,7.39-13.46,29.98-5.54,27.31,13.76Z"/>
    </g>
  </g>
  <g>
    <path class="cls-4" d="m2735.7,883.06s24.8,50.66,76.72,38.14c12.07,33.58,34.84,19.92,34.84,19.92,0,0,16.51,25.71,38.71-2.51,7.97,38.94,50.66.81,60.91-9.44,20.49,31.88,67.74,22.77,62.61-6.26,35.29,17.08,56.92-7.97,58.63-26.18-44.97,3.42-149.67-29.15-149.67-29.15"/>
    <path class="cls-4" d="m2829.54,669.79s7.34,17.54,27.01,21.12c-9,10.75,13.7,31.06,29.63,23.5,5.97,19.51,28.86,7.65,28.86,7.65,0,0,32.29,12.66,43.13-7.65,19.6,13.94,68.18-3.58,56.24-37.04-24.29,12.74-114.34-19.91-114.34-19.91l-70.52,12.33Z"/>
    <path class="cls-4" d="m2853.12,564.67s4.97,18.32,25.38,9.16c.9,27.88,33.68,27.05,35.81,11.73,12.08,14.55,21.27,1.41,21.27,1.41,0,0,35.81,5.97,35.02-22.3-.8-28.27-109.91-17.92-117.48,0Z"/>
    <polygon class="cls-3" points="2935.58 1038.14 2894.49 1038.14 2913.87 491.56 2916.2 491.56 2935.58 1038.14"/>
    <path class="cls-1" d="m2915.03,472.01s-3.15,22.01-17.12,27.39c12.89-1.07,15.84-4.58,15.84-4.58,0,0,6.18,9.14,18.54,4.58-11.82-3.22-17.26-27.39-17.26-27.39Z"/>
    <path class="cls-1" d="m2868.21,1041.21h99.95s6.87-43.98,0-48.98c-6.87-5-5.62,41.23-5.62,41.23,0,0-9.37-21.37-12.49-16.93-3.12,4.44-.62,16.93-.62,16.93,0,0-21.86-21.24-26.24-11.87-4.37,9.37-3.47,13.74-3.47,13.74,0,0-13.4-26.86-26.52-23.74-13.12,3.12-13.74,20.62-13.74,20.62,0,0-5.62-28.11-11.24-27.49-5.62.62,0,36.48,0,36.48Z"/>
    <path class="cls-4" d="m2915.03,797.56s-8.1,41.05-53.08,51.05c38.25,28.18,53.08,5.62,53.08,5.62,0,0,24.87,28.74,56.18,1.87-25.54-5-47.42-23.54-56.18-58.55Z"/>
    <path class="cls-4" d="m2915.03,606.84s-16.42,48.85-58.49,53.79c22.28,11.81,29.24,4.31,29.24,4.31,0,0,17.51,28.11,46.5,5.62,14,13.12,25.87.62,25.87.62,0,0-30.04-11.24-43.13-64.34Z"/>
    <path class="cls-4" d="m2915.03,516.23s-11.66,31.06-36.53,28.21c11.63,16.58,26.46,7.27,26.46,7.27,0,0,13.09,9.89,18.61-.29,2.33,9.31,10.63,5.23,12-2.04,6.32,3.78,12.43,3.2,15.34-3.49-30.96-1.45-35.88-29.66-35.88-29.66Z"/>
    <polyline class="cls-3" points="2922.01 733.12 2931.57 722.05 2933.96 722.05 2925.19 745.03"/>
    <polyline class="cls-3" points="2914.71 583.28 2907.36 579.8 2905.29 584.98 2912.06 590.55"/>
    <polyline class="cls-3" points="2906.08 892.02 2894.49 880.47 2891.75 888.43 2902.5 907.15"/>
    <polyline class="cls-3" points="2924.4 959.32 2937.94 943.79 2942.32 948.96 2931.57 978.83"/>
    <path class="cls-11" d="m2915.24,945.38c0,3.74-3.03,6.77-6.77,6.77s-6.77-3.03-6.77-6.77,3.03-6.77,6.77-6.77,6.77,3.03,6.77,6.77Z"/>
    <path class="cls-11" d="m2926.82,994.96c0,2.31-1.87,4.18-4.18,4.18s-4.18-1.87-4.18-4.18,1.87-4.18,4.18-4.18,4.18,1.87,4.18,4.18Z"/>
    <path class="cls-11" d="m2924.4,971.45c0,1.64-1.33,2.97-2.97,2.97s-2.97-1.33-2.97-2.97,1.33-2.97,2.97-2.97,2.97,1.33,2.97,2.97Z"/>
    <circle class="cls-11" cx="2919.42" cy="876.09" r="4.38"/>
    <path class="cls-11" d="m2913.87,746.13c0,.61-.49,1.11-1.11,1.11s-1.11-.49-1.11-1.11.49-1.11,1.11-1.11,1.11.49,1.11,1.11Z"/>
    <path class="cls-11" d="m2923.2,714.36c0,2.09-1.69,3.78-3.78,3.78s-3.78-1.69-3.78-3.78,1.69-3.78,3.78-3.78,3.78,1.69,3.78,3.78Z"/>
    <path class="cls-11" d="m2916.84,698.28c0,1.43-1.16,2.59-2.59,2.59s-2.59-1.16-2.59-2.59,1.16-2.59,2.59-2.59,2.59,1.16,2.59,2.59Z"/>
    <path class="cls-11" d="m2916.59,596.9c0,.65-.52,1.17-1.17,1.17s-1.17-.52-1.17-1.17.52-1.17,1.17-1.17,1.17.52,1.17,1.17Z"/>
    <path class="cls-1" d="m2915.03,722.05s-44.78,156.31-197.87,153.89c74.13,53.98,107.16,29.01,107.16,29.01,0,0,3.22,25.78,22.56,29.01,19.34,3.22,29.81-16.92,29.81-16.92,0,0,35.45,37.87,70.9,0,25.78,28.2,47.54,14.5,51.57-6.45,53.18,21.75,83.8-21.75,83.8-21.75,0,0-143.29-9.67-167.93-166.78Z"/>
    <path class="cls-1" d="m2915.23,581.7s-26.47,86.97-102.8,74.86c24.95,26.05,55.41,21.28,55.41,21.28,0,0-3.67,17.61,10.64,22.75,14.31,5.14,23.85-5.87,23.85-5.87,0,0,33.03,31.56,57.61-5.14,25.32,29.36,62.02,1.47,67.52-25.69-35.6,12.84-77-13.95-92.26-35.23-15.26-21.28-19.98-46.97-19.98-46.97Z"/>
    <path class="cls-1" d="m2915.03,499.67s-43.65,54.4-96.18,43.31c34.21,48.67,61.2,19.27,61.2,19.27,0,0,14.54,28.91,34.98,4.82,20.44,26.02,35.37-.96,35.37-.96,0,0,34.7,26.02,61.2-15.9-50.12,7.23-96.57-50.54-96.57-50.54Z"/>
    <path class="cls-4" d="m2912.43,723.94s-32.67,40.56-64.57,41.71c17.3,5.77,32.28-5.8,32.28-5.8,0,0-7.69,11.57,0,12.34,7.69.77,19.22-5.77,19.22-5.77,0,0,28.06,21.91,44.2-2.31,18.06,9.99,31.9-6.15,31.9-6.15,0,0-39.2,14.2-63.03-34.03Z"/>
  </g>
  <g>
    <path class="cls-4" d="m3300.86,895.97s19.58,39.99,60.56,30.1c9.53,26.51,27.5,15.73,27.5,15.73,0,0,13.03,20.29,30.55-1.98,6.29,30.74,39.99.64,48.08-7.45,16.18,25.16,53.47,17.97,49.42-4.94,27.86,13.48,44.93-6.29,46.28-20.67-35.5,2.7-118.14-23.01-118.14-23.01"/>
    <path class="cls-4" d="m3374.93,727.62s5.79,13.84,21.32,16.67c-7.11,8.49,10.81,24.52,23.39,18.55,4.72,15.4,22.78,6.04,22.78,6.04,0,0,25.49,9.99,34.04-6.04,15.47,11,53.82-2.83,44.39-29.23-19.18,10.06-90.25-15.72-90.25-15.72l-55.67,9.73Z"/>
    <path class="cls-4" d="m3393.54,644.64s3.93,14.46,20.04,7.23c.71,22,26.59,21.35,28.27,9.26,9.54,11.49,16.79,1.11,16.79,1.11,0,0,28.27,4.72,27.64-17.6-.63-22.32-86.76-14.15-92.73,0Z"/>
    <polygon class="cls-3" points="3458.63 1018.38 3426.2 1018.38 3441.5 586.93 3443.33 586.93 3458.63 1018.38"/>
    <path class="cls-1" d="m3442.42,571.5s-2.49,17.37-13.51,21.62c10.18-.84,12.51-3.61,12.51-3.61,0,0,4.88,7.21,14.63,3.61-9.33-2.54-13.62-21.62-13.62-21.62Z"/>
    <path class="cls-1" d="m3405.45,1020.8h78.9s5.42-34.71,0-38.66c-5.42-3.94-4.44,32.55-4.44,32.55,0,0-7.4-16.87-9.86-13.37-2.47,3.5-.49,13.37-.49,13.37,0,0-17.26-16.77-20.71-9.37-3.45,7.4-2.74,10.85-2.74,10.85,0,0-10.57-21.2-20.93-18.74-10.36,2.47-10.85,16.27-10.85,16.27,0,0-4.44-22.19-8.88-21.7-4.44.49,0,28.8,0,28.8Z"/>
    <path class="cls-4" d="m3442.42,828.47s-6.39,32.41-41.9,40.3c30.19,22.25,41.9,4.44,41.9,4.44,0,0,19.63,22.68,44.35,1.48-20.16-3.95-37.43-18.58-44.35-46.21Z"/>
    <path class="cls-4" d="m3442.42,677.93s-12.96,38.56-46.17,42.46c17.59,9.32,23.08,3.4,23.08,3.4,0,0,13.82,22.19,36.71,4.44,11.05,10.36,20.42.49,20.42.49,0,0-23.71-8.88-34.04-50.79Z"/>
    <path class="cls-4" d="m3442.42,606.4s-9.21,24.52-28.84,22.27c9.18,13.08,20.89,5.74,20.89,5.74,0,0,10.33,7.81,14.69-.23,1.84,7.35,8.39,4.13,9.47-1.61,4.99,2.98,9.81,2.53,12.1-2.75-24.44-1.15-28.32-23.41-28.32-23.41Z"/>
    <polyline class="cls-3" points="3447.92 777.61 3455.47 768.87 3457.35 768.87 3450.43 787.01"/>
    <polyline class="cls-3" points="3442.16 659.33 3436.35 656.59 3434.72 660.67 3440.07 665.07"/>
    <polyline class="cls-3" points="3435.35 903.03 3426.2 893.92 3424.03 900.2 3432.52 914.98"/>
    <polyline class="cls-3" points="3449.81 956.16 3460.5 943.9 3463.96 947.99 3455.47 971.56"/>
    <path class="cls-11" d="m3442.58,945.16c0,2.95-2.39,5.34-5.34,5.34s-5.34-2.39-5.34-5.34,2.39-5.34,5.34-5.34,5.34,2.39,5.34,5.34Z"/>
    <path class="cls-11" d="m3451.72,984.29c0,1.82-1.48,3.3-3.3,3.3s-3.3-1.48-3.3-3.3,1.48-3.3,3.3-3.3,3.3,1.48,3.3,3.3Z"/>
    <path class="cls-11" d="m3449.81,965.73c0,1.3-1.05,2.34-2.34,2.34s-2.34-1.05-2.34-2.34,1.05-2.34,2.34-2.34,2.34,1.05,2.34,2.34Z"/>
    <circle class="cls-11" cx="3445.87" cy="890.46" r="3.46"/>
    <path class="cls-11" d="m3441.5,787.88c0,.48-.39.87-.87.87s-.87-.39-.87-.87.39-.87.87-.87.87.39.87.87Z"/>
    <path class="cls-11" d="m3448.86,762.8c0,1.65-1.34,2.99-2.99,2.99s-2.99-1.34-2.99-2.99,1.34-2.99,2.99-2.99,2.99,1.34,2.99,2.99Z"/>
    <path class="cls-11" d="m3443.84,750.1c0,1.13-.91,2.04-2.04,2.04s-2.04-.91-2.04-2.04.91-2.04,2.04-2.04,2.04.91,2.04,2.04Z"/>
    <path class="cls-11" d="m3443.64,670.08c0,.51-.41.92-.92.92s-.92-.41-.92-.92.41-.92.92-.92.92.41.92.92Z"/>
    <path class="cls-1" d="m3442.42,768.87s-35.35,123.38-156.19,121.48c58.51,42.61,84.59,22.9,84.59,22.9,0,0,2.54,20.35,17.81,22.9,15.26,2.54,23.53-13.36,23.53-13.36,0,0,27.98,29.89,55.97,0,20.35,22.26,37.52,11.45,40.7-5.09,41.98,17.17,66.14-17.17,66.14-17.17,0,0-113.11-7.63-132.56-131.65Z"/>
    <path class="cls-1" d="m3442.57,658.08s-20.9,68.65-81.15,59.09c19.7,20.57,43.74,16.8,43.74,16.8,0,0-2.9,13.9,8.4,17.96,11.3,4.06,18.83-4.63,18.83-4.63,0,0,26.07,24.91,45.48-4.06,19.99,23.17,48.96,1.16,53.3-20.28-28.1,10.14-60.78-11.01-72.83-27.81-12.05-16.8-15.77-37.08-15.77-37.08Z"/>
    <path class="cls-1" d="m3442.42,593.33s-34.46,42.94-75.92,34.19c27.01,38.42,48.31,15.21,48.31,15.21,0,0,11.48,22.82,27.61,3.8,16.13,20.54,27.92-.76,27.92-.76,0,0,27.39,20.54,48.31-12.55-39.56,5.71-76.23-39.89-76.23-39.89Z"/>
    <path class="cls-4" d="m3440.36,770.36s-25.79,32.02-50.97,32.93c13.65,4.55,25.48-4.58,25.48-4.58,0,0-6.07,9.13,0,9.74,6.07.61,15.17-4.55,15.17-4.55,0,0,22.15,17.29,34.89-1.82,14.26,7.89,25.18-4.85,25.18-4.85,0,0-30.94,11.21-49.75-26.86Z"/>
  </g>
  <g>
    <path class="cls-1" d="m3655.04,962.36h-87.67s-3.88-35.23,26.31-31.34c-.86-28.88,34.5-22.01,29.33,0,22.43-21.55,33.26,6.08,33.26,6.08,0,0,17.97-34.16,46.27-6.53,21.83-24.99,44.25,8.76,23.98,31.78h-71.47Z"/>
    <g>
      <polyline class="cls-9" points="3776.26 754.87 3767.21 765.7 3736.82 756.7 3732.51 769.27 3769.6 773.27 3780.53 758.83"/>
      <path class="cls-9" d="m3725.72,735.36c.51-.68,42.86-29.88,42.86-29.88l2.46,7.55-34.91,39.57"/>
      <polyline class="cls-9" points="3545.01 698.99 3548.89 729.67 3578.7 754.87 3587.03 739.7 3555.37 725.85 3551.45 698.99"/>
      <path class="cls-9" d="m3671.35,876c.69-1.3,38.71-47.1,38.71-47.1l-12.1-3.46-26.61,34.78"/>
      <polyline class="cls-9" points="3646.11 870.73 3611.54 827.09 3605.06 830.34 3646.11 882.63"/>
      <rect class="cls-9" x="3637.28" y="832.41" width="35.52" height="129.52"/>
      <path class="cls-7" d="m3724.78,670.84c0,27.85-16.52,51.83-40.3,62.67-8.7,3.98-18.38,6.19-28.58,6.19-38.03,0-68.87-30.82-68.87-68.87s30.84-68.88,68.87-68.88c26.08,0,48.78,14.5,60.46,35.88,5.37,9.79,8.42,21.04,8.42,33Z"/>
      <path class="cls-1" d="m3724.78,670.84c0,27.85-16.52,51.83-40.3,62.67-17.8-7.84-30.23-25.64-30.23-46.35,0-27.96,22.67-50.63,50.63-50.63,3.95,0,7.8.45,11.48,1.31,5.37,9.79,8.42,21.04,8.42,33Z"/>
      <path class="cls-7" d="m3747.79,758.82c0,10.63-1.81,20.83-5.12,30.33-6.24,17.83-17.82,33.16-32.82,44.05-2.27,1.66-4.64,3.22-7.06,4.65-13.72,8.18-29.77,12.87-46.9,12.87-10.47,0-20.54-1.76-29.92-4.98-8.39-2.89-16.23-6.96-23.32-12.01-23.39-16.65-38.65-44-38.65-74.9,0-2.13.08-4.25.22-6.33,3.25-47.78,43.07-85.56,91.68-85.56s91.89,41.15,91.89,91.89Z"/>
      <circle class="cls-7" cx="3547.08" cy="684.7" r="22.09" transform="translate(2103.42 3996.26) rotate(-77.37)"/>
      <circle class="cls-7" cx="3777.26" cy="696.39" r="29.46" transform="translate(613.91 2874.89) rotate(-45)"/>
      <path class="cls-1" d="m3612.14,961.93h93.83s-4.75-8.23-15.56-4.11c.43-18.15-22.9-19.44-24.63-5.18-8.21-12.53-8.79,3.89-8.79,3.89,0,0-14.12-13.39-25.35-2.16-9.07-8.21-20.28-3.61-19.51,7.57Z"/>
      <path class="cls-3" d="m3649.78,935.02c0,2.21-1.79,4-4,4s-4-1.79-4-4,1.79-4,4-4,4,1.79,4,4Z"/>
      <path class="cls-3" d="m3670.05,906.89c0,5.25-4.26,9.51-9.51,9.51s-9.51-4.26-9.51-9.51,4.26-9.51,9.51-9.51,9.51,4.26,9.51,9.51Z"/>
      <circle class="cls-3" cx="3648.41" cy="879.64" r="2.63"/>
      <path class="cls-3" d="m3665.66,860.64c0,2.3-1.86,4.16-4.16,4.16s-4.16-1.86-4.16-4.16,1.86-4.16,4.16-4.16,4.16,1.86,4.16,4.16Z"/>
      <path class="cls-3" d="m3665.66,926.62c0,1.15-.93,2.08-2.08,2.08s-2.08-.93-2.08-2.08.93-2.08,2.08-2.08,2.08.93,2.08,2.08Z"/>
      <path class="cls-3" d="m3648.41,892.85c0,1.83-1.48,3.31-3.31,3.31s-3.31-1.48-3.31-3.31,1.48-3.31,3.31-3.31,3.31,1.48,3.31,3.31Z"/>
      <path class="cls-1" d="m3543.26,710.77s-5.17-5.3-11,0c6.73,5.43,11,0,11,0Z"/>
      <path class="cls-1" d="m3544.9,701.09s-1.26-7.3-9.06-6.23c2.46,8.29,9.06,6.23,9.06,6.23Z"/>
      <path class="cls-1" d="m3547.33,701.31s6.55-3.47,3.1-10.55c-7.11,4.92-3.1,10.55-3.1,10.55Z"/>
      <path class="cls-1" d="m3760.94,709.11s6.55-3.47,3.1-10.55c-7.11,4.92-3.1,10.55-3.1,10.55Z"/>
      <path class="cls-1" d="m3767.62,757.57s2.56-6.95-4.74-9.92c-2,8.41,4.74,9.92,4.74,9.92Z"/>
      <path class="cls-1" d="m3787.86,765.55s3.85,6.33,10.71,2.48c-5.33-6.81-10.71-2.48-10.71-2.48Z"/>
      <path class="cls-1" d="m3674.87,787.63s1.99,7.14,9.65,5.28c-3.29-8-9.65-5.28-9.65-5.28Z"/>
      <path class="cls-1" d="m3771.25,718.87s13.63,7.67,22.27-6.53c-16.85-7.01-22.27,6.53-22.27,6.53Z"/>
      <path class="cls-1" d="m3657.24,656.06s14.8-5.05,9.97-20.96c-16.46,7.89-9.97,20.96-9.97,20.96Z"/>
      <path class="cls-1" d="m3766.96,709.31s10.49,3.45,14.54-7.56c-12.63-2.56-14.54,7.56-14.54,7.56Z"/>
      <path class="cls-1" d="m3747.7,715.65s1.66-10.92-9.88-13.08c-.42,12.88,9.88,13.08,9.88,13.08Z"/>
      <path class="cls-1" d="m3651.23,662.6s1.66-10.92-9.88-13.08c-.42,12.88,9.88,13.08,9.88,13.08Z"/>
      <path class="cls-1" d="m3788.42,779.8s1.66-10.92-9.88-13.08c-.42,12.88,9.88,13.08,9.88,13.08Z"/>
      <path class="cls-1" d="m3543.08,693.8s11.25-6.03,5.25-18.2c-12.2,8.54-5.25,18.2-5.25,18.2Z"/>
      <path class="cls-1" d="m3690.96,796.21s11.25-6.03,5.25-18.2c-12.2,8.54-5.25,18.2-5.25,18.2Z"/>
      <path class="cls-7" d="m3793.22,752.6c0,5.98-4.85,10.83-10.83,10.83s-10.83-4.85-10.83-10.83,4.85-10.83,10.83-10.83,10.83,4.85,10.83,10.83Z"/>
      <path class="cls-1" d="m3651.31,798.94c0,19.59-10.08,36.83-25.33,46.8-8.39-2.89-16.23-6.96-23.32-12.01-23.39-16.65-38.65-44-38.65-74.9,0-2.13.08-4.25.22-6.33,8.9-5.99,19.6-9.48,31.15-9.48,28.55,0,52.11,21.39,55.52,49.01.28,2.27.42,4.57.42,6.91Z"/>
      <path class="cls-1" d="m3709.86,833.2c-2.27,1.66-4.64,3.22-7.06,4.65-13.72,8.18-29.77,12.87-46.9,12.87-10.47,0-20.54-1.76-29.92-4.98-8.39-2.89-16.23-6.96-23.32-12.01,5.54-22.39,24.72-39.4,48.23-41.7,1.79-.17,3.61-.26,5.45-.26,14.84,0,28.32,5.85,38.25,15.37,7.3,7,12.68,15.96,15.28,26.06Z"/>
      <path class="cls-1" d="m3742.67,789.15c-6.24,17.83-17.82,33.16-32.82,44.05-2.27,1.66-4.64,3.22-7.06,4.65-5.76-5.73-9.32-13.66-9.32-22.42,0-2.86.39-5.65,1.1-8.29,3.64-13.44,15.92-23.32,30.51-23.32,6.5,0,12.56,1.98,17.58,5.34Z"/>
    </g>
    <circle class="cls-2" cx="3601.31" cy="783.73" r="20.29" transform="translate(-25.79 1437.82) rotate(-22.5)"/>
    <path class="cls-2" d="m3629.72,821.8c0,4.73-3.83,8.57-8.57,8.57s-8.57-3.83-8.57-8.57,3.83-8.57,8.57-8.57,8.57,3.83,8.57,8.57Z"/>
  </g>
  <g>
    <path class="cls-4" d="m3705.25,903.44s20.99,42.87,64.93,32.28c10.22,28.42,29.49,16.86,29.49,16.86,0,0,13.97,21.76,32.76-2.13,6.74,32.96,42.87.68,51.54-7.99,17.34,26.98,57.32,19.27,52.99-5.3,29.87,14.45,48.17-6.74,49.62-22.16-38.06,2.89-126.66-24.67-126.66-24.67"/>
    <path class="cls-4" d="m3784.67,722.95s6.21,14.84,22.85,17.87c-7.62,9.1,11.59,26.29,25.07,19.88,5.06,16.51,24.43,6.47,24.43,6.47,0,0,27.33,10.71,36.5-6.47,16.59,11.8,57.7-3.03,47.59-31.34-20.56,10.78-96.76-16.85-96.76-16.85l-59.68,10.43Z"/>
    <path class="cls-4" d="m3804.62,633.99s4.21,15.5,21.48,7.75c.76,23.59,28.5,22.89,30.3,9.93,10.22,12.31,18,1.19,18,1.19,0,0,30.31,5.06,29.63-18.87-.67-23.93-93.02-15.17-99.42,0Z"/>
    <polygon class="cls-3" points="3874.41 1034.68 3839.63 1034.68 3856.04 572.11 3858 572.11 3874.41 1034.68"/>
    <path class="cls-1" d="m3857.02,555.57s-2.67,18.63-14.49,23.18c10.91-.9,13.41-3.87,13.41-3.87,0,0,5.23,7.73,15.69,3.87-10-2.72-14.61-23.18-14.61-23.18Z"/>
    <path class="cls-1" d="m3817.39,1037.27h84.59s5.82-37.22,0-41.45c-5.82-4.23-4.76,34.89-4.76,34.89,0,0-7.93-18.08-10.57-14.33-2.64,3.76-.53,14.33-.53,14.33,0,0-18.5-17.98-22.2-10.04-3.7,7.93-2.94,11.63-2.94,11.63,0,0-11.34-22.73-22.44-20.09-11.1,2.64-11.63,17.45-11.63,17.45,0,0-4.76-23.79-9.52-23.26-4.76.53,0,30.87,0,30.87Z"/>
    <path class="cls-4" d="m3857.02,831.08s-6.85,34.74-44.92,43.2c32.37,23.85,44.92,4.76,44.92,4.76,0,0,21.05,24.32,47.54,1.59-21.62-4.23-40.13-19.92-47.54-49.55Z"/>
    <path class="cls-4" d="m3857.02,669.68s-13.9,41.34-49.5,45.52c18.86,9.99,24.75,3.65,24.75,3.65,0,0,14.82,23.79,39.35,4.76,11.85,11.1,21.89.53,21.89.53,0,0-25.42-9.52-36.5-54.45Z"/>
    <path class="cls-4" d="m3857.02,592.99s-9.87,26.29-30.92,23.87c9.84,14.03,22.4,6.15,22.4,6.15,0,0,11.07,8.37,15.75-.25,1.97,7.88,8.99,4.43,10.16-1.72,5.35,3.2,10.52,2.71,12.98-2.95-26.21-1.23-30.37-25.1-30.37-25.1Z"/>
    <polyline class="cls-3" points="3862.92 776.55 3871.01 767.18 3873.03 767.18 3865.61 786.62"/>
    <polyline class="cls-3" points="3856.74 649.74 3850.52 646.79 3848.77 651.17 3854.5 655.89"/>
    <polyline class="cls-3" points="3849.44 911.02 3839.63 901.24 3837.31 907.98 3846.41 923.82"/>
    <polyline class="cls-3" points="3864.95 967.97 3876.4 954.83 3880.11 959.21 3871.01 984.49"/>
    <path class="cls-11" d="m3857.19,956.18c0,3.16-2.57,5.73-5.73,5.73s-5.73-2.57-5.73-5.73,2.57-5.73,5.73-5.73,5.73,2.57,5.73,5.73Z"/>
    <path class="cls-11" d="m3866.99,998.13c0,1.95-1.58,3.54-3.54,3.54s-3.54-1.58-3.54-3.54,1.58-3.54,3.54-3.54,3.54,1.58,3.54,3.54Z"/>
    <path class="cls-11" d="m3864.95,978.24c0,1.39-1.13,2.51-2.51,2.51s-2.51-1.13-2.51-2.51,1.13-2.51,2.51-2.51,2.51,1.13,2.51,2.51Z"/>
    <circle class="cls-11" cx="3860.73" cy="897.54" r="3.71"/>
    <path class="cls-11" d="m3856.03,787.56c0,.52-.42.94-.94.94s-.94-.42-.94-.94.42-.94.94-.94.94.42.94.94Z"/>
    <path class="cls-11" d="m3863.93,760.67c0,1.77-1.43,3.2-3.2,3.2s-3.2-1.43-3.2-3.2,1.43-3.2,3.2-3.2,3.2,1.43,3.2,3.2Z"/>
    <path class="cls-11" d="m3858.54,747.06c0,1.21-.98,2.19-2.19,2.19s-2.19-.98-2.19-2.19.98-2.19,2.19-2.19,2.19.98,2.19,2.19Z"/>
    <path class="cls-11" d="m3858.33,661.26c0,.55-.44.99-.99.99s-.99-.44-.99-.99.44-.99.99-.99.99.44.99.99Z"/>
    <path class="cls-1" d="m3857.02,767.18s-37.9,132.28-167.45,130.24c62.73,45.69,90.69,24.55,90.69,24.55,0,0,2.73,21.82,19.09,24.55,16.36,2.73,25.23-14.32,25.23-14.32,0,0,30,32.05,60,0,21.82,23.87,40.23,12.27,43.64-5.46,45,18.41,70.91-18.41,70.91-18.41,0,0-121.26-8.18-142.12-141.15Z"/>
    <path class="cls-1" d="m3857.19,648.4s-22.4,73.6-87,63.36c21.12,22.05,46.9,18.01,46.9,18.01,0,0-3.11,14.91,9.01,19.26,12.11,4.35,20.19-4.97,20.19-4.97,0,0,27.95,26.71,48.76-4.35,21.43,24.85,52.49,1.24,57.14-21.74-30.13,10.87-65.16-11.8-78.08-29.81-12.92-18.01-16.91-39.75-16.91-39.75Z"/>
    <path class="cls-1" d="m3857.02,578.98s-36.94,46.03-81.39,36.65c28.95,41.19,51.79,16.31,51.79,16.31,0,0,12.31,24.47,29.6,4.08,17.29,22.02,29.94-.82,29.94-.82,0,0,29.36,22.02,51.79-13.46-42.41,6.12-81.73-42.77-81.73-42.77Z"/>
    <path class="cls-4" d="m3854.81,768.78s-27.65,34.32-54.64,35.3c14.64,4.88,27.32-4.91,27.32-4.91,0,0-6.51,9.79,0,10.44,6.51.65,16.26-4.88,16.26-4.88,0,0,23.74,18.54,37.41-1.95,15.29,8.46,27-5.2,27-5.2,0,0-33.18,12.02-53.34-28.8Z"/>
  </g>
</svg>