<?xml version="1.0" encoding="UTF-8"?>
<svg id="forest_back" data-name="forest back" xmlns="http://www.w3.org/2000/svg" viewBox="0 0 4023 1080">
  <defs>
    <style>
      .cls-1 {
        fill: #25a977;
      }

      .cls-2 {
        fill: #1b8d67;
      }

      .cls-3 {
        fill: #6c2950;
      }

      .cls-4 {
        fill: #258265;
      }

      .cls-5 {
        fill: #ffdd3a;
      }

      .cls-6 {
        fill: #f17a40;
      }

      .cls-7 {
        fill: #36cd88;
      }

      .cls-8 {
        fill: #f99d46;
      }

      .cls-9 {
        fill: #853866;
      }

      .cls-10 {
        fill: #fabb50;
      }

      .cls-11 {
        fill: #582949;
      }
    </style>
  </defs>
  <g>
    <path class="cls-10" d="m53.78,776.82h92.07s-4.41-16.11-13.72-10.78c-1.47-19.18-17.62-21.63-22.78-8.4-8.1-14.7-51.57-11.79-55.57,11.51"/>
    <g>
      <path class="cls-9" d="m34.46,641.67l16.26,24.54v8.64l-19.88-30.81c-.35-.55-.44-1.23-.23-1.85h0c.57-1.71,2.85-2.01,3.85-.51Z"/>
      <path class="cls-8" d="m118.05,612.53v64.68c0,20.53-16.63,37.16-37.16,37.16s-37.16-16.63-37.16-37.16v-64.68c0-3.94.61-7.74,1.75-11.29,4.78-15,18.82-25.86,35.41-25.86,10.26,0,19.55,4.16,26.28,10.88,3.39,3.39,6.13,7.44,8.01,11.93,1.84,4.42,2.86,9.26,2.86,14.34Z"/>
      <path class="cls-9" d="m77.45,611.76h8.46c2.27,0,4.12,1.84,4.12,4.12v160.95h-16.69v-160.95c0-2.27,1.84-4.12,4.12-4.12Z"/>
      <path class="cls-9" d="m62.78,639.51l16.26,24.54v8.64l-19.88-30.81c-.35-.55-.44-1.23-.23-1.85h0c.57-1.71,2.85-2.01,3.85-.51Z"/>
      <path class="cls-9" d="m67.48,673.64l20.76,31.33-2.25,14.74-26.39-40.91c-.77-1.2-.96-2.69-.51-4.04h0c1.24-3.72,6.22-4.38,8.39-1.11Z"/>
      <path class="cls-9" d="m98.71,616.76l-16.26,24.54v8.64l19.88-30.81c.35-.55.44-1.23.23-1.85h0c-.57-1.71-2.85-2.01-3.85-.51Z"/>
      <path class="cls-9" d="m104.5,699.57l-16.26,24.54v8.64l19.88-30.81c.35-.55.44-1.23.23-1.85h0c-.57-1.71-2.85-2.01-3.85-.51Z"/>
      <circle class="cls-10" cx="35.7" cy="632.86" r="17.07"/>
      <circle class="cls-10" cx="117.02" cy="685.92" r="21.66"/>
      <circle class="cls-5" cx="110.12" cy="676.88" r="5.23"/>
      <circle class="cls-5" cx="126.63" cy="682.77" r="7.71"/>
      <path class="cls-5" d="m27.05,631.16c0,.94-.76,1.7-1.7,1.7s-1.7-.76-1.7-1.7.76-1.7,1.7-1.7,1.7.76,1.7,1.7Z"/>
      <circle class="cls-5" cx="30.8" cy="623.4" r="2.29"/>
      <circle class="cls-5" cx="42.87" cy="628.86" r="5.46"/>
      <path class="cls-8" d="m121.57,662.29s-2.12-7.28,6.09-8.09c1.46,8.09-6.09,8.09-6.09,8.09Z"/>
      <path class="cls-6" d="m53.78,688.11s4.56-6.06,10.13.03c-5.6,6.02-10.13-.03-10.13-.03Z"/>
      <path class="cls-6" d="m49.36,677.67s6.93-3.07,8.83,4.95c-7.82,2.53-8.83-4.95-8.83-4.95Z"/>
      <path class="cls-6" d="m105.02,621.08s-1.33-7.47,6.92-7.4c.59,8.2-6.92,7.4-6.92,7.4Z"/>
      <path class="cls-6" d="m98.35,628.95s5.5-10.42,15.54-2.47c-7.1,10.62-15.54,2.47-15.54,2.47Z"/>
      <path class="cls-8" d="m107.09,708.06s7.08,2.71,2.78,9.74c-7.34-3.72-2.78-9.74-2.78-9.74Z"/>
      <path class="cls-8" d="m112.94,709.92s9.34-2.9,10.57,7.66c-10.39,2.08-10.57-7.66-10.57-7.66Z"/>
      <path class="cls-8" d="m32.36,665.21s-4.81-5.86,2.42-9.84c4.53,6.86-2.42,9.84-2.42,9.84Z"/>
      <path class="cls-8" d="m17.86,652.7s6.95-8.81,14.98.38c-8.49,8.71-14.98-.38-14.98-.38Z"/>
      <ellipse class="cls-3" cx="78.98" cy="627.71" rx="1.92" ry="6.61"/>
      <path class="cls-3" d="m85.71,723.36c0,12.48-1.08,22.6-2.41,22.6s-2.41-10.12-2.41-22.6,1.08-22.6,2.41-22.6,2.41,10.12,2.41,22.6Z"/>
      <ellipse class="cls-3" cx="78.98" cy="682.77" rx="1.92" ry="6.61"/>
      <ellipse class="cls-3" cx="83.79" cy="652.88" rx="2.89" ry="15.26"/>
      <path class="cls-10" d="m115.18,598.19c-30.99-26.2-58.81-6.9-69.7,3.05,4.78-15,18.82-25.86,35.41-25.86,10.26,0,19.55,4.16,26.28,10.88,3.39,3.39,6.13,7.44,8.01,11.93Z"/>
      <path class="cls-6" d="m102.67,778.06H25.35s.68-19.76,20.13-14.72c5.24-17.89,24.01-7.2,18.52,6.94,12.85-9.7,35.13-2.26,38.67,7.78Z"/>
      <path class="cls-8" d="m61.18,776.82h-28.52c2.79-4.1,7.62-8.42,15.53-6.55,3.52-6.4,14.26-2.64,12.99,6.55Z"/>
    </g>
  </g>
  <g>
    <path class="cls-1" d="m267.89,813.91h-62.83s-2.78-25.25,18.85-22.46c-.62-20.7,24.73-15.78,21.02,0,16.07-15.44,23.83,4.36,23.83,4.36,0,0,12.88-24.48,33.16-4.68,15.64-17.91,31.72,6.28,17.19,22.78h-51.22Z"/>
    <g>
      <polyline class="cls-9" points="354.77 665.21 348.28 672.97 326.5 666.52 323.41 675.53 349.99 678.39 357.82 668.05"/>
      <path class="cls-9" d="m318.54,651.22c.37-.49,30.72-21.42,30.72-21.42l1.76,5.41-25.02,28.36"/>
      <polyline class="cls-9" points="189.04 625.16 191.81 647.15 213.18 665.21 219.15 654.34 196.46 644.41 193.65 625.16"/>
      <path class="cls-9" d="m279.58,752.02c.49-.93,27.74-33.75,27.74-33.75l-8.67-2.48-19.07,24.93"/>
      <polyline class="cls-9" points="261.49 748.24 236.71 716.96 232.07 719.3 261.49 756.77"/>
      <rect class="cls-9" x="255.16" y="720.78" width="25.46" height="92.82"/>
      <path class="cls-7" d="m317.87,604.98c0,19.96-11.84,37.14-28.88,44.92-6.23,2.85-13.17,4.44-20.48,4.44-27.25,0-49.35-22.09-49.35-49.35s22.1-49.37,49.35-49.37c18.69,0,34.96,10.39,43.33,25.71,3.85,7.01,6.03,15.08,6.03,23.65Z"/>
      <path class="cls-1" d="m317.87,604.98c0,19.96-11.84,37.14-28.88,44.92-12.76-5.62-21.67-18.38-21.67-33.22,0-20.04,16.25-36.29,36.29-36.29,2.83,0,5.59.32,8.23.94,3.85,7.01,6.03,15.08,6.03,23.65Z"/>
      <path class="cls-7" d="m334.36,668.04c0,7.62-1.29,14.93-3.67,21.73-4.47,12.78-12.77,23.76-23.52,31.57-1.63,1.19-3.32,2.31-5.06,3.33-9.84,5.87-21.33,9.22-33.61,9.22-7.5,0-14.72-1.26-21.44-3.57-6.01-2.07-11.63-4.98-16.72-8.61-16.76-11.93-27.7-31.53-27.7-53.68,0-1.53.06-3.04.16-4.54,2.33-34.24,30.87-61.32,65.7-61.32s65.86,29.49,65.86,65.86Z"/>
      <circle class="cls-7" cx="190.52" cy="614.92" r="15.83" transform="translate(-451.17 666.38) rotate(-77.37)"/>
      <circle class="cls-7" cx="355.48" cy="623.3" r="21.11" transform="translate(-336.62 433.92) rotate(-45)"/>
      <path class="cls-1" d="m237.14,813.6h67.24s-3.41-5.9-11.15-2.95c.31-13.01-16.41-13.94-17.65-3.72-5.88-8.98-6.3,2.79-6.3,2.79,0,0-10.12-9.6-18.17-1.55-6.5-5.88-14.53-2.59-13.98,5.43Z"/>
      <path class="cls-3" d="m264.12,794.31c0,1.58-1.28,2.86-2.86,2.86s-2.86-1.28-2.86-2.86,1.28-2.86,2.86-2.86,2.86,1.28,2.86,2.86Z"/>
      <path class="cls-3" d="m278.65,774.15c0,3.76-3.05,6.81-6.81,6.81s-6.81-3.05-6.81-6.81,3.05-6.81,6.81-6.81,6.81,3.05,6.81,6.81Z"/>
      <circle class="cls-3" cx="263.14" cy="754.63" r="1.88"/>
      <path class="cls-3" d="m275.5,741.01c0,1.65-1.33,2.98-2.98,2.98s-2.98-1.33-2.98-2.98,1.33-2.98,2.98-2.98,2.98,1.33,2.98,2.98Z"/>
      <path class="cls-3" d="m275.5,788.3c0,.82-.67,1.49-1.49,1.49s-1.49-.67-1.49-1.49.67-1.49,1.49-1.49,1.49.67,1.49,1.49Z"/>
      <path class="cls-3" d="m263.14,764.1c0,1.31-1.06,2.37-2.37,2.37s-2.37-1.06-2.37-2.37,1.06-2.37,2.37-2.37,2.37,1.06,2.37,2.37Z"/>
      <path class="cls-1" d="m187.78,633.6s-3.71-3.8-7.88,0c4.82,3.89,7.88,0,7.88,0Z"/>
      <path class="cls-1" d="m188.95,626.66s-.9-5.23-6.49-4.47c1.76,5.94,6.49,4.47,6.49,4.47Z"/>
      <path class="cls-1" d="m190.7,626.83s4.69-2.49,2.22-7.56c-5.09,3.53-2.22,7.56-2.22,7.56Z"/>
      <path class="cls-1" d="m343.79,632.41s4.69-2.49,2.22-7.56c-5.09,3.53-2.22,7.56-2.22,7.56Z"/>
      <path class="cls-1" d="m348.57,667.14s1.83-4.98-3.4-7.11c-1.44,6.03,3.4,7.11,3.4,7.11Z"/>
      <path class="cls-1" d="m363.08,672.86s2.76,4.54,7.68,1.77c-3.82-4.88-7.68-1.77-7.68-1.77Z"/>
      <path class="cls-1" d="m282.1,688.69s1.43,5.11,6.91,3.78c-2.36-5.73-6.91-3.78-6.91-3.78Z"/>
      <path class="cls-1" d="m351.17,639.41s9.77,5.5,15.96-4.68c-12.08-5.02-15.96,4.68-15.96,4.68Z"/>
      <path class="cls-1" d="m269.46,594.4s10.61-3.62,7.15-15.02c-11.79,5.66-7.15,15.02-7.15,15.02Z"/>
      <path class="cls-1" d="m348.1,632.56s7.52,2.48,10.42-5.42c-9.05-1.83-10.42,5.42-10.42,5.42Z"/>
      <path class="cls-1" d="m334.3,637.1s1.19-7.82-7.08-9.37c-.3,9.23,7.08,9.37,7.08,9.37Z"/>
      <path class="cls-1" d="m265.15,599.08s1.19-7.82-7.08-9.37c-.3,9.23,7.08,9.37,7.08,9.37Z"/>
      <path class="cls-1" d="m363.48,683.08s1.19-7.82-7.08-9.37c-.3,9.23,7.08,9.37,7.08,9.37Z"/>
      <path class="cls-1" d="m187.65,621.44s8.06-4.32,3.76-13.04c-8.75,6.12-3.76,13.04-3.76,13.04Z"/>
      <path class="cls-1" d="m293.63,694.83s8.06-4.32,3.76-13.04c-8.75,6.12-3.76,13.04-3.76,13.04Z"/>
      <path class="cls-7" d="m366.92,663.58c0,4.29-3.47,7.76-7.76,7.76s-7.76-3.47-7.76-7.76,3.47-7.76,7.76-7.76,7.76,3.47,7.76,7.76Z"/>
      <path class="cls-1" d="m265.21,696.79c0,14.04-7.23,26.39-18.15,33.54-6.01-2.07-11.63-4.98-16.72-8.61-16.76-11.93-27.7-31.53-27.7-53.68,0-1.53.06-3.04.16-4.54,6.38-4.29,14.05-6.79,22.32-6.79,20.46,0,37.34,15.33,39.79,35.13.2,1.63.3,3.28.3,4.95Z"/>
      <path class="cls-1" d="m307.17,721.34c-1.63,1.19-3.32,2.31-5.06,3.33-9.84,5.87-21.33,9.22-33.61,9.22-7.5,0-14.72-1.26-21.44-3.57-6.01-2.07-11.63-4.98-16.72-8.61,3.97-16.05,17.72-28.23,34.57-29.88,1.28-.12,2.59-.19,3.9-.19,10.64,0,20.29,4.19,27.41,11.02,5.23,5.02,9.09,11.44,10.95,18.68Z"/>
      <path class="cls-1" d="m330.69,689.78c-4.47,12.78-12.77,23.76-23.52,31.57-1.63,1.19-3.32,2.31-5.06,3.33-4.13-4.1-6.68-9.79-6.68-16.07,0-2.05.28-4.05.79-5.94,2.61-9.63,11.41-16.72,21.87-16.72,4.66,0,9,1.42,12.6,3.82Z"/>
    </g>
    <circle class="cls-2" cx="229.38" cy="685.89" r="14.54" transform="translate(-245.02 139.99) rotate(-22.5)"/>
    <path class="cls-2" d="m249.74,713.18c0,3.39-2.75,6.14-6.14,6.14s-6.14-2.75-6.14-6.14,2.75-6.14,6.14-6.14,6.14,2.75,6.14,6.14Z"/>
  </g>
  <g>
    <path class="cls-4" d="m393.57,720.04s10.2,20.84,31.56,15.69c4.97,13.82,14.33,8.2,14.33,8.2,0,0,6.79,10.58,15.92-1.03,3.28,16.02,20.84.33,25.05-3.88,8.43,13.11,27.86,9.37,25.76-2.58,14.52,7.02,23.42-3.28,24.12-10.77-18.5,1.4-61.57-11.99-61.57-11.99"/>
    <path class="cls-4" d="m432.17,632.31s3.02,7.21,11.11,8.69c-3.7,4.42,5.63,12.78,12.19,9.67,2.46,8.03,11.87,3.15,11.87,3.15,0,0,13.28,5.21,17.74-3.15,8.06,5.73,28.05-1.47,23.13-15.24-9.99,5.24-47.04-8.19-47.04-8.19l-29.01,5.07Z"/>
    <path class="cls-4" d="m441.87,589.07s2.05,7.54,10.44,3.77c.37,11.47,13.86,11.13,14.73,4.83,4.97,5.99,8.75.58,8.75.58,0,0,14.73,2.46,14.4-9.17-.33-11.63-45.21-7.37-48.33,0Z"/>
    <polygon class="cls-3" points="475.79 783.84 458.88 783.84 466.86 558.99 467.81 558.99 475.79 783.84"/>
    <path class="cls-1" d="m467.34,550.95s-1.3,9.05-7.04,11.27c5.3-.44,6.52-1.88,6.52-1.88,0,0,2.54,3.76,7.62,1.88-4.86-1.32-7.1-11.27-7.1-11.27Z"/>
    <path class="cls-1" d="m448.07,785.1h41.12s2.83-18.09,0-20.15c-2.83-2.06-2.31,16.96-2.31,16.96,0,0-3.85-8.79-5.14-6.97-1.28,1.83-.26,6.97-.26,6.97,0,0-8.99-8.74-10.79-4.88-1.8,3.85-1.43,5.65-1.43,5.65,0,0-5.51-11.05-10.91-9.77-5.4,1.28-5.65,8.48-5.65,8.48,0,0-2.31-11.56-4.63-11.31-2.31.26,0,15.01,0,15.01Z"/>
    <path class="cls-4" d="m467.34,684.87s-3.33,16.89-21.83,21c15.74,11.59,21.83,2.31,21.83,2.31,0,0,10.23,11.82,23.11.77-10.51-2.06-19.51-9.68-23.11-24.08Z"/>
    <path class="cls-4" d="m467.34,606.42s-6.76,20.09-24.06,22.13c9.17,4.86,12.03,1.77,12.03,1.77,0,0,7.2,11.56,19.13,2.31,5.76,5.4,10.64.26,10.64.26,0,0-12.36-4.63-17.74-26.47Z"/>
    <path class="cls-4" d="m467.34,569.14s-4.8,12.78-15.03,11.6c4.79,6.82,10.89,2.99,10.89,2.99,0,0,5.38,4.07,7.66-.12.96,3.83,4.37,2.15,4.94-.84,2.6,1.56,5.11,1.32,6.31-1.44-12.74-.6-14.76-12.2-14.76-12.2Z"/>
    <polyline class="cls-3" points="470.21 658.36 474.14 653.81 475.12 653.81 471.51 663.26"/>
    <polyline class="cls-3" points="467.2 596.72 464.18 595.29 463.33 597.42 466.11 599.72"/>
    <polyline class="cls-3" points="463.65 723.73 458.88 718.98 457.76 722.25 462.18 729.95"/>
    <polyline class="cls-3" points="471.19 751.41 476.76 745.02 478.56 747.15 474.14 759.44"/>
    <path class="cls-11" d="m467.42,745.68c0,1.54-1.25,2.78-2.78,2.78s-2.78-1.25-2.78-2.78,1.25-2.78,2.78-2.78,2.78,1.25,2.78,2.78Z"/>
    <path class="cls-11" d="m472.19,766.07c0,.95-.77,1.72-1.72,1.72s-1.72-.77-1.72-1.72.77-1.72,1.72-1.72,1.72.77,1.72,1.72Z"/>
    <path class="cls-11" d="m471.19,756.4c0,.67-.55,1.22-1.22,1.22s-1.22-.55-1.22-1.22.55-1.22,1.22-1.22,1.22.55,1.22,1.22Z"/>
    <circle class="cls-11" cx="469.14" cy="717.17" r="1.8"/>
    <path class="cls-11" d="m466.86,663.72c0,.25-.2.45-.45.45s-.45-.2-.45-.45.2-.45.45-.45.45.2.45.45Z"/>
    <path class="cls-11" d="m470.69,650.65c0,.86-.7,1.56-1.56,1.56s-1.56-.7-1.56-1.56.7-1.56,1.56-1.56,1.56.7,1.56,1.56Z"/>
    <path class="cls-11" d="m468.08,644.03c0,.59-.48,1.06-1.06,1.06s-1.06-.48-1.06-1.06.48-1.06,1.06-1.06,1.06.48,1.06,1.06Z"/>
    <path class="cls-11" d="m467.97,602.33c0,.27-.22.48-.48.48s-.48-.22-.48-.48.22-.48.48-.48.48.22.48.48Z"/>
    <path class="cls-1" d="m467.34,653.81s-18.42,64.3-81.4,63.31c30.49,22.21,44.08,11.93,44.08,11.93,0,0,1.33,10.61,9.28,11.93,7.95,1.33,12.26-6.96,12.26-6.96,0,0,14.58,15.58,29.17,0,10.61,11.6,19.56,5.97,21.21-2.65,21.88,8.95,34.47-8.95,34.47-8.95,0,0-58.94-3.98-69.08-68.61Z"/>
    <path class="cls-1" d="m467.42,596.07s-10.89,35.78-42.29,30.8c10.27,10.72,22.8,8.76,22.8,8.76,0,0-1.51,7.25,4.38,9.36,5.89,2.11,9.81-2.42,9.81-2.42,0,0,13.59,12.98,23.7-2.11,10.42,12.08,25.51.6,27.78-10.57-14.64,5.28-31.67-5.74-37.95-14.49-6.28-8.76-8.22-19.32-8.22-19.32Z"/>
    <path class="cls-1" d="m467.34,562.33s-17.96,22.38-39.56,17.82c14.07,20.02,25.17,7.93,25.17,7.93,0,0,5.98,11.89,14.39,1.98,8.41,10.7,14.55-.4,14.55-.4,0,0,14.27,10.7,25.17-6.54-20.62,2.97-39.73-20.79-39.73-20.79Z"/>
    <path class="cls-4" d="m466.26,654.59s-13.44,16.68-26.56,17.16c7.11,2.37,13.28-2.39,13.28-2.39,0,0-3.16,4.76,0,5.08s7.91-2.37,7.91-2.37c0,0,11.54,9.01,18.18-.95,7.43,4.11,13.12-2.53,13.12-2.53,0,0-16.13,5.84-25.93-14Z"/>
  </g>
  <g>
    <path class="cls-1" d="m623.21,785.51h-48.82s-2.16-19.62,14.65-17.45c-.48-16.08,19.21-12.26,16.33,0,12.49-12,18.52,3.39,18.52,3.39,0,0,10.01-19.02,25.77-3.63,12.15-13.91,24.64,4.88,13.36,17.7h-39.8Z"/>
    <g>
      <polyline class="cls-9" points="690.71 669.97 685.67 676 668.75 670.99 666.35 677.99 687 680.21 693.09 672.18"/>
      <path class="cls-9" d="m662.57,659.11c.29-.38,23.87-16.64,23.87-16.64l1.37,4.21-19.44,22.04"/>
      <polyline class="cls-9" points="561.94 638.85 564.1 655.94 580.7 669.97 585.34 661.52 567.71 653.81 565.52 638.85"/>
      <path class="cls-9" d="m632.29,737.42c.38-.72,21.56-26.23,21.56-26.23l-6.74-1.92-14.82,19.37"/>
      <polyline class="cls-9" points="618.24 734.49 598.99 710.19 595.38 712 618.24 741.11"/>
      <rect class="cls-9" x="613.32" y="713.15" width="19.78" height="72.13"/>
      <path class="cls-7" d="m662.04,623.18c0,15.51-9.2,28.86-22.44,34.9-4.84,2.22-10.23,3.45-15.92,3.45-21.18,0-38.35-17.16-38.35-38.35s17.17-38.36,38.35-38.36c14.52,0,27.16,8.08,33.67,19.98,2.99,5.45,4.69,11.71,4.69,18.38Z"/>
      <path class="cls-1" d="m662.04,623.18c0,15.51-9.2,28.86-22.44,34.9-9.91-4.37-16.84-14.28-16.84-25.81,0-15.57,12.62-28.19,28.19-28.19,2.2,0,4.34.25,6.39.73,2.99,5.45,4.69,11.71,4.69,18.38Z"/>
      <path class="cls-7" d="m674.86,672.17c0,5.92-1.01,11.6-2.85,16.89-3.47,9.93-9.92,18.46-18.27,24.53-1.26.93-2.58,1.79-3.93,2.59-7.64,4.56-16.58,7.17-26.11,7.17-5.83,0-11.44-.98-16.66-2.77-4.67-1.61-9.04-3.87-12.99-6.69-13.02-9.27-21.52-24.5-21.52-41.71,0-1.19.04-2.37.12-3.53,1.81-26.61,23.98-47.65,51.05-47.65s51.17,22.92,51.17,51.17Z"/>
      <circle class="cls-7" cx="563.09" cy="630.89" r="12.3" transform="translate(-175.65 1042.42) rotate(-77.37)"/>
      <circle class="cls-7" cx="691.27" cy="637.41" r="16.4" transform="translate(-248.25 675.49) rotate(-45)"/>
      <path class="cls-1" d="m599.32,785.27h52.25s-2.65-4.58-8.66-2.29c.24-10.11-12.75-10.83-13.72-2.89-4.57-6.98-4.89,2.17-4.89,2.17,0,0-7.86-7.46-14.12-1.2-5.05-4.57-11.29-2.01-10.86,4.22Z"/>
      <path class="cls-3" d="m620.28,770.29c0,1.23-1,2.23-2.23,2.23s-2.23-1-2.23-2.23,1-2.23,2.23-2.23,2.23,1,2.23,2.23Z"/>
      <path class="cls-3" d="m631.57,754.62c0,2.92-2.37,5.29-5.29,5.29s-5.29-2.37-5.29-5.29,2.37-5.29,5.29-5.29,5.29,2.37,5.29,5.29Z"/>
      <circle class="cls-3" cx="619.52" cy="739.45" r="1.46"/>
      <path class="cls-3" d="m629.12,728.87c0,1.28-1.04,2.32-2.32,2.32s-2.32-1.04-2.32-2.32,1.04-2.32,2.32-2.32,2.32,1.04,2.32,2.32Z"/>
      <path class="cls-3" d="m629.12,765.61c0,.64-.52,1.16-1.16,1.16s-1.16-.52-1.16-1.16.52-1.16,1.16-1.16,1.16.52,1.16,1.16Z"/>
      <path class="cls-3" d="m619.52,746.81c0,1.02-.83,1.84-1.84,1.84s-1.84-.83-1.84-1.84.83-1.84,1.84-1.84,1.84.83,1.84,1.84Z"/>
      <path class="cls-1" d="m560.97,645.41s-2.88-2.95-6.12,0c3.75,3.03,6.12,0,6.12,0Z"/>
      <path class="cls-1" d="m561.88,640.02s-.7-4.07-5.04-3.47c1.37,4.62,5.04,3.47,5.04,3.47Z"/>
      <path class="cls-1" d="m563.23,640.15s3.65-1.93,1.73-5.87c-3.96,2.74-1.73,5.87-1.73,5.87Z"/>
      <path class="cls-1" d="m682.18,644.49s3.65-1.93,1.73-5.87c-3.96,2.74-1.73,5.87-1.73,5.87Z"/>
      <path class="cls-1" d="m685.9,671.47s1.42-3.87-2.64-5.53c-1.12,4.68,2.64,5.53,2.64,5.53Z"/>
      <path class="cls-1" d="m697.17,675.92s2.14,3.53,5.97,1.38c-2.97-3.79-5.97-1.38-5.97-1.38Z"/>
      <path class="cls-1" d="m634.25,688.22s1.11,3.97,5.37,2.94c-1.83-4.45-5.37-2.94-5.37-2.94Z"/>
      <path class="cls-1" d="m687.92,649.92s7.59,4.27,12.4-3.64c-9.38-3.9-12.4,3.64-12.4,3.64Z"/>
      <path class="cls-1" d="m624.43,614.95s8.24-2.81,5.55-11.67c-9.16,4.39-5.55,11.67-5.55,11.67Z"/>
      <path class="cls-1" d="m685.53,644.6s5.84,1.92,8.1-4.21c-7.03-1.42-8.1,4.21-8.1,4.21Z"/>
      <path class="cls-1" d="m674.81,648.13s.92-6.08-5.5-7.28c-.23,7.17,5.5,7.28,5.5,7.28Z"/>
      <path class="cls-1" d="m621.08,618.59s.92-6.08-5.5-7.28c-.23,7.17,5.5,7.28,5.5,7.28Z"/>
      <path class="cls-1" d="m697.49,683.86s.92-6.08-5.5-7.28c-.23,7.17,5.5,7.28,5.5,7.28Z"/>
      <path class="cls-1" d="m560.86,635.96s6.26-3.36,2.92-10.13c-6.8,4.76-2.92,10.13-2.92,10.13Z"/>
      <path class="cls-1" d="m643.21,692.99s6.26-3.36,2.92-10.14c-6.8,4.76-2.92,10.14-2.92,10.14Z"/>
      <path class="cls-7" d="m700.16,668.71c0,3.33-2.7,6.03-6.03,6.03s-6.03-2.7-6.03-6.03,2.7-6.03,6.03-6.03,6.03,2.7,6.03,6.03Z"/>
      <path class="cls-1" d="m621.13,694.51c0,10.91-5.61,20.51-14.11,26.06-4.67-1.61-9.04-3.87-12.99-6.69-13.02-9.27-21.52-24.5-21.52-41.71,0-1.19.04-2.37.12-3.53,4.96-3.34,10.92-5.28,17.35-5.28,15.9,0,29.02,11.91,30.91,27.29.16,1.26.23,2.55.23,3.85Z"/>
      <path class="cls-1" d="m653.73,713.59c-1.26.93-2.58,1.79-3.93,2.59-7.64,4.56-16.58,7.17-26.11,7.17-5.83,0-11.44-.98-16.66-2.77-4.67-1.61-9.04-3.87-12.99-6.69,3.08-12.47,13.77-21.94,26.86-23.22,1-.1,2.01-.15,3.03-.15,8.27,0,15.77,3.26,21.3,8.56,4.06,3.9,7.06,8.89,8.51,14.51Z"/>
      <path class="cls-1" d="m672.01,689.06c-3.47,9.93-9.92,18.46-18.27,24.53-1.26.93-2.58,1.79-3.93,2.59-3.21-3.19-5.19-7.61-5.19-12.49,0-1.59.22-3.15.62-4.62,2.03-7.49,8.86-12.99,16.99-12.99,3.62,0,6.99,1.1,9.79,2.97Z"/>
    </g>
    <circle class="cls-2" cx="593.29" cy="686.04" r="11.3" transform="translate(-217.37 279.26) rotate(-22.5)"/>
    <path class="cls-2" d="m609.11,707.24c0,2.63-2.14,4.77-4.77,4.77s-4.77-2.14-4.77-4.77,2.14-4.77,4.77-4.77,4.77,2.14,4.77,4.77Z"/>
  </g>
  <g>
    <path class="cls-10" d="m979.89,793.19h110.09s-5.27-19.26-16.41-12.89c-1.76-22.94-21.06-25.87-27.24-10.04-9.69-17.58-61.67-14.1-66.45,13.76"/>
    <g>
      <path class="cls-9" d="m956.79,631.59l19.44,29.34v10.33l-23.77-36.85c-.42-.66-.53-1.47-.28-2.22h0c.68-2.04,3.41-2.4,4.6-.61Z"/>
      <path class="cls-8" d="m1056.74,596.75v77.34c0,24.54-19.88,44.43-44.43,44.43s-44.43-19.88-44.43-44.43v-77.34c0-4.71.73-9.25,2.09-13.5,5.71-17.94,22.5-30.92,42.34-30.92,12.27,0,23.38,4.97,31.42,13.01,4.06,4.06,7.33,8.89,9.58,14.27,2.2,5.28,3.43,11.07,3.43,17.15Z"/>
      <path class="cls-9" d="m1009.34,595.82h7.84c3.35,0,6.06,2.72,6.06,6.06v191.31h-19.96v-191.31c0-3.35,2.72-6.06,6.06-6.06Z"/>
      <path class="cls-9" d="m990.66,629.01l19.44,29.34v10.33l-23.77-36.85c-.42-.66-.53-1.47-.28-2.22h0c.68-2.04,3.41-2.4,4.6-.61Z"/>
      <path class="cls-9" d="m996.27,669.82l24.83,37.46-2.7,17.63-31.55-48.92c-.93-1.44-1.15-3.21-.61-4.83h0c1.48-4.45,7.44-5.24,10.04-1.33Z"/>
      <path class="cls-9" d="m1033.62,601.8l-19.44,29.34v10.33l23.77-36.85c.42-.66.53-1.47.28-2.22h0c-.68-2.04-3.41-2.4-4.6-.61Z"/>
      <path class="cls-9" d="m1040.54,700.82l-19.44,29.34v10.33l23.77-36.85c.42-.66.53-1.47.28-2.22h0c-.68-2.04-3.41-2.4-4.6-.61Z"/>
      <circle class="cls-10" cx="958.28" cy="621.06" r="20.41"/>
      <circle class="cls-10" cx="1055.51" cy="684.5" r="25.9"/>
      <circle class="cls-5" cx="1047.26" cy="673.7" r="6.25"/>
      <circle class="cls-5" cx="1067" cy="680.73" r="9.22"/>
      <path class="cls-5" d="m947.93,619.03c0,1.12-.91,2.03-2.03,2.03s-2.03-.91-2.03-2.03.91-2.03,2.03-2.03,2.03.91,2.03,2.03Z"/>
      <circle class="cls-5" cx="952.42" cy="609.74" r="2.74"/>
      <circle class="cls-5" cx="966.85" cy="616.27" r="6.53"/>
      <path class="cls-8" d="m1060.95,656.24s-2.53-8.71,7.28-9.68c1.75,9.68-7.28,9.68-7.28,9.68Z"/>
      <path class="cls-6" d="m979.89,687.12s5.46-7.24,12.11.03c-6.7,7.2-12.11-.03-12.11-.03Z"/>
      <path class="cls-6" d="m974.61,674.63s8.29-3.67,10.56,5.92c-9.36,3.03-10.56-5.92-10.56-5.92Z"/>
      <path class="cls-6" d="m1041.17,606.98s-1.59-8.93,8.27-8.85c.71,9.81-8.27,8.85-8.27,8.85Z"/>
      <path class="cls-6" d="m1033.19,616.38s6.57-12.46,18.58-2.95c-8.49,12.7-18.58,2.95-18.58,2.95Z"/>
      <path class="cls-8" d="m1043.64,710.98s8.47,3.24,3.32,11.65c-8.77-4.44-3.32-11.65-3.32-11.65Z"/>
      <path class="cls-8" d="m1050.63,713.19s11.16-3.47,12.64,9.16c-12.43,2.48-12.64-9.16-12.64-9.16Z"/>
      <path class="cls-8" d="m954.29,659.74s-5.75-7.01,2.89-11.76c5.41,8.21-2.89,11.76-2.89,11.76Z"/>
      <path class="cls-8" d="m936.95,644.78s8.31-10.53,17.91.46c-10.15,10.42-17.91-.46-17.91-.46Z"/>
      <ellipse class="cls-3" cx="1010.03" cy="614.9" rx="2.29" ry="7.9"/>
      <path class="cls-3" d="m1018.07,729.27c0,14.92-1.29,27.02-2.88,27.02s-2.88-12.1-2.88-27.02,1.29-27.02,2.88-27.02,2.88,12.1,2.88,27.02Z"/>
      <ellipse class="cls-3" cx="1010.03" cy="680.73" rx="2.29" ry="7.9"/>
      <ellipse class="cls-3" cx="1015.78" cy="644.99" rx="3.46" ry="18.25"/>
      <path class="cls-10" d="m1053.32,579.6c-37.06-31.33-70.32-8.25-83.34,3.65,5.71-17.94,22.5-30.92,42.34-30.92,12.27,0,23.38,4.97,31.42,13.01,4.06,4.06,7.33,8.89,9.58,14.27Z"/>
      <path class="cls-6" d="m1038.36,794.68h-92.45s.82-23.63,24.07-17.6c6.27-21.39,28.71-8.61,22.15,8.3,15.37-11.6,42-2.71,46.23,9.3Z"/>
      <path class="cls-8" d="m988.75,793.19h-34.1c3.34-4.9,9.11-10.06,18.57-7.83,4.2-7.65,17.05-3.15,15.53,7.83Z"/>
    </g>
  </g>
  <g>
    <path class="cls-4" d="m701.57,733s14.48,29.57,44.79,22.26c7.05,19.61,20.34,11.63,20.34,11.63,0,0,9.64,15.01,22.6-1.47,4.65,22.73,29.57.47,35.56-5.51,11.96,18.61,39.54,13.29,36.55-3.66,20.6,9.97,33.23-4.65,34.23-15.29-26.25,1.99-87.37-17.02-87.37-17.02"/>
    <path class="cls-4" d="m756.35,608.5s4.28,10.24,15.76,12.33c-5.26,6.28,8,18.13,17.29,13.72,3.49,11.39,16.85,4.47,16.85,4.47,0,0,18.85,7.39,25.18-4.47,11.44,8.14,39.8-2.09,32.83-21.62-14.18,7.44-66.75-11.62-66.75-11.62l-41.17,7.2Z"/>
    <path class="cls-4" d="m770.12,547.14s2.9,10.69,14.82,5.35c.52,16.27,19.66,15.79,20.9,6.85,7.05,8.49,12.42.82,12.42.82,0,0,20.91,3.49,20.44-13.02-.46-16.51-64.16-10.46-68.58,0Z"/>
    <polygon class="cls-3" points="818.25 823.53 794.27 823.53 805.58 504.46 806.94 504.46 818.25 823.53"/>
    <path class="cls-1" d="m806.26,493.04s-1.84,12.85-9.99,15.99c7.53-.62,9.25-2.67,9.25-2.67,0,0,3.61,5.33,10.82,2.67-6.9-1.88-10.07-15.99-10.07-15.99Z"/>
    <path class="cls-1" d="m778.92,825.32h58.35s4.01-25.67,0-28.59c-4.01-2.92-3.28,24.07-3.28,24.07,0,0-5.47-12.47-7.29-9.88-1.82,2.59-.36,9.88-.36,9.88,0,0-12.76-12.4-15.32-6.93-2.55,5.47-2.03,8.02-2.03,8.02,0,0-7.82-15.68-15.48-13.86-7.66,1.82-8.02,12.03-8.02,12.03,0,0-3.28-16.41-6.56-16.05-3.28.36,0,21.3,0,21.3Z"/>
    <path class="cls-4" d="m806.26,683.09s-4.73,23.97-30.98,29.8c22.33,16.45,30.98,3.28,30.98,3.28,0,0,14.52,16.78,32.8,1.09-14.91-2.92-27.68-13.74-32.8-34.18Z"/>
    <path class="cls-4" d="m806.26,571.76s-9.59,28.52-34.14,31.4c13.01,6.89,17.07,2.52,17.07,2.52,0,0,10.22,16.41,27.15,3.28,8.17,7.66,15.1.36,15.1.36,0,0-17.53-6.56-25.18-37.56Z"/>
    <path class="cls-4" d="m806.26,518.86s-6.81,18.13-21.33,16.47c6.79,9.68,15.45,4.24,15.45,4.24,0,0,7.64,5.77,10.87-.17,1.36,5.43,6.2,3.06,7.01-1.19,3.69,2.21,7.25,1.87,8.95-2.04-18.08-.85-20.95-17.32-20.95-17.32Z"/>
    <polyline class="cls-3" points="810.33 645.47 815.91 639.01 817.31 639.01 812.19 652.42"/>
    <polyline class="cls-3" points="806.07 558 801.78 555.97 800.57 558.99 804.52 562.25"/>
    <polyline class="cls-3" points="801.03 738.23 794.27 731.49 792.67 736.14 798.94 747.06"/>
    <polyline class="cls-3" points="811.73 777.52 819.63 768.45 822.19 771.47 815.91 788.91"/>
    <path class="cls-11" d="m806.38,769.38c0,2.18-1.77,3.95-3.95,3.95s-3.95-1.77-3.95-3.95,1.77-3.95,3.95-3.95,3.95,1.77,3.95,3.95Z"/>
    <path class="cls-11" d="m813.14,798.32c0,1.35-1.09,2.44-2.44,2.44s-2.44-1.09-2.44-2.44,1.09-2.44,2.44-2.44,2.44,1.09,2.44,2.44Z"/>
    <path class="cls-11" d="m811.73,784.6c0,.96-.78,1.73-1.73,1.73s-1.73-.78-1.73-1.73.78-1.73,1.73-1.73,1.73.78,1.73,1.73Z"/>
    <circle class="cls-11" cx="808.82" cy="728.93" r="2.56"/>
    <path class="cls-11" d="m805.58,653.07c0,.36-.29.65-.65.65s-.65-.29-.65-.65.29-.65.65-.65.65.29.65.65Z"/>
    <path class="cls-11" d="m811.03,634.52c0,1.22-.99,2.21-2.21,2.21s-2.21-.99-2.21-2.21.99-2.21,2.21-2.21,2.21.99,2.21,2.21Z"/>
    <path class="cls-11" d="m807.31,625.13c0,.83-.68,1.51-1.51,1.51s-1.51-.68-1.51-1.51.68-1.51,1.51-1.51,1.51.68,1.51,1.51Z"/>
    <path class="cls-11" d="m807.17,565.95c0,.38-.31.68-.68.68s-.68-.31-.68-.68.31-.68.68-.68.68.31.68.68Z"/>
    <path class="cls-1" d="m806.26,639.01s-26.14,91.25-115.51,89.84c43.27,31.51,62.56,16.93,62.56,16.93,0,0,1.88,15.05,13.17,16.93,11.29,1.88,17.4-9.88,17.4-9.88,0,0,20.7,22.11,41.39,0,15.05,16.46,27.75,8.47,30.1-3.76,31.04,12.7,48.92-12.7,48.92-12.7,0,0-83.65-5.64-98.03-97.36Z"/>
    <path class="cls-1" d="m806.37,557.08s-15.45,50.77-60.01,43.7c14.57,15.21,32.35,12.43,32.35,12.43,0,0-2.14,10.28,6.21,13.28,8.35,3,13.92-3.43,13.92-3.43,0,0,19.28,18.42,33.63-3,14.78,17.14,36.2.86,39.42-15-20.78,7.5-44.95-8.14-53.86-20.57-8.91-12.43-11.66-27.42-11.66-27.42Z"/>
    <path class="cls-1" d="m806.26,509.19s-25.48,31.75-56.15,25.28c19.97,28.41,35.73,11.25,35.73,11.25,0,0,8.49,16.88,20.42,2.81,11.93,15.19,20.65-.56,20.65-.56,0,0,20.25,15.19,35.73-9.28-29.26,4.22-56.38-29.5-56.38-29.5Z"/>
    <path class="cls-4" d="m804.74,640.11s-19.07,23.68-37.69,24.35c10.1,3.37,18.85-3.39,18.85-3.39,0,0-4.49,6.75,0,7.2s11.22-3.37,11.22-3.37c0,0,16.38,12.79,25.8-1.35,10.55,5.83,18.62-3.59,18.62-3.59,0,0-22.89,8.29-36.8-19.86Z"/>
  </g>
  <g>
    <path class="cls-4" d="m1118.55,720.95s8.88,18.13,27.46,13.65c4.32,12.02,12.47,7.13,12.47,7.13,0,0,5.91,9.2,13.85-.9,2.85,13.94,18.13.29,21.8-3.38,7.33,11.41,24.24,8.15,22.41-2.24,12.63,6.11,20.37-2.85,20.98-9.37-16.09,1.22-53.56-10.43-53.56-10.43"/>
    <path class="cls-4" d="m1152.13,644.62s2.63,6.28,9.67,7.56c-3.22,3.85,4.9,11.12,10.6,8.41,2.14,6.98,10.33,2.74,10.33,2.74,0,0,11.56,4.53,15.44-2.74,7.01,4.99,24.4-1.28,20.13-13.25-8.69,4.56-40.92-7.13-40.92-7.13l-25.24,4.41Z"/>
    <path class="cls-4" d="m1160.57,607s1.78,6.56,9.09,3.28c.32,9.98,12.05,9.68,12.82,4.2,4.32,5.21,7.61.5,7.61.5,0,0,12.82,2.14,12.53-7.98-.29-10.12-39.34-6.41-42.04,0Z"/>
    <polygon class="cls-3" points="1190.08 776.45 1175.38 776.45 1182.32 580.84 1183.15 580.84 1190.08 776.45"/>
    <path class="cls-1" d="m1182.73,573.84s-1.13,7.88-6.13,9.8c4.61-.38,5.67-1.64,5.67-1.64,0,0,2.21,3.27,6.63,1.64-4.23-1.15-6.18-9.8-6.18-9.8Z"/>
    <path class="cls-1" d="m1165.97,777.55h35.77s2.46-15.74,0-17.53c-2.46-1.79-2.01,14.76-2.01,14.76,0,0-3.35-7.65-4.47-6.06-1.12,1.59-.22,6.06-.22,6.06,0,0-7.83-7.6-9.39-4.25-1.57,3.35-1.24,4.92-1.24,4.92,0,0-4.79-9.61-9.49-8.5-4.7,1.12-4.92,7.38-4.92,7.38,0,0-2.01-10.06-4.02-9.84-2.01.22,0,13.06,0,13.06Z"/>
    <path class="cls-4" d="m1182.73,690.35s-2.9,14.69-19,18.27c13.69,10.09,19,2.01,19,2.01,0,0,8.9,10.28,20.11.67-9.14-1.79-16.97-8.42-20.11-20.95Z"/>
    <path class="cls-4" d="m1182.73,622.1s-5.88,17.48-20.93,19.25c7.97,4.23,10.47,1.54,10.47,1.54,0,0,6.27,10.06,16.64,2.01,5.01,4.7,9.26.22,9.26.22,0,0-10.75-4.02-15.44-23.03Z"/>
    <path class="cls-4" d="m1182.73,589.67s-4.17,11.12-13.07,10.1c4.16,5.93,9.47,2.6,9.47,2.6,0,0,4.68,3.54,6.66-.1.83,3.33,3.8,1.87,4.3-.73,2.26,1.35,4.45,1.14,5.49-1.25-11.08-.52-12.84-10.62-12.84-10.62Z"/>
    <polyline class="cls-3" points="1185.23 667.29 1188.65 663.33 1189.5 663.33 1186.36 671.55"/>
    <polyline class="cls-3" points="1182.61 613.66 1179.98 612.42 1179.24 614.27 1181.67 616.27"/>
    <polyline class="cls-3" points="1179.53 724.16 1175.38 720.02 1174.4 722.87 1178.24 729.57"/>
    <polyline class="cls-3" points="1186.08 748.24 1190.93 742.69 1192.5 744.54 1188.65 755.23"/>
    <path class="cls-11" d="m1182.81,743.26c0,1.34-1.08,2.42-2.42,2.42s-2.42-1.08-2.42-2.42,1.08-2.42,2.42-2.42,2.42,1.08,2.42,2.42Z"/>
    <path class="cls-11" d="m1186.95,761c0,.83-.67,1.5-1.5,1.5s-1.5-.67-1.5-1.5.67-1.5,1.5-1.5,1.5.67,1.5,1.5Z"/>
    <path class="cls-11" d="m1186.08,752.59c0,.59-.48,1.06-1.06,1.06s-1.06-.48-1.06-1.06.48-1.06,1.06-1.06,1.06.48,1.06,1.06Z"/>
    <circle class="cls-11" cx="1184.3" cy="718.46" r="1.57"/>
    <path class="cls-11" d="m1182.31,671.95c0,.22-.18.4-.4.4s-.4-.18-.4-.4.18-.4.4-.4.4.18.4.4Z"/>
    <path class="cls-11" d="m1185.65,660.58c0,.75-.61,1.35-1.35,1.35s-1.35-.61-1.35-1.35.61-1.35,1.35-1.35,1.35.61,1.35,1.35Z"/>
    <path class="cls-11" d="m1183.38,654.82c0,.51-.41.93-.93.93s-.93-.41-.93-.93.41-.93.93-.93.93.41.93.93Z"/>
    <path class="cls-11" d="m1183.29,618.54c0,.23-.19.42-.42.42s-.42-.19-.42-.42.19-.42.42-.42.42.19.42.42Z"/>
    <path class="cls-1" d="m1182.73,663.33s-16.03,55.94-70.82,55.08c26.53,19.32,38.35,10.38,38.35,10.38,0,0,1.15,9.23,8.07,10.38,6.92,1.15,10.67-6.06,10.67-6.06,0,0,12.69,13.55,25.38,0,9.23,10.09,17.01,5.19,18.46-2.31,19.03,7.79,29.99-7.79,29.99-7.79,0,0-51.28-3.46-60.1-59.69Z"/>
    <path class="cls-1" d="m1182.8,613.1s-9.47,31.13-36.79,26.79c8.93,9.32,19.83,7.62,19.83,7.62,0,0-1.31,6.3,3.81,8.14,5.12,1.84,8.54-2.1,8.54-2.1,0,0,11.82,11.3,20.62-1.84,9.06,10.51,22.2.53,24.17-9.19-12.74,4.6-27.56-4.99-33.02-12.61-5.46-7.62-7.15-16.81-7.15-16.81Z"/>
    <path class="cls-1" d="m1182.73,583.74s-15.62,19.47-34.42,15.5c12.24,17.42,21.9,6.9,21.9,6.9,0,0,5.21,10.35,12.52,1.72,7.31,9.31,12.66-.34,12.66-.34,0,0,12.42,9.31,21.9-5.69-17.94,2.59-34.56-18.09-34.56-18.09Z"/>
    <path class="cls-4" d="m1181.8,664.01s-11.69,14.52-23.11,14.93c6.19,2.06,11.55-2.08,11.55-2.08,0,0-2.75,4.14,0,4.42,2.75.28,6.88-2.06,6.88-2.06,0,0,10.04,7.84,15.82-.83,6.46,3.58,11.42-2.2,11.42-2.2,0,0-14.03,5.08-22.56-12.18Z"/>
  </g>
  <g>
    <path class="cls-1" d="m1350.14,813.27h-66.47s-2.94-26.71,19.95-23.76c-.65-21.89,26.16-16.69,22.23,0,17-16.34,25.21,4.61,25.21,4.61,0,0,13.63-25.9,35.08-4.95,16.55-18.94,33.55,6.64,18.18,24.09h-54.18Z"/>
    <g>
      <polyline class="cls-9" points="1442.05 655.96 1435.18 664.17 1412.14 657.35 1408.88 666.88 1437 669.91 1445.28 658.96"/>
      <path class="cls-9" d="m1403.73,641.17c.39-.52,32.49-22.65,32.49-22.65l1.87,5.73-26.46,30"/>
      <polyline class="cls-9" points="1266.73 613.6 1269.67 636.85 1292.27 655.96 1298.58 644.46 1274.58 633.96 1271.61 613.6"/>
      <path class="cls-9" d="m1362.51,747.8c.52-.98,29.35-35.71,29.35-35.71l-9.17-2.62-20.17,26.37"/>
      <polyline class="cls-9" points="1343.37 743.8 1317.16 710.71 1312.25 713.18 1343.37 752.82"/>
      <rect class="cls-9" x="1336.68" y="714.75" width="26.93" height="98.19"/>
      <path class="cls-7" d="m1403.01,592.25c0,21.12-12.53,39.29-30.55,47.51-6.59,3.02-13.93,4.69-21.67,4.69-28.83,0-52.21-23.37-52.21-52.21s23.38-52.22,52.21-52.22c19.77,0,36.98,10.99,45.84,27.2,4.07,7.42,6.38,15.95,6.38,25.02Z"/>
      <path class="cls-1" d="m1403.01,592.25c0,21.12-12.53,39.29-30.55,47.51-13.49-5.95-22.92-19.44-22.92-35.14,0-21.2,17.19-38.38,38.38-38.38,3,0,5.91.34,8.71.99,4.07,7.42,6.38,15.95,6.38,25.02Z"/>
      <path class="cls-7" d="m1420.46,658.96c0,8.06-1.37,15.79-3.88,22.99-4.73,13.52-13.51,25.14-24.88,33.39-1.72,1.26-3.52,2.44-5.36,3.53-10.4,6.2-22.57,9.76-35.55,9.76-7.94,0-15.57-1.33-22.68-3.77-6.36-2.19-12.3-5.27-17.68-9.11-17.73-12.62-29.3-33.36-29.3-56.79,0-1.62.06-3.22.17-4.8,2.47-36.23,32.65-64.87,69.5-64.87s69.67,31.2,69.67,69.67Z"/>
      <circle class="cls-7" cx="1268.3" cy="602.76" r="16.75" transform="translate(402.82 1708.59) rotate(-77.37)"/>
      <circle class="cls-7" cx="1442.8" cy="611.63" r="22.33" transform="translate(-9.9 1199.35) rotate(-45)"/>
      <path class="cls-1" d="m1317.62,812.94h71.13s-3.6-6.24-11.79-3.12c.33-13.76-17.36-14.74-18.67-3.93-6.22-9.5-6.66,2.95-6.66,2.95,0,0-10.7-10.16-19.22-1.64-6.88-6.22-15.37-2.74-14.79,5.74Z"/>
      <path class="cls-3" d="m1346.16,792.54c0,1.67-1.36,3.03-3.03,3.03s-3.03-1.36-3.03-3.03,1.36-3.03,3.03-3.03,3.03,1.36,3.03,3.03Z"/>
      <path class="cls-3" d="m1361.52,771.21c0,3.98-3.23,7.21-7.21,7.21s-7.21-3.23-7.21-7.21,3.23-7.21,7.21-7.21,7.21,3.23,7.21,7.21Z"/>
      <circle class="cls-3" cx="1345.12" cy="750.55" r="1.99"/>
      <path class="cls-3" d="m1358.19,736.15c0,1.74-1.41,3.15-3.15,3.15s-3.15-1.41-3.15-3.15,1.41-3.15,3.15-3.15,3.15,1.41,3.15,3.15Z"/>
      <path class="cls-3" d="m1358.19,786.17c0,.87-.71,1.58-1.58,1.58s-1.58-.71-1.58-1.58.71-1.58,1.58-1.58,1.58.71,1.58,1.58Z"/>
      <path class="cls-3" d="m1345.12,760.57c0,1.39-1.12,2.51-2.51,2.51s-2.51-1.12-2.51-2.51,1.12-2.51,2.51-2.51,2.51,1.12,2.51,2.51Z"/>
      <path class="cls-1" d="m1265.4,622.53s-3.92-4.02-8.34,0c5.1,4.12,8.34,0,8.34,0Z"/>
      <path class="cls-1" d="m1266.64,615.19s-.95-5.54-6.87-4.73c1.87,6.28,6.87,4.73,6.87,4.73Z"/>
      <path class="cls-1" d="m1268.49,615.36s4.96-2.63,2.35-8c-5.39,3.73-2.35,8-2.35,8Z"/>
      <path class="cls-1" d="m1430.43,621.27s4.96-2.63,2.35-8c-5.39,3.73-2.35,8-2.35,8Z"/>
      <path class="cls-1" d="m1435.49,658.01s1.94-5.27-3.59-7.52c-1.52,6.38,3.59,7.52,3.59,7.52Z"/>
      <path class="cls-1" d="m1450.84,664.06s2.92,4.8,8.12,1.88c-4.04-5.16-8.12-1.88-8.12-1.88Z"/>
      <path class="cls-1" d="m1365.18,680.8s1.51,5.41,7.31,4c-2.5-6.06-7.31-4-7.31-4Z"/>
      <path class="cls-1" d="m1438.25,628.67s10.33,5.81,16.88-4.95c-12.78-5.31-16.88,4.95-16.88,4.95Z"/>
      <path class="cls-1" d="m1351.81,581.05s11.22-3.83,7.56-15.89c-12.48,5.98-7.56,15.89-7.56,15.89Z"/>
      <path class="cls-1" d="m1434.99,621.42s7.95,2.62,11.02-5.73c-9.58-1.94-11.02,5.73-11.02,5.73Z"/>
      <path class="cls-1" d="m1420.39,626.23s1.26-8.28-7.49-9.91c-.32,9.76,7.49,9.91,7.49,9.91Z"/>
      <path class="cls-1" d="m1347.25,586.01s1.26-8.28-7.49-9.91c-.32,9.76,7.49,9.91,7.49,9.91Z"/>
      <path class="cls-1" d="m1451.27,674.87s1.26-8.28-7.49-9.91c-.32,9.76,7.49,9.91,7.49,9.91Z"/>
      <path class="cls-1" d="m1265.26,609.66s8.53-4.57,3.98-13.8c-9.25,6.48-3.98,13.8-3.98,13.8Z"/>
      <path class="cls-1" d="m1377.37,687.3s8.53-4.57,3.98-13.8c-9.25,6.48-3.98,13.8-3.98,13.8Z"/>
      <path class="cls-7" d="m1454.9,654.24c0,4.53-3.68,8.21-8.21,8.21s-8.21-3.68-8.21-8.21,3.68-8.21,8.21-8.21,8.21,3.68,8.21,8.21Z"/>
      <path class="cls-1" d="m1347.31,689.37c0,14.85-7.64,27.92-19.2,35.48-6.36-2.19-12.3-5.27-17.68-9.11-17.73-12.62-29.3-33.36-29.3-56.79,0-1.62.06-3.22.17-4.8,6.75-4.54,14.86-7.18,23.62-7.18,21.65,0,39.51,16.22,42.09,37.16.21,1.72.32,3.47.32,5.24Z"/>
      <path class="cls-1" d="m1391.7,715.35c-1.72,1.26-3.52,2.44-5.36,3.53-10.4,6.2-22.57,9.76-35.55,9.76-7.94,0-15.57-1.33-22.68-3.77-6.36-2.19-12.3-5.27-17.68-9.11,4.2-16.97,18.74-29.87,36.57-31.61,1.36-.13,2.74-.2,4.13-.2,11.25,0,21.47,4.44,28.99,11.65,5.53,5.31,9.61,12.1,11.58,19.76Z"/>
      <path class="cls-1" d="m1416.58,681.95c-4.73,13.52-13.51,25.14-24.88,33.39-1.72,1.26-3.52,2.44-5.36,3.53-4.36-4.34-7.07-10.36-7.07-17,0-2.17.29-4.28.84-6.29,2.76-10.19,12.07-17.68,23.13-17.68,4.93,0,9.52,1.5,13.33,4.05Z"/>
    </g>
    <circle class="cls-2" cx="1309.41" cy="677.84" r="15.39" transform="translate(-159.73 552.69) rotate(-22.5)"/>
    <path class="cls-2" d="m1330.95,706.7c0,3.59-2.91,6.49-6.49,6.49s-6.49-2.91-6.49-6.49,2.91-6.49,6.49-6.49,6.49,2.91,6.49,6.49Z"/>
  </g>
  <g>
    <path class="cls-1" d="m1594.48,800.52h-61.55s-2.73-24.74,18.47-22c-.61-20.28,24.22-15.45,20.59,0,15.75-15.13,23.35,4.27,23.35,4.27,0,0,12.62-23.98,32.49-4.58,15.32-17.54,31.07,6.15,16.84,22.31h-50.18Z"/>
    <g>
      <polyline class="cls-9" points="1679.59 654.85 1673.24 662.45 1651.9 656.13 1648.87 664.95 1674.91 667.76 1682.59 657.63"/>
      <path class="cls-9" d="m1644.1,641.15c.36-.48,30.09-20.98,30.09-20.98l1.73,5.3-24.51,27.78"/>
      <polyline class="cls-9" points="1517.24 615.61 1519.96 637.15 1540.89 654.85 1546.74 644.2 1524.51 634.47 1521.76 615.61"/>
      <path class="cls-9" d="m1605.93,739.89c.48-.91,27.18-33.07,27.18-33.07l-8.49-2.43-18.68,24.42"/>
      <polyline class="cls-9" points="1588.21 736.19 1563.94 705.55 1559.39 707.83 1588.21 744.54"/>
      <rect class="cls-9" x="1582.01" y="709.28" width="24.94" height="90.93"/>
      <path class="cls-7" d="m1643.44,595.85c0,19.55-11.6,36.39-28.29,44-6.11,2.8-12.9,4.35-20.07,4.35-26.7,0-48.35-21.64-48.35-48.35s21.65-48.36,48.35-48.36c18.31,0,34.25,10.18,42.45,25.19,3.77,6.87,5.91,14.77,5.91,23.17Z"/>
      <path class="cls-1" d="m1643.44,595.85c0,19.55-11.6,36.39-28.29,44-12.5-5.51-21.22-18-21.22-32.54,0-19.63,15.92-35.55,35.55-35.55,2.77,0,5.47.32,8.06.92,3.77,6.87,5.91,14.77,5.91,23.17Z"/>
      <path class="cls-7" d="m1659.6,657.62c0,7.46-1.27,14.63-3.59,21.29-4.38,12.52-12.51,23.28-23.04,30.93-1.59,1.17-3.26,2.26-4.96,3.27-9.63,5.75-20.9,9.03-32.92,9.03-7.35,0-14.42-1.23-21.01-3.5-5.89-2.03-11.39-4.88-16.38-8.43-16.42-11.69-27.13-30.89-27.13-52.59,0-1.5.05-2.98.15-4.45,2.28-33.55,30.24-60.07,64.36-60.07s64.52,28.89,64.52,64.52Z"/>
      <circle class="cls-7" cx="1518.69" cy="605.58" r="15.51" transform="translate(595.72 1955.12) rotate(-77.37)"/>
      <circle class="cls-7" cx="1680.29" cy="613.79" r="20.68" transform="translate(58.13 1367.92) rotate(-45)"/>
      <path class="cls-1" d="m1564.36,800.22h65.87s-3.34-5.78-10.92-2.89c.3-12.74-16.08-13.65-17.29-3.64-5.76-8.8-6.17,2.73-6.17,2.73,0,0-9.91-9.4-17.8-1.52-6.37-5.76-14.24-2.54-13.69,5.32Z"/>
      <path class="cls-3" d="m1590.79,781.32c0,1.55-1.26,2.81-2.81,2.81s-2.81-1.26-2.81-2.81,1.26-2.81,2.81-2.81,2.81,1.26,2.81,2.81Z"/>
      <path class="cls-3" d="m1605.02,761.57c0,3.69-2.99,6.67-6.67,6.67s-6.67-2.99-6.67-6.67,2.99-6.67,6.67-6.67,6.67,2.99,6.67,6.67Z"/>
      <circle class="cls-3" cx="1589.83" cy="742.44" r="1.84"/>
      <path class="cls-3" d="m1601.94,729.11c0,1.61-1.31,2.92-2.92,2.92s-2.92-1.31-2.92-2.92,1.31-2.92,2.92-2.92,2.92,1.31,2.92,2.92Z"/>
      <path class="cls-3" d="m1601.94,775.43c0,.81-.65,1.46-1.46,1.46s-1.46-.65-1.46-1.46.65-1.46,1.46-1.46,1.46.65,1.46,1.46Z"/>
      <path class="cls-3" d="m1589.83,751.72c0,1.28-1.04,2.33-2.33,2.33s-2.33-1.04-2.33-2.33,1.04-2.33,2.33-2.33,2.33,1.04,2.33,2.33Z"/>
      <path class="cls-1" d="m1516.01,623.89s-3.63-3.72-7.72,0c4.72,3.81,7.72,0,7.72,0Z"/>
      <path class="cls-1" d="m1517.16,617.09s-.88-5.13-6.36-4.38c1.73,5.82,6.36,4.38,6.36,4.38Z"/>
      <path class="cls-1" d="m1518.87,617.25s4.6-2.44,2.18-7.41c-4.99,3.46-2.18,7.41-2.18,7.41Z"/>
      <path class="cls-1" d="m1668.83,622.72s4.6-2.44,2.18-7.41c-4.99,3.46-2.18,7.41-2.18,7.41Z"/>
      <path class="cls-1" d="m1673.52,656.74s1.79-4.88-3.33-6.97c-1.41,5.91,3.33,6.97,3.33,6.97Z"/>
      <path class="cls-1" d="m1687.73,662.34s2.7,4.45,7.52,1.74c-3.74-4.78-7.52-1.74-7.52-1.74Z"/>
      <path class="cls-1" d="m1608.41,677.85s1.4,5.01,6.77,3.71c-2.31-5.61-6.77-3.71-6.77-3.71Z"/>
      <path class="cls-1" d="m1676.07,629.57s9.57,5.38,15.64-4.58c-11.83-4.92-15.64,4.58-15.64,4.58Z"/>
      <path class="cls-1" d="m1596.02,585.48s10.39-3.55,7-14.71c-11.55,5.54-7,14.71-7,14.71Z"/>
      <path class="cls-1" d="m1673.06,622.86s7.36,2.42,10.21-5.31c-8.87-1.8-10.21,5.31-10.21,5.31Z"/>
      <path class="cls-1" d="m1659.54,627.31s1.17-7.66-6.93-9.18c-.29,9.04,6.93,9.18,6.93,9.18Z"/>
      <path class="cls-1" d="m1591.8,590.07s1.17-7.66-6.93-9.18c-.29,9.04,6.93,9.18,6.93,9.18Z"/>
      <path class="cls-1" d="m1688.13,672.35s1.17-7.66-6.93-9.18c-.29,9.04,6.93,9.18,6.93,9.18Z"/>
      <path class="cls-1" d="m1515.88,611.97s7.9-4.24,3.68-12.78c-8.57,6-3.68,12.78-3.68,12.78Z"/>
      <path class="cls-1" d="m1619.7,683.87s7.9-4.24,3.68-12.78c-8.57,6-3.68,12.78-3.68,12.78Z"/>
      <path class="cls-7" d="m1691.49,653.26c0,4.2-3.4,7.6-7.6,7.6s-7.6-3.4-7.6-7.6,3.4-7.6,7.6-7.6,7.6,3.4,7.6,7.6Z"/>
      <path class="cls-1" d="m1591.86,685.78c0,13.75-7.08,25.86-17.78,32.86-5.89-2.03-11.39-4.88-16.38-8.43-16.42-11.69-27.13-30.89-27.13-52.59,0-1.5.05-2.98.15-4.45,6.25-4.21,13.76-6.65,21.87-6.65,20.05,0,36.58,15.02,38.98,34.41.2,1.59.29,3.21.29,4.85Z"/>
      <path class="cls-1" d="m1632.97,709.84c-1.59,1.17-3.26,2.26-4.96,3.27-9.63,5.75-20.9,9.03-32.92,9.03-7.35,0-14.42-1.23-21.01-3.5-5.89-2.03-11.39-4.88-16.38-8.43,3.89-15.72,17.36-27.66,33.86-29.28,1.26-.12,2.53-.19,3.82-.19,10.42,0,19.88,4.11,26.85,10.79,5.12,4.92,8.9,11.21,10.73,18.3Z"/>
      <path class="cls-1" d="m1656.01,678.91c-4.38,12.52-12.51,23.28-23.04,30.93-1.59,1.17-3.26,2.26-4.96,3.27-4.04-4.02-6.54-9.59-6.54-15.74,0-2.01.27-3.97.78-5.82,2.56-9.44,11.17-16.37,21.42-16.37,4.57,0,8.82,1.39,12.34,3.75Z"/>
    </g>
    <circle class="cls-2" cx="1556.76" cy="675.11" r="14.25" transform="translate(-139.85 647.14) rotate(-22.5)"/>
    <path class="cls-2" d="m1576.71,701.84c0,3.32-2.69,6.01-6.01,6.01s-6.01-2.69-6.01-6.01,2.69-6.01,6.01-6.01,6.01,2.69,6.01,6.01Z"/>
  </g>
  <g>
    <path class="cls-10" d="m1937.76,800.06h103.02s-4.94-18.02-15.36-12.07c-1.65-21.46-19.71-24.21-25.49-9.4-9.07-16.45-57.7-13.19-62.18,12.87"/>
    <g>
      <path class="cls-9" d="m1916.14,648.84l18.19,27.45v9.67l-22.24-34.48c-.4-.62-.49-1.38-.26-2.07h0c.64-1.91,3.19-2.25,4.31-.57Z"/>
      <path class="cls-8" d="m2009.67,616.24v72.37c0,22.97-18.61,41.57-41.57,41.57s-41.57-18.61-41.57-41.57v-72.37c0-4.41.68-8.65,1.96-12.64,5.35-16.79,21.06-28.94,39.62-28.94,11.48,0,21.88,4.65,29.4,12.17,3.8,3.8,6.86,8.32,8.97,13.35,2.06,4.94,3.21,10.36,3.21,16.05Z"/>
      <path class="cls-9" d="m1965.32,615.37h7.34c3.13,0,5.67,2.54,5.67,5.67v179.02h-18.68v-179.02c0-3.13,2.54-5.67,5.67-5.67Z"/>
      <path class="cls-9" d="m1947.83,646.42l18.19,27.45v9.67l-22.24-34.48c-.4-.62-.49-1.38-.26-2.07h0c.64-1.91,3.19-2.25,4.31-.57Z"/>
      <path class="cls-9" d="m1953.09,684.62l23.23,35.05-2.52,16.49-29.53-45.78c-.87-1.34-1.08-3.01-.57-4.52h0c1.39-4.17,6.96-4.9,9.39-1.24Z"/>
      <path class="cls-9" d="m1988.03,620.96l-18.19,27.45v9.67l22.24-34.48c.4-.62.49-1.38.26-2.07h0c-.64-1.91-3.19-2.25-4.31-.57Z"/>
      <path class="cls-9" d="m1994.51,713.62l-18.19,27.45v9.67l22.24-34.48c.4-.62.49-1.38.26-2.07h0c-.64-1.91-3.19-2.25-4.31-.57Z"/>
      <circle class="cls-10" cx="1917.53" cy="638.98" r="19.1"/>
      <circle class="cls-10" cx="2008.51" cy="698.35" r="24.24"/>
      <circle class="cls-5" cx="2000.8" cy="688.24" r="5.85"/>
      <circle class="cls-5" cx="2019.27" cy="694.82" r="8.62"/>
      <path class="cls-5" d="m1907.85,637.08c0,1.05-.85,1.9-1.9,1.9s-1.9-.85-1.9-1.9.85-1.9,1.9-1.9,1.9.85,1.9,1.9Z"/>
      <circle class="cls-5" cx="1912.05" cy="628.39" r="2.57"/>
      <circle class="cls-5" cx="1925.55" cy="634.51" r="6.11"/>
      <path class="cls-8" d="m2013.61,671.91s-2.37-8.15,6.81-9.05c1.64,9.05-6.81,9.05-6.81,9.05Z"/>
      <path class="cls-6" d="m1937.76,700.8s5.11-6.78,11.33.03c-6.27,6.74-11.33-.03-11.33-.03Z"/>
      <path class="cls-6" d="m1932.81,689.12s7.76-3.44,9.88,5.54c-8.75,2.83-9.88-5.54-9.88-5.54Z"/>
      <path class="cls-6" d="m1995.1,625.8s-1.49-8.35,7.74-8.28c.66,9.18-7.74,8.28-7.74,8.28Z"/>
      <path class="cls-6" d="m1987.63,634.61s6.15-11.66,17.39-2.76c-7.94,11.88-17.39,2.76-17.39,2.76Z"/>
      <path class="cls-8" d="m1997.41,723.12s7.93,3.03,3.11,10.9c-8.21-4.16-3.11-10.9-3.11-10.9Z"/>
      <path class="cls-8" d="m2003.95,725.2s10.45-3.24,11.83,8.57c-11.63,2.32-11.83-8.57-11.83-8.57Z"/>
      <path class="cls-8" d="m1913.8,675.18s-5.38-6.56,2.7-11c5.07,7.68-2.7,11-2.7,11Z"/>
      <path class="cls-8" d="m1897.57,661.18s7.78-9.85,16.76.43c-9.5,9.75-16.76-.43-16.76-.43Z"/>
      <ellipse class="cls-3" cx="1965.95" cy="633.22" rx="2.14" ry="7.39"/>
      <path class="cls-3" d="m1973.48,740.24c0,13.97-1.21,25.29-2.69,25.29s-2.69-11.32-2.69-25.29,1.2-25.29,2.69-25.29,2.69,11.32,2.69,25.29Z"/>
      <ellipse class="cls-3" cx="1965.95" cy="694.82" rx="2.14" ry="7.39"/>
      <ellipse class="cls-3" cx="1971.34" cy="661.38" rx="3.24" ry="17.08"/>
      <path class="cls-10" d="m2006.46,600.19c-34.68-29.32-65.8-7.72-77.99,3.41,5.35-16.79,21.06-28.94,39.62-28.94,11.48,0,21.88,4.65,29.4,12.17,3.8,3.8,6.86,8.32,8.97,13.35Z"/>
      <path class="cls-6" d="m1992.46,801.45h-86.51s.76-22.11,22.53-16.46c5.87-20.02,26.87-8.05,20.72,7.76,14.38-10.85,39.31-2.53,43.26,8.7Z"/>
      <path class="cls-8" d="m1946.04,800.06h-31.91c3.12-4.58,8.53-9.42,17.38-7.32,3.93-7.16,15.96-2.95,14.53,7.32Z"/>
    </g>
  </g>
  <g>
    <path class="cls-4" d="m1688.27,761.82s14.12,28.84,43.68,21.71c6.87,19.12,19.84,11.34,19.84,11.34,0,0,9.4,14.64,22.04-1.43,4.54,22.17,28.84.46,34.68-5.37,11.67,18.15,38.57,12.96,35.65-3.56,20.09,9.72,32.41-4.54,33.38-14.91-25.6,1.94-85.21-16.6-85.21-16.6"/>
    <path class="cls-4" d="m1741.7,640.39s4.18,9.99,15.38,12.03c-5.13,6.12,7.8,17.69,16.87,13.38,3.4,11.11,16.43,4.36,16.43,4.36,0,0,18.38,7.21,24.56-4.36,11.16,7.94,38.82-2.04,32.02-21.09-13.83,7.26-65.1-11.34-65.1-11.34l-40.15,7.02Z"/>
    <path class="cls-4" d="m1755.13,580.54s2.83,10.43,14.45,5.21c.51,15.87,19.18,15.4,20.39,6.68,6.88,8.28,12.11.8,12.11.8,0,0,20.39,3.4,19.94-12.7-.45-16.1-62.58-10.2-66.89,0Z"/>
    <polygon class="cls-3" points="1802.08 850.12 1778.68 850.12 1789.72 538.92 1791.04 538.92 1802.08 850.12"/>
    <path class="cls-1" d="m1790.38,527.79s-1.8,12.53-9.75,15.59c7.34-.61,9.02-2.61,9.02-2.61,0,0,3.52,5.2,10.55,2.61-6.73-1.83-9.83-15.59-9.83-15.59Z"/>
    <path class="cls-1" d="m1763.72,851.86h56.91s3.91-25.04,0-27.88c-3.91-2.85-3.2,23.48-3.2,23.48,0,0-5.34-12.17-7.11-9.64-1.78,2.53-.36,9.64-.36,9.64,0,0-12.45-12.09-14.94-6.76-2.49,5.34-1.98,7.82-1.98,7.82,0,0-7.63-15.29-15.1-13.52-7.47,1.78-7.82,11.74-7.82,11.74,0,0-3.2-16.01-6.4-15.65-3.2.36,0,20.77,0,20.77Z"/>
    <path class="cls-4" d="m1790.38,713.14s-4.61,23.37-30.22,29.07c21.78,16.05,30.22,3.2,30.22,3.2,0,0,14.16,16.36,31.99,1.07-14.54-2.85-27-13.4-31.99-33.33Z"/>
    <path class="cls-4" d="m1790.38,604.55s-9.35,27.81-33.3,30.62c12.69,6.72,16.65,2.46,16.65,2.46,0,0,9.97,16.01,26.48,3.2,7.97,7.47,14.73.36,14.73.36,0,0-17.1-6.4-24.56-36.64Z"/>
    <path class="cls-4" d="m1790.38,552.96s-6.64,17.69-20.8,16.06c6.62,9.44,15.07,4.14,15.07,4.14,0,0,7.45,5.63,10.6-.17,1.32,5.3,6.05,2.98,6.83-1.16,3.6,2.15,7.08,1.82,8.73-1.99-17.63-.83-20.43-16.89-20.43-16.89Z"/>
    <polyline class="cls-3" points="1794.35 676.45 1799.79 670.15 1801.15 670.15 1796.16 683.23"/>
    <polyline class="cls-3" points="1790.19 591.14 1786.01 589.16 1784.83 592.11 1788.68 595.28"/>
    <polyline class="cls-3" points="1785.28 766.92 1778.68 760.34 1777.12 764.88 1783.24 775.54"/>
    <polyline class="cls-3" points="1795.71 805.24 1803.42 796.4 1805.91 799.34 1799.79 816.35"/>
    <path class="cls-11" d="m1790.5,797.3c0,2.13-1.73,3.85-3.85,3.85s-3.85-1.73-3.85-3.85,1.73-3.85,3.85-3.85,3.85,1.73,3.85,3.85Z"/>
    <path class="cls-11" d="m1797.09,825.53c0,1.31-1.07,2.38-2.38,2.38s-2.38-1.07-2.38-2.38,1.07-2.38,2.38-2.38,2.38,1.07,2.38,2.38Z"/>
    <path class="cls-11" d="m1795.71,812.14c0,.93-.76,1.69-1.69,1.69s-1.69-.76-1.69-1.69.76-1.69,1.69-1.69,1.69.76,1.69,1.69Z"/>
    <circle class="cls-11" cx="1792.87" cy="757.85" r="2.49"/>
    <path class="cls-11" d="m1789.71,683.86c0,.35-.28.63-.63.63s-.63-.28-.63-.63.28-.63.63-.63.63.28.63.63Z"/>
    <path class="cls-11" d="m1795.03,665.77c0,1.19-.96,2.15-2.15,2.15s-2.15-.96-2.15-2.15.96-2.15,2.15-2.15,2.15.96,2.15,2.15Z"/>
    <path class="cls-11" d="m1791.4,656.61c0,.81-.66,1.47-1.47,1.47s-1.47-.66-1.47-1.47.66-1.47,1.47-1.47,1.47.66,1.47,1.47Z"/>
    <path class="cls-11" d="m1791.26,598.89c0,.37-.3.67-.67.67s-.67-.3-.67-.67.3-.67.67-.67.67.3.67.67Z"/>
    <path class="cls-1" d="m1790.38,670.15s-25.5,89-112.66,87.62c42.2,30.74,61.01,16.51,61.01,16.51,0,0,1.83,14.68,12.84,16.51,11.01,1.83,16.97-9.63,16.97-9.63,0,0,20.18,21.56,40.37,0,14.68,16.06,27.07,8.26,29.36-3.67,30.28,12.39,47.71-12.39,47.71-12.39,0,0-81.58-5.5-95.61-94.96Z"/>
    <path class="cls-1" d="m1790.49,590.24s-15.07,49.52-58.53,42.62c14.21,14.83,31.55,12.12,31.55,12.12,0,0-2.09,10.03,6.06,12.95,8.15,2.93,13.58-3.34,13.58-3.34,0,0,18.8,17.97,32.8-2.93,14.42,16.72,35.31.84,38.45-14.63-20.27,7.31-43.84-7.94-52.53-20.06-8.69-12.12-11.38-26.74-11.38-26.74Z"/>
    <path class="cls-1" d="m1790.38,543.53s-24.85,30.97-54.76,24.66c19.48,27.71,34.84,10.97,34.84,10.97,0,0,8.28,16.46,19.92,2.74,11.64,14.82,20.14-.55,20.14-.55,0,0,19.75,14.82,34.84-9.05-28.53,4.12-54.98-28.78-54.98-28.78Z"/>
    <path class="cls-4" d="m1788.89,671.23s-18.6,23.09-36.76,23.75c9.85,3.28,18.38-3.3,18.38-3.3,0,0-4.38,6.59,0,7.02s10.94-3.28,10.94-3.28c0,0,15.97,12.47,25.17-1.31,10.28,5.69,18.16-3.5,18.16-3.5,0,0-22.32,8.08-35.89-19.37Z"/>
  </g>
  <g>
    <path class="cls-4" d="m2055.64,714.47s10.44,21.32,32.29,16.05c5.08,14.14,14.67,8.39,14.67,8.39,0,0,6.95,10.82,16.29-1.06,3.35,16.39,21.32.34,25.63-3.97,8.62,13.42,28.51,9.58,26.35-2.64,14.85,7.19,23.96-3.35,24.68-11.02-18.93,1.44-62.99-12.27-62.99-12.27"/>
    <path class="cls-4" d="m2095.14,624.7s3.09,7.38,11.37,8.89c-3.79,4.53,5.76,13.07,12.47,9.89,2.51,8.21,12.15,3.22,12.15,3.22,0,0,13.59,5.33,18.15-3.22,8.25,5.87,28.7-1.51,23.67-15.59-10.22,5.36-48.12-8.38-48.12-8.38l-29.68,5.19Z"/>
    <path class="cls-4" d="m2105.06,580.46s2.09,7.71,10.68,3.85c.38,11.73,14.18,11.39,15.07,4.94,5.09,6.12,8.95.59,8.95.59,0,0,15.07,2.51,14.74-9.39-.34-11.9-46.26-7.54-49.45,0Z"/>
    <polygon class="cls-3" points="2139.77 779.74 2122.47 779.74 2130.63 549.69 2131.61 549.69 2139.77 779.74"/>
    <path class="cls-1" d="m2131.12,541.46s-1.33,9.26-7.21,11.53c5.43-.45,6.67-1.93,6.67-1.93,0,0,2.6,3.85,7.8,1.93-4.97-1.35-7.26-11.53-7.26-11.53Z"/>
    <path class="cls-1" d="m2111.41,781.03h42.07s2.89-18.51,0-20.61c-2.89-2.1-2.37,17.35-2.37,17.35,0,0-3.94-8.99-5.26-7.13-1.31,1.87-.26,7.13-.26,7.13,0,0-9.2-8.94-11.04-5-1.84,3.94-1.46,5.78-1.46,5.78,0,0-5.64-11.31-11.16-9.99-5.52,1.31-5.78,8.68-5.78,8.68,0,0-2.37-11.83-4.73-11.57-2.37.26,0,15.35,0,15.35Z"/>
    <path class="cls-4" d="m2131.12,678.48s-3.41,17.28-22.34,21.49c16.1,11.86,22.34,2.37,22.34,2.37,0,0,10.47,12.09,23.65.79-10.75-2.1-19.96-9.91-23.65-24.64Z"/>
    <path class="cls-4" d="m2131.12,598.21s-6.91,20.56-24.62,22.64c9.38,4.97,12.31,1.81,12.31,1.81,0,0,7.37,11.83,19.57,2.37,5.89,5.52,10.89.26,10.89.26,0,0-12.64-4.73-18.15-27.08Z"/>
    <path class="cls-4" d="m2131.12,560.07s-4.91,13.07-15.38,11.87c4.9,6.98,11.14,3.06,11.14,3.06,0,0,5.51,4.16,7.83-.12.98,3.92,4.47,2.2,5.05-.86,2.66,1.59,5.23,1.35,6.45-1.47-13.03-.61-15.1-12.48-15.1-12.48Z"/>
    <polyline class="cls-3" points="2134.06 651.36 2138.08 646.7 2139.08 646.7 2135.39 656.37"/>
    <polyline class="cls-3" points="2130.98 588.29 2127.89 586.83 2127.02 589.01 2129.87 591.36"/>
    <polyline class="cls-3" points="2127.35 718.24 2122.47 713.38 2121.32 716.73 2125.84 724.61"/>
    <polyline class="cls-3" points="2135.06 746.56 2140.76 740.03 2142.6 742.21 2138.08 754.78"/>
    <path class="cls-11" d="m2131.21,740.7c0,1.57-1.28,2.85-2.85,2.85s-2.85-1.28-2.85-2.85,1.28-2.85,2.85-2.85,2.85,1.28,2.85,2.85Z"/>
    <path class="cls-11" d="m2136.08,761.56c0,.97-.79,1.76-1.76,1.76s-1.76-.79-1.76-1.76.79-1.76,1.76-1.76,1.76.79,1.76,1.76Z"/>
    <path class="cls-11" d="m2135.06,751.67c0,.69-.56,1.25-1.25,1.25s-1.25-.56-1.25-1.25.56-1.25,1.25-1.25,1.25.56,1.25,1.25Z"/>
    <circle class="cls-11" cx="2132.96" cy="711.53" r="1.84"/>
    <path class="cls-11" d="m2130.63,656.84c0,.26-.21.47-.47.47s-.47-.21-.47-.47.21-.47.47-.47.47.21.47.47Z"/>
    <path class="cls-11" d="m2134.55,643.46c0,.88-.71,1.59-1.59,1.59s-1.59-.71-1.59-1.59.71-1.59,1.59-1.59,1.59.71,1.59,1.59Z"/>
    <path class="cls-11" d="m2131.88,636.69c0,.6-.49,1.09-1.09,1.09s-1.09-.49-1.09-1.09.49-1.09,1.09-1.09,1.09.49,1.09,1.09Z"/>
    <path class="cls-11" d="m2131.77,594.03c0,.27-.22.49-.49.49s-.49-.22-.49-.49.22-.49.49-.49.49.22.49.49Z"/>
    <path class="cls-1" d="m2131.12,646.7s-18.85,65.79-83.28,64.77c31.2,22.72,45.1,12.21,45.1,12.21,0,0,1.36,10.85,9.5,12.21,8.14,1.36,12.55-7.12,12.55-7.12,0,0,14.92,15.94,29.84,0,10.85,11.87,20.01,6.1,21.7-2.71,22.38,9.16,35.27-9.16,35.27-9.16,0,0-60.31-4.07-70.68-70.2Z"/>
    <path class="cls-1" d="m2131.2,587.63s-11.14,36.61-43.27,31.51c10.5,10.97,23.32,8.96,23.32,8.96,0,0-1.54,7.41,4.48,9.58,6.02,2.16,10.04-2.47,10.04-2.47,0,0,13.9,13.28,24.25-2.16,10.66,12.36,26.1.62,28.42-10.81-14.98,5.41-32.41-5.87-38.83-14.83-6.42-8.96-8.41-19.77-8.41-19.77Z"/>
    <path class="cls-1" d="m2131.12,553.1s-18.37,22.89-40.48,18.23c14.4,20.48,25.76,8.11,25.76,8.11,0,0,6.12,12.17,14.72,2.03,8.6,10.95,14.89-.41,14.89-.41,0,0,14.6,10.95,25.76-6.69-21.09,3.04-40.65-21.27-40.65-21.27Z"/>
    <path class="cls-4" d="m2130.02,647.5s-13.75,17.07-27.18,17.56c7.28,2.43,13.59-2.44,13.59-2.44,0,0-3.24,4.87,0,5.19s8.09-2.43,8.09-2.43c0,0,11.81,9.22,18.6-.97,7.6,4.21,13.43-2.59,13.43-2.59,0,0-16.5,5.98-26.53-14.32Z"/>
  </g>
  <g>
    <path class="cls-1" d="m2299.39,788.75h-49.92s-2.21-20.06,14.98-17.84c-.49-16.44,19.64-12.53,16.7,0,12.77-12.27,18.93,3.46,18.93,3.46,0,0,10.23-19.45,26.34-3.72,12.43-14.23,25.2,4.99,13.66,18.09h-40.69Z"/>
    <g>
      <polyline class="cls-9" points="2368.41 670.61 2363.26 676.78 2345.95 671.66 2343.5 678.81 2364.62 681.09 2370.84 672.87"/>
      <path class="cls-9" d="m2339.63,659.51c.29-.39,24.4-17.01,24.4-17.01l1.4,4.3-19.87,22.53"/>
      <polyline class="cls-9" points="2236.74 638.8 2238.95 656.26 2255.92 670.61 2260.67 661.98 2242.64 654.09 2240.41 638.8"/>
      <path class="cls-9" d="m2308.67,739.58c.39-.74,22.04-26.82,22.04-26.82l-6.89-1.97-15.15,19.8"/>
      <polyline class="cls-9" points="2294.3 736.58 2274.62 711.73 2270.93 713.59 2294.3 743.35"/>
      <rect class="cls-9" x="2289.28" y="714.76" width="20.22" height="73.74"/>
      <path class="cls-7" d="m2339.1,622.77c0,15.86-9.41,29.51-22.94,35.68-4.95,2.27-10.46,3.53-16.27,3.53-21.65,0-39.21-17.55-39.21-39.21s17.56-39.22,39.21-39.22c14.85,0,27.77,8.26,34.43,20.43,3.06,5.57,4.79,11.98,4.79,18.79Z"/>
      <path class="cls-1" d="m2339.1,622.77c0,15.86-9.41,29.51-22.94,35.68-10.13-4.46-17.21-14.6-17.21-26.39,0-15.92,12.91-28.83,28.83-28.83,2.25,0,4.44.26,6.54.74,3.06,5.57,4.79,11.98,4.79,18.79Z"/>
      <path class="cls-7" d="m2352.2,672.87c0,6.05-1.03,11.86-2.91,17.27-3.55,10.15-10.14,18.88-18.68,25.08-1.29.95-2.64,1.83-4.02,2.65-7.81,4.66-16.95,7.33-26.7,7.33-5.96,0-11.69-1-17.04-2.83-4.78-1.65-9.24-3.96-13.28-6.84-13.31-9.48-22.01-25.05-22.01-42.65,0-1.21.04-2.42.12-3.61,1.85-27.21,24.52-48.72,52.2-48.72s52.32,23.43,52.32,52.32Z"/>
      <circle class="cls-7" cx="2237.92" cy="630.66" r="12.58" transform="translate(1133.22 2676.55) rotate(-77.37)"/>
      <circle class="cls-7" cx="2368.97" cy="637.32" r="16.77" transform="translate(243.2 1861.78) rotate(-45)"/>
      <path class="cls-1" d="m2274.96,788.51h53.42s-2.71-4.68-8.86-2.34c.25-10.33-13.04-11.07-14.02-2.95-4.67-7.13-5,2.21-5,2.21,0,0-8.04-7.63-14.43-1.23-5.17-4.67-11.55-2.06-11.11,4.31Z"/>
      <path class="cls-3" d="m2296.39,773.18c0,1.26-1.02,2.28-2.28,2.28s-2.28-1.02-2.28-2.28,1.02-2.28,2.28-2.28,2.28,1.02,2.28,2.28Z"/>
      <path class="cls-3" d="m2307.94,757.17c0,2.99-2.42,5.41-5.41,5.41s-5.41-2.42-5.41-5.41,2.42-5.41,5.41-5.41,5.41,2.42,5.41,5.41Z"/>
      <circle class="cls-3" cx="2295.62" cy="741.65" r="1.5"/>
      <path class="cls-3" d="m2305.44,730.84c0,1.31-1.06,2.37-2.37,2.37s-2.37-1.06-2.37-2.37,1.06-2.37,2.37-2.37,2.37,1.06,2.37,2.37Z"/>
      <path class="cls-3" d="m2305.44,768.4c0,.65-.53,1.18-1.18,1.18s-1.18-.53-1.18-1.18.53-1.18,1.18-1.18,1.18.53,1.18,1.18Z"/>
      <path class="cls-3" d="m2295.62,749.18c0,1.04-.84,1.89-1.89,1.89s-1.89-.84-1.89-1.89.84-1.89,1.89-1.89,1.89.84,1.89,1.89Z"/>
      <path class="cls-1" d="m2235.75,645.51s-2.95-3.02-6.26,0c3.83,3.09,6.26,0,6.26,0Z"/>
      <path class="cls-1" d="m2236.68,639.99s-.71-4.16-5.16-3.55c1.4,4.72,5.16,3.55,5.16,3.55Z"/>
      <path class="cls-1" d="m2238.07,640.12s3.73-1.98,1.77-6.01c-4.05,2.8-1.77,6.01-1.77,6.01Z"/>
      <path class="cls-1" d="m2359.69,644.56s3.73-1.98,1.76-6.01c-4.05,2.8-1.76,6.01-1.76,6.01Z"/>
      <path class="cls-1" d="m2363.49,672.15s1.46-3.96-2.7-5.65c-1.14,4.79,2.7,5.65,2.7,5.65Z"/>
      <path class="cls-1" d="m2375.01,676.69s2.19,3.61,6.1,1.41c-3.03-3.88-6.1-1.41-6.1-1.41Z"/>
      <path class="cls-1" d="m2310.68,689.27s1.13,4.06,5.49,3.01c-1.87-4.55-5.49-3.01-5.49-3.01Z"/>
      <path class="cls-1" d="m2365.56,650.12s7.76,4.37,12.68-3.72c-9.59-3.99-12.68,3.72-12.68,3.72Z"/>
      <path class="cls-1" d="m2300.64,614.36s8.43-2.88,5.68-11.93c-9.37,4.49-5.68,11.93-5.68,11.93Z"/>
      <path class="cls-1" d="m2363.11,644.68s5.97,1.97,8.28-4.31c-7.19-1.46-8.28,4.31-8.28,4.31Z"/>
      <path class="cls-1" d="m2352.15,648.28s.95-6.22-5.62-7.45c-.24,7.33,5.62,7.45,5.62,7.45Z"/>
      <path class="cls-1" d="m2297.22,618.08s.95-6.22-5.62-7.45c-.24,7.33,5.62,7.45,5.62,7.45Z"/>
      <path class="cls-1" d="m2375.33,684.81s.95-6.22-5.62-7.45c-.24,7.33,5.62,7.45,5.62,7.45Z"/>
      <path class="cls-1" d="m2235.64,635.84s6.4-3.44,2.99-10.36c-6.95,4.86-2.99,10.36-2.99,10.36Z"/>
      <path class="cls-1" d="m2319.84,694.15s6.4-3.44,2.99-10.36c-6.95,4.86-2.99,10.36-2.99,10.36Z"/>
      <path class="cls-7" d="m2378.06,669.32c0,3.41-2.76,6.17-6.17,6.17s-6.17-2.76-6.17-6.17,2.76-6.17,6.17-6.17,6.17,2.76,6.17,6.17Z"/>
      <path class="cls-1" d="m2297.26,695.7c0,11.15-5.74,20.97-14.42,26.65-4.78-1.65-9.24-3.96-13.28-6.84-13.31-9.48-22.01-25.05-22.01-42.65,0-1.21.04-2.42.12-3.61,5.07-3.41,11.16-5.4,17.74-5.4,16.26,0,29.67,12.18,31.61,27.91.16,1.29.24,2.6.24,3.93Z"/>
      <path class="cls-1" d="m2330.6,715.21c-1.29.95-2.64,1.83-4.02,2.65-7.81,4.66-16.95,7.33-26.7,7.33-5.96,0-11.69-1-17.04-2.83-4.78-1.65-9.24-3.96-13.28-6.84,3.15-12.75,14.08-22.43,27.46-23.74,1.02-.1,2.06-.15,3.1-.15,8.45,0,16.12,3.33,21.78,8.75,4.15,3.99,7.22,9.09,8.7,14.84Z"/>
      <path class="cls-1" d="m2349.28,690.13c-3.55,10.15-10.14,18.88-18.68,25.08-1.29.95-2.64,1.83-4.02,2.65-3.28-3.26-5.31-7.78-5.31-12.77,0-1.63.22-3.22.63-4.72,2.07-7.65,9.06-13.28,17.37-13.28,3.7,0,7.15,1.13,10.01,3.04Z"/>
    </g>
    <circle class="cls-2" cx="2268.8" cy="687.05" r="11.56" transform="translate(-90.22 920.53) rotate(-22.5)"/>
    <path class="cls-2" d="m2284.97,708.72c0,2.69-2.18,4.88-4.88,4.88s-4.88-2.18-4.88-4.88,2.18-4.88,4.88-4.88,4.88,2.18,4.88,4.88Z"/>
  </g>
  <g>
    <path class="cls-4" d="m2384.56,749.07s11.48,23.46,35.52,17.66c5.59,15.55,16.13,9.22,16.13,9.22,0,0,7.64,11.9,17.92-1.16,3.69,18.03,23.46.37,28.2-4.37,9.49,14.76,31.36,10.54,28.99-2.9,16.34,7.91,26.35-3.69,27.15-12.12-20.82,1.58-69.3-13.5-69.3-13.5"/>
    <path class="cls-4" d="m2428.01,650.33s3.4,8.12,12.5,9.78c-4.17,4.98,6.34,14.38,13.72,10.88,2.77,9.03,13.36,3.54,13.36,3.54,0,0,14.95,5.86,19.97-3.54,9.08,6.45,31.57-1.66,26.04-17.15-11.25,5.9-52.94-9.22-52.94-9.22l-32.65,5.71Z"/>
    <path class="cls-4" d="m2438.93,601.66s2.3,8.48,11.75,4.24c.42,12.91,15.59,12.52,16.58,5.43,5.59,6.74,9.85.65,9.85.65,0,0,16.58,2.77,16.21-10.33-.37-13.09-50.89-8.3-54.39,0Z"/>
    <polygon class="cls-3" points="2477.11 820.87 2458.08 820.87 2467.06 567.81 2468.13 567.81 2477.11 820.87"/>
    <path class="cls-1" d="m2467.59,558.76s-1.46,10.19-7.93,12.68c5.97-.49,7.34-2.12,7.34-2.12,0,0,2.86,4.23,8.58,2.12-5.47-1.49-7.99-12.68-7.99-12.68Z"/>
    <path class="cls-1" d="m2445.91,822.29h46.28s3.18-20.36,0-22.68c-3.18-2.31-2.6,19.09-2.6,19.09,0,0-4.34-9.89-5.78-7.84-1.45,2.05-.29,7.84-.29,7.84,0,0-10.12-9.83-12.15-5.5-2.02,4.34-1.61,6.36-1.61,6.36,0,0-6.2-12.44-12.28-10.99-6.07,1.45-6.36,9.54-6.36,9.54,0,0-2.6-13.02-5.21-12.73-2.6.29,0,16.89,0,16.89Z"/>
    <path class="cls-4" d="m2467.59,709.48s-3.75,19.01-24.57,23.64c17.71,13.05,24.57,2.6,24.57,2.6,0,0,11.52,13.3,26.01.87-11.83-2.31-21.95-10.9-26.01-27.11Z"/>
    <path class="cls-4" d="m2467.59,621.19s-7.6,22.62-27.08,24.9c10.32,5.47,13.54,2,13.54,2,0,0,8.11,13.02,21.53,2.6,6.48,6.07,11.98.29,11.98.29,0,0-13.91-5.21-19.97-29.79Z"/>
    <path class="cls-4" d="m2467.59,579.23s-5.4,14.38-16.91,13.06c5.39,7.67,12.25,3.37,12.25,3.37,0,0,6.06,4.58,8.62-.13,1.08,4.31,4.92,2.42,5.56-.94,2.93,1.75,5.75,1.48,7.1-1.62-14.34-.67-16.61-13.73-16.61-13.73Z"/>
    <polyline class="cls-3" points="2470.82 679.65 2475.25 674.53 2476.36 674.53 2472.29 685.16"/>
    <polyline class="cls-3" points="2467.44 610.27 2464.04 608.67 2463.08 611.06 2466.22 613.64"/>
    <polyline class="cls-3" points="2463.45 753.22 2458.08 747.87 2456.81 751.56 2461.79 760.23"/>
    <polyline class="cls-3" points="2471.93 784.38 2478.2 777.19 2480.23 779.59 2475.25 793.41"/>
    <path class="cls-11" d="m2467.69,777.93c0,1.73-1.4,3.13-3.13,3.13s-3.13-1.4-3.13-3.13,1.4-3.13,3.13-3.13,3.13,1.4,3.13,3.13Z"/>
    <path class="cls-11" d="m2473.05,800.88c0,1.07-.87,1.94-1.94,1.94s-1.94-.87-1.94-1.94.87-1.94,1.94-1.94,1.94.87,1.94,1.94Z"/>
    <path class="cls-11" d="m2471.93,790c0,.76-.62,1.38-1.38,1.38s-1.38-.62-1.38-1.38.62-1.38,1.38-1.38,1.38.62,1.38,1.38Z"/>
    <circle class="cls-11" cx="2469.62" cy="745.84" r="2.03"/>
    <path class="cls-11" d="m2467.05,685.68c0,.28-.23.51-.51.51s-.51-.23-.51-.51.23-.51.51-.51.51.23.51.51Z"/>
    <path class="cls-11" d="m2471.37,670.97c0,.97-.78,1.75-1.75,1.75s-1.75-.78-1.75-1.75.78-1.75,1.75-1.75,1.75.78,1.75,1.75Z"/>
    <path class="cls-11" d="m2468.43,663.52c0,.66-.54,1.2-1.2,1.2s-1.2-.54-1.2-1.2.54-1.2,1.2-1.2,1.2.54,1.2,1.2Z"/>
    <path class="cls-11" d="m2468.31,616.58c0,.3-.24.54-.54.54s-.54-.24-.54-.54.24-.54.54-.54.54.24.54.54Z"/>
    <path class="cls-1" d="m2467.59,674.53s-20.73,72.37-91.61,71.25c34.32,24.99,49.62,13.43,49.62,13.43,0,0,1.49,11.94,10.45,13.43,8.95,1.49,13.8-7.83,13.8-7.83,0,0,16.41,17.53,32.83,0,11.94,13.06,22.01,6.71,23.88-2.98,24.62,10.07,38.8-10.07,38.8-10.07,0,0-66.34-4.48-77.75-77.22Z"/>
    <path class="cls-1" d="m2467.69,609.54s-12.26,40.27-47.6,34.66c11.55,12.06,25.66,9.85,25.66,9.85,0,0-1.7,8.16,4.93,10.53,6.63,2.38,11.04-2.72,11.04-2.72,0,0,15.29,14.61,26.68-2.38,11.72,13.59,28.71.68,31.26-11.89-16.48,5.95-35.65-6.46-42.72-16.31-7.07-9.85-9.25-21.75-9.25-21.75Z"/>
    <path class="cls-1" d="m2467.59,571.56s-20.21,25.19-44.53,20.05c15.84,22.53,28.33,8.92,28.33,8.92,0,0,6.73,13.39,16.2,2.23,9.46,12.05,16.38-.45,16.38-.45,0,0,16.06,12.05,28.33-7.36-23.2,3.35-44.71-23.4-44.71-23.4Z"/>
    <path class="cls-4" d="m2466.39,675.4s-15.13,18.78-29.9,19.31c8.01,2.67,14.95-2.69,14.95-2.69,0,0-3.56,5.36,0,5.71,3.56.36,8.9-2.67,8.9-2.67,0,0,12.99,10.14,20.46-1.07,8.36,4.63,14.77-2.85,14.77-2.85,0,0-18.15,6.57-29.18-15.75Z"/>
  </g>
  <g>
    <path class="cls-10" d="m2807.94,793.13h92.07s-4.41-16.11-13.72-10.78c-1.47-19.18-17.62-21.63-22.78-8.4-8.1-14.7-51.57-11.79-55.57,11.51"/>
    <g>
      <path class="cls-9" d="m2788.63,657.98l16.26,24.54v8.64l-19.88-30.81c-.35-.55-.44-1.23-.23-1.85h0c.57-1.71,2.85-2.01,3.85-.51Z"/>
      <path class="cls-8" d="m2872.22,628.85v64.68c0,20.53-16.63,37.16-37.16,37.16s-37.16-16.63-37.16-37.16v-64.68c0-3.94.61-7.74,1.75-11.29,4.78-15,18.82-25.86,35.41-25.86,10.26,0,19.55,4.16,26.28,10.88,3.39,3.39,6.13,7.44,8.01,11.93,1.84,4.42,2.86,9.26,2.86,14.34Z"/>
      <path class="cls-9" d="m2831.62,628.07h8.46c2.27,0,4.12,1.84,4.12,4.12v160.95h-16.69v-160.95c0-2.27,1.84-4.12,4.12-4.12Z"/>
      <path class="cls-9" d="m2816.95,655.82l16.26,24.54v8.64l-19.88-30.81c-.35-.55-.44-1.23-.23-1.85h0c.57-1.71,2.85-2.01,3.85-.51Z"/>
      <path class="cls-9" d="m2821.65,689.96l20.76,31.33-2.25,14.74-26.39-40.91c-.77-1.2-.96-2.69-.51-4.04h0c1.24-3.72,6.22-4.38,8.39-1.11Z"/>
      <path class="cls-9" d="m2852.88,633.07l-16.26,24.54v8.64l19.88-30.81c.35-.55.44-1.23.23-1.85h0c-.57-1.71-2.85-2.01-3.85-.51Z"/>
      <path class="cls-9" d="m2858.67,715.88l-16.26,24.54v8.64l19.88-30.81c.35-.55.44-1.23.23-1.85h0c-.57-1.71-2.85-2.01-3.85-.51Z"/>
      <circle class="cls-10" cx="2789.87" cy="649.17" r="17.07"/>
      <circle class="cls-10" cx="2871.19" cy="702.23" r="21.66"/>
      <circle class="cls-5" cx="2864.29" cy="693.2" r="5.23"/>
      <circle class="cls-5" cx="2880.8" cy="699.08" r="7.71"/>
      <path class="cls-5" d="m2781.22,647.48c0,.94-.76,1.7-1.7,1.7s-1.7-.76-1.7-1.7.76-1.7,1.7-1.7,1.7.76,1.7,1.7Z"/>
      <circle class="cls-5" cx="2784.97" cy="639.71" r="2.29"/>
      <circle class="cls-5" cx="2797.04" cy="645.17" r="5.46"/>
      <path class="cls-8" d="m2875.74,678.6s-2.12-7.28,6.09-8.09c1.46,8.09-6.09,8.09-6.09,8.09Z"/>
      <path class="cls-6" d="m2807.94,704.43s4.56-6.06,10.13.03c-5.6,6.02-10.13-.03-10.13-.03Z"/>
      <path class="cls-6" d="m2803.52,693.98s6.93-3.07,8.83,4.95c-7.82,2.53-8.83-4.95-8.83-4.95Z"/>
      <path class="cls-6" d="m2859.19,637.4s-1.33-7.47,6.92-7.4c.59,8.2-6.92,7.4-6.92,7.4Z"/>
      <path class="cls-6" d="m2852.52,645.26s5.5-10.42,15.54-2.47c-7.1,10.62-15.54,2.47-15.54,2.47Z"/>
      <path class="cls-8" d="m2861.26,724.38s7.08,2.71,2.78,9.74c-7.34-3.72-2.78-9.74-2.78-9.74Z"/>
      <path class="cls-8" d="m2867.11,726.23s9.34-2.9,10.57,7.66c-10.39,2.08-10.57-7.66-10.57-7.66Z"/>
      <path class="cls-8" d="m2786.53,681.52s-4.81-5.86,2.42-9.84c4.53,6.86-2.42,9.84-2.42,9.84Z"/>
      <path class="cls-8" d="m2772.03,669.02s6.95-8.81,14.98.38c-8.49,8.71-14.98-.38-14.98-.38Z"/>
      <ellipse class="cls-3" cx="2833.15" cy="644.03" rx="1.92" ry="6.61"/>
      <path class="cls-3" d="m2839.87,739.67c0,12.48-1.08,22.6-2.41,22.6s-2.41-10.12-2.41-22.6,1.08-22.6,2.41-22.6,2.41,10.12,2.41,22.6Z"/>
      <ellipse class="cls-3" cx="2833.15" cy="699.08" rx="1.92" ry="6.61"/>
      <ellipse class="cls-3" cx="2837.96" cy="669.19" rx="2.89" ry="15.26"/>
      <path class="cls-10" d="m2869.35,614.5c-30.99-26.2-58.81-6.9-69.7,3.05,4.78-15,18.82-25.86,35.41-25.86,10.26,0,19.55,4.16,26.28,10.88,3.39,3.39,6.13,7.44,8.01,11.93Z"/>
      <path class="cls-6" d="m2856.84,794.38h-77.32s.68-19.76,20.13-14.72c5.24-17.89,24.01-7.2,18.52,6.94,12.85-9.7,35.13-2.26,38.67,7.78Z"/>
      <path class="cls-8" d="m2815.35,793.13h-28.52c2.79-4.1,7.62-8.42,15.53-6.55,3.52-6.4,14.26-2.64,12.99,6.55Z"/>
    </g>
  </g>
  <g>
    <path class="cls-1" d="m2650.61,831.82h-64.02s-2.83-25.73,19.21-22.88c-.63-21.09,25.2-16.07,21.42,0,16.38-15.74,24.28,4.44,24.28,4.44,0,0,13.13-24.94,33.79-4.77,15.94-18.25,32.32,6.39,17.51,23.21h-52.19Z"/>
    <g>
      <polyline class="cls-9" points="2739.14 680.3 2732.53 688.21 2710.33 681.64 2707.19 690.82 2734.27 693.74 2742.25 683.2"/>
      <path class="cls-9" d="m2702.23,666.06c.37-.5,31.3-21.82,31.3-21.82l1.8,5.52-25.49,28.9"/>
      <polyline class="cls-9" points="2570.27 639.5 2573.1 661.9 2594.87 680.3 2600.95 669.23 2577.83 659.11 2574.97 639.5"/>
      <path class="cls-9" d="m2662.52,768.76c.5-.95,28.27-34.39,28.27-34.39l-8.83-2.52-19.43,25.4"/>
      <polyline class="cls-9" points="2644.09 764.91 2618.85 733.04 2614.12 735.42 2644.09 773.6"/>
      <rect class="cls-9" x="2637.65" y="736.92" width="25.94" height="94.58"/>
      <path class="cls-7" d="m2701.54,618.94c0,20.34-12.07,37.85-29.43,45.77-6.35,2.91-13.42,4.52-20.87,4.52-27.77,0-50.29-22.51-50.29-50.29s22.52-50.3,50.29-50.3c19.04,0,35.62,10.59,44.15,26.2,3.92,7.15,6.15,15.36,6.15,24.1Z"/>
      <path class="cls-1" d="m2701.54,618.94c0,20.34-12.07,37.85-29.43,45.77-13-5.73-22.08-18.72-22.08-33.85,0-20.42,16.55-36.97,36.97-36.97,2.89,0,5.69.33,8.39.95,3.92,7.15,6.15,15.36,6.15,24.1Z"/>
      <path class="cls-7" d="m2718.35,683.19c0,7.76-1.32,15.21-3.74,22.14-4.56,13.02-13.01,24.21-23.96,32.17-1.66,1.22-3.39,2.35-5.16,3.4-10.02,5.98-21.74,9.4-34.25,9.4-7.65,0-15-1.28-21.85-3.64-6.12-2.11-11.85-5.08-17.03-8.77-17.08-12.16-28.22-32.13-28.22-54.7,0-1.56.06-3.1.16-4.62,2.37-34.89,31.45-62.48,66.95-62.48s67.1,30.05,67.1,67.1Z"/>
      <circle class="cls-7" cx="2571.78" cy="629.06" r="16.13" transform="translate(1395.65 3001.08) rotate(-77.37)"/>
      <circle class="cls-7" cx="2739.86" cy="637.6" r="21.51" transform="translate(351.64 2124.12) rotate(-45)"/>
      <path class="cls-1" d="m2619.29,831.51h68.51s-3.47-6.01-11.36-3c.32-13.25-16.72-14.2-17.99-3.79-6-9.15-6.42,2.84-6.42,2.84,0,0-10.31-9.78-18.51-1.58-6.63-6-14.81-2.64-14.24,5.53Z"/>
      <path class="cls-3" d="m2646.78,811.86c0,1.61-1.31,2.92-2.92,2.92s-2.92-1.31-2.92-2.92,1.31-2.92,2.92-2.92,2.92,1.31,2.92,2.92Z"/>
      <path class="cls-3" d="m2661.58,791.31c0,3.83-3.11,6.94-6.94,6.94s-6.94-3.11-6.94-6.94,3.11-6.94,6.94-6.94,6.94,3.11,6.94,6.94Z"/>
      <circle class="cls-3" cx="2645.78" cy="771.41" r="1.92"/>
      <path class="cls-3" d="m2658.37,757.54c0,1.68-1.36,3.04-3.04,3.04s-3.04-1.36-3.04-3.04,1.36-3.04,3.04-3.04,3.04,1.36,3.04,3.04Z"/>
      <path class="cls-3" d="m2658.37,805.72c0,.84-.68,1.52-1.52,1.52s-1.52-.68-1.52-1.52.68-1.52,1.52-1.52,1.52.68,1.52,1.52Z"/>
      <path class="cls-3" d="m2645.78,781.06c0,1.34-1.08,2.42-2.42,2.42s-2.42-1.08-2.42-2.42,1.08-2.42,2.42-2.42,2.42,1.08,2.42,2.42Z"/>
      <path class="cls-1" d="m2568.99,648.1s-3.78-3.87-8.03,0c4.91,3.97,8.03,0,8.03,0Z"/>
      <path class="cls-1" d="m2570.19,641.03s-.92-5.33-6.61-4.55c1.8,6.05,6.61,4.55,6.61,4.55Z"/>
      <path class="cls-1" d="m2571.96,641.19s4.78-2.53,2.26-7.7c-5.19,3.59-2.26,7.7-2.26,7.7Z"/>
      <path class="cls-1" d="m2727.95,646.89s4.78-2.53,2.26-7.7c-5.19,3.59-2.26,7.7-2.26,7.7Z"/>
      <path class="cls-1" d="m2732.83,682.27s1.87-5.08-3.46-7.25c-1.46,6.14,3.46,7.25,3.46,7.25Z"/>
      <path class="cls-1" d="m2747.61,688.1s2.81,4.62,7.82,1.81c-3.89-4.97-7.82-1.81-7.82-1.81Z"/>
      <path class="cls-1" d="m2665.1,704.23s1.46,5.21,7.04,3.85c-2.4-5.84-7.04-3.85-7.04-3.85Z"/>
      <path class="cls-1" d="m2735.48,654.01s9.95,5.6,16.26-4.77c-12.31-5.12-16.26,4.77-16.26,4.77Z"/>
      <path class="cls-1" d="m2652.22,608.15s10.81-3.69,7.28-15.3c-12.02,5.76-7.28,15.3-7.28,15.3Z"/>
      <path class="cls-1" d="m2732.34,647.04s7.66,2.52,10.62-5.52c-9.22-1.87-10.62,5.52-10.62,5.52Z"/>
      <path class="cls-1" d="m2718.28,651.66s1.21-7.97-7.21-9.55c-.31,9.41,7.21,9.55,7.21,9.55Z"/>
      <path class="cls-1" d="m2647.83,612.92s1.21-7.97-7.21-9.55c-.31,9.41,7.21,9.55,7.21,9.55Z"/>
      <path class="cls-1" d="m2748.02,698.51s1.21-7.97-7.21-9.55c-.31,9.41,7.21,9.55,7.21,9.55Z"/>
      <path class="cls-1" d="m2568.86,635.7s8.21-4.41,3.83-13.29c-8.91,6.24-3.83,13.29-3.83,13.29Z"/>
      <path class="cls-1" d="m2676.84,710.49s8.21-4.41,3.83-13.29c-8.91,6.24-3.83,13.29-3.83,13.29Z"/>
      <path class="cls-7" d="m2751.52,678.65c0,4.37-3.54,7.91-7.91,7.91s-7.91-3.54-7.91-7.91,3.54-7.91,7.91-7.91,7.91,3.54,7.91,7.91Z"/>
      <path class="cls-1" d="m2647.89,712.48c0,14.3-7.36,26.89-18.5,34.18-6.12-2.11-11.85-5.08-17.03-8.77-17.08-12.16-28.22-32.13-28.22-54.7,0-1.56.06-3.1.16-4.62,6.5-4.37,14.32-6.92,22.75-6.92,20.85,0,38.05,15.62,40.54,35.79.2,1.66.31,3.34.31,5.04Z"/>
      <path class="cls-1" d="m2690.65,737.5c-1.66,1.22-3.39,2.35-5.16,3.4-10.02,5.98-21.74,9.4-34.25,9.4-7.65,0-15-1.28-21.85-3.64-6.12-2.11-11.85-5.08-17.03-8.77,4.04-16.35,18.05-28.77,35.22-30.45,1.31-.13,2.64-.19,3.98-.19,10.84,0,20.68,4.27,27.93,11.23,5.33,5.11,9.26,11.66,11.16,19.03Z"/>
      <path class="cls-1" d="m2714.61,705.34c-4.56,13.02-13.01,24.21-23.96,32.17-1.66,1.22-3.39,2.35-5.16,3.4-4.2-4.18-6.81-9.98-6.81-16.37,0-2.09.28-4.12.81-6.06,2.66-9.82,11.62-17.03,22.28-17.03,4.75,0,9.17,1.44,12.84,3.9Z"/>
    </g>
    <circle class="cls-2" cx="2611.38" cy="701.38" r="14.82" transform="translate(-69.63 1052.72) rotate(-22.5)"/>
    <path class="cls-2" d="m2632.13,729.18c0,3.45-2.8,6.25-6.25,6.25s-6.25-2.8-6.25-6.25,2.8-6.25,6.25-6.25,6.25,2.8,6.25,6.25Z"/>
  </g>
  <g>
    <path class="cls-1" d="m3022.06,830.22h-62.83s-2.78-25.25,18.85-22.46c-.62-20.7,24.73-15.78,21.02,0,16.07-15.44,23.83,4.36,23.83,4.36,0,0,12.88-24.48,33.16-4.68,15.64-17.91,31.72,6.28,17.19,22.78h-51.22Z"/>
    <g>
      <polyline class="cls-9" points="3108.93 681.52 3102.45 689.28 3080.67 682.83 3077.58 691.84 3104.16 694.71 3111.99 684.36"/>
      <path class="cls-9" d="m3072.71,667.54c.37-.49,30.72-21.42,30.72-21.42l1.76,5.41-25.02,28.36"/>
      <polyline class="cls-9" points="2943.2 641.47 2945.98 663.46 2967.35 681.52 2973.32 670.65 2950.63 660.72 2947.82 641.47"/>
      <path class="cls-9" d="m3033.75,768.33c.49-.93,27.74-33.75,27.74-33.75l-8.67-2.48-19.07,24.93"/>
      <polyline class="cls-9" points="3015.66 764.55 2990.88 733.28 2986.24 735.61 3015.66 773.08"/>
      <rect class="cls-9" x="3009.33" y="737.09" width="25.46" height="92.82"/>
      <path class="cls-7" d="m3072.04,621.3c0,19.96-11.84,37.14-28.88,44.92-6.23,2.85-13.17,4.44-20.48,4.44-27.25,0-49.35-22.09-49.35-49.35s22.1-49.37,49.35-49.37c18.69,0,34.96,10.39,43.33,25.71,3.85,7.01,6.03,15.08,6.03,23.65Z"/>
      <path class="cls-1" d="m3072.04,621.3c0,19.96-11.84,37.14-28.88,44.92-12.76-5.62-21.67-18.38-21.67-33.22,0-20.04,16.25-36.29,36.29-36.29,2.83,0,5.59.32,8.23.94,3.85,7.01,6.03,15.08,6.03,23.65Z"/>
      <path class="cls-7" d="m3088.53,684.36c0,7.62-1.29,14.93-3.67,21.73-4.47,12.78-12.77,23.76-23.52,31.57-1.63,1.19-3.32,2.31-5.06,3.33-9.84,5.87-21.33,9.22-33.61,9.22-7.5,0-14.72-1.26-21.44-3.57-6.01-2.07-11.63-4.98-16.72-8.61-16.76-11.93-27.7-31.53-27.7-53.68,0-1.53.06-3.04.16-4.54,2.33-34.24,30.87-61.32,65.7-61.32s65.86,29.49,65.86,65.86Z"/>
      <circle class="cls-7" cx="2944.69" cy="631.23" r="15.83" transform="translate(1684.91 3366.66) rotate(-77.37)"/>
      <circle class="cls-7" cx="3109.65" cy="639.61" r="21.11" transform="translate(458.52 2386.19) rotate(-45)"/>
      <path class="cls-1" d="m2991.31,829.91h67.24s-3.41-5.9-11.15-2.95c.31-13.01-16.41-13.94-17.65-3.72-5.88-8.98-6.3,2.79-6.3,2.79,0,0-10.12-9.6-18.17-1.55-6.5-5.88-14.53-2.59-13.98,5.43Z"/>
      <path class="cls-3" d="m3018.29,810.63c0,1.58-1.28,2.86-2.86,2.86s-2.86-1.28-2.86-2.86,1.28-2.86,2.86-2.86,2.86,1.28,2.86,2.86Z"/>
      <path class="cls-3" d="m3032.82,790.47c0,3.76-3.05,6.81-6.81,6.81s-6.81-3.05-6.81-6.81,3.05-6.81,6.81-6.81,6.81,3.05,6.81,6.81Z"/>
      <circle class="cls-3" cx="3017.31" cy="770.94" r="1.88"/>
      <path class="cls-3" d="m3029.67,757.33c0,1.65-1.33,2.98-2.98,2.98s-2.98-1.33-2.98-2.98,1.33-2.98,2.98-2.98,2.98,1.33,2.98,2.98Z"/>
      <path class="cls-3" d="m3029.67,804.61c0,.82-.67,1.49-1.49,1.49s-1.49-.67-1.49-1.49.67-1.49,1.49-1.49,1.49.67,1.49,1.49Z"/>
      <path class="cls-3" d="m3017.31,780.41c0,1.31-1.06,2.37-2.37,2.37s-2.37-1.06-2.37-2.37,1.06-2.37,2.37-2.37,2.37,1.06,2.37,2.37Z"/>
      <path class="cls-1" d="m2941.95,649.92s-3.71-3.8-7.88,0c4.82,3.89,7.88,0,7.88,0Z"/>
      <path class="cls-1" d="m2943.12,642.98s-.9-5.23-6.49-4.47c1.76,5.94,6.49,4.47,6.49,4.47Z"/>
      <path class="cls-1" d="m2944.87,643.14s4.69-2.49,2.22-7.56c-5.09,3.53-2.22,7.56-2.22,7.56Z"/>
      <path class="cls-1" d="m3097.96,648.73s4.69-2.49,2.22-7.56c-5.09,3.53-2.22,7.56-2.22,7.56Z"/>
      <path class="cls-1" d="m3102.74,683.45s1.83-4.98-3.4-7.11c-1.44,6.03,3.4,7.11,3.4,7.11Z"/>
      <path class="cls-1" d="m3117.25,689.17s2.76,4.54,7.68,1.77c-3.82-4.88-7.68-1.77-7.68-1.77Z"/>
      <path class="cls-1" d="m3036.27,705s1.43,5.11,6.91,3.78c-2.36-5.73-6.91-3.78-6.91-3.78Z"/>
      <path class="cls-1" d="m3105.34,655.72s9.77,5.5,15.96-4.68c-12.08-5.02-15.96,4.68-15.96,4.68Z"/>
      <path class="cls-1" d="m3023.63,610.71s10.61-3.62,7.15-15.02c-11.79,5.66-7.15,15.02-7.15,15.02Z"/>
      <path class="cls-1" d="m3102.26,648.87s7.52,2.48,10.42-5.42c-9.05-1.83-10.42,5.42-10.42,5.42Z"/>
      <path class="cls-1" d="m3088.47,653.41s1.19-7.82-7.08-9.37c-.3,9.23,7.08,9.37,7.08,9.37Z"/>
      <path class="cls-1" d="m3019.32,615.4s1.19-7.82-7.08-9.37c-.3,9.23,7.08,9.37,7.08,9.37Z"/>
      <path class="cls-1" d="m3117.65,699.39s1.19-7.82-7.08-9.37c-.3,9.23,7.08,9.37,7.08,9.37Z"/>
      <path class="cls-1" d="m2941.82,637.75s8.06-4.32,3.76-13.04c-8.75,6.12-3.76,13.04-3.76,13.04Z"/>
      <path class="cls-1" d="m3047.8,711.15s8.06-4.32,3.76-13.04c-8.75,6.12-3.76,13.04-3.76,13.04Z"/>
      <path class="cls-7" d="m3121.09,679.9c0,4.29-3.47,7.76-7.76,7.76s-7.76-3.47-7.76-7.76,3.47-7.76,7.76-7.76,7.76,3.47,7.76,7.76Z"/>
      <path class="cls-1" d="m3019.38,713.1c0,14.04-7.23,26.39-18.15,33.54-6.01-2.07-11.63-4.98-16.72-8.61-16.76-11.93-27.7-31.53-27.7-53.68,0-1.53.06-3.04.16-4.54,6.38-4.29,14.05-6.79,22.32-6.79,20.46,0,37.34,15.33,39.79,35.13.2,1.63.3,3.28.3,4.95Z"/>
      <path class="cls-1" d="m3061.34,737.66c-1.63,1.19-3.32,2.31-5.06,3.33-9.84,5.87-21.33,9.22-33.61,9.22-7.5,0-14.72-1.26-21.44-3.57-6.01-2.07-11.63-4.98-16.72-8.61,3.97-16.05,17.72-28.23,34.57-29.88,1.28-.12,2.59-.19,3.9-.19,10.64,0,20.29,4.19,27.41,11.02,5.23,5.02,9.09,11.44,10.95,18.68Z"/>
      <path class="cls-1" d="m3084.86,706.09c-4.47,12.78-12.77,23.76-23.52,31.57-1.63,1.19-3.32,2.31-5.06,3.33-4.13-4.1-6.68-9.79-6.68-16.07,0-2.05.28-4.05.79-5.94,2.61-9.63,11.41-16.72,21.87-16.72,4.66,0,9,1.42,12.6,3.82Z"/>
    </g>
    <circle class="cls-2" cx="2983.55" cy="702.2" r="14.54" transform="translate(-41.61 1195.21) rotate(-22.5)"/>
    <path class="cls-2" d="m3003.91,729.49c0,3.39-2.75,6.14-6.14,6.14s-6.14-2.75-6.14-6.14,2.75-6.14,6.14-6.14,6.14,2.75,6.14,6.14Z"/>
  </g>
  <g>
    <path class="cls-4" d="m3147.73,736.36s10.2,20.84,31.56,15.69c4.97,13.82,14.33,8.2,14.33,8.2,0,0,6.79,10.58,15.92-1.03,3.28,16.02,20.84.33,25.05-3.88,8.43,13.11,27.86,9.37,25.76-2.58,14.52,7.02,23.42-3.28,24.12-10.77-18.5,1.4-61.57-11.99-61.57-11.99"/>
    <path class="cls-4" d="m3186.34,648.62s3.02,7.21,11.11,8.69c-3.7,4.42,5.63,12.78,12.19,9.67,2.46,8.03,11.87,3.15,11.87,3.15,0,0,13.28,5.21,17.74-3.15,8.06,5.73,28.05-1.47,23.13-15.24-9.99,5.24-47.04-8.19-47.04-8.19l-29.01,5.07Z"/>
    <path class="cls-4" d="m3196.04,605.38s2.05,7.54,10.44,3.77c.37,11.47,13.86,11.13,14.73,4.83,4.97,5.99,8.75.58,8.75.58,0,0,14.73,2.46,14.4-9.17-.33-11.63-45.21-7.37-48.33,0Z"/>
    <polygon class="cls-3" points="3229.96 800.15 3213.05 800.15 3221.03 575.31 3221.98 575.31 3229.96 800.15"/>
    <path class="cls-1" d="m3221.51,567.27s-1.3,9.05-7.04,11.27c5.3-.44,6.52-1.88,6.52-1.88,0,0,2.54,3.76,7.62,1.88-4.86-1.32-7.1-11.27-7.1-11.27Z"/>
    <path class="cls-1" d="m3202.24,801.41h41.12s2.83-18.09,0-20.15c-2.83-2.06-2.31,16.96-2.31,16.96,0,0-3.85-8.79-5.14-6.97-1.28,1.83-.26,6.97-.26,6.97,0,0-8.99-8.74-10.79-4.88-1.8,3.85-1.43,5.65-1.43,5.65,0,0-5.51-11.05-10.91-9.77-5.4,1.28-5.65,8.48-5.65,8.48,0,0-2.31-11.56-4.63-11.31-2.31.26,0,15.01,0,15.01Z"/>
    <path class="cls-4" d="m3221.51,701.18s-3.33,16.89-21.83,21c15.74,11.59,21.83,2.31,21.83,2.31,0,0,10.23,11.82,23.11.77-10.51-2.06-19.51-9.68-23.11-24.08Z"/>
    <path class="cls-4" d="m3221.51,622.73s-6.76,20.09-24.06,22.13c9.17,4.86,12.03,1.77,12.03,1.77,0,0,7.2,11.56,19.13,2.31,5.76,5.4,10.64.26,10.64.26,0,0-12.36-4.63-17.74-26.47Z"/>
    <path class="cls-4" d="m3221.51,585.45s-4.8,12.78-15.03,11.6c4.79,6.82,10.89,2.99,10.89,2.99,0,0,5.38,4.07,7.66-.12.96,3.83,4.37,2.15,4.94-.84,2.6,1.56,5.11,1.32,6.31-1.44-12.74-.6-14.76-12.2-14.76-12.2Z"/>
    <polyline class="cls-3" points="3224.38 674.68 3228.31 670.12 3229.29 670.12 3225.68 679.57"/>
    <polyline class="cls-3" points="3221.37 613.04 3218.35 611.61 3217.5 613.74 3220.28 616.03"/>
    <polyline class="cls-3" points="3217.82 740.04 3213.05 735.29 3211.93 738.57 3216.35 746.27"/>
    <polyline class="cls-3" points="3225.36 767.73 3230.93 761.34 3232.73 763.47 3228.31 775.75"/>
    <path class="cls-11" d="m3221.59,761.99c0,1.54-1.25,2.78-2.78,2.78s-2.78-1.25-2.78-2.78,1.25-2.78,2.78-2.78,2.78,1.25,2.78,2.78Z"/>
    <path class="cls-11" d="m3226.36,782.39c0,.95-.77,1.72-1.72,1.72s-1.72-.77-1.72-1.72.77-1.72,1.72-1.72,1.72.77,1.72,1.72Z"/>
    <path class="cls-11" d="m3225.36,772.72c0,.67-.55,1.22-1.22,1.22s-1.22-.55-1.22-1.22.55-1.22,1.22-1.22,1.22.55,1.22,1.22Z"/>
    <circle class="cls-11" cx="3223.31" cy="733.49" r="1.8"/>
    <path class="cls-11" d="m3221.03,680.03c0,.25-.2.45-.45.45s-.45-.2-.45-.45.2-.45.45-.45.45.2.45.45Z"/>
    <path class="cls-11" d="m3224.86,666.96c0,.86-.7,1.56-1.56,1.56s-1.56-.7-1.56-1.56.7-1.56,1.56-1.56,1.56.7,1.56,1.56Z"/>
    <path class="cls-11" d="m3222.25,660.34c0,.59-.48,1.06-1.06,1.06s-1.06-.48-1.06-1.06.48-1.06,1.06-1.06,1.06.48,1.06,1.06Z"/>
    <path class="cls-11" d="m3222.14,618.64c0,.27-.22.48-.48.48s-.48-.22-.48-.48.22-.48.48-.48.48.22.48.48Z"/>
    <path class="cls-1" d="m3221.51,670.12s-18.42,64.3-81.4,63.31c30.49,22.21,44.08,11.93,44.08,11.93,0,0,1.33,10.61,9.28,11.93,7.95,1.33,12.26-6.96,12.26-6.96,0,0,14.58,15.58,29.17,0,10.61,11.6,19.56,5.97,21.21-2.65,21.88,8.95,34.47-8.95,34.47-8.95,0,0-58.94-3.98-69.08-68.61Z"/>
    <path class="cls-1" d="m3221.59,612.39s-10.89,35.78-42.29,30.8c10.27,10.72,22.8,8.76,22.8,8.76,0,0-1.51,7.25,4.38,9.36,5.89,2.11,9.81-2.42,9.81-2.42,0,0,13.59,12.98,23.7-2.11,10.42,12.08,25.51.6,27.78-10.57-14.64,5.28-31.67-5.74-37.95-14.49-6.28-8.76-8.22-19.32-8.22-19.32Z"/>
    <path class="cls-1" d="m3221.51,578.64s-17.96,22.38-39.56,17.82c14.07,20.02,25.17,7.93,25.17,7.93,0,0,5.98,11.89,14.39,1.98,8.41,10.7,14.55-.4,14.55-.4,0,0,14.27,10.7,25.17-6.54-20.62,2.97-39.73-20.79-39.73-20.79Z"/>
    <path class="cls-4" d="m3220.43,670.9s-13.44,16.68-26.56,17.16c7.11,2.37,13.28-2.39,13.28-2.39,0,0-3.16,4.76,0,5.08,3.16.32,7.91-2.37,7.91-2.37,0,0,11.54,9.01,18.18-.95,7.43,4.11,13.12-2.53,13.12-2.53,0,0-16.13,5.84-25.93-14Z"/>
  </g>
  <g>
    <path class="cls-1" d="m3377.38,801.83h-48.82s-2.16-19.62,14.65-17.45c-.48-16.08,19.21-12.26,16.33,0,12.49-12,18.52,3.39,18.52,3.39,0,0,10.01-19.02,25.77-3.63,12.15-13.91,24.64,4.88,13.36,17.7h-39.8Z"/>
    <g>
      <polyline class="cls-9" points="3444.88 686.28 3439.84 692.31 3422.92 687.3 3420.52 694.3 3441.17 696.53 3447.26 688.49"/>
      <path class="cls-9" d="m3416.74,675.42c.29-.38,23.87-16.64,23.87-16.64l1.37,4.21-19.44,22.04"/>
      <polyline class="cls-9" points="3316.11 655.17 3318.27 672.25 3334.87 686.28 3339.51 677.84 3321.87 670.12 3319.69 655.17"/>
      <path class="cls-9" d="m3386.46,753.74c.38-.72,21.56-26.23,21.56-26.23l-6.74-1.92-14.82,19.37"/>
      <polyline class="cls-9" points="3372.4 750.8 3353.15 726.5 3349.55 728.31 3372.4 757.43"/>
      <rect class="cls-9" x="3367.49" y="729.46" width="19.78" height="72.13"/>
      <path class="cls-7" d="m3416.21,639.49c0,15.51-9.2,28.86-22.44,34.9-4.84,2.22-10.23,3.45-15.92,3.45-21.18,0-38.35-17.16-38.35-38.35s17.17-38.36,38.35-38.36c14.52,0,27.16,8.08,33.67,19.98,2.99,5.45,4.69,11.71,4.69,18.38Z"/>
      <path class="cls-1" d="m3416.21,639.49c0,15.51-9.2,28.86-22.44,34.9-9.91-4.37-16.84-14.28-16.84-25.81,0-15.57,12.62-28.19,28.19-28.19,2.2,0,4.34.25,6.39.73,2.99,5.45,4.69,11.71,4.69,18.38Z"/>
      <path class="cls-7" d="m3429.03,688.49c0,5.92-1.01,11.6-2.85,16.89-3.47,9.93-9.92,18.46-18.27,24.53-1.26.93-2.58,1.79-3.93,2.59-7.64,4.56-16.58,7.17-26.11,7.17-5.83,0-11.44-.98-16.66-2.77-4.67-1.61-9.04-3.87-12.99-6.69-13.02-9.27-21.52-24.5-21.52-41.71,0-1.19.04-2.37.12-3.53,1.81-26.61,23.98-47.65,51.05-47.65s51.17,22.92,51.17,51.17Z"/>
      <circle class="cls-7" cx="3317.26" cy="647.21" r="12.3" transform="translate(1960.43 3742.71) rotate(-77.37)"/>
      <circle class="cls-7" cx="3445.43" cy="653.72" r="16.4" transform="translate(546.89 2627.76) rotate(-45)"/>
      <path class="cls-1" d="m3353.49,801.59h52.25s-2.65-4.58-8.66-2.29c.24-10.11-12.75-10.83-13.72-2.89-4.57-6.98-4.89,2.17-4.89,2.17,0,0-7.86-7.46-14.12-1.2-5.05-4.57-11.29-2.01-10.86,4.22Z"/>
      <path class="cls-3" d="m3374.45,786.6c0,1.23-1,2.23-2.23,2.23s-2.23-1-2.23-2.23,1-2.23,2.23-2.23,2.23,1,2.23,2.23Z"/>
      <path class="cls-3" d="m3385.74,770.94c0,2.92-2.37,5.29-5.29,5.29s-5.29-2.37-5.29-5.29,2.37-5.29,5.29-5.29,5.29,2.37,5.29,5.29Z"/>
      <circle class="cls-3" cx="3373.69" cy="755.76" r="1.46"/>
      <path class="cls-3" d="m3383.29,745.19c0,1.28-1.04,2.32-2.32,2.32s-2.32-1.04-2.32-2.32,1.04-2.32,2.32-2.32,2.32,1.04,2.32,2.32Z"/>
      <path class="cls-3" d="m3383.29,781.93c0,.64-.52,1.16-1.16,1.16s-1.16-.52-1.16-1.16.52-1.16,1.16-1.16,1.16.52,1.16,1.16Z"/>
      <path class="cls-3" d="m3373.69,763.12c0,1.02-.83,1.84-1.84,1.84s-1.84-.83-1.84-1.84.83-1.84,1.84-1.84,1.84.83,1.84,1.84Z"/>
      <path class="cls-1" d="m3315.13,661.73s-2.88-2.95-6.12,0c3.75,3.03,6.12,0,6.12,0Z"/>
      <path class="cls-1" d="m3316.04,656.34s-.7-4.07-5.04-3.47c1.37,4.62,5.04,3.47,5.04,3.47Z"/>
      <path class="cls-1" d="m3317.4,656.46s3.65-1.93,1.73-5.87c-3.96,2.74-1.73,5.87-1.73,5.87Z"/>
      <path class="cls-1" d="m3436.35,660.8s3.65-1.93,1.73-5.87c-3.96,2.74-1.73,5.87-1.73,5.87Z"/>
      <path class="cls-1" d="m3440.07,687.79s1.42-3.87-2.64-5.53c-1.12,4.68,2.64,5.53,2.64,5.53Z"/>
      <path class="cls-1" d="m3451.34,692.23s2.14,3.53,5.97,1.38c-2.97-3.79-5.97-1.38-5.97-1.38Z"/>
      <path class="cls-1" d="m3388.42,704.53s1.11,3.97,5.37,2.94c-1.83-4.45-5.37-2.94-5.37-2.94Z"/>
      <path class="cls-1" d="m3442.09,666.24s7.59,4.27,12.4-3.64c-9.38-3.9-12.4,3.64-12.4,3.64Z"/>
      <path class="cls-1" d="m3378.6,631.26s8.24-2.81,5.55-11.67c-9.16,4.39-5.55,11.67-5.55,11.67Z"/>
      <path class="cls-1" d="m3439.7,660.92s5.84,1.92,8.1-4.21c-7.03-1.42-8.1,4.21-8.1,4.21Z"/>
      <path class="cls-1" d="m3428.98,664.44s.92-6.08-5.5-7.28c-.23,7.17,5.5,7.28,5.5,7.28Z"/>
      <path class="cls-1" d="m3375.25,634.9s.92-6.08-5.5-7.28c-.23,7.17,5.5,7.28,5.5,7.28Z"/>
      <path class="cls-1" d="m3451.65,700.17s.92-6.08-5.5-7.28c-.23,7.17,5.5,7.28,5.5,7.28Z"/>
      <path class="cls-1" d="m3315.03,652.27s6.26-3.36,2.92-10.13c-6.8,4.76-2.92,10.13-2.92,10.13Z"/>
      <path class="cls-1" d="m3397.38,709.3s6.26-3.36,2.92-10.14c-6.8,4.76-2.92,10.14-2.92,10.14Z"/>
      <path class="cls-7" d="m3454.32,685.02c0,3.33-2.7,6.03-6.03,6.03s-6.03-2.7-6.03-6.03,2.7-6.03,6.03-6.03,6.03,2.7,6.03,6.03Z"/>
      <path class="cls-1" d="m3375.3,710.82c0,10.91-5.61,20.51-14.11,26.06-4.67-1.61-9.04-3.87-12.99-6.69-13.02-9.27-21.52-24.5-21.52-41.71,0-1.19.04-2.37.12-3.53,4.96-3.34,10.92-5.28,17.35-5.28,15.9,0,29.02,11.91,30.91,27.29.16,1.26.23,2.55.23,3.85Z"/>
      <path class="cls-1" d="m3407.9,729.9c-1.26.93-2.58,1.79-3.93,2.59-7.64,4.56-16.58,7.17-26.11,7.17-5.83,0-11.44-.98-16.66-2.77-4.67-1.61-9.04-3.87-12.99-6.69,3.08-12.47,13.77-21.94,26.86-23.22,1-.1,2.01-.15,3.03-.15,8.27,0,15.77,3.26,21.3,8.56,4.06,3.9,7.06,8.89,8.51,14.51Z"/>
      <path class="cls-1" d="m3426.18,705.37c-3.47,9.93-9.92,18.46-18.27,24.53-1.26.93-2.58,1.79-3.93,2.59-3.21-3.19-5.19-7.61-5.19-12.49,0-1.59.22-3.15.62-4.62,2.03-7.49,8.86-12.99,16.99-12.99,3.62,0,6.99,1.1,9.79,2.97Z"/>
    </g>
    <circle class="cls-2" cx="3347.46" cy="702.35" r="11.3" transform="translate(-13.97 1334.48) rotate(-22.5)"/>
    <path class="cls-2" d="m3363.28,723.56c0,2.63-2.14,4.77-4.77,4.77s-4.77-2.14-4.77-4.77,2.14-4.77,4.77-4.77,4.77,2.14,4.77,4.77Z"/>
  </g>
  <g>
    <path class="cls-10" d="m3734.06,809.51h110.09s-5.27-19.26-16.41-12.89c-1.76-22.94-21.06-25.87-27.24-10.04-9.69-17.58-61.67-14.1-66.45,13.76"/>
    <g>
      <path class="cls-9" d="m3710.96,647.9l19.44,29.34v10.33l-23.77-36.85c-.42-.66-.53-1.47-.28-2.22h0c.68-2.04,3.41-2.4,4.6-.61Z"/>
      <path class="cls-8" d="m3810.91,613.06v77.34c0,24.54-19.88,44.43-44.43,44.43s-44.43-19.88-44.43-44.43v-77.34c0-4.71.73-9.25,2.09-13.5,5.71-17.94,22.5-30.92,42.34-30.92,12.27,0,23.38,4.97,31.42,13.01,4.06,4.06,7.33,8.89,9.58,14.27,2.2,5.28,3.43,11.07,3.43,17.15Z"/>
      <path class="cls-9" d="m3763.51,612.14h7.84c3.35,0,6.06,2.72,6.06,6.06v191.31h-19.96v-191.31c0-3.35,2.72-6.06,6.06-6.06Z"/>
      <path class="cls-9" d="m3744.83,645.32l19.44,29.34v10.33l-23.77-36.85c-.42-.66-.53-1.47-.28-2.22h0c.68-2.04,3.41-2.4,4.6-.61Z"/>
      <path class="cls-9" d="m3750.44,686.14l24.83,37.46-2.7,17.63-31.55-48.92c-.93-1.44-1.15-3.21-.61-4.83h0c1.48-4.45,7.44-5.24,10.04-1.33Z"/>
      <path class="cls-9" d="m3787.79,618.11l-19.44,29.34v10.33l23.77-36.85c.42-.66.53-1.47.28-2.22h0c-.68-2.04-3.41-2.4-4.6-.61Z"/>
      <path class="cls-9" d="m3794.71,717.13l-19.44,29.34v10.33l23.77-36.85c.42-.66.53-1.47.28-2.22h0c-.68-2.04-3.41-2.4-4.6-.61Z"/>
      <circle class="cls-10" cx="3712.45" cy="637.37" r="20.41"/>
      <circle class="cls-10" cx="3809.68" cy="700.81" r="25.9"/>
      <circle class="cls-5" cx="3801.43" cy="690.01" r="6.25"/>
      <circle class="cls-5" cx="3821.17" cy="697.04" r="9.22"/>
      <path class="cls-5" d="m3702.1,635.34c0,1.12-.91,2.03-2.03,2.03s-2.03-.91-2.03-2.03.91-2.03,2.03-2.03,2.03.91,2.03,2.03Z"/>
      <circle class="cls-5" cx="3706.59" cy="626.06" r="2.74"/>
      <circle class="cls-5" cx="3721.02" cy="632.59" r="6.53"/>
      <path class="cls-8" d="m3815.12,672.56s-2.53-8.71,7.28-9.68c1.75,9.68-7.28,9.68-7.28,9.68Z"/>
      <path class="cls-6" d="m3734.06,703.44s5.46-7.24,12.11.03c-6.7,7.2-12.11-.03-12.11-.03Z"/>
      <path class="cls-6" d="m3728.77,690.95s8.29-3.67,10.56,5.92c-9.36,3.03-10.56-5.92-10.56-5.92Z"/>
      <path class="cls-6" d="m3795.34,623.29s-1.59-8.93,8.27-8.85c.71,9.81-8.27,8.85-8.27,8.85Z"/>
      <path class="cls-6" d="m3787.36,632.69s6.57-12.46,18.58-2.95c-8.49,12.7-18.58,2.95-18.58,2.95Z"/>
      <path class="cls-8" d="m3797.81,727.29s8.47,3.24,3.32,11.65c-8.77-4.44-3.32-11.65-3.32-11.65Z"/>
      <path class="cls-8" d="m3804.8,729.51s11.16-3.47,12.64,9.16c-12.43,2.48-12.64-9.16-12.64-9.16Z"/>
      <path class="cls-8" d="m3708.46,676.05s-5.75-7.01,2.89-11.76c5.41,8.21-2.89,11.76-2.89,11.76Z"/>
      <path class="cls-8" d="m3691.12,661.1s8.31-10.53,17.91.46c-10.15,10.42-17.91-.46-17.91-.46Z"/>
      <ellipse class="cls-3" cx="3764.2" cy="631.22" rx="2.29" ry="7.9"/>
      <path class="cls-3" d="m3772.24,745.58c0,14.92-1.29,27.02-2.88,27.02s-2.88-12.1-2.88-27.02,1.29-27.02,2.88-27.02,2.88,12.1,2.88,27.02Z"/>
      <ellipse class="cls-3" cx="3764.2" cy="697.04" rx="2.29" ry="7.9"/>
      <ellipse class="cls-3" cx="3769.95" cy="661.31" rx="3.46" ry="18.25"/>
      <path class="cls-10" d="m3807.49,595.91c-37.06-31.33-70.32-8.25-83.34,3.65,5.71-17.94,22.5-30.92,42.34-30.92,12.27,0,23.38,4.97,31.42,13.01,4.06,4.06,7.33,8.89,9.58,14.27Z"/>
      <path class="cls-6" d="m3792.52,810.99h-92.45s.82-23.63,24.07-17.6c6.27-21.39,28.71-8.61,22.15,8.3,15.37-11.6,42-2.71,46.23,9.3Z"/>
      <path class="cls-8" d="m3742.92,809.51h-34.1c3.34-4.9,9.11-10.06,18.57-7.83,4.2-7.65,17.05-3.15,15.53,7.83Z"/>
    </g>
  </g>
  <g>
    <path class="cls-4" d="m3455.74,749.32s14.48,29.57,44.79,22.26c7.05,19.61,20.34,11.63,20.34,11.63,0,0,9.64,15.01,22.6-1.47,4.65,22.73,29.57.47,35.56-5.51,11.96,18.61,39.54,13.29,36.55-3.66,20.6,9.97,33.23-4.65,34.23-15.29-26.25,1.99-87.37-17.02-87.37-17.02"/>
    <path class="cls-4" d="m3510.52,624.81s4.28,10.24,15.76,12.33c-5.26,6.28,8,18.13,17.29,13.72,3.49,11.39,16.85,4.47,16.85,4.47,0,0,18.85,7.39,25.18-4.47,11.44,8.14,39.8-2.09,32.83-21.62-14.18,7.44-66.75-11.62-66.75-11.62l-41.17,7.2Z"/>
    <path class="cls-4" d="m3524.28,563.45s2.9,10.69,14.82,5.35c.52,16.27,19.66,15.79,20.9,6.85,7.05,8.49,12.42.82,12.42.82,0,0,20.91,3.49,20.44-13.02-.46-16.51-64.16-10.46-68.58,0Z"/>
    <polygon class="cls-3" points="3572.42 839.85 3548.43 839.85 3559.75 520.77 3561.11 520.77 3572.42 839.85"/>
    <path class="cls-1" d="m3560.43,509.36s-1.84,12.85-9.99,15.99c7.53-.62,9.25-2.67,9.25-2.67,0,0,3.61,5.33,10.82,2.67-6.9-1.88-10.07-15.99-10.07-15.99Z"/>
    <path class="cls-1" d="m3533.09,841.64h58.35s4.01-25.67,0-28.59c-4.01-2.92-3.28,24.07-3.28,24.07,0,0-5.47-12.47-7.29-9.88-1.82,2.59-.36,9.88-.36,9.88,0,0-12.76-12.4-15.32-6.93-2.55,5.47-2.03,8.02-2.03,8.02,0,0-7.82-15.68-15.48-13.86-7.66,1.82-8.02,12.03-8.02,12.03,0,0-3.28-16.41-6.56-16.05-3.28.36,0,21.3,0,21.3Z"/>
    <path class="cls-4" d="m3560.43,699.4s-4.73,23.97-30.98,29.8c22.33,16.45,30.98,3.28,30.98,3.28,0,0,14.52,16.78,32.8,1.09-14.91-2.92-27.68-13.74-32.8-34.18Z"/>
    <path class="cls-4" d="m3560.43,588.07s-9.59,28.52-34.14,31.4c13.01,6.89,17.07,2.52,17.07,2.52,0,0,10.22,16.41,27.15,3.28,8.17,7.66,15.1.36,15.1.36,0,0-17.53-6.56-25.18-37.56Z"/>
    <path class="cls-4" d="m3560.43,535.17s-6.81,18.13-21.33,16.47c6.79,9.68,15.45,4.24,15.45,4.24,0,0,7.64,5.77,10.87-.17,1.36,5.43,6.2,3.06,7.01-1.19,3.69,2.21,7.25,1.87,8.95-2.04-18.08-.85-20.95-17.32-20.95-17.32Z"/>
    <polyline class="cls-3" points="3564.5 661.79 3570.08 655.33 3571.48 655.33 3566.35 668.74"/>
    <polyline class="cls-3" points="3560.24 574.31 3555.95 572.28 3554.74 575.31 3558.69 578.56"/>
    <polyline class="cls-3" points="3555.2 754.54 3548.43 747.8 3546.83 752.45 3553.11 763.38"/>
    <polyline class="cls-3" points="3565.9 793.83 3573.8 784.76 3576.36 787.79 3570.08 805.22"/>
    <path class="cls-11" d="m3560.55,785.69c0,2.18-1.77,3.95-3.95,3.95s-3.95-1.77-3.95-3.95,1.77-3.95,3.95-3.95,3.95,1.77,3.95,3.95Z"/>
    <path class="cls-11" d="m3567.31,814.64c0,1.35-1.09,2.44-2.44,2.44s-2.44-1.09-2.44-2.44,1.09-2.44,2.44-2.44,2.44,1.09,2.44,2.44Z"/>
    <path class="cls-11" d="m3565.9,800.91c0,.96-.78,1.73-1.73,1.73s-1.73-.78-1.73-1.73.78-1.73,1.73-1.73,1.73.78,1.73,1.73Z"/>
    <circle class="cls-11" cx="3562.99" cy="745.24" r="2.56"/>
    <path class="cls-11" d="m3559.75,669.38c0,.36-.29.65-.65.65s-.65-.29-.65-.65.29-.65.65-.65.65.29.65.65Z"/>
    <path class="cls-11" d="m3565.19,650.83c0,1.22-.99,2.21-2.21,2.21s-2.21-.99-2.21-2.21.99-2.21,2.21-2.21,2.21.99,2.21,2.21Z"/>
    <path class="cls-11" d="m3561.48,641.44c0,.83-.68,1.51-1.51,1.51s-1.51-.68-1.51-1.51.68-1.51,1.51-1.51,1.51.68,1.51,1.51Z"/>
    <path class="cls-11" d="m3561.33,582.27c0,.38-.31.68-.68.68s-.68-.31-.68-.68.31-.68.68-.68.68.31.68.68Z"/>
    <path class="cls-1" d="m3560.43,655.33s-26.14,91.25-115.51,89.84c43.27,31.51,62.56,16.93,62.56,16.93,0,0,1.88,15.05,13.17,16.93,11.29,1.88,17.4-9.88,17.4-9.88,0,0,20.7,22.11,41.39,0,15.05,16.46,27.75,8.47,30.1-3.76,31.04,12.7,48.92-12.7,48.92-12.7,0,0-83.65-5.64-98.03-97.36Z"/>
    <path class="cls-1" d="m3560.54,573.39s-15.45,50.77-60.01,43.7c14.57,15.21,32.35,12.43,32.35,12.43,0,0-2.14,10.28,6.21,13.28,8.35,3,13.92-3.43,13.92-3.43,0,0,19.28,18.42,33.63-3,14.78,17.14,36.2.86,39.42-15-20.78,7.5-44.95-8.14-53.86-20.57-8.91-12.43-11.66-27.42-11.66-27.42Z"/>
    <path class="cls-1" d="m3560.43,525.5s-25.48,31.75-56.15,25.28c19.97,28.41,35.73,11.25,35.73,11.25,0,0,8.49,16.88,20.42,2.81,11.93,15.19,20.65-.56,20.65-.56,0,0,20.25,15.19,35.73-9.28-29.26,4.22-56.38-29.5-56.38-29.5Z"/>
    <path class="cls-4" d="m3558.91,656.43s-19.07,23.68-37.69,24.35c10.1,3.37,18.85-3.39,18.85-3.39,0,0-4.49,6.75,0,7.2,4.49.45,11.22-3.37,11.22-3.37,0,0,16.38,12.79,25.8-1.35,10.55,5.83,18.62-3.59,18.62-3.59,0,0-22.89,8.29-36.8-19.86Z"/>
  </g>
  <g>
    <path class="cls-4" d="m3872.72,737.27s8.88,18.13,27.46,13.65c4.32,12.02,12.47,7.13,12.47,7.13,0,0,5.91,9.2,13.85-.9,2.85,13.94,18.13.29,21.8-3.38,7.33,11.41,24.24,8.15,22.41-2.24,12.63,6.11,20.37-2.85,20.98-9.37-16.09,1.22-53.56-10.43-53.56-10.43"/>
    <path class="cls-4" d="m3906.3,660.94s2.63,6.28,9.67,7.56c-3.22,3.85,4.9,11.12,10.6,8.41,2.14,6.98,10.33,2.74,10.33,2.74,0,0,11.56,4.53,15.44-2.74,7.01,4.99,24.4-1.28,20.13-13.25-8.69,4.56-40.92-7.13-40.92-7.13l-25.24,4.41Z"/>
    <path class="cls-4" d="m3914.74,623.32s1.78,6.56,9.09,3.28c.32,9.98,12.05,9.68,12.82,4.2,4.32,5.21,7.61.5,7.61.5,0,0,12.82,2.14,12.53-7.98-.29-10.12-39.34-6.41-42.04,0Z"/>
    <polygon class="cls-3" points="3944.25 792.77 3929.55 792.77 3936.48 597.15 3937.32 597.15 3944.25 792.77"/>
    <path class="cls-1" d="m3936.9,590.15s-1.13,7.88-6.13,9.8c4.61-.38,5.67-1.64,5.67-1.64,0,0,2.21,3.27,6.63,1.64-4.23-1.15-6.18-9.8-6.18-9.8Z"/>
    <path class="cls-1" d="m3920.14,793.87h35.77s2.46-15.74,0-17.53c-2.46-1.79-2.01,14.76-2.01,14.76,0,0-3.35-7.65-4.47-6.06-1.12,1.59-.22,6.06-.22,6.06,0,0-7.83-7.6-9.39-4.25-1.57,3.35-1.24,4.92-1.24,4.92,0,0-4.79-9.61-9.49-8.5-4.7,1.12-4.92,7.38-4.92,7.38,0,0-2.01-10.06-4.02-9.84-2.01.22,0,13.06,0,13.06Z"/>
    <path class="cls-4" d="m3936.9,706.66s-2.9,14.69-19,18.27c13.69,10.09,19,2.01,19,2.01,0,0,8.9,10.28,20.11.67-9.14-1.79-16.97-8.42-20.11-20.95Z"/>
    <path class="cls-4" d="m3936.9,638.41s-5.88,17.48-20.93,19.25c7.97,4.23,10.47,1.54,10.47,1.54,0,0,6.27,10.06,16.64,2.01,5.01,4.7,9.26.22,9.26.22,0,0-10.75-4.02-15.44-23.03Z"/>
    <path class="cls-4" d="m3936.9,605.98s-4.17,11.12-13.07,10.1c4.16,5.93,9.47,2.6,9.47,2.6,0,0,4.68,3.54,6.66-.1.83,3.33,3.8,1.87,4.3-.73,2.26,1.35,4.45,1.14,5.49-1.25-11.08-.52-12.84-10.62-12.84-10.62Z"/>
    <polyline class="cls-3" points="3939.4 683.6 3942.82 679.64 3943.67 679.64 3940.53 687.86"/>
    <polyline class="cls-3" points="3936.78 629.98 3934.15 628.73 3933.41 630.59 3935.83 632.58"/>
    <polyline class="cls-3" points="3933.7 740.47 3929.55 736.34 3928.57 739.19 3932.41 745.89"/>
    <polyline class="cls-3" points="3940.25 764.56 3945.1 759 3946.67 760.85 3942.82 771.54"/>
    <path class="cls-11" d="m3936.97,759.57c0,1.34-1.08,2.42-2.42,2.42s-2.42-1.08-2.42-2.42,1.08-2.42,2.42-2.42,2.42,1.08,2.42,2.42Z"/>
    <path class="cls-11" d="m3941.12,777.31c0,.83-.67,1.5-1.5,1.5s-1.5-.67-1.5-1.5.67-1.5,1.5-1.5,1.5.67,1.5,1.5Z"/>
    <path class="cls-11" d="m3940.25,768.9c0,.59-.48,1.06-1.06,1.06s-1.06-.48-1.06-1.06.48-1.06,1.06-1.06,1.06.48,1.06,1.06Z"/>
    <circle class="cls-11" cx="3938.47" cy="734.77" r="1.57"/>
    <path class="cls-11" d="m3936.48,688.26c0,.22-.18.4-.4.4s-.4-.18-.4-.4.18-.4.4-.4.4.18.4.4Z"/>
    <path class="cls-11" d="m3939.82,676.89c0,.75-.61,1.35-1.35,1.35s-1.35-.61-1.35-1.35.61-1.35,1.35-1.35,1.35.61,1.35,1.35Z"/>
    <path class="cls-11" d="m3937.54,671.13c0,.51-.41.93-.93.93s-.93-.41-.93-.93.41-.93.93-.93.93.41.93.93Z"/>
    <path class="cls-11" d="m3937.46,634.85c0,.23-.19.42-.42.42s-.42-.19-.42-.42.19-.42.42-.42.42.19.42.42Z"/>
    <path class="cls-1" d="m3936.9,679.64s-16.03,55.94-70.82,55.08c26.53,19.32,38.35,10.38,38.35,10.38,0,0,1.15,9.23,8.07,10.38,6.92,1.15,10.67-6.06,10.67-6.06,0,0,12.69,13.55,25.38,0,9.23,10.09,17.01,5.19,18.46-2.31,19.03,7.79,29.99-7.79,29.99-7.79,0,0-51.28-3.46-60.1-59.69Z"/>
    <path class="cls-1" d="m3936.97,629.41s-9.47,31.13-36.79,26.79c8.93,9.32,19.83,7.62,19.83,7.62,0,0-1.31,6.3,3.81,8.14,5.12,1.84,8.54-2.1,8.54-2.1,0,0,11.82,11.3,20.62-1.84,9.06,10.51,22.2.53,24.17-9.19-12.74,4.6-27.56-4.99-33.02-12.61-5.46-7.62-7.15-16.81-7.15-16.81Z"/>
    <path class="cls-1" d="m3936.9,600.05s-15.62,19.47-34.42,15.5c12.24,17.42,21.9,6.9,21.9,6.9,0,0,5.21,10.35,12.52,1.72,7.31,9.31,12.66-.34,12.66-.34,0,0,12.42,9.31,21.9-5.69-17.94,2.59-34.56-18.09-34.56-18.09Z"/>
    <path class="cls-4" d="m3935.97,680.32s-11.69,14.52-23.11,14.93c6.19,2.06,11.55-2.08,11.55-2.08,0,0-2.75,4.14,0,4.42s6.88-2.06,6.88-2.06c0,0,10.04,7.84,15.82-.83,6.46,3.58,11.42-2.2,11.42-2.2,0,0-14.03,5.08-22.56-12.18Z"/>
  </g>
</svg>