<svg width="5857" height="2709" viewBox="0 0 5857 2709" fill="none" xmlns="http://www.w3.org/2000/svg">
<rect width="5857" height="2709" style="fill:rgb(0,0,255);stroke-width:3;stroke:rgb(0,0,0)" />
<path d="M4203.17 1228.64H3838.9V1432.3H4203.17V1228.64Z" fill="#2C2C2C"/>
<path d="M2342.9 45.9121H1646.76V269.748H2342.9V45.9121Z" fill="#848484"/>
<path d="M697.087 162.198H3292.42C3477.14 162.701 3654.16 236.306 3784.78 366.926C3915.4 497.546 3989 674.561 3989.5 859.285V1012.9C3989 1197.63 3915.4 1374.64 3784.78 1505.26C3654.16 1635.88 3477.14 1709.49 3292.42 1709.99H697.087C512.363 1709.49 335.348 1635.88 204.728 1505.26C74.1075 1374.64 0.50311 1197.63 0 1012.9V859.285C0.50311 674.561 74.1075 497.546 204.728 366.926C335.348 236.306 512.363 162.701 697.087 162.198V162.198Z" fill="#F2F2F2"/>
<path d="M697.087 162.198H1994.83V1709.99H697.087C512.362 1709.49 335.348 1635.88 204.728 1505.26C74.1075 1374.64 0.50311 1197.63 0 1012.9V859.285C0.50311 674.561 74.1075 497.546 204.728 366.926C335.348 236.306 512.362 162.701 697.087 162.198V162.198Z" fill="#E1E1E1"/>
<path fill-rule="evenodd" clip-rule="evenodd" d="M617.337 2177.04H542.672C519.771 2177.12 497.667 2168.64 480.698 2153.26C463.728 2137.88 453.119 2116.72 450.95 2093.92C448.782 2071.12 455.211 2048.33 468.977 2030.03C482.743 2011.73 502.851 1999.23 525.356 1994.99V1987.05V1679.33C525.356 1667.28 527.733 1655.35 532.349 1644.22C536.965 1633.08 543.731 1622.97 552.26 1614.46C560.789 1605.94 570.912 1599.2 582.052 1594.6C593.191 1590 605.128 1587.65 617.179 1587.67H3748.35C3760.4 1587.65 3772.34 1590 3783.48 1594.6C3794.62 1599.2 3804.74 1605.94 3813.27 1614.46C3821.8 1622.97 3828.56 1633.08 3833.18 1644.22C3837.8 1655.35 3840.17 1667.28 3840.17 1679.33V1991.65H4021.91H4205.55H4227.16L4224.3 1998.01C4223.35 2000.07 4222.39 2002.14 4221.6 2004.36C4220.65 2006.43 4219.69 2008.65 4218.9 2010.72L4213.66 2023.74V2028.83L4211.27 2035.18L4208.89 2041.69L4206.51 2048.37L4204.12 2055.36L4201.9 2062.35C4201.9 2064.57 4200.47 2066.79 4199.84 2069.02L4197.77 2075.69V2076.8L4196.18 2082.52V2083.63L4194.43 2089.83V2090.62L4192.85 2096.98V2098.09L4191.42 2104.13L4190.14 2110.01V2111.28L4188.71 2118.27L4187.44 2124.62V2126.05L4186.33 2131.77V2133.68L4185.22 2139.39V2140.82L4184.11 2147.02V2147.81L4183.15 2153.85V2155.12L4182.2 2161.79V2166.4V2168.15L3820.63 2169.1H3402.98L2467.76 2169.9V2171.17C1799.11 2177.52 1190.04 2177.04 617.337 2177.04Z" fill="#9595AA"/>
<path fill-rule="evenodd" clip-rule="evenodd" d="M3850.66 2174.82H3814.12H3402.98H2788.82C2809.45 2048.95 2874.12 1934.5 2971.3 1851.89C3068.48 1769.28 3191.85 1723.87 3319.4 1723.78C3446.95 1723.68 3570.39 1768.9 3667.69 1851.37C3765 1933.84 3829.84 2048.19 3850.66 2174.03V2174.82Z" fill="#727282"/>
<path fill-rule="evenodd" clip-rule="evenodd" d="M2750.06 2175.77H2467.76V2177.04H1687.91C1708.24 2050.95 1772.76 1936.21 1869.93 1853.32C1967.1 1770.44 2090.59 1724.82 2218.31 1724.63C2346.03 1724.44 2469.65 1769.69 2567.07 1852.28C2664.49 1934.87 2729.35 2049.43 2750.06 2175.46V2175.77Z" fill="#727282"/>
<path fill-rule="evenodd" clip-rule="evenodd" d="M617.338 2177.05H587.313C607.52 2050.72 672.091 1935.72 769.438 1852.71C866.785 1769.7 990.532 1724.1 1118.47 1724.1C1246.4 1724.1 1370.15 1769.7 1467.5 1852.71C1564.85 1935.72 1629.42 2050.72 1649.62 2177.05H617.338Z" fill="#727282"/>
<path fill-rule="evenodd" clip-rule="evenodd" d="M5847.24 2173.55C5853.25 2161.24 5856.35 2147.7 5856.29 2134C5856.31 2110.28 5847.13 2087.48 5830.69 2070.38C5814.25 2053.29 5791.82 2043.24 5768.12 2042.33H5718.72V1492.03C5718.72 1333.17 5653.74 1251.52 5581.14 1209.1V1207.83C5580.6 986.926 5492.6 775.226 5336.4 619.024C5180.2 462.821 4968.5 374.826 4747.59 374.28H4251.63C4233.27 374.265 4215.09 377.878 4198.13 384.912C4181.17 391.946 4165.77 402.261 4152.81 415.267C4139.81 428.203 4129.49 443.574 4122.43 460.501C4115.37 477.428 4111.71 495.58 4111.67 513.92V2173.71L5847.24 2173.55Z" fill="#5E5E5E"/>
<path fill-rule="evenodd" clip-rule="evenodd" d="M4403.02 2173.71H5464.22C5443.3 2048.1 5378.49 1933.98 5281.33 1851.66C5184.17 1769.35 5060.96 1724.17 4933.62 1724.17C4806.28 1724.17 4683.06 1769.35 4585.9 1851.66C4488.74 1933.98 4423.94 2048.1 4403.02 2173.71Z" fill="#969696"/>
<path fill-rule="evenodd" clip-rule="evenodd" d="M5334.75 1276.93H4268.47V617.02C4269.95 582.145 4284.46 549.097 4309.15 524.415C4333.83 499.733 4366.88 485.215 4401.75 483.734H4767.13C4841.53 483.78 4915.19 498.509 4983.89 527.079C5052.59 555.648 5114.97 597.495 5167.47 650.222C5273.9 756.5 5333 1081.85 5333.79 1230.86L5334.75 1276.93Z" fill="#D3D3D3"/>
<path fill-rule="evenodd" clip-rule="evenodd" d="M5847.24 2173.55C5853.25 2161.23 5856.35 2147.7 5856.29 2133.99C5856.31 2110.28 5847.13 2087.48 5830.69 2070.38C5814.25 2053.29 5791.82 2043.24 5768.12 2042.33H5718.72V1993.08H3967.26V2173.87L5847.24 2173.55Z" fill="#9595AA"/>
<path fill-rule="evenodd" clip-rule="evenodd" d="M5399.24 1992.93H4467.99C4435.59 2048.77 4413.57 2110.02 4403.02 2173.71H5464.22C5453.59 2110.04 5431.58 2048.8 5399.24 1992.93V1992.93Z" fill="#7C7C8E"/>
<path fill-rule="evenodd" clip-rule="evenodd" d="M5288.52 1231.18C5287.72 1089 5229.42 776.359 5135.69 682.631C5087.45 634.171 5030.12 595.712 4966.98 569.459C4903.84 543.207 4836.15 529.677 4767.77 529.646H4402.39C4379.7 531.139 4358.34 540.823 4342.26 556.897C4326.19 572.971 4316.5 594.338 4315.01 617.021V1231.18H5288.52Z" fill="white"/>
<path fill-rule="evenodd" clip-rule="evenodd" d="M1556.37 2177.36H680.406C700.232 2075.76 754.766 1984.21 834.668 1918.39C914.57 1852.58 1014.87 1816.59 1118.39 1816.59C1221.91 1816.59 1322.21 1852.58 1402.11 1918.39C1482.01 1984.21 1536.54 2075.76 1556.37 2177.36V2177.36Z" fill="#757575"/>
<path d="M802.888 1947.02C875.866 1873.98 971.91 1828.52 1074.65 1818.36C1177.4 1808.2 1280.48 1833.99 1366.35 1891.32C1452.21 1948.65 1515.54 2033.99 1545.54 2132.78C1575.54 2231.57 1570.35 2337.7 1530.87 2433.1C1491.38 2528.49 1420.04 2607.25 1329 2655.94C1237.96 2704.63 1132.85 2720.25 1031.59 2700.13C930.32 2680.01 839.165 2625.4 773.651 2545.6C708.138 2465.8 672.321 2365.76 672.304 2262.51C672.216 2203.92 683.707 2145.88 706.117 2091.74C728.527 2037.59 761.414 1988.41 802.888 1947.02Z" fill="#464748"/>
<path d="M895.346 2039.31C946.992 1987.69 1014.94 1955.58 1087.62 1948.46C1160.29 1941.34 1233.18 1959.65 1293.87 2000.26C1354.55 2040.87 1399.27 2101.28 1420.4 2171.18C1441.52 2241.08 1437.75 2316.14 1409.72 2383.57C1381.69 2450.99 1331.14 2506.61 1266.68 2540.93C1202.23 2575.25 1127.87 2586.16 1056.28 2571.78C984.686 2557.41 920.296 2518.64 874.089 2462.1C827.882 2405.56 802.718 2334.74 802.889 2261.72C802.933 2220.39 811.122 2179.48 826.986 2141.32C842.851 2103.16 866.08 2068.49 895.346 2039.31Z" fill="#F3FFFF"/>
<path d="M998.607 2142.73C1026.3 2115.02 1062.75 2097.77 1101.74 2093.92C1140.73 2090.06 1179.84 2099.85 1212.43 2121.6C1245.01 2143.36 1269.04 2175.74 1280.43 2213.23C1291.81 2250.71 1289.85 2290.99 1274.87 2327.19C1259.89 2363.39 1232.82 2393.28 1198.27 2411.76C1163.73 2430.24 1123.84 2436.18 1085.42 2428.55C1046.99 2420.92 1012.39 2400.2 987.525 2369.93C962.659 2339.65 949.058 2301.69 949.042 2262.51C949.006 2240.27 953.367 2218.23 961.873 2197.68C970.379 2177.12 982.863 2158.45 998.607 2142.73V2142.73Z" fill="#424242"/>
<path fill-rule="evenodd" clip-rule="evenodd" d="M5371.6 2177.36H4495.64C4515.46 2075.76 4570 1984.21 4649.9 1918.39C4729.8 1852.58 4830.1 1816.59 4933.62 1816.59C5037.14 1816.59 5137.44 1852.58 5217.34 1918.39C5297.24 1984.21 5351.78 2075.76 5371.6 2177.36V2177.36Z" fill="#757575"/>
<path d="M4618.12 1947.01C4691.17 1874.06 4787.25 1828.69 4890 1818.63C4992.75 1808.58 5095.8 1834.46 5181.61 1891.87C5267.41 1949.28 5330.66 2034.66 5360.57 2133.47C5390.48 2232.29 5385.2 2338.41 5345.64 2433.77C5306.07 2529.13 5234.67 2607.81 5143.59 2656.43C5052.51 2705.04 4947.4 2720.57 4846.16 2700.37C4744.91 2680.18 4653.8 2625.5 4588.35 2545.66C4522.9 2465.82 4487.16 2365.75 4487.22 2262.51C4487.17 2203.89 4498.71 2145.84 4521.18 2091.7C4543.64 2037.55 4576.59 1988.38 4618.12 1947.01Z" fill="#424242"/>
<path d="M4710.58 2039.31C4762.22 1987.69 4830.18 1955.58 4902.85 1948.46C4975.52 1941.34 5048.42 1959.65 5109.1 2000.26C5169.78 2040.87 5214.5 2101.28 5235.63 2171.18C5256.75 2241.08 5252.98 2316.14 5224.95 2383.57C5196.92 2450.99 5146.37 2506.61 5081.92 2540.93C5017.46 2575.25 4943.1 2586.16 4871.51 2571.78C4799.92 2557.41 4735.53 2518.64 4689.32 2462.1C4643.11 2405.56 4617.95 2334.74 4618.12 2261.72C4618.16 2220.39 4626.35 2179.48 4642.22 2141.32C4658.08 2103.16 4681.31 2068.49 4710.58 2039.31Z" fill="#F3FFFF"/>
<path d="M4813.84 2142.73C4841.53 2115.02 4877.98 2097.77 4916.97 2093.92C4955.96 2090.06 4995.07 2099.85 5027.66 2121.6C5060.24 2143.36 5084.27 2175.74 5095.66 2213.23C5107.04 2250.71 5105.08 2290.99 5090.1 2327.19C5075.12 2363.39 5048.05 2393.28 5013.5 2411.76C4978.96 2430.24 4939.07 2436.18 4900.65 2428.55C4862.22 2420.92 4827.62 2400.2 4802.76 2369.93C4777.89 2339.65 4764.29 2301.69 4764.27 2262.51C4764.24 2240.27 4768.6 2218.23 4777.1 2197.68C4785.61 2177.12 4798.09 2158.45 4813.84 2142.73V2142.73Z" fill="#464748"/>
<path fill-rule="evenodd" clip-rule="evenodd" d="M4351.39 1376.38H4519.78C4528.65 1376.42 4537.13 1379.97 4543.38 1386.26C4549.64 1392.54 4553.14 1401.04 4553.14 1409.9V1409.9C4553.14 1418.76 4549.64 1427.27 4543.38 1433.55C4537.13 1439.83 4528.65 1443.38 4519.78 1443.42H4351.39C4342.53 1443.38 4334.04 1439.83 4327.79 1433.55C4321.54 1427.27 4318.03 1418.76 4318.03 1409.9V1409.9C4318.03 1401.04 4321.54 1392.54 4327.79 1386.26C4334.04 1379.97 4342.53 1376.42 4351.39 1376.38V1376.38Z" fill="#494949"/>
<path d="M1568.29 0C1556.11 0 1544.43 4.83715 1535.82 13.4472C1527.21 22.0572 1522.37 33.7349 1522.37 45.9113C1522.37 58.0878 1527.21 69.7656 1535.82 78.3757C1544.43 86.9857 1556.11 91.8229 1568.29 91.8229H2422.01C2434.19 91.8229 2445.86 86.9857 2454.47 78.3757C2463.08 69.7656 2467.92 58.0878 2467.92 45.9113C2467.92 33.7349 2463.08 22.0572 2454.47 13.4472C2445.86 4.83715 2434.19 0 2422.01 0H1568.29Z" fill="#565656"/>
<path fill-rule="evenodd" clip-rule="evenodd" d="M2657.13 2177.36H1781.16C1800.99 2075.76 1855.52 1984.21 1935.42 1918.39C2015.33 1852.58 2115.62 1816.59 2219.14 1816.59C2322.66 1816.59 2422.96 1852.58 2502.86 1918.39C2582.77 1984.21 2637.3 2075.76 2657.13 2177.36V2177.36Z" fill="#757575"/>
<path d="M2251.39 2707.49C2148.38 2715.02 2045.95 2686.6 1961.55 2627.07C1877.14 2567.54 1815.99 2480.59 1788.52 2381.02C1761.04 2281.46 1768.94 2175.45 1810.87 2081.06C1852.8 1986.67 1926.16 1909.74 2018.45 1863.37C2110.74 1817.01 2216.26 1804.08 2317.01 1826.8C2417.77 1849.52 2507.53 1906.47 2571 1987.95C2634.47 2069.43 2667.72 2170.4 2665.09 2273.65C2662.46 2376.9 2624.11 2476.04 2556.57 2554.18C2518.31 2598.58 2471.65 2634.98 2419.28 2661.29C2366.91 2687.6 2309.85 2703.3 2251.39 2707.49Z" fill="#424242"/>
<path d="M1996.1 2039.31C2047.75 1987.69 2115.7 1955.58 2188.37 1948.46C2261.05 1941.34 2333.94 1959.65 2394.62 2000.26C2455.31 2040.87 2500.02 2101.28 2521.15 2171.18C2542.28 2241.08 2538.5 2316.14 2510.47 2383.57C2482.44 2450.99 2431.89 2506.61 2367.44 2540.93C2302.99 2575.25 2228.63 2586.16 2157.03 2571.78C2085.44 2557.41 2021.05 2518.64 1974.84 2462.1C1928.64 2405.56 1903.47 2334.74 1903.64 2261.72C1903.69 2220.39 1911.88 2179.48 1927.74 2141.32C1943.61 2103.16 1966.83 2068.49 1996.1 2039.31V2039.31Z" fill="#F3FFFF"/>
<path d="M2099.36 2142.73C2127.06 2115.02 2163.5 2097.77 2202.49 2093.92C2241.48 2090.06 2280.6 2099.85 2313.18 2121.6C2345.76 2143.36 2369.8 2175.74 2381.18 2213.23C2392.57 2250.71 2390.6 2290.99 2375.62 2327.19C2360.64 2363.39 2333.57 2393.28 2299.03 2411.76C2264.48 2430.24 2224.6 2436.18 2186.17 2428.55C2147.74 2420.92 2113.15 2400.2 2088.28 2369.93C2063.41 2339.65 2049.81 2301.69 2049.8 2262.51C2049.75 2240.27 2054.11 2218.23 2062.62 2197.67C2071.12 2177.11 2083.61 2158.44 2099.36 2142.73V2142.73Z" fill="#464748"/>
<path fill-rule="evenodd" clip-rule="evenodd" d="M3757.88 2177.36H2881.92C2901.74 2075.76 2956.28 1984.21 3036.18 1918.39C3116.08 1852.58 3216.38 1816.59 3319.9 1816.59C3423.42 1816.59 3523.72 1852.58 3603.62 1918.39C3683.52 1984.21 3738.06 2075.76 3757.88 2177.36V2177.36Z" fill="#757575"/>
<path d="M3004.4 1947.01C3077.37 1874.1 3173.37 1828.74 3276.03 1818.67C3378.7 1808.6 3481.68 1834.43 3567.43 1891.76C3653.19 1949.1 3716.41 2034.39 3746.34 2133.12C3776.26 2231.84 3771.03 2337.88 3731.54 2433.18C3692.04 2528.48 3620.73 2607.14 3529.75 2655.76C3438.77 2704.38 3333.75 2719.95 3232.57 2699.82C3131.4 2679.69 3040.33 2625.11 2974.89 2545.37C2909.44 2465.63 2873.67 2365.67 2873.66 2262.51C2873.59 2203.9 2885.1 2145.86 2907.54 2091.72C2929.98 2037.57 2962.9 1988.4 3004.4 1947.01V1947.01Z" fill="#424242"/>
<path d="M3096.7 2039.31C3148.35 1987.57 3216.35 1955.35 3289.1 1948.15C3361.85 1940.94 3434.85 1959.21 3495.65 1999.82C3556.44 2040.43 3601.26 2100.87 3622.46 2170.84C3643.66 2240.8 3639.94 2315.96 3611.91 2383.48C3583.89 2451.01 3533.31 2506.72 3468.79 2541.11C3404.28 2575.51 3329.84 2586.45 3258.15 2572.09C3186.47 2557.72 3121.99 2518.93 3075.72 2462.33C3029.44 2405.73 3004.24 2334.83 3004.4 2261.72C3004.48 2178.28 3037.68 2098.29 3096.7 2039.31V2039.31Z" fill="#F3FFFF"/>
<path d="M3200.43 2142.73C3228.13 2115.02 3264.58 2097.77 3303.57 2093.92C3342.55 2090.06 3381.67 2099.85 3414.25 2121.6C3446.84 2143.36 3470.87 2175.74 3482.25 2213.23C3493.64 2250.71 3491.68 2290.99 3476.7 2327.19C3461.72 2363.39 3434.65 2393.28 3400.1 2411.76C3365.56 2430.24 3325.67 2436.18 3287.24 2428.55C3248.81 2420.92 3214.22 2400.2 3189.35 2369.93C3164.49 2339.65 3150.89 2301.69 3150.87 2262.51C3150.83 2240.27 3155.18 2218.23 3163.69 2197.67C3172.2 2177.11 3184.68 2158.44 3200.43 2142.73V2142.73Z" fill="#464748"/>
<path d="M3764.31 873.053H168.787V980.603H3764.31V873.053Z" fill="#FF8327"/>
<path d="M920.105 616.96C920.105 604.097 916.781 594.414 910.133 587.91C903.629 581.261 891.705 574.396 874.361 567.314C842.709 555.318 819.945 541.298 806.07 525.255C792.195 509.068 785.258 489.99 785.258 468.021C785.258 441.427 794.652 420.109 813.441 404.066C832.375 387.878 856.367 379.785 885.418 379.785C904.785 379.785 922.057 383.904 937.232 392.142C952.408 400.236 964.043 411.726 972.137 426.613C980.375 441.5 984.494 458.41 984.494 477.343H920.973C920.973 462.601 917.793 451.4 911.434 443.74C905.219 435.935 896.186 432.033 884.334 432.033C873.205 432.033 864.533 435.357 858.318 442.005C852.104 448.509 848.996 457.326 848.996 468.455C848.996 477.126 852.465 485.003 859.402 492.085C866.34 499.023 878.625 506.25 896.258 513.765C927.043 524.894 949.373 538.552 963.248 554.74C977.268 570.927 984.277 591.523 984.277 616.527C984.277 643.988 975.533 665.451 958.045 680.916C940.557 696.38 916.781 704.113 886.719 704.113C866.34 704.113 847.768 699.921 831.002 691.539C814.236 683.156 801.084 671.16 791.545 655.55C782.15 639.941 777.453 621.513 777.453 600.267H841.408C841.408 618.478 844.949 631.703 852.031 639.941C859.113 648.179 870.676 652.298 886.719 652.298C908.977 652.298 920.105 640.519 920.105 616.96ZM1161.17 699.777H1099.6V465.203H1161.17V699.777ZM1096.78 404.5C1096.78 394.96 1099.81 387.156 1105.88 381.085C1111.95 375.015 1120.05 371.98 1130.16 371.98C1140.28 371.98 1148.38 375.015 1154.45 381.085C1160.52 387.156 1163.55 394.96 1163.55 404.5C1163.55 413.894 1160.52 421.699 1154.45 427.914C1148.52 434.128 1140.43 437.236 1130.16 437.236C1119.9 437.236 1111.74 434.128 1105.67 427.914C1099.74 421.699 1096.78 413.894 1096.78 404.5ZM1385.75 636.906C1385.75 631.703 1383.22 626.933 1378.16 622.597C1373.25 618.117 1362.19 612.119 1344.99 604.603C1319.7 594.341 1302.28 583.718 1292.74 572.734C1283.35 561.75 1278.65 548.091 1278.65 531.759C1278.65 511.236 1286.02 494.326 1300.77 481.029C1315.65 467.587 1335.31 460.867 1359.73 460.867C1385.46 460.867 1406.06 467.515 1421.52 480.812C1436.99 494.109 1444.72 511.958 1444.72 534.361H1383.37C1383.37 515.283 1375.42 505.744 1359.52 505.744C1353.01 505.744 1347.67 507.767 1343.48 511.814C1339.28 515.861 1337.19 521.498 1337.19 528.724C1337.19 533.927 1339.5 538.552 1344.13 542.599C1348.75 546.501 1359.66 552.138 1376.86 559.509C1401.87 568.759 1419.5 579.093 1429.76 590.511C1440.17 601.785 1445.37 616.455 1445.37 634.521C1445.37 655.478 1437.49 672.316 1421.74 685.035C1405.98 697.753 1385.32 704.113 1359.73 704.113C1342.54 704.113 1327.36 700.789 1314.21 694.14C1301.06 687.347 1290.72 677.953 1283.21 665.957C1275.83 653.96 1272.15 641.025 1272.15 627.15H1330.47C1330.76 637.845 1333.21 645.867 1337.84 651.214C1342.61 656.562 1350.34 659.236 1361.04 659.236C1377.51 659.236 1385.75 651.792 1385.75 636.906ZM1628.11 407.535V465.203H1659.55V511.38H1628.11V627.8C1628.11 637.05 1629.34 643.41 1631.8 646.878C1634.4 650.347 1639.31 652.082 1646.54 652.082C1652.47 652.082 1657.31 651.576 1661.07 650.564L1660.63 698.259C1650.23 702.162 1638.95 704.113 1626.81 704.113C1587.21 704.113 1567.19 681.421 1566.76 636.039V511.38H1539.66V465.203H1566.76V407.535H1628.11ZM1861.37 704.113C1829.86 704.113 1805.29 694.718 1787.66 675.929C1770.02 657.14 1761.21 630.257 1761.21 595.281V576.636C1761.21 539.636 1769.3 511.091 1785.49 491.001C1801.68 470.912 1824.87 460.867 1855.08 460.867C1884.57 460.867 1906.75 470.333 1921.64 489.267C1936.52 508.056 1944.11 535.951 1944.4 572.951V603.085H1822.34C1823.21 620.429 1827.04 633.148 1833.83 641.242C1840.63 649.191 1851.11 653.166 1865.27 653.166C1885.79 653.166 1902.92 646.156 1916.65 632.136L1940.72 669.208C1933.2 679.615 1922.29 688.07 1907.98 694.574C1893.67 700.933 1878.13 704.113 1861.37 704.113ZM1822.78 560.16H1884.13V554.523C1883.84 540.503 1881.53 529.88 1877.19 522.654C1872.86 515.427 1865.34 511.814 1854.65 511.814C1843.95 511.814 1836.15 515.644 1831.23 523.304C1826.46 530.964 1823.65 543.25 1822.78 560.16ZM2110.02 465.203L2111.75 486.882C2125.48 469.539 2143.62 460.867 2166.17 460.867C2189.58 460.867 2206.13 471.417 2215.81 492.519C2229.26 471.417 2248.41 460.867 2273.26 460.867C2314.31 460.867 2335.34 489.267 2336.35 546.068V699.777H2275V549.97C2275 536.384 2273.12 526.701 2269.36 520.919C2265.6 515.138 2259.25 512.248 2250.28 512.248C2238.87 512.248 2230.34 519.257 2224.7 533.277L2225.14 540.648V699.777H2163.78V550.404C2163.78 536.962 2161.98 527.279 2158.36 521.353C2154.75 515.283 2148.32 512.248 2139.07 512.248C2128.52 512.248 2120.13 517.957 2113.92 529.375V699.777H2052.57V465.203H2110.02ZM2447.77 575.335C2447.77 536.89 2454.71 508.201 2468.58 489.267C2482.46 470.333 2501.9 460.867 2526.9 460.867C2548.15 460.867 2564.55 469.25 2576.11 486.015L2578.5 465.203H2633.78V699.777C2633.78 729.695 2625.4 752.531 2608.63 768.285C2591.87 784.183 2567.8 792.132 2536.44 792.132C2523.58 792.132 2510.06 789.531 2495.9 784.328C2481.73 779.269 2471.18 772.765 2464.25 764.816L2484.84 722.324C2490.62 728.394 2498.14 733.308 2507.39 737.066C2516.64 740.968 2525.38 742.919 2533.62 742.919C2547.35 742.919 2557.18 739.595 2563.1 732.947C2569.18 726.443 2572.28 715.892 2572.43 701.294V681.132C2560.72 696.453 2545.47 704.113 2526.68 704.113C2501.68 704.113 2482.31 694.429 2468.58 675.062C2455 655.55 2448.06 628.089 2447.77 592.679V575.335ZM2509.12 590.728C2509.12 612.408 2511.94 628.234 2517.58 638.207C2523.21 648.035 2532.18 652.949 2544.46 652.949C2557.03 652.949 2566.36 648.396 2572.43 639.291V527.207C2566.07 517.234 2556.89 512.248 2544.89 512.248C2532.75 512.248 2523.72 517.234 2517.79 527.207C2512.01 537.179 2509.12 553.222 2509.12 575.335V590.728ZM2863.13 699.777C2861.4 696.164 2859.67 690.093 2857.93 681.566C2846.95 696.597 2832.06 704.113 2813.27 704.113C2793.61 704.113 2777.28 697.609 2764.28 684.601C2751.41 671.593 2744.98 654.755 2744.98 634.087C2744.98 609.517 2752.78 590.511 2768.39 577.07C2784.15 563.628 2806.77 556.763 2836.25 556.474H2854.9V537.613C2854.9 527.062 2853.09 519.619 2849.48 515.283C2845.86 510.947 2840.59 508.779 2833.65 508.779C2818.33 508.779 2810.67 517.74 2810.67 535.662H2749.32C2749.32 513.982 2757.41 496.132 2773.6 482.113C2789.93 467.949 2810.53 460.867 2835.38 460.867C2861.11 460.867 2880.98 467.587 2895 481.029C2909.17 494.326 2916.25 513.404 2916.25 538.263V648.613C2916.54 668.847 2919.43 684.673 2924.92 696.091V699.777H2863.13ZM2826.93 655.984C2833.72 655.984 2839.5 654.611 2844.27 651.865C2849.04 649.119 2852.58 645.867 2854.9 642.109V593.33H2840.15C2829.75 593.33 2821.51 596.654 2815.44 603.302C2809.51 609.951 2806.55 618.839 2806.55 629.968C2806.55 647.312 2813.34 655.984 2826.93 655.984ZM3170.32 616.96C3170.32 604.097 3166.99 594.414 3160.35 587.91C3153.84 581.261 3141.92 574.396 3124.57 567.314C3092.92 555.318 3070.16 541.298 3056.28 525.255C3042.41 509.068 3035.47 489.99 3035.47 468.021C3035.47 441.427 3044.87 420.109 3063.65 404.066C3082.59 387.878 3106.58 379.785 3135.63 379.785C3155 379.785 3172.27 383.904 3187.45 392.142C3202.62 400.236 3214.26 411.726 3222.35 426.613C3230.59 441.5 3234.71 458.41 3234.71 477.343H3171.19C3171.19 462.601 3168.01 451.4 3161.65 443.74C3155.43 435.935 3146.4 432.033 3134.55 432.033C3123.42 432.033 3114.75 435.357 3108.53 442.005C3102.32 448.509 3099.21 457.326 3099.21 468.455C3099.21 477.126 3102.68 485.003 3109.62 492.085C3116.55 499.023 3128.84 506.25 3146.47 513.765C3177.26 524.894 3199.59 538.552 3213.46 554.74C3227.48 570.927 3234.49 591.523 3234.49 616.527C3234.49 643.988 3225.75 665.451 3208.26 680.916C3190.77 696.38 3166.99 704.113 3136.93 704.113C3116.55 704.113 3097.98 699.921 3081.21 691.539C3064.45 683.156 3051.3 671.16 3041.76 655.55C3032.36 639.941 3027.67 621.513 3027.67 600.267H3091.62C3091.62 618.478 3095.16 631.703 3102.24 639.941C3109.33 648.179 3120.89 652.298 3136.93 652.298C3159.19 652.298 3170.32 640.519 3170.32 616.96Z" fill="#1B2157"/>
<path d="M1227.96 330.551C1224.52 319.599 1218.62 309.614 1210.63 301.223L1204.03 294.284C1203.81 294.054 1203.52 293.885 1203.2 293.789C1202.88 293.694 1202.52 293.676 1202.18 293.737C1201.83 293.799 1201.5 293.937 1201.21 294.141C1200.92 294.344 1200.69 294.606 1200.52 294.904L1195.75 303.831C1192.76 309.432 1187.99 315.057 1181.62 320.497C1181.2 320.843 1180.76 320.918 1180.47 320.927C1180.18 320.936 1179.75 320.862 1179.41 320.499C1179.09 320.186 1178.97 319.736 1179.06 319.298C1182.27 304.644 1180.1 287.799 1172.57 269.182C1166.35 253.716 1156.32 241.367 1142.81 232.398L1132.94 225.872C1131.65 225.013 1129.7 225.94 1129.54 227.483L1128.33 239.241C1127.5 247.276 1125.44 254.306 1122.19 260.065C1118.23 267.114 1113.09 273.582 1106.91 279.303C1102.61 283.279 1097.88 286.829 1092.81 289.887C1080.61 297.203 1070.13 306.861 1062.15 318.135C1054.16 329.512 1048.97 342.235 1046.97 355.313C1045.22 366.844 1045.94 378.141 1049.14 388.934C1052.23 399.325 1057.51 408.892 1064.7 417.105C1071.96 425.386 1080.83 432.08 1091.1 436.954C1101.74 442.02 1113.39 444.925 1125.78 445.604C1138.16 446.283 1150.5 444.693 1162.48 440.892C1174.03 437.239 1184.88 431.584 1194.44 424.242C1204.07 416.887 1212.09 408.114 1218.24 398.228C1224.63 387.99 1228.81 376.82 1230.52 365.4C1232.33 353.478 1231.49 341.755 1227.96 330.551Z" fill="#FF0000"/>
</svg>
