<?xml version="1.0" encoding="UTF-8"?>
<svg width="5857" height="2709" id="Layer_1" data-name="Layer 1" xmlns="http://www.w3.org/2000/svg" viewBox="0 0 5857 2709">
  <defs>
    <style>
      .cls-1 {
        fill: #848484;
      }

      .cls-2 {
        fill: #ff8327;
      }

      .cls-3 {
        fill: #565656;
      }

      .cls-4 {
        fill: #f3ffff;
      }

      .cls-5 {
        fill: #969696;
      }

      .cls-5, .cls-6, .cls-7, .cls-8, .cls-9, .cls-10, .cls-11, .cls-12, .cls-13 {
        fill-rule: evenodd;
      }

      .cls-6 {
        fill: #9595aa;
      }

      .cls-7 {
        fill: #757575;
      }

      .cls-8 {
        fill: #e3faff;
      }

      .cls-9 {
        fill: #494949;
      }

      .cls-10 {
        fill: #5e5e5e;
      }

      .cls-14 {
        fill: #eaeaea;
      }

      .cls-15 {
        fill: #424242;
      }

      .cls-11 {
        fill: #7c7c8e;
      }

      .cls-12 {
        fill: #727282;
      }

      .cls-16 {
        fill: #2c2c2c;
      }

      .cls-13 {
        fill: #c0e2ed;
      }

      .cls-17 {
        fill: #464748;
      }

      .cls-18 {
        fill: #f2f2f2;
      }

      .cls-19 {
        fill: red;
      }

      .cls-20 {
        fill: #1b2157;
      }
    </style>
  </defs>
  <path class="cls-16" d="m4203.2,1228.6h-364.3v203.7h364.3v-203.7Z"/>
  <path class="cls-1" d="m2342.9,45.9h-696.1v223.8h696.1V45.9Z"/>
  <path class="cls-18" d="m697.1,162.2h2595.3c184.7.5,361.7,74.1,492.4,204.7,130.6,130.6,204.2,307.6,204.7,492.4v153.6c-.5,184.7-74.1,361.7-204.7,492.4-130.6,130.6-307.6,204.2-492.4,204.7H697.1c-184.7-.5-361.7-74.1-492.4-204.7C74.1,1374.6.5,1197.6,0,1012.9v-153.6c.5-184.7,74.1-361.7,204.7-492.4,130.6-130.6,307.7-204.2,492.4-204.7h0Z"/>
  <path class="cls-14" d="m697.1,162.2h1297.7v1547.8H697.1c-184.7-.5-361.7-74.1-492.4-204.7C74.1,1374.6.5,1197.6,0,1012.9v-153.6c.5-184.7,74.1-361.7,204.7-492.4,130.6-130.6,307.7-204.2,492.4-204.7h0Z"/>
  <path class="cls-6" d="m617.3,2177h-74.7c-22.9.1-45-8.4-62-23.8-17-15.4-27.6-36.5-29.7-59.3-2.2-22.8,4.3-45.6,18-63.9,13.8-18.3,33.9-30.8,56.4-35v-315.6c0-12,2.4-24,7-35.1s11.4-21.2,19.9-29.8c8.5-8.5,18.7-15.3,29.8-19.9s23.1-6.9,35.1-6.9h3131.2c12,0,24,2.3,35.1,6.9s21.3,11.3,29.8,19.9c8.5,8.5,15.3,18.6,19.9,29.8,4.6,11.1,7,23.1,7,35.1v312.3h386.9l-2.9,6.4c-.9,2.1-1.9,4.1-2.7,6.3-1,2.1-1.9,4.3-2.7,6.4l-5.2,13v5.1l-2.4,6.4-2.4,6.5-2.4,6.7-2.4,7-2.2,7c0,2.2-1.4,4.4-2.1,6.7l-2.1,6.7v1.1l-1.6,5.7v1.1l-1.8,6.2v.8l-1.6,6.4v1.1l-1.4,6-1.3,5.9v1.3l-1.4,7-1.3,6.4v1.4l-1.1,5.7v1.9l-1.1,5.7v1.4l-1.1,6.2v.8l-1,6v1.3l-.9,6.7v6.4l-361.6,1h-417.3l-935.2.8v1.3c-668.7,6-1277.8,5.5-1850.5,5.5Z"/>
  <path class="cls-12" d="m3846.78,2169.67h-1057.98c20.52-124.47,84.98-237.56,181.83-319.22,96.84-81.66,219.79-126.54,346.81-126.64,127.13-.1,250.07,44.59,347.01,126.15,96.94,81.56,161.6,194.56,182.32,319.03v.69h0Z"/>
  <path class="cls-12" d="m2746.06,2170.81l-280.97,1.13v1.31s-776.13,3.13-776.13,3.13c19.69-127.61,83.42-243.87,179.82-328.1,96.4-84.23,219.14-130.84,346.24-131.56,127.1-.72,250.3,44.6,347.68,127.74,97.28,83.14,162.34,198.68,183.46,326.12v.2s-.1,0-.1,0Z"/>
  <path class="cls-10" d="m5847.2,2168.93c6-12.27,9.1-25.83,9-39.5,0-23.64-9.2-46.38-25.6-63.43-16.4-17.06-38.9-27.03-62.6-27.93h-49.4v-548.97c0-158.49-65-239.88-137.6-282.17v-1.3c-.5-220.33-88.5-431.48-244.7-587.27-156.2-155.79-367.9-243.57-588.8-244.06h-496c-18.4,0-36.5,3.59-53.5,10.57s-32.4,17.26-45.3,30.32c-13,12.87-23.3,28.23-30.4,45.08s-10.7,35.01-10.8,53.26v1655.49l1735.7-.1Z"/>
  <path class="cls-5" d="m4403,2169.03h1061.2c-20.9-124.29-85.7-237.21-182.9-318.65-97.2-81.44-220.4-126.17-347.7-126.17s-250.6,44.73-347.7,126.17c-97.2,81.44-162,194.36-182.9,318.65Z"/>
  <path class="cls-13" d="m5334.8,1276.9h-1066.3v-659.9c1.5-34.9,16-67.9,40.7-92.6,24.7-24.7,57.7-39.2,92.6-40.7h365.4c74.4,0,148.1,14.8,216.8,43.3,68.7,28.6,131.1,70.4,183.6,123.1,106.4,106.3,165.5,431.6,166.3,580.6l.9,46.2Z"/>
  <path class="cls-6" d="m5847.14,2168.64c6.04-11.96,9.16-25.19,9.06-38.51,0-23.05-9.26-45.22-25.77-61.85-16.51-16.63-39.16-26.35-63.02-27.23h-49.73v-47.85h-1762.91v175.83l1892.36-.39Z"/>
  <path class="cls-11" d="m5399.2,1992.9h-931.2c-32.4,54.36-54.4,114.07-65,176.13h1061.2c-10.6-62.05-32.6-121.67-65-176.13h0Z"/>
  <path class="cls-8" d="m5288.5,1231.2c-.8-142.2-59.1-454.8-152.8-548.5-48.2-48.5-105.6-86.9-168.7-113.2s-130.8-39.8-199.2-39.8h-365.4c-22.7,1.5-44.1,11.2-60.1,27.3-16.1,16.1-25.8,37.4-27.2,60.1v614.2h973.4v-.1Z"/>
  <path class="cls-12" d="m1646.78,2170.81l-280.97,1.13v1.31s-776.13,3.13-776.13,3.13c19.69-127.61,83.42-243.87,179.82-328.1,96.4-84.23,219.14-130.84,346.24-131.56,127.1-.72,250.3,44.6,347.68,127.74,97.28,83.14,162.34,198.68,183.46,326.12v.2s-.1,0-.1,0Z"/>
  <path class="cls-7" d="m1556.4,2177.4h-876c19.8-101.6,74.4-193.2,154.3-259,79.9-65.8,180.2-101.8,283.7-101.8s203.8,36,283.7,101.8c79.9,65.8,134.4,157.4,154.3,259h0Z"/>
  <path class="cls-17" d="m802.9,1947c73-73,169-118.5,271.8-128.7,102.8-10.2,205.8,15.6,291.7,73,85.9,57.3,149.2,142.7,179.2,241.5s24.8,204.9-14.7,300.3c-39.5,95.4-110.8,174.1-201.9,222.8s-196.2,64.3-297.4,44.2c-101.3-20.1-192.4-74.7-257.9-154.5s-101.3-179.8-101.3-283.1c-.1-58.6,11.4-116.6,33.8-170.8,22.3-54.1,55.2-103.3,96.7-144.7Z"/>
  <path class="cls-4" d="m895.3,2039.3c51.6-51.6,119.6-83.7,192.3-90.9,72.7-7.1,145.6,11.2,206.2,51.8,60.7,40.6,105.4,101,126.5,170.9s17.3,145-10.7,212.4-78.6,123-143,157.4c-64.5,34.3-138.8,45.2-210.4,30.9-71.6-14.4-136-53.1-182.2-109.7-46.2-56.5-71.4-127.4-71.2-200.4,0-41.3,8.2-82.2,24.1-120.4,16-38.1,39.2-72.8,68.4-102Z"/>
  <path class="cls-15" d="m998.6,2142.7c27.7-27.7,64.1-45,103.1-48.8,39-3.9,78.1,5.9,110.7,27.7s56.6,54.1,68,91.6,9.4,77.8-5.6,114-42.1,66.1-76.6,84.6-74.4,24.4-112.8,16.8c-38.4-7.6-73-28.4-97.9-58.6-24.9-30.3-38.5-68.2-38.5-107.4,0-22.2,4.3-44.3,12.8-64.8,8.6-20.7,21.1-39.4,36.8-55.1h0Z"/>
  <path class="cls-7" d="m5371.6,2177.4h-876c19.8-101.6,74.4-193.2,154.3-259s180.2-101.8,283.7-101.8,203.8,36,283.7,101.8c79.9,65.8,134.5,157.4,154.3,259h0Z"/>
  <path class="cls-15" d="m4618.1,1947c73-72.9,169.1-118.3,271.9-128.4s205.8,15.8,291.6,73.2c85.8,57.4,149.1,142.8,179,241.6,29.9,98.8,24.6,204.9-14.9,300.3-39.6,95.4-111,174-202.1,222.7-91.1,48.6-196.2,64.1-297.4,43.9-101.2-20.2-192.4-74.9-257.8-154.7-65.5-79.8-101.2-179.9-101.1-283.1-.1-58.6,11.5-116.7,34-170.8,22.3-54.1,55.3-103.3,96.8-144.7Z"/>
  <path class="cls-4" d="m4710.6,2039.3c51.6-51.6,119.6-83.7,192.3-90.9s145.6,11.2,206.2,51.8c60.7,40.6,105.4,101,126.5,170.9s17.4,145-10.7,212.4c-28,67.4-78.6,123-143,157.4-64.5,34.3-138.8,45.2-210.4,30.9-71.6-14.4-136-53.1-182.2-109.7-46.2-56.5-71.4-127.4-71.2-200.4,0-41.3,8.2-82.2,24.1-120.4,15.9-38.1,39.1-72.8,68.4-102Z"/>
  <path class="cls-17" d="m4813.8,2142.7c27.7-27.7,64.1-45,103.1-48.8,39-3.9,78.1,5.9,110.7,27.7s56.6,54.1,68,91.6,9.4,77.8-5.6,114-42.1,66.1-76.6,84.6-74.4,24.4-112.9,16.8c-38.4-7.6-73-28.4-97.9-58.6-24.9-30.3-38.5-68.2-38.5-107.4,0-22.2,4.3-44.3,12.8-64.8,8.7-20.7,21.2-39.4,36.9-55.1h0Z"/>
  <path class="cls-9" d="m4351.4,1376.4h168.4c8.9,0,17.4,3.6,23.6,9.9,6.3,6.3,9.8,14.8,9.8,23.6h0c0,8.9-3.5,17.4-9.8,23.7-6.2,6.3-14.7,9.8-23.6,9.9h-168.4c-8.9,0-17.4-3.6-23.6-9.9s-9.8-14.8-9.8-23.7h0c0-8.9,3.5-17.4,9.8-23.6,6.2-6.3,14.7-9.9,23.6-9.9h0Z"/>
  <path class="cls-3" d="m1568.3,0c-12.2,0-23.9,4.8-32.5,13.4-8.6,8.6-13.4,20.3-13.4,32.5s4.8,23.9,13.4,32.5,20.3,13.4,32.5,13.4h853.7c12.2,0,23.9-4.8,32.5-13.4s13.4-20.3,13.4-32.5-4.8-23.9-13.4-32.5c-8.6-8.6-20.3-13.4-32.5-13.4h-853.7Z"/>
  <path class="cls-7" d="m2657.1,2177.4h-876c19.8-101.6,74.4-193.2,154.3-259s180.2-101.8,283.7-101.8,203.8,36,283.7,101.8c80,65.8,134.5,157.4,154.3,259h0Z"/>
  <path class="cls-15" d="m2251.4,2707.5c-103,7.5-205.4-20.9-289.8-80.4s-145.6-146.5-173-246.1c-27.5-99.6-19.6-205.6,22.3-300,41.9-94.4,115.3-171.3,207.6-217.7,92.3-46.4,197.8-59.3,298.6-36.6,100.8,22.7,190.5,79.7,254,161.1,63.5,81.4,96.7,182.4,94.1,285.7-2.6,103.2-41,202.4-108.5,280.5-38.3,44.4-84.9,80.8-137.3,107.1-52.5,26.5-109.5,42.2-168,46.4Z"/>
  <path class="cls-4" d="m1996.1,2039.3c51.7-51.6,119.6-83.7,192.3-90.9,72.7-7.1,145.6,11.2,206.2,51.8,60.7,40.6,105.4,101,126.5,170.9s17.4,145-10.7,212.4c-28,67.4-78.6,123-143,157.4-64.4,34.3-138.8,45.2-210.4,30.9-71.6-14.4-136-53.1-182.2-109.7-46.2-56.5-71.4-127.4-71.2-200.4,0-41.3,8.2-82.2,24.1-120.4,15.9-38.1,39.1-72.8,68.4-102h0Z"/>
  <path class="cls-17" d="m2099.4,2142.7c27.7-27.7,64.1-45,103.1-48.8,39-3.9,78.1,5.9,110.7,27.7,32.6,21.8,56.6,54.1,68,91.6s9.4,77.8-5.6,114-42.1,66.1-76.6,84.6c-34.6,18.5-74.4,24.4-112.9,16.8-38.4-7.6-73-28.4-97.9-58.6-24.9-30.3-38.5-68.2-38.5-107.4-.1-22.2,4.3-44.3,12.8-64.8,8.6-20.7,21.1-39.4,36.9-55.1h0Z"/>
  <path class="cls-7" d="m3757.9,2177.4h-876c19.8-101.6,74.4-193.2,154.3-259,79.9-65.8,180.2-101.8,283.7-101.8s203.8,36,283.7,101.8c79.9,65.8,134.5,157.4,154.3,259h0Z"/>
  <path class="cls-15" d="m3004.4,1947c73-72.9,169-118.3,271.6-128.3,102.7-10.1,205.6,15.8,291.4,73.1,85.8,57.3,149,142.6,178.9,241.4,29.9,98.7,24.7,204.8-14.8,300.1s-110.8,174-201.8,222.6-196,64.2-297.2,44.1c-101.2-20.1-192.2-74.7-257.7-154.4-65.4-79.7-101.2-179.7-101.2-282.9-.1-58.6,11.4-116.6,33.9-170.8,22.5-54.3,55.4-103.5,96.9-144.9h0Z"/>
  <path class="cls-4" d="m3096.7,2039.3c51.7-51.7,119.7-84,192.4-91.2,72.8-7.2,145.8,11.1,206.5,51.7,60.8,40.6,105.6,101.1,126.8,171,21.2,70,17.5,145.1-10.6,212.6-28,67.5-78.6,123.2-143.1,157.6-64.5,34.4-138.9,45.3-210.6,31-71.7-14.4-136.2-53.2-182.4-109.8-46.3-56.6-71.5-127.5-71.3-200.6.1-83.3,33.3-163.3,92.3-222.3h0Z"/>
  <path class="cls-17" d="m3200.4,2142.7c27.7-27.7,64.2-45,103.1-48.8,39-3.9,78.1,5.9,110.7,27.7,32.6,21.8,56.6,54.1,68,91.6s9.4,77.8-5.6,114-42.1,66.1-76.6,84.6-74.4,24.4-112.9,16.8c-38.4-7.6-73-28.4-97.9-58.6-24.9-30.3-38.5-68.2-38.5-107.4,0-22.2,4.3-44.3,12.8-64.8,8.7-20.7,21.2-39.4,36.9-55.1h0Z"/>
  <path class="cls-2" d="m3769.5,1015.6H174v107.6h3595.5v-107.6Z"/>
  <g>
    <path class="cls-19" d="m1322.4,418.9c-4.1-11-11.2-20.9-20.8-29.3l-7.9-6.9c-.3-.2-.6-.4-1-.5s-.8-.1-1.2-.1c-.4.1-.8.2-1.2.4-.3.2-.6.5-.8.8l-5.7,8.9c-3.6,5.6-9.3,11.2-17,16.7-.5.3-1,.4-1.4.4-.3,0-.9-.1-1.3-.4s-.5-.8-.4-1.2c3.9-14.7,1.2-31.5-7.8-50.1-7.5-15.5-19.5-27.8-35.7-36.8l-11.8-6.5c-1.5-.9-3.9.1-4.1,1.6l-1.5,11.8c-1,8-3.5,15.1-7.4,20.8-4.8,7-10.9,13.5-18.3,19.2-5.2,4-10.8,7.5-16.9,10.6-14.6,7.3-27.2,17-36.8,28.2-9.6,11.4-15.8,24.1-18.2,37.2-2.1,11.5-1.2,22.8,2.6,33.6,3.7,10.4,10,20,18.7,28.2,8.7,8.3,19.4,15,31.7,19.8,12.8,5.1,26.7,8,41.6,8.6,14.9.7,29.7-.9,44-4.7,13.9-3.7,26.9-9.3,38.4-16.7,11.6-7.4,21.2-16.1,28.6-26,7.7-10.2,12.7-21.4,14.7-32.8,2.1-11.9,1.1-23.6-3.1-34.8Z"/>
    <g>
      <path class="cls-20" d="m847.3,853.3c-45.3,0-83.6-6.4-114.9-19.2l16.3-55.1c35.9,12.5,70.4,18.8,103.7,18.8,24.7,0,43.3-2.9,55.9-8.6,12.6-5.8,18.9-14.2,18.9-25.3,0-5.5-1.8-10.2-5.2-14.1-3.5-3.9-9.4-7.8-17.6-11.9l-76.1-38.7c-16.4-8.5-27.9-19-34.5-31.5s-9.8-24.8-9.8-36.7c0-31.8,11.1-55.9,33.3-72.3,22.2-16.4,54.4-24.6,96.6-24.6,49.7,0,89,11.6,117.8,34.8l-38.1,48.5c-13.1-9-26.7-15.9-40.8-20.7-14.1-4.7-28.1-7.1-42.1-7.1-17.7,0-31.1,2.6-40.3,7.9-9.2,5.2-13.8,13-13.8,23.2,0,6.6,2.3,12.7,6.8,18.4s11.1,10.8,19.7,15.3l70.3,35.9c17.7,8.9,29.8,18.9,36.5,30.1,6.6,11.2,10,23.3,10,36.4,0,31.8-12.9,55.8-38.7,72.2-25.9,16.2-63.8,24.3-113.9,24.3Z"/>
      <path class="cls-20" d="m1052.4,848.9l9.8-46.5h205.2l-9.8,46.5h-205.2Zm47.3-223.9l9.8-46.5h205.2l-9.8,46.5h-205.2Zm24.7,223.9l57.1-270.4h60.8l-57.1,270.4h-60.8Z"/>
      <path class="cls-20" d="m1420.6,852.8c-39.5,0-72.8-5.6-100.1-16.8l14.2-48c31.2,10.9,61.3,16.4,90.3,16.4,21.5,0,37.7-2.5,48.7-7.5s16.5-12.3,16.5-22c0-4.8-1.5-8.9-4.6-12.3-3-3.4-8.2-6.8-15.3-10.4l-66.3-33.7c-14.3-7.4-24.3-16.5-30-27.4s-8.6-21.6-8.6-32c0-27.7,9.7-48.7,29-62.9,19.3-14.3,47.4-21.4,84.1-21.4,43.3,0,77.5,10.1,102.6,30.3l-33.1,42.3c-11.4-7.9-23.3-13.9-35.5-18-12.3-4.1-24.5-6.2-36.7-6.2-15.4,0-27.1,2.3-35.1,6.9s-12,11.3-12,20.2c0,5.7,2,11,5.9,16,4,5,9.7,9.4,17.1,13.3l61.2,31.2c15.4,7.7,26,16.5,31.8,26.2s8.7,20.3,8.7,31.7c0,27.7-11.2,48.6-33.7,62.8-22.5,14.1-55.6,21.3-99.1,21.3Z"/>
      <path class="cls-20" d="m1632.4,625l9.8-46.5h236.8l-9.8,46.5h-236.8Zm40.2,223.9l57.1-270.4h60.8l-57.1,270.4h-60.8Z"/>
      <path class="cls-20" d="m1873.3,848.9l57.1-270.4h60.8l-57.2,270.4h-60.7Zm0,0l10.1-46.5h222.3l-9.8,46.5h-222.6Zm23.7-112.1l9.8-46.5h181.4l-9.8,46.5h-181.4Zm23.6-111.8l9.8-46.5h222.6l-9.8,46.5h-222.6Z"/>
      <path class="cls-20" d="m2140.2,848.9l57.1-270.4h59.2l-57.1,270.4h-59.2Zm111.2-94.4l2.7-128h-15.5l10.1-48h33.6l-2.5,122.8h1.8l-8.7,52.9-21.5.3Zm9.2-.2l20.1-52.9h2.7l51.2-122.8h35.9l-10.1,48h-15.5l-54.4,127.8h-29.9v-.1Zm45,94.6l57.1-270.4h58l-57.1,270.4h-58Z"/>
      <path class="cls-20" d="m2546,852.8c-37.9,0-67.5-9-88.8-26.9s-31.9-42.8-31.9-74.6c0-25.4,4.3-48.8,12.9-70.3,8.6-21.5,21.1-40.1,37.4-56.1,16.3-15.9,36-28.3,59-37,23-8.8,48.8-13.1,77.5-13.1,22.9,0,41.2,2.5,55.2,7.5,13.9,5,25.3,11.5,33.9,19.3l-35.4,42.5c-7.2-6-15.7-11-25.6-15.1-9.9-4.1-21.6-6.2-35-6.2-16.5,0-31.8,3-45.9,9-14.2,6-26.5,14.6-37.1,25.6s-18.8,24.1-24.7,39.1-8.8,31.6-8.8,49.8c0,39,22.6,58.5,67.9,58.5,16.6,0,31.6-1.2,44.9-3.5,13.3-2.3,24.3-4.3,32.8-6l13.7,46.1c-7.5,1.7-20.5,4-39.2,7-18.7,2.9-39.6,4.4-62.8,4.4Zm6.9-97.5l9.8-46.3h112l-9.8,46.3h-112Zm34.2,86l28.1-132.3h60.8l-28.1,132.3h-60.8Z"/>
      <path class="cls-20" d="m2669.6,848.9l150.6-270.6h75.2c3.3,18,6.5,36.1,9.4,54.1s5.6,36.1,8.2,54.1c2.6,18,4.9,36.1,7.1,54.2,2.1,18.1,4.1,36.2,5.9,54.2,1.8,18,3.5,36.1,5,54.1h-61.7c-.8-14.1-1.7-28.2-2.7-42.4-1.1-14.2-2.2-28.3-3.5-42.4-1.3-14.1-2.7-28.2-4.1-42.4-1.4-14.2-2.9-28.3-4.5-42.5-1.5-14.2-3.1-28.3-4.8-42.4h-7.3l-111.1,211.9h-61.7v.1Zm59-51.2l7.8-46.5h164.5l-7.8,46.5h-164.5Z"/>
      <path class="cls-20" d="m3081.8,853.3c-45.3,0-83.6-6.4-114.9-19.2l16.3-55.1c35.9,12.5,70.4,18.8,103.7,18.8,24.7,0,43.3-2.9,55.9-8.6,12.6-5.8,18.9-14.2,18.9-25.3,0-5.5-1.8-10.2-5.2-14.1-3.5-3.9-9.4-7.8-17.6-11.9l-76.1-38.7c-16.4-8.5-27.9-19-34.5-31.5s-9.8-24.8-9.8-36.7c0-31.8,11.1-55.9,33.3-72.3,22.2-16.4,54.4-24.6,96.6-24.6,49.7,0,89,11.6,117.8,34.8l-38.1,48.5c-13.1-9-26.7-15.9-40.8-20.7-14.1-4.7-28.1-7.1-42.1-7.1-17.7,0-31.1,2.6-40.3,7.9-9.2,5.2-13.8,13-13.8,23.2,0,6.6,2.3,12.7,6.8,18.4s11.1,10.8,19.7,15.3l70.3,35.9c17.7,8.9,29.8,18.9,36.5,30.1,6.6,11.2,10,23.3,10,36.4,0,31.8-12.9,55.8-38.7,72.2-26,16.2-63.9,24.3-113.9,24.3Z"/>
    </g>
  </g>
</svg>