<?xml version="1.0" encoding="UTF-8"?>
<svg width="5857" height="2709" xmlns="http://www.w3.org/2000/svg" viewBox="0 0 5857 2709">
  <defs>
    <style>
      .cls-1 {
        fill: #848484;
      }

      .cls-2 {
        fill: #ff8327;
      }

      .cls-3 {
        fill: #565656;
      }

      .cls-4 {
        fill: #f3ffff;
      }

      .cls-5 {
        fill: #969696;
      }

      .cls-5, .cls-6, .cls-7, .cls-8, .cls-9, .cls-10, .cls-11, .cls-12, .cls-13 {
        fill-rule: evenodd;
      }

      .cls-6 {
        fill: #9595aa;
      }

      .cls-7 {
        fill: #757575;
      }

      .cls-8 {
        fill: #e3faff;
      }

      .cls-9 {
        fill: #494949;
      }

      .cls-10 {
        fill: #5e5e5e;
      }

      .cls-14 {
        fill: #eaeaea;
      }

      .cls-15 {
        fill: #424242;
      }

      .cls-11 {
        fill: #7c7c8e;
      }

      .cls-12 {
        fill: #727282;
      }

      .cls-16 {
        fill: #2c2c2c;
      }

      .cls-13 {
        fill: #c0e2ed;
      }

      .cls-17 {
        fill: #464748;
      }

      .cls-18 {
        fill: #f2f2f2;
      }

      .cls-19 {
        fill: red;
      }

      .cls-20 {
        fill: #1b2157;
      }
    </style>
  </defs>
  <g id="Layer_1" data-name="Layer 1">
    <path class="cls-16" d="m1653,1432.3h364.3s0-203.7,0-203.7h-364.3s0,203.7,0,203.7Z"/>
    <path class="cls-1" d="m3513.3,269.7h696.1s0-223.8,0-223.8h-696.1s0,223.8,0,223.8Z"/>
    <path class="cls-18" d="m5159.1,162.2c184.7.5,361.8,74.1,492.4,204.7,130.6,130.7,204.2,307.7,204.7,492.4v153.6c-.5,184.7-74.1,361.7-204.7,492.4-130.7,130.6-307.7,204.2-492.4,204.7h-2595.3c-184.8-.5-361.8-74.1-492.4-204.7-130.6-130.7-204.2-307.7-204.7-492.4v-153.6c.5-184.8,74.1-361.8,204.7-492.4,130.7-130.6,307.7-204.2,492.4-204.7h2595.3Z"/>
    <path class="cls-14" d="m5159.1,162.2c184.7.5,361.8,74.1,492.4,204.7,130.6,130.7,204.2,307.7,204.7,492.4v153.6c-.5,184.7-74.1,361.7-204.7,492.4-130.7,130.6-307.7,204.2-492.4,204.7h-1297.7V162.2h1297.7Z"/>
    <path class="cls-6" d="m3388.4,2171.5v-1.3s-935.2-.8-935.2-.8h-417.3s-361.6-1-361.6-1v-1.8s0-4.6,0-4.6l-.9-6.7v-1.3s-1-6-1-6v-.8s-1.1-6.2-1.1-6.2v-1.4s-1.1-5.7-1.1-5.7v-1.9s-1.1-5.7-1.1-5.7v-1.4s-1.3-6.4-1.3-6.4l-1.4-7v-1.3s-1.3-5.9-1.3-5.9l-1.4-6v-1.1s-1.6-6.4-1.6-6.4v-.8s-1.8-6.2-1.8-6.2v-1.1s-1.6-5.7-1.6-5.7v-1.1s-2.1-6.7-2.1-6.7c-.7-2.3-2.1-4.5-2.1-6.7l-2.2-7-2.4-7-2.4-6.7-2.4-6.5-2.4-6.4v-5.1s-5.2-13-5.2-13c-.8-2.1-1.7-4.3-2.7-6.4-.8-2.2-1.8-4.2-2.7-6.3l-2.9-6.4h21.6s183.6,0,183.6,0h181.7s0-312.3,0-312.3c0-12,2.4-24,7-35.1,4.6-11.2,11.4-21.3,19.9-29.8,8.5-8.6,18.7-15.3,29.8-19.9s23.1-6.9,35.1-6.9h3131.2c12,0,24,2.3,35.1,6.9s21.3,11.4,29.8,19.9c8.5,8.6,15.3,18.7,19.9,29.8s7,23.1,7,35.1v307.7s0,7.9,0,7.9c22.5,4.2,42.6,16.7,56.4,35,13.7,18.3,20.2,41.1,18,63.9-2.1,22.8-12.7,43.9-29.7,59.3-17,15.4-39.1,23.9-62,23.8h-74.7c-572.7,0-1181.8.5-1850.5-5.5Z"/>
    <path class="cls-12" d="m2009.42,2169.67v-.69c20.72-124.47,85.38-237.47,182.32-319.03,96.94-81.56,219.88-126.25,347.01-126.15,127.03.1,249.97,44.98,346.81,126.64,96.84,81.66,161.3,194.76,181.83,319.22h-611.93s-409.68,0-409.68,0h-36.37s0,0,0,0Z"/>
    <path class="cls-12" d="m3110.04,2170.81v-.2c21.12-127.44,86.18-242.98,183.46-326.12,97.38-83.14,220.58-128.46,347.68-127.74,127.1.72,249.83,47.33,346.24,131.56,96.4,84.23,160.13,200.49,179.82,328.1l-776.13-3.13v-1.31s-280.97-1.13-280.97-1.13h-.1Z"/>
    <path class="cls-10" d="m1744.7,2169.03V513.54c-.1-18.25-3.7-36.41-10.8-53.26-7.1-16.86-17.4-32.22-30.4-45.08-12.9-13.07-28.3-23.34-45.3-30.32-17-6.98-35.1-10.57-53.5-10.57h-496c-220.9.5-432.6,88.27-588.8,244.06s-244.2,366.94-244.7,587.27v1.3c-72.6,42.29-137.6,123.68-137.6,282.17v548.97h-49.4c-23.7.9-46.2,10.87-62.6,27.93C9.2,2083.05,0,2105.79,0,2129.43c-.1,13.66,3,27.23,9,39.5l1735.7.1Z"/>
    <path class="cls-5" d="m1270.3,1850.37c-97.1-81.44-220.4-126.17-347.7-126.17s-250.5,44.73-347.7,126.17c-97.2,81.44-162,194.36-182.9,318.65h1061.2c-20.9-124.29-85.7-237.21-182.9-318.65Z"/>
    <path class="cls-13" d="m522.3,1230.7c.8-149,59.9-474.3,166.3-580.6,52.5-52.7,114.9-94.5,183.6-123.1,68.7-28.5,142.4-43.3,216.8-43.3h365.4c34.9,1.5,67.9,16,92.6,40.7,24.7,24.7,39.2,57.7,40.7,92.6v659.9H521.4s.9-46.2.9-46.2Z"/>
    <path class="cls-6" d="m1901.42,2169.03v-175.83s-1762.91,0-1762.91,0v47.85h-49.73c-23.86.88-46.51,10.6-63.02,27.23C9.26,2084.91,0,2107.08,0,2130.13c-.1,13.32,3.02,26.55,9.06,38.51l1892.36.39Z"/>
    <path class="cls-11" d="m457,1992.9c-32.4,54.46-54.4,114.07-65,176.13h1061.2c-10.6-62.05-32.6-121.77-65-176.13H457Z"/>
    <path class="cls-8" d="m567.7,1231.3h973.4s0-614.2,0-614.2c-1.4-22.7-11.1-44-27.2-60.1-16-16.1-37.4-25.8-60.1-27.3h-365.4c-68.4,0-136.1,13.5-199.2,39.8-63.1,26.3-120.5,64.7-168.7,113.2-93.7,93.7-152,406.3-152.8,548.5v.1Z"/>
    <path class="cls-12" d="m4209.32,2170.81v-.2c21.12-127.44,86.18-242.98,183.46-326.12,97.38-83.14,220.58-128.46,347.68-127.74,127.1.72,249.83,47.33,346.24,131.56,96.4,84.23,160.13,200.49,179.82,328.1l-776.13-3.13v-1.31s-280.97-1.13-280.97-1.13h-.1Z"/>
    <path class="cls-7" d="m4299.8,2177.4c19.9-101.6,74.4-193.2,154.3-259,79.9-65.8,180.2-101.8,283.7-101.8,103.5,0,203.8,36,283.7,101.8,79.9,65.8,134.5,157.4,154.3,259h-876Z"/>
    <path class="cls-17" d="m5150,2091.7c22.4,54.2,33.9,112.2,33.8,170.8,0,103.3-35.8,203.3-101.3,283.1-65.5,79.8-156.6,134.4-257.9,154.5-101.2,20.1-206.3,4.5-297.4-44.2-91.1-48.7-162.4-127.4-201.9-222.8-39.5-95.4-44.7-201.5-14.7-300.3s93.3-184.2,179.2-241.5c85.9-57.4,188.9-83.2,291.7-73,102.8,10.2,198.8,55.7,271.8,128.7,41.5,41.4,74.4,90.6,96.7,144.7Z"/>
    <path class="cls-4" d="m5029.3,2141.3c15.9,38.2,24.1,79.1,24.1,120.4.2,73-25,143.9-71.2,200.4-46.2,56.6-110.6,95.3-182.2,109.7-71.6,14.3-145.9,3.4-210.4-30.9-64.4-34.4-115-90-143-157.4s-31.8-142.5-10.7-212.4c21.1-69.9,65.8-130.3,126.5-170.9,60.6-40.6,133.5-58.9,206.2-51.8,72.7,7.2,140.7,39.3,192.3,90.9,29.2,29.2,52.4,63.9,68.4,102Z"/>
    <path class="cls-15" d="m4857.6,2142.7c15.7,15.7,28.2,34.4,36.8,55.1,8.5,20.5,12.8,42.6,12.8,64.8,0,39.2-13.6,77.1-38.5,107.4-24.9,30.2-59.5,51-97.9,58.6-38.4,7.6-78.3,1.7-112.8-16.8-34.5-18.5-61.6-48.4-76.6-84.6-15-36.2-17-76.5-5.6-114,11.4-37.5,35.4-69.8,68-91.6s71.7-31.6,110.7-27.7c39,3.8,75.4,21.1,103.1,48.8h0Z"/>
    <path class="cls-7" d="m484.6,2177.4c19.8-101.6,74.4-193.2,154.3-259,79.9-65.8,180.2-101.8,283.7-101.8,103.5,0,203.8,36,283.7,101.8s134.5,157.4,154.3,259H484.6Z"/>
    <path class="cls-15" d="m1334.9,2091.7c22.5,54.1,34.1,112.2,34,170.8.1,103.2-35.6,203.3-101.1,283.1-65.4,79.8-156.6,134.5-257.8,154.7-101.2,20.2-206.3,4.7-297.4-43.9-91.1-48.7-162.5-127.3-202.1-222.7-39.5-95.4-44.8-201.5-14.9-300.3,29.9-98.8,93.2-184.2,179-241.6,85.8-57.4,188.8-83.3,291.6-73.2s198.9,55.5,271.9,128.4c41.5,41.4,74.5,90.6,96.8,144.7Z"/>
    <path class="cls-4" d="m1214,2141.3c15.9,38.2,24.1,79.1,24.1,120.4.2,73-25,143.9-71.2,200.4-46.2,56.6-110.6,95.3-182.2,109.7-71.6,14.3-145.9,3.4-210.4-30.9-64.4-34.4-115-90-143-157.4-28.1-67.4-31.8-142.5-10.7-212.4,21.1-69.9,65.8-130.3,126.5-170.9,60.6-40.6,133.5-59,206.2-51.8,72.7,7.2,140.7,39.3,192.3,90.9,29.3,29.2,52.5,63.9,68.4,102Z"/>
    <path class="cls-17" d="m1042.4,2142.7c15.7,15.7,28.2,34.4,36.9,55.1,8.5,20.5,12.8,42.6,12.8,64.8,0,39.2-13.6,77.1-38.5,107.4-24.9,30.2-59.5,51-97.9,58.6-38.5,7.6-78.4,1.7-112.9-16.8-34.5-18.5-61.6-48.4-76.6-84.6-15-36.2-17-76.5-5.6-114,11.4-37.5,35.4-69.8,68-91.6,32.6-21.8,71.7-31.6,110.7-27.7,39,3.8,75.4,21.1,103.1,48.8h0Z"/>
    <path class="cls-9" d="m1504.8,1376.4c8.9,0,17.4,3.6,23.6,9.9,6.3,6.2,9.8,14.7,9.8,23.6h0c0,8.9-3.6,17.4-9.8,23.7-6.2,6.3-14.7,9.9-23.6,9.9h-168.4c-8.9-.1-17.4-3.6-23.6-9.9-6.3-6.3-9.8-14.8-9.8-23.7h0c0-8.8,3.5-17.3,9.8-23.6,6.2-6.3,14.7-9.9,23.6-9.9h168.4Z"/>
    <path class="cls-3" d="m3434.2,0c-12.2,0-23.9,4.8-32.5,13.4-8.6,8.6-13.4,20.3-13.4,32.5s4.8,23.9,13.4,32.5,20.3,13.4,32.5,13.4h853.7c12.2,0,23.9-4.8,32.5-13.4,8.6-8.6,13.4-20.3,13.4-32.5s-4.8-23.9-13.4-32.5C4311.8,4.8,4300.1,0,4287.9,0h-853.7Z"/>
    <path class="cls-7" d="m3199.1,2177.4c19.8-101.6,74.3-193.2,154.3-259,79.9-65.8,180.2-101.8,283.7-101.8,103.5,0,203.8,36,283.7,101.8s134.5,157.4,154.3,259h-876Z"/>
    <path class="cls-15" d="m3436.8,2661.1c-52.4-26.3-99-62.7-137.3-107.1-67.5-78.1-105.9-177.3-108.5-280.5-2.6-103.3,30.6-204.3,94.1-285.7,63.5-81.4,153.2-138.4,254-161.1,100.8-22.7,206.3-9.8,298.6,36.6,92.3,46.4,165.7,123.3,207.6,217.7,41.9,94.4,49.8,200.4,22.3,300-27.4,99.6-88.6,186.6-173,246.1-84.4,59.5-186.8,87.9-289.8,80.4-58.5-4.2-115.5-19.9-168-46.4Z"/>
    <path class="cls-4" d="m3860.1,2039.3c29.3,29.2,52.5,63.9,68.4,102,15.9,38.2,24.1,79.1,24.1,120.4.2,73-25,143.9-71.2,200.4-46.2,56.6-110.6,95.3-182.2,109.7-71.6,14.3-146,3.4-210.4-30.9-64.4-34.4-115-90-143-157.4-28.1-67.4-31.8-142.5-10.7-212.4,21.1-69.9,65.8-130.3,126.5-170.9,60.6-40.6,133.5-58.9,206.2-51.8,72.7,7.2,140.6,39.3,192.3,90.9h0Z"/>
    <path class="cls-17" d="m3756.8,2142.7c15.8,15.7,28.3,34.4,36.9,55.1,8.5,20.5,12.9,42.6,12.8,64.8,0,39.2-13.6,77.1-38.5,107.4-24.9,30.2-59.5,51-97.9,58.6-38.5,7.6-78.3,1.7-112.9-16.8-34.5-18.5-61.6-48.4-76.6-84.6-15-36.2-17-76.5-5.6-114,11.4-37.5,35.4-69.8,68-91.6,32.6-21.8,71.7-31.6,110.7-27.7,39,3.8,75.4,21.1,103.1,48.8h0Z"/>
    <path class="cls-7" d="m2098.3,2177.4c19.8-101.6,74.4-193.2,154.3-259,79.9-65.8,180.2-101.8,283.7-101.8,103.5,0,203.8,36,283.7,101.8,79.9,65.8,134.5,157.4,154.3,259h-876Z"/>
    <path class="cls-15" d="m2851.8,1947c41.5,41.4,74.4,90.6,96.9,144.9,22.5,54.2,34,112.2,33.9,170.8,0,103.2-35.8,203.2-101.2,282.9-65.5,79.7-156.5,134.3-257.7,154.4-101.2,20.1-206.2,4.5-297.2-44.1-91-48.6-162.3-127.3-201.8-222.6s-44.7-201.4-14.8-300.1c29.9-98.8,93.1-184.1,178.9-241.4,85.8-57.3,188.7-83.2,291.4-73.1,102.6,10,198.6,55.4,271.6,128.3h0Z"/>
    <path class="cls-4" d="m2759.5,2039.3c59,59,92.2,139,92.3,222.3.2,73.1-25,144-71.3,200.6-46.2,56.6-110.7,95.4-182.4,109.8-71.7,14.3-146.1,3.4-210.6-31-64.5-34.4-115.1-90.1-143.1-157.6-28.1-67.5-31.8-142.6-10.6-212.6,21.2-69.9,66-130.4,126.8-171,60.7-40.6,133.7-58.9,206.5-51.7,72.7,7.2,140.7,39.5,192.4,91.2h0Z"/>
    <path class="cls-17" d="m2655.8,2142.7c15.7,15.7,28.2,34.4,36.9,55.1,8.5,20.5,12.8,42.6,12.8,64.8,0,39.2-13.6,77.1-38.5,107.4-24.9,30.2-59.5,51-97.9,58.6-38.5,7.6-78.4,1.7-112.9-16.8-34.5-18.5-61.6-48.4-76.6-84.6-15-36.2-17-76.5-5.6-114,11.4-37.5,35.4-69.8,68-91.6,32.6-21.8,71.7-31.6,110.7-27.7,38.9,3.8,75.4,21.1,103.1,48.8h0Z"/>
    <path class="cls-2" d="m2086.7,1123.2h3595.5s0-107.6,0-107.6h-3595.5s0,107.6,0,107.6Z"/>
  </g>
  <g id="Layer_2" data-name="Layer 2">
    <g>
      <path class="cls-19" d="m3207.55,418.9c-4.1-11-11.2-20.9-20.8-29.3l-7.9-6.9c-.3-.2-.6-.4-1-.5s-.8-.1-1.2-.1c-.4.1-.8.2-1.2.4-.3.2-.6.5-.8.8l-5.7,8.9c-3.6,5.6-9.3,11.2-17,16.7-.5.3-1,.4-1.4.4-.3,0-.9-.1-1.3-.4s-.5-.8-.4-1.2c3.9-14.7,1.2-31.5-7.8-50.1-7.5-15.5-19.5-27.8-35.7-36.8l-11.8-6.5c-1.5-.9-3.9.1-4.1,1.6l-1.5,11.8c-1,8-3.5,15.1-7.4,20.8-4.8,7-10.9,13.5-18.3,19.2-5.2,4-10.8,7.5-16.9,10.6-14.6,7.3-27.2,17-36.8,28.2-9.6,11.4-15.8,24.1-18.2,37.2-2.1,11.5-1.2,22.8,2.6,33.6,3.7,10.4,10,20,18.7,28.2,8.7,8.3,19.4,15,31.7,19.8,12.8,5.1,26.7,8,41.6,8.6,14.9.7,29.7-.9,44-4.7,13.9-3.7,26.9-9.3,38.4-16.7,11.6-7.4,21.2-16.1,28.6-26,7.7-10.2,12.7-21.4,14.7-32.8,2.1-11.9,1.1-23.6-3.1-34.8Z"/>
      <g>
        <path class="cls-20" d="m2732.45,853.3c-45.3,0-83.6-6.4-114.9-19.2l16.3-55.1c35.9,12.5,70.4,18.8,103.7,18.8,24.7,0,43.3-2.9,55.9-8.6,12.6-5.8,18.9-14.2,18.9-25.3,0-5.5-1.8-10.2-5.2-14.1-3.5-3.9-9.4-7.8-17.6-11.9l-76.1-38.7c-16.4-8.5-27.9-19-34.5-31.5s-9.8-24.8-9.8-36.7c0-31.8,11.1-55.9,33.3-72.3,22.2-16.4,54.4-24.6,96.6-24.6,49.7,0,89,11.6,117.8,34.8l-38.1,48.5c-13.1-9-26.7-15.9-40.8-20.7-14.1-4.7-28.1-7.1-42.1-7.1-17.7,0-31.1,2.6-40.3,7.9-9.2,5.2-13.8,13-13.8,23.2,0,6.6,2.3,12.7,6.8,18.4s11.1,10.8,19.7,15.3l70.3,35.9c17.7,8.9,29.8,18.9,36.5,30.1,6.6,11.2,10,23.3,10,36.4,0,31.8-12.9,55.8-38.7,72.2-25.9,16.2-63.8,24.3-113.9,24.3Z"/>
        <path class="cls-20" d="m2937.55,848.9l9.8-46.5h205.2l-9.8,46.5h-205.2Zm47.3-223.9l9.8-46.5h205.2l-9.8,46.5h-205.2Zm24.7,223.9l57.1-270.4h60.8l-57.1,270.4h-60.8Z"/>
        <path class="cls-20" d="m3305.75,852.8c-39.5,0-72.8-5.6-100.1-16.8l14.2-48c31.2,10.9,61.3,16.4,90.3,16.4,21.5,0,37.7-2.5,48.7-7.5s16.5-12.3,16.5-22c0-4.8-1.5-8.9-4.6-12.3-3-3.4-8.2-6.8-15.3-10.4l-66.3-33.7c-14.3-7.4-24.3-16.5-30-27.4s-8.6-21.6-8.6-32c0-27.7,9.7-48.7,29-62.9,19.3-14.3,47.4-21.4,84.1-21.4,43.3,0,77.5,10.1,102.6,30.3l-33.1,42.3c-11.4-7.9-23.3-13.9-35.5-18-12.3-4.1-24.5-6.2-36.7-6.2-15.4,0-27.1,2.3-35.1,6.9s-12,11.3-12,20.2c0,5.7,2,11,5.9,16,4,5,9.7,9.4,17.1,13.3l61.2,31.2c15.4,7.7,26,16.5,31.8,26.2s8.7,20.3,8.7,31.7c0,27.7-11.2,48.6-33.7,62.8-22.5,14.1-55.6,21.3-99.1,21.3Z"/>
        <path class="cls-20" d="m3517.55,625l9.8-46.5h236.8l-9.8,46.5h-236.8Zm40.2,223.9l57.1-270.4h60.8l-57.1,270.4h-60.8Z"/>
        <path class="cls-20" d="m3758.45,848.9l57.1-270.4h60.8l-57.2,270.4h-60.7Zm0,0l10.1-46.5h222.3l-9.8,46.5h-222.6Zm23.7-112.1l9.8-46.5h181.4l-9.8,46.5h-181.4Zm23.6-111.8l9.8-46.5h222.6l-9.8,46.5h-222.6Z"/>
        <path class="cls-20" d="m4025.35,848.9l57.1-270.4h59.2l-57.1,270.4h-59.2Zm111.2-94.4l2.7-128h-15.5l10.1-48h33.6l-2.5,122.8h1.8l-8.7,52.9-21.5.3Zm9.2-.2l20.1-52.9h2.7l51.2-122.8h35.9l-10.1,48h-15.5l-54.4,127.8h-29.9v-.1Zm45,94.6l57.1-270.4h58l-57.1,270.4h-58Z"/>
        <path class="cls-20" d="m4431.15,852.8c-37.9,0-67.5-9-88.8-26.9s-31.9-42.8-31.9-74.6c0-25.4,4.3-48.8,12.9-70.3,8.6-21.5,21.1-40.1,37.4-56.1,16.3-15.9,36-28.3,59-37,23-8.8,48.8-13.1,77.5-13.1,22.9,0,41.2,2.5,55.2,7.5,13.9,5,25.3,11.5,33.9,19.3l-35.4,42.5c-7.2-6-15.7-11-25.6-15.1-9.9-4.1-21.6-6.2-35-6.2-16.5,0-31.8,3-45.9,9-14.2,6-26.5,14.6-37.1,25.6s-18.8,24.1-24.7,39.1-8.8,31.6-8.8,49.8c0,39,22.6,58.5,67.9,58.5,16.6,0,31.6-1.2,44.9-3.5,13.3-2.3,24.3-4.3,32.8-6l13.7,46.1c-7.5,1.7-20.5,4-39.2,7-18.7,2.9-39.6,4.4-62.8,4.4Zm6.9-97.5l9.8-46.3h112l-9.8,46.3h-112Zm34.2,86l28.1-132.3h60.8l-28.1,132.3h-60.8Z"/>
        <path class="cls-20" d="m4554.75,848.9l150.6-270.6h75.2c3.3,18,6.5,36.1,9.4,54.1s5.6,36.1,8.2,54.1c2.6,18,4.9,36.1,7.1,54.2,2.1,18.1,4.1,36.2,5.9,54.2,1.8,18,3.5,36.1,5,54.1h-61.7c-.8-14.1-1.7-28.2-2.7-42.4-1.1-14.2-2.2-28.3-3.5-42.4-1.3-14.1-2.7-28.2-4.1-42.4-1.4-14.2-2.9-28.3-4.5-42.5-1.5-14.2-3.1-28.3-4.8-42.4h-7.3l-111.1,211.9h-61.7v.1Zm59-51.2l7.8-46.5h164.5l-7.8,46.5h-164.5Z"/>
        <path class="cls-20" d="m4966.95,853.3c-45.3,0-83.6-6.4-114.9-19.2l16.3-55.1c35.9,12.5,70.4,18.8,103.7,18.8,24.7,0,43.3-2.9,55.9-8.6,12.6-5.8,18.9-14.2,18.9-25.3,0-5.5-1.8-10.2-5.2-14.1-3.5-3.9-9.4-7.8-17.6-11.9l-76.1-38.7c-16.4-8.5-27.9-19-34.5-31.5s-9.8-24.8-9.8-36.7c0-31.8,11.1-55.9,33.3-72.3,22.2-16.4,54.4-24.6,96.6-24.6,49.7,0,89,11.6,117.8,34.8l-38.1,48.5c-13.1-9-26.7-15.9-40.8-20.7-14.1-4.7-28.1-7.1-42.1-7.1-17.7,0-31.1,2.6-40.3,7.9-9.2,5.2-13.8,13-13.8,23.2,0,6.6,2.3,12.7,6.8,18.4s11.1,10.8,19.7,15.3l70.3,35.9c17.7,8.9,29.8,18.9,36.5,30.1,6.6,11.2,10,23.3,10,36.4,0,31.8-12.9,55.8-38.7,72.2-26,16.2-63.9,24.3-113.9,24.3Z"/>
      </g>
    </g>
  </g>
</svg>