<?xml version="1.0" encoding="UTF-8"?>
<svg id="montains_front" data-name="montains front" xmlns="http://www.w3.org/2000/svg" viewBox="0 0 4023 1080">
  <defs>
    <style>
      .cls-1 {
        fill: #acf;
      }

      .cls-2 {
        fill: #7391b1;
      }

      .cls-3 {
        fill: #9ab5e6;
      }

      .cls-4 {
        fill: #5b6d8d;
      }

      .cls-5 {
        fill: #8aa5ca;
      }

      .cls-6 {
        fill: #aacbff;
      }

      .cls-7 {
        fill: #aed0ff;
      }

      .cls-8 {
        fill: #7187af;
      }

      .cls-9 {
        fill: #778fbe;
      }

      .cls-10 {
        fill: #7f98cb;
      }

      .cls-11 {
        fill: #546682;
      }

      .cls-12 {
        fill: #7890c2;
      }

      .cls-13 {
        fill: #7c99bd;
      }

      .cls-14 {
        fill: #6e82a4;
      }

      .cls-15 {
        fill: #687ca1;
      }

      .cls-16 {
        fill: #5d6e95;
      }

      .cls-17 {
        fill: #6f85b4;
      }

      .cls-18 {
        fill: #4e5c74;
      }
    </style>
  </defs>
  <g>
    <polygon class="cls-8" points="2 704.58 145.6 490.73 214.93 520.12 366.55 358.51 382.59 369.93 439.22 287.82 550.02 474.41 585.72 459.72 679.22 587.04 722.75 573.24 814 704.58 2 704.58"/>
    <path class="cls-4" d="m585.72,459.72l8.07,50.2h-13.85l13.85,47.01-3.26,18.97,61.9,128.68h24.43l-22.81-71.78,18.73,6.6s-22.81-68.45-20.36-65.98,26.79,13.62,26.79,13.62l-93.5-127.33Z"/>
    <polygon class="cls-4" points="722.75 573.24 712.45 606.41 694.79 603.11 715.97 704.58 814 704.58 722.75 573.24"/>
    <path class="cls-4" d="m550.02,474.41l29.93,75.92h-20.36l62.72,154.25h-75.75s-35.84-76.72-33.39-75.07c2.44,1.65,20.36,9.41,20.36,9.41l-24.43-56.76,19.41,7.35-30-58.13,15.47,3.3-19.55-32.16-21.18-76.41s17.92,11.25,15.48,5.48c-2.44-5.77-8.15-37.94-8.15-37.94l31.54,16.96,37.9,63.82Z"/>
    <polygon class="cls-4" points="404.87 508.27 426.82 587.44 439.03 623.73 404.87 590.74 428.45 704.58 520.49 704.58 443.92 443.94 404.87 508.27"/>
    <path class="cls-10" d="m280.47,450.26l-17.36,25.84,26.06-12.92-8.7,75.6s50.07-52.78,49.34-50.31c-.73,2.47,0,7.73,0,7.73l14.75-9.38,15.48,32.16,39.91-46.19,39.09,91.55s10.6-98.14,12.23-95.67c1.63,2.47,15.47,19.79,15.47,19.79l6.49-13.2,40.75,32.03-9.77-69.14,19.55,23.92,4.75-23.92-89.28-150.34-56.63,82.11-16.04-11.43-86.08,91.75Z"/>
    <polygon class="cls-4" points="145.6 490.73 185.73 549.1 166.25 551.98 212.61 635.28 203.65 650.95 237.86 704.58 298.94 704.58 231.34 588.27 249.26 597.65 214.93 520.12 145.6 490.73"/>
    <path class="cls-12" d="m492.88,490.73c-2.2-1.73-19.64-59.99-19.64-59.99l15.48.82-49.5-143.75,89.28,150.34-4.75,23.92-19.55-23.92,9.77,69.14-21.09-16.57Z"/>
    <polygon class="cls-6" points="263.11 476.1 289.17 463.18 290.8 459.72 366.55 358.51 280.47 450.26 263.11 476.1"/>
    <path class="cls-6" d="m280.47,538.78c.67-5.86,21.73-66.8,21.73-66.8,0,0,55.39-82.47,54.57-78.35-.81,4.12-10.59,58.56-10.59,58.56l-16.37,36.29-49.34,50.31Z"/>
    <path class="cls-6" d="m399.94,472.8l-11.4-75.24-5.95-27.63,56.63-82.11-21.36,70.68s16.29,9.56,15.48,12.03c-.81,2.47-18.73,125.66-18.73,125.66l-14.66-23.4Z"/>
    <path class="cls-13" d="m145.6,490.73l-27.48,67.84s15.48-.82,14.66,1.65c-.81,2.47-60.27,144.35-60.27,144.35H2l143.6-213.85Z"/>
  </g>
  <g>
    <polygon class="cls-15" points="3012.46 707.29 3188.52 441.6 3273.52 478.11 3459.41 277.32 3479.08 291.52 3548.5 189.5 3684.35 421.32 3728.12 403.07 3842.76 561.26 3896.13 544.12 4008 707.29 3012.46 707.29"/>
    <path class="cls-11" d="m3728.12,403.07l9.9,62.37h-16.98l16.98,58.41-3.99,23.57,75.89,159.88h29.96l-27.96-89.18,22.97,8.2s-27.96-85.05-24.97-81.97,32.84,16.92,32.84,16.92l-114.64-158.2Z"/>
    <polygon class="cls-11" points="3896.13 544.12 3883.49 585.33 3861.84 581.23 3887.81 707.29 4008 707.29 3896.13 544.12"/>
    <path class="cls-11" d="m3684.35,421.32l36.69,94.33h-24.97l76.89,191.64h-92.87s-43.94-95.32-40.94-93.27c3,2.05,24.97,11.69,24.97,11.69l-29.96-70.52,23.8,9.13-36.78-72.23,18.97,4.1-23.97-39.96-25.96-94.93s21.97,13.98,18.97,6.81c-3-7.17-9.99-47.14-9.99-47.14l38.67,21.07,46.46,79.29Z"/>
    <polygon class="cls-11" points="3506.39 463.39 3533.3 561.76 3548.27 606.84 3506.39 565.86 3535.3 707.29 3648.14 707.29 3554.27 383.46 3506.39 463.39"/>
    <path class="cls-9" d="m3353.87,391.32l-21.29,32.11,31.96-16.06-10.67,93.93s61.39-65.58,60.49-62.51c-.89,3.07,0,9.6,0,9.6l18.08-11.65,18.97,39.96,48.93-57.38,47.92,113.74s13-121.94,14.99-118.86c2,3.07,18.97,24.59,18.97,24.59l7.95-16.39,49.96,39.79-11.98-85.9,23.97,29.72,5.82-29.72-109.46-186.79-69.43,102.02-19.66-14.2-105.54,114Z"/>
    <polygon class="cls-11" points="3188.52 441.6 3237.72 514.13 3213.83 517.7 3270.67 621.19 3259.69 640.66 3301.63 707.29 3376.52 707.29 3293.64 562.78 3315.61 574.45 3273.52 478.11 3188.52 441.6"/>
    <path class="cls-17" d="m3614.3,441.6c-2.7-2.15-24.08-74.53-24.08-74.53l18.97,1.02-60.69-178.59,109.46,186.79-5.82,29.72-23.97-29.72,11.98,85.9-25.85-20.59Z"/>
    <polygon class="cls-1" points="3332.58 423.43 3364.54 407.37 3366.54 403.07 3459.41 277.32 3353.87 391.32 3332.58 423.43"/>
    <path class="cls-1" d="m3353.87,501.3c.83-7.27,26.65-83,26.65-83,0,0,67.9-102.47,66.91-97.34-1,5.12-12.98,72.75-12.98,72.75l-20.08,45.09-60.49,62.51Z"/>
    <path class="cls-1" d="m3500.35,419.33l-13.98-93.48-7.29-34.33,69.43-102.02-26.19,87.82s19.97,11.87,18.97,14.95c-1,3.07-22.97,156.13-22.97,156.13l-17.97-29.07Z"/>
    <path class="cls-2" d="m3188.52,441.6l-33.69,84.29s18.97-1.02,17.98,2.05c-1,3.07-73.9,179.35-73.9,179.35h-86.45l176.06-265.69Z"/>
  </g>
  <g>
    <polygon class="cls-16" points="1431.37 716.65 1613.9 448.21 1702.01 485.1 1894.73 282.23 1915.12 296.57 1987.1 193.5 2127.93 427.72 2173.31 409.28 2292.16 569.11 2347.49 551.78 2463.47 716.65 1431.37 716.65"/>
    <path class="cls-18" d="m2173.31,409.28l10.26,63.02h-17.6l17.6,59.01-4.14,23.81,78.68,161.53h31.06l-28.99-90.1,23.81,8.28s-28.99-85.93-25.88-82.82c3.11,3.11,34.05,17.1,34.05,17.1l-118.85-159.83Z"/>
    <polygon class="cls-18" points="2347.49 551.78 2334.39 593.42 2311.95 589.28 2338.86 716.65 2463.47 716.65 2347.49 551.78"/>
    <path class="cls-18" d="m2127.93,427.72l38.04,95.3h-25.88l79.72,193.63h-96.28s-45.55-96.31-42.45-94.24c3.11,2.07,25.88,11.81,25.88,11.81l-31.06-71.25,24.67,9.22-38.13-72.97,19.67,4.14-24.85-40.38-26.92-95.91s22.78,14.13,19.67,6.88c-3.11-7.25-10.35-47.62-10.35-47.62l40.09,21.29,48.17,80.11Z"/>
    <polygon class="cls-18" points="1943.44 470.22 1971.34 569.61 1986.86 615.16 1943.44 573.75 1973.41 716.65 2090.4 716.65 1993.08 389.47 1943.44 470.22"/>
    <path class="cls-3" d="m1785.32,397.4l-22.07,32.44,33.13-16.22-11.06,94.9s63.64-66.26,62.72-63.15c-.93,3.11,0,9.7,0,9.7l18.74-11.77,19.67,40.38,50.73-57.98,49.68,114.92s13.47-123.2,15.54-120.09c2.07,3.11,19.67,24.85,19.67,24.85l8.25-16.56,51.8,40.2-12.42-86.79,24.85,30.02,6.04-30.02-113.48-188.72-71.98,103.07-20.39-14.34-109.42,115.17Z"/>
    <polygon class="cls-18" points="1613.9 448.21 1664.9 521.48 1640.13 525.09 1699.06 629.66 1687.67 649.33 1731.16 716.65 1808.8 716.65 1722.87 570.64 1745.65 582.43 1702.01 485.1 1613.9 448.21"/>
    <path class="cls-5" d="m2055.31,448.21c-2.8-2.17-24.96-75.3-24.96-75.3l19.67,1.04-62.92-180.44,113.48,188.72-6.04,30.02-24.85-30.02,12.42,86.79-26.8-20.8Z"/>
    <polygon class="cls-7" points="1763.25 429.85 1796.38 413.63 1798.45 409.28 1894.73 282.23 1785.32 397.4 1763.25 429.85"/>
    <path class="cls-7" d="m1785.32,508.53c.86-7.35,27.62-83.86,27.62-83.86,0,0,70.4-103.53,69.36-98.35-1.04,5.18-13.46,73.5-13.46,73.5l-20.81,45.55-62.72,63.15Z"/>
    <path class="cls-7" d="m1937.18,425.71l-14.49-94.45-7.56-34.68,71.98-103.07-27.15,88.73s20.71,12,19.67,15.1c-1.04,3.11-23.81,157.74-23.81,157.74l-18.64-29.37Z"/>
    <path class="cls-14" d="m1613.9,448.21l-34.93,85.16s19.67-1.04,18.64,2.07c-1.04,3.11-76.61,181.2-76.61,181.2h-89.63l182.53-268.44Z"/>
  </g>
</svg>