<?xml version="1.0" encoding="UTF-8"?>
<svg id="mountains_back" data-name="mountains back" xmlns="http://www.w3.org/2000/svg" viewBox="0 0 4023 1080">
  <defs>
    <style>
      .cls-1 {
        fill: #9ab5e6;
      }

      .cls-2 {
        fill: #8aa5ca;
      }

      .cls-3 {
        fill: #94b1d9;
      }

      .cls-4 {
        fill: #aed0ff;
      }

      .cls-5 {
        fill: #a0bcee;
      }

      .cls-6 {
        fill: #7b91b7;
      }

      .cls-7 {
        fill: #5b6b87;
      }

      .cls-8 {
        fill: #6e82a4;
      }

      .cls-9 {
        fill: #697ca8;
      }

      .cls-10 {
        fill: #5d6e95;
      }

      .cls-11 {
        fill: #4e5c74;
      }
    </style>
  </defs>
  <g>
    <polygon class="cls-10" points="2785.06 761.8 2853.55 661.07 2886.61 674.91 2958.92 598.79 2966.57 604.18 2993.58 565.5 3046.43 653.38 3063.45 646.46 3108.05 706.44 3128.81 699.94 3172.33 761.8 2785.06 761.8"/>
    <path class="cls-11" d="m3063.45,646.46l3.85,23.65h-6.6l6.6,22.14-1.55,8.93,29.52,60.61h11.65l-10.88-33.81,8.93,3.11s-10.88-32.24-9.71-31.08,12.78,6.42,12.78,6.42l-44.6-59.97Z"/>
    <polygon class="cls-11" points="3128.81 699.94 3123.89 715.56 3115.47 714.01 3125.57 761.8 3172.33 761.8 3128.81 699.94"/>
    <path class="cls-11" d="m3046.43,653.38l14.27,35.76h-9.71l29.91,72.65h-36.13s-17.09-36.14-15.93-35.36c1.17.78,9.71,4.43,9.71,4.43l-11.65-26.74,9.26,3.46-14.31-27.38,7.38,1.55-9.32-15.15-10.1-35.99s8.55,5.3,7.38,2.58c-1.17-2.72-3.88-17.87-3.88-17.87l15.04,7.99,18.07,30.06Z"/>
    <polygon class="cls-11" points="2977.2 669.33 2987.67 706.62 2993.49 723.72 2977.2 708.18 2988.45 761.8 3032.34 761.8 2995.83 639.03 2977.2 669.33"/>
    <path class="cls-1" d="m2917.87,642.01l-8.28,12.17,12.43-6.09-4.15,35.61s23.88-24.86,23.53-23.7c-.35,1.17,0,3.64,0,3.64l7.03-4.42,7.38,15.15,19.03-21.75,18.64,43.12s5.06-46.23,5.83-45.06c.78,1.17,7.38,9.32,7.38,9.32l3.09-6.22,19.44,15.08-4.66-32.57,9.32,11.27,2.27-11.27-42.58-70.81-27.01,38.68-7.65-5.38-41.06,43.22Z"/>
    <polygon class="cls-11" points="2853.55 661.07 2872.68 688.57 2863.39 689.92 2885.5 729.16 2881.23 736.54 2897.55 761.8 2926.68 761.8 2894.44 707.01 2902.98 711.43 2886.61 674.91 2853.55 661.07"/>
    <path class="cls-2" d="m3019.18,661.07c-1.05-.81-9.37-28.26-9.37-28.26l7.38.39-23.61-67.71,42.58,70.81-2.27,11.27-9.32-11.27,4.66,32.57-10.06-7.81Z"/>
    <polygon class="cls-4" points="2909.59 654.18 2922.02 648.1 2922.8 646.46 2958.92 598.79 2917.87 642.01 2909.59 654.18"/>
    <path class="cls-4" d="m2917.87,683.71c.32-2.76,10.37-31.47,10.37-31.47,0,0,26.42-38.85,26.03-36.9-.39,1.94-5.05,27.58-5.05,27.58l-7.81,17.09-23.53,23.7Z"/>
    <path class="cls-4" d="m2974.85,652.63l-5.44-35.44-2.84-13.01,27.01-38.68-10.19,33.29s7.77,4.5,7.38,5.67c-.39,1.17-8.93,59.19-8.93,59.19l-6.99-11.02Z"/>
    <path class="cls-8" d="m2853.55,661.07l-13.11,31.96s7.38-.39,6.99.78c-.39,1.17-28.75,67.99-28.75,67.99h-33.63l68.49-100.72Z"/>
  </g>
  <g>
    <polygon class="cls-10" points="665.11 755.5 743.26 640.56 780.99 656.35 863.51 569.49 872.24 575.63 903.06 531.5 963.36 631.79 982.79 623.89 1033.68 692.33 1057.37 684.91 1107.03 755.5 665.11 755.5"/>
    <path class="cls-11" d="m982.79,623.89l4.39,26.98h-7.54l7.54,25.27-1.77,10.2,33.69,69.16h13.3l-12.41-38.58,10.2,3.55s-12.41-36.79-11.08-35.46,14.58,7.32,14.58,7.32l-50.89-68.44Z"/>
    <polygon class="cls-11" points="1057.37 684.91 1051.76 702.74 1042.15 700.96 1053.68 755.5 1107.03 755.5 1057.37 684.91"/>
    <path class="cls-11" d="m963.36,631.79l16.29,40.81h-11.08l34.13,82.91h-41.23s-19.5-41.24-18.17-40.35c1.33.89,11.08,5.06,11.08,5.06l-13.3-30.51,10.56,3.95-16.33-31.25,8.42,1.77-10.64-17.29-11.53-41.07s9.75,6.05,8.42,2.95c-1.33-3.1-4.43-20.39-4.43-20.39l17.17,9.12,20.63,34.3Z"/>
    <polygon class="cls-11" points="884.36 649.99 896.31 692.54 902.95 712.05 884.36 694.31 897.2 755.5 947.29 755.5 905.62 615.41 884.36 649.99"/>
    <path class="cls-1" d="m816.66,618.81l-9.45,13.89,14.19-6.95-4.74,40.64s27.25-28.37,26.85-27.04c-.4,1.33,0,4.15,0,4.15l8.03-5.04,8.42,17.29,21.72-24.82,21.27,49.2s5.77-52.75,6.66-51.42c.89,1.33,8.42,10.64,8.42,10.64l3.53-7.09,22.18,17.21-5.32-37.16,10.64,12.86,2.58-12.86-48.59-80.81-30.82,44.13-8.73-6.14-46.85,49.31Z"/>
    <polygon class="cls-11" points="743.26 640.56 765.1 671.93 754.5 673.48 779.73 718.25 774.85 726.67 793.47 755.5 826.72 755.5 789.92 692.98 799.68 698.03 780.99 656.35 743.26 640.56"/>
    <path class="cls-2" d="m932.27,640.56c-1.2-.93-10.69-32.24-10.69-32.24l8.42.44-26.94-77.26,48.59,80.81-2.58,12.86-10.64-12.86,5.32,37.16-11.48-8.91Z"/>
    <polygon class="cls-4" points="807.21 632.7 821.4 625.75 822.28 623.89 863.51 569.49 816.66 618.81 807.21 632.7"/>
    <path class="cls-4" d="m816.66,666.39c.37-3.15,11.83-35.91,11.83-35.91,0,0,30.14-44.33,29.7-42.11-.44,2.22-5.76,31.47-5.76,31.47l-8.91,19.5-26.85,27.04Z"/>
    <path class="cls-4" d="m881.68,630.92l-6.21-40.44-3.24-14.85,30.82-44.13-11.62,37.99s8.87,5.14,8.42,6.47c-.44,1.33-10.2,67.54-10.2,67.54l-7.98-12.57Z"/>
    <path class="cls-8" d="m743.26,640.56l-14.96,36.47s8.42-.44,7.98.89c-.44,1.33-32.8,77.59-32.8,77.59h-38.38l78.16-114.94Z"/>
  </g>
  <g>
    <polygon class="cls-10" points="2299.78 758.5 2402.93 606.81 2452.72 627.66 2561.62 513.02 2573.14 521.13 2613.81 462.88 2693.39 595.23 2719.04 584.81 2786.2 675.13 2817.46 665.34 2883 758.5 2299.78 758.5"/>
    <path class="cls-11" d="m2719.04,584.81l5.8,35.61h-9.95l9.95,33.35-2.34,13.46,44.46,91.28h17.55l-16.38-50.91,13.46,4.68s-16.38-48.56-14.63-46.8,19.24,9.66,19.24,9.66l-67.16-90.32Z"/>
    <polygon class="cls-11" points="2817.46 665.34 2810.06 688.87 2797.38 686.53 2812.59 758.5 2883 758.5 2817.46 665.34"/>
    <path class="cls-11" d="m2693.39,595.23l21.5,53.85h-14.63l45.05,109.41h-54.41s-25.74-54.42-23.99-53.25c1.76,1.17,14.63,6.67,14.63,6.67l-17.55-40.26,13.94,5.21-21.55-41.24,11.11,2.34-14.04-22.82-15.21-54.2s12.87,7.98,11.12,3.89c-1.75-4.1-5.85-26.91-5.85-26.91l22.66,12.03,27.22,45.27Z"/>
    <polygon class="cls-11" points="2589.14 619.25 2604.91 675.41 2613.68 701.15 2589.14 677.75 2606.08 758.5 2672.18 758.5 2617.19 573.62 2589.14 619.25"/>
    <path class="cls-1" d="m2499.79,578.1l-12.47,18.33,18.72-9.17-6.25,53.63s35.96-37.44,35.44-35.69c-.52,1.76,0,5.48,0,5.48l10.59-6.65,11.12,22.82,28.67-32.76,28.07,64.94s7.61-69.62,8.78-67.86c1.17,1.76,11.11,14.04,11.11,14.04l4.66-9.36,29.27,22.72-7.02-49.04,14.04,16.97,3.41-16.97-64.12-106.64-40.67,58.24-11.52-8.11-61.83,65.08Z"/>
    <polygon class="cls-11" points="2402.93 606.81 2431.75 648.22 2417.75 650.26 2451.05 709.34 2444.62 720.46 2469.19 758.5 2513.06 758.5 2464.51 676 2477.38 682.66 2452.72 627.66 2402.93 606.81"/>
    <path class="cls-2" d="m2652.36,606.81c-1.58-1.23-14.1-42.55-14.1-42.55l11.12.59-35.56-101.96,64.12,106.64-3.41,16.97-14.04-16.97,7.02,49.04-15.15-11.75Z"/>
    <polygon class="cls-4" points="2487.32 596.44 2506.04 587.27 2507.21 584.81 2561.62 513.02 2499.79 578.1 2487.32 596.44"/>
    <path class="cls-4" d="m2499.79,640.9c.48-4.15,15.61-47.39,15.61-47.39,0,0,39.78-58.5,39.2-55.58-.59,2.93-7.6,41.54-7.6,41.54l-11.76,25.74-35.44,35.69Z"/>
    <path class="cls-4" d="m2585.6,594.1l-8.19-53.37-4.27-19.6,40.67-58.24-15.34,50.14s11.7,6.78,11.12,8.53c-.59,1.75-13.46,89.14-13.46,89.14l-10.53-16.6Z"/>
    <path class="cls-8" d="m2402.93,606.81l-19.74,48.12s11.12-.59,10.53,1.17c-.59,1.75-43.29,102.39-43.29,102.39h-50.65l103.14-151.69Z"/>
  </g>
  <g>
    <polygon class="cls-9" points="954.06 759.46 1058.37 589.13 1108.72 612.53 1218.86 483.8 1230.51 492.91 1271.64 427.5 1352.12 576.12 1378.06 564.42 1445.98 665.84 1477.6 654.85 1543.88 759.46 954.06 759.46"/>
    <path class="cls-7" d="m1378.06,564.42l5.86,39.99h-10.06l10.06,37.45-2.37,15.11,44.96,102.5h17.75l-16.57-57.17,13.61,5.26s-16.57-54.53-14.79-52.55,19.46,10.85,19.46,10.85l-67.92-101.42Z"/>
    <polygon class="cls-7" points="1477.6 654.85 1470.11 681.27 1457.28 678.64 1472.67 759.46 1543.88 759.46 1477.6 654.85"/>
    <path class="cls-7" d="m1352.12,576.12l21.74,60.47h-14.79l45.56,122.87h-55.02s-26.03-61.11-24.26-59.8c1.78,1.31,14.79,7.49,14.79,7.49l-17.75-45.21,14.1,5.85-21.79-46.3,11.24,2.63-14.2-25.62-15.38-60.86s13.02,8.96,11.24,4.37c-1.77-4.6-5.92-30.22-5.92-30.22l22.91,13.51,27.53,50.83Z"/>
    <polygon class="cls-7" points="1246.69 603.09 1262.64 666.16 1271.5 695.07 1246.69 668.79 1263.82 759.46 1330.67 759.46 1275.06 551.85 1246.69 603.09"/>
    <path class="cls-5" d="m1156.33,556.89l-12.61,20.59,18.93-10.29-6.32,60.22s36.37-42.04,35.84-40.07c-.53,1.97,0,6.15,0,6.15l10.71-7.47,11.24,25.62,28.99-36.79,28.39,72.92s7.7-78.18,8.88-76.2c1.18,1.97,11.24,15.77,11.24,15.77l4.71-10.51,29.6,25.51-7.1-55.07,14.2,19.05,3.45-19.05-64.85-119.75-41.13,65.41-11.65-9.1-62.53,73.08Z"/>
    <polygon class="cls-7" points="1058.37 589.13 1087.51 635.62 1073.36 637.91 1107.04 704.26 1100.53 716.74 1125.38 759.46 1169.75 759.46 1120.65 666.82 1133.66 674.29 1108.72 612.53 1058.37 589.13"/>
    <path class="cls-3" d="m1310.62,589.13c-1.6-1.38-14.26-47.78-14.26-47.78l11.24.66-35.96-114.5,64.85,119.75-3.45,19.05-14.2-19.05,7.1,55.07-15.32-13.2Z"/>
    <polygon class="cls-4" points="1143.72 577.47 1162.65 567.18 1163.83 564.42 1218.86 483.8 1156.33 556.89 1143.72 577.47"/>
    <path class="cls-4" d="m1156.33,627.4c.49-4.66,15.79-53.21,15.79-53.21,0,0,40.23-65.69,39.64-62.41-.59,3.28-7.69,46.64-7.69,46.64l-11.89,28.91-35.84,40.07Z"/>
    <path class="cls-4" d="m1243.11,574.85l-8.28-59.93-4.32-22.01,41.13-65.41-15.51,56.3s11.83,7.61,11.24,9.58c-.59,1.97-13.61,100.1-13.61,100.1l-10.65-18.64Z"/>
    <path class="cls-6" d="m1058.37,589.13l-19.96,54.04s11.24-.66,10.65,1.31c-.59,1.97-43.78,114.98-43.78,114.98h-51.22l104.31-170.34Z"/>
  </g>
</svg>