<?xml version="1.0" encoding="UTF-8"?>
<svg id="mountains_back" data-name="mountains back" xmlns="http://www.w3.org/2000/svg" viewBox="0 0 4023 1080">
  <defs>
    <style>
      .cls-1 {
        fill: #9ab5e6;
      }

      .cls-2 {
        fill: #8aa5ca;
      }

      .cls-3 {
        fill: #94b1d9;
      }

      .cls-4 {
        fill: #aed0ff;
      }

      .cls-5 {
        fill: #a0bcee;
      }

      .cls-6 {
        fill: #7b91b7;
      }

      .cls-7 {
        fill: #5b6b87;
      }

      .cls-8 {
        fill: #6e82a4;
      }

      .cls-9 {
        fill: #697ca8;
      }

      .cls-10 {
        fill: #5d6e95;
      }

      .cls-11 {
        fill: #4e5c74;
      }
    </style>
  </defs>
  <g>
    <polygon class="cls-10" points="2810.06 711.8 2878.55 611.07 2911.61 624.91 2983.92 548.79 2991.57 554.18 3018.58 515.5 3071.43 603.38 3088.45 596.46 3133.05 656.44 3153.81 649.94 3197.33 711.8 2810.06 711.8"/>
    <path class="cls-11" d="m3088.45,596.46l3.85,23.65h-6.6l6.6,22.14-1.55,8.93,29.52,60.61h11.65l-10.88-33.81,8.93,3.11s-10.88-32.24-9.71-31.08,12.78,6.42,12.78,6.42l-44.6-59.97Z"/>
    <polygon class="cls-11" points="3153.81 649.94 3148.89 665.56 3140.47 664.01 3150.57 711.8 3197.33 711.8 3153.81 649.94"/>
    <path class="cls-11" d="m3071.43,603.38l14.27,35.76h-9.71l29.91,72.65h-36.13s-17.09-36.14-15.93-35.36c1.17.78,9.71,4.43,9.71,4.43l-11.65-26.74,9.26,3.46-14.31-27.38,7.38,1.55-9.32-15.15-10.1-35.99s8.55,5.3,7.38,2.58c-1.17-2.72-3.88-17.87-3.88-17.87l15.04,7.99,18.07,30.06Z"/>
    <polygon class="cls-11" points="3002.2 619.33 3012.67 656.62 3018.49 673.72 3002.2 658.18 3013.45 711.8 3057.34 711.8 3020.83 589.03 3002.2 619.33"/>
    <path class="cls-1" d="m2942.87,592.01l-8.28,12.17,12.43-6.09-4.15,35.61s23.88-24.86,23.53-23.7c-.35,1.17,0,3.64,0,3.64l7.03-4.42,7.38,15.15,19.03-21.75,18.64,43.12s5.06-46.23,5.83-45.06c.78,1.17,7.38,9.32,7.38,9.32l3.09-6.22,19.44,15.08-4.66-32.57,9.32,11.27,2.27-11.27-42.58-70.81-27.01,38.68-7.65-5.38-41.06,43.22Z"/>
    <polygon class="cls-11" points="2878.55 611.07 2897.68 638.57 2888.39 639.92 2910.5 679.16 2906.23 686.54 2922.55 711.8 2951.68 711.8 2919.44 657.01 2927.98 661.43 2911.61 624.91 2878.55 611.07"/>
    <path class="cls-2" d="m3044.18,611.07c-1.05-.81-9.37-28.26-9.37-28.26l7.38.39-23.61-67.71,42.58,70.81-2.27,11.27-9.32-11.27,4.66,32.57-10.06-7.81Z"/>
    <polygon class="cls-4" points="2934.59 604.18 2947.02 598.1 2947.8 596.46 2983.92 548.79 2942.87 592.01 2934.59 604.18"/>
    <path class="cls-4" d="m2942.87,633.71c.32-2.76,10.37-31.47,10.37-31.47,0,0,26.42-38.85,26.03-36.9-.39,1.94-5.05,27.58-5.05,27.58l-7.81,17.09-23.53,23.7Z"/>
    <path class="cls-4" d="m2999.85,602.63l-5.44-35.44-2.84-13.01,27.01-38.68-10.19,33.29s7.77,4.5,7.38,5.67c-.39,1.17-8.93,59.19-8.93,59.19l-6.99-11.02Z"/>
    <path class="cls-8" d="m2878.55,611.07l-13.11,31.96s7.38-.39,6.99.78c-.39,1.17-28.75,67.99-28.75,67.99h-33.63l68.49-100.72Z"/>
  </g>
  <g>
    <polygon class="cls-10" points="690.11 705.5 768.26 590.56 805.99 606.35 888.51 519.49 897.24 525.63 928.06 481.5 988.36 581.79 1007.79 573.89 1058.68 642.33 1082.37 634.91 1132.03 705.5 690.11 705.5"/>
    <path class="cls-11" d="m1007.79,573.89l4.39,26.98h-7.54l7.54,25.27-1.77,10.2,33.69,69.16h13.3l-12.41-38.58,10.2,3.55s-12.41-36.79-11.08-35.46,14.58,7.32,14.58,7.32l-50.89-68.44Z"/>
    <polygon class="cls-11" points="1082.37 634.91 1076.76 652.74 1067.15 650.96 1078.68 705.5 1132.03 705.5 1082.37 634.91"/>
    <path class="cls-11" d="m988.36,581.79l16.29,40.81h-11.08l34.13,82.91h-41.23s-19.5-41.24-18.17-40.35c1.33.89,11.08,5.06,11.08,5.06l-13.3-30.51,10.56,3.95-16.33-31.25,8.42,1.77-10.64-17.29-11.53-41.07s9.75,6.05,8.42,2.95c-1.33-3.1-4.43-20.39-4.43-20.39l17.17,9.12,20.63,34.3Z"/>
    <polygon class="cls-11" points="909.36 599.99 921.31 642.54 927.95 662.05 909.36 644.31 922.2 705.5 972.29 705.5 930.62 565.41 909.36 599.99"/>
    <path class="cls-1" d="m841.66,568.81l-9.45,13.89,14.19-6.95-4.74,40.64s27.25-28.37,26.85-27.04c-.4,1.33,0,4.15,0,4.15l8.03-5.04,8.42,17.29,21.72-24.82,21.27,49.2s5.77-52.75,6.66-51.42c.89,1.33,8.42,10.64,8.42,10.64l3.53-7.09,22.18,17.21-5.32-37.16,10.64,12.86,2.58-12.86-48.59-80.81-30.82,44.13-8.73-6.14-46.85,49.31Z"/>
    <polygon class="cls-11" points="768.26 590.56 790.1 621.93 779.5 623.48 804.73 668.25 799.85 676.67 818.47 705.5 851.72 705.5 814.92 642.98 824.68 648.03 805.99 606.35 768.26 590.56"/>
    <path class="cls-2" d="m957.27,590.56c-1.2-.93-10.69-32.24-10.69-32.24l8.42.44-26.94-77.26,48.59,80.81-2.58,12.86-10.64-12.86,5.32,37.16-11.48-8.91Z"/>
    <polygon class="cls-4" points="832.21 582.7 846.4 575.75 847.28 573.89 888.51 519.49 841.66 568.81 832.21 582.7"/>
    <path class="cls-4" d="m841.66,616.39c.37-3.15,11.83-35.91,11.83-35.91,0,0,30.14-44.33,29.7-42.11-.44,2.22-5.76,31.47-5.76,31.47l-8.91,19.5-26.85,27.04Z"/>
    <path class="cls-4" d="m906.68,580.92l-6.21-40.44-3.24-14.85,30.82-44.13-11.62,37.99s8.87,5.14,8.42,6.47c-.44,1.33-10.2,67.54-10.2,67.54l-7.98-12.57Z"/>
    <path class="cls-8" d="m768.26,590.56l-14.96,36.47s8.42-.44,7.98.89c-.44,1.33-32.8,77.59-32.8,77.59h-38.38l78.16-114.94Z"/>
  </g>
  <g>
    <polygon class="cls-10" points="2324.78 708.5 2427.93 556.81 2477.72 577.66 2586.62 463.02 2598.14 471.13 2638.81 412.88 2718.39 545.23 2744.04 534.81 2811.2 625.13 2842.46 615.34 2908 708.5 2324.78 708.5"/>
    <path class="cls-11" d="m2744.04,534.81l5.8,35.61h-9.95l9.95,33.35-2.34,13.46,44.46,91.28h17.55l-16.38-50.91,13.46,4.68s-16.38-48.56-14.63-46.8,19.24,9.66,19.24,9.66l-67.16-90.32Z"/>
    <polygon class="cls-11" points="2842.46 615.34 2835.06 638.87 2822.38 636.53 2837.59 708.5 2908 708.5 2842.46 615.34"/>
    <path class="cls-11" d="m2718.39,545.23l21.5,53.85h-14.63l45.05,109.41h-54.41s-25.74-54.42-23.99-53.25c1.76,1.17,14.63,6.67,14.63,6.67l-17.55-40.26,13.94,5.21-21.55-41.24,11.11,2.34-14.04-22.82-15.21-54.2s12.87,7.98,11.12,3.89c-1.75-4.1-5.85-26.91-5.85-26.91l22.66,12.03,27.22,45.27Z"/>
    <polygon class="cls-11" points="2614.14 569.25 2629.91 625.41 2638.68 651.15 2614.14 627.75 2631.08 708.5 2697.18 708.5 2642.19 523.62 2614.14 569.25"/>
    <path class="cls-1" d="m2524.79,528.1l-12.47,18.33,18.72-9.17-6.25,53.63s35.96-37.44,35.44-35.69c-.52,1.76,0,5.48,0,5.48l10.59-6.65,11.12,22.82,28.67-32.76,28.07,64.94s7.61-69.62,8.78-67.86c1.17,1.76,11.11,14.04,11.11,14.04l4.66-9.36,29.27,22.72-7.02-49.04,14.04,16.97,3.41-16.97-64.12-106.64-40.67,58.24-11.52-8.11-61.83,65.08Z"/>
    <polygon class="cls-11" points="2427.93 556.81 2456.75 598.22 2442.75 600.26 2476.05 659.34 2469.62 670.46 2494.19 708.5 2538.06 708.5 2489.51 626 2502.38 632.66 2477.72 577.66 2427.93 556.81"/>
    <path class="cls-2" d="m2677.36,556.81c-1.58-1.23-14.1-42.55-14.1-42.55l11.12.59-35.56-101.96,64.12,106.64-3.41,16.97-14.04-16.97,7.02,49.04-15.15-11.75Z"/>
    <polygon class="cls-4" points="2512.32 546.44 2531.04 537.27 2532.21 534.81 2586.62 463.02 2524.79 528.1 2512.32 546.44"/>
    <path class="cls-4" d="m2524.79,590.9c.48-4.15,15.61-47.39,15.61-47.39,0,0,39.78-58.5,39.2-55.58-.59,2.93-7.6,41.54-7.6,41.54l-11.76,25.74-35.44,35.69Z"/>
    <path class="cls-4" d="m2610.6,544.1l-8.19-53.37-4.27-19.6,40.67-58.24-15.34,50.14s11.7,6.78,11.12,8.53c-.59,1.75-13.46,89.14-13.46,89.14l-10.53-16.6Z"/>
    <path class="cls-8" d="m2427.93,556.81l-19.74,48.12s11.12-.59,10.53,1.17c-.59,1.75-43.29,102.39-43.29,102.39h-50.65l103.14-151.69Z"/>
  </g>
  <g>
    <polygon class="cls-9" points="979.06 709.46 1083.37 539.13 1133.72 562.53 1243.86 433.8 1255.51 442.91 1296.64 377.5 1377.12 526.12 1403.06 514.42 1470.98 615.84 1502.6 604.85 1568.88 709.46 979.06 709.46"/>
    <path class="cls-7" d="m1403.06,514.42l5.86,39.99h-10.06l10.06,37.45-2.37,15.11,44.96,102.5h17.75l-16.57-57.17,13.61,5.26s-16.57-54.53-14.79-52.55,19.46,10.85,19.46,10.85l-67.92-101.42Z"/>
    <polygon class="cls-7" points="1502.6 604.85 1495.11 631.27 1482.28 628.64 1497.67 709.46 1568.88 709.46 1502.6 604.85"/>
    <path class="cls-7" d="m1377.12,526.12l21.74,60.47h-14.79l45.56,122.87h-55.02s-26.03-61.11-24.26-59.8c1.78,1.31,14.79,7.49,14.79,7.49l-17.75-45.21,14.1,5.85-21.79-46.3,11.24,2.63-14.2-25.62-15.38-60.86s13.02,8.96,11.24,4.37c-1.77-4.6-5.92-30.22-5.92-30.22l22.91,13.51,27.53,50.83Z"/>
    <polygon class="cls-7" points="1271.69 553.09 1287.64 616.16 1296.5 645.07 1271.69 618.79 1288.82 709.46 1355.67 709.46 1300.06 501.85 1271.69 553.09"/>
    <path class="cls-5" d="m1181.33,506.89l-12.61,20.59,18.93-10.29-6.32,60.22s36.37-42.04,35.84-40.07c-.53,1.97,0,6.15,0,6.15l10.71-7.47,11.24,25.62,28.99-36.79,28.39,72.92s7.7-78.18,8.88-76.2c1.18,1.97,11.24,15.77,11.24,15.77l4.71-10.51,29.6,25.51-7.1-55.07,14.2,19.05,3.45-19.05-64.85-119.75-41.13,65.41-11.65-9.1-62.53,73.08Z"/>
    <polygon class="cls-7" points="1083.37 539.13 1112.51 585.62 1098.36 587.91 1132.04 654.26 1125.53 666.74 1150.38 709.46 1194.75 709.46 1145.65 616.82 1158.66 624.29 1133.72 562.53 1083.37 539.13"/>
    <path class="cls-3" d="m1335.62,539.13c-1.6-1.38-14.26-47.78-14.26-47.78l11.24.66-35.96-114.5,64.85,119.75-3.45,19.05-14.2-19.05,7.1,55.07-15.32-13.2Z"/>
    <polygon class="cls-4" points="1168.72 527.47 1187.65 517.18 1188.83 514.42 1243.86 433.8 1181.33 506.89 1168.72 527.47"/>
    <path class="cls-4" d="m1181.33,577.4c.49-4.66,15.79-53.21,15.79-53.21,0,0,40.23-65.69,39.64-62.41-.59,3.28-7.69,46.64-7.69,46.64l-11.89,28.91-35.84,40.07Z"/>
    <path class="cls-4" d="m1268.11,524.85l-8.28-59.93-4.32-22.01,41.13-65.41-15.51,56.3s11.83,7.61,11.24,9.58c-.59,1.97-13.61,100.1-13.61,100.1l-10.65-18.64Z"/>
    <path class="cls-6" d="m1083.37,539.13l-19.96,54.04s11.24-.66,10.65,1.31c-.59,1.97-43.78,114.98-43.78,114.98h-51.22l104.31-170.34Z"/>
  </g>
</svg>