<?xml version="1.0" encoding="UTF-8"?>
<svg id="Layer_11" data-name="Layer 11" xmlns="http://www.w3.org/2000/svg" viewBox="0 0 738.67 1338.67">
  <defs>
    <style>
      .cls-1 {
        fill: #2a4e96;
      }

      .cls-2 {
        fill: #bf7f55;
      }

      .cls-3 {
        fill: #fff;
      }

      .cls-4 {
        stroke: #000;
      }

      .cls-4, .cls-5 {
        fill: none;
      }

      .cls-4, .cls-5, .cls-6 {
        stroke-miterlimit: 10;
      }

      .cls-7 {
        fill: #b2a19b;
      }

      .cls-8 {
        fill: #c68659;
      }

      .cls-5 {
        stroke: #27adff;
      }

      .cls-6 {
        fill: #443936;
        stroke: #443936;
        stroke-width: .5px;
      }

      .cls-9 {
        opacity: .8;
      }

      .cls-10 {
        opacity: .4;
      }

      .cls-11 {
        fill: #ff9e55;
      }

      .cls-12 {
        fill: #ffb27d;
      }

      .cls-13 {
        fill: #233862;
      }

      .cls-14 {
        fill: #6d605d;
      }
    </style>
  </defs>
  <g id="right_arm">
    <g id="arm">
      <g id="skin-arm">
        <path id="biceps" class="cls-12" d="m304.75,455.64l-62.92-33.77c6.63-21.03,17.44-49.76,35.05-81.81,15.56-28.32,31.64-50.5,44.54-66.45,20.97,11.26,41.94,22.52,62.92,33.77-5.32,18.2-13.66,41.85-26.91,68.22-18.09,36-38.12,62.77-52.68,80.04Z"/>
        <circle id="arm_join" data-name="arm join" class="cls-12" cx="273.3" cy="438.75" r="35.61"/>
      </g>
      <g id="t-shirt_sleeve" data-name="t-shirt sleeve">
        <ellipse class="cls-11" cx="364.06" cy="270.31" rx="43.21" ry="42.85" transform="translate(-46.3 463.23) rotate(-61.77)"/>
        <path class="cls-11" d="m363.19,386.56c-9.04,1.87-15.55.71-18.91.4-9.16-.83-22.75-3.39-37.22-11.22-14.21-7.7-23.67-17.45-29.34-24.55-2.07-2.58-8-9.82-9.26-14.27l57.86-86.87,75.51,40.54-38.64,95.98Z"/>
      </g>
    </g>
    <g id="forearm">
      <g id="skin-forearm">
        <path class="cls-12" d="m94.48,336.8l22.89-33.06c27.6,12.77,59.95,27.92,91.41,46.89,32.23,19.44,60.6,39.24,85.21,58.12-13.66,19.49-27.32,38.99-40.98,58.48-25.4-16.33-52.68-35.56-80.85-58.14-29.76-23.85-55.33-49.95-77.68-72.29Z"/>
      </g>
      <circle id="hand-join" class="cls-12" cx="106.63" cy="320.58" r="20.11"/>
      <g id="hand">
        <path class="cls-12" d="m66.75,319.81c-14.42-8-21.62-22.66-13.61-37.08,8-14.42,26.18-19.62,40.59-11.61,14.42,8,19.62,26.18,11.61,40.59-8,14.42-24.18,16.1-38.59,8.1Z"/>
        <rect class="cls-12" x="65.92" y="238.46" width="13.47" height="45.69" rx="5.71" ry="5.71" transform="translate(291.77 421.14) rotate(141.64)"/>
        <rect class="cls-12" x="88.12" y="252.5" width="15.05" height="38.22" rx="7.53" ry="7.53" transform="translate(231.15 525.69) rotate(171.33)"/>
        <rect class="cls-12" x="47.66" y="237.19" width="12.58" height="50.2" rx="5.33" ry="5.33" transform="translate(267.6 423.72) rotate(138.7)"/>
        <rect class="cls-12" x="39.75" y="255.33" width="12.58" height="40.46" rx="5.33" ry="5.33" transform="translate(274.82 435.91) rotate(134.51)"/>
        <rect class="cls-12" x="43.09" y="276.46" width="12.58" height="43.16" rx="5.33" ry="5.33" transform="translate(310.45 450.07) rotate(129.62)"/>
      </g>
    </g>
    <circle id="hand_anchor_point" class="cls-4" cx="107.11" cy="320.94" r=".5"/>
    <circle id="forearm_anchor_point" class="cls-5" cx="273.3" cy="438.75" r=".5"/>
  </g>
  <circle id="right_arm_anchor_point" class="cls-4" cx="364.56" cy="270.81" r=".5"/>
  <g id="Base_body" data-name="Base body">
    <g id="P297LW">
      <g>
        <path class="cls-11" d="m550.89,527.46c2.57,39.2,4.89,74.96,4.96,77.22.17,4.45-21.96,20.03-59.13,31.82-8.98,2.84-18.85,5.47-29.48,7.65-19.08,3.92-40.66,6.45-64.13,6.36-7.67-.03-14.95-.41-21.81-1.1-50.65-4.97-69.53-60.26-70.9-283.66,2.8-28.56,1.38-52.4,8.72-96.08,2.96-17.59,28.52-41.61,43.46-46.57,8.84-2.94,17.11-4.75,23.53-5.85,7.77-1.34,12.8-1.63,12.8-1.63,0,0,74.04-.29,133.76,4.83,18.72,1.61,19.33,73.11,20.4,123.98.47,22.36-5.28,135.53-2.18,183.04Z"/>
        <path id="Neck" class="cls-12" d="m483.27,214.14c.45-20.54.11-45.07-2.67-65.78l-81.98,13.4s0,25.02.36,52.78c-.05,0-.08.01-.08.01,0,0-2.24,25.75,29.48,29.52,31.72,3.77,55.74-10.05,54.89-29.92Z"/>
        <path class="cls-13" d="m414.69,1303.02c10.31-6.34,4.25-53.36,4.25-53.36,0,0-48.28-38.33-54.79-8.82-6.51,29.51-45.57,42.89-67.82,46.59-15.36,2.55-20.09,11.08-21.54,16.12l139.9-.53Z"/>
        <path class="cls-13" d="m562.63,1303.02c10.31-6.34,4.25-53.36,4.25-53.36,0,0-48.28-38.33-54.79-8.82-6.51,29.51-45.57,42.89-67.82,46.59-15.36,2.55-20.08,11.08-21.54,16.12l139.9-.53Z"/>
        <path class="cls-1" d="m555.84,604.67v.07c0,.08-.01.16-.02.26-.02.09-.04.2-.08.29-.03.11-.08.22-.13.33-.04.12-.11.24-.17.36-.26.48-.65,1.02-1.19,1.62-.22.23-.45.48-.7.73s-.52.51-.81.79c-.59.53-1.25,1.1-1.99,1.71-.88.7-1.87,1.44-2.96,2.22-.29.21-.59.41-.89.62h-.01c-.37.25-.74.5-1.12.76-.38.25-.77.51-1.19.77-.42.26-.83.52-1.25.79-.44.26-.87.53-1.32.81-.45.27-.9.55-1.37.82-.47.27-.95.56-1.44.84h-.01c-.97.56-1.99,1.12-3.05,1.7-1.06.57-2.16,1.14-3.29,1.73h-.01c-1.51.77-3.09,1.56-4.75,2.35-1.66.78-3.38,1.58-5.16,2.38-.89.39-1.8.79-2.72,1.19-.47.2-.94.39-1.41.6-.83.34-1.67.69-2.52,1.04-.6.25-1.21.49-1.83.74h-.01c-.99.39-1.99.79-3.01,1.18-1.54.59-3.11,1.18-4.71,1.75-.79.28-1.61.57-2.43.86-2.46.86-4.99,1.7-7.59,2.53-.82.26-1.65.52-2.48.77-.01,0-.02.01-.03.01-1.1.34-2.2.66-3.32.99-1.13.33-2.28.65-3.44.98-.01,0-.01.01-.02.01-.02.02-.04.04-.06.08-3.46,40.68-12.84,98.15-21.32,153.61v.02c-2.19,14.37-4.3,28.61-6.26,42.38-5.16,36.46-9.03,69.68-9.44,93.59v.25c-.19,10.97,9.07,38.34,9.77,44.66.42,3.87.77,7.96,1.02,12.25.94,15.93.66,34.56-.5,54.46h0c-.09,1.5-.17,3.01-.27,4.51-1.1,17.05-2.81,34.95-4.94,52.88-.7,5.92-1.45,11.83-2.23,17.71-9.96,75.02-25.95,145.58-32.71,149.48-.04.02-.09.05-.13.07-17.69,10.1-49.73-.09-66.04-2.46-.82-.12-1.61-.32-2.39-.57h-.01c-5.6-1.86-9.74-7.04-9.43-13.03,2.14-41.79,2.06-87.96.47-135.74-.19-5.85-.4-11.72-.64-17.62-5.07-126.23-19.9-261.23-31.91-355.05-.45-3.49-.89-6.91-1.33-10.26-2.05-15.81-3.41-30.56-4.26-43.86-.79-11.67-1.16-22.26-1.33-31.44-.03-2.87-.07-5.6-.08-8.18-.02-3.71,1.27-16.54,2.76-51.48h0c.24-5.77.49-12.14.74-19.17.29-8.44.6-17.86.88-28.31.01-.35.02-.69.03-1.04.17-6.58.36-13.57.52-21,.52-22.41.98-48.8,1.34-79.85.04-4.48.1-9.05.14-13.73.2-20.31.35-42.49.44-66.69.04-10.77,1.27-39.12,3.19-41.03,1.92-1.92,4.57-3.1,7.46-3.1h153.84c14.86,0,26.82,12.16,26.64,27.03-.24,19.18.46,45.98,4.62,71.55,4.95,30.43,14.8,59.1,33.86,71.17,2.76,1.75,5.7,3.16,8.85,4.16.08.03.15.05.23.08.02.01.04.02.05.04.12.26.81,1.79,1.91,4.34,0,.01.01.02.01.03.23,6.32.5,12.75.79,19.29.05,1.32.11,2.65.17,3.97.03.78.08,1.55.11,2.33.07,1.33.13,2.67.2,4.01.1,2.2.22,4.42.34,6.67.1,1.77.2,3.52.29,5.29.18,3.4.39,6.85.61,10.33,0,.2.02.39.03.59h0c.05.93.11,1.83.19,2.76.29,4.5.6,9.06.95,13.65.1,1.42.21,2.82.32,4.25.04.69.1,1.36.15,2.05.14,1.8.28,3.61.44,5.41.15,1.92.32,3.85.49,5.78.61,7.06-.29,13.36-.11,18.3Z"/>
        <path class="cls-13" d="m460.61,1040.56h0c-.09,1.5-.17,3.01-.27,4.51-1.1,17.05-2.81,34.95-4.94,52.88-.7,5.92-1.45,11.83-2.23,17.71-9.96,75.02-25.95,145.58-32.71,149.48-.04.02-.09.05-.13.07-17.69,10.1-49.73-.09-66.04-2.46-.82-.12-1.61-.32-2.39-.57h-.01c-5.6-1.86-9.74-7.04-9.43-13.03,2.14-41.79,2.06-87.96.47-135.74-.19-5.85-.4-11.72-.64-17.62-5.07-126.23-19.9-261.23-31.91-355.05-.45-3.49,36.21-116.67,77.93-6.79,0,.01.01.02.01.04,18.44,47.73,62.01,170.36,62.01,194.95v.25c-.19,10.97,9.07,38.34,9.77,44.66.42,3.87.77,7.96,1.02,12.25.94,15.93.66,34.56-.5,54.46Z"/>
        <path class="cls-1" d="m592.25,1102.62c-.26,6.05-.58,12.07-.92,18.04-4.16,71.87-13.6,136.46-19.24,140.81-1.21.93-2.52,1.75-3.9,2.5-17.16,9.11-46.74,4.02-62.01,3.81-3.31-.05-6.45-1.24-8.87-3.24-2.59-2.12-4.37-5.16-4.65-8.67-3.16-39.03-8.74-81.63-15.87-125.6-.95-5.83-1.92-11.68-2.91-17.55-4.06-23.86-8.53-48.02-13.28-72.16-21.48-109.12-48.71-217.72-69.2-294.48-1.09-4.1-2.12-8.13-3.11-12.08,0-.02-.01-.03-.01-.04-9.35-37.78-13.58-68.63-15.43-85.92-.12-1.11-.23-2.16-.33-3.15-.77-7.71-.99-11.97-.99-11.97,0,0,30.9-19.86,67.35-38.94,1.04-.53,2.07-1.07,3.11-1.61,8.21-4.25,16.68-8.42,25.09-12.31,26.57-12.25,52.73-21.5,69.54-20.5,8.3.49,14.33,3.49,17,9.85.71,1.68,1.19,3.61,1.41,5.77,6.75,66.67,28.33,372.63,29.86,378.79,8.76,35.21,9.84,92.79,7.37,148.66Z"/>
        <polygon class="cls-13" points="305.54 617.51 304.44 638.01 559.5 635.35 558.05 610.9 305.54 617.51"/>
        <path class="cls-8" d="m482.6,169.54s-20.31,24.02-41.98,24.07c-27.01.06-41.72-25.93-41.72-25.93l83.7,1.86Z"/>
      </g>
      <g class="cls-9">
        <path class="cls-3" d="m592.25,1102.62c-46.49,11.78-93.53,11.45-118.37,10.1.99,5.87,1.96,11.72,2.91,17.55,1.71.08,3.51.15,5.38.22,26.19.93,67.21.1,109.16-9.83l.91-18.04Z"/>
      </g>
      <g class="cls-10">
        <path class="cls-3" d="m455.4,1097.95c-.7,5.92-1.45,11.83-2.23,17.71-42.58,4.3-83.09,1.22-110.25-2.25-.19-5.85-.4-11.72-.64-17.62,27.02,3.57,69.54,7.07,113.12,2.16Z"/>
      </g>
    </g>
    <rect class="cls-13" x="337.81" y="382.22" width="128.03" height="71.76" rx="12" ry="12"/>
  </g>
  <g id="Left_hand" data-name="Left hand">
    <g>
      <path class="cls-12" d="m593.32,447.39l-70.55,11.06c-7.41-20.77-16.15-50.2-21.46-86.38-4.69-31.97-5.27-59.36-4.62-79.86,23.52-3.69,47.03-7.38,70.54-11.06,6.75,17.72,14.38,41.61,19.74,70.63,7.32,39.62,7.51,73.06,6.33,95.61Z"/>
      <circle class="cls-12" cx="558.05" cy="452.92" r="35.61"/>
    </g>
    <g>
      <ellipse class="cls-11" cx="528.7" cy="263.85" rx="42.85" ry="43.21" transform="translate(-34.5 85.11) rotate(-8.91)"/>
      <path class="cls-11" d="m598.19,357.05c-6.08,6.95-11.97,9.95-14.83,11.74-7.8,4.87-20.18,11.04-36.44,13.52-15.97,2.44-29.41.38-38.22-1.86-3.21-.81-12.3-3-16-5.79l-6.33-104.18,84.67-13.28,27.15,99.84Z"/>
    </g>
    <g>
      <path class="cls-12" d="m543.52,661.28l-39.71-6.32c-.44-30.41-.8-66.13,2.68-102.7,3.56-37.47,9.12-71.61,15.49-101.98,23.49,3.87,46.97,7.74,70.46,11.61-3.72,29.97-9.24,62.88-17.39,98.06-8.61,37.15-21.06,71.5-31.52,101.32Z"/>
      <g>
        <path class="cls-12" d="m543.41,678.57c1.12,16.45-7.27,30.46-23.72,31.59-16.45,1.12-30.7-11.31-31.82-27.76-1.12-16.45,11.31-30.7,27.76-31.82,16.45-1.12,26.66,11.54,27.78,27.99Z"/>
        <rect class="cls-12" x="484.36" y="682.58" width="13.47" height="45.69" rx="5.71" ry="5.71" transform="translate(252.24 -120.25) rotate(18.71)"/>
        <rect class="cls-12" x="479.71" y="661.42" width="15.05" height="38.22" rx="7.53" ry="7.53" transform="translate(672.57 -135.67) rotate(48.39)"/>
        <rect class="cls-12" x="495.79" y="695.49" width="12.58" height="50.2" rx="5.33" ry="5.33" transform="translate(214.69 -109.31) rotate(15.77)"/>
        <rect class="cls-12" x="511.23" y="699.78" width="12.58" height="40.46" rx="5.33" ry="5.33" transform="translate(155.07 -89.23) rotate(11.58)"/>
        <rect class="cls-12" x="528.28" y="683.41" width="12.58" height="43.16" rx="5.33" ry="5.33" transform="translate(52.06 -36.61) rotate(4.12)"/>
      </g>
      <circle class="cls-12" cx="523.67" cy="658.12" r="20.11"/>
    </g>
  </g>
  <g id="Clothes_top" data-name="Clothes top">
    <path class="cls-1" d="m394.21,216.07c-32.39,52.28-37.99,105.52-37.99,105.52h-19.11c1.92-37.41,19.37-79.65,32.81-100.99,8.84-2.94,17.87-3.42,24.29-4.52Z"/>
    <path class="cls-1" d="m484.68,217.43s-38.92,54.75-41.72,105.08l25.04,1.63s-1.62-55.98,34.2-105.83l-17.52-.89Z"/>
  </g>
  <g id="Face">
    <path id="Face-2" data-name="Face" class="cls-12" d="m391.97,165.46c9.8,7.71,38.52,15.36,46.83,16.26,0,0,42.6-9.5,50.34-14.17,11.99-7.27,11.22-21.98,11.83-42.44.74-24.21,3.18-43.23.47-57.19-.41-2.1-.93-3.98-1.6-5.76,0,0-1.69-4.57-4.77-8.88-2.46-3.44-21.4-24.34-51.91-24.79-26.92-.4-57.25,15.21-63.2,37.8-.8,3.06-.29,5.02-.63,13.99-2.18,56.89,2.32,77.06,12.62,85.17Z"/>
    <path id="Eyebrow_left" data-name="Eyebrow left" class="cls-14" d="m419.68,89.83c-8.56-7.93-16.51-2.75-19.72.07-.89.78-2.06.53-2.73-.59h0c-.83-1.37-.58-3.43.52-4.37,4.09-3.48,13.9-9.63,24.27-.02,1.03.95,1.26,2.94.49,4.28l-.02.04c-.68,1.18-1.89,1.43-2.8.6Z"/>
    <path id="Eyebrow_right" data-name="Eyebrow right" class="cls-14" d="m479.51,89.83c-8.31-7.93-16.03-2.75-19.15.07-.87.78-2,.53-2.65-.59h0c-.8-1.37-.56-3.43.5-4.37,3.97-3.48,13.5-9.63,23.56-.02,1,.95,1.22,2.94.47,4.28l-.02.04c-.66,1.18-1.84,1.43-2.72.6Z"/>
    <path id="Nose" class="cls-2" d="m436.78,104.6c-1.6,2.39-3.2,4.79-4.8,7.18-1.43,2.14-3.06,4.42-3,7.12.05,2.5,1.55,5,4.13,5.55,2.83.6,5.3-.85,7.23-2.8,1.81-1.83-1.01-4.66-2.83-2.83-.94.95-2.41,2.22-3.7,1.68-.48-.2-.64-.57-.78-1.11-.14-.57-.05-1.21.21-1.93.66-1.82,2.04-3.46,3.11-5.05l3.88-5.8c.6-.9.17-2.21-.72-2.74-.98-.57-2.13-.18-2.74.72h0Z"/>
    <path id="Beard" class="cls-7" d="m489.14,167.76c11.99-7.3,11.22-22.08,11.83-42.62.07-2.38.16-4.69.26-6.97v-.04c-25.85,20.14-106.69,20.14-122.12,2.77,1.14,27.01,5.52,38.96,12.86,44.76,9.8,7.74,38.52,15.43,46.83,16.33,0,0,42.6-9.54,50.34-14.23Z"/>
    <path id="mouth" class="cls-3" d="m417.88,143.83h42.08c1.41,0,2.13,1.8,1.14,2.86-6.85,7.32-26.77,24.5-44.49-.16-.79-1.1-.04-2.7,1.27-2.7Z"/>
    <g id="eyes">
      <rect class="cls-6" x="404.61" y="92.99" width="10.46" height="19.68" rx="3" ry="3"/>
      <rect class="cls-6" x="464.74" y="92.99" width="10.46" height="19.68" rx="3" ry="3"/>
    </g>
    <path id="hair" class="cls-7" d="m380.28,61.37c-.22.96-1.29,10-.44,9.5,4.49-2.64,18.53-14.8,29.99-15.24,14.44-.55,15.69,6.01,29.14,5.33,13.45-.68,18.37-8.12,33.13-5.36s24.87,15.3,29.58,15.31c2.53,0-10.73-46.7-57.46-44.79s-59.71,16.81-63.95,35.25Z"/>
    <g id="ears">
      <circle class="cls-12" cx="498.36" cy="102.97" r="13.55"/>
      <circle class="cls-12" cx="382.78" cy="102.97" r="13.55"/>
    </g>
  </g>
</svg>