<?xml version="1.0" encoding="UTF-8"?>
<svg id="Layer_1" data-name="Layer 1" xmlns="http://www.w3.org/2000/svg" viewBox="0 0 1061 213.44">
  <defs>
    <style>
      .cls-1 {
        fill: red;
      }
    </style>
  </defs>
  <path d="m55.69,147.64c0-1.96-.18-3.74-.53-5.34-.35-1.6-1.1-3.08-2.26-4.44-1.1-1.35-2.73-2.71-4.89-4.06-2.11-1.35-4.86-2.76-8.27-4.21-4.06-1.7-8-3.51-11.81-5.41-3.81-1.96-7.24-4.21-10.3-6.77-3.06-2.56-5.49-5.57-7.29-9.02-1.75-3.51-2.63-7.62-2.63-12.33s.83-8.8,2.48-12.56c1.7-3.76,4.11-6.97,7.22-9.62,3.11-2.71,6.74-4.79,10.9-6.24,4.21-1.45,8.9-2.18,14.06-2.18,7.02,0,13.08,1.45,18.2,4.36,5.16,2.91,9.15,6.89,11.96,11.96,2.86,5.06,4.29,10.88,4.29,17.44h-21.96c0-3.11-.45-5.84-1.35-8.2-.85-2.41-2.23-4.29-4.14-5.64-1.9-1.35-4.36-2.03-7.37-2.03-2.81,0-5.14.58-6.99,1.73-1.8,1.1-3.16,2.63-4.06,4.59-.85,1.9-1.28,4.06-1.28,6.47,0,1.81.43,3.43,1.28,4.89.9,1.4,2.13,2.68,3.68,3.83,1.55,1.1,3.38,2.18,5.49,3.23,2.16,1.05,4.51,2.08,7.07,3.08,4.96,1.96,9.35,4.11,13.16,6.47,3.81,2.31,6.99,4.91,9.55,7.82,2.56,2.86,4.49,6.09,5.79,9.7,1.3,3.61,1.96,7.72,1.96,12.33s-.8,8.72-2.41,12.48c-1.55,3.71-3.83,6.92-6.84,9.62-3.01,2.66-6.64,4.71-10.9,6.17-4.21,1.45-8.92,2.18-14.14,2.18s-9.85-.7-14.36-2.11c-4.51-1.45-8.5-3.63-11.96-6.54-3.41-2.96-6.09-6.69-8.05-11.2-1.96-4.56-2.93-9.95-2.93-16.17h22.03c0,3.31.33,6.14.98,8.5.65,2.31,1.65,4.16,3.01,5.57,1.35,1.35,3.01,2.38,4.96,3.08,2.01.65,4.29.98,6.84.98,2.91,0,5.21-.55,6.92-1.65,1.75-1.1,3.01-2.58,3.76-4.44.75-1.85,1.13-3.96,1.13-6.32Zm109.49-52.56v81.36h-21.13v-81.36h21.13Zm-22.11-21.06c0-3.26,1.03-5.94,3.08-8.05,2.11-2.16,4.91-3.23,8.42-3.23s6.37,1.08,8.42,3.23c2.06,2.11,3.08,4.79,3.08,8.05s-1.05,5.89-3.16,8.05c-2.06,2.11-4.81,3.16-8.27,3.16s-6.39-1.05-8.5-3.16c-2.06-2.16-3.08-4.84-3.08-8.05Zm126.48,80.46c0-1.4-.48-2.66-1.43-3.76-.95-1.1-2.46-2.23-4.51-3.38-2.06-1.2-4.79-2.53-8.2-3.99-3.71-1.5-6.99-3.06-9.85-4.66s-5.29-3.38-7.29-5.34c-1.96-1.96-3.43-4.19-4.44-6.69-1-2.51-1.5-5.36-1.5-8.57,0-3.46.63-6.64,1.88-9.55,1.3-2.96,3.16-5.54,5.57-7.75,2.41-2.25,5.34-4.01,8.8-5.26,3.51-1.3,7.44-1.95,11.8-1.95,6.12,0,11.36,1.08,15.72,3.23,4.41,2.11,7.8,5.06,10.15,8.87,2.36,3.81,3.53,8.25,3.53,13.31h-21.05c0-1.8-.28-3.41-.83-4.81-.55-1.45-1.45-2.58-2.71-3.38-1.2-.8-2.83-1.2-4.89-1.2-1.5,0-2.86.33-4.06.98-1.15.65-2.08,1.53-2.78,2.63-.65,1.05-.98,2.31-.98,3.76,0,1.1.23,2.08.68,2.93.5.85,1.28,1.68,2.33,2.48,1.05.8,2.46,1.65,4.21,2.56,1.8.85,4.01,1.81,6.62,2.86,5.41,2.01,9.85,4.16,13.31,6.47,3.51,2.31,6.12,5.01,7.82,8.12,1.7,3.06,2.56,6.84,2.56,11.35,0,3.61-.7,6.89-2.11,9.85-1.35,2.96-3.33,5.51-5.94,7.67-2.61,2.16-5.74,3.81-9.4,4.96-3.61,1.15-7.64,1.73-12.11,1.73-6.57,0-12.11-1.3-16.62-3.91-4.51-2.61-7.92-5.94-10.23-10-2.31-4.11-3.46-8.37-3.46-12.78h20c.1,2.71.6,4.84,1.5,6.39.95,1.5,2.23,2.56,3.83,3.16,1.6.6,3.38.9,5.34.9s3.56-.25,4.81-.75c1.3-.55,2.28-1.38,2.93-2.48.65-1.15.98-2.48.98-3.99Zm120.92-59.4v15.87h-41.51v-15.87h41.51Zm-31.96-20.08h20.98v76.62c0,2.25.22,3.99.68,5.19.45,1.2,1.13,2.06,2.03,2.56.95.45,2.21.68,3.76.68,1.05,0,2.03-.05,2.93-.15.9-.15,1.58-.3,2.03-.45v16.47c-1.65.65-3.41,1.15-5.26,1.5-1.8.35-3.96.53-6.47.53-4.21,0-7.87-.8-10.98-2.41-3.06-1.61-5.44-4.16-7.14-7.67-1.7-3.56-2.56-8.22-2.56-13.99v-78.88Zm128.06,102.94c-5.57,0-10.5-.85-14.81-2.56-4.26-1.7-7.87-4.16-10.83-7.37-2.96-3.26-5.21-7.19-6.77-11.81-1.55-4.61-2.33-9.88-2.33-15.79v-6.69c0-6.62.75-12.41,2.26-17.37,1.5-5.01,3.63-9.22,6.39-12.63,2.76-3.41,6.14-5.94,10.15-7.6,4.06-1.7,8.65-2.56,13.76-2.56s9.6.85,13.46,2.56c3.91,1.65,7.14,4.16,9.7,7.52,2.56,3.31,4.49,7.42,5.79,12.33,1.3,4.91,1.96,10.63,1.96,17.14v9.62h-54.52v-14.81h33.84v-1.88c0-3.31-.35-6.07-1.05-8.27-.7-2.26-1.81-3.94-3.31-5.04-1.5-1.1-3.51-1.65-6.02-1.65-2.11,0-3.89.43-5.34,1.28-1.45.85-2.61,2.18-3.46,3.99-.85,1.8-1.48,4.16-1.88,7.07-.4,2.86-.6,6.29-.6,10.3v6.69c0,3.76.32,6.92.98,9.47.65,2.51,1.6,4.56,2.86,6.17,1.3,1.55,2.88,2.68,4.74,3.38,1.86.65,4.01.98,6.47.98,3.71,0,7.04-.65,10-1.96,3.01-1.35,5.56-3.18,7.67-5.49l8.42,12.78c-1.45,1.9-3.46,3.81-6.01,5.71-2.56,1.9-5.62,3.46-9.17,4.66-3.56,1.2-7.67,1.8-12.33,1.8Zm113.7-66.02v64.52h-21.13v-81.36h19.85l1.28,16.84Zm-3.01,21.06l-5.79.15c-.1-5.71.4-10.98,1.5-15.79,1.1-4.81,2.76-9,4.96-12.56,2.26-3.56,5.09-6.32,8.5-8.27s7.4-2.93,11.96-2.93c2.96,0,5.69.55,8.2,1.65,2.51,1.05,4.69,2.73,6.54,5.04,1.85,2.26,3.28,5.21,4.29,8.87,1,3.61,1.5,7.95,1.5,13.01v54.29h-21.05v-51.73c0-3.61-.35-6.37-1.05-8.27-.7-1.96-1.7-3.31-3.01-4.06-1.3-.8-2.91-1.2-4.81-1.2-2.01,0-3.76.55-5.26,1.65-1.5,1.1-2.73,2.66-3.68,4.66-.9,1.96-1.6,4.26-2.11,6.92-.45,2.66-.68,5.51-.68,8.57Zm39.63-2.1l-7.59.98c-.1-5.36.38-10.35,1.43-14.96,1.05-4.66,2.68-8.72,4.89-12.18,2.21-3.51,4.96-6.24,8.27-8.2,3.36-1.96,7.24-2.93,11.66-2.93,3.31,0,6.32.55,9.02,1.65,2.71,1.1,5.01,2.88,6.92,5.34,1.96,2.41,3.43,5.59,4.44,9.55,1.05,3.96,1.58,8.77,1.58,14.44v51.88h-21.13v-51.81c0-3.66-.35-6.47-1.05-8.42-.7-1.96-1.7-3.28-3.01-3.99-1.3-.7-2.86-1.05-4.66-1.05s-3.38.5-4.74,1.5c-1.3,1-2.41,2.41-3.31,4.21-.9,1.75-1.58,3.83-2.03,6.24-.45,2.36-.68,4.94-.68,7.75Zm150.85-35.79h19.1v81.36c0,7.42-1.43,13.49-4.29,18.2-2.81,4.76-6.74,8.25-11.81,10.45-5.01,2.26-10.88,3.38-17.6,3.38-2.56,0-5.44-.35-8.65-1.05-3.16-.7-6.22-1.78-9.17-3.23-2.96-1.4-5.39-3.11-7.29-5.11l7.14-14.59c1.96,1.96,4.51,3.61,7.67,4.96,3.16,1.4,6.27,2.1,9.32,2.1s5.41-.48,7.37-1.43c2.01-.9,3.51-2.46,4.51-4.66,1.05-2.21,1.58-5.16,1.58-8.87v-62.64l2.1-18.87Zm-45.42,43.54v-5.41c0-6.62.63-12.41,1.88-17.37,1.25-4.96,3.06-9.1,5.41-12.41,2.36-3.31,5.24-5.76,8.65-7.37,3.46-1.65,7.32-2.48,11.58-2.48s8.2.98,11.2,2.93c3.01,1.9,5.44,4.59,7.29,8.05,1.91,3.46,3.36,7.54,4.36,12.26,1.05,4.71,1.85,9.88,2.41,15.49v7.82c-.55,5.31-1.45,10.28-2.71,14.89-1.2,4.61-2.81,8.62-4.81,12.03-2.01,3.41-4.46,6.09-7.37,8.04-2.91,1.9-6.42,2.86-10.53,2.86s-8.02-.85-11.43-2.56c-3.36-1.7-6.24-4.21-8.65-7.52-2.36-3.36-4.16-7.47-5.41-12.33-1.25-4.91-1.88-10.55-1.88-16.92Zm21.13-5.41v5.41c0,3.81.23,7.09.68,9.85.5,2.71,1.25,4.94,2.26,6.69,1,1.7,2.28,2.98,3.83,3.83,1.6.8,3.48,1.2,5.64,1.2,3.06,0,5.49-.7,7.29-2.11,1.85-1.45,3.21-3.43,4.06-5.94.9-2.56,1.4-5.49,1.5-8.8v-14.21c-.05-2.76-.38-5.24-.98-7.44-.55-2.21-1.33-4.09-2.33-5.64-1-1.55-2.31-2.76-3.91-3.61-1.55-.85-3.38-1.28-5.49-1.28s-4.01.43-5.57,1.28c-1.55.85-2.86,2.18-3.91,3.99-1,1.75-1.78,4.04-2.33,6.84-.5,2.76-.75,6.07-.75,9.93Zm146.56,24.51v-37.6c0-2.46-.3-4.41-.9-5.87-.55-1.45-1.4-2.51-2.56-3.16-1.1-.7-2.46-1.05-4.06-1.05-1.8,0-3.31.38-4.51,1.13-1.2.75-2.11,1.83-2.71,3.23-.55,1.4-.83,3.08-.83,5.04h-21.13c0-3.51.68-6.82,2.03-9.93,1.35-3.16,3.33-5.91,5.94-8.27,2.66-2.41,5.82-4.29,9.47-5.64,3.66-1.35,7.77-2.03,12.33-2.03,5.41,0,10.23.93,14.44,2.78,4.21,1.81,7.55,4.69,10,8.65,2.46,3.96,3.68,9.1,3.68,15.42v36.24c0,4.56.22,8.27.68,11.13.5,2.86,1.23,5.31,2.18,7.37v1.28h-21.21c-.95-2.26-1.68-5.06-2.18-8.42-.45-3.41-.68-6.84-.68-10.3Zm2.56-30.98l.08,12.63h-7.74c-2.01,0-3.76.33-5.26.98-1.45.65-2.68,1.58-3.68,2.78-1,1.15-1.75,2.51-2.26,4.06-.45,1.55-.68,3.21-.68,4.96,0,1.96.28,3.61.83,4.96.55,1.35,1.38,2.38,2.48,3.08,1.1.7,2.41,1.05,3.91,1.05,2.31,0,4.31-.48,6.02-1.43,1.7-.95,2.96-2.11,3.76-3.46.85-1.35,1.13-2.61.83-3.76l4.81,8.2c-.6,1.86-1.43,3.79-2.48,5.79-1,2.01-2.28,3.86-3.84,5.57-1.55,1.7-3.48,3.11-5.79,4.21-2.26,1.05-4.94,1.58-8.05,1.58-4.36,0-8.35-1-11.96-3.01s-6.47-4.81-8.57-8.42c-2.06-3.61-3.08-7.9-3.08-12.86,0-4.11.65-7.82,1.95-11.13,1.35-3.36,3.36-6.19,6.02-8.5,2.66-2.36,6.02-4.16,10.08-5.41,4.06-1.25,8.82-1.88,14.29-1.88h8.35Zm121.89,27.75c0-1.4-.47-2.66-1.43-3.76-.95-1.1-2.45-2.23-4.51-3.38-2.05-1.2-4.78-2.53-8.19-3.99-3.71-1.5-7-3.06-9.85-4.66-2.86-1.6-5.29-3.38-7.3-5.34-1.95-1.96-3.43-4.19-4.43-6.69-1-2.51-1.5-5.36-1.5-8.57,0-3.46.63-6.64,1.88-9.55,1.3-2.96,3.16-5.54,5.57-7.75,2.4-2.25,5.33-4.01,8.79-5.26,3.51-1.3,7.45-1.95,11.81-1.95,6.12,0,11.35,1.08,15.72,3.23,4.41,2.11,7.79,5.06,10.15,8.87,2.35,3.81,3.53,8.25,3.53,13.31h-21.05c0-1.8-.28-3.41-.83-4.81-.55-1.45-1.46-2.58-2.71-3.38-1.2-.8-2.83-1.2-4.89-1.2-1.5,0-2.85.33-4.06.98-1.15.65-2.08,1.53-2.78,2.63-.65,1.05-.98,2.31-.98,3.76,0,1.1.23,2.08.68,2.93.5.85,1.28,1.68,2.33,2.48,1.05.8,2.46,1.65,4.21,2.56,1.81.85,4.01,1.81,6.62,2.86,5.41,2.01,9.85,4.16,13.31,6.47,3.51,2.31,6.12,5.01,7.82,8.12,1.7,3.06,2.56,6.84,2.56,11.35,0,3.61-.71,6.89-2.11,9.85-1.35,2.96-3.33,5.51-5.94,7.67-2.61,2.16-5.74,3.81-9.4,4.96-3.61,1.15-7.64,1.73-12.11,1.73-6.56,0-12.1-1.3-16.61-3.91-4.52-2.61-7.92-5.94-10.23-10-2.31-4.11-3.46-8.37-3.46-12.78h20c.1,2.71.6,4.84,1.51,6.39.95,1.5,2.23,2.56,3.83,3.16,1.61.6,3.39.9,5.34.9s3.56-.25,4.81-.75c1.31-.55,2.28-1.38,2.94-2.48.65-1.15.97-2.48.97-3.99Z"/>
  <path class="cls-1" d="m181.91,48.57c-1.39-3.36-3.54-6.34-6.3-8.76l-2.28-2c-.08-.07-.17-.11-.28-.13-.1-.02-.22-.02-.32.01-.11.03-.21.08-.29.15-.09.07-.15.16-.2.26l-1.25,2.95c-.78,1.85-2.13,3.76-3.99,5.66-.12.12-.26.16-.35.17-.09.01-.23,0-.35-.1-.11-.09-.16-.23-.14-.37.6-4.71-.57-9.96-3.47-15.62-2.4-4.7-5.91-8.31-10.43-10.76l-3.3-1.78c-.43-.23-1.02.11-1.03.6l-.05,3.74c-.03,2.56-.49,4.83-1.35,6.74-1.05,2.34-2.49,4.52-4.28,6.5-1.24,1.38-2.64,2.63-4.15,3.74-3.64,2.65-6.67,6-8.87,9.78-2.2,3.81-3.47,7.97-3.73,12.16-.23,3.69.32,7.23,1.63,10.54,1.27,3.19,3.21,6.06,5.71,8.45,2.52,2.41,5.51,4.27,8.89,5.51,3.5,1.3,7.26,1.88,11.18,1.75,3.93-.14,7.77-.99,11.44-2.52,3.54-1.48,6.8-3.57,9.61-6.16,2.83-2.59,5.11-5.59,6.77-8.88,1.73-3.41,2.73-7.05,2.94-10.7.23-3.81-.36-7.49-1.79-10.92Z"/>
</svg>