<?xml version="1.0" encoding="utf-8"?>
<!-- Generator: Adobe Illustrator 27.5.0, SVG Export Plug-In . SVG Version: 6.00 Build 0)  -->
<svg version="1.1" id="Layer_1" xmlns="http://www.w3.org/2000/svg" xmlns:xlink="http://www.w3.org/1999/xlink" x="0px" y="0px"
	 viewBox="0 0 1061 213.4" style="enable-background:new 0 0 1061 213.4;" xml:space="preserve">
<style type="text/css">
	.st0{fill:#FF0000;}
</style>
<path d="M55.7,147.6c0-2-0.2-3.7-0.5-5.3c-0.4-1.6-1.1-3.1-2.3-4.4c-1.1-1.4-2.7-2.7-4.9-4.1c-2.1-1.4-4.9-2.8-8.3-4.2
	c-4.1-1.7-8-3.5-11.8-5.4c-3.8-2-7.2-4.2-10.3-6.8c-3.1-2.6-5.5-5.6-7.3-9c-1.8-3.5-2.6-7.6-2.6-12.3c0-4.6,0.8-8.8,2.5-12.6
	c1.7-3.8,4.1-7,7.2-9.6c3.1-2.7,6.7-4.8,10.9-6.2c4.2-1.5,8.9-2.2,14.1-2.2c7,0,13.1,1.5,18.2,4.4c5.2,2.9,9.1,6.9,12,12
	c2.9,5.1,4.3,10.9,4.3,17.4h-22c0-3.1-0.5-5.8-1.4-8.2c-0.9-2.4-2.2-4.3-4.1-5.6c-1.9-1.4-4.4-2-7.4-2c-2.8,0-5.1,0.6-7,1.7
	c-1.8,1.1-3.2,2.6-4.1,4.6c-0.9,1.9-1.3,4.1-1.3,6.5c0,1.8,0.4,3.4,1.3,4.9c0.9,1.4,2.1,2.7,3.7,3.8c1.6,1.1,3.4,2.2,5.5,3.2
	c2.2,1.1,4.5,2.1,7.1,3.1c5,2,9.3,4.1,13.2,6.5c3.8,2.3,7,4.9,9.5,7.8c2.6,2.9,4.5,6.1,5.8,9.7c1.3,3.6,2,7.7,2,12.3
	c0,4.6-0.8,8.7-2.4,12.5c-1.6,3.7-3.8,6.9-6.8,9.6c-3,2.7-6.6,4.7-10.9,6.2c-4.2,1.5-8.9,2.2-14.1,2.2c-5.1,0-9.9-0.7-14.4-2.1
	c-4.5-1.5-8.5-3.6-12-6.5c-3.4-3-6.1-6.7-8-11.2c-2-4.6-2.9-10-2.9-16.2h22c0,3.3,0.3,6.1,1,8.5c0.7,2.3,1.7,4.2,3,5.6
	c1.4,1.4,3,2.4,5,3.1c2,0.7,4.3,1,6.8,1c2.9,0,5.2-0.6,6.9-1.7c1.8-1.1,3-2.6,3.8-4.4C55.3,152.1,55.7,150,55.7,147.6z M165.2,95.1
	v81.4h-21.1V95.1H165.2z M143.1,74c0-3.3,1-5.9,3.1-8c2.1-2.2,4.9-3.2,8.4-3.2c3.6,0,6.4,1.1,8.4,3.2c2.1,2.1,3.1,4.8,3.1,8
	c0,3.2-1.1,5.9-3.2,8c-2.1,2.1-4.8,3.2-8.3,3.2c-3.6,0-6.4-1.1-8.5-3.2C144.1,79.9,143.1,77.2,143.1,74z M269.6,154.5
	c0-1.4-0.5-2.7-1.4-3.8c-1-1.1-2.5-2.2-4.5-3.4c-2.1-1.2-4.8-2.5-8.2-4c-3.7-1.5-7-3.1-9.9-4.7s-5.3-3.4-7.3-5.3
	c-2-2-3.4-4.2-4.4-6.7c-1-2.5-1.5-5.4-1.5-8.6c0-3.5,0.6-6.6,1.9-9.5c1.3-3,3.2-5.5,5.6-7.7c2.4-2.3,5.3-4,8.8-5.3
	c3.5-1.3,7.4-2,11.8-2c6.1,0,11.4,1.1,15.7,3.2c4.4,2.1,7.8,5.1,10.2,8.9c2.4,3.8,3.5,8.2,3.5,13.3h-21.1c0-1.8-0.3-3.4-0.8-4.8
	c-0.6-1.5-1.5-2.6-2.7-3.4c-1.2-0.8-2.8-1.2-4.9-1.2c-1.5,0-2.9,0.3-4.1,1c-1.2,0.7-2.1,1.5-2.8,2.6c-0.7,1.1-1,2.3-1,3.8
	c0,1.1,0.2,2.1,0.7,2.9c0.5,0.9,1.3,1.7,2.3,2.5c1.1,0.8,2.5,1.7,4.2,2.6c1.8,0.9,4,1.8,6.6,2.9c5.4,2,9.9,4.2,13.3,6.5
	c3.5,2.3,6.1,5,7.8,8.1c1.7,3.1,2.6,6.8,2.6,11.4c0,3.6-0.7,6.9-2.1,9.9c-1.4,3-3.3,5.5-5.9,7.7c-2.6,2.2-5.7,3.8-9.4,5
	c-3.6,1.2-7.6,1.7-12.1,1.7c-6.6,0-12.1-1.3-16.6-3.9c-4.5-2.6-7.9-5.9-10.2-10c-2.3-4.1-3.5-8.4-3.5-12.8h20
	c0.1,2.7,0.6,4.8,1.5,6.4c1,1.5,2.2,2.6,3.8,3.2c1.6,0.6,3.4,0.9,5.3,0.9c2,0,3.6-0.3,4.8-0.8c1.3-0.6,2.3-1.4,2.9-2.5
	C269.2,157.3,269.6,156,269.6,154.5z M390.5,95.1v15.9H349V95.1H390.5z M358.5,75h21v76.6c0,2.3,0.2,4,0.7,5.2
	c0.5,1.2,1.1,2.1,2,2.6c1,0.5,2.2,0.7,3.8,0.7c1.1,0,2,0,2.9-0.1c0.9-0.1,1.6-0.3,2-0.5v16.5c-1.7,0.7-3.4,1.2-5.3,1.5
	c-1.8,0.4-4,0.5-6.5,0.5c-4.2,0-7.9-0.8-11-2.4c-3.1-1.6-5.4-4.2-7.1-7.7c-1.7-3.6-2.6-8.2-2.6-14V75z M486.6,177.9
	c-5.6,0-10.5-0.9-14.8-2.6c-4.3-1.7-7.9-4.2-10.8-7.4c-3-3.3-5.2-7.2-6.8-11.8c-1.6-4.6-2.3-9.9-2.3-15.8v-6.7
	c0-6.6,0.8-12.4,2.3-17.4c1.5-5,3.6-9.2,6.4-12.6c2.8-3.4,6.1-5.9,10.2-7.6c4.1-1.7,8.6-2.6,13.8-2.6c5.1,0,9.6,0.9,13.5,2.6
	c3.9,1.7,7.1,4.2,9.7,7.5c2.6,3.3,4.5,7.4,5.8,12.3c1.3,4.9,2,10.6,2,17.1v9.6h-54.5v-14.8h33.8v-1.9c0-3.3-0.4-6.1-1.1-8.3
	c-0.7-2.3-1.8-3.9-3.3-5c-1.5-1.1-3.5-1.7-6-1.7c-2.1,0-3.9,0.4-5.3,1.3c-1.5,0.9-2.6,2.2-3.5,4c-0.9,1.8-1.5,4.2-1.9,7.1
	c-0.4,2.9-0.6,6.3-0.6,10.3v6.7c0,3.8,0.3,6.9,1,9.5c0.7,2.5,1.6,4.6,2.9,6.2c1.3,1.6,2.9,2.7,4.7,3.4c1.9,0.7,4,1,6.5,1
	c3.7,0,7-0.7,10-2c3-1.4,5.6-3.2,7.7-5.5l8.4,12.8c-1.5,1.9-3.5,3.8-6,5.7c-2.6,1.9-5.6,3.5-9.2,4.7
	C495.4,177.3,491.2,177.9,486.6,177.9z M600.3,111.9v64.5h-21.1V95.1H599L600.3,111.9z M597.3,133l-5.8,0.1
	c-0.1-5.7,0.4-11,1.5-15.8c1.1-4.8,2.8-9,5-12.6c2.3-3.6,5.1-6.3,8.5-8.3s7.4-2.9,12-2.9c3,0,5.7,0.6,8.2,1.7c2.5,1.1,4.7,2.7,6.5,5
	c1.9,2.3,3.3,5.2,4.3,8.9c1,3.6,1.5,7.9,1.5,13v54.3h-21.1v-51.7c0-3.6-0.4-6.4-1.1-8.3c-0.7-2-1.7-3.3-3-4.1
	c-1.3-0.8-2.9-1.2-4.8-1.2c-2,0-3.8,0.6-5.3,1.7c-1.5,1.1-2.7,2.7-3.7,4.7c-0.9,2-1.6,4.3-2.1,6.9
	C597.5,127.1,597.3,129.9,597.3,133z M636.9,130.9l-7.6,1c-0.1-5.4,0.4-10.4,1.4-15c1.1-4.7,2.7-8.7,4.9-12.2c2.2-3.5,5-6.2,8.3-8.2
	c3.4-2,7.2-2.9,11.7-2.9c3.3,0,6.3,0.6,9,1.7c2.7,1.1,5,2.9,6.9,5.3c2,2.4,3.4,5.6,4.4,9.6c1.1,4,1.6,8.8,1.6,14.4v51.9h-21.1v-51.8
	c0-3.7-0.4-6.5-1.1-8.4c-0.7-2-1.7-3.3-3-4c-1.3-0.7-2.9-1.1-4.7-1.1c-1.8,0-3.4,0.5-4.7,1.5c-1.3,1-2.4,2.4-3.3,4.2
	c-0.9,1.8-1.6,3.8-2,6.2C637.1,125.5,636.9,128.1,636.9,130.9z M787.8,95.1h19.1v81.4c0,7.4-1.4,13.5-4.3,18.2
	c-2.8,4.8-6.7,8.2-11.8,10.5c-5,2.3-10.9,3.4-17.6,3.4c-2.6,0-5.4-0.4-8.6-1.1c-3.2-0.7-6.2-1.8-9.2-3.2c-3-1.4-5.4-3.1-7.3-5.1
	l7.1-14.6c2,2,4.5,3.6,7.7,5c3.2,1.4,6.3,2.1,9.3,2.1c3,0,5.4-0.5,7.4-1.4c2-0.9,3.5-2.5,4.5-4.7c1.1-2.2,1.6-5.2,1.6-8.9V114
	L787.8,95.1z M742.3,138.6v-5.4c0-6.6,0.6-12.4,1.9-17.4c1.3-5,3.1-9.1,5.4-12.4c2.4-3.3,5.2-5.8,8.6-7.4c3.5-1.7,7.3-2.5,11.6-2.5
	c4.5,0,8.2,1,11.2,2.9c3,1.9,5.4,4.6,7.3,8c1.9,3.5,3.4,7.5,4.4,12.3c1.1,4.7,1.9,9.9,2.4,15.5v7.8c-0.6,5.3-1.5,10.3-2.7,14.9
	c-1.2,4.6-2.8,8.6-4.8,12c-2,3.4-4.5,6.1-7.4,8c-2.9,1.9-6.4,2.9-10.5,2.9c-4.2,0-8-0.9-11.4-2.6c-3.4-1.7-6.2-4.2-8.6-7.5
	c-2.4-3.4-4.2-7.5-5.4-12.3C743,150.6,742.3,145,742.3,138.6z M763.5,133.2v5.4c0,3.8,0.2,7.1,0.7,9.8c0.5,2.7,1.3,4.9,2.3,6.7
	c1,1.7,2.3,3,3.8,3.8c1.6,0.8,3.5,1.2,5.6,1.2c3.1,0,5.5-0.7,7.3-2.1c1.9-1.5,3.2-3.4,4.1-5.9c0.9-2.6,1.4-5.5,1.5-8.8v-14.2
	c0-2.8-0.4-5.2-1-7.4c-0.6-2.2-1.3-4.1-2.3-5.6c-1-1.6-2.3-2.8-3.9-3.6c-1.6-0.9-3.4-1.3-5.5-1.3c-2.2,0-4,0.4-5.6,1.3
	c-1.6,0.9-2.9,2.2-3.9,4c-1,1.8-1.8,4-2.3,6.8C763.7,126,763.5,129.3,763.5,133.2z M910,157.7v-37.6c0-2.5-0.3-4.4-0.9-5.9
	c-0.6-1.5-1.4-2.5-2.6-3.2c-1.1-0.7-2.5-1.1-4.1-1.1c-1.8,0-3.3,0.4-4.5,1.1c-1.2,0.8-2.1,1.8-2.7,3.2c-0.6,1.4-0.8,3.1-0.8,5h-21.1
	c0-3.5,0.7-6.8,2-9.9c1.4-3.2,3.3-5.9,5.9-8.3c2.7-2.4,5.8-4.3,9.5-5.6c3.7-1.4,7.8-2,12.3-2c5.4,0,10.2,0.9,14.4,2.8
	c4.2,1.8,7.5,4.7,10,8.6c2.5,4,3.7,9.1,3.7,15.4v36.2c0,4.6,0.2,8.3,0.7,11.1c0.5,2.9,1.2,5.3,2.2,7.4v1.3h-21.2
	c-1-2.3-1.7-5.1-2.2-8.4C910.3,164.6,910,161.2,910,157.7z M912.6,126.7l0.1,12.6h-7.7c-2,0-3.8,0.3-5.3,1c-1.5,0.7-2.7,1.6-3.7,2.8
	c-1,1.2-1.8,2.5-2.3,4.1c-0.5,1.6-0.7,3.2-0.7,5c0,2,0.3,3.6,0.8,5c0.6,1.4,1.4,2.4,2.5,3.1c1.1,0.7,2.4,1.1,3.9,1.1
	c2.3,0,4.3-0.5,6-1.4c1.7-1,3-2.1,3.8-3.5c0.9-1.4,1.1-2.6,0.8-3.8l4.8,8.2c-0.6,1.9-1.4,3.8-2.5,5.8c-1,2-2.3,3.9-3.8,5.6
	c-1.6,1.7-3.5,3.1-5.8,4.2c-2.3,1.1-4.9,1.6-8,1.6c-4.4,0-8.3-1-12-3s-6.5-4.8-8.6-8.4c-2.1-3.6-3.1-7.9-3.1-12.9
	c0-4.1,0.7-7.8,2-11.1c1.4-3.4,3.4-6.2,6-8.5c2.7-2.4,6-4.2,10.1-5.4c4.1-1.3,8.8-1.9,14.3-1.9H912.6z M1034.5,154.5
	c0-1.4-0.5-2.7-1.4-3.8c-1-1.1-2.5-2.2-4.5-3.4c-2.1-1.2-4.8-2.5-8.2-4c-3.7-1.5-7-3.1-9.8-4.7c-2.9-1.6-5.3-3.4-7.3-5.3
	c-2-2-3.4-4.2-4.4-6.7c-1-2.5-1.5-5.4-1.5-8.6c0-3.5,0.6-6.6,1.9-9.5c1.3-3,3.2-5.5,5.6-7.7c2.4-2.3,5.3-4,8.8-5.3
	c3.5-1.3,7.5-2,11.8-2c6.1,0,11.3,1.1,15.7,3.2c4.4,2.1,7.8,5.1,10.2,8.9c2.3,3.8,3.5,8.2,3.5,13.3h-21c0-1.8-0.3-3.4-0.8-4.8
	c-0.5-1.5-1.5-2.6-2.7-3.4c-1.2-0.8-2.8-1.2-4.9-1.2c-1.5,0-2.8,0.3-4.1,1c-1.1,0.7-2.1,1.5-2.8,2.6c-0.7,1.1-1,2.3-1,3.8
	c0,1.1,0.2,2.1,0.7,2.9c0.5,0.9,1.3,1.7,2.3,2.5c1,0.8,2.5,1.7,4.2,2.6c1.8,0.9,4,1.8,6.6,2.9c5.4,2,9.8,4.2,13.3,6.5
	c3.5,2.3,6.1,5,7.8,8.1c1.7,3.1,2.6,6.8,2.6,11.4c0,3.6-0.7,6.9-2.1,9.9c-1.3,3-3.3,5.5-5.9,7.7c-2.6,2.2-5.7,3.8-9.4,5
	c-3.6,1.2-7.6,1.7-12.1,1.7c-6.6,0-12.1-1.3-16.6-3.9c-4.5-2.6-7.9-5.9-10.2-10c-2.3-4.1-3.5-8.4-3.5-12.8h20
	c0.1,2.7,0.6,4.8,1.5,6.4c0.9,1.5,2.2,2.6,3.8,3.2c1.6,0.6,3.4,0.9,5.3,0.9c2,0,3.6-0.3,4.8-0.8c1.3-0.6,2.3-1.4,2.9-2.5
	C1034.2,157.3,1034.5,156,1034.5,154.5z"/>
<path class="st0" d="M181.9,48.6c-1.4-3.4-3.5-6.3-6.3-8.8l-2.3-2c-0.1-0.1-0.2-0.1-0.3-0.1c-0.1,0-0.2,0-0.3,0
	c-0.1,0-0.2,0.1-0.3,0.2c-0.1,0.1-0.2,0.2-0.2,0.3l-1.3,3c-0.8,1.9-2.1,3.8-4,5.7c-0.1,0.1-0.3,0.2-0.3,0.2c-0.1,0-0.2,0-0.3-0.1
	c-0.1-0.1-0.2-0.2-0.1-0.4c0.6-4.7-0.6-10-3.5-15.6c-2.4-4.7-5.9-8.3-10.4-10.8l-3.3-1.8c-0.4-0.2-1,0.1-1,0.6l0,3.7
	c0,2.6-0.5,4.8-1.3,6.7c-1.1,2.3-2.5,4.5-4.3,6.5c-1.2,1.4-2.6,2.6-4.1,3.7c-3.6,2.7-6.7,6-8.9,9.8c-2.2,3.8-3.5,8-3.7,12.2
	c-0.2,3.7,0.3,7.2,1.6,10.5c1.3,3.2,3.2,6.1,5.7,8.4c2.5,2.4,5.5,4.3,8.9,5.5c3.5,1.3,7.3,1.9,11.2,1.7c3.9-0.1,7.8-1,11.4-2.5
	c3.5-1.5,6.8-3.6,9.6-6.2c2.8-2.6,5.1-5.6,6.8-8.9c1.7-3.4,2.7-7.1,2.9-10.7C183.9,55.7,183.3,52,181.9,48.6z"/>
</svg>
