<svg width="1061" height="228" viewBox="0 0 1061 228" fill="none" xmlns="http://www.w3.org/2000/svg">
<path d="M55.6927 162.2C55.6927 160.245 55.5173 158.465 55.1664 156.861C54.8155 155.257 54.0635 153.778 52.9105 152.425C51.8077 151.071 50.1784 149.718 48.0228 148.364C45.9174 147.011 43.1602 145.607 39.7513 144.153C35.6908 142.449 31.7556 140.644 27.9457 138.739C24.1358 136.784 20.7019 134.528 17.6439 131.972C14.586 129.415 12.1547 126.407 10.35 122.948C8.59542 119.439 7.71814 115.328 7.71814 110.616C7.71814 106.004 8.54529 101.818 10.1996 98.0586C11.904 94.2988 14.3103 91.0905 17.4183 88.4336C20.5264 85.7265 24.1608 83.6461 28.3217 82.1923C32.5326 80.7386 37.2198 80.0117 42.3832 80.0117C49.4014 80.0117 55.4672 81.4655 60.5804 84.373C65.7439 87.2806 69.7292 91.2659 72.5365 96.3291C75.3939 101.392 76.8226 107.207 76.8226 113.774H54.8656C54.8656 110.666 54.4144 107.934 53.5121 105.578C52.6599 103.172 51.2813 101.292 49.3763 99.9384C47.4714 98.5849 45.015 97.9082 42.0072 97.9082C39.1999 97.9082 36.8689 98.4847 35.014 99.6377C33.2094 100.741 31.8558 102.269 30.9535 104.225C30.1013 106.13 29.6752 108.285 29.6752 110.691C29.6752 112.496 30.1013 114.125 30.9535 115.579C31.8558 116.983 33.084 118.261 34.6381 119.414C36.1921 120.517 38.0219 121.595 40.1273 122.647C42.2829 123.7 44.639 124.728 47.1957 125.73C52.1586 127.686 56.545 129.841 60.3549 132.197C64.1648 134.503 67.348 137.11 69.9047 140.018C72.4613 142.875 74.3913 146.108 75.6947 149.718C76.9981 153.327 77.6498 157.438 77.6498 162.05C77.6498 166.612 76.8477 170.772 75.2435 174.532C73.6895 178.242 71.4086 181.45 68.4008 184.157C65.3929 186.814 61.7585 188.869 57.4974 190.323C53.2865 191.777 48.5743 192.504 43.3607 192.504C38.2976 192.504 33.5101 191.802 28.9984 190.398C24.4867 188.945 20.5013 186.764 17.0424 183.856C13.6335 180.899 10.9515 177.164 8.99646 172.652C7.04138 168.09 6.06384 162.701 6.06384 156.485H28.0961C28.0961 159.794 28.4219 162.626 29.0736 164.982C29.7253 167.288 30.7279 169.143 32.0814 170.547C33.4349 171.9 35.0892 172.928 37.0443 173.63C39.0495 174.282 41.3304 174.607 43.8871 174.607C46.7946 174.607 49.1006 174.056 50.8051 172.953C52.5596 171.85 53.8129 170.371 54.5648 168.517C55.3168 166.662 55.6927 164.556 55.6927 162.2ZM165.183 109.639V191H144.053V109.639H165.183ZM143.076 88.5839C143.076 85.3255 144.103 82.6435 146.159 80.538C148.264 78.3824 151.071 77.3046 154.581 77.3046C158.14 77.3046 160.947 78.3824 163.002 80.538C165.058 82.6435 166.085 85.3255 166.085 88.5839C166.085 91.7923 165.033 94.4742 162.927 96.6298C160.872 98.7353 158.115 99.788 154.656 99.788C151.097 99.788 148.264 98.7353 146.159 96.6298C144.103 94.4742 143.076 91.7923 143.076 88.5839ZM269.56 169.043C269.56 167.639 269.084 166.386 268.132 165.283C267.179 164.18 265.675 163.052 263.62 161.899C261.564 160.696 258.832 159.368 255.424 157.914C251.714 156.41 248.43 154.856 245.573 153.252C242.716 151.648 240.284 149.868 238.279 147.913C236.324 145.958 234.845 143.727 233.842 141.221C232.84 138.714 232.339 135.857 232.339 132.648C232.339 129.189 232.965 126.006 234.218 123.099C235.522 120.141 237.377 117.559 239.783 115.353C242.189 113.098 245.122 111.343 248.581 110.09C252.09 108.786 256.025 108.135 260.386 108.135C266.502 108.135 271.741 109.213 276.102 111.368C280.514 113.474 283.897 116.431 286.254 120.241C288.61 124.051 289.788 128.488 289.788 133.551H268.733C268.733 131.746 268.457 130.142 267.906 128.738C267.355 127.284 266.452 126.157 265.199 125.354C263.996 124.552 262.367 124.151 260.311 124.151C258.807 124.151 257.454 124.477 256.251 125.129C255.098 125.781 254.17 126.658 253.468 127.761C252.817 128.813 252.491 130.067 252.491 131.52C252.491 132.623 252.716 133.601 253.168 134.453C253.669 135.305 254.446 136.132 255.499 136.935C256.551 137.737 257.955 138.589 259.71 139.491C261.514 140.343 263.72 141.296 266.327 142.349C271.741 144.354 276.177 146.509 279.636 148.815C283.146 151.121 285.752 153.828 287.457 156.936C289.161 159.994 290.013 163.779 290.013 168.291C290.013 171.9 289.312 175.184 287.908 178.142C286.554 181.099 284.574 183.656 281.967 185.811C279.361 187.967 276.228 189.621 272.568 190.774C268.959 191.927 264.923 192.504 260.462 192.504C253.895 192.504 248.355 191.2 243.843 188.594C239.332 185.987 235.923 182.653 233.617 178.593C231.311 174.482 230.158 170.221 230.158 165.81H250.16C250.26 168.517 250.761 170.647 251.664 172.201C252.616 173.705 253.895 174.758 255.499 175.359C257.103 175.961 258.883 176.262 260.838 176.262C262.793 176.262 264.397 176.011 265.65 175.51C266.953 174.958 267.931 174.131 268.583 173.028C269.234 171.875 269.56 170.547 269.56 169.043ZM390.48 109.639V125.505H348.973V109.639H390.48ZM358.522 89.5615H379.502V166.186C379.502 168.441 379.727 170.171 380.179 171.374C380.63 172.577 381.306 173.429 382.209 173.931C383.161 174.382 384.415 174.607 385.969 174.607C387.021 174.607 387.999 174.557 388.901 174.457C389.804 174.307 390.48 174.156 390.931 174.006V190.474C389.277 191.125 387.523 191.627 385.668 191.978C383.863 192.328 381.708 192.504 379.201 192.504C374.99 192.504 371.331 191.702 368.223 190.098C365.165 188.493 362.783 185.937 361.079 182.428C359.375 178.868 358.522 174.206 358.522 168.441V89.5615ZM486.586 192.504C481.021 192.504 476.084 191.652 471.772 189.947C467.511 188.243 463.902 185.786 460.944 182.578C457.987 179.32 455.731 175.384 454.177 170.772C452.623 166.16 451.846 160.897 451.846 154.981V148.289C451.846 141.672 452.598 135.882 454.102 130.919C455.605 125.906 457.736 121.695 460.493 118.286C463.25 114.877 466.634 112.346 470.645 110.691C474.705 108.987 479.292 108.135 484.405 108.135C489.519 108.135 494.005 108.987 497.865 110.691C501.775 112.346 505.009 114.852 507.565 118.211C510.122 121.519 512.052 125.63 513.355 130.543C514.659 135.456 515.311 141.171 515.311 147.687V157.312H460.794V142.499H494.632V140.619C494.632 137.311 494.281 134.553 493.579 132.348C492.877 130.092 491.774 128.412 490.271 127.31C488.767 126.207 486.761 125.655 484.255 125.655C482.149 125.655 480.37 126.081 478.916 126.934C477.462 127.786 476.309 129.114 475.457 130.919C474.605 132.724 473.978 135.08 473.577 137.987C473.176 140.845 472.976 144.279 472.976 148.289V154.981C472.976 158.741 473.301 161.899 473.953 164.456C474.605 166.963 475.557 169.018 476.811 170.622C478.114 172.176 479.693 173.304 481.548 174.006C483.403 174.658 485.558 174.983 488.015 174.983C491.724 174.983 495.058 174.332 498.016 173.028C501.023 171.675 503.58 169.845 505.686 167.539L514.107 180.322C512.654 182.227 510.648 184.132 508.092 186.037C505.535 187.942 502.477 189.496 498.918 190.699C495.359 191.902 491.248 192.504 486.586 192.504ZM600.287 126.482V191H579.157V109.639H599.009L600.287 126.482ZM597.279 147.537L591.489 147.687C591.389 141.973 591.89 136.709 592.993 131.896C594.096 127.084 595.751 122.898 597.956 119.339C600.212 115.78 603.044 113.022 606.453 111.067C609.862 109.112 613.848 108.135 618.409 108.135C621.367 108.135 624.099 108.686 626.606 109.789C629.112 110.842 631.293 112.521 633.148 114.827C635.002 117.083 636.431 120.041 637.434 123.7C638.436 127.31 638.938 131.646 638.938 136.709V191H617.883V139.266C617.883 135.656 617.532 132.899 616.83 130.994C616.128 129.039 615.126 127.686 613.822 126.934C612.519 126.131 610.915 125.73 609.01 125.73C607.005 125.73 605.25 126.282 603.746 127.385C602.242 128.488 601.014 130.042 600.062 132.047C599.159 134.002 598.458 136.308 597.956 138.965C597.505 141.622 597.279 144.479 597.279 147.537ZM636.907 145.432L629.313 146.409C629.212 141.045 629.689 136.057 630.741 131.445C631.794 126.783 633.423 122.723 635.629 119.264C637.835 115.755 640.592 113.022 643.901 111.067C647.259 109.112 651.144 108.135 655.556 108.135C658.864 108.135 661.872 108.686 664.579 109.789C667.286 110.892 669.592 112.672 671.497 115.128C673.452 117.534 674.931 120.717 675.934 124.678C676.987 128.638 677.513 133.45 677.513 139.115V191H656.383V139.19C656.383 135.531 656.032 132.724 655.33 130.769C654.628 128.813 653.626 127.485 652.322 126.783C651.019 126.081 649.465 125.73 647.66 125.73C645.856 125.73 644.277 126.232 642.923 127.234C641.62 128.237 640.517 129.641 639.614 131.445C638.712 133.2 638.035 135.28 637.584 137.686C637.133 140.043 636.907 142.624 636.907 145.432ZM787.755 109.639H806.855V191C806.855 198.419 805.426 204.485 802.569 209.197C799.761 213.96 795.826 217.444 790.763 219.649C785.75 221.905 779.885 223.033 773.167 223.033C770.611 223.033 767.728 222.682 764.52 221.98C761.362 221.279 758.304 220.201 755.346 218.747C752.388 217.343 749.957 215.639 748.052 213.634L755.196 199.046C757.151 201.001 759.707 202.655 762.866 204.009C766.024 205.412 769.132 206.114 772.19 206.114C775.147 206.114 777.604 205.638 779.559 204.686C781.564 203.783 783.068 202.229 784.071 200.023C785.123 197.818 785.65 194.86 785.65 191.15V128.513L787.755 109.639ZM742.337 153.177V147.763C742.337 141.145 742.964 135.355 744.217 130.393C745.47 125.43 747.275 121.294 749.631 117.985C751.987 114.677 754.87 112.22 758.279 110.616C761.738 108.962 765.598 108.135 769.859 108.135C774.32 108.135 778.055 109.112 781.063 111.067C784.071 112.972 786.502 115.654 788.357 119.113C790.262 122.572 791.715 126.658 792.718 131.37C793.771 136.082 794.573 141.246 795.124 146.86V154.681C794.573 159.994 793.671 164.957 792.417 169.569C791.214 174.181 789.61 178.192 787.605 181.601C785.6 185.009 783.143 187.691 780.236 189.646C777.328 191.551 773.819 192.504 769.708 192.504C765.497 192.504 761.687 191.652 758.279 189.947C754.92 188.243 752.037 185.736 749.631 182.428C747.275 179.069 745.47 174.958 744.217 170.096C742.964 165.183 742.337 159.543 742.337 153.177ZM763.467 147.763V153.177C763.467 156.987 763.693 160.27 764.144 163.027C764.645 165.734 765.397 167.965 766.4 169.72C767.402 171.424 768.681 172.702 770.235 173.555C771.839 174.357 773.719 174.758 775.874 174.758C778.932 174.758 781.364 174.056 783.168 172.652C785.023 171.199 786.377 169.218 787.229 166.712C788.131 164.155 788.632 161.223 788.733 157.914V143.702C788.683 140.945 788.357 138.464 787.755 136.258C787.204 134.052 786.427 132.172 785.424 130.618C784.422 129.064 783.118 127.861 781.514 127.009C779.96 126.157 778.13 125.73 776.025 125.73C773.869 125.73 772.014 126.157 770.46 127.009C768.906 127.861 767.603 129.189 766.55 130.994C765.548 132.749 764.77 135.03 764.219 137.837C763.718 140.594 763.467 143.903 763.467 147.763ZM910.029 172.276V134.679C910.029 132.222 909.728 130.267 909.126 128.813C908.575 127.36 907.723 126.307 906.57 125.655C905.467 124.953 904.113 124.603 902.509 124.603C900.705 124.603 899.201 124.978 897.998 125.73C896.794 126.482 895.892 127.56 895.291 128.964C894.739 130.367 894.463 132.047 894.463 134.002H873.333C873.333 130.493 874.01 127.184 875.364 124.076C876.717 120.918 878.697 118.161 881.304 115.805C883.961 113.398 887.119 111.519 890.779 110.165C894.438 108.811 898.549 108.135 903.111 108.135C908.525 108.135 913.337 109.062 917.548 110.917C921.759 112.722 925.093 115.604 927.549 119.564C930.006 123.525 931.234 128.663 931.234 134.979V171.224C931.234 175.785 931.459 179.495 931.911 182.353C932.412 185.21 933.139 187.666 934.091 189.722V191H912.886C911.934 188.744 911.207 185.937 910.706 182.578C910.254 179.169 910.029 175.735 910.029 172.276ZM912.585 141.296L912.661 153.929H904.916C902.91 153.929 901.156 154.255 899.652 154.906C898.198 155.558 896.97 156.485 895.967 157.688C894.965 158.841 894.213 160.195 893.711 161.749C893.26 163.303 893.035 164.957 893.035 166.712C893.035 168.667 893.31 170.321 893.862 171.675C894.413 173.028 895.24 174.056 896.343 174.758C897.446 175.46 898.75 175.811 900.253 175.811C902.559 175.811 904.565 175.334 906.269 174.382C907.973 173.429 909.227 172.276 910.029 170.923C910.881 169.569 911.157 168.316 910.856 167.163L915.668 175.359C915.067 177.214 914.24 179.144 913.187 181.149C912.184 183.155 910.906 185.009 909.352 186.714C907.798 188.418 905.868 189.822 903.562 190.925C901.306 191.978 898.624 192.504 895.516 192.504C891.155 192.504 887.169 191.501 883.56 189.496C879.951 187.491 877.093 184.684 874.988 181.074C872.932 177.465 871.905 173.179 871.905 168.216C871.905 164.105 872.556 160.395 873.86 157.087C875.213 153.728 877.219 150.896 879.875 148.59C882.532 146.234 885.891 144.429 889.952 143.176C894.012 141.922 898.775 141.296 904.239 141.296H912.585ZM1034.48 169.043C1034.48 167.639 1034.01 166.386 1033.05 165.283C1032.1 164.18 1030.6 163.052 1028.54 161.899C1026.49 160.696 1023.76 159.368 1020.35 157.914C1016.64 156.41 1013.35 154.856 1010.5 153.252C1007.64 151.648 1005.21 149.868 1003.2 147.913C1001.25 145.958 999.768 143.727 998.765 141.221C997.763 138.714 997.261 135.857 997.261 132.648C997.261 129.189 997.888 126.006 999.141 123.099C1000.44 120.141 1002.3 117.559 1004.71 115.353C1007.11 113.098 1010.04 111.343 1013.5 110.09C1017.01 108.786 1020.95 108.135 1025.31 108.135C1031.43 108.135 1036.66 109.213 1041.03 111.368C1045.44 113.474 1048.82 116.431 1051.18 120.241C1053.53 124.051 1054.71 128.488 1054.71 133.551H1033.66C1033.66 131.746 1033.38 130.142 1032.83 128.738C1032.28 127.284 1031.37 126.157 1030.12 125.354C1028.92 124.552 1027.29 124.151 1025.23 124.151C1023.73 124.151 1022.38 124.477 1021.17 125.129C1020.02 125.781 1019.09 126.658 1018.39 127.761C1017.74 128.813 1017.41 130.067 1017.41 131.52C1017.41 132.623 1017.64 133.601 1018.09 134.453C1018.59 135.305 1019.37 136.132 1020.42 136.935C1021.47 137.737 1022.88 138.589 1024.63 139.491C1026.44 140.343 1028.64 141.296 1031.25 142.349C1036.66 144.354 1041.1 146.509 1044.56 148.815C1048.07 151.121 1050.68 153.828 1052.38 156.936C1054.08 159.994 1054.94 163.779 1054.94 168.291C1054.94 171.9 1054.23 175.184 1052.83 178.142C1051.48 181.099 1049.5 183.656 1046.89 185.811C1044.28 187.967 1041.15 189.621 1037.49 190.774C1033.88 191.927 1029.85 192.504 1025.38 192.504C1018.82 192.504 1013.28 191.2 1008.77 188.594C1004.25 185.987 1000.85 182.653 998.54 178.593C996.234 174.482 995.081 170.221 995.081 165.81H1015.08C1015.18 168.517 1015.68 170.647 1016.59 172.201C1017.54 173.705 1018.82 174.758 1020.42 175.359C1022.03 175.961 1023.81 176.262 1025.76 176.262C1027.72 176.262 1029.32 176.011 1030.57 175.51C1031.88 174.958 1032.85 174.131 1033.51 173.028C1034.16 171.875 1034.48 170.547 1034.48 169.043Z" fill="black"/>
<path d="M197.79 45.7591C195.779 40.9146 192.686 36.6112 188.704 33.118L185.42 30.229C185.308 30.1337 185.171 30.0681 185.019 30.038C184.868 30.0078 184.708 30.014 184.552 30.0561C184.397 30.0981 184.252 30.1746 184.128 30.279C184.005 30.3834 183.909 30.5124 183.846 30.6547L182.037 34.9125C180.909 37.5834 178.966 40.3387 176.286 43.0746C176.109 43.2495 175.915 43.3012 175.783 43.317C175.652 43.3328 175.45 43.3173 175.281 43.1657C175.122 43.0363 175.052 42.8363 175.076 42.633C175.935 35.8327 174.26 28.2543 170.075 20.0881C166.614 13.3026 161.545 8.09129 155.027 4.56095L150.271 1.99296C149.649 1.65463 148.797 2.15654 148.789 2.86536L148.718 8.26625C148.669 11.9569 148.014 15.2411 146.774 17.9946C145.257 21.365 143.182 24.5186 140.603 27.3747C138.808 29.3598 136.8 31.1685 134.618 32.767C129.364 36.5951 124.986 41.4184 121.813 46.8759C118.644 52.3799 116.8 58.3827 116.424 64.4165C116.096 69.7363 116.888 74.8486 118.783 79.6303C120.613 84.2338 123.409 88.3724 127.016 91.8173C130.658 95.29 134.966 97.9747 139.842 99.7738C144.891 101.646 150.312 102.492 155.977 102.296C161.641 102.099 167.191 100.872 172.492 98.6526C177.597 96.5189 182.306 93.502 186.355 89.7704C190.441 86.0298 193.73 81.7094 196.129 76.9588C198.619 72.0384 200.064 66.784 200.377 61.516C200.716 56.0158 199.853 50.7148 197.79 45.7591Z" fill="#FF0000"/>
</svg>
