<svg id="Layer_1" data-name="Layer 1" xmlns="http://www.w3.org/2000/svg" viewBox="0 0 2020 2020"><defs><style>.cls-1{fill:#666;}.cls-2{fill:#3b444f;}.cls-3{fill:#960a04;}.cls-4{fill:#e80f05;}.cls-5{fill:#858585;}.cls-6{fill:#474747;}.cls-7{fill:#cc0e06;}.cls-8{fill:#adadad;}.cls-9{fill:#323942;}.cls-10{fill:#fbb686;}.cls-11{fill:#b50c05;}.cls-12{fill:#494472;}.cls-13{fill:#db8e0a;}.cls-14{fill:#f89c69;}.cls-15{fill:#f9a873;}.cls-16{fill:#ff1005;}.cls-17{fill:#2b282f;}.cls-18{fill:#495361;}.cls-19{fill:#9e9e9e;}</style></defs><path class="cls-1" d="M1759.33,1039.08c-6.85-18.92-13.72-37.4-20-54.77l-5.48-14.53c-23.08-60.1-39.93-125.86-62.1-187-28,34-79.6,66.09-111.22,90.85-14.21,10.27-27.79,20.55-40.93,30.83-5.52-4.5-11.47-9.24-17.66-14,45.75,44.42,72,115.7,81.8,176,3.86,24.94,1.55,105.62-28,112.61-20.4,5.71-49.12-24.7-67.43-31.53l-.22,0a23.33,23.33,0,0,1-1,4.09c-3.65-1-7.32-1.93-11.22-2.91a244.23,244.23,0,0,0,5.77,41.32c9.73,47.71,29.91,103.36,35.48,144.86,7.51,48.55,9.86,95.84,11.35,143.12.45,14.59.68,29,1.13,43.56a73.44,73.44,0,0,0,.23,7.4c2.43-1.89,5.1-3.76,7.56-5.66,14.43-10.69,28.68-21,43.11-31.19,18-12.76,36-25.3,54.19-37.2,30.81-20,53-41.35,74.37-66.45,4.28-5.08,8.57-10.39,13.07-15.7,3.84-4.71,7.7-9.58,11.52-14.7,14-16.58,29.86-31.79,42.76-48.4,13.53-17,23.86-35.43,25.61-58.46C1806.5,1185.6,1783.67,1108.31,1759.33,1039.08Zm-35.9,258a.73.73,0,0,0,.24-.65,3.5,3.5,0,0,1-.25,1.52C1723.42,1297.7,1723.42,1297.25,1723.43,1297.05Z"/><path class="cls-2" d="M1723.43,1297.05c0,.2,0,.65,0,.87a3.5,3.5,0,0,0,.25-1.52A.73.73,0,0,1,1723.43,1297.05Z"/><path class="cls-3" d="M1059.65,626.17c2.82.93,5.62,1.68,8.22,2.4,4.94,1.45,9.71,2.89,14.9,4.12l76.73,18.54s5.84,1,16,2.62c.88.23,1.75.26,2.6.51,12.79,2.09,31,5,52.44,8.25,66.12,9.74,161.51,22.49,208.59,21a213.31,213.31,0,0,0,34.71-4.23c4.15-.75,8.1-1.71,12.27-2.88,23.23-5.69,45.91-14.59,61-24.83,25.29-17.14,68.9-57.68,78.33-82.86,4.7-12.28,5.28-32.29,1.3-45a38.83,38.83,0,0,1,.4,8.73,43.55,43.55,0,0,1-2.38,13.88,3.52,3.52,0,0,1-.45,1.28c-9.2,25.2-55.21,72.63-80.71,89.74-16.22,10.87-43,19.9-69.07,25-14.88,2.63-29.28,4.18-41.47,4-23.71-.68-82.65-9.75-140.48-19.7-16.25-2.63-32.49-5.48-47.65-8.09-3.89-.78-7.78-1.54-11.91-2.31-5.62-.82-11.46-1.83-16.87-2.9-13.87-2.55-26.66-4.88-36.6-6.89-1.72-.28-3.25-.52-4.54-.8-10.61-2-18-3.35-21.23-4.06l-1.3-.05h-.42L1078.88,608l-.62-.23c-5-1.23-10-2.45-14.71-3.92l.25-1c14.35-7.43,12.9-24.26,4.8-37.75a49.44,49.44,0,0,0-16.29-17.24c3.17,4,4.12,8.4,4.4,13.85.55,10.46-2.41,23.44-1.58,39.78a374.38,374.38,0,0,1-41.34-15.55c-3-1.18-6-2.55-9-4-31.35-15.06-56.29-32.74-72.49-53-8.83-10.72-15-21.79-18.4-33.62a177.8,177.8,0,0,0,3,18.16c.19,1.29.36,2.18.54,3.27.23.66.42,1.31.62,2,4.52,17.31,15.35,33.71,31.45,48.76,15.49,14.6,35.79,27.58,59.85,38.93A385.36,385.36,0,0,0,1059.65,626.17Z"/><path class="cls-4" d="M1549.86,495c14.29,9.77,25.5,22.07,26.15,37.33,2.45,36-37.32,64.22-65.75,76.45a184,184,0,0,1-38,12.63c-52.6,12.41-100.39,1.68-160.21.4-4.57-.14-9.14-.7-13.91-.84,27.08-3.54,52.06-8.72,74.67-15.7a24,24,0,0,1-1.42-3.75c-3.64-9.24-5.55-19.06-7.87-29.57-43.39,10.94-91.36,14.12-131.21,14.5,4.93,10.38,8.52,22,9.06,33.13-2.65.57-5.68,1.36-8.78,2.14-4.82,1.37-9.85,2.55-14.68,3.74a13,13,0,0,1-3.9-.1c-8.5.16-17.19-.3-25.66-.75a44.65,44.65,0,0,1-7.71-5.25c-13-11-12.32-25.39-4.84-36.27A568.59,568.59,0,0,1,1068.6,565c8.1,13.49,9.55,30.32-4.8,37.75l-.25,1c4.75,1.47,9.72,2.69,14.71,3.92l.62.23,73.2,13.66h.42l1.3.05c3.25.71,10.62,2,21.23,4.06,1.29.28,2.82.52,4.54.8,9.94,2,22.73,4.34,36.6,6.89,5.41,1.07,11.25,2.08,16.87,2.9,4.13.77,8,1.53,11.91,2.31,15.16,2.61,31.4,5.46,47.65,8.09,57.83,10,116.77,19,140.48,19.7,12.19.14,26.59-1.41,41.47-4,26-5.11,52.85-14.14,69.07-25,25.5-17.11,71.51-64.54,80.71-89.74a3.52,3.52,0,0,0,.45-1.28,43.55,43.55,0,0,0,2.38-13.88,38.83,38.83,0,0,0-.4-8.73c0-.42,0-.42,0-.62-2.54-18.15-12.49-35.2-19.82-44.77-2.12-3.11-9-7.2-18.38-12.28a.84.84,0,0,1-.67-.23c-13.14-3.21-27.31-10.58-39.58-15.52-1.51-.66-2.8-1.14-4.32-1.65.42,1.34,1,2.87,1.41,4.39A152,152,0,0,1,1549.86,495Z"/><path class="cls-5" d="M1528.47,1478c-1.49-47.28-3.84-94.57-11.35-143.12-5.57-41.5-25.75-97.15-35.48-144.86-4.6,16-11.8,31.85-20.86,43.79-22.39,30.48-63.81,9.06-96.15-1.24-97.11-29.13-181.07-76.57-255.23-147-38.15-35.71-52-98.14-46.3-154.58-3.11,3-6,5.5-9.15,8-83.55,75.32-179.17,154.19-242.78,239a.21.21,0,0,0-.22.21l-2.21,2.1a132.45,132.45,0,0,0-10,12.14,144,144,0,0,0-11.58,17.07c-1.83,2.77-3.67,6-5.28,8.76a242.05,242.05,0,0,0-13.12,26c-1.42,3.45-2.81,6.89-4.45,10.33,1.84-2.79,3.65-5.78,5.48-8.33V1246a21,21,0,0,1,2-3,37.94,37.94,0,0,1,1.43-4.54l1.1.45c8.3-24.14,23.63-35.24,42.19-37.3,0,0,.2,0,.44-.44,21.2-11.15,45.65-13.07,69.84.7,1.93,2,3.81,4.24,5.69,6.49,59.31,19.32,88.3,78.91,102.32,136.35,71,118.68,108.27,246.87,109.62,427.77,2.21-.59,4.41-1.61,6.61-2.43a12.25,12.25,0,0,1-2.21,1.27,573,573,0,0,0,66.34-21c75.24-28.3,144.79-70.49,211.62-117.14,35.32-24.45,70-50.2,104.47-75.78,12.91-9.64,25.61-19.07,38.49-28.5a73.44,73.44,0,0,1-.23-7.4C1529.15,1507,1528.92,1492.59,1528.47,1478Z"/><path class="cls-6" d="M1477.4,829c.8,10.24-7.36,20.89-19.61,30.55,4.09,2.29,7.93,4.59,12,6.44,4.91,3,9.85,6.15,14.53,9.56A163.34,163.34,0,0,1,1502,890.43c6.19,4.76,12.14,9.5,17.66,14,13.14-10.28,26.72-20.56,40.93-30.83,31.62-24.76,83.25-56.81,111.22-90.85,22.17,61.17,39,126.93,62.1,187l5.48,14.53c6.24,17.37,13.11,35.85,20,54.77-10.33-64.51-26-125.68-47.53-180.08a664.93,664.93,0,0,0-31.65-86.87,41.06,41.06,0,0,0-2.66-6.37c-24.14-23.12-117.15-51-185.91-37.13a117.57,117.57,0,0,0-18.19,4.7c.42,7.86.87,15,1.55,22.27C1477.26,780.91,1480.33,802.54,1477.4,829Z"/><path class="cls-4" d="M1493.58,1099.58c1.61-40.45-3.68-84.33-14.09-115.78-1-3.27-2-6.77-3.19-10.52a220.17,220.17,0,0,0-17.39-37.92c-8.42-10.05-17.3-19.24-26.65-26.47a67.87,67.87,0,0,1-11.37,23.4c-8,12.19-18.87,21.23-30.84,28.51a170.17,170.17,0,0,1-19.21,9c-23,13.29-62.87,21.71-104,21.2h-.43c-51.57-.62-104.69-15.64-129.28-53.35a62.79,62.79,0,0,1-4.55-8.18l-.88.22a94.5,94.5,0,0,0-4.51,12.7c8.77,13.29,19.71,26,31.78,38.12,28.37,28.23,62.71,51.86,86.65,66.92,13.24,9.09,27.38,17.53,42.39,25.8,51.19,28.46,111.21,52.61,167.32,69.43l0,.25c6.93,1.92,13.83,3.84,20.54,5.79,3.9,1,7.57,2,11.22,2.91a23.33,23.33,0,0,0,1-4.09c0-.66.27-1.3.28-2.16C1491.37,1131.31,1492.92,1115.65,1493.58,1099.58Zm-58.53-23v-.22l.22,0C1435.26,1076.59,1435.26,1076.59,1435.05,1076.57Z"/><path class="cls-7" d="M1470.93,409a17.84,17.84,0,0,0-14.4,1.55c5.63,15.41,10.68,29.47,16.33,44.88,7.22,22,13,41.73,16.68,63.59-6.1,15.5-16.91,28.48-30.07,39-19.84,16.4-45,28.09-69.18,36.95-6.16,2.48-12.31,4.47-18.25,6.46h-.21c.41,1.33.58,2.63,1,3.93-22.61,7-47.59,12.16-74.67,15.7,4.77.14,9.34.7,13.91.84,59.82,1.28,107.61,12,160.21-.4a184,184,0,0,0,38-12.63c28.43-12.23,68.2-40.47,65.75-76.45-.65-15.26-11.86-27.56-26.15-37.33a152,152,0,0,0-4.45-41.94c-.4-1.52-1-3-1.41-4.39-19.12-7.73-39-11.77-58-19.94a177.65,177.65,0,0,0-7.26-20,22.39,22.39,0,0,1-5,.29C1472.46,409,1471.38,409,1470.93,409Z"/><path class="cls-8" d="M1109.4,1085.54c74.16,70.46,158.12,117.9,255.23,147,32.34,10.3,73.76,31.72,96.15,1.24,9.06-11.94,16.26-27.84,20.86-43.79a244.23,244.23,0,0,1-5.77-41.32c-6.71-2-13.61-3.87-20.54-5.79l0-.25c-56.11-16.82-116.13-41-167.32-69.43-15-8.27-29.15-16.71-42.39-25.8-23.94-15.06-58.28-38.69-86.65-66.92-12.07-12.09-23.71-45.74-21.84-42.86-2-22-4.38-44.52-6.36-66.56-.34-3.7-.87-7.63-1.21-11.35-.87-7.85-2.43-21.37-3.08-29.23-9.46-1.8-32-5.36-32-5.36-12,34.59-26.76,71.7-31.39,105.81C1057.37,987.4,1071.25,1049.83,1109.4,1085.54Z"/><path class="cls-9" d="M1469.81,866c-4.09-1.85-7.93-4.15-12-6.44-.41.42-1.09.84-1.78,1.47,7.28,3.91,16.71,9.42,26.55,15.77,6.39,4.33,13,8.89,19.42,13.62a163.34,163.34,0,0,0-17.64-14.86C1479.66,872.16,1474.72,869,1469.81,866Z"/><path class="cls-10" d="M1230.55,662.61c1.7,9.62,6.41,19.34,12.57,39.77,7.17,23.27,1.81,43.59,1,70.77-.33,3.68-.42,7.17-.53,10.65a113.43,113.43,0,0,1,18.21,10.31c15.11,11.31,18.51,22.29,27.88,36.92,10-.59,20.93-1.14,31.85-2.57,7.12-28.07,46-53.1,70-65.25,21.21-11.15,61.93-19.11,83.36-7.61-.68-7.23-1.13-14.41-1.55-22.27-.59-9.78-.7-20.47-.37-32.21,0-7.63.43-15,.83-21.75a213.31,213.31,0,0,1-34.71,4.23C1392.06,685.1,1296.67,672.35,1230.55,662.61Z"/><path class="cls-8" d="M1456,861a212.07,212.07,0,0,1-19.29,12.72c-.93,10-1.64,19.12-3,27.78a52.26,52.26,0,0,1-1,5.62,62.61,62.61,0,0,1,11.48,9.26,95.76,95.76,0,0,1,14.71,18.94,220.17,220.17,0,0,1,17.39,37.92c1.22,3.75,2.22,7.25,3.19,10.52,10.41,31.45,15.7,75.33,14.09,115.78-.66,16.07-2.21,31.73-5.22,45.78,0,.86-.24,1.5-.28,2.16l.22,0c18.31,6.83,47,37.24,67.43,31.53,29.6-7,31.91-87.67,28-112.61-9.8-60.33-36-131.61-81.8-176-6.39-4.73-13-9.29-19.42-13.62C1472.72,870.46,1463.29,865,1456,861Z"/><path class="cls-11" d="M1392.38,301.6c21.89,26.08,38.72,54.21,52.24,84,1.84,4.18,3.67,8.17,5.51,12.57,0,.22.2.43.2.65,2.08,3.75,4.14,7.51,5.78,10.82.21.24.2.69.42.89a17.84,17.84,0,0,1,14.4-1.55c.45,0,1.53.06,2.85.09a22.39,22.39,0,0,0,5-.29A265,265,0,0,0,1454.42,363c-5.85-9.07-12.31-18.39-19.47-28-46.3-70.11-115.58-128.27-199.76-145C1296.9,215.5,1355.82,256.35,1392.38,301.6Z"/><path class="cls-12" d="M1458.91,935.36a95.76,95.76,0,0,0-14.71-18.94,62.61,62.61,0,0,0-11.48-9.26,6.58,6.58,0,0,0-.46,1.73C1441.61,916.12,1450.49,925.31,1458.91,935.36Z"/><path class="cls-4" d="M1152.37,269.25c55.43,25.52,107.46,63.16,140.46,104.14,20.61,24.76,36.84,51.32,50.19,79.35,7.77,16.8,14.68,34.16,20.92,51.78.23,0,.43-.22.65-.2a623.49,623.49,0,0,1,18.7,61.89c-.24,0-.46.21-.66.19,2.34,9.24,4.92,18.21,7.48,27.21,0,.46.2.88.18,1.3,24.21-8.86,49.34-20.55,69.18-36.95,13.16-10.5,24-23.48,30.07-39-3.72-21.86-9.46-41.61-16.68-63.59-5.65-15.41-10.7-29.47-16.33-44.88-.22-.2-.21-.65-.42-.89-1.64-3.31-3.7-7.07-5.78-10.82,0-.22-.22-.43-.2-.65-1.84-4.4-3.67-8.39-5.51-12.57-13.52-29.77-30.35-57.9-52.24-84-36.56-45.25-95.48-86.1-157.19-111.59-11.19-4.69-22-8.69-33-12.26-24.53-2.25-52-2.14-80.66,4.64-28.48,6.8-67.56,25.71-98.15,52.26a29.22,29.22,0,0,0,4.55.34C1067.31,237.43,1110.91,250,1152.37,269.25Z"/><path class="cls-11" d="M1266.43,991h.43c41.11.51,81-7.91,104-21.2a170.17,170.17,0,0,0,19.21-9c12-7.28,22.88-16.32,30.84-28.51a67.87,67.87,0,0,0,11.37-23.4,6.58,6.58,0,0,1,.46-1.73,52.26,52.26,0,0,0,1-5.62c1.33-8.66,2-17.8,3-27.78a260.08,260.08,0,0,1-33.51,15.61,55.21,55.21,0,0,1-6.41,2.41,79.22,79.22,0,0,1-11.18,3.16,48.05,48.05,0,0,1-8.75,1.72,84.87,84.87,0,0,1-14.79-.42c-24.33,5.82-49.76,11.63-74.86,14.81-57.45,7.27-114.28.86-157.64-51.31.34,3.72.87,7.65,1.21,11.35,2,22,4.38,44.54,6.36,66.56C1161.74,975.36,1214.86,990.38,1266.43,991Z"/><path class="cls-13" d="M1372.81,605.3c-.4-1.3-.57-2.6-1-3.93-2.55-9.87-5.31-19.75-7.86-29.6-.23,0-.23,0-.45.21,2.32,10.51,4.23,20.33,7.87,29.57A24,24,0,0,0,1372.81,605.3Z"/><path class="cls-7" d="M1016,548.05c0-.2.24-.4.48-.82a126.57,126.57,0,0,1,8.64-13c14.9,3.25,23.05,7.84,27.23,13.61A49.44,49.44,0,0,1,1068.6,565a568.59,568.59,0,0,0,107.2,18.08,37.62,37.62,0,0,1,8.75-8.88,20.49,20.49,0,0,1,4-2.5,34.82,34.82,0,0,1,30.29-1.1,23.35,23.35,0,0,1,6,3.22l.45-.2c.19.42.6.89.82,1.32,1.88,3.1,3.75,6.19,5.39,9.52a6.94,6.94,0,0,0,.82,2c39.85-.38,87.82-3.56,131.21-14.5-.37-1.55-.76-3.3-1.15-5.07-4.95-16.48-12.15-39.73-18-55.34-.22-.68-.62-1.57-.82-2.2-3.73.74-7.23,1.75-10.76,2.74-37.91,9.55-76,11.95-115,10-57.82-3-115.26-11.4-167.27-34.65a473.21,473.21,0,0,1-60.89-32,371,371,0,0,1-43.31-30.88,200.21,200.21,0,0,1-29.61-29.35c1.42-4.73,3.09-9.7,4.77-14.44-31.13-8.07-23,74.86-12.56,89.09.18.23.4.67.62.91a174.37,174.37,0,0,0,18.75,21.62C952.89,516.88,984.74,536.08,1016,548.05Z"/><path class="cls-3" d="M1116.2,278c62,23.54,120.73,63.32,158.62,108.15a321.1,321.1,0,0,1,32.07,43.58,161.18,161.18,0,0,1,8.9,15c2.73,4.44,5,9.09,7.25,13.5,1.64,3.53,3.28,7.28,4.92,10.79,5.92,13.45,10.74,26.87,15.6,40.3.2.63.6,1.52.82,2.2,5.84,15.61,13,38.86,18,55.34.39,1.77.78,3.52,1.15,5.07.22-.22.22-.22.45-.21,2.55,9.85,5.31,19.73,7.86,29.6h.21c5.94-2,12.09-4,18.25-6.46,0-.42-.2-.84-.18-1.3-2.56-9-5.14-18-7.48-27.21.2,0,.42-.2.66-.19a623.49,623.49,0,0,0-18.7-61.89c-.22,0-.42.2-.65.2-6.24-17.62-13.15-35-20.92-51.78-13.35-28-29.58-54.59-50.19-79.35-33-41-85-78.62-140.46-104.14C1110.91,250,1067.31,237.43,1028,235a29.22,29.22,0,0,1-4.55-.34c-18.95,16.2-34.53,35.36-43,56.22a269.22,269.22,0,0,1,42.33-34.46C1053.22,258.58,1085,266.24,1116.2,278Z"/><path class="cls-11" d="M946.36,424.61a371,371,0,0,0,43.31,30.88,473.21,473.21,0,0,0,60.89,32c52,23.25,109.45,31.67,167.27,34.65,38.92,2,77.06-.44,115-10,3.53-1,7-2,10.76-2.74-4.86-13.43-9.68-26.85-15.6-40.3-1.64-3.51-3.28-7.26-4.92-10.79-2.26-4.41-4.52-9.06-7.25-13.5a161.18,161.18,0,0,0-8.9-15,321.1,321.1,0,0,0-32.07-43.58c-37.89-44.83-96.6-84.61-158.62-108.15-31.22-11.77-63-19.43-93.42-21.6a269.22,269.22,0,0,0-42.33,34.46c-25.53,25.41-46.22,56.36-58.93,89.95-1.68,4.74-3.35,9.71-4.77,14.44A200.21,200.21,0,0,0,946.36,424.61Z"/><path class="cls-14" d="M1287.22,911.05c25.1-3.18,50.53-9,74.86-14.81-24.55-2-70.43-10.53-115.12-23.57-21.4-5.84-42.71-13.18-60.78-21.54-24.47-18.53-36.44-41.75-43.56-59.35-.65.41-1.32.82-1.74,1-6.44,3.94-11.92,5.53-17.57,4.71,1.19,11.14,2.18,22,3.19,33a28.85,28.85,0,0,1,.91,5.88c.65,7.88,1.3,15.5,2.17,23.35C1172.94,911.91,1229.77,918.32,1287.22,911.05Z"/><path class="cls-15" d="M1243.12,702.38c-6.16-20.43-10.87-30.15-12.57-39.77-21.44-3.24-39.65-6.16-52.44-8.25l-.26,2.18c-1.67,28-10.9,92.17,18.69,107.39,15.87,7.65,31.85,12.45,47.09,19.87.11-3.48.2-7,.53-10.65C1244.93,746,1250.29,725.65,1243.12,702.38Z"/><path class="cls-3" d="M1213.42,584.63c-3,12.31-2.29,26.93.63,38.56l0,2.2a13,13,0,0,0,3.9.1c4.83-1.19,9.86-2.37,14.68-3.74,3.1-.78,6.13-1.57,8.78-2.14-.54-11.12-4.13-22.75-9.06-33.13a6.94,6.94,0,0,1-.82-2c-1.64-3.33-3.51-6.42-5.39-9.52-.22-.43-.63-.9-.82-1.32l-.45.2a23.35,23.35,0,0,0-6-3.22,47.88,47.88,0,0,0-2.31,4.49A42,42,0,0,0,1213.42,584.63Z"/><path class="cls-16" d="M1180.64,619.39a44.65,44.65,0,0,0,7.71,5.25c8.47.45,17.16.91,25.66.75l0-2.2c-2.92-11.63-3.59-26.25-.63-38.56a42,42,0,0,1,3.11-9.5,47.88,47.88,0,0,1,2.31-4.49,34.82,34.82,0,0,0-30.29,1.1,20.49,20.49,0,0,0-4,2.5,37.62,37.62,0,0,0-8.75,8.88C1168.32,594,1167.67,608.35,1180.64,619.39Z"/><path class="cls-17" d="M1070.89,705.69c-14.93-34.13,27.18-45.34,41.87-33.4,4.8,14.51,10.56,41.67,16.56,67.72,1.48.94,3,2.07,4.47,3,.85,8.08,1.74,16,2.81,24a.94.94,0,0,0,.18.66,196.57,196.57,0,0,0,7.6,23.08,4.81,4.81,0,0,1-1.76,1c7.12,17.6,19.09,40.82,43.56,59.35,18.07,8.36,39.38,15.7,60.78,21.54,44.69,13,90.57,21.54,115.12,23.57a84.87,84.87,0,0,0,14.79.42,48.05,48.05,0,0,0,8.75-1.72,79.22,79.22,0,0,0,11.18-3.16,55.21,55.21,0,0,0,6.41-2.41,260.08,260.08,0,0,0,33.51-15.61A212.07,212.07,0,0,0,1456,861c.69-.63,1.37-1,1.78-1.47,12.25-9.66,20.41-20.31,19.61-30.55,2.93-26.48-.14-48.11-2.46-73.42-21.43-11.5-62.15-3.54-83.36,7.61-24.06,12.15-62.89,37.18-70,65.25-10.92,1.43-21.8,2-31.85,2.57-9.37-14.63-12.77-25.61-27.88-36.92a113.43,113.43,0,0,0-18.21-10.31c-15.24-7.42-31.22-12.22-47.09-19.87-29.59-15.22-20.36-79.38-18.69-107.39l.26-2.18c-.85-.25-1.72-.28-2.6-.51-10.17-1.58-16-2.62-16-2.62l-76.73-18.54c-5.19-1.23-10-2.67-14.9-4.12-2.6-.72-5.4-1.47-8.22-2.4a385.36,385.36,0,0,1-50.35-19.74c-24.06-11.35-44.36-24.33-59.85-38.93,35.45,165.21,103,209.35,107.33,224.28,24,44.61,57.93,32.49,67.54,39.08l2.18-.35c-1-11-2-21.85-3.19-33C1095.09,794.13,1082.49,732.81,1070.89,705.69Z"/><path class="cls-10" d="M1136.78,767.66a.94.94,0,0,1-.18-.66c-2.61-8.35-5-17.76-7.28-27-6-26-11.76-53.21-16.56-67.72-14.69-11.94-56.8-.73-41.87,33.4,11.6,27.12,24.2,88.44,52.42,91.83,5.65.82,11.13-.77,17.57-4.71.42-.21,1.09-.62,1.74-1a4.81,4.81,0,0,0,1.76-1A196.57,196.57,0,0,1,1136.78,767.66Z"/><path class="cls-18" d="M1104.51,1772.52c0,.65,0,1.08,0,1.53a51.14,51.14,0,0,0,4.45-2.69,12.25,12.25,0,0,0,2.21-1.27C1108.92,1770.91,1106.72,1771.93,1104.51,1772.52Z"/><path class="cls-15" d="M1133.79,743c-1.48-.9-3-2-4.47-3,2.32,9.23,4.67,18.64,7.28,27C1135.53,759,1134.64,751.06,1133.79,743Z"/><path class="cls-1" d="M997.57,1357.21c27.34,132.7,24,279.52,8.7,417.72,32.74,4.85,64.94,5.58,95.19-1.62,1.08-.19,2-.6,3-.79-1.35-180.9-38.59-309.09-109.62-427.77C995.85,1348.9,996.81,1353.06,997.57,1357.21Z"/><path class="cls-16" d="M1016.44,547.23c-.24.42-.46.62-.48.82-5.7,9.45-10.14,20-9.81,30.88l-1.38,3c3,1.41,6,2.78,9,4a374.38,374.38,0,0,0,41.34,15.55c-.83-16.34,2.13-29.32,1.58-39.78-.28-5.45-1.23-9.82-4.4-13.85-4.18-5.77-12.33-10.36-27.23-13.61A126.57,126.57,0,0,0,1016.44,547.23Z"/><path class="cls-19" d="M997.57,1357.21c-.76-4.15-1.72-8.31-2.68-12.46-14-57.44-43-117-102.32-136.35a304.47,304.47,0,0,1,23.23,32.86c9.59,14.65,17.84,30.55,25.06,45.11,1.22,2.44,2.44,4.88,3.5,7.31a.17.17,0,0,0,.18.2c8.37,19.38,16.5,39.44,23.94,60.53-1.22,80.73-8.22,249.46-15.23,410.51,17.53,4,35.47,7.55,53,10C1021.57,1636.73,1024.91,1489.91,997.57,1357.21Z"/><path class="cls-4" d="M1004.77,581.92l1.38-3c-.33-10.9,4.11-21.43,9.81-30.88-31.22-12-63.07-31.17-87.63-55.61a174.37,174.37,0,0,1-18.75-21.62,177.44,177.44,0,0,0,2.74,18.12c.39,1.12.37,2,.79,3.08.2.42.17,1.32.35,2a2.66,2.66,0,0,1,.42,1.33c3.36,11.83,9.57,22.9,18.4,33.62C948.48,549.18,973.42,566.86,1004.77,581.92Z"/><path class="cls-8" d="M968.48,1354.41c-7.44-21.09-15.57-41.15-23.94-60.53a.17.17,0,0,1-.18-.2c-1.06-2.43-2.28-4.87-3.5-7.31-7.22-14.56-15.47-30.46-25.06-45.11a304.47,304.47,0,0,0-23.23-32.86c-1.88-2.25-3.76-4.48-5.69-6.49-24.19-13.77-48.64-11.85-69.84-.7-.24.44-.44.44-.44.44-18.56,2.06-33.89,13.16-42.19,37.3l-1.1-.45a37.94,37.94,0,0,0-1.43,4.54,21,21,0,0,0-2,3v.22c-1.83,2.55-3.64,5.54-5.48,8.33-3.2,5.79-6.2,11.13-9,17.16a37.26,37.26,0,0,0-1.63,3.65,176.19,176.19,0,0,0-7.24,17.84,621.39,621.39,0,0,0-24.53,96.6c-1.86,10.82-3.47,21.25-4.87,31.85-1.39,11.08-2.6,22.35-3.31,33.2-3,37.14-7,122.79-10.81,225,46.72,32.71,110.83,51.28,161.65,63.2,27.88,6.44,58.12,14.73,88.6,21.9C960.26,1603.87,967.26,1435.14,968.48,1354.41Z"/></svg>