<svg id="Capa_3" data-name="Capa 3" xmlns="http://www.w3.org/2000/svg" viewBox="0 0 2122 2122"><defs><style>.cls-1{fill:#b21117;}.cls-2{fill:#a51419;}.cls-3{fill:#a81418;}.cls-4{fill:#b5101d;}.cls-5{fill:#6a1011;}.cls-6{fill:#a01419;}.cls-7{fill:#c4dcf1;}.cls-8{fill:#8db3dd;}.cls-9{fill:#445596;}.cls-10{fill:#3fb3b9;}.cls-11{fill:#891418;}.cls-12{fill:#a91318;}.cls-13{fill:#999;}.cls-14{fill:#c1c1c1;}.cls-15{fill:#e12d37;}.cls-16{fill:#fdfefe;}.cls-17{fill:#c4c4c4;}.cls-18{fill:#9f9fa0;}.cls-19{fill:#b7b7b7;}.cls-20{fill:#ededec;}.cls-21{fill:#ccc;}.cls-22{fill:#e12125;}</style></defs><polygon class="cls-1" points="1083.01 525.47 1026.25 492.49 1440.57 636.85 1497.33 669.83 1083.01 525.47"/><polygon class="cls-2" points="1083.01 525.47 1497.33 669.83 1085.09 1258.89 670.84 1147.01 1083.01 525.47"/><polygon class="cls-3" points="670.84 1147.01 614.07 1114.02 1026.25 492.49 1083.01 525.47 670.84 1147.01"/><polygon class="cls-4" points="1085.09 1258.89 1028.33 1225.9 1440.57 636.85 1497.33 669.83 1085.09 1258.89"/><polygon class="cls-5" points="672.82 1848.01 616.06 1815.02 614.07 1114.02 670.84 1147.01 672.82 1848.01"/><polygon class="cls-6" points="670.84 1147.01 614.07 1114.02 1028.33 1225.9 1085.09 1258.89 670.84 1147.01"/><polygon class="cls-7" points="1327.79 1065.71 1308.87 1054.71 1308.76 1017.1 1327.69 1028.09 1327.79 1065.71"/><polygon class="cls-7" points="1327.46 950.81 1308.55 939.82 1308.44 902.24 1327.36 913.23 1327.46 950.81"/><polygon class="cls-7" points="1327.14 835.95 1308.22 824.96 1308.11 787.34 1327.03 798.34 1327.14 835.95"/><polygon class="cls-7" points="1326.81 717.55 1307.89 706.55 1307.81 681.19 1326.73 692.18 1326.81 717.55"/><polygon class="cls-7" points="1326.6 645.82 1307.69 634.83 1307.6 605.44 1326.52 616.43 1326.6 645.82"/><polygon class="cls-7" points="923.13 1299.34 904.22 1288.34 1308.87 1054.71 1327.79 1065.71 923.13 1299.34"/><polygon class="cls-8" points="923.13 1299.34 904.22 1288.34 904.11 1250.73 923.02 1261.72 923.13 1299.34"/><polygon class="cls-8" points="923.02 1261.72 904.11 1250.73 1308.76 1017.1 1327.69 1028.09 923.02 1261.72"/><polygon class="cls-7" points="1326.39 570.2 1307.47 559.2 1307.39 533.6 1326.31 544.59 1326.39 570.2"/><path class="cls-7" d="M821.23,1358.55a42.51,42.51,0,0,0,6.71-3.17l18.92,11a42.42,42.42,0,0,1-6.71,3.16l-8.61-5,8.61,5a30.18,30.18,0,0,1-7.46,1.73l-18.92-11a30.49,30.49,0,0,0,7.46-1.72l8.62,5Zm10.35,6-.1-.06-.1-.06-.1-.06-.11-.07-.11-.06-.11-.06-.12-.07-.11-.07-.11-.06-.12-.07-.11-.06-.11-.07-.11-.06-.11-.06-.1-.06-.09,0,.09,0,.1.06.11.06.11.06.11.07.11.06.12.07.11.06.11.07.12.07.11.06.11.06.11.07.1.06.1.06.1.06"/><path class="cls-7" d="M864.16,1292.61c0-11.45-4.08-19.51-10.6-23.3l18.92,11c6.52,3.79,10.56,11.86,10.6,23.31.06,22.91-15.89,50.75-35.77,62.51L829,1355.46l18.34,10.66-.45.26-18.92-11,.45-.26.57.33-.57-.33C848.27,1343.36,864.22,1315.52,864.16,1292.61Z"/><path class="cls-7" d="M802.05,1357.91a19.36,19.36,0,0,0,11.72,2.36l18.92,11a19.5,19.5,0,0,1-11.72-2.36Z"/><polygon class="cls-7" points="922.8 1184.44 903.88 1173.44 1308.55 939.82 1327.46 950.81 922.8 1184.44"/><path class="cls-9" d="M853.55,1269.3l18.93,11c-6.61-3.84-15.75-3.3-25.85,2.53l-18.93-11C837.81,1266,847,1265.46,853.55,1269.3Z"/><polygon class="cls-8" points="922.7 1146.86 903.78 1135.87 1308.44 902.24 1327.36 913.23 922.7 1146.86"/><polygon class="cls-8" points="922.81 1184.44 903.89 1173.44 903.78 1135.87 922.7 1146.86 922.81 1184.44"/><path class="cls-9" d="M821,1368.91l-9.46-5.5-9.46-5.49c-6.53-3.8-10.58-11.87-10.61-23.33-.07-23,16.17-51.15,36.25-62.75l18.93,11c-20.09,11.6-36.33,39.71-36.26,62.76C810.41,1357.05,814.45,1365.11,821,1368.91Z"/><path class="cls-9" d="M846.63,1282.83c20.08-11.59,36.38-2.27,36.45,20.78s-16.13,51.17-36.22,62.77-36.43,2.28-36.49-20.79S826.54,1294.43,846.63,1282.83Z"/><path class="cls-7" d="M827.61,1240.48A62.51,62.51,0,0,0,841.75,1229l18.92,11a63,63,0,0,1-14.13,11.44Z"/><path class="cls-7" d="M863.83,1177.75c0-11.47-4.08-19.54-10.6-23.34l18.91,11c6.54,3.8,10.57,11.88,10.61,23.35,0,17.31-9,37.42-22.08,51.29l-18.92-11C854.78,1215.18,863.88,1195.07,863.83,1177.75Z"/><path class="cls-7" d="M801.71,1243c6.62,3.85,15.79,3.3,25.9-2.55l18.93,11c-10.13,5.84-19.29,6.39-25.91,2.54Z"/><polygon class="cls-7" points="922.48 1069.58 903.56 1058.59 1308.22 824.96 1327.14 835.95 922.48 1069.58"/><path class="cls-10" d="M853.22,1154.41c9.85,5.69,9.85,5.69,18.92,11-6.6-3.84-15.74-3.29-25.84,2.54l-18.92-11C837.48,1151.11,846.62,1150.57,853.22,1154.41Z"/><polygon class="cls-8" points="922.38 1031.96 903.46 1020.97 1308.11 787.34 1327.03 798.34 922.38 1031.96"/><polygon class="cls-8" points="922.48 1069.58 903.56 1058.59 903.46 1020.97 922.38 1031.96 922.48 1069.58"/><path class="cls-10" d="M820.64,1254q-4.74-2.73-9.46-5.5l-9.47-5.49c-6.51-3.79-10.55-11.85-10.58-23.3-.07-23.08,16.16-51.19,36.25-62.79l18.92,11c-20.09,11.6-36.32,39.7-36.26,62.78C810.07,1242.18,814.12,1250.24,820.64,1254Z"/><path class="cls-11" d="M846.3,1167.94c20.08-11.6,36.38-2.28,36.45,20.81s-16.13,51.13-36.21,62.73-36.43,2.32-36.5-20.76S826.21,1179.54,846.3,1167.94Z"/><path class="cls-7" d="M810.47,1130.61c5,.11,10.76-1.48,16.82-5l18.92,11c-6.07,3.49-11.79,5.09-16.82,5Z"/><path class="cls-7" d="M801.53,1128.23a18.8,18.8,0,0,0,8.94,2.38l18.92,11a18.61,18.61,0,0,1-8.93-2.37Q811,1133.74,801.53,1128.23Z"/><path class="cls-7" d="M863.5,1062.86c0-11.45-4.07-19.52-10.59-23.31l18.92,11c6.52,3.79,10.56,11.85,10.6,23.3.06,23.08-16.14,51.17-36.22,62.78l-18.92-11C847.38,1114,863.57,1085.93,863.5,1062.86Z"/><path class="cls-7" d="M801.4,1128.16l18.92,11,.14.07q-9.48-5.49-18.93-11Z"/><path class="cls-9" d="M852.9,1039.55l18.92,11c-6.6-3.84-15.75-3.3-25.85,2.54l-18.92-11C837.16,1036.25,846.3,1035.71,852.9,1039.55Z"/><path class="cls-9" d="M820.33,1139.16l-18.92-11c-6.53-3.79-10.58-11.86-10.61-23.33-.07-23,16.16-51.15,36.25-62.75l18.92,11c-20.09,11.6-36.32,39.71-36.25,62.75C809.75,1127.29,813.8,1135.37,820.33,1139.16Z"/><path class="cls-12" d="M846,1053.08c20.09-11.6,36.39-2.27,36.46,20.77s-16.14,51.17-36.22,62.78-36.42,2.28-36.49-20.8S825.88,1064.68,846,1053.08Z"/><polygon class="cls-7" points="1146.84 580.71 1127.92 569.71 1127.57 445.64 1146.49 456.63 1146.84 580.71"/><polygon class="cls-7" points="809.43 1016.25 790.52 1005.26 1307.89 706.55 1326.81 717.55 809.43 1016.25"/><polygon class="cls-8" points="809.43 1016.25 790.52 1005.26 790.45 979.89 809.37 990.89 809.43 1016.25"/><polygon class="cls-8" points="809.37 990.89 790.45 979.89 1307.81 681.19 1326.73 692.18 809.37 990.89"/><polygon class="cls-13" points="1326.73 692.18 1326.81 717.55 809.43 1016.25 809.37 990.89 1326.73 692.18"/><polygon class="cls-7" points="809.23 944.53 790.31 933.53 1307.69 634.83 1326.6 645.82 809.23 944.53"/><polygon class="cls-8" points="809.15 915.14 790.23 904.14 1307.6 605.44 1326.52 616.44 809.15 915.14"/><polygon class="cls-14" points="1326.52 616.44 1326.6 645.82 809.23 944.53 809.15 915.14 1326.52 616.44"/><polygon class="cls-8" points="809.23 944.53 790.31 933.53 790.23 904.14 809.15 915.14 809.23 944.53"/><polygon class="cls-7" points="809.02 868.9 790.1 857.91 1307.47 559.2 1326.39 570.2 809.02 868.9"/><polygon class="cls-8" points="809.02 868.9 790.1 857.91 790.03 832.3 808.95 843.3 809.02 868.9"/><polygon class="cls-8" points="808.95 843.3 790.03 832.3 1307.39 533.6 1326.31 544.59 808.95 843.3"/><polygon class="cls-7" points="808.75 775.9 789.84 764.91 1127.92 569.71 1146.84 580.71 808.75 775.9"/><polygon class="cls-10" points="808.4 651.83 789.48 640.84 1127.57 445.64 1146.49 456.63 808.4 651.83"/><polygon class="cls-15" points="1146.49 456.63 1146.84 580.71 808.75 775.9 808.4 651.83 1146.49 456.63"/><polygon class="cls-10" points="808.75 775.9 789.84 764.91 789.48 640.84 808.4 651.83 808.75 775.9"/><path class="cls-16" d="M733.59,601.75,1400.06,217l2.62,921.82L736.2,1523.57Zm74.81,50.08.35,124.07,338.09-195.19-.35-124.08L808.4,651.83M1327.14,836l-.11-37.61L922.38,1032l.1,37.62L1327.14,836m.65,229.76-.1-37.62L923,1261.72l.11,37.62,404.66-233.63m-.33-114.9-.1-37.58L922.7,1146.86l.1,37.58,404.66-233.63m-.86-305-.08-29.39L809.15,915.14l.08,29.39L1326.6,645.82m-.21-75.62-.08-25.61L809,843.3l.07,25.6,517.37-298.7m.41,147.35-.07-25.37L809.36,990.89l.07,25.36,517.37-298.7M846.86,1366.38c20.09-11.6,36.28-39.69,36.22-62.77s-16.37-32.37-36.45-20.78-36.33,39.71-36.26,62.76,16.4,32.39,36.49,20.79m-.32-114.9c20.08-11.6,36.28-39.65,36.21-62.73s-16.37-32.41-36.45-20.81S810,1207.64,810,1230.72s16.41,32.36,36.5,20.76m-.33-114.85c20.08-11.61,36.28-39.7,36.22-62.78s-16.38-32.37-36.46-20.77-36.32,39.71-36.25,62.75,16.4,32.39,36.49,20.8"/><polygon class="cls-17" points="1327.69 1028.09 1327.79 1065.71 923.13 1299.34 923.02 1261.72 1327.69 1028.09"/><polygon class="cls-18" points="1327.36 913.23 1327.46 950.81 922.81 1184.44 922.7 1146.86 1327.36 913.23"/><polygon class="cls-19" points="1327.03 798.34 1327.14 835.95 922.48 1069.58 922.38 1031.96 1327.03 798.34"/><polygon class="cls-17" points="1326.31 544.59 1326.39 570.2 809.02 868.9 808.95 843.3 1326.31 544.59"/><polygon class="cls-20" points="733.59 601.75 714.67 590.76 1381.14 205.97 1400.06 216.97 733.59 601.75"/><polygon class="cls-21" points="736.2 1523.57 717.27 1512.58 714.67 590.76 733.59 601.75 736.2 1523.57"/><polygon class="cls-22" points="1497.33 669.83 1499.31 1370.83 672.82 1848.01 670.84 1147.01 1085.09 1258.89 1497.33 669.83"/></svg>