<svg id="Capa_1" data-name="Capa 1" xmlns="http://www.w3.org/2000/svg" xmlns:xlink="http://www.w3.org/1999/xlink" viewBox="0 0 2122 2122"><defs><style>.cls-1{fill:none;}.cls-2{fill:#e52421;}.cls-3{fill:url(#linear-gradient);}.cls-4{fill:#a41916;}.cls-5{fill:#841813;}.cls-6{fill:#dceff5;}.cls-7{fill:#d80f16;}.cls-8{fill:#b51f1e;}.cls-9{fill:#991914;}.cls-10{clip-path:url(#clip-path);}.cls-11{fill:#c41718;}.cls-12{fill:#871821;}</style><linearGradient id="linear-gradient" x1="-535.05" y1="507.59" x2="-530.06" y2="507.59" gradientTransform="matrix(47.95, 0, 0, -47.95, 26980.17, 25376.2)" gradientUnits="userSpaceOnUse"><stop offset="0" stop-color="#ef7f70"/><stop offset="1" stop-color="#9a1b71"/></linearGradient><clipPath id="clip-path"><rect class="cls-1" x="250.37" y="800.14" width="723.41" height="930.51"/></clipPath></defs><path class="cls-2" d="M1598,1574.13q-53.26,30.93-106.53,61.9c6.43-3.74,9-14.34,9-33.11.1-32.5-2.14-60-19.42-102.13-17.62-42.94-24.81-77.92-24.75-100.66.25-88.32.8-283.42.83-293.68l106.53-61.92c0,10.27-.58,205.38-.83,293.7-.07,22.73,7.13,57.72,24.75,100.65,17.28,42.13,19.52,69.64,19.43,102.14C1607,1559.78,1604.43,1570.38,1598,1574.13Z"/><polygon class="cls-3" points="1324.44 1029.84 1430.97 967.92 1563.67 1044.53 1457.14 1106.44 1324.44 1029.84"/><path class="cls-4" d="M1457.14,1106.45c0,10.26-.58,205.36-.83,293.68-.06,22.74,7.13,57.72,24.75,100.66,17.28,42.12,19.52,69.63,19.42,102.13-.1,38.87-10.84,42.72-44.81,23.1-17.62-10.16-115.08-66.44-132.7-76.61-34-19.61-44.65-35.82-44.54-74.7.1-32.49,2.48-57.32,20-79.4a117.61,117.61,0,0,0,25.23-71.79c.25-88.32.81-283.41.84-293.68Z"/><path class="cls-5" d="M1394.21,1277.62c-12.55-7.25-23.92-7.92-32.13-3.15q-4.61,2.68-9.22,5.36c8.21-4.77,19.59-4.1,32.14,3.15,24.93,14.39,45.08,49.29,45,78,0,14.24-5.06,24.26-13.17,29l9.22-5.35c8.11-4.71,13.13-14.73,13.17-29C1439.3,1326.93,1419.15,1292,1394.21,1277.62Z"/><path class="cls-6" d="M1385,1283c24.93,14.39,45.08,49.29,45,78s-20.36,40.22-45.3,25.82-45.09-49.3-45-78S1360.05,1268.58,1385,1283Z"/><path class="cls-6" d="M1668.89,391.19c-63-36.33-120-39.72-161.18-15.78L1331.9,477.58c41.19-23.94,98.23-20.56,161.18,15.79,125.08,72.21,226.18,247.28,225.77,391-.21,71.41-25.42,121.65-66.08,145.28l175.81-102.17c40.66-23.63,65.88-73.87,66.08-145.27C1895.07,638.47,1794,463.41,1668.89,391.19Z"/><path class="cls-7" d="M1493.08,493.37c125.08,72.21,226.18,247.28,225.77,391s-102.16,201.73-227.25,129.5-226.18-247.3-225.77-391S1368,421.14,1493.08,493.37Z"/><path class="cls-6" d="M1457.34,509.09c-62.95-36.35-105.42-43.14-132.55-27C1266.55,516.79,1075.86,723.87,551.47,726l514.35,811.76c200-338.25,517.14-468.35,575.75-502.41,40.66-23.63,41.34-63.78,41.54-135.2C1683.52,756.36,1582.42,581.3,1457.34,509.09Z"/><path class="cls-8" d="M692.05,776.74c-107.13-61.86-204.18-67.6-274.26-26.86q-39.36,22.85-78.7,45.73c70.09-40.73,167.14-35,274.27,26.86,212.89,122.91,384.92,420.87,384.22,665.46-.35,121.53-43.25,207-112.44,247.25l78.69-45.73c69.19-40.22,112.1-125.72,112.44-247.25C1077,1197.61,905,899.65,692.05,776.74Z"/><path class="cls-9" d="M613.36,822.47c212.89,122.91,384.92,420.87,384.22,665.46s-173.83,343.31-386.73,220.39S226,1287.47,226.66,1042.83,400.46,699.55,613.36,822.47Z"/><g class="cls-10"><path class="cls-2" d="M973.78,1474.24c-.65,229.54-163.09,322.14-362.85,206.79S249.72,1286.1,250.37,1056.55s163.14-322.14,362.9-206.79C688.21,893,757.7,959.36,815.33,1037.54c49.54,67.26,90.3,143.24,118,220.72C959.41,1330.9,974,1404.84,973.78,1474.24Z"/></g><path class="cls-11" d="M685.54,1645.17C485.8,1529.85,324.37,1250.23,325,1020.66c.29-99.84,31.21-173.76,82.49-215.93-94.54,20.54-156.71,110-157.11,251.82-.65,229.57,160.78,509.18,360.53,624.5,112.86,65.16,213.8,63.94,280.39,9.16C832.81,1702.93,761.91,1689.25,685.54,1645.17Z"/><path class="cls-12" d="M744.28,1302.16c.15-1.54.2-3.14.2-4.79.1-39-27.34-86.56-61.26-106.11-9.93-5.74-19.31-8.43-27.59-8.43a31.87,31.87,0,0,0-3.69.19,26.87,26.87,0,0,0-3.5.56h-.14a16.16,16.16,0,0,0-2.85.8l-1,.29a11.36,11.36,0,0,0-1.94.8l-1.2.55h0c-.6.3-1.2.6-1.8,1,3.65-2.14,138.6-118.14,175.87-149.43,49.54,67.26,90.3,143.24,118,220.72-44,17-203.2,76.38-206.85,78.53l.45-.31a28.76,28.76,0,0,0,7.39-6.33l.94-1.15a28.39,28.39,0,0,0,3.09-4.78,19.09,19.09,0,0,0,1-1.9l.5-1c.25-.6.55-1.24.8-1.89a26.08,26.08,0,0,0,.95-2.74,20.64,20.64,0,0,0,.75-2.5l.2-.8.59-2.54c.21-1,.41-2,.55-3.15.1-.65.21-1.29.25-2,.11-.89.2-1.88.25-2.84Z"/><path class="cls-6" d="M683.2,1191.24c33.94,19.6,61.37,67.12,61.26,106.11s-27.71,54.74-61.66,35.15-61.38-67.11-61.26-106.12S649.25,1171.64,683.2,1191.24Z"/></svg>