<svg id="Layer_1" data-name="Layer 1" xmlns="http://www.w3.org/2000/svg" viewBox="0 0 2020 2020"><defs><style>.cls-1{fill:#b0b5b3;}.cls-2{fill:#ccd1d0;}.cls-3{fill:#424242;}.cls-4{fill:#ba1c07;}.cls-5{fill:#921605;}.cls-6{fill:#757575;}.cls-7{fill:#990a04;}.cls-8{fill:#b6bbba;}.cls-9{fill:#909492;}.cls-10{fill:#e4eae8;}.cls-11{fill:#adadad;}.cls-12{fill:#979797;}.cls-13{fill:#8a8a8a;}.cls-14{fill:#e80f05;}.cls-15{fill:#9a1503;}.cls-16{fill:#971705;}.cls-17{fill:#8f1505;}.cls-18{fill:#8c1505;}.cls-19{fill:#5a0e03;}.cls-20{fill:#9b1705;}.cls-21{fill:#8d1505;}.cls-22{fill:#6f1104;}.cls-23{fill:#721104;}</style></defs><path class="cls-1" d="M740.11,951.5l-8.6,12.2c.5-6.34,1-12.58,1.38-18.44A18.91,18.91,0,0,1,740.11,951.5Z"/><path class="cls-1" d="M730,984.47l18.23-25.85A19.09,19.09,0,0,0,752.8,960c7.61.68,29.05-11.41,50.11-25.46l8.88,3.31-3.12,43.41c-6.73,9.45-73.73,40.09-81.43,43.5C727.93,1012.85,728.89,998.81,730,984.47Z"/><path class="cls-2" d="M733,944.21a4.64,4.64,0,0,1-.09,1,11.24,11.24,0,0,0-2.34-1Z"/><path class="cls-2" d="M730.55,944.21a11.24,11.24,0,0,1,2.34,1c-.38,5.86-.88,12.1-1.38,18.44L695.15,1015h-.1c.41-10.24,7.82-56.46,9.94-70.78Z"/><path class="cls-3" d="M802.91,934.54c-21.06,14.05-42.5,26.14-50.11,25.46a19.09,19.09,0,0,1-4.59-1.38l24.87-35.11Z"/><path class="cls-1" d="M748.21,958.62,730,984.47c.48-7,1.07-14,1.53-20.77l8.6-12.2C742.25,954.34,743.82,957,748.21,958.62Z"/><path class="cls-4" d="M741.58,775.57l-4.79-4L747.33,755l5.47,2.53,11.7-5.15.88.48,17.14,9.95,1.86,18.83,4.11,6L779.8,806l-6.62-1.07L747.63,849.7l21.64,16.87,18,36.87-14.23,20.07-24.87,35.11c-4.39-1.64-6-4.28-8.1-7.12l25-35.29-11.31-26.42-20.58-14.44L694.56,857.7Z"/><path class="cls-5" d="M733,944.21H705c-2.12,14.32-9.53,60.54-9.94,70.78h.1l-9.46,13.47-24.57-27.6L703.44,927l20.95-29.54,40.68,18.72-25,35.29a18.91,18.91,0,0,0-7.22-6.24A4.64,4.64,0,0,0,733,944.21Z"/><path class="cls-6" d="M608.16,1196.59a28,28,0,0,1-5,4.08c-12.89,8.5-32,9.78-46.23,3.42a34.16,34.16,0,0,1-9.65-6.22v-85.74l24.59,11.31,36.26-4.57Z"/><path class="cls-7" d="M733.27,1566.1l46.25,26.82c-1.46,28.68-5.37,62.71-22.54,85.25-23.21,29.25-69.55,53.63-106.1,59.68-80.46,14.63-181.61,0-212.13-90.11-28-86.62,43.9-173.21,84.17-242.64,19.51-33,39-61,41.36-101.23,2.53-32.88-4.88-63.4-8.5-95l1.18-4.79c14.23,6.36,33.34,5.08,46.23-3.42,2.62,8.69,6.43,18,7.5,26.44,8.5,52.37-3.7,106-20.77,154.77-20.76,59.78-68.27,102.42-87.76,162.2-18.24,52.36-14.63,115.74,46.3,137.8,48.79,17,123.1,13.35,156-28.09C727.43,1625.51,733.68,1596.54,733.27,1566.1Z"/><path class="cls-6" d="M726.64,1025.05h.12a1.16,1.16,0,0,1,.48-.29c7.7-3.41,74.7-34,81.43-43.5l3.12-43.41-8.88-3.31-29.83-11,14.23-20.07-18-36.87L747.63,849.7l25.55-44.77L779.8,806l8.69-18.32-4.11-6-1.86-18.83-17.14-9.95c30.21-48.66,59.78-93.52,113.89-116.55l.1.11c12.19-10.53-3.31-31.51-17.25-29l.09.39C806.53,631.63,768.39,688,735.63,739.1l-11.8-5.36-10.64,4.67L707,735.58,696.12,753l4.79,4-54.43,95-1-343.2c0-19.69,6-39.31,14.36-56.95L933.8,611l1,.59c-.9,1.86-1.86,3.81-2.64,5.75a102.33,102.33,0,0,0-5.27,13.57,97,97,0,0,0-4,14.8c-.46,2.35-.94,4.58-1.26,6.93a5.05,5.05,0,0,1-.18,1.19c-.3,2.33-.49,4.76-.68,7.11-.2,2.54-.31,5.06-.31,7.59l1.09,370.12,1.76,605.24a53.21,53.21,0,0,0,.38,7,27.82,27.82,0,0,0,.48,4.87,26.76,26.76,0,0,0,.79,4.19,50.48,50.48,0,0,0,2.81,9.27,23.27,23.27,0,0,0,1.78,3.8,34.42,34.42,0,0,0,6.13,8.89,27.8,27.8,0,0,0,2.83,2.72,8.71,8.71,0,0,0,1.08,1c1,.76,2,1.47,3.12,2.23l-163.15-94.89c.28-3.79.38-7.5.57-11.11,1.26-39-1.27-76.74-8.48-114.5-2.74-13.06-4.1-23.22-3.61-32.47,29,17.06,55.9-2.91,60.76-45.84,5-43.88-15-94.89-44.67-114s-57.64.78-62.61,44.57c-2.44,21.44,1.07,44.56,8.77,64.84-9.25,26.73-10.63,54.34-7.41,82.9,3,35.12,10.24,67.69,10.43,98.79l-64.74-37.63c-12.48-7.22-20.19-22.63-20.19-44.38l-1.25-420.73,34.12-.48,12.58-22.25-.4-4.46,13-18.24C715.33,1020.47,725.27,1023.78,726.64,1025.05Z"/><path class="cls-2" d="M706.37,1017.93,730,984.47c-1.09,14.34-2.05,28.38-2.74,40.29a1.16,1.16,0,0,0-.48.29h-.12C725.27,1023.78,715.33,1020.47,706.37,1017.93Z"/><path class="cls-2" d="M695.15,1015l36.36-51.29c-.46,6.82-1,13.75-1.53,20.77l-23.61,33.46A109,109,0,0,0,695.15,1015Z"/><path class="cls-2" d="M1482.07,447.89l2.45,871.88c.08,44-30.81,97.42-69.06,119.45L992.6,1683.43c-19.32,11.12-36.78,12.1-49.34,4.67a40.25,40.25,0,0,1-3.71-2.52,8.71,8.71,0,0,1-1.08-1,20.59,20.59,0,0,1-2.83-2.72,34.42,34.42,0,0,1-6.13-8.89,23.27,23.27,0,0,1-1.78-3.8,50.48,50.48,0,0,1-2.81-9.27c-.29-1.36-.6-2.72-.79-4.19a27.82,27.82,0,0,1-.48-4.87,53.21,53.21,0,0,1-.38-7l-1.76-605.24,21.94-.09c0,59.58,42.24,83.75,94.31,54l334.1-191.45c52.08-29.85,94.32-102.4,94.32-162.09V447.89Zm-38.14,811.69V1003.11c0-52.66-37.15-73.93-83.08-47.61l-294.43,168.64c-45.82,26.23-83.08,90.2-83.08,142.76v256.48c0,52.58,37.26,73.94,83.08,47.6l294.43-168.63C1406.78,1376.14,1443.93,1312.16,1443.93,1259.58Z"/><path class="cls-8" d="M1461.12,299.86a22.71,22.71,0,0,0-3.42-1.78c.78.3,1.55.69,2.33,1.07A12.46,12.46,0,0,1,1461.12,299.86Z"/><path class="cls-9" d="M1443.93,1003.11v256.47c0,52.58-37.15,116.56-83.08,142.77L1066.42,1571c-45.82,26.34-83.08,5-83.08-47.6V1266.9c0-52.56,37.26-116.53,83.08-142.76L1360.85,955.5C1406.78,929.18,1443.93,950.45,1443.93,1003.11Z"/><path class="cls-10" d="M1436.92,480.57V737.34c0,52.58-37,116.55-82.51,142.88L1062,1049c-45.53,26.23-82.39,5-82.39-47.7V744.67c0-1,0-1.87.08-2.83,2.26-52.87,39.11-115.19,84.36-141.23l208.23-120.23,82.1-47.41C1400,406.65,1436.92,428,1436.92,480.57Zm-55.11,169.21.79-82.72c0-10.74-6.53-15.49-14.73-10.74l-307.39,182.3c-8.19,4.87-14.93,17.54-15,28.28l-.69,82.68c-.11,10.74,6.43,15.53,14.63,10.65L1366.9,678C1375,673.18,1381.72,660.5,1381.81,649.78Z"/><polygon class="cls-11" points="987.93 548.16 714.45 389.18 1137.32 145.05 1412.24 304.82 989.37 549.03 987.93 548.16"/><path class="cls-7" d="M1382.6,567.06l-.79,82.72c-.09,10.72-6.83,23.4-14.91,28.18L1059.41,860.23c-8.2,4.88-14.74.09-14.63-10.65l.69-82.68c.08-10.74,6.82-23.41,15-28.28l307.39-182.3C1376.07,551.57,1382.6,556.32,1382.6,567.06Z"/><path class="cls-12" d="M1222.87,161.36l.86.58C1223.44,161.73,1223.14,161.55,1222.87,161.36Z"/><path class="cls-12" d="M1186.57,140.3c-.1-.09,1.78,1,9,5.25a.81.81,0,0,1,.38.21c3,1.74,6.15,3.5,9.19,5.26,1.55,1,3,1.75,4.27,2.53,4,2.26,6.84,3.91,5.86,3.43,2.53,1.45,5.07,2.93,7.62,4.38.27.19.57.37.86.58a11,11,0,0,1,1.38.69Q1342.7,231,1460,299.15c-.78-.38-1.55-.77-2.33-1.07l-6-3.49L1183.56,138.81A16.86,16.86,0,0,1,1186.57,140.3Z"/><path class="cls-13" d="M1183.56,138.81l268.09,155.78-.89,1.46a15.79,15.79,0,0,1-2.83-.29,5.64,5.64,0,0,0-1.84-.31h-1.65a17.18,17.18,0,0,0-4.3.1l-2.05.21a8,8,0,0,0-1.17.1.37.37,0,0,1-.29.09h-.4c-.1,0-.1,0-.19.1-.48.1-1.07.19-1.65.28l-2.74.58a3.18,3.18,0,0,0-.78.21,1.81,1.81,0,0,0-.67.1h-.1a9.05,9.05,0,0,1-1.47.49l-5,1.75c-.59.19-1.17.4-1.65.59a3.27,3.27,0,0,0-.78.4.78.78,0,0,0-.29.17l-8.69,4.2L1137.32,145.05c13.37-7.68,30.43-13,45.44-6.7Z"/><path class="cls-10" d="M1062,601.7l210.28-121.32L1064.08,600.61c-45.25,26-82.1,88.36-84.36,141.23C980.9,689.76,1017.27,627.53,1062,601.7Z"/><path class="cls-14" d="M979.64,1009.73c0,53.84,37.72,75.69,84.44,48.75l299.2-172.79c46.64-26.92,84.46-92.48,84.46-146.3V476.57c0-53.85-37.82-75.69-84.46-48.77l-8.87,5.17-82.1,47.41L1062,601.7c-44.76,25.83-81.13,88.06-82.31,140.14-.08,1-.08,1.84-.08,2.83v265.06Zm392.22-108.64-334.1,191.45c-52.07,29.72-94.31,5.55-94.31-54V747.29c0-59.68,42.24-132.23,94.31-162.08l334.1-191.34c52.08-29.85,94.32-5.66,94.32,54V739C1466.18,798.69,1423.94,871.24,1371.86,901.09Z"/><path class="cls-15" d="M1363.28,885.69l-299.2,172.79c-46.72,26.94-84.44,5.09-84.44-48.75v-8.39c0,52.66,36.86,73.93,82.39,47.7l292.38-168.82c45.54-26.33,82.51-90.3,82.51-142.88V480.57c0-52.56-37-73.92-82.51-47.6l8.87-5.17c46.64-26.92,84.46-5.08,84.46,48.77V739.39C1447.74,793.21,1409.92,858.77,1363.28,885.69Z"/><path class="cls-13" d="M714.45,389.18l273.48,159a168.22,168.22,0,0,0-20.68,17.94,17.44,17.44,0,0,0-2.43,2.43c-2.36,2.34-4.59,4.77-6.74,7.32-2.05,2.33-4,4.67-5.76,7A183.13,183.13,0,0,0,933.8,611L659.86,451.79C671.85,426.94,690.27,403.22,714.45,389.18Z"/><path class="cls-8" d="M939.55,1685.58a40.25,40.25,0,0,0,3.71,2.52,1.61,1.61,0,0,0-.59-.29C941.59,1687.05,940.52,1686.34,939.55,1685.58Z"/><path class="cls-8" d="M941.31,599.34c-.1.1-.1.21-.21.31C941.1,599.55,941.21,599.44,941.31,599.34Z"/><path class="cls-8" d="M941.1,599.65l-.39.58C940.91,599.94,941,599.73,941.1,599.65Z"/><path class="cls-2" d="M1455.65,297.41c-.58-.19-1.07-.38-1.67-.58a15.41,15.41,0,0,0-2.24-.5A23.71,23.71,0,0,1,1455.65,297.41ZM937.21,606.77a.28.28,0,0,1,.1-.19A.28.28,0,0,0,937.21,606.77Zm4.1-7.43c-.1.1-.21.21-.21.31s-.19.29-.39.58l.39-.58C941.21,599.55,941.21,599.44,941.31,599.34Zm-19.8,439.26-1.09-370.12c0-2.53.11-5.05.31-7.59s.38-4.78.68-7.11a5.05,5.05,0,0,0,.18-1.19c.4-2.35.8-4.58,1.26-6.93,1.09-5,2.45-9.94,4-14.8,1.57-4.6,3.31-9.17,5.27-13.57.78-1.94,1.74-3.89,2.64-5.75l-1-.59a183.13,183.13,0,0,1,18.52-28.07c1.76-2.36,3.71-4.7,5.76-7,2.15-2.55,4.38-5,6.74-7.32a23.23,23.23,0,0,1,2.43-2.43,168.22,168.22,0,0,1,20.68-17.94l1.44.87,422.87-244.21,8.69-4.2a.78.78,0,0,1,.29-.17,20.89,20.89,0,0,0,2.43-1l5-1.75c1.07-.3,1.86-.49,2.24-.59a3.18,3.18,0,0,1,.78-.21l2.74-.58c.58-.09,1.17-.18,1.65-.28a1.23,1.23,0,0,0,.59-.1.37.37,0,0,0,.29-.09,8,8,0,0,1,1.17-.1l2.05-.21a32.42,32.42,0,0,1,4.3-.1h1.17c.39.1,1.36.2,2.32.31a15.79,15.79,0,0,0,2.83.29l.89-1.46,6,3.49a22.71,22.71,0,0,1,3.42,1.78c13.54,7.89,20.57,27,20.66,44.57l.29,103.46h-15.89c0-59.68-42.24-83.87-94.32-54l-334.1,191.34c-52.07,29.85-94.31,102.4-94.31,162.08v291.22Z"/><path class="cls-8" d="M935.64,1681.88a20.59,20.59,0,0,0,2.83,2.72A27.8,27.8,0,0,1,935.64,1681.88Z"/><path class="cls-8" d="M923.27,1643.84a53.21,53.21,0,0,0,.38,7A53.21,53.21,0,0,1,923.27,1643.84Z"/><path class="cls-2" d="M879.27,636.3c-54.11,23-83.68,67.89-113.89,116.55l-.88-.48L735.63,739.1c32.76-51.1,70.9-107.47,126.58-131.27l-.09-.39c13.94-2.54,29.44,18.44,17.25,29Z"/><path class="cls-7" d="M779.52,1592.92l-46.25-26.82c-.19-31.1-7.41-63.67-10.43-98.79-3.22-28.56-1.84-56.17,7.41-82.9,8.1,21.27,20.67,39.4,35.9,49.26l1.85,1.17c-.49,9.25.87,19.41,3.61,32.47,7.21,37.76,9.74,75.5,8.48,114.5C779.9,1585.42,779.8,1589.13,779.52,1592.92Z"/><path class="cls-7" d="M771.82,1390.46c-10.94-7-18.37-25.84-16.49-42,1.17-10.42,5.84-17.16,12-18.71,3.42-1,7.21-.3,11.12,2.24,10.91,7,18.32,25.83,16.47,42-1,8.41-4.18,14.44-8.68,17.37C782.14,1394,777.08,1393.88,771.82,1390.46Z"/><path class="cls-16" d="M764.5,752.37l-11.7,5.15-5.09-3.2-16.87-7.81c1.57-2.43,3.12-4.88,4.79-7.41Z"/><path class="cls-7" d="M767.32,1329.72c-6.15,1.55-10.82,8.29-12,18.71-1.88,16.19,5.55,35,16.49,42,5.26,3.42,10.32,3.52,14.41.88-12.17,16.77-17.54,28.77-18.23,43.5l-1.85-1.17c-15.23-9.86-27.8-28-35.9-49.26a122.29,122.29,0,0,1,4.69-12.27c6.15-13.37,17.17-40.18,31.8-43.89Z"/><polygon class="cls-4" points="747.71 754.32 752.8 757.52 747.33 754.99 747.71 754.32"/><path class="cls-17" d="M747.71,754.32l-.38.67-17-7.79a8,8,0,0,0,.48-.69Z"/><path class="cls-12" d="M730.25,1384.41c-7.7-20.28-11.21-43.4-8.77-64.84,5-43.79,33-63.78,62.61-44.57s49.63,70.12,44.67,114c-4.86,42.93-31.8,62.9-60.76,45.84.69-14.73,6.06-26.73,18.23-43.5,4.5-2.93,7.7-9,8.68-17.37,1.85-16.18-5.56-35-16.47-42-3.91-2.54-7.7-3.22-11.12-2.24l-.58-1.47c-14.63,3.71-25.65,30.52-31.8,43.89A122.29,122.29,0,0,0,730.25,1384.41Z"/><polygon class="cls-18" points="741.58 775.57 694.57 857.7 692.51 856.7 694.37 857.99 646.78 941.07 646.48 851.94 700.91 756.95 741.58 775.57"/><polygon class="cls-19" points="696.12 752.96 736.79 771.57 741.58 775.57 700.91 756.95 696.12 752.96"/><path class="cls-16" d="M723.83,733.74l11.8,5.36c-1.67,2.53-3.22,5-4.79,7.41l-17.65-8.1Z"/><polygon class="cls-4" points="733.18 875.35 730.94 879.35 713.11 871.14 694.37 857.99 694.57 857.7 733.18 875.35"/><polygon class="cls-19" points="733.18 875.35 753.76 889.79 730.94 879.35 733.18 875.35"/><polygon class="cls-19" points="724.39 897.49 722.74 893.58 730.94 879.35 753.76 889.79 765.07 916.21 724.39 897.49"/><polygon class="cls-4" points="730.94 879.35 722.74 893.58 713.11 871.14 730.94 879.35"/><path class="cls-17" d="M730.84,746.51a8,8,0,0,1-.48.69l-18.15-8.39,1-.4Z"/><polygon class="cls-4" points="646.78 941.07 694.37 857.99 713.11 871.14 722.74 893.58 703.44 927.03 646.97 1006.99 646.78 941.07"/><polygon class="cls-6" points="722.74 893.58 724.39 897.49 703.44 927.03 722.74 893.58"/><polygon class="cls-17" points="730.36 747.2 747.33 754.99 736.79 771.57 696.12 752.96 707.04 735.59 713.2 738.41 712.21 738.81 730.36 747.2"/><polygon class="cls-4" points="646.97 1006.99 703.44 927.03 661.12 1000.86 685.69 1028.46 646.97 1010.61 646.97 1006.99"/><polygon class="cls-18" points="692.51 856.7 694.57 857.7 694.37 857.99 692.51 856.7"/><path class="cls-4" d="M693.39,1036.17l.4,4.46-12.58,22.25-34.12.48-.12-52.75,38.72,17.85,9.46-13.47a109,109,0,0,1,11.22,2.94Z"/><polygon class="cls-4" points="646.97 1006.99 646.97 1010.61 645.02 1009.73 646.97 1006.99"/><polygon class="cls-4" points="646.78 941.07 646.97 1006.99 645.02 1009.73 646.97 1010.61 647.09 1063.36 633.42 1063.57 618.69 1117.49 608.16 1118.87 571.9 1123.44 587.48 1041.82 582.12 1033.93 583.39 1025.14 617.91 964.98 626.2 959.12 634.3 962.82 646.78 941.07"/><polygon class="cls-18" points="646.78 941.07 634.3 962.82 628.06 957.74 594.72 942.33 646.48 851.94 646.78 941.07"/><polygon class="cls-4" points="628.06 957.74 634.3 962.82 626.2 959.12 628.06 957.74"/><polygon class="cls-20" points="628.06 957.74 626.2 959.12 593.63 944.21 594.72 942.33 628.06 957.74"/><polygon class="cls-21" points="617.91 964.98 583.39 1025.14 542.72 1006.4 577.24 946.33 617.91 964.98"/><polygon class="cls-20" points="593.63 944.21 626.2 959.12 617.91 964.98 577.24 946.33 587.48 939.02 594.72 942.33 593.63 944.21"/><polygon class="cls-22" points="583.39 1025.14 582.12 1033.93 541.46 1015.28 542.72 1006.4 583.39 1025.14"/><polygon class="cls-23" points="571.9 1123.44 547.31 1112.13 531.23 1104.72 546.82 1023.1 587.48 1041.82 571.9 1123.44"/><polygon class="cls-19" points="587.48 1041.82 546.82 1023.1 541.46 1015.28 582.12 1033.93 587.48 1041.82"/></svg>